<svg width="81" height="26" viewBox="0 0 81 26" fill="none" xmlns="http://www.w3.org/2000/svg">
<path d="M80.2285 5.91933C78.9127 5.53724 77.7146 4.81687 76.7483 3.82689C75.7821 2.83692 75.08 1.61034 74.709 0.264147C74.6789 0.186244 74.6266 0.119408 74.5588 0.0723023C74.4911 0.0251971 74.4111 0 74.3291 0C74.2472 0 74.1672 0.0251971 74.0994 0.0723023C74.0317 0.119408 73.9794 0.186244 73.9492 0.264147C73.5782 1.61034 72.8762 2.83692 71.9099 3.82689C70.9437 4.81687 69.7455 5.53724 68.4297 5.91933C68.3507 5.9447 68.2817 5.99519 68.2327 6.06345C68.1837 6.13172 68.1572 6.21421 68.1572 6.29889C68.1572 6.38358 68.1837 6.46605 68.2327 6.53431C68.2817 6.60258 68.3507 6.65307 68.4297 6.67844C69.7429 7.06611 70.9378 7.78971 71.9014 8.78086C72.865 9.77202 73.5656 10.998 73.937 12.343C73.9685 12.423 74.0227 12.4915 74.0926 12.5397C74.1624 12.588 74.2448 12.6137 74.3291 12.6137C74.4134 12.6137 74.4958 12.588 74.5657 12.5397C74.6356 12.4915 74.6898 12.423 74.7213 12.343C75.0925 10.998 75.7931 9.77192 76.7568 8.78075C77.7204 7.78958 78.9153 7.06602 80.2285 6.67844C80.3076 6.65307 80.3766 6.60258 80.4256 6.53431C80.4746 6.46605 80.501 6.38358 80.501 6.29889C80.501 6.21421 80.4746 6.13172 80.4256 6.06345C80.3766 5.99519 80.3076 5.9447 80.2285 5.91933Z" fill="#F6A733"/>
<path d="M9.11577 11.359C8.81083 11.3437 8.51027 11.438 8.26614 11.6254C8.02201 11.8129 7.84969 12.0817 7.77903 12.3854L5.8112 19.3573L3.59421 11.359H0.5L4.38971 22.7352H7.35728L11.2889 11.359H9.11577Z" fill="#2D2E7F"/>
<path d="M20.1559 11.3591C19.966 11.3531 19.7769 11.388 19.6009 11.4616C19.425 11.5352 19.2662 11.6457 19.1347 11.7861C19.0059 11.9219 18.9047 12.0824 18.8369 12.2584C18.769 12.4344 18.736 12.6224 18.7395 12.8115V18.6285C18.7629 18.9098 18.7193 19.1926 18.6126 19.453C18.5059 19.7133 18.3393 19.9435 18.1268 20.1237C17.7383 20.4321 17.2595 20.5976 16.7676 20.5936C16.2814 20.5996 15.8081 20.4336 15.4278 20.1237C15.2231 19.9385 15.0637 19.7068 14.9626 19.447C14.8615 19.1873 14.8215 18.9069 14.8458 18.6285V11.3591H11.917V18.0302C11.917 19.9988 12.4123 21.296 13.4028 21.9218C14.3907 22.5496 15.5216 22.903 16.6839 22.9472C17.8763 22.9577 19.0485 22.6326 20.0722 22.0074C21.1043 21.3809 21.62 20.0552 21.6193 18.0302V11.3591H20.1559Z" fill="#2D2E7F"/>
<path d="M41.9872 12.1224C40.9721 11.4722 39.7967 11.1314 38.5989 11.1398C37.431 11.1873 36.2973 11.5567 35.3179 12.209C34.328 12.8675 33.8327 14.1647 33.832 16.1006V22.7383H36.7608V15.5023C36.737 15.2236 36.7775 14.9431 36.8791 14.6834C36.9808 14.4237 37.1407 14.192 37.3459 14.0071C37.7248 13.6968 38.1973 13.5307 38.6827 13.5372C39.1745 13.5333 39.6533 13.6988 40.0419 14.0071C40.2537 14.1878 40.4199 14.4181 40.5266 14.6783C40.6332 14.9385 40.6771 15.2211 40.6546 15.5023V21.2828C40.6465 21.4818 40.6777 21.6805 40.7461 21.867C40.8145 22.0536 40.9188 22.2242 41.0528 22.3687C41.1889 22.4991 41.3499 22.5993 41.5256 22.6631C41.7013 22.7268 41.888 22.7528 42.074 22.7394H43.5405V16.1017C43.5384 14.1052 43.0207 12.7788 41.9872 12.1224Z" fill="#2D2E7F"/>
<path d="M51.3894 19.4407C51.1727 19.7725 50.876 20.0416 50.5279 20.222C50.1798 20.4023 49.792 20.4878 49.4022 20.4702C49.0965 20.4934 48.7898 20.4436 48.5062 20.3247C48.2227 20.2059 47.97 20.0212 47.7683 19.7853C47.3344 19.2278 47.1124 18.5287 47.1433 17.817H53.1469C53.3138 17.8354 53.4826 17.8163 53.6416 17.7611C53.8005 17.7059 53.9458 17.616 54.0672 17.4975C54.1886 17.3789 54.2833 17.2348 54.3447 17.075C54.406 16.9152 54.4325 16.7437 54.4223 16.5724C54.4279 15.1445 53.9563 13.7575 53.0856 12.6411C52.5834 12.114 51.976 11.7037 51.3048 11.4381C50.6336 11.1725 49.9143 11.0579 49.1959 11.102C48.4994 11.0643 47.8035 11.1869 47.1595 11.4607C46.5155 11.7344 45.9398 12.1524 45.4747 12.6839C44.5465 13.9016 44.0849 15.4239 44.1768 16.965C44.0743 18.5516 44.5505 20.1207 45.5135 21.3692C45.979 21.9012 46.5555 22.3195 47.2002 22.5933C47.845 22.8671 48.5416 22.9894 49.2388 22.9511C50.4018 22.9967 51.5474 22.6516 52.5005 21.9686C53.3904 21.3034 54.0147 20.3312 54.2579 19.2318H52.1676C52.0308 19.2115 51.8914 19.2194 51.7577 19.2553C51.624 19.2912 51.4988 19.3542 51.3894 19.4407ZM47.7713 14.1833C47.9696 13.9838 48.2057 13.8278 48.4651 13.725C48.7244 13.6221 49.0016 13.5744 49.2796 13.585C49.5643 13.5663 49.8496 13.6099 50.1165 13.7131C50.3833 13.8163 50.6255 13.9766 50.8267 14.1833C51.204 14.6702 51.4104 15.2725 51.4129 15.8937H47.1474C47.1327 15.2624 47.3561 14.6496 47.7713 14.1823V14.1833Z" fill="#2D2E7F"/>
<path d="M69.8916 12.0852C68.8778 11.4346 67.7033 11.0937 66.5064 11.1026C65.9051 11.1302 65.3084 11.2233 64.7265 11.3804C64.1793 11.5253 63.6716 11.7956 63.2417 12.1708C62.7591 11.7531 62.1854 11.4602 61.569 11.3167C60.9521 11.1733 60.3215 11.1012 59.689 11.1016C58.5197 11.148 57.3845 11.5171 56.4038 12.1697C55.4139 12.8283 54.9186 14.1255 54.918 16.0613V22.7356H57.8467V15.463C57.823 15.1843 57.8637 14.9037 57.9655 14.644C58.0674 14.3843 58.2275 14.1526 58.4329 13.9678C58.8127 13.657 59.2863 13.4909 59.7727 13.4979C60.2645 13.4941 60.7433 13.6596 61.1319 13.9678C61.3417 14.1499 61.506 14.3805 61.6112 14.6406C61.7163 14.9006 61.7593 15.1826 61.7364 15.463V22.7356H64.6233V15.463C64.5997 15.1825 64.6424 14.9003 64.7476 14.6401C64.8527 14.38 65.0175 14.1494 65.2279 13.9678C65.6184 13.6631 66.0959 13.4981 66.5871 13.4981C67.0783 13.4981 67.5558 13.6631 67.9463 13.9678C68.1581 14.1486 68.3243 14.3788 68.431 14.639C68.5376 14.8992 68.5815 15.1818 68.559 15.463V21.2801C68.5505 21.4733 68.5813 21.6662 68.6497 21.8465C68.718 22.0268 68.8223 22.1907 68.9559 22.3276C69.0895 22.4645 69.2495 22.5714 69.4257 22.6417C69.6019 22.7119 69.7905 22.7439 69.9795 22.7356H71.4449V16.0613C71.4428 14.067 70.9251 12.7416 69.8916 12.0852Z" fill="#2D2E7F"/>
<path d="M52.7486 10.6582C51.7549 9.90153 50.5494 9.49198 49.3104 9.4901C48.0714 9.48822 46.8647 9.89412 45.8688 10.6478C45.7127 10.251 45.6972 9.8108 45.8249 9.40351C45.9527 8.99621 46.2156 8.6474 46.5684 8.41744C47.3503 7.78711 48.3171 7.44434 49.3128 7.44434C50.3085 7.44434 51.2753 7.78711 52.0572 8.41744C52.4122 8.64777 52.6762 8.9989 52.8027 9.40886C52.9292 9.81883 52.91 10.2613 52.7486 10.6582Z" fill="#2D2E7F"/>
<path d="M51.3432 23.9141C51.249 24.3898 50.9969 24.8175 50.6295 25.1248C50.2621 25.4321 49.802 25.6 49.3273 25.6C48.8527 25.6 48.3926 25.4321 48.0252 25.1248C47.6578 24.8175 47.4057 24.3898 47.3115 23.9141C48.6365 24.2403 50.0182 24.2403 51.3432 23.9141Z" fill="#2D2E7F"/>
<path d="M30.4638 11.9161C29.3952 11.3004 28.1738 11.0177 26.9499 11.1027C25.7962 11.0256 24.6538 11.3742 23.7301 12.0853C23.0757 12.6273 22.6552 13.41 22.5588 14.2655H25.361C25.4231 14.1172 25.5148 13.9838 25.6301 13.8738C25.7454 13.7638 25.8819 13.6795 26.0309 13.6264C26.4377 13.5066 26.8595 13.4485 27.2829 13.4541C28.7125 13.4541 28.9167 14.0535 28.9167 14.4795C28.9167 15.0517 28.304 15.4193 27.0786 15.5916C25.7379 15.6582 24.4354 16.0701 23.292 16.7892C22.9309 17.1003 22.6492 17.4967 22.4712 17.944C22.2933 18.3913 22.2246 18.8762 22.2709 19.3568C22.2227 19.8758 22.3005 20.399 22.4975 20.8799C22.6946 21.3608 23.0047 21.7845 23.4003 22.1134C24.1675 22.6749 25.0916 22.9679 26.035 22.9487C26.6294 22.9737 27.2226 22.8764 27.7795 22.6626C28.3365 22.4488 28.8458 22.1229 29.2772 21.7041C29.4154 22.0286 29.6478 22.3018 29.9431 22.4865C30.2383 22.6713 30.582 22.7586 30.9275 22.7367H31.678V17.7039V14.3093C31.6945 13.8372 31.5914 13.3688 31.3786 12.9495C31.1659 12.5302 30.8508 12.1742 30.4638 11.9161ZM28.9586 18.0766C28.9885 18.4214 28.9441 18.7686 28.8284 19.0938C28.7127 19.4191 28.5287 19.7144 28.2892 19.9589C28.0497 20.2035 27.7607 20.3913 27.4425 20.5092C27.1243 20.6271 26.7846 20.6721 26.4475 20.6411C26.0563 20.6692 25.6688 20.548 25.36 20.3007C25.2323 20.165 25.1332 20.004 25.0685 19.8277C25.0039 19.6514 24.9752 19.4634 24.9842 19.2754C24.9709 18.937 25.0739 18.6045 25.2752 18.3356C25.5745 18.0424 25.9537 17.8487 26.3628 17.7801L27.3268 17.5713C27.8893 17.4459 28.437 17.2593 28.9607 17.0147L28.9586 18.0766Z" fill="#2D2E7F"/>
<path d="M74.3267 20.323C74.5489 20.323 74.7661 20.3904 74.9508 20.5166C75.1355 20.6428 75.2795 20.8222 75.3645 21.032C75.4496 21.2419 75.4718 21.4728 75.4285 21.6956C75.3851 21.9184 75.2781 22.1231 75.121 22.2837C74.9639 22.4444 74.7638 22.5538 74.5459 22.5981C74.328 22.6424 74.1021 22.6196 73.8969 22.5327C73.6916 22.4458 73.5162 22.2986 73.3928 22.1097C73.2693 21.9208 73.2034 21.6987 73.2034 21.4716C73.2034 21.3207 73.2325 21.1714 73.2889 21.032C73.3454 20.8927 73.4281 20.7661 73.5324 20.6594C73.6367 20.5528 73.7606 20.4681 73.8969 20.4104C74.0331 20.3527 74.1792 20.323 74.3267 20.323ZM74.3267 19.9951C74.0414 19.9951 73.7624 20.0817 73.5251 20.2438C73.2878 20.4059 73.1028 20.6363 72.9936 20.9059C72.8844 21.1755 72.8558 21.4722 72.9115 21.7584C72.9672 22.0446 73.1046 22.3075 73.3064 22.5138C73.5082 22.7202 73.7653 22.8606 74.0452 22.9176C74.3251 22.9745 74.6152 22.9453 74.8789 22.8336C75.1426 22.7219 75.3679 22.5328 75.5265 22.2902C75.6851 22.0476 75.7697 21.7624 75.7697 21.4705C75.7697 21.0792 75.6177 20.704 75.3471 20.4273C75.0765 20.1506 74.7094 19.9951 74.3267 19.9951Z" fill="#2D2E7F"/>
<path d="M73.8096 22.115V20.9665C73.8094 20.9487 73.8128 20.9311 73.8193 20.9147C73.8259 20.8983 73.8356 20.8834 73.8478 20.8709C73.8601 20.8584 73.8747 20.8485 73.8907 20.8417C73.9068 20.835 73.924 20.8316 73.9413 20.8318H74.4202C74.5297 20.8221 74.6388 20.8541 74.7266 20.9216C74.762 20.9566 74.7895 20.9992 74.8072 21.0462C74.8248 21.0933 74.8322 21.1438 74.8287 21.1941C74.8315 21.2639 74.8137 21.333 74.7777 21.3925C74.7451 21.4432 74.6958 21.4803 74.6388 21.4969C74.6874 21.5109 74.7293 21.5429 74.7562 21.5867C74.7832 21.6466 74.7968 21.7119 74.796 21.7778L74.8032 21.9312V21.9803C74.802 21.9963 74.802 22.0124 74.8032 22.0284C74.8039 22.0451 74.8082 22.0614 74.8158 22.0762C74.8234 22.091 74.8341 22.1039 74.8471 22.114H74.5622C74.5495 22.0898 74.5418 22.0631 74.5397 22.0357C74.5358 22.0087 74.5334 21.9815 74.5326 21.9542V21.8164C74.5333 21.7596 74.518 21.7038 74.4887 21.6556C74.4485 21.6233 74.3976 21.6083 74.3467 21.6138H74.073V22.115H73.8096ZM74.069 21.3904H74.3753C74.4272 21.3943 74.4789 21.3795 74.5213 21.3486C74.5521 21.3139 74.5692 21.2687 74.5692 21.2218C74.5692 21.1749 74.5521 21.1296 74.5213 21.0949C74.5034 21.0787 74.4826 21.0665 74.4599 21.0587C74.4373 21.051 74.4134 21.048 74.3896 21.05H74.072L74.069 21.3904Z" fill="#2D2E7F"/>
</svg>
