<svg width="157" height="74" viewBox="0 0 157 74" fill="none" xmlns="http://www.w3.org/2000/svg">
<path d="M147.203 25.7549V34.7346C147.208 35.0036 147.141 35.2691 147.009 35.5048C146.878 35.7404 146.686 35.9378 146.452 36.0773C146.219 36.2169 145.952 36.2936 145.68 36.2998C145.407 36.3061 145.137 36.2416 144.897 36.1129C142.559 34.9077 139.952 34.3002 137.313 34.3462C134.995 34.3195 132.696 34.7786 130.571 35.6931C130.038 35.9299 129.438 35.976 128.874 35.8235C128.31 35.6711 127.818 35.3296 127.482 34.8578C124.357 30.6753 120.268 27.285 115.552 24.9666C110.836 22.6483 105.629 21.4683 100.359 21.524C95.8184 21.4906 91.3179 22.3648 87.1297 24.0938C82.9414 25.8228 79.1523 28.3706 75.9912 31.5834C75.6914 31.8936 75.3143 32.1208 74.8975 32.2425C74.4807 32.3641 74.0388 32.3759 73.6159 32.2767C71.8708 31.8816 70.0857 31.684 68.2952 31.6878C65.7198 31.5582 63.1455 31.9653 60.7405 32.8825C58.3355 33.7997 56.1538 35.2065 54.3377 37.0109C53.9723 37.4607 53.4664 37.779 52.8986 37.9165C52.3307 38.0539 51.7328 38.0028 51.1975 37.771C47.6023 36.2407 43.7359 35.425 39.8201 35.3705C35.9043 35.316 32.0162 36.0239 28.3786 37.4536C27.8162 37.6851 27.1903 37.7195 26.6054 37.5512C26.0204 37.3828 25.5117 37.0218 25.1641 36.5285C21.6276 31.6481 14.3723 28.3027 5.99615 28.3027C4.52686 28.3012 3.05945 28.4059 1.6057 28.6159C1.40638 28.6448 1.20306 28.6309 1.00971 28.5751C0.816364 28.5193 0.637569 28.4229 0.485585 28.2925C0.333602 28.1622 0.212033 28.001 0.129233 27.82C0.046432 27.639 0.00436148 27.4424 0.00590011 27.2439V25.7549C0.00590011 11.7821 32.9555 0.453003 73.6011 0.453003H73.6201C114.259 0.455091 147.203 11.7863 147.203 25.7549Z" fill="#2D2E7F"/>
<path d="M17.8775 45.5203C17.2448 45.4897 16.6211 45.6782 16.1146 46.0531C15.608 46.428 15.2505 46.9657 15.1038 47.5731L11.0206 61.5167L6.42041 45.5203H0L8.07107 68.2724H14.2287L22.3867 45.5203H17.8775Z" fill="#2D2E7F"/>
<path d="M40.7812 45.5205C40.387 45.5085 39.9946 45.5784 39.6296 45.7256C39.2646 45.8727 38.935 46.0938 38.6622 46.3746C38.395 46.6461 38.1849 46.9671 38.0441 47.3191C37.9034 47.6711 37.8348 48.0471 37.8422 48.4253V60.0593C37.8906 60.6218 37.8002 61.1875 37.5788 61.7082C37.3575 62.2289 37.0116 62.6891 36.5708 63.0497C35.7646 63.6664 34.7711 63.9975 33.7505 63.9895C32.7416 64.0015 31.7595 63.6695 30.9705 63.0497C30.5456 62.6793 30.2149 62.2157 30.0051 61.6963C29.7953 61.1769 29.7123 60.6161 29.7627 60.0593V45.5205H23.6855V58.8627C23.6855 62.7998 24.7132 65.3942 26.7686 66.6458C28.8184 67.9013 31.165 68.6082 33.5768 68.6965C36.0509 68.7175 38.4832 68.0673 40.6074 66.817C42.749 65.564 43.819 62.9126 43.8176 58.8627V45.5205H40.7812Z" fill="#2D2E7F"/>
<path d="M86.0821 47.0429C83.9756 45.7427 81.5368 45.061 79.0514 45.0778C76.6279 45.1728 74.2755 45.9116 72.2432 47.2162C70.1893 48.5332 69.1616 51.1276 69.1602 54.9993V68.2747H75.2373V53.8027C75.1878 53.2454 75.2719 52.6844 75.4828 52.1649C75.6937 51.6455 76.0255 51.1822 76.4515 50.8123C77.2376 50.1917 78.218 49.8596 79.2251 49.8725C80.2457 49.8647 81.2392 50.1957 82.0455 50.8123C82.485 51.1739 82.83 51.6343 83.0512 52.1547C83.2725 52.6751 83.3636 53.2404 83.3168 53.8027V65.3636C83.3001 65.7617 83.3647 66.159 83.5066 66.5321C83.6486 66.9051 83.865 67.2463 84.1432 67.5354C84.4256 67.7961 84.7596 67.9965 85.1242 68.1241C85.4888 68.2517 85.8762 68.3036 86.2622 68.2768H89.305V55.0014C89.3007 51.0086 88.2264 48.3557 86.0821 47.0429Z" fill="#2D2E7F"/>
<path d="M105.593 61.682C105.143 62.3457 104.528 62.8839 103.805 63.2446C103.083 63.6053 102.279 63.7762 101.47 63.741C100.835 63.7874 100.199 63.6879 99.6106 63.4501C99.0222 63.2123 98.498 62.8429 98.0794 62.3711C97.1791 61.2563 96.7185 59.8581 96.7826 58.4346H109.24C109.586 58.4714 109.936 58.4333 110.266 58.3229C110.596 58.2126 110.897 58.0326 111.149 57.7956C111.401 57.5586 111.598 57.2702 111.725 56.9507C111.852 56.6311 111.907 56.288 111.886 55.9454C111.898 53.0896 110.919 50.3156 109.113 48.0829C108.071 47.0287 106.81 46.2081 105.418 45.677C104.025 45.1458 102.532 44.9165 101.042 45.0048C99.5964 44.9294 98.1525 45.1745 96.8162 45.7221C95.4799 46.2696 94.2852 47.1056 93.3202 48.1685C91.3941 50.6039 90.4365 53.6486 90.627 56.7306C90.4143 59.9038 91.4025 63.0421 93.4007 65.5391C94.3667 66.603 95.5628 67.4396 96.9006 67.9872C98.2385 68.5348 99.6841 68.7793 101.131 68.7029C103.544 68.794 105.921 68.1038 107.899 66.7377C109.745 65.4073 111.04 63.4631 111.545 61.2643H107.208C106.924 61.2235 106.635 61.2395 106.357 61.3113C106.08 61.383 105.82 61.5091 105.593 61.682ZM98.0857 51.1674C98.4972 50.7684 98.987 50.4564 99.5252 50.2506C100.063 50.0449 100.639 49.9496 101.215 49.9708C101.806 49.9332 102.398 50.0206 102.952 50.227C103.505 50.4333 104.008 50.754 104.426 51.1674C105.208 52.1411 105.637 53.3457 105.642 54.588H96.791C96.7605 53.3256 97.2241 52.1 98.0857 51.1653V51.1674Z" fill="#2D2E7F"/>
<path d="M143.989 46.9696C141.885 45.6685 139.448 44.9867 136.965 45.0045C135.717 45.0596 134.479 45.2459 133.271 45.56C132.136 45.8499 131.083 46.3905 130.19 47.1409C129.189 46.3055 127.999 45.7196 126.72 45.4326C125.44 45.146 124.131 45.0017 122.819 45.0024C120.392 45.0953 118.037 45.8335 116.002 47.1388C113.948 48.4558 112.92 51.0502 112.919 54.9219V68.2703H118.996V53.7253C118.947 53.1678 119.031 52.6067 119.243 52.0872C119.454 51.5678 119.786 51.1045 120.212 50.7348C121 50.1132 121.983 49.781 122.992 49.7951C124.013 49.7874 125.006 50.1184 125.813 50.7348C126.248 51.099 126.589 51.5603 126.807 52.0804C127.025 52.6005 127.114 53.1644 127.067 53.7253V68.2703H133.057V53.7253C133.008 53.1643 133.097 52.5999 133.315 52.0795C133.533 51.5592 133.875 51.098 134.312 50.7348C135.122 50.1255 136.113 49.7954 137.132 49.7954C138.151 49.7954 139.142 50.1255 139.952 50.7348C140.392 51.0964 140.737 51.5568 140.958 52.0772C141.179 52.5977 141.271 53.1629 141.224 53.7253V65.3592C141.206 65.7456 141.27 66.1314 141.412 66.4921C141.554 66.8528 141.77 67.1804 142.047 67.4542C142.325 67.728 142.657 67.942 143.022 68.0825C143.388 68.223 143.779 68.2869 144.171 68.2703H147.212V54.9219C147.208 50.9332 146.133 48.2825 143.989 46.9696Z" fill="#2D2E7F"/>
<path d="M108.415 44.1173C106.353 42.6039 103.852 41.7848 101.281 41.7811C98.7103 41.7773 96.2064 42.5891 94.14 44.0964C93.816 43.3028 93.7838 42.4225 94.0488 41.6079C94.3139 40.7933 94.8596 40.0957 95.5914 39.6358C97.214 38.3751 99.22 37.6896 101.286 37.6896C103.352 37.6896 105.358 38.3751 106.981 39.6358C107.717 40.0964 108.265 40.7987 108.528 41.6186C108.79 42.4385 108.75 43.3234 108.415 44.1173Z" fill="#2D2E7F"/>
<path d="M105.494 70.6281C105.298 71.5794 104.775 72.435 104.013 73.0495C103.25 73.6641 102.296 73.9998 101.311 73.9998C100.326 73.9998 99.3712 73.6641 98.6088 73.0495C97.8464 72.435 97.3232 71.5794 97.1279 70.6281C99.8772 71.2806 102.744 71.2806 105.494 70.6281Z" fill="#2D2E7F"/>
<path d="M62.1759 46.6314C59.9584 45.4 57.424 44.8345 54.8846 45.0046C52.4907 44.8503 50.1201 45.5476 48.2036 46.9697C46.8456 48.0537 45.9731 49.6192 45.7731 51.3301H51.5875C51.7164 51.0336 51.9066 50.7668 52.146 50.5468C52.3853 50.3267 52.6685 50.1582 52.9775 50.052C53.8217 49.8124 54.697 49.6962 55.5754 49.7074C58.5419 49.7074 58.9657 50.9061 58.9657 51.7582C58.9657 52.9026 57.6943 53.6376 55.1516 53.9822C52.3696 54.1154 49.6669 54.9393 47.2945 56.3775C46.5451 56.9997 45.9605 57.7924 45.5914 58.6871C45.2222 59.5817 45.0795 60.5515 45.1756 61.5126C45.0756 62.5507 45.2371 63.597 45.646 64.5588C46.0548 65.5205 46.6982 66.3679 47.5191 67.0257C49.1111 68.1488 51.0286 68.7348 52.986 68.6964C54.2194 68.7464 55.4504 68.5518 56.606 68.1242C57.7616 67.6966 58.8184 67.0447 59.7137 66.2071C60.0003 66.8562 60.4826 67.4025 61.0952 67.772C61.7078 68.1415 62.421 68.3163 63.1379 68.2725H64.6953V58.2068V51.4178C64.7295 50.4736 64.5154 49.5368 64.074 48.6982C63.6326 47.8596 62.9787 47.1476 62.1759 46.6314ZM59.0525 58.9524C59.1146 59.6418 59.0224 60.3363 58.7824 60.9867C58.5424 61.6372 58.1604 62.2278 57.6635 62.7169C57.1666 63.206 56.5669 63.5817 55.9066 63.8174C55.2463 64.0532 54.5415 64.1432 53.8421 64.0813C53.0302 64.1375 52.2262 63.8949 51.5854 63.4005C51.3206 63.129 51.1148 62.8071 50.9807 62.4544C50.8466 62.1018 50.787 61.7259 50.8056 61.3498C50.7781 60.673 50.9917 60.0081 51.4095 59.4703C52.0307 58.8839 52.8174 58.4965 53.6662 58.3593L55.6665 57.9416C56.8336 57.6909 57.9702 57.3177 59.0568 56.8286L59.0525 58.9524Z" fill="#2D2E7F"/>
<path d="M153.193 63.4488C153.654 63.4488 154.105 63.5834 154.488 63.8358C154.872 64.0883 155.17 64.4471 155.347 64.8668C155.523 65.2866 155.569 65.7484 155.479 66.194C155.389 66.6396 155.167 67.0489 154.841 67.3702C154.515 67.6914 154.1 67.9102 153.648 67.9989C153.196 68.0875 152.727 68.042 152.301 67.8681C151.875 67.6942 151.511 67.3999 151.255 67.0221C150.999 66.6443 150.862 66.2002 150.862 65.7458C150.862 65.4442 150.923 65.1455 151.04 64.8668C151.157 64.5881 151.329 64.3349 151.545 64.1215C151.762 63.9082 152.019 63.739 152.301 63.6236C152.584 63.5081 152.887 63.4488 153.193 63.4488ZM153.193 62.793C152.601 62.793 152.022 62.9661 151.53 63.2903C151.038 63.6146 150.654 64.0754 150.427 64.6146C150.201 65.1537 150.141 65.7471 150.257 66.3195C150.372 66.8919 150.657 67.4176 151.076 67.8303C151.495 68.243 152.028 68.524 152.609 68.6378C153.19 68.7517 153.792 68.6932 154.339 68.4699C154.886 68.2466 155.354 67.8684 155.683 67.3831C156.012 66.8979 156.187 66.3274 156.187 65.7438C156.187 64.9612 155.872 64.2107 155.31 63.6573C154.749 63.1039 153.987 62.793 153.193 62.793Z" fill="#2D2E7F"/>
<path d="M152.117 67.03V64.7328C152.117 64.6974 152.124 64.6622 152.137 64.6294C152.151 64.5966 152.171 64.5668 152.197 64.5417C152.222 64.5166 152.252 64.4968 152.286 64.4834C152.319 64.47 152.355 64.4632 152.391 64.4635H153.384C153.611 64.4442 153.838 64.5081 154.02 64.643C154.093 64.7132 154.151 64.7983 154.187 64.8924C154.224 64.9866 154.239 65.0875 154.232 65.1881C154.238 65.3278 154.201 65.466 154.126 65.5848C154.058 65.6863 153.956 65.7604 153.838 65.7937C153.939 65.8218 154.026 65.8858 154.081 65.9733C154.137 66.093 154.166 66.2236 154.164 66.3555L154.179 66.6624V66.7606C154.177 66.7926 154.177 66.8247 154.179 66.8566C154.18 66.89 154.189 66.9226 154.205 66.9522C154.221 66.9818 154.243 67.0077 154.27 67.0279H153.679C153.652 66.9794 153.637 66.9261 153.632 66.8712C153.624 66.8173 153.619 66.7629 153.617 66.7083V66.4327C153.619 66.3191 153.587 66.2076 153.526 66.1111C153.443 66.0465 153.337 66.0165 153.232 66.0276H152.664V67.03H152.117ZM152.655 65.5807H153.291C153.399 65.5885 153.506 65.5589 153.594 65.4972C153.658 65.4276 153.693 65.3372 153.693 65.2434C153.693 65.1497 153.658 65.0592 153.594 64.9897C153.557 64.9574 153.514 64.9328 153.467 64.9174C153.42 64.902 153.37 64.896 153.321 64.8999H152.662L152.655 65.5807Z" fill="#2D2E7F"/>
</svg>
