<svg width="300" height="67" viewBox="0 0 300 67" fill="none" xmlns="http://www.w3.org/2000/svg">
<g clip-path="url(#clip0_139_926)">
<path d="M289.054 66.8327H10.2781C7.43445 66.8327 5.11377 64.4602 5.11377 61.5529V42.94C5.11377 40.0327 7.43445 37.6602 10.2781 37.6602H289.054C291.898 37.6602 294.219 40.0327 294.219 42.94V61.5529C294.219 64.4602 291.898 66.8327 289.054 66.8327Z" fill="#4B80FB" stroke="black" stroke-miterlimit="10"/>
<path d="M27.9609 37.6602V66.8327" stroke="black" stroke-miterlimit="10"/>
<path d="M48.9453 37.6602V66.8327" stroke="black" stroke-miterlimit="10"/>
<path d="M75.3555 42.5056V66.8328" stroke="black" stroke-miterlimit="10"/>
<path d="M99.9351 40.1665V66.8328" stroke="black" stroke-miterlimit="10"/>
<path d="M125.822 37.4932V66.8328" stroke="black" stroke-miterlimit="10"/>
<path d="M149.65 37.7271V66.8328" stroke="black" stroke-miterlimit="10"/>
<path d="M178.74 37.7271V66.8328" stroke="black" stroke-miterlimit="10"/>
<path d="M211.066 37.5601V66.8329" stroke="black" stroke-miterlimit="10"/>
<path d="M244.536 37.6602V66.8327" stroke="black" stroke-miterlimit="10"/>
<path d="M274.346 37.7271V66.8328" stroke="black" stroke-miterlimit="10"/>
<path d="M57.4434 38.2618C57.4434 37.4932 57.1492 36.8917 56.9204 36.2234C56.2667 34.6862 54.8939 32.8818 50.7428 31.9795C48.9451 31.5785 44.4345 31.1441 41.9177 31.0439C38.1588 30.9102 30.6738 30.9102 26.915 31.0439C24.3982 31.1441 19.9202 31.5785 18.0898 31.9795C13.9714 32.8818 12.5986 34.6528 11.9122 36.2234C11.6834 36.9252 11.3893 37.5266 11.3893 38.2618C11.3893 38.2618 10.8009 42.5057 15.5077 42.5057H15.7365H52.9981H53.2269C58.0317 42.5057 57.4434 38.2618 57.4434 38.2618Z" fill="#FFEA9D" stroke="black" stroke-miterlimit="10"/>
<path d="M35.7073 38.9301C41.7215 37.8608 43.9768 36.2902 45.8726 35.2877C51.2003 32.3137 57.0838 35.1206 58.4566 36.7581V36.7246C61.7251 40.1331 70.158 42.6728 79.1139 42.6728C88.4293 42.6728 99.8039 39.4314 110.656 37.7271C113.565 37.2593 116.506 37.8942 118.99 39.4314C122.847 41.8039 130.659 44.7112 138.079 44.3102C142.524 44.0763 146.675 43.0738 149.388 40.3002C150.467 39.1975 151.872 38.5291 153.376 38.4289C165.208 37.6603 197.992 35.7556 197.992 35.7556C197.992 35.7556 202.96 36.6578 202.993 36.6578C204.071 37.0588 211.981 40.0997 219.237 40.0997C223.715 40.0997 233.783 37.9945 236.953 37.4264C241.169 36.6578 250.91 36.3571 255.159 36.9585C257.251 37.2593 261.238 38.596 261.958 38.997C262.807 39.4982 269.148 40.7012 268.952 34.3521C268.854 31.9461 268.724 30.9102 268.658 28.6044C268.593 26.5326 268.724 22.4892 268.724 22.389C268.724 22.389 269.116 20.3172 268.952 17.3097C268.822 15.2378 268.887 13.166 269.148 11.0942C269.279 10.0583 269.312 8.95556 269.05 8.15356C268.756 7.2179 266.272 6.31565 266.272 8.01989C266.272 9.75755 265.618 12.3974 265.292 13.0658C264.932 13.8009 262.905 17.7107 260.487 22.389C260.258 22.8234 260.029 23.2244 259.8 23.6588C258.199 26.6329 255.028 28.3037 251.727 27.9695C239.437 26.6663 209.726 23.5251 205.085 23.2244C201.979 21.2528 198.417 20.6847 196.357 20.7181C194.298 20.7516 174 15.6054 149.944 15.4718C143.112 12.0967 121.834 11.963 112.028 12.8653C107.91 11.9296 95.4241 12.5645 93.8225 12.364C78.9505 10.593 66.0723 17.7441 61.8559 20.4174C61.7905 20.4508 61.7251 20.5176 61.6598 20.5511C59.9274 21.4867 54.0113 20.8518 51.0369 20.6513L51.0696 20.5845C51.3638 19.0473 51.5272 17.4433 51.4945 16.5745C51.4618 15.5386 50.4813 14.369 49.3373 14.2019C48.2586 14.0349 43.0943 13.8678 42.7674 13.8678C42.7021 13.6004 42.081 10.8603 41.2639 11.3615C39.8911 12.1301 36.0015 13.8344 35.7073 13.968C34.9556 14.0014 32.5368 14.2354 31.7524 14.2688C23.9732 14.7032 20.6065 22.79 22.1101 29.3396C23.6136 35.8892 27.4379 40.4004 35.7073 38.9301Z" fill="#C2D5FF"/>
<path d="M136.641 44.7445C129.875 44.7445 122.75 42.2382 118.762 39.7988C116.31 38.2951 113.434 37.6936 110.656 38.128C107.06 38.6961 103.367 39.4313 99.8042 40.1664C92.3518 41.6702 85.3244 43.0736 79.0814 43.0736C70.3217 43.0736 61.8234 40.6342 58.2933 37.1589C58.228 37.1255 58.1626 37.0921 58.1299 37.0587C56.8552 35.5215 51.2332 32.7814 46.0362 35.6552C45.7747 35.7889 45.5459 35.9225 45.2844 36.0562C43.5194 37.0587 41.068 38.3953 35.7729 39.331L35.7075 38.9634L35.7729 39.331C28.2552 40.6342 23.5485 37.326 21.7508 29.4732C20.8356 25.53 21.6854 21.2193 23.908 18.1784C25.8038 15.6053 28.5167 14.135 31.7199 13.9679C32.0467 13.9345 32.7005 13.9011 33.3869 13.8342C34.2694 13.7674 35.1519 13.6672 35.6095 13.6672C35.7075 13.6337 35.871 13.5669 36.0671 13.4667C37.2438 12.932 39.9894 11.729 41.068 11.1275C41.2968 10.9938 41.5256 10.9938 41.7544 11.0941C42.4408 11.3948 42.8657 12.7983 43.0618 13.6003C44.2058 13.6337 48.3896 13.8008 49.3702 13.9345C50.6449 14.135 51.7889 15.4048 51.8543 16.6746C51.887 17.5101 51.7235 18.9804 51.4947 20.4173C51.8216 20.4507 52.1484 20.4507 52.508 20.4841C55.5151 20.718 60.0911 21.0522 61.4639 20.317L61.66 20.1834C65.3535 17.8108 78.6565 10.2253 93.8881 12.0632C94.3783 12.13 95.9799 12.0966 98.0391 12.0632C102.484 11.9963 109.185 11.9295 112.094 12.5644C121.704 11.6622 143.047 11.7624 150.075 15.1709C168.542 15.2712 184.558 18.2786 192.239 19.7155C194.397 20.1165 195.965 20.4173 196.39 20.4173C196.423 20.4173 196.456 20.4173 196.521 20.4173C198.809 20.4173 202.241 21.0856 205.248 22.9569C210.151 23.3245 239.405 26.3988 251.793 27.7021C254.93 28.0362 257.97 26.4323 259.506 23.5919C259.735 23.1574 259.964 22.7564 260.193 22.322C262.317 18.2118 264.638 13.7674 264.998 12.9988C265.324 12.3305 265.945 9.75744 265.945 8.12003C265.945 7.38487 266.338 6.88362 266.991 6.78337C267.939 6.61629 269.181 7.31804 269.443 8.12003C269.672 8.88861 269.737 9.92452 269.574 11.2278C269.312 13.2328 269.247 15.3046 269.377 17.3764C269.541 20.2168 269.214 22.2218 269.149 22.5225C269.149 22.5894 269.149 22.723 269.149 22.9235C269.116 24.0597 269.051 27.0338 269.083 28.7046C269.116 29.8741 269.181 30.6761 269.214 31.545C269.279 32.3804 269.312 33.2492 269.377 34.4188C269.443 36.6911 268.756 38.2617 267.318 39.1639C265.292 40.4003 262.481 39.7654 261.86 39.3978C261.206 38.9968 257.251 37.6936 255.192 37.3929C251.106 36.7914 241.464 37.0587 237.117 37.8273C236.594 37.9275 235.94 38.0612 235.123 38.1948C230.939 38.9968 223.127 40.5006 219.336 40.5006C214.792 40.5006 209.007 39.2976 203.091 37.0921L202.993 37.0587C202.731 37.0253 201.816 36.8582 198.057 36.1564C196.685 36.2233 164.947 38.0946 153.474 38.8298C152.101 38.93 150.761 39.5315 149.715 40.6008C147.264 43.0737 143.472 44.4437 138.144 44.7445C137.621 44.7111 137.131 44.7445 136.641 44.7445ZM112.486 37.1924C114.807 37.1924 117.128 37.8607 119.154 39.0971C123.338 41.6702 131.019 44.2766 138.046 43.9091C143.178 43.6417 146.806 42.3385 149.127 39.9993C150.304 38.8298 151.807 38.0946 153.376 37.9943C165.077 37.2592 197.665 35.3544 198.025 35.321C198.057 35.321 198.09 35.321 198.123 35.321C200.051 35.6552 202.927 36.1899 203.091 36.2233C203.124 36.2233 203.156 36.2233 203.156 36.2567L203.287 36.3235C209.105 38.4956 214.792 39.6986 219.27 39.6986C222.997 39.6986 230.743 38.1948 234.927 37.3929C235.744 37.2258 236.43 37.0921 236.921 37.0253C241.366 36.2233 251.106 35.9559 255.257 36.5574C257.284 36.8582 261.402 38.1614 262.187 38.6627C262.644 38.93 265.161 39.4981 266.893 38.4288C268.103 37.6936 268.658 36.3235 268.593 34.352C268.56 33.1824 268.495 32.3135 268.43 31.4781C268.364 30.6093 268.332 29.7739 268.299 28.6043C268.233 26.9001 268.332 23.926 268.364 22.7899C268.364 22.5559 268.364 22.3889 268.364 22.3889C268.364 22.3554 268.364 22.322 268.364 22.322C268.364 22.2886 268.756 20.2502 268.56 17.343C268.43 15.2377 268.495 13.1325 268.756 11.0607C268.92 9.85769 268.887 8.92203 268.658 8.28711C268.528 7.88612 267.612 7.35145 267.024 7.4517C266.828 7.48512 266.599 7.58537 266.599 8.0532C266.599 9.82427 265.945 12.531 265.586 13.2662C265.259 13.9679 263.494 17.3764 260.748 22.5894C260.52 23.0238 260.291 23.4248 260.062 23.8592C258.395 26.9669 255.094 28.7046 251.629 28.337C239.143 27.0003 209.628 23.8926 205.019 23.5919C204.954 23.5919 204.889 23.5584 204.856 23.525C201.914 21.6871 198.45 21.0522 196.325 21.0522C195.802 21.0522 194.397 20.7849 192.043 20.3505C184.362 18.9135 168.346 15.9061 149.911 15.8058C149.846 15.8058 149.813 15.8058 149.748 15.7724C142.982 12.4308 121.638 12.3639 112.094 13.2662C112.061 13.2662 112.029 13.2662 111.996 13.2662C109.218 12.6313 102.517 12.7315 98.0718 12.7983C95.9146 12.8318 94.3783 12.8318 93.8227 12.7983C78.82 10.9938 65.7457 18.4791 62.0849 20.8183L61.8888 20.952C60.2872 21.8208 55.7766 21.4866 52.508 21.2193C51.985 21.1859 51.4947 21.1525 51.0698 21.119C50.9391 21.119 50.841 21.0522 50.7756 20.952C50.7103 20.8517 50.7103 20.718 50.743 20.6178V20.5844C51.0371 19.114 51.2006 17.5101 51.1679 16.6746C51.1352 15.8392 50.3507 14.8033 49.3048 14.6697C48.4223 14.536 44.6634 14.4023 42.7676 14.3355C42.6042 14.3355 42.4408 14.2018 42.4081 14.0347C42.1139 12.6647 41.6563 11.7958 41.4602 11.7624C40.3162 12.3973 37.5706 13.6337 36.3613 14.1684C36.0671 14.3021 35.9037 14.3689 35.8383 14.4023C35.8056 14.3689 35.7729 14.3689 35.7075 14.3689C35.2826 14.3689 34.3021 14.4692 33.4522 14.536C32.7658 14.6028 32.1121 14.6362 31.7853 14.6697C28.7782 14.8367 26.2614 16.2068 24.529 18.5794C22.4372 21.4532 21.6527 25.53 22.5025 29.2727C24.2349 36.7579 28.5167 39.7988 35.6749 38.529C40.8392 37.6268 43.2252 36.2901 44.9576 35.321C45.2191 35.1874 45.4806 35.0203 45.7094 34.8866C51.1025 31.8791 56.9859 34.6193 58.5875 36.3235C58.6202 36.3569 58.6856 36.3569 58.7183 36.4238C62.0195 39.8657 70.387 42.2717 79.1141 42.2717C85.2917 42.2717 92.2865 40.8682 99.7061 39.3644C103.302 38.6293 106.995 37.8941 110.59 37.326C111.179 37.2592 111.832 37.1924 112.486 37.1924Z" fill="black"/>
<path d="M70.1909 38.8298C74.8323 38.6961 102.19 36.925 104.282 37.2926C106.407 37.6936 111.931 38.0278 115.755 38.0278C119.579 38.0278 141.642 36.9919 142.59 37.1589L143.57 37.1924C143.93 37.3594 144.943 37.8273 145.401 38.0946C146.61 38.7964 150.107 39.3644 151.546 39.4647C154.258 39.6318 157.592 38.93 158.704 38.2617C159.782 38.4956 161.024 38.7295 161.907 38.6961C162.757 39.0303 165.077 39.732 165.077 39.732C165.077 39.732 167.888 41.0018 169.196 40.8013C169.457 40.7679 169.85 40.4338 169.915 40.1998C170.601 40.4003 171.32 40.5674 171.811 40.4672C172.53 40.3669 172.791 40.0328 172.824 39.7988C173.118 39.6986 173.445 39.4647 173.543 39.1305C173.772 38.2951 169.784 37.4263 169.784 37.4263C169.784 37.4263 168.085 36.8582 165.731 36.1899C164.456 35.8223 163.378 35.5215 162.463 35.2542C161.155 34.753 159.946 34.2183 159.259 33.9844C158.41 33.6502 150.271 32.5475 145.335 31.0437C143.341 30.8098 139.844 30.7096 136.837 30.5091C134.353 30.0747 110.852 28.2368 106.734 27.8692C102.648 27.5016 81.6963 26.6328 77.7086 25.8976C73.721 25.1624 73.1326 24.1934 73.1326 24.1934L70.1909 38.8298Z" fill="#C2D5FF"/>
<path d="M168.935 41.2023C167.529 41.2023 165.241 40.1998 164.98 40.0996C164.718 40.0327 162.724 39.3978 161.874 39.0971C161.025 39.0971 159.979 38.93 158.802 38.6627C157.527 39.3644 154.259 39.9993 151.546 39.8322C150.075 39.7654 146.512 39.1639 145.237 38.4288C144.845 38.1948 143.897 37.7604 143.505 37.5933L142.623 37.5599C142.59 37.5599 142.59 37.5599 142.557 37.5599C142.034 37.4597 135.072 37.7604 128.927 37.9943C123.403 38.2283 117.651 38.4288 115.82 38.4288H115.788C111.8 38.4288 106.309 38.0612 104.25 37.6602C102.844 37.3928 89.1488 38.1614 80.0622 38.6627C75.5842 38.93 71.6946 39.1305 70.2238 39.1639C69.995 39.1639 69.8642 38.9968 69.8315 38.7963C69.8315 38.5958 69.995 38.4288 70.1911 38.3953C71.6619 38.3619 75.5515 38.128 80.0295 37.8941C92.5481 37.1923 103.008 36.6243 104.38 36.8916C106.407 37.2592 111.833 37.6268 115.788 37.6268H115.82C117.651 37.6268 123.338 37.3928 128.895 37.1923C136.968 36.8582 141.969 36.6911 142.655 36.7579L143.603 36.7913C143.636 36.7913 143.701 36.7913 143.734 36.8248C144.126 36.9918 145.139 37.4597 145.597 37.727C146.708 38.3953 150.173 38.9634 151.578 39.0303C154.193 39.1639 157.462 38.529 158.54 37.8941C158.606 37.8607 158.704 37.8273 158.802 37.8607C159.75 38.0612 161.025 38.3285 161.907 38.2951C161.94 38.2951 162.005 38.2951 162.038 38.3285C162.888 38.6627 165.176 39.3644 165.208 39.3644H165.241C165.993 39.6986 168.15 40.5674 169.163 40.4003C169.261 40.3669 169.523 40.1664 169.588 40.0662C169.654 39.8657 169.85 39.7654 170.046 39.8322C170.994 40.133 171.517 40.133 171.778 40.0996C172.334 40.0327 172.465 39.7988 172.497 39.732C172.53 39.5983 172.595 39.4981 172.726 39.4312C172.922 39.3644 173.151 39.2308 173.216 39.0303C172.988 38.6961 171.419 38.128 169.752 37.7604H169.719C169.686 37.7604 167.987 37.1923 165.699 36.524C165.11 36.3569 164.522 36.1899 164.032 36.0228C163.443 35.8557 162.92 35.6886 162.43 35.5549C161.678 35.2542 160.992 34.9869 160.404 34.7529C159.946 34.5524 159.521 34.3854 159.227 34.2851C158.965 34.1849 157.723 33.9844 156.318 33.717C153.245 33.1824 148.637 32.347 145.368 31.3445C144.191 31.2108 142.492 31.1106 140.694 31.0437C139.452 30.9769 138.145 30.9101 136.935 30.8432H136.903C135.072 30.5425 121.279 29.4063 113.075 28.738C110.198 28.5041 107.878 28.3036 106.864 28.2367C105.492 28.1031 102.125 27.936 98.2681 27.7355C90.3581 27.3011 80.4871 26.7664 77.8068 26.2652C73.8519 25.53 73.1001 24.5609 72.9694 24.3938C72.8713 24.2268 72.904 23.9929 73.1001 23.8592C73.2635 23.7589 73.4923 23.7924 73.6231 23.9929C73.6231 23.9929 74.3095 24.8617 77.9703 25.53C80.5851 26.0313 90.8484 26.5659 98.3335 27.0003C102.223 27.2008 105.557 27.4013 106.962 27.5016C108.008 27.6018 110.296 27.7689 113.173 28.0028C121.933 28.7046 135.138 29.8073 137.066 30.1415C138.275 30.2417 139.55 30.3086 140.792 30.342C142.623 30.4422 144.355 30.5091 145.564 30.6761C145.597 30.6761 145.597 30.6761 145.63 30.6761C148.866 31.6786 153.474 32.4806 156.514 33.0487C158.312 33.3495 159.26 33.55 159.554 33.6502C159.848 33.7839 160.273 33.951 160.763 34.118C161.351 34.3519 162.038 34.6527 162.757 34.92C163.215 35.0537 163.738 35.1874 164.326 35.3544C164.849 35.4881 165.404 35.6552 166.025 35.8557C168.215 36.4906 169.882 37.0253 170.046 37.0921C170.863 37.2592 173.511 37.9275 174.001 38.7295C174.132 38.9634 174.099 39.1305 174.066 39.2642C173.968 39.6317 173.674 39.9325 173.282 40.133C173.151 40.4003 172.857 40.7679 172.007 40.9016C171.549 40.9684 170.961 40.9016 170.209 40.7011C169.98 40.9684 169.654 41.1689 169.392 41.2357C169.163 41.2023 169.033 41.2023 168.935 41.2023Z" fill="black"/>
<path d="M169.915 40.6009C169.883 40.6009 169.85 40.6009 169.817 40.6009C169.654 40.5675 169.556 40.4338 169.523 40.2667C169.229 39.8991 167.235 38.8298 165.503 37.9944C165.307 37.9276 163.607 37.3261 161.45 36.6912C159.227 36.0228 158.835 35.9226 157.625 35.4548C157.429 35.3879 157.331 35.154 157.397 34.9535C157.462 34.753 157.691 34.6528 157.887 34.7196C159.031 35.154 159.358 35.2543 161.646 35.9226C163.966 36.5909 165.731 37.2258 165.764 37.2258H165.797C170.438 39.3979 170.307 39.9326 170.242 40.2333C170.242 40.4672 170.079 40.6009 169.915 40.6009Z" fill="black"/>
<path d="M172.824 40.1998C172.791 40.1998 172.791 40.1998 172.759 40.1998C172.628 40.1664 172.497 40.0661 172.464 39.9325C172.105 39.5649 169.751 38.3285 168.902 38.0946C168.411 37.9609 167.202 37.4262 166.058 36.925C165.208 36.5574 164.195 36.0896 163.933 36.0227C163.77 36.0227 163.607 35.8891 163.574 35.722C163.541 35.5215 163.672 35.321 163.868 35.2876C164.097 35.2542 164.391 35.3544 166.352 36.2566C167.431 36.7245 168.64 37.2926 169.065 37.3928C169.425 37.4931 173.282 39.0636 173.183 39.899C173.183 40.0661 173.02 40.1998 172.824 40.1998Z" fill="black"/>
<path d="M37.538 31.2443C36.1652 31.2443 35.0212 30.7096 34.6289 29.774C34.204 28.7715 34.6616 27.5685 35.8383 26.5994C36.0017 26.4657 36.2305 26.4991 36.3613 26.6662C36.492 26.8333 36.4593 27.0672 36.2959 27.2009C35.4134 27.9361 35.0212 28.8383 35.3153 29.5066C35.7729 30.576 37.7341 30.8433 39.5645 30.1415C40.7739 29.6737 41.7544 28.8717 42.0813 28.0363C42.2447 27.6353 42.2447 27.2677 42.114 26.967C42.0486 26.8333 41.9505 26.6662 41.8198 26.566C41.6564 26.4323 41.6564 26.1984 41.8198 26.0313C41.9505 25.8642 42.1793 25.8642 42.3428 26.0313C42.5389 26.2318 42.7023 26.4323 42.8004 26.6662C43.0292 27.1675 42.9965 27.769 42.7677 28.3371C42.3428 29.373 41.2315 30.3086 39.826 30.8767C39.0415 31.1106 38.2571 31.2443 37.538 31.2443Z" fill="black"/>
<g opacity="0.4">
<path opacity="0.4" d="M272.483 36.2902C272.385 34.4857 270.064 33.1824 262.089 33.4164C262.089 33.4164 252.806 33.0488 252.218 32.9819C251.597 32.8483 242.216 31.946 241.497 31.7121L239.47 30.9769C232.77 28.4707 223.389 23.5919 217.734 22.6228C210.347 21.353 202.568 21.9879 202.568 21.9879C202.568 21.9879 183.708 11.3615 169.784 7.75251C163.084 6.01485 158.867 5.14603 142.198 5.14603C127.685 5.14603 123.371 8.15351 119.22 8.15351C110.95 8.15351 94.9014 3.8762 86.0109 3.10762C67.8049 -5.78116 67.8376 9.62383 66.7263 13.7006C66.1707 15.739 65.0267 19.3814 60.3199 20.6513C59.2086 20.952 53.1945 20.551 51.1353 20.7849V33.8842L63.7519 35.5216C65.7131 36.8582 66.3668 38.5959 66.759 39.9994C67.8703 44.0762 68.4914 49.9241 80.8792 48.8213C89.7697 48.0193 110.983 46.5156 119.252 46.5156C123.371 46.5156 127.718 49.0553 142.23 49.5231C146.806 49.6567 148.539 49.8573 154.487 49.6568C171.059 49.0887 195.475 47.6518 200.64 47.351C202.993 47.5849 212.014 48.5206 215.315 48.5206C222.964 48.5874 243.621 46.6159 249.407 46.0478C250.191 45.9809 251.008 46.0144 251.76 46.1814C251.989 46.2483 252.316 46.2817 252.675 46.3485C253.002 46.3819 254.113 46.2483 254.506 46.2817C259.343 46.8832 267.351 47.9859 267.449 47.9859C277.549 48.9884 277.549 47.1839 278.791 44.4104C279.804 42.0712 285.394 34.2852 272.483 36.2902Z" fill="white"/>
<path opacity="0.4" d="M150.009 50.0912C148.146 50.0912 146.708 50.0243 144.976 49.9575C144.126 49.9241 143.211 49.8907 142.165 49.8573C132.948 49.5565 127.685 48.4204 124.22 47.6518C122.161 47.184 120.658 46.8498 119.187 46.8498C111.146 46.8498 90.2601 48.3535 80.8466 49.1555C68.9817 50.1914 67.5762 44.8114 66.5303 40.9017C66.4649 40.6343 66.3995 40.3336 66.3015 40.0662C65.9093 38.6628 65.2882 37.0922 63.5232 35.8224L51.0046 34.2184C50.8085 34.1849 50.6777 34.0179 50.6777 33.8508V20.7515C50.6777 20.551 50.8085 20.3839 51.0046 20.3839C52.0178 20.2837 53.8809 20.3171 55.7113 20.3505C57.6398 20.3839 59.6009 20.4174 60.1566 20.2837C64.7979 19.0473 65.8112 15.3715 66.3015 13.6004C66.4322 13.0992 66.563 12.4642 66.6937 11.6623C67.3147 8.25377 68.2299 3.07422 72.3483 0.93557C75.5515 -0.735253 80.1929 -0.133757 86.0763 2.74006C89.9332 3.07422 94.9995 4.0433 100.393 5.07921C107.355 6.41587 114.546 7.78594 119.187 7.78594C120.592 7.78594 122.063 7.41836 123.894 6.95053C127.391 6.0817 132.653 4.77846 142.132 4.77846C158.933 4.77846 163.182 5.68071 169.817 7.38495C183.12 10.8268 201.097 20.7515 202.601 21.5869C203.581 21.5201 210.87 21.0523 217.767 22.2553C221.526 22.9236 226.854 25.2293 232.018 27.5017C234.731 28.6712 237.28 29.8074 239.568 30.6762L241.595 31.378C241.987 31.5116 246.007 31.946 248.655 32.2134C250.779 32.4473 251.989 32.581 252.25 32.6144C252.675 32.6478 258.853 32.9151 262.056 33.0488C268.92 32.8817 272.254 33.7505 272.744 35.8892C277.059 35.2543 279.641 35.6887 280.687 37.1924C281.929 39.0303 280.458 41.8039 279.51 43.6418C279.314 44.0094 279.151 44.3435 279.02 44.5775C278.922 44.778 278.856 44.945 278.791 45.1455C277.614 47.8857 276.568 49.2892 267.318 48.3869C267.286 48.3869 266.959 48.3535 266.403 48.2533C264.181 47.9525 258.264 47.1505 254.375 46.6493C254.211 46.6159 253.819 46.6493 253.492 46.6827C253.1 46.7161 252.773 46.7161 252.577 46.7161C252.218 46.6827 251.891 46.6159 251.629 46.549C250.91 46.382 250.158 46.3485 249.374 46.4154C243.294 47.0169 222.866 48.9884 215.25 48.8882C211.982 48.8548 203.222 47.9859 200.574 47.7186C195.704 48.0194 171.059 49.4563 154.455 50.0243C152.657 50.0578 151.252 50.0912 150.009 50.0912ZM119.22 46.0812C120.756 46.0812 122.292 46.4154 124.384 46.8832C128.045 47.6852 133.013 48.7879 142.198 49.0887C143.276 49.1221 144.159 49.1555 145.009 49.1889C147.82 49.2892 149.879 49.3894 154.422 49.2224C171.059 48.6543 195.769 47.2174 200.574 46.9166C200.607 46.9166 200.607 46.9166 200.64 46.9166C203.254 47.1839 212.014 48.0528 215.283 48.0862C222.866 48.153 243.262 46.2149 249.341 45.6134C250.191 45.5131 251.041 45.58 251.825 45.747C252.087 45.8139 252.381 45.8473 252.708 45.8807C252.839 45.8807 253.198 45.8807 253.492 45.8473C253.917 45.8139 254.309 45.7805 254.538 45.8139C258.428 46.3151 264.344 47.1171 266.567 47.4179C267.09 47.4847 267.416 47.5181 267.449 47.5515C276.568 48.4538 277.189 47.0837 278.17 44.778C278.235 44.6109 278.333 44.4104 278.432 44.2099C278.562 43.9426 278.726 43.6084 278.922 43.2074C279.739 41.6368 281.144 38.9969 280.164 37.56C279.281 36.2902 276.732 35.9894 272.581 36.6243C272.483 36.6243 272.385 36.6243 272.287 36.5575C272.221 36.4907 272.156 36.3904 272.156 36.2902C272.058 34.4189 268.789 33.5834 262.154 33.7505C261.762 33.7505 252.806 33.383 252.25 33.3161C251.989 33.2827 250.387 33.0822 248.688 32.9151C244.863 32.5141 241.889 32.18 241.464 32.0463L239.405 31.3111C237.084 30.4423 234.535 29.3061 231.822 28.1366C226.69 25.8977 221.395 23.5919 217.734 22.957C210.478 21.6872 202.731 22.3221 202.633 22.3221C202.568 22.3221 202.503 22.3221 202.437 22.2887C202.241 22.1884 183.48 11.6623 169.752 8.12011C163.182 6.41587 158.965 5.51362 142.263 5.51362C132.85 5.51362 127.849 6.75003 124.188 7.68569C122.292 8.15353 120.789 8.52111 119.285 8.52111C114.546 8.52111 107.322 7.15103 100.36 5.81437C94.9668 4.77846 89.8679 3.80939 86.0436 3.47522C86.011 3.47522 85.9456 3.47522 85.9129 3.4418C80.2256 0.668238 75.7803 0.0333257 72.7733 1.6039C69.0144 3.57547 68.0992 8.52111 67.5109 11.7959C67.3801 12.5979 67.2494 13.2662 67.1186 13.8009C66.5957 15.7056 65.517 19.6488 60.4508 21.0189C59.797 21.1859 57.9666 21.1525 55.8094 21.1191C54.2078 21.0857 52.5408 21.0523 51.5276 21.1191V33.5166L63.8174 35.1206C63.8828 35.1206 63.9154 35.154 63.9808 35.1874C66.0073 36.5909 66.6937 38.3286 67.1186 39.8992C67.184 40.1665 67.2821 40.4338 67.3474 40.7346C68.3607 44.6109 69.6027 49.4229 80.8793 48.4538C90.2601 47.5849 111.179 46.0812 119.22 46.0812Z" fill="black"/>
</g>
<g opacity="0.4">
<g opacity="0.4">
<path opacity="0.4" d="M285.524 32.3471C287.584 33.1156 290.133 33.383 292.781 37.3261C296.409 37.3261 297.683 40.4004 295.788 40.8014C295.788 40.8014 292.748 40.9017 291.735 40.6678C290.95 40.4673 284.38 39.8323 279.216 40.3336C275.948 40.6678 270.587 40.6343 270.554 40.6678C269.574 41.6368 220.218 38.6962 214.335 38.8967C211.982 40.1331 206.523 40.1331 204.464 40.0328C202.405 39.9326 180.571 41.3027 156.514 40.5341C156.024 40.5341 118.566 40.4338 118.566 40.4338C118.566 40.4338 101.994 42.0044 100.425 42.3052C91.2081 43.976 75.2575 36.19 68.7857 32.982L57.6072 34.1181C59.1434 32.9486 50.8086 20.3171 51.2335 20.6847C54.7309 21.8543 68.2954 17.978 68.2954 17.978C68.2954 17.978 75.8131 11.6623 85.4227 12.4309C108.401 14.2353 109.806 15.7725 118.827 17.7107C121.737 18.3456 124.776 17.8777 127.391 16.374C131.313 14.1351 136.837 10.9271 146.12 11.5286C150.565 11.7959 155.272 13.7341 157.887 16.6079C158.933 17.7441 160.306 18.4792 161.809 18.6129C173.576 19.7825 207.079 26.0982 207.079 26.0982C207.079 26.0982 212.047 25.9311 212.08 25.9311C213.191 25.5635 225.415 24.0598 228.39 24.0598C237.313 24.0598 242.968 28.3037 246.007 29.4398C249.015 30.5426 257.284 31.7122 262.121 32.3471C264.181 32.6144 266.24 31.7456 267.515 30.0747C269.476 27.4683 272.744 24.2937 275.784 26.967C277.582 28.5376 278.628 29.4732 280.327 30.977C281.831 32.3471 284.054 31.8124 285.524 32.3471Z" fill="white"/>
<path opacity="0.4" d="M97.6796 42.8732C88.0046 42.8732 73.8517 35.8557 68.7527 33.3495L57.6723 34.4856C57.5089 34.5191 57.3454 34.4188 57.2801 34.2517C57.2147 34.0846 57.2801 33.9176 57.4108 33.8173C57.4435 33.7839 57.8684 33.3161 55.6785 29.1056C54.4037 26.6662 52.7368 23.926 51.7562 22.3221C50.7429 20.6512 50.7429 20.6512 51.0044 20.4173C51.1025 20.3171 51.2659 20.3171 51.3966 20.3505C54.6325 21.3864 67.0858 17.9445 68.1317 17.6772C68.8835 17.0757 76.2704 11.3615 85.4551 12.0966C103.367 13.5001 108.172 14.7365 113.728 16.14C115.297 16.541 116.931 16.942 118.893 17.3764C121.704 17.9779 124.678 17.5435 127.195 16.0732L127.26 16.0398C131.28 13.734 136.804 10.5929 146.152 11.161C150.826 11.4617 155.533 13.5001 158.181 16.3739C159.161 17.4433 160.469 18.1116 161.874 18.2787C173.314 19.3814 205.771 25.4632 207.079 25.7305C210.87 25.5969 211.785 25.5635 212.014 25.5635C213.518 25.129 225.546 23.6921 228.39 23.6921C235.286 23.6921 240.254 26.1984 243.556 27.8692C244.569 28.3704 245.419 28.8048 246.138 29.0722C249.112 30.1415 257.48 31.3445 262.187 31.946C264.115 32.2133 266.043 31.3779 267.22 29.8073C268.593 28.0029 270.685 25.7974 272.94 25.5635C274.051 25.4632 275.097 25.8308 276.045 26.6662L277.549 28.0029C278.562 28.9051 279.412 29.6737 280.589 30.6762C281.471 31.4447 282.615 31.545 283.726 31.6452C284.446 31.7121 285.099 31.7789 285.72 31.9794C286.014 32.0797 286.341 32.1799 286.668 32.3136C288.499 32.9151 290.787 33.6168 293.042 36.9585C295.395 37.0253 296.964 38.3954 297.095 39.6652C297.16 40.4004 296.703 41.0019 295.951 41.1689C295.918 41.1689 295.918 41.1689 295.885 41.1689C295.755 41.1689 292.78 41.2692 291.734 41.0019C290.983 40.8348 284.446 40.1664 279.347 40.7011C276.699 40.9684 272.711 41.0019 271.208 41.0019C270.914 41.0019 270.718 41.0019 270.685 41.0019C269.083 41.4363 259.801 41.1355 236.692 40.0662C226.592 39.5984 217.015 39.1639 214.531 39.2308C211.655 40.6677 204.856 40.3669 204.562 40.3669C204.071 40.3335 202.404 40.4004 199.822 40.5006C191.716 40.8014 174.818 41.4363 156.612 40.8682C156.122 40.8682 119.71 40.7679 118.696 40.7679C118.075 40.8348 102.125 42.3385 100.589 42.6058C99.6407 42.8063 98.6928 42.8732 97.6796 42.8732ZM68.8181 32.5809C68.8835 32.5809 68.9162 32.5809 68.9815 32.6143C74.44 35.3211 91.0771 43.5749 100.392 41.9041C101.961 41.6034 117.912 40.0996 118.566 40.0328H118.598C120.135 40.0328 156.056 40.133 156.546 40.133C174.72 40.7011 191.618 40.0662 199.724 39.7654C202.404 39.6652 204.006 39.5984 204.496 39.6318C206.915 39.732 212.047 39.6652 214.171 38.5625C214.204 38.529 214.269 38.529 214.335 38.529C216.721 38.4622 225.938 38.8632 236.626 39.3644C250.289 39.9994 268.953 40.8348 270.358 40.3669C270.456 40.3001 270.521 40.3001 271.142 40.3001C272.646 40.3001 276.568 40.2333 279.216 39.9994C284.511 39.4647 291.081 40.133 291.865 40.3335C292.78 40.5674 295.493 40.4672 295.787 40.4672C296.18 40.3669 296.343 40.1664 296.31 39.7989C296.212 38.93 294.97 37.7605 292.813 37.7605C292.682 37.7605 292.584 37.6936 292.519 37.5934C290.362 34.352 288.27 33.6837 286.407 33.0822C286.08 32.9819 285.753 32.8817 285.426 32.748C284.903 32.5475 284.282 32.5141 283.628 32.4472C282.452 32.347 281.112 32.2467 280.066 31.3111C278.889 30.2752 278.039 29.5066 277.026 28.6043L275.522 27.2677C274.738 26.5659 273.921 26.2652 273.006 26.3654C271.012 26.5659 269.083 28.6378 267.809 30.3086C266.468 32.0797 264.278 33.0153 262.089 32.748C257.349 32.1465 248.949 30.9435 245.909 29.8073C245.157 29.54 244.275 29.0722 243.262 28.5709C240.026 26.9335 235.156 24.4607 228.422 24.4607C225.448 24.4607 213.256 25.9644 212.21 26.2986C212.177 26.2986 212.112 26.332 212.079 26.332C211.981 26.332 208.778 26.4323 207.111 26.4991C207.079 26.4991 207.046 26.4991 207.046 26.4991C206.719 26.4323 173.445 20.1834 161.809 19.0472C160.24 18.8802 158.769 18.145 157.658 16.9086C155.141 14.1684 150.63 12.2303 146.12 11.9295C136.968 11.3615 131.575 14.4358 127.652 16.7081L127.587 16.7415C124.907 18.2787 121.769 18.7799 118.762 18.1116C116.768 17.6772 115.134 17.2428 113.565 16.8418C108.041 15.4383 103.269 14.2019 85.4224 12.7984C76.0743 12.0632 68.6547 18.2118 68.5566 18.2787C68.5239 18.3121 68.4586 18.3455 68.4259 18.3455C67.9029 18.4792 56.4302 21.7206 51.985 21.2193C52.1157 21.4198 52.2465 21.6537 52.4099 21.8876C56.5283 28.6378 58.2606 32.1465 58.1953 33.6502L68.7854 32.5809C68.7854 32.5809 68.8181 32.5809 68.8181 32.5809Z" fill="black"/>
</g>
<g opacity="0.4">
<path opacity="0.4" d="M115.493 33.7839C118.141 35.0872 122.128 37.6602 120.788 40.367C120.788 40.367 116.67 42.773 113.369 43.4413C110.525 44.0094 106.112 44.3435 103.988 44.3435C100.621 44.377 80.3561 42.1046 79.539 42.2717L78.6891 42.3051C78.3623 42.4388 77.4798 42.8732 77.0875 43.1071C76.0416 43.742 72.9365 44.2433 71.6617 44.3435C69.2757 44.4772 66.3013 43.9091 65.3207 43.3076C64.3728 43.5081 63.2942 43.742 62.5097 43.7086C61.758 44.0094 59.6988 44.6443 59.6988 44.6443C59.6988 44.6443 57.2473 45.7805 56.0706 45.6134C55.8418 45.58 55.515 45.2792 55.4496 45.0787C54.8613 45.2792 54.2076 45.4129 53.7826 45.346C53.1616 45.2458 52.9328 44.9785 52.8675 44.7445C52.606 44.6443 52.3118 44.4438 52.2137 44.143C52.0176 43.4079 55.4169 42.2717 55.4169 42.2717C55.4169 42.2717 56.5936 41.6702 58.6528 41.0353C59.7968 40.7011 60.7447 40.4338 61.5292 40.1665C62.7058 39.6987 64.1767 39.6987 64.765 39.4647C65.5168 39.164 72.675 38.1615 77.0549 36.7914C78.7872 36.5909 81.925 36.4907 84.5399 36.2902C86.4683 35.956 97.5815 35.5216 106.374 35.2543L115.493 33.7839Z" fill="white"/>
<path opacity="0.4" d="M56.2993 46.0143C56.2012 46.0143 56.1032 46.0143 56.0051 45.9809C55.7763 45.9475 55.4821 45.7469 55.2533 45.513C54.5996 45.7135 54.0766 45.7804 53.6844 45.7135C52.9653 45.6133 52.6712 45.2791 52.5404 45.0118C52.1809 44.8447 51.9194 44.5774 51.8213 44.2432C51.6252 43.508 52.7692 42.7395 55.2533 41.9041C55.4494 41.8038 56.5934 41.2357 58.5219 40.6676C59.0449 40.5006 59.5352 40.3669 59.9928 40.2332C60.5157 40.0662 60.9733 39.9325 61.3982 39.8322C62.0846 39.5649 62.9018 39.4312 63.5882 39.331C64.0131 39.2642 64.4053 39.1973 64.6341 39.1305C64.8956 39.0302 65.7127 38.8632 67.347 38.5624C70.0273 38.0612 74.0803 37.326 76.9239 36.4238C76.9566 36.4238 76.9566 36.4238 76.9893 36.4238C78.0353 36.2901 79.5715 36.2233 81.1731 36.123C82.2844 36.0562 83.3957 35.9893 84.4743 35.9225C86.3701 35.5883 96.7968 35.1539 106.341 34.8866C106.537 34.8866 106.701 35.0537 106.733 35.2542C106.733 35.4547 106.57 35.6218 106.374 35.6552C96.8295 35.9559 86.4028 36.3903 84.6051 36.6911H84.5724C83.4938 36.7579 82.3498 36.8248 81.2384 36.8916C79.6369 36.9918 78.1333 37.0587 77.1201 37.1923C74.2437 38.0946 70.158 38.8632 67.4778 39.331C66.203 39.5649 65.1244 39.7654 64.8956 39.8322C64.6014 39.9325 64.1765 39.9993 63.6862 40.0662C63.0325 40.1664 62.2807 40.2667 61.627 40.534C61.1694 40.6677 60.7118 40.8013 60.1889 40.9684C59.7313 41.1021 59.241 41.2357 58.718 41.4028C56.7242 42.0043 55.5802 42.6058 55.5475 42.6058C55.5148 42.6058 55.5148 42.6392 55.4821 42.6392C54.044 43.1071 52.7038 43.7754 52.5404 44.0761C52.6058 44.2432 52.8019 44.3435 52.9326 44.3769C53.0634 44.4103 53.1614 44.544 53.1614 44.6776C53.1614 44.711 53.2922 44.9115 53.7498 44.9784C53.9786 45.0118 54.4362 45.0118 55.2533 44.7445C55.4494 44.6776 55.6456 44.7779 55.7109 44.9784C55.7436 45.0452 55.9397 45.2123 56.0378 45.2457C56.8876 45.3794 58.8161 44.6108 59.4698 44.31C59.4698 44.31 59.5025 44.31 59.5025 44.2766C59.5352 44.2766 61.5617 43.6417 62.2807 43.341C62.3134 43.3075 62.3788 43.3076 62.4115 43.3076C63.196 43.341 64.3073 43.0736 65.1571 42.9066C65.2551 42.8731 65.3532 42.9066 65.4186 42.94C66.3338 43.508 69.2755 44.0761 71.5308 43.9425C72.7729 43.8756 75.8126 43.341 76.7932 42.7729C77.1854 42.539 78.0679 42.138 78.4275 41.9709C78.4602 41.9375 78.5255 41.9375 78.5582 41.9375L79.4081 41.9041C79.931 41.8372 82.7093 42.1046 89.2464 42.7395C95.1952 43.3076 101.961 43.9759 103.857 43.9759C103.89 43.9759 103.89 43.9759 103.922 43.9759C106.047 43.9759 110.459 43.6417 113.238 43.0736C116.147 42.4721 119.808 40.4672 120.461 40.0996C120.69 39.5983 120.69 39.0971 120.527 38.5624C119.84 36.5574 116.637 34.7864 115.297 34.1514C107.158 30.1749 102.255 27.9694 100.327 27.4347C97.9408 26.733 94.0186 24.3938 90.9134 22.5225C89.2791 21.5534 87.4487 20.4507 87.0565 20.3839C86.8604 20.4173 86.697 20.2836 86.6643 20.0831C86.6316 19.8826 86.7296 19.6821 86.9584 19.6153C87.3507 19.515 88.2005 19.9829 91.3056 21.8542C94.2474 23.5918 98.235 25.9978 100.556 26.6662C102.517 27.2342 107.452 29.4397 115.656 33.4497C117.454 34.3185 120.527 36.0896 121.278 38.2951C121.54 39.0637 121.475 39.7988 121.148 40.534C121.115 40.6008 121.05 40.6677 120.984 40.7011C120.821 40.8013 116.768 43.1405 113.434 43.8088C110.459 44.4103 106.047 44.711 103.955 44.711C103.922 44.711 103.922 44.711 103.89 44.711C101.961 44.711 95.1952 44.0427 89.2138 43.4746C84.6704 43.0402 79.9964 42.5724 79.5388 42.6392H79.5061L78.7217 42.6726C78.3948 42.8397 77.5777 43.2073 77.2181 43.4078C76.0741 44.0761 72.9363 44.6108 71.6289 44.6776C69.2428 44.8113 66.3665 44.2766 65.2225 43.6417C64.4053 43.8088 63.3267 44.0427 62.5422 44.0427C61.7905 44.3435 60.0254 44.8781 59.7966 44.945C59.5025 45.1455 57.5413 46.0143 56.2993 46.0143Z" fill="black"/>
</g>
<g opacity="0.4">
<path opacity="0.4" d="M89.2796 36.0563C89.2469 36.0563 89.2142 36.0563 89.1815 36.0563C88.5932 35.9227 87.4819 35.8558 86.2071 35.7556C83.0693 35.5551 78.7548 35.2878 76.3361 33.6504C76.1726 33.5501 76.1073 33.3162 76.238 33.1157C76.3361 32.9486 76.5649 32.8818 76.761 33.0154C79.049 34.5526 83.2327 34.8199 86.2725 34.987C87.6453 35.0873 88.7239 35.1541 89.3776 35.2878C89.5737 35.3212 89.7045 35.5551 89.6391 35.7556C89.6064 35.9227 89.443 36.0563 89.2796 36.0563Z" fill="black"/>
</g>
<g opacity="0.4">
<path opacity="0.4" d="M55.4498 45.4797C55.3518 45.4797 55.2537 45.4463 55.1884 45.3795C55.0903 45.2792 55.0576 45.1455 55.0576 44.9785C55.0903 44.8114 55.1557 44.3101 58.7511 42.4722C58.7511 42.4722 58.7838 42.4722 58.7838 42.4388C58.7838 42.4388 60.3854 41.8707 62.4119 41.2358C64.4384 40.6343 65.0267 40.4004 66.04 40.0328C66.2361 39.966 66.4322 40.0662 66.5303 40.2667C66.5957 40.4672 66.4976 40.6677 66.3015 40.768C65.2882 41.169 64.6672 41.3695 62.6407 42.0044C60.7449 42.5725 59.2741 43.1071 59.078 43.174C57.7378 43.8757 56.1689 44.778 55.8421 45.1455C55.8421 45.2458 55.8094 45.346 55.744 45.4129C55.6133 45.4463 55.5152 45.4797 55.4498 45.4797Z" fill="black"/>
</g>
<g opacity="0.4">
<path opacity="0.4" d="M52.8677 45.1455C52.6716 45.1455 52.5408 45.0118 52.5082 44.8113C52.4101 44.0428 55.4826 42.6393 55.8748 42.539C56.2343 42.4388 58.1955 41.6368 59.9278 40.935C64.1443 39.1974 64.2096 39.1974 64.4057 39.2308C64.6019 39.2642 64.7326 39.4647 64.6999 39.6652C64.6672 39.8323 64.5038 39.9659 64.3404 39.9659C64.0135 40.0328 61.889 40.9016 60.222 41.6034C58.2935 42.4053 56.4958 43.1405 56.0709 43.2408C55.3518 43.4413 53.5214 44.5106 53.2272 44.8447C53.1946 44.9784 53.0638 45.0787 52.9331 45.1121C52.9004 45.1455 52.8677 45.1455 52.8677 45.1455Z" fill="black"/>
</g>
</g>
</g>
<defs>
<clipPath id="clip0_139_926">
<rect width="300" height="67" fill="white"/>
</clipPath>
</defs>
</svg>
