<svg width="201" height="72" viewBox="0 0 201 72" fill="none" xmlns="http://www.w3.org/2000/svg">
<path d="M195.488 40H4.53737C2.58958 40 1 38.5797 1 36.8393V25.6969C1 23.9566 2.58958 22.5363 4.53737 22.5363H195.488C197.436 22.5363 199.026 23.9566 199.026 25.6969V36.8393C199.026 38.5797 197.436 40 195.488 40Z" fill="#4B80FB" stroke="black" stroke-miterlimit="10"/>
<path d="M16.6495 22.5363V40" stroke="black" stroke-miterlimit="10"/>
<path d="M31.0228 22.5363V40" stroke="black" stroke-miterlimit="10"/>
<path d="M49.1127 25.4369V40" stroke="black" stroke-miterlimit="10"/>
<path d="M65.9489 24.0366V40" stroke="black" stroke-miterlimit="10"/>
<path d="M83.6804 22.4362V40" stroke="black" stroke-miterlimit="10"/>
<path d="M100.002 22.5763V40" stroke="black" stroke-miterlimit="10"/>
<path d="M119.927 22.5763V40" stroke="black" stroke-miterlimit="10"/>
<path d="M142.069 22.4762V39.9999" stroke="black" stroke-miterlimit="10"/>
<path d="M164.995 22.5363V40" stroke="black" stroke-miterlimit="10"/>
<path d="M185.413 22.5763V40" stroke="black" stroke-miterlimit="10"/>
<path d="M36.8439 22.8963C36.8439 22.4362 36.6424 22.0762 36.4857 21.6761C36.0379 20.7559 35.0976 19.6757 32.2543 19.1355C31.0229 18.8955 27.9333 18.6354 26.2094 18.5754C23.6347 18.4954 18.5078 18.4954 15.9331 18.5754C14.2092 18.6354 11.142 18.8955 9.88822 19.1355C7.06728 19.6757 6.12696 20.7359 5.6568 21.6761C5.50009 22.0962 5.29859 22.4563 5.29859 22.8963C5.29859 22.8963 4.8956 25.4369 8.11953 25.4369H8.27625H33.7991H33.9558C37.2469 25.4369 36.8439 22.8963 36.8439 22.8963Z" fill="#FFEA9D" stroke="black" stroke-miterlimit="10"/>
<path d="M21.9554 23.2965C26.0749 22.6563 27.6197 21.7161 28.9182 21.116C32.5675 19.3356 36.5975 21.016 37.5378 21.9962V21.9762C39.7766 24.0166 45.5528 25.537 51.6873 25.537C58.068 25.537 65.8591 23.5965 73.2921 22.5763C75.2846 22.2963 77.2996 22.6764 79.0011 23.5965C81.643 25.0169 86.9938 26.7572 92.076 26.5172C95.1208 26.3771 97.9641 25.777 99.8224 24.1167C100.561 23.4565 101.524 23.0564 102.554 22.9964C110.658 22.5363 133.114 21.3961 133.114 21.3961C133.114 21.3961 136.517 21.9362 136.539 21.9362C137.278 22.1762 142.696 23.9966 147.666 23.9966C150.734 23.9966 157.629 22.7364 159.801 22.3963C162.689 21.9362 169.361 21.7562 172.271 22.1162C173.704 22.2963 176.436 23.0964 176.928 23.3365C177.51 23.6366 181.854 24.3567 181.719 20.5559C181.652 19.1156 181.562 18.4955 181.518 17.1152C181.473 15.8749 181.562 13.4544 181.562 13.3944C181.562 13.3944 181.831 12.1541 181.719 10.3537C181.63 9.11346 181.674 7.87319 181.854 6.63293C181.943 6.0128 181.965 5.35266 181.786 4.87255C181.585 4.31243 179.883 3.77232 179.883 4.79254C179.883 5.83276 179.436 7.4131 179.212 7.81318C178.965 8.25327 177.577 10.5938 175.921 13.3944C175.764 13.6544 175.607 13.8945 175.45 14.1545C174.353 15.9349 172.182 16.9351 169.921 16.7351C161.502 15.9549 141.151 14.0745 137.972 13.8945C135.845 12.7142 133.405 12.3742 131.995 12.3942C130.584 12.4142 116.681 9.3335 100.203 9.25349C95.5238 7.23306 80.9489 7.15304 74.2324 7.69316C71.4115 7.13304 62.8591 7.51312 61.762 7.39309C51.5753 6.33287 42.7543 10.6138 39.8662 12.2141C39.8214 12.2341 39.7766 12.2741 39.7318 12.2941C38.5452 12.8543 34.4929 12.4742 32.4556 12.3541L32.478 12.3141C32.6795 11.3939 32.7914 10.4337 32.769 9.91363C32.7466 9.2935 32.075 8.59335 31.2914 8.49333C30.5526 8.3933 27.0152 8.29328 26.7913 8.29328C26.7466 8.13325 26.3212 6.4929 25.7615 6.79296C24.8211 7.25306 22.1569 8.27328 21.9554 8.3533C21.4405 8.3733 19.7838 8.51333 19.2464 8.53333C13.918 8.79339 11.612 13.6344 12.6418 17.5553C13.6717 21.4761 16.2912 24.1767 21.9554 23.2965Z" fill="#C2D5FF"/>
<path d="M91.091 26.7772C86.4566 26.7772 81.5759 25.2768 78.8445 23.8165C77.1654 22.9163 75.1952 22.5563 73.2922 22.8163C70.8294 23.1564 68.2996 23.5965 65.8592 24.0366C60.7547 24.9368 55.9411 25.7769 51.665 25.7769C45.6649 25.7769 39.8439 24.3166 37.4259 22.2362C37.3811 22.2162 37.3364 22.1962 37.314 22.1762C36.4408 21.256 32.59 19.6156 29.0303 21.336C28.8511 21.416 28.6944 21.496 28.5153 21.576C27.3063 22.1762 25.6272 22.9763 22.0003 23.5365L21.9555 23.3164L22.0003 23.5365C16.851 24.3166 13.627 22.3362 12.3957 17.6352C11.7688 15.2747 12.3509 12.6942 13.8733 10.8738C15.1718 9.33344 17.0301 8.45325 19.2241 8.35323C19.448 8.33322 19.8958 8.31322 20.3659 8.27321C20.9704 8.2332 21.5749 8.17319 21.8883 8.17319C21.9555 8.15318 22.0675 8.11318 22.2018 8.05316C23.0078 7.73309 24.8884 7.01294 25.6272 6.65286C25.7839 6.57285 25.9407 6.57285 26.0974 6.63286C26.5675 6.8129 26.8586 7.65308 26.9929 8.13318C27.7765 8.15318 30.6422 8.25321 31.3139 8.33322C32.187 8.45325 32.9706 9.21341 33.0154 9.97357C33.0378 10.4737 32.9258 11.3539 32.7691 12.214C32.993 12.2341 33.2169 12.2341 33.4632 12.2541C35.5229 12.3941 38.6573 12.5941 39.5976 12.154L39.7319 12.074C42.2618 10.6537 51.3739 6.11275 61.8069 7.21298C62.1427 7.25299 63.2398 7.23299 64.6502 7.21298C67.6951 7.17297 72.2847 7.13297 74.2773 7.51305C80.8595 6.97293 95.4791 7.03295 100.293 9.07338C112.942 9.13339 123.912 10.9338 129.174 11.794C130.651 12.034 131.726 12.214 132.017 12.214C132.039 12.214 132.062 12.214 132.107 12.214C133.674 12.214 136.025 12.6141 138.084 13.7344C141.443 13.9544 161.48 15.7948 169.965 16.575C172.115 16.775 174.197 15.8148 175.249 14.1145C175.406 13.8544 175.563 13.6143 175.719 13.3543C177.174 10.8938 178.764 8.2332 179.01 7.7731C179.234 7.37302 179.66 5.83269 179.66 4.85248C179.66 4.41239 179.928 4.11232 180.376 4.05231C181.025 3.95229 181.876 4.37238 182.055 4.85248C182.212 5.31258 182.257 5.93271 182.145 6.71288C181.966 7.91313 181.921 9.1534 182.01 10.3937C182.122 12.094 181.898 13.2943 181.854 13.4743C181.854 13.5143 181.854 13.5943 181.854 13.7144C181.831 14.3945 181.786 16.1749 181.809 17.1751C181.831 17.8753 181.876 18.3554 181.898 18.8755C181.943 19.3756 181.966 19.8957 182.01 20.5958C182.055 21.9561 181.585 22.8963 180.6 23.4364C179.212 24.1766 177.286 23.7965 176.861 23.5765C176.413 23.3364 173.704 22.5563 172.294 22.3762C169.495 22.0161 162.891 22.1762 159.913 22.6363C159.555 22.6963 159.107 22.7763 158.547 22.8563C155.682 23.3364 150.331 24.2366 147.734 24.2366C144.622 24.2366 140.659 23.5165 136.607 22.1962L136.539 22.1762C136.36 22.1562 135.733 22.0562 133.159 21.6361C132.219 21.6761 110.479 22.7963 102.621 23.2364C101.681 23.2964 100.763 23.6565 100.046 24.2966C98.3672 25.7769 95.7701 26.5971 92.1208 26.7772C91.7626 26.7572 91.4268 26.7772 91.091 26.7772ZM74.5459 22.2562C76.1355 22.2562 77.7251 22.6563 79.1132 23.3964C81.9789 24.9368 87.2402 26.4971 92.0537 26.2771C95.5687 26.117 98.0538 25.3369 99.6433 23.9366C100.449 23.2364 101.479 22.7963 102.554 22.7363C110.569 22.2962 132.89 21.156 133.136 21.136C133.159 21.136 133.181 21.136 133.204 21.136C134.525 21.336 136.495 21.6561 136.607 21.6761C136.629 21.6761 136.651 21.6761 136.651 21.6961L136.741 21.7361C140.726 23.0364 144.622 23.7565 147.689 23.7565C150.241 23.7565 155.547 22.8563 158.413 22.3762C158.973 22.2762 159.443 22.1962 159.779 22.1562C162.823 21.6761 169.495 21.516 172.339 21.8761C173.727 22.0562 176.548 22.8363 177.085 23.1364C177.398 23.2964 179.122 23.6365 180.309 22.9964C181.137 22.5563 181.518 21.7361 181.473 20.5558C181.451 19.8557 181.406 19.3356 181.361 18.8355C181.316 18.3154 181.294 17.8152 181.272 17.1151C181.227 16.0949 181.294 14.3145 181.316 13.6344C181.316 13.4943 181.316 13.3943 181.316 13.3943C181.316 13.3743 181.316 13.3543 181.316 13.3543C181.316 13.3343 181.585 12.114 181.451 10.3737C181.361 9.11339 181.406 7.85312 181.585 6.61285C181.697 5.8927 181.675 5.33258 181.518 4.9525C181.428 4.71245 180.801 4.39238 180.398 4.45239C180.264 4.4724 180.107 4.53241 180.107 4.81247C180.107 5.8727 179.66 7.49304 179.413 7.93314C179.189 8.35323 177.98 10.3937 176.1 13.5143C175.943 13.7744 175.786 14.0144 175.63 14.2745C174.488 16.1349 172.227 17.1751 169.853 16.9551C161.301 16.1549 141.084 14.2945 137.928 14.1145C137.883 14.1145 137.838 14.0945 137.816 14.0744C135.801 12.9742 133.427 12.5941 131.972 12.5941C131.614 12.5941 130.651 12.4341 129.039 12.174C123.778 11.3139 112.808 9.51347 100.181 9.45346C100.136 9.45346 100.114 9.45346 100.069 9.43346C95.4343 7.43303 80.8147 7.39302 74.2773 7.93314C74.2549 7.93314 74.2325 7.93314 74.2101 7.93314C72.3071 7.55306 67.7175 7.61307 64.6726 7.65308C63.195 7.67308 62.1427 7.67308 61.7621 7.65308C51.4858 6.57285 42.5305 11.0538 40.023 12.4541L39.8886 12.5341C38.7916 13.0542 35.702 12.8542 33.4632 12.6942C33.1049 12.6741 32.7691 12.6541 32.4781 12.6341C32.3885 12.6341 32.3214 12.5941 32.2766 12.5341C32.2318 12.4741 32.2318 12.3941 32.2542 12.3341V12.3141C32.4557 11.4339 32.5676 10.4737 32.5452 9.97357C32.5228 9.47347 31.9855 8.85333 31.2691 8.77332C30.6646 8.6933 28.0899 8.61328 26.7914 8.57327C26.6795 8.57327 26.5675 8.49326 26.5451 8.39324C26.3436 7.57306 26.0302 7.05295 25.8959 7.03295C25.1123 7.41303 23.2317 8.15318 22.4033 8.47325C22.2018 8.55327 22.0898 8.59328 22.0451 8.61328C22.0227 8.59328 22.0003 8.59328 21.9555 8.59328C21.6645 8.59328 20.9928 8.65329 20.4107 8.6933C19.9406 8.73331 19.4928 8.75331 19.2689 8.77332C17.2092 8.87334 15.4853 9.69351 14.2987 11.1138C12.8658 12.8342 12.3285 15.2747 12.9106 17.5152C14.0972 21.9961 17.0301 23.8165 21.9331 23.0564C25.4705 22.5162 27.1049 21.7161 28.2914 21.136C28.4705 21.0559 28.6497 20.9559 28.8064 20.8759C32.5005 19.0755 36.5304 20.7159 37.6274 21.7361C37.6498 21.7561 37.6946 21.7561 37.717 21.7961C39.9782 23.8565 45.7096 25.2968 51.6873 25.2968C55.9188 25.2968 60.7099 24.4567 65.792 23.5565C68.2548 23.1164 70.7847 22.6763 73.2474 22.3362C73.6504 22.2962 74.0982 22.2562 74.5459 22.2562Z" fill="black"/>
<path d="M45.5753 23.2364C48.7545 23.1564 67.4936 22.0962 68.9264 22.3163C70.3817 22.5563 74.1653 22.7563 76.7848 22.7563C79.4042 22.7563 94.5164 22.1362 95.1657 22.2362L95.8373 22.2562C96.0836 22.3563 96.7777 22.6363 97.0911 22.7964C97.9195 23.2164 100.315 23.5565 101.3 23.6165C103.158 23.7166 105.442 23.2965 106.203 22.8964C106.942 23.0364 107.793 23.1764 108.397 23.1564C108.979 23.3565 110.569 23.7766 110.569 23.7766C110.569 23.7766 112.494 24.5367 113.39 24.4167C113.569 24.3967 113.838 24.1967 113.882 24.0566C114.353 24.1766 114.845 24.2767 115.181 24.2167C115.673 24.1566 115.853 23.9566 115.875 23.8166C116.076 23.7566 116.3 23.6165 116.368 23.4165C116.524 22.9164 113.793 22.3963 113.793 22.3963C113.793 22.3963 112.629 22.0562 111.017 21.6561C110.144 21.4361 109.405 21.256 108.778 21.096C107.882 20.7959 107.054 20.4759 106.584 20.3358C106.002 20.1358 100.427 19.4756 97.0463 18.5755C95.6806 18.4354 93.2851 18.3754 91.2253 18.2554C89.5238 17.9953 73.4265 16.8951 70.6056 16.675C67.807 16.455 53.456 15.9349 50.7247 15.4948C47.9933 15.0547 47.5903 14.4746 47.5903 14.4746L45.5753 23.2364Z" fill="#C2D5FF"/>
<path d="M113.211 24.6567C112.248 24.6567 110.681 24.0566 110.502 23.9966C110.323 23.9566 108.957 23.5765 108.375 23.3965C107.793 23.3965 107.076 23.2965 106.27 23.1364C105.397 23.5565 103.158 23.9366 101.3 23.8366C100.293 23.7966 97.8523 23.4365 96.9792 22.9964C96.7105 22.8564 96.0613 22.5963 95.7926 22.4963L95.1881 22.4763C95.1657 22.4763 95.1657 22.4763 95.1433 22.4763C94.7851 22.4163 90.0164 22.5963 85.8074 22.7363C82.0237 22.8764 78.0834 22.9964 76.8296 22.9964H76.8072C74.0758 22.9964 70.3146 22.7763 68.9041 22.5363C67.9414 22.3763 58.5607 22.8364 52.3367 23.1364C49.2695 23.2965 46.6052 23.4165 45.5978 23.4365C45.441 23.4365 45.3515 23.3365 45.3291 23.2164C45.3291 23.0964 45.441 22.9964 45.5754 22.9764C46.5829 22.9564 49.2471 22.8164 52.3143 22.6763C60.8891 22.2562 68.0534 21.9162 68.9937 22.0762C70.3817 22.2962 74.0982 22.5163 76.8072 22.5163H76.8296C78.0834 22.5163 81.979 22.3763 85.785 22.2562C91.3149 22.0562 94.7403 21.9562 95.2105 21.9962L95.8598 22.0162C95.8822 22.0162 95.9269 22.0162 95.9493 22.0362C96.218 22.1362 96.912 22.4163 97.2255 22.5763C97.9867 22.9764 100.36 23.3165 101.323 23.3565C103.114 23.4365 105.352 23.0564 106.091 22.6763C106.136 22.6563 106.203 22.6363 106.27 22.6563C106.92 22.7763 107.793 22.9364 108.397 22.9164C108.42 22.9164 108.464 22.9164 108.487 22.9364C109.069 23.1364 110.636 23.5565 110.659 23.5565H110.681C111.196 23.7566 112.673 24.2767 113.368 24.1766C113.435 24.1566 113.614 24.0366 113.659 23.9766C113.703 23.8566 113.838 23.7966 113.972 23.8366C114.621 24.0166 114.979 24.0166 115.159 23.9966C115.539 23.9566 115.629 23.8166 115.651 23.7766C115.674 23.6965 115.718 23.6365 115.808 23.5965C115.942 23.5565 116.099 23.4765 116.144 23.3565C115.987 23.1564 114.912 22.8163 113.771 22.5963H113.748C113.726 22.5963 112.562 22.2562 110.994 21.8561C110.591 21.7561 110.188 21.6561 109.853 21.5561C109.45 21.4561 109.091 21.356 108.755 21.276C108.241 21.096 107.77 20.9359 107.367 20.7959C107.054 20.6759 106.763 20.5759 106.561 20.5159C106.382 20.4558 105.532 20.3358 104.569 20.1758C102.464 19.8557 99.3076 19.3556 97.0687 18.7555C96.2628 18.6755 95.0986 18.6155 93.8672 18.5754C93.0164 18.5354 92.1209 18.4954 91.2925 18.4554H91.2701C90.0164 18.2754 80.5685 17.5952 74.949 17.1952C72.9788 17.0551 71.3892 16.9351 70.6952 16.8951C69.7549 16.8151 67.4489 16.7151 64.807 16.595C59.389 16.335 52.6277 16.0149 50.7919 15.7148C48.0829 15.2747 47.5679 14.6946 47.4784 14.5946C47.4112 14.4946 47.4336 14.3545 47.5679 14.2745C47.6799 14.2145 47.8366 14.2345 47.9262 14.3545C47.9262 14.3545 48.3963 14.8747 50.9038 15.2747C52.6949 15.5748 59.7249 15.8949 64.8518 16.1549C67.516 16.275 69.7996 16.395 70.7624 16.455C71.4788 16.515 73.046 16.615 75.0162 16.7551C81.0162 17.1751 90.0612 17.8353 91.3821 18.0353C92.2105 18.0953 93.0836 18.1354 93.9344 18.1554C95.1881 18.2154 96.3747 18.2554 97.2031 18.3554C97.2255 18.3554 97.2255 18.3554 97.2479 18.3554C99.4643 18.9555 102.621 19.4356 104.703 19.7757C105.935 19.9557 106.584 20.0758 106.785 20.1358C106.987 20.2158 107.278 20.3158 107.614 20.4158C108.017 20.5559 108.487 20.7359 108.979 20.8959C109.293 20.976 109.651 21.056 110.054 21.156C110.412 21.236 110.793 21.336 111.218 21.4561C112.718 21.8361 113.86 22.1562 113.972 22.1962C114.532 22.2962 116.345 22.6963 116.681 23.1764C116.771 23.3165 116.748 23.4165 116.726 23.4965C116.659 23.7165 116.457 23.8966 116.188 24.0166C116.099 24.1766 115.897 24.3967 115.315 24.4767C115.002 24.5167 114.599 24.4767 114.084 24.3567C113.927 24.5167 113.703 24.6367 113.524 24.6767C113.368 24.6567 113.278 24.6567 113.211 24.6567Z" fill="black"/>
<path d="M113.882 24.2967C113.86 24.2967 113.838 24.2967 113.815 24.2967C113.703 24.2767 113.636 24.1966 113.614 24.0966C113.412 23.8766 112.047 23.2364 110.86 22.7363C110.726 22.6963 109.561 22.3363 108.084 21.9562C106.561 21.5561 106.293 21.4961 105.464 21.216C105.33 21.176 105.263 21.036 105.308 20.916C105.352 20.7959 105.509 20.7359 105.643 20.7759C106.427 21.036 106.651 21.096 108.218 21.4961C109.808 21.8962 111.017 22.2762 111.039 22.2762H111.061C114.241 23.5765 114.151 23.8966 114.106 24.0766C114.106 24.2167 113.994 24.2967 113.882 24.2967Z" fill="black"/>
<path d="M115.875 24.0566C115.853 24.0566 115.853 24.0566 115.83 24.0566C115.741 24.0366 115.651 23.9766 115.629 23.8966C115.382 23.6765 113.77 22.9364 113.188 22.7964C112.853 22.7163 112.024 22.3963 111.241 22.0962C110.658 21.8762 109.964 21.5961 109.785 21.5561C109.673 21.5561 109.561 21.4761 109.539 21.376C109.517 21.256 109.606 21.136 109.741 21.116C109.897 21.096 110.099 21.156 111.442 21.6961C112.181 21.9762 113.009 22.3162 113.3 22.3763C113.547 22.4363 116.188 23.3765 116.121 23.8766C116.121 23.9766 116.009 24.0566 115.875 24.0566Z" fill="black"/>
<path d="M23.2094 18.6954C22.2691 18.6954 21.4855 18.3754 21.2168 17.8152C20.9258 17.2151 21.2392 16.495 22.0452 15.9148C22.1571 15.8348 22.3139 15.8548 22.4034 15.9549C22.493 16.0549 22.4706 16.1949 22.3586 16.2749C21.7541 16.715 21.4855 17.2551 21.687 17.6552C22.0004 18.2953 23.3437 18.4554 24.5975 18.0353C25.4259 17.7552 26.0975 17.2751 26.3214 16.775C26.4333 16.535 26.4333 16.3149 26.3438 16.1349C26.299 16.0549 26.2318 15.9549 26.1423 15.8948C26.0303 15.8148 26.0303 15.6748 26.1423 15.5748C26.2318 15.4748 26.3886 15.4748 26.5005 15.5748C26.6348 15.6948 26.7468 15.8148 26.8139 15.9549C26.9707 16.2549 26.9483 16.615 26.7915 16.9551C26.5005 17.5752 25.7393 18.1353 24.7766 18.4754C24.2393 18.6154 23.7019 18.6954 23.2094 18.6954Z" fill="black"/>
<g opacity="0.4">
<path opacity="0.4" d="M184.137 21.7161C184.07 20.6359 182.481 19.8557 177.018 19.9957C177.018 19.9957 170.66 19.7757 170.257 19.7357C169.831 19.6557 163.406 19.1156 162.913 18.9755L161.525 18.5354C156.935 17.0351 150.51 14.1145 146.637 13.5344C141.577 12.7742 136.249 13.1543 136.249 13.1543C136.249 13.1543 123.33 6.79293 113.793 4.63247C109.203 3.59225 106.315 3.07214 94.8971 3.07214C84.9566 3.07214 82.0014 4.87252 79.158 4.87252C73.4938 4.87252 62.501 2.31198 56.4114 1.85188C43.941 -3.46926 43.9634 5.75271 43.2022 8.19323C42.8216 9.41349 42.038 11.594 38.8141 12.3541C38.0529 12.5342 33.9334 12.2941 32.5229 12.4341V20.2758L41.1649 21.256C42.5082 22.0562 42.956 23.0964 43.2246 23.9366C43.9858 26.3771 44.4112 29.8779 52.8964 29.2177C58.9861 28.7376 73.5162 27.8374 79.1804 27.8374C82.0014 27.8374 84.979 29.3577 94.9195 29.6378C98.0539 29.7178 99.2405 29.8378 103.315 29.7178C114.666 29.3778 131.39 28.5176 134.928 28.3375C136.54 28.4776 142.719 29.0377 144.98 29.0377C150.219 29.0777 164.368 27.8974 168.331 27.5574C168.868 27.5174 169.428 27.5374 169.943 27.6374C170.1 27.6774 170.324 27.6974 170.57 27.7374C170.794 27.7574 171.555 27.6774 171.824 27.6974C175.137 28.0575 180.622 28.7176 180.69 28.7176C187.608 29.3177 187.608 28.2375 188.458 26.5771C189.152 25.1769 192.981 20.5159 184.137 21.7161Z" fill="white"/>
<path opacity="0.4" d="M100.248 29.9779C98.9717 29.9779 97.9866 29.9379 96.8001 29.8978C96.218 29.8778 95.5911 29.8578 94.8747 29.8378C88.5611 29.6578 84.9566 28.9777 82.5834 28.5176C81.1729 28.2375 80.1431 28.0375 79.1356 28.0375C73.628 28.0375 59.3218 28.9376 52.874 29.4177C44.747 30.0379 43.7843 26.8172 43.0679 24.4767C43.0231 24.3167 42.9783 24.1366 42.9111 23.9766C42.6425 23.1364 42.2171 22.1962 41.0081 21.436L32.4334 20.4758C32.299 20.4558 32.2095 20.3558 32.2095 20.2558V12.4141C32.2095 12.2941 32.299 12.1941 32.4334 12.1941C33.1274 12.1341 34.4035 12.1541 35.6573 12.1741C36.9782 12.1941 38.3215 12.2141 38.7021 12.1341C41.8813 11.3939 42.5753 9.19343 42.9111 8.13321C43.0007 7.83314 43.0902 7.45306 43.1798 6.97296C43.6052 4.93252 44.2321 1.83186 47.053 0.551588C49.2471 -0.448625 52.4262 -0.0885483 56.4561 1.63182C59.098 1.83186 62.5682 2.41199 66.2623 3.03212C71.031 3.83229 75.9564 4.65246 79.1356 4.65246C80.0983 4.65246 81.1058 4.43242 82.3595 4.15236C84.7551 3.63225 88.3596 2.85208 94.8523 2.85208C106.36 2.85208 109.27 3.39219 113.815 4.41241C122.927 6.47285 135.241 12.4141 136.271 12.9142C136.942 12.8742 141.935 12.5942 146.659 13.3143C149.234 13.7144 152.883 15.0947 156.42 16.455C158.279 17.1551 160.025 17.8353 161.592 18.3554L162.98 18.7755C163.249 18.8555 166.003 19.1155 167.816 19.2756C169.271 19.4156 170.1 19.4956 170.279 19.5156C170.57 19.5356 174.801 19.6957 176.995 19.7757C181.697 19.6757 183.981 20.1958 184.316 21.4761C187.272 21.096 189.04 21.356 189.757 22.2562C190.608 23.3565 189.6 25.0168 188.951 26.117C188.816 26.3371 188.705 26.5371 188.615 26.6772C188.548 26.7972 188.503 26.8972 188.458 27.0172C187.652 28.6576 186.936 29.4978 180.6 28.9576C180.578 28.9576 180.354 28.9376 179.973 28.8776C178.451 28.6976 174.398 28.2175 171.734 27.9174C171.622 27.8974 171.353 27.9174 171.13 27.9374C170.861 27.9574 170.637 27.9574 170.503 27.9574C170.256 27.9374 170.033 27.8974 169.853 27.8574C169.361 27.7574 168.846 27.7374 168.309 27.7774C164.144 28.1375 150.152 29.3177 144.935 29.2577C142.696 29.2377 136.696 28.7176 134.883 28.5576C131.547 28.7376 114.666 29.5978 103.293 29.9379C102.061 29.9579 101.099 29.9779 100.248 29.9779ZM79.158 27.5774C80.2102 27.5774 81.2625 27.7774 82.6954 28.0575C85.2029 28.5376 88.6059 29.1977 94.897 29.3777C95.6359 29.3977 96.2403 29.4177 96.8224 29.4378C98.7479 29.4978 100.158 29.5578 103.27 29.4578C114.666 29.1177 131.592 28.2575 134.883 28.0775C134.905 28.0775 134.905 28.0775 134.928 28.0775C136.719 28.2375 142.719 28.7576 144.958 28.7776C150.152 28.8176 164.122 27.6574 168.286 27.2973C168.868 27.2373 169.45 27.2773 169.988 27.3773C170.167 27.4173 170.368 27.4373 170.592 27.4573C170.682 27.4573 170.928 27.4573 171.13 27.4373C171.421 27.4173 171.689 27.3973 171.846 27.4173C174.51 27.7174 178.563 28.1975 180.085 28.3775C180.443 28.4175 180.667 28.4375 180.689 28.4575C186.936 28.9977 187.361 28.1775 188.033 26.7972C188.078 26.6972 188.145 26.5771 188.212 26.4571C188.302 26.2971 188.413 26.097 188.548 25.857C189.108 24.9168 190.07 23.3364 189.399 22.4763C188.794 21.7161 187.048 21.5361 184.204 21.9161C184.137 21.9161 184.07 21.9161 184.003 21.8761C183.958 21.8361 183.913 21.7761 183.913 21.7161C183.846 20.5959 181.607 20.0958 177.063 20.1958C176.794 20.1958 170.659 19.9757 170.279 19.9357C170.1 19.9157 169.003 19.7957 167.839 19.6957C165.219 19.4556 163.182 19.2556 162.891 19.1756L161.48 18.7355C159.891 18.2154 158.144 17.5352 156.286 16.8351C152.771 15.4948 149.144 14.1145 146.637 13.7344C141.666 12.9742 136.36 13.3543 136.293 13.3543C136.248 13.3543 136.204 13.3543 136.159 13.3343C136.025 13.2743 123.174 6.97296 113.77 4.85251C109.27 3.83229 106.382 3.29217 94.9418 3.29217C88.494 3.29217 85.0685 4.03233 82.561 4.59245C81.2625 4.87251 80.2326 5.09256 79.2028 5.09256C75.9564 5.09256 71.0086 4.27238 66.2399 3.47221C62.5458 2.85208 59.0532 2.27196 56.4337 2.07191C56.4114 2.07191 56.3666 2.07191 56.3442 2.05191C52.4486 0.391554 49.4038 0.0114731 47.344 0.951674C44.7694 2.13193 44.1425 5.09256 43.7395 7.05297C43.65 7.53308 43.5604 7.93316 43.4708 8.25323C43.1126 9.39347 42.3738 11.754 38.9036 12.5742C38.4558 12.6742 37.2021 12.6542 35.7245 12.6342C34.6274 12.6142 33.4856 12.5942 32.7916 12.6342V20.0557L41.2096 21.016C41.2544 21.016 41.2768 21.036 41.3216 21.056C42.7096 21.8961 43.1798 22.9364 43.4708 23.8766C43.5156 24.0366 43.5828 24.1966 43.6276 24.3767C44.3216 26.6972 45.1724 29.5778 52.8964 28.9977C59.3218 28.4775 73.6504 27.5774 79.158 27.5774Z" fill="black"/>
</g>
<g opacity="0.4">
<g opacity="0.4">
<path opacity="0.4" d="M193.07 19.3557C194.481 19.8158 196.227 19.9758 198.041 22.3363C200.526 22.3363 201.399 24.1767 200.1 24.4167C200.1 24.4167 198.018 24.4768 197.324 24.3367C196.787 24.2167 192.287 23.8366 188.749 24.1367C186.511 24.3367 182.839 24.3167 182.816 24.3367C182.145 24.9169 148.338 23.1565 144.308 23.2765C142.696 24.0167 138.958 24.0167 137.547 23.9566C136.137 23.8966 121.181 24.7168 104.703 24.2567C104.367 24.2567 78.7103 24.1967 78.7103 24.1967C78.7103 24.1967 67.3593 25.1369 66.2847 25.3169C59.9712 26.3172 49.0456 21.6562 44.6127 19.7357L36.9559 20.4159C38.0081 19.7157 32.2991 12.1541 32.5901 12.3742C34.9857 13.0743 44.2769 10.7538 44.2769 10.7538C44.2769 10.7538 49.4262 6.97303 56.0084 7.43313C71.7475 8.51336 72.7102 9.43355 78.8894 10.5938C80.8819 10.9739 82.9641 10.6938 84.7551 9.79363C87.4418 8.45334 91.2254 6.53293 97.5837 6.89301C100.629 7.05305 103.852 8.21329 105.644 9.93366C106.36 10.6138 107.3 11.0539 108.33 11.1339C116.39 11.8341 139.338 15.6149 139.338 15.6149C139.338 15.6149 142.741 15.5148 142.764 15.5148C143.525 15.2948 151.898 14.3946 153.935 14.3946C160.047 14.3946 163.921 16.9352 166.003 17.6153C168.062 18.2754 173.727 18.9756 177.04 19.3557C178.451 19.5157 179.861 18.9956 180.734 17.9954C182.078 16.435 184.316 14.5346 186.399 16.135C187.63 17.0752 188.346 17.6353 189.511 18.5355C190.54 19.3557 192.063 19.0356 193.07 19.3557Z" fill="white"/>
<path opacity="0.4" d="M64.404 25.657C57.7771 25.657 48.0829 21.4561 44.5903 19.9557L37.0006 20.6359C36.8887 20.6559 36.7767 20.5959 36.7319 20.4959C36.6872 20.3958 36.7319 20.2958 36.8215 20.2358C36.8439 20.2158 37.1349 19.9357 35.6349 17.4152C34.7618 15.9549 33.6199 14.3145 32.9483 13.3543C32.2542 12.3541 32.2542 12.3541 32.4334 12.2141C32.5005 12.1541 32.6125 12.1541 32.702 12.1741C34.9185 12.7942 43.4485 10.7338 44.1649 10.5737C44.6798 10.2137 49.7396 6.79294 56.0307 7.23304C68.2996 8.07322 71.5907 8.81337 75.3967 9.65355C76.4714 9.8936 77.5908 10.1337 78.9341 10.3937C80.8595 10.7538 82.8969 10.4937 84.6208 9.61354L84.6655 9.59354C87.4193 8.21324 91.203 6.33284 97.606 6.67292C100.808 6.85296 104.032 8.07322 105.845 9.79358C106.517 10.4337 107.412 10.8338 108.375 10.9338C116.211 11.594 138.443 15.2347 139.338 15.3948C141.935 15.3148 142.562 15.2948 142.719 15.2948C143.749 15.0347 151.988 14.1745 153.935 14.1745C158.659 14.1745 162.062 15.6748 164.324 16.675C165.018 16.9751 165.6 17.2352 166.092 17.3952C168.13 18.0353 173.861 18.7555 177.085 19.1156C178.406 19.2756 179.727 18.7755 180.533 17.8353C181.473 16.7551 182.906 15.4348 184.451 15.2948C185.212 15.2347 185.928 15.4548 186.578 15.9549L187.607 16.7551C188.302 17.2952 188.884 17.7553 189.69 18.3554C190.294 18.8155 191.078 18.8755 191.839 18.9355C192.331 18.9755 192.779 19.0155 193.205 19.1356C193.406 19.1956 193.63 19.2556 193.854 19.3356C195.108 19.6957 196.675 20.1158 198.22 22.1162C199.832 22.1562 200.906 22.9764 200.996 23.7366C201.041 24.1766 200.727 24.5367 200.212 24.6367C200.19 24.6367 200.19 24.6367 200.167 24.6367C200.078 24.6367 198.041 24.6968 197.324 24.5367C196.809 24.4367 192.331 24.0366 188.839 24.3567C187.025 24.5167 184.294 24.5367 183.264 24.5367C183.063 24.5367 182.928 24.5367 182.906 24.5367C181.809 24.7968 175.451 24.6167 159.622 23.9766C152.704 23.6965 146.144 23.4365 144.443 23.4765C142.472 24.3367 137.816 24.1566 137.614 24.1566C137.278 24.1366 136.137 24.1766 134.368 24.2367C128.816 24.4167 117.241 24.7968 104.77 24.4567C104.435 24.4567 79.4938 24.3967 78.7998 24.3967C78.3744 24.4367 67.4488 25.3369 66.3966 25.4969C65.7473 25.617 65.0981 25.657 64.404 25.657ZM44.635 19.4956C44.6798 19.4956 44.7022 19.4956 44.747 19.5157C48.4859 21.136 59.8816 26.0771 66.2623 25.0768C67.3369 24.8968 78.2625 23.9966 78.7102 23.9566H78.7326C79.7849 23.9566 104.39 24.0166 104.726 24.0166C117.174 24.3567 128.748 23.9766 134.301 23.7966C136.137 23.7366 137.234 23.6965 137.569 23.7165C139.226 23.7766 142.741 23.7366 144.196 23.0764C144.219 23.0564 144.264 23.0564 144.308 23.0564C145.943 23.0164 152.256 23.2565 159.577 23.5565C168.936 23.9366 181.719 24.4367 182.682 24.1566C182.749 24.1166 182.794 24.1166 183.219 24.1166C184.249 24.1166 186.936 24.0766 188.749 23.9366C192.376 23.6165 196.876 24.0166 197.414 24.1366C198.04 24.2767 199.899 24.2167 200.1 24.2167C200.369 24.1566 200.481 24.0366 200.458 23.8166C200.391 23.2965 199.541 22.5963 198.063 22.5963C197.973 22.5963 197.906 22.5563 197.861 22.4963C196.384 20.5559 194.951 20.1558 193.675 19.7957C193.451 19.7357 193.227 19.6757 193.003 19.5957C192.645 19.4756 192.22 19.4556 191.772 19.4156C190.966 19.3556 190.048 19.2956 189.331 18.7355C188.525 18.1154 187.943 17.6553 187.249 17.1151L186.219 16.315C185.682 15.8949 185.122 15.7148 184.495 15.7749C183.13 15.8949 181.809 17.1351 180.936 18.1354C180.018 19.1956 178.518 19.7557 177.018 19.5957C173.771 19.2356 168.018 18.5154 165.936 17.8353C165.421 17.6753 164.816 17.3952 164.122 17.0951C161.906 16.1149 158.57 14.6346 153.958 14.6346C151.92 14.6346 143.569 15.5348 142.853 15.7348C142.831 15.7348 142.786 15.7549 142.763 15.7549C142.696 15.7549 140.502 15.8149 139.36 15.8549C139.338 15.8549 139.316 15.8549 139.316 15.8549C139.092 15.8149 116.3 12.0741 108.33 11.3939C107.255 11.2939 106.248 10.8538 105.487 10.1136C103.763 8.4733 100.673 7.31305 97.5837 7.13301C91.3149 6.79294 87.6208 8.63333 84.9342 9.99362L84.8894 10.0136C83.0536 10.9338 80.9043 11.2339 78.8446 10.8338C77.4789 10.5737 76.3594 10.3137 75.2848 10.0736C71.5011 9.23346 68.2324 8.4933 56.0084 7.65313C49.6053 7.21303 44.5231 10.8938 44.4559 10.9338C44.4336 10.9538 44.3888 10.9738 44.3664 10.9738C44.0082 11.0539 36.1498 12.9943 33.105 12.6942C33.1946 12.8142 33.2841 12.9543 33.3961 13.0943C36.217 17.1351 37.4036 19.2356 37.3588 20.1358L44.6127 19.4956C44.6127 19.4956 44.635 19.4956 44.635 19.4956Z" fill="black"/>
</g>
<g opacity="0.4">
<path opacity="0.4" d="M76.6057 20.2158C78.4192 20.996 81.1505 22.5363 80.2326 24.1566C80.2326 24.1566 77.4117 25.5969 75.1504 25.997C73.2026 26.3371 70.1802 26.5371 68.725 26.5371C66.419 26.5571 52.5381 25.1969 51.9784 25.2969L51.3963 25.3169C51.1724 25.3969 50.568 25.657 50.2993 25.797C49.5829 26.1771 47.456 26.4771 46.5828 26.5371C44.9485 26.6172 42.9111 26.2771 42.2395 25.917C41.5902 26.037 40.8514 26.1771 40.3141 26.1571C39.7991 26.3371 38.3886 26.7172 38.3886 26.7172C38.3886 26.7172 36.7095 27.3973 35.9035 27.2973C35.7468 27.2773 35.5229 27.0973 35.4782 26.9772C35.0752 27.0973 34.6274 27.1773 34.3363 27.1373C33.911 27.0773 33.7542 26.9172 33.7095 26.7772C33.5304 26.7172 33.3289 26.5972 33.2617 26.4171C33.1274 25.977 35.4558 25.2969 35.4558 25.2969C35.4558 25.2969 36.2617 24.9368 37.6722 24.5567C38.4558 24.3567 39.1051 24.1966 39.6424 24.0366C40.4484 23.7565 41.4559 23.7565 41.8589 23.6165C42.3738 23.4365 47.2769 22.8364 50.2769 22.0162C51.4635 21.8961 53.6128 21.8361 55.4039 21.7161C56.7248 21.5161 64.3368 21.256 70.3593 21.096L76.6057 20.2158Z" fill="white"/>
<path opacity="0.4" d="M36.0602 27.5373C35.9931 27.5373 35.9259 27.5373 35.8587 27.5173C35.702 27.4973 35.5005 27.3773 35.3438 27.2373C34.896 27.3573 34.5378 27.3973 34.2692 27.3573C33.7766 27.2973 33.5751 27.0973 33.4856 26.9372C33.2393 26.8372 33.0602 26.6772 32.993 26.4771C32.8587 26.037 33.6423 25.5769 35.3438 25.0768C35.4781 25.0168 36.2617 24.6767 37.5826 24.3367C37.9409 24.2366 38.2767 24.1566 38.5901 24.0766C38.9483 23.9766 39.2618 23.8966 39.5528 23.8366C40.023 23.6765 40.5827 23.5965 41.0528 23.5365C41.3439 23.4965 41.6126 23.4565 41.7693 23.4165C41.9484 23.3565 42.5081 23.2564 43.6275 23.0764C45.4634 22.7763 48.2395 22.3362 50.1873 21.7961C50.2097 21.7961 50.2097 21.7961 50.2321 21.7961C50.9485 21.7161 52.0008 21.6761 53.0978 21.6161C53.859 21.5761 54.6202 21.5361 55.3591 21.4961C56.6576 21.296 63.7995 21.036 70.3369 20.8759C70.4713 20.8759 70.5832 20.9759 70.6056 21.096C70.6056 21.216 70.4936 21.316 70.3593 21.336C63.8219 21.5161 56.68 21.7761 55.4486 21.9562H55.4262C54.6874 21.9962 53.9038 22.0362 53.1426 22.0762C52.0456 22.1362 51.0157 22.1762 50.3217 22.2562C48.3515 22.7963 45.5529 23.2564 43.7171 23.5365C42.8439 23.6765 42.1051 23.7965 41.9484 23.8366C41.7469 23.8966 41.4558 23.9366 41.12 23.9766C40.6722 24.0366 40.1573 24.0966 39.7095 24.2566C39.3961 24.3367 39.0827 24.4167 38.7245 24.5167C38.411 24.5967 38.0752 24.6767 37.717 24.7768C36.3513 25.1368 35.5677 25.4969 35.5453 25.4969C35.5229 25.4969 35.5229 25.5169 35.5005 25.5169C34.5154 25.797 33.5975 26.1971 33.4856 26.3771C33.5303 26.4771 33.6647 26.5371 33.7542 26.5571C33.8438 26.5771 33.9109 26.6572 33.9109 26.7372C33.9109 26.7572 34.0005 26.8772 34.3139 26.9172C34.4707 26.9372 34.7841 26.9372 35.3438 26.7772C35.4781 26.7372 35.6125 26.7972 35.6572 26.9172C35.6796 26.9572 35.814 27.0572 35.8811 27.0772C36.4632 27.1573 37.7841 26.6972 38.2319 26.5171C38.2319 26.5171 38.2543 26.5171 38.2543 26.4971C38.2767 26.4971 39.6648 26.117 40.1573 25.937C40.1797 25.917 40.2245 25.917 40.2469 25.917C40.7842 25.937 41.5454 25.777 42.1275 25.6769C42.1947 25.6569 42.2618 25.677 42.3066 25.697C42.9335 26.037 44.9484 26.3771 46.4932 26.2971C47.344 26.2571 49.4261 25.937 50.0978 25.5969C50.3664 25.4569 50.9709 25.2169 51.2172 25.1168C51.2396 25.0968 51.2844 25.0968 51.3068 25.0968L51.8889 25.0768C52.2471 25.0368 54.1501 25.1968 58.6278 25.5769C62.7025 25.917 67.3369 26.3171 68.6354 26.3171C68.6578 26.3171 68.6578 26.3171 68.6802 26.3171C70.1354 26.3171 73.1579 26.117 75.0609 25.777C77.0534 25.4169 79.561 24.2166 80.0087 23.9966C80.1654 23.6965 80.1654 23.3965 80.0535 23.0764C79.5833 21.8761 77.3893 20.8159 76.4713 20.4358C70.8966 18.0553 67.5384 16.735 66.2174 16.415C64.5831 15.9949 61.8965 14.5946 59.7696 13.4743C58.6502 12.8942 57.3964 12.2341 57.1277 12.1941C56.9934 12.2141 56.8815 12.1341 56.8591 12.014C56.8367 11.894 56.9039 11.774 57.0606 11.734C57.3292 11.674 57.9113 11.954 60.0382 13.0743C62.0532 14.1145 64.7846 15.5548 66.3742 15.9549C67.7175 16.295 71.0981 17.6152 76.7176 20.0157C77.949 20.5359 80.0535 21.5961 80.5684 22.9164C80.7475 23.3765 80.7028 23.8166 80.4789 24.2566C80.4565 24.2967 80.4117 24.3367 80.3669 24.3567C80.255 24.4167 77.4788 25.817 75.1952 26.2171C73.1579 26.5771 70.1354 26.7572 68.7026 26.7572C68.6802 26.7572 68.6802 26.7572 68.6578 26.7572C67.3369 26.7572 62.7025 26.3571 58.6054 26.017C55.4934 25.757 52.2918 25.4769 51.9784 25.5169H51.956L51.4187 25.5369C51.1948 25.6369 50.6351 25.857 50.3888 25.977C49.6052 26.3771 47.4559 26.6972 46.5604 26.7372C44.926 26.8172 42.9559 26.4971 42.1723 26.117C41.6126 26.2171 40.8737 26.3571 40.3364 26.3571C39.8215 26.5371 38.6125 26.8572 38.4558 26.8972C38.2543 27.0172 36.911 27.5373 36.0602 27.5373Z" fill="black"/>
</g>
<g opacity="0.4">
<path opacity="0.4" d="M58.6503 21.5762C58.6279 21.5762 58.6055 21.5762 58.5831 21.5762C58.1801 21.4962 57.4189 21.4562 56.5458 21.3961C54.3965 21.2761 51.4412 21.1161 49.7845 20.1359C49.6725 20.0759 49.6278 19.9358 49.7173 19.8158C49.7845 19.7158 49.9412 19.6758 50.0755 19.7558C51.6427 20.676 54.5084 20.836 56.5906 20.936C57.5309 20.9961 58.2697 21.0361 58.7174 21.1161C58.8518 21.1361 58.9413 21.2761 58.8966 21.3961C58.8742 21.4962 58.7622 21.5762 58.6503 21.5762Z" fill="black"/>
</g>
<g opacity="0.4">
<path opacity="0.4" d="M35.4781 27.2173C35.411 27.2173 35.3438 27.1973 35.299 27.1573C35.2319 27.0973 35.2095 27.0173 35.2095 26.9173C35.2319 26.8172 35.2766 26.5172 37.7394 25.4169C37.7394 25.4169 37.7618 25.4169 37.7618 25.3969C37.7618 25.3969 38.8588 25.0569 40.2469 24.6768C41.635 24.3167 42.0379 24.1767 42.732 23.9566C42.8663 23.9166 43.0006 23.9766 43.0678 24.0966C43.1126 24.2167 43.0454 24.3367 42.9111 24.3967C42.217 24.6368 41.7917 24.7568 40.4036 25.1369C39.1051 25.4769 38.0976 25.797 37.9632 25.837C37.0453 26.2571 35.9707 26.7972 35.7468 27.0173C35.7468 27.0773 35.7244 27.1373 35.6796 27.1773C35.5901 27.1973 35.5229 27.2173 35.4781 27.2173Z" fill="black"/>
</g>
<g opacity="0.4">
<path opacity="0.4" d="M33.7095 27.0173C33.5752 27.0173 33.4856 26.9372 33.4632 26.8172C33.3961 26.3571 35.5006 25.5169 35.7693 25.4569C36.0155 25.3969 37.3588 24.9168 38.5454 24.4967C41.4335 23.4565 41.4783 23.4565 41.6126 23.4765C41.747 23.4965 41.8365 23.6165 41.8141 23.7366C41.7917 23.8366 41.6798 23.9166 41.5679 23.9166C41.344 23.9566 39.8887 24.4767 38.7469 24.8968C37.426 25.3769 36.1946 25.817 35.9036 25.877C35.411 25.997 34.1573 26.6372 33.9558 26.8372C33.9334 26.9172 33.8438 26.9772 33.7543 26.9972C33.7319 27.0173 33.7095 27.0173 33.7095 27.0173Z" fill="black"/>
</g>
</g>
<path d="M52.196 54.8C52.3773 54.8 52.5213 54.8587 52.628 54.976C52.7347 55.0827 52.788 55.2213 52.788 55.392V65.328C52.788 65.5307 52.724 65.696 52.596 65.824C52.468 65.9413 52.3133 66 52.132 66C52.036 66 51.94 65.984 51.844 65.952C51.748 65.9093 51.6733 65.856 51.62 65.792L44.772 56.736L45.092 56.544V65.408C45.092 65.5787 45.0333 65.7227 44.916 65.84C44.8093 65.9467 44.6653 66 44.484 66C44.3133 66 44.1747 65.9467 44.068 65.84C43.9613 65.7227 43.908 65.5787 43.908 65.408V55.44C43.908 55.248 43.9667 55.0933 44.084 54.976C44.212 54.8587 44.3613 54.8 44.532 54.8C44.628 54.8 44.724 54.8213 44.82 54.864C44.9267 54.896 45.0067 54.9493 45.06 55.024L51.812 63.952L51.604 64.208V55.392C51.604 55.2213 51.6573 55.0827 51.764 54.976C51.8813 54.8587 52.0253 54.8 52.196 54.8ZM62.1875 57.648C62.3688 57.648 62.5182 57.712 62.6355 57.84C62.7635 57.9573 62.8275 58.1067 62.8275 58.288V65.344C62.8275 65.5253 62.7635 65.68 62.6355 65.808C62.5182 65.936 62.3688 66 62.1875 66C61.9955 66 61.8408 65.936 61.7235 65.808C61.6062 65.68 61.5475 65.5253 61.5475 65.344V63.824L61.8515 63.792C61.8515 64.0267 61.7715 64.2827 61.6115 64.56C61.4515 64.8373 61.2328 65.0987 60.9555 65.344C60.6782 65.5787 60.3475 65.776 59.9635 65.936C59.5902 66.0853 59.1848 66.16 58.7475 66.16C58.0222 66.16 57.3715 65.9733 56.7955 65.6C56.2195 65.216 55.7608 64.6987 55.4195 64.048C55.0888 63.3973 54.9235 62.656 54.9235 61.824C54.9235 60.9813 55.0888 60.24 55.4195 59.6C55.7608 58.9493 56.2195 58.4427 56.7955 58.08C57.3715 57.7067 58.0115 57.52 58.7155 57.52C59.1742 57.52 59.6008 57.5947 59.9955 57.744C60.3902 57.8933 60.7315 58.096 61.0195 58.352C61.3182 58.608 61.5475 58.8907 61.7075 59.2C61.8782 59.5093 61.9635 59.8187 61.9635 60.128L61.5475 60.032V58.288C61.5475 58.1067 61.6062 57.9573 61.7235 57.84C61.8408 57.712 61.9955 57.648 62.1875 57.648ZM58.8915 64.976C59.4248 64.976 59.8942 64.8373 60.2995 64.56C60.7155 64.2827 61.0355 63.9093 61.2595 63.44C61.4942 62.96 61.6115 62.4213 61.6115 61.824C61.6115 61.2373 61.4942 60.7093 61.2595 60.24C61.0355 59.76 60.7155 59.3867 60.2995 59.12C59.8942 58.8427 59.4248 58.704 58.8915 58.704C58.3688 58.704 57.8995 58.8373 57.4835 59.104C57.0782 59.3707 56.7582 59.7387 56.5235 60.208C56.2888 60.6773 56.1715 61.216 56.1715 61.824C56.1715 62.4213 56.2835 62.96 56.5075 63.44C56.7422 63.9093 57.0622 64.2827 57.4675 64.56C57.8835 64.8373 58.3582 64.976 58.8915 64.976ZM59.1315 56.672C58.7582 56.672 58.4115 56.5973 58.0915 56.448C57.7822 56.288 57.5208 56.0747 57.3075 55.808C57.1048 55.5307 56.9715 55.2213 56.9075 54.88C56.8542 54.7093 56.8648 54.5707 56.9395 54.464C57.0248 54.3573 57.1422 54.304 57.2915 54.304C57.4515 54.304 57.5795 54.3467 57.6755 54.432C57.7715 54.5067 57.8568 54.6133 57.9315 54.752C58.0168 55.0507 58.1662 55.28 58.3795 55.44C58.5928 55.6 58.8435 55.68 59.1315 55.68C59.4302 55.68 59.6808 55.6 59.8835 55.44C60.0968 55.2693 60.2462 55.04 60.3315 54.752C60.4168 54.6133 60.5022 54.5067 60.5875 54.432C60.6835 54.3467 60.8168 54.304 60.9875 54.304C61.1368 54.304 61.2488 54.3573 61.3235 54.464C61.4088 54.5707 61.4248 54.704 61.3715 54.864C61.3075 55.2053 61.1688 55.5147 60.9555 55.792C60.7528 56.0587 60.4915 56.272 60.1715 56.432C59.8622 56.592 59.5155 56.672 59.1315 56.672ZM59.2435 54.496C59.1795 54.496 59.1102 54.48 59.0355 54.448C58.9715 54.4053 58.9075 54.3627 58.8435 54.32L57.4835 53.264C57.3662 53.1893 57.2755 53.1093 57.2115 53.024C57.1582 52.928 57.1315 52.8213 57.1315 52.704C57.1315 52.5227 57.1955 52.384 57.3235 52.288C57.4515 52.1813 57.5848 52.128 57.7235 52.128C57.8622 52.128 57.9795 52.16 58.0755 52.224C58.1715 52.288 58.2568 52.3573 58.3315 52.432L59.5155 53.792C59.6115 53.8987 59.6595 54.0053 59.6595 54.112C59.6595 54.2187 59.6222 54.3093 59.5475 54.384C59.4728 54.4587 59.3715 54.496 59.2435 54.496ZM69.1516 57.6C69.877 57.6 70.4636 57.7867 70.9116 58.16C71.3703 58.5227 71.6743 59.04 71.8236 59.712H71.5836L71.6956 59.424C71.8236 59.1253 72.0423 58.8373 72.3516 58.56C72.661 58.2827 73.0183 58.0533 73.4236 57.872C73.829 57.6907 74.2503 57.6 74.6876 57.6C75.3916 57.6 75.9463 57.7547 76.3516 58.064C76.757 58.3627 77.045 58.768 77.2156 59.28C77.397 59.7813 77.4876 60.3467 77.4876 60.976V65.344C77.4876 65.5253 77.4236 65.68 77.2956 65.808C77.1783 65.936 77.029 66 76.8476 66C76.6556 66 76.501 65.936 76.3836 65.808C76.2663 65.68 76.2076 65.5253 76.2076 65.344V61.008C76.2076 60.592 76.1436 60.2187 76.0156 59.888C75.8983 59.5467 75.701 59.28 75.4236 59.088C75.157 58.8853 74.789 58.784 74.3196 58.784C73.8823 58.784 73.4823 58.8853 73.1196 59.088C72.757 59.28 72.469 59.5467 72.2556 59.888C72.0423 60.2187 71.9356 60.592 71.9356 61.008V65.344C71.9356 65.5253 71.877 65.68 71.7596 65.808C71.6423 65.936 71.4876 66 71.2956 66C71.1143 66 70.9596 65.936 70.8316 65.808C70.7143 65.68 70.6556 65.5253 70.6556 65.344V60.96C70.6556 60.5547 70.597 60.192 70.4796 59.872C70.373 59.5413 70.1863 59.28 69.9196 59.088C69.653 58.8853 69.285 58.784 68.8156 58.784C68.389 58.784 67.9996 58.8853 67.6476 59.088C67.2956 59.28 67.013 59.5413 66.7996 59.872C66.5863 60.192 66.4796 60.5547 66.4796 60.96V65.344C66.4796 65.5253 66.4156 65.68 66.2876 65.808C66.1703 65.936 66.021 66 65.8396 66C65.6583 66 65.5036 65.936 65.3756 65.808C65.2583 65.68 65.1996 65.5253 65.1996 65.344V58.368C65.1996 58.1867 65.2583 58.0373 65.3756 57.92C65.5036 57.792 65.6583 57.728 65.8396 57.728C66.0316 57.728 66.1863 57.792 66.3036 57.92C66.421 58.0373 66.4796 58.1867 66.4796 58.368V59.584L66.1276 59.968C66.1703 59.6907 66.277 59.4133 66.4476 59.136C66.629 58.8587 66.8583 58.6027 67.1356 58.368C67.413 58.1333 67.7223 57.9467 68.0636 57.808C68.405 57.6693 68.7676 57.6 69.1516 57.6ZM88.2141 57.6C88.9395 57.6 89.5261 57.7867 89.9741 58.16C90.4328 58.5227 90.7368 59.04 90.8861 59.712H90.6461L90.7581 59.424C90.8861 59.1253 91.1048 58.8373 91.4141 58.56C91.7235 58.2827 92.0808 58.0533 92.4861 57.872C92.8915 57.6907 93.3128 57.6 93.7501 57.6C94.4541 57.6 95.0088 57.7547 95.4141 58.064C95.8195 58.3627 96.1075 58.768 96.2781 59.28C96.4595 59.7813 96.5501 60.3467 96.5501 60.976V65.344C96.5501 65.5253 96.4861 65.68 96.3581 65.808C96.2408 65.936 96.0915 66 95.9101 66C95.7181 66 95.5635 65.936 95.4461 65.808C95.3288 65.68 95.2701 65.5253 95.2701 65.344V61.008C95.2701 60.592 95.2061 60.2187 95.0781 59.888C94.9608 59.5467 94.7635 59.28 94.4861 59.088C94.2195 58.8853 93.8515 58.784 93.3821 58.784C92.9448 58.784 92.5448 58.8853 92.1821 59.088C91.8195 59.28 91.5315 59.5467 91.3181 59.888C91.1048 60.2187 90.9981 60.592 90.9981 61.008V65.344C90.9981 65.5253 90.9395 65.68 90.8221 65.808C90.7048 65.936 90.5501 66 90.3581 66C90.1768 66 90.0221 65.936 89.8941 65.808C89.7768 65.68 89.7181 65.5253 89.7181 65.344V60.96C89.7181 60.5547 89.6595 60.192 89.5421 59.872C89.4355 59.5413 89.2488 59.28 88.9821 59.088C88.7155 58.8853 88.3475 58.784 87.8781 58.784C87.4515 58.784 87.0621 58.8853 86.7101 59.088C86.3581 59.28 86.0755 59.5413 85.8621 59.872C85.6488 60.192 85.5421 60.5547 85.5421 60.96V65.344C85.5421 65.5253 85.4781 65.68 85.3501 65.808C85.2328 65.936 85.0835 66 84.9021 66C84.7208 66 84.5661 65.936 84.4381 65.808C84.3208 65.68 84.2621 65.5253 84.2621 65.344V58.368C84.2621 58.1867 84.3208 58.0373 84.4381 57.92C84.5661 57.792 84.7208 57.728 84.9021 57.728C85.0941 57.728 85.2488 57.792 85.3661 57.92C85.4835 58.0373 85.5421 58.1867 85.5421 58.368V59.584L85.1901 59.968C85.2328 59.6907 85.3395 59.4133 85.5101 59.136C85.6915 58.8587 85.9208 58.6027 86.1981 58.368C86.4755 58.1333 86.7848 57.9467 87.1261 57.808C87.4675 57.6693 87.8301 57.6 88.2141 57.6ZM106.774 61.84C106.774 62.672 106.588 63.4133 106.214 64.064C105.852 64.7147 105.356 65.2267 104.726 65.6C104.108 65.9733 103.409 66.16 102.63 66.16C101.852 66.16 101.148 65.9733 100.518 65.6C99.889 65.2267 99.3877 64.7147 99.0144 64.064C98.6517 63.4133 98.4704 62.672 98.4704 61.84C98.4704 61.008 98.6517 60.2667 99.0144 59.616C99.3877 58.9653 99.889 58.4533 100.518 58.08C101.148 57.7067 101.852 57.52 102.63 57.52C103.409 57.52 104.108 57.7067 104.726 58.08C105.356 58.4533 105.852 58.9653 106.214 59.616C106.588 60.2667 106.774 61.008 106.774 61.84ZM105.494 61.84C105.494 61.2213 105.366 60.6773 105.11 60.208C104.865 59.7387 104.524 59.3707 104.086 59.104C103.66 58.8373 103.174 58.704 102.63 58.704C102.086 58.704 101.596 58.8373 101.158 59.104C100.732 59.3707 100.39 59.7387 100.134 60.208C99.8784 60.6773 99.7504 61.2213 99.7504 61.84C99.7504 62.448 99.8784 62.9867 100.134 63.456C100.39 63.9253 100.732 64.2987 101.158 64.576C101.596 64.8427 102.086 64.976 102.63 64.976C103.174 64.976 103.66 64.8427 104.086 64.576C104.524 64.2987 104.865 63.9253 105.11 63.456C105.366 62.9867 105.494 62.448 105.494 61.84ZM102.614 68.448C102.358 68.448 102.166 68.3947 102.038 68.288C101.91 68.1813 101.846 68.016 101.846 67.792V67.568C101.846 67.344 101.916 67.1787 102.054 67.072C102.193 66.9653 102.385 66.912 102.63 66.912C102.897 66.912 103.094 66.9653 103.222 67.072C103.35 67.1787 103.414 67.344 103.414 67.568V67.792C103.414 68.016 103.345 68.1813 103.206 68.288C103.078 68.3947 102.881 68.448 102.614 68.448ZM109.932 65.344C109.932 65.5253 109.868 65.68 109.74 65.808C109.622 65.936 109.473 66 109.292 66C109.1 66 108.945 65.936 108.828 65.808C108.71 65.68 108.652 65.5253 108.652 65.344V58.24C108.652 58.0587 108.71 57.9093 108.828 57.792C108.956 57.664 109.11 57.6 109.292 57.6C109.473 57.6 109.622 57.664 109.74 57.792C109.868 57.9093 109.932 58.0587 109.932 58.24V65.344ZM109.292 56.528C109.025 56.528 108.828 56.4747 108.7 56.368C108.572 56.2613 108.508 56.096 108.508 55.872V55.648C108.508 55.424 108.577 55.2587 108.716 55.152C108.854 55.0453 109.052 54.992 109.308 54.992C109.564 54.992 109.756 55.0453 109.884 55.152C110.012 55.2587 110.076 55.424 110.076 55.648V55.872C110.076 56.096 110.006 56.2613 109.868 56.368C109.74 56.4747 109.548 56.528 109.292 56.528ZM116.317 57.776H120.077C120.248 57.776 120.386 57.8347 120.493 57.952C120.61 58.0693 120.669 58.208 120.669 58.368C120.669 58.5387 120.61 58.6827 120.493 58.8C120.386 58.9067 120.248 58.96 120.077 58.96H116.317C116.157 58.96 116.018 58.9013 115.901 58.784C115.784 58.6667 115.725 58.5227 115.725 58.352C115.725 58.192 115.784 58.0587 115.901 57.952C116.018 57.8347 116.157 57.776 116.317 57.776ZM117.997 55.6C118.178 55.6 118.328 55.664 118.445 55.792C118.562 55.9093 118.621 56.0587 118.621 56.24V63.968C118.621 64.224 118.658 64.416 118.733 64.544C118.808 64.672 118.904 64.7627 119.021 64.816C119.149 64.8587 119.272 64.88 119.389 64.88C119.496 64.88 119.586 64.864 119.661 64.832C119.746 64.7893 119.842 64.768 119.949 64.768C120.056 64.768 120.152 64.8213 120.237 64.928C120.333 65.024 120.381 65.152 120.381 65.312C120.381 65.504 120.269 65.6693 120.045 65.808C119.821 65.936 119.57 66 119.293 66C119.144 66 118.957 65.9893 118.733 65.968C118.52 65.9467 118.306 65.8773 118.093 65.76C117.88 65.6427 117.698 65.4507 117.549 65.184C117.41 64.9067 117.341 64.5227 117.341 64.032V56.24C117.341 56.0587 117.405 55.9093 117.533 55.792C117.661 55.664 117.816 55.6 117.997 55.6ZM128.642 57.728C128.834 57.728 128.988 57.792 129.106 57.92C129.223 58.0373 129.282 58.1867 129.282 58.368V62.736C129.282 63.8133 128.978 64.6507 128.37 65.248C127.772 65.8347 126.935 66.128 125.858 66.128C124.791 66.128 123.954 65.8347 123.346 65.248C122.748 64.6507 122.45 63.8133 122.45 62.736V58.368C122.45 58.1867 122.508 58.0373 122.626 57.92C122.754 57.792 122.908 57.728 123.09 57.728C123.282 57.728 123.436 57.792 123.554 57.92C123.671 58.0373 123.73 58.1867 123.73 58.368V62.736C123.73 63.4613 123.916 64.0107 124.29 64.384C124.663 64.7573 125.186 64.944 125.858 64.944C126.551 64.944 127.079 64.7573 127.442 64.384C127.815 64.0107 128.002 63.4613 128.002 62.736V58.368C128.002 58.1867 128.06 58.0373 128.178 57.92C128.306 57.792 128.46 57.728 128.642 57.728ZM128.53 58.832V57.728C129.01 57.728 129.372 57.6373 129.618 57.456C129.863 57.2747 129.986 56.9813 129.986 56.576C129.986 56.416 130.028 56.2667 130.114 56.128C130.21 55.9787 130.354 55.904 130.546 55.904C130.759 55.904 130.898 55.984 130.962 56.144C131.036 56.2933 131.074 56.4373 131.074 56.576C131.074 57.0027 130.978 57.3867 130.786 57.728C130.594 58.0693 130.311 58.3413 129.938 58.544C129.564 58.736 129.095 58.832 128.53 58.832ZM135.739 57.776H139.499C139.67 57.776 139.808 57.8347 139.915 57.952C140.032 58.0693 140.091 58.208 140.091 58.368C140.091 58.5387 140.032 58.6827 139.915 58.8C139.808 58.9067 139.67 58.96 139.499 58.96H135.739C135.579 58.96 135.44 58.9013 135.323 58.784C135.206 58.6667 135.147 58.5227 135.147 58.352C135.147 58.192 135.206 58.0587 135.323 57.952C135.44 57.8347 135.579 57.776 135.739 57.776ZM137.419 55.6C137.6 55.6 137.75 55.664 137.867 55.792C137.984 55.9093 138.043 56.0587 138.043 56.24V63.968C138.043 64.224 138.08 64.416 138.155 64.544C138.23 64.672 138.326 64.7627 138.443 64.816C138.571 64.8587 138.694 64.88 138.811 64.88C138.918 64.88 139.008 64.864 139.083 64.832C139.168 64.7893 139.264 64.768 139.371 64.768C139.478 64.768 139.574 64.8213 139.659 64.928C139.755 65.024 139.803 65.152 139.803 65.312C139.803 65.504 139.691 65.6693 139.467 65.808C139.243 65.936 138.992 66 138.715 66C138.566 66 138.379 65.9893 138.155 65.968C137.942 65.9467 137.728 65.8773 137.515 65.76C137.302 65.6427 137.12 65.4507 136.971 65.184C136.832 64.9067 136.763 64.5227 136.763 64.032V56.24C136.763 56.0587 136.827 55.9093 136.955 55.792C137.083 55.664 137.238 55.6 137.419 55.6ZM145.872 57.6C146.576 57.6 147.13 57.7547 147.536 58.064C147.952 58.3627 148.245 58.768 148.416 59.28C148.597 59.7813 148.688 60.3413 148.688 60.96V65.344C148.688 65.5253 148.624 65.68 148.496 65.808C148.378 65.936 148.229 66 148.048 66C147.866 66 147.712 65.936 147.584 65.808C147.466 65.68 147.408 65.5253 147.408 65.344V60.96C147.408 60.5547 147.349 60.192 147.232 59.872C147.114 59.5413 146.917 59.28 146.64 59.088C146.373 58.8853 146.005 58.784 145.536 58.784C145.098 58.784 144.698 58.8853 144.336 59.088C143.973 59.28 143.685 59.5413 143.472 59.872C143.258 60.192 143.152 60.5547 143.152 60.96V65.344C143.152 65.5253 143.088 65.68 142.96 65.808C142.842 65.936 142.693 66 142.512 66C142.33 66 142.176 65.936 142.048 65.808C141.93 65.68 141.872 65.5253 141.872 65.344V54.8C141.872 54.6187 141.93 54.4693 142.048 54.352C142.176 54.224 142.33 54.16 142.512 54.16C142.704 54.16 142.858 54.224 142.976 54.352C143.093 54.4693 143.152 54.6187 143.152 54.8V59.584L142.832 59.936C142.885 59.6587 143.002 59.3813 143.184 59.104C143.365 58.816 143.594 58.56 143.872 58.336C144.149 58.112 144.458 57.936 144.799 57.808C145.141 57.6693 145.498 57.6 145.872 57.6ZM154.883 66.16C154.03 66.16 153.283 65.9787 152.643 65.616C152.003 65.2533 151.502 64.7573 151.139 64.128C150.787 63.488 150.611 62.752 150.611 61.92C150.611 60.992 150.792 60.2027 151.155 59.552C151.528 58.8907 152.008 58.3893 152.595 58.048C153.192 57.696 153.822 57.52 154.483 57.52C154.974 57.52 155.448 57.6107 155.907 57.792C156.366 57.9733 156.771 58.24 157.123 58.592C157.475 58.9333 157.758 59.3493 157.971 59.84C158.184 60.32 158.296 60.8587 158.307 61.456C158.307 61.6267 158.243 61.7707 158.115 61.888C157.987 62.0053 157.838 62.064 157.667 62.064H151.347L151.059 60.96H157.219L156.963 61.184V60.832C156.92 60.3947 156.771 60.0213 156.515 59.712C156.27 59.392 155.966 59.1467 155.603 58.976C155.251 58.8053 154.878 58.72 154.483 58.72C154.163 58.72 153.843 58.7787 153.523 58.896C153.214 59.0027 152.931 59.184 152.675 59.44C152.43 59.6853 152.227 60.0053 152.067 60.4C151.918 60.7947 151.843 61.2693 151.843 61.824C151.843 62.4427 151.966 62.9867 152.211 63.456C152.467 63.9253 152.819 64.2987 153.267 64.576C153.715 64.8427 154.238 64.976 154.835 64.976C155.208 64.976 155.534 64.928 155.811 64.832C156.088 64.736 156.328 64.6187 156.531 64.48C156.734 64.3307 156.904 64.1813 157.043 64.032C157.182 63.936 157.315 63.888 157.443 63.888C157.603 63.888 157.731 63.9413 157.827 64.048C157.934 64.1547 157.987 64.2827 157.987 64.432C157.987 64.6133 157.902 64.7733 157.731 64.912C157.432 65.2427 157.027 65.536 156.515 65.792C156.003 66.0373 155.459 66.16 154.883 66.16ZM154.627 55.312L153.283 56.432C153.187 56.5173 153.102 56.5867 153.027 56.64C152.963 56.6827 152.867 56.704 152.739 56.704C152.643 56.704 152.563 56.6773 152.499 56.624C152.435 56.56 152.403 56.4907 152.403 56.416C152.403 56.352 152.414 56.2987 152.435 56.256C152.456 56.2027 152.494 56.1387 152.547 56.064L153.587 54.88C153.758 54.6667 153.987 54.56 154.275 54.56H154.643C154.792 54.56 154.91 54.5813 154.995 54.624C155.091 54.6667 155.182 54.752 155.267 54.88L156.259 56.064C156.323 56.128 156.36 56.1867 156.371 56.24C156.392 56.2933 156.403 56.3467 156.403 56.4C156.403 56.4747 156.371 56.544 156.307 56.608C156.254 56.672 156.174 56.704 156.067 56.704C155.95 56.704 155.854 56.6773 155.779 56.624C155.715 56.5707 155.63 56.5067 155.523 56.432L154.131 55.264L154.627 55.312ZM156.403 55.392C156.328 55.392 156.248 55.36 156.163 55.296C156.088 55.232 156.051 55.1467 156.051 55.04C156.051 54.9653 156.083 54.88 156.147 54.784L157.107 53.216C157.171 53.1093 157.256 53.008 157.363 52.912C157.47 52.816 157.598 52.768 157.747 52.768C157.96 52.768 158.12 52.8267 158.227 52.944C158.334 53.0507 158.387 53.1947 158.387 53.376C158.376 53.4613 158.355 53.5413 158.323 53.616C158.291 53.6907 158.243 53.7707 158.179 53.856L156.963 55.136C156.888 55.2213 156.798 55.2853 156.691 55.328C156.595 55.3707 156.499 55.392 156.403 55.392Z" fill="#4F46E5"/>
</svg>
