<svg width="303" height="105" viewBox="0 0 303 105" fill="none" xmlns="http://www.w3.org/2000/svg">
<path d="M84.3711 102V89.1152H86.1201L92.8877 99.2314V89.1152H94.5225V102H92.7734L86.0059 91.875V102H84.3711ZM103.285 100.849C102.699 101.347 102.134 101.698 101.589 101.903C101.05 102.108 100.47 102.211 99.8486 102.211C98.8232 102.211 98.0352 101.962 97.4844 101.464C96.9336 100.96 96.6582 100.318 96.6582 99.5391C96.6582 99.082 96.7607 98.666 96.9658 98.291C97.1768 97.9102 97.4492 97.6055 97.7832 97.377C98.123 97.1484 98.5039 96.9756 98.9258 96.8584C99.2363 96.7764 99.7051 96.6973 100.332 96.6211C101.609 96.4688 102.55 96.2871 103.153 96.0762C103.159 95.8594 103.162 95.7217 103.162 95.6631C103.162 95.0186 103.013 94.5645 102.714 94.3008C102.31 93.9434 101.709 93.7646 100.912 93.7646C100.168 93.7646 99.6172 93.8965 99.2598 94.1602C98.9082 94.418 98.6475 94.8779 98.4775 95.54L96.9307 95.3291C97.0713 94.667 97.3027 94.1338 97.625 93.7295C97.9473 93.3193 98.4131 93.0059 99.0225 92.7891C99.6318 92.5664 100.338 92.4551 101.141 92.4551C101.938 92.4551 102.585 92.5488 103.083 92.7363C103.581 92.9238 103.947 93.1611 104.182 93.4482C104.416 93.7295 104.58 94.0869 104.674 94.5205C104.727 94.79 104.753 95.2764 104.753 95.9795V98.0889C104.753 99.5596 104.785 100.491 104.85 100.884C104.92 101.271 105.055 101.643 105.254 102H103.602C103.438 101.672 103.332 101.288 103.285 100.849ZM103.153 97.3154C102.579 97.5498 101.718 97.749 100.569 97.9131C99.9189 98.0068 99.459 98.1123 99.1895 98.2295C98.9199 98.3467 98.7119 98.5195 98.5654 98.748C98.4189 98.9707 98.3457 99.2197 98.3457 99.4951C98.3457 99.917 98.5039 100.269 98.8203 100.55C99.1426 100.831 99.6113 100.972 100.227 100.972C100.836 100.972 101.378 100.84 101.853 100.576C102.327 100.307 102.676 99.9404 102.898 99.4775C103.068 99.1201 103.153 98.5928 103.153 97.8955V97.3154ZM102.679 89.1328H103.76C103.672 89.8652 103.402 90.4277 102.951 90.8203C102.506 91.2129 101.911 91.4092 101.167 91.4092C100.417 91.4092 99.8164 91.2158 99.3652 90.8291C98.9199 90.4365 98.6533 89.8711 98.5654 89.1328H99.6465C99.7285 89.5312 99.8896 89.8301 100.13 90.0293C100.376 90.2227 100.704 90.3193 101.114 90.3193C101.589 90.3193 101.946 90.2256 102.187 90.0381C102.433 89.8447 102.597 89.543 102.679 89.1328ZM102.178 88.4033H100.903L98.873 85.9424H100.991L102.178 88.4033ZM107.214 102V92.666H108.629V93.9756C108.922 93.5186 109.312 93.1523 109.798 92.877C110.284 92.5957 110.838 92.4551 111.459 92.4551C112.15 92.4551 112.716 92.5986 113.155 92.8857C113.601 93.1729 113.914 93.5742 114.096 94.0898C114.834 93 115.795 92.4551 116.979 92.4551C117.904 92.4551 118.616 92.7129 119.114 93.2285C119.612 93.7383 119.861 94.5264 119.861 95.5928V102H118.288V96.1201C118.288 95.4873 118.235 95.0332 118.13 94.7578C118.03 94.4766 117.846 94.251 117.576 94.0811C117.307 93.9111 116.99 93.8262 116.627 93.8262C115.971 93.8262 115.426 94.0459 114.992 94.4854C114.559 94.9189 114.342 95.6162 114.342 96.5771V102H112.76V95.9355C112.76 95.2324 112.631 94.7051 112.373 94.3535C112.115 94.002 111.693 93.8262 111.107 93.8262C110.662 93.8262 110.249 93.9434 109.868 94.1777C109.493 94.4121 109.221 94.7549 109.051 95.2061C108.881 95.6572 108.796 96.3076 108.796 97.1572V102H107.214ZM127.218 102V92.666H128.633V93.9756C128.926 93.5186 129.315 93.1523 129.802 92.877C130.288 92.5957 130.842 92.4551 131.463 92.4551C132.154 92.4551 132.72 92.5986 133.159 92.8857C133.604 93.1729 133.918 93.5742 134.1 94.0898C134.838 93 135.799 92.4551 136.982 92.4551C137.908 92.4551 138.62 92.7129 139.118 93.2285C139.616 93.7383 139.865 94.5264 139.865 95.5928V102H138.292V96.1201C138.292 95.4873 138.239 95.0332 138.134 94.7578C138.034 94.4766 137.85 94.251 137.58 94.0811C137.311 93.9111 136.994 93.8262 136.631 93.8262C135.975 93.8262 135.43 94.0459 134.996 94.4854C134.562 94.9189 134.346 95.6162 134.346 96.5771V102H132.764V95.9355C132.764 95.2324 132.635 94.7051 132.377 94.3535C132.119 94.002 131.697 93.8262 131.111 93.8262C130.666 93.8262 130.253 93.9434 129.872 94.1777C129.497 94.4121 129.225 94.7549 129.055 95.2061C128.885 95.6572 128.8 96.3076 128.8 97.1572V102H127.218ZM141.623 97.333C141.623 95.6045 142.104 94.3242 143.064 93.4922C143.867 92.8008 144.846 92.4551 146 92.4551C147.283 92.4551 148.332 92.877 149.146 93.7207C149.961 94.5586 150.368 95.7188 150.368 97.2012C150.368 98.4023 150.187 99.3486 149.823 100.04C149.466 100.726 148.941 101.259 148.25 101.64C147.564 102.021 146.814 102.211 146 102.211C144.693 102.211 143.636 101.792 142.827 100.954C142.024 100.116 141.623 98.9092 141.623 97.333ZM143.249 97.333C143.249 98.5283 143.51 99.4248 144.031 100.022C144.553 100.614 145.209 100.91 146 100.91C146.785 100.91 147.438 100.611 147.96 100.014C148.481 99.416 148.742 98.5049 148.742 97.2803C148.742 96.126 148.479 95.2529 147.951 94.6611C147.43 94.0635 146.779 93.7646 146 93.7646C145.209 93.7646 144.553 94.0605 144.031 94.6523C143.51 95.2441 143.249 96.1377 143.249 97.333ZM145.033 104.856V103.055H146.835V104.856H145.033ZM152.24 90.9346V89.1152H153.822V90.9346H152.24ZM152.24 102V92.666H153.822V102H152.24ZM164.703 100.585L164.932 101.982C164.486 102.076 164.088 102.123 163.736 102.123C163.162 102.123 162.717 102.032 162.4 101.851C162.084 101.669 161.861 101.432 161.732 101.139C161.604 100.84 161.539 100.216 161.539 99.2666V93.8965H160.379V92.666H161.539V90.3545L163.112 89.4053V92.666H164.703V93.8965H163.112V99.3545C163.112 99.8057 163.139 100.096 163.191 100.225C163.25 100.354 163.341 100.456 163.464 100.532C163.593 100.608 163.774 100.646 164.009 100.646C164.185 100.646 164.416 100.626 164.703 100.585ZM174.881 94.5029V92.666H176.577V94.1162C176.577 95.0361 176.472 95.6777 176.261 96.041C175.722 96.9785 174.898 97.5059 173.791 97.623V102H172.376V100.629C171.649 101.684 170.662 102.211 169.414 102.211C168.869 102.211 168.356 102.108 167.876 101.903C167.401 101.692 167.047 101.426 166.812 101.104C166.578 100.781 166.414 100.389 166.32 99.9258C166.256 99.6094 166.224 99.1172 166.224 98.4492V92.666H167.806V97.8428C167.806 98.6807 167.838 99.2373 167.902 99.5127C168.107 100.403 168.717 100.849 169.73 100.849C170.217 100.849 170.665 100.726 171.075 100.479C171.491 100.233 171.784 99.9023 171.954 99.4863C172.124 99.0703 172.209 98.4639 172.209 97.667V92.666H173.791V96.9551C174.535 96.8262 175.092 96.4775 175.461 95.9092C175.625 95.6631 175.707 95.1943 175.707 94.5029H174.881ZM186.781 100.585L187.01 101.982C186.564 102.076 186.166 102.123 185.814 102.123C185.24 102.123 184.795 102.032 184.479 101.851C184.162 101.669 183.939 101.432 183.811 101.139C183.682 100.84 183.617 100.216 183.617 99.2666V93.8965H182.457V92.666H183.617V90.3545L185.19 89.4053V92.666H186.781V93.8965H185.19V99.3545C185.19 99.8057 185.217 100.096 185.27 100.225C185.328 100.354 185.419 100.456 185.542 100.532C185.671 100.608 185.853 100.646 186.087 100.646C186.263 100.646 186.494 100.626 186.781 100.585ZM188.337 102V89.1152H189.919V93.7383C190.657 92.8828 191.589 92.4551 192.714 92.4551C193.405 92.4551 194.006 92.5928 194.516 92.8682C195.025 93.1377 195.389 93.5127 195.605 93.9932C195.828 94.4736 195.939 95.1709 195.939 96.085V102H194.357V96.085C194.357 95.2939 194.185 94.7197 193.839 94.3623C193.499 93.999 193.016 93.8174 192.389 93.8174C191.92 93.8174 191.478 93.9404 191.062 94.1865C190.651 94.4268 190.358 94.7549 190.183 95.1709C190.007 95.5869 189.919 96.1611 189.919 96.8936V102H188.337ZM204.746 98.9941L206.381 99.1963C206.123 100.151 205.646 100.893 204.948 101.42C204.251 101.947 203.36 102.211 202.276 102.211C200.911 102.211 199.827 101.792 199.024 100.954C198.228 100.11 197.829 98.9297 197.829 97.4121C197.829 95.8418 198.233 94.623 199.042 93.7559C199.851 92.8887 200.899 92.4551 202.188 92.4551C203.437 92.4551 204.456 92.8799 205.247 93.7295C206.038 94.5791 206.434 95.7744 206.434 97.3154C206.434 97.4092 206.431 97.5498 206.425 97.7373H199.464C199.522 98.7627 199.812 99.5479 200.334 100.093C200.855 100.638 201.506 100.91 202.285 100.91C202.865 100.91 203.36 100.758 203.771 100.453C204.181 100.148 204.506 99.6621 204.746 98.9941ZM199.552 96.4365H204.764C204.693 95.6514 204.494 95.0625 204.166 94.6699C203.662 94.0605 203.009 93.7559 202.206 93.7559C201.479 93.7559 200.867 93.999 200.369 94.4854C199.877 94.9717 199.604 95.6221 199.552 96.4365ZM202.153 90.0117L201.16 91.5059H199.35L201.248 89.0449H202.936L204.913 91.5059H203.12L202.153 90.0117ZM202.435 85.9424H204.553L202.522 88.4033H201.248L202.435 85.9424Z" fill="#20315C"/>
<g clip-path="url(#clip0_139_926)">
<path d="M291.945 66.8327H10.381C7.50893 66.8327 5.16504 64.4602 5.16504 61.5529V42.94C5.16504 40.0327 7.50893 37.6602 10.381 37.6602H291.945C294.817 37.6602 297.161 40.0327 297.161 42.94V61.5529C297.161 64.4602 294.817 66.8327 291.945 66.8327Z" fill="#4B80FB" stroke="black" stroke-miterlimit="10"/>
<path d="M28.2407 37.6602V66.8327" stroke="black" stroke-miterlimit="10"/>
<path d="M49.4351 37.6602V66.8327" stroke="black" stroke-miterlimit="10"/>
<path d="M76.1089 42.5056V66.8328" stroke="black" stroke-miterlimit="10"/>
<path d="M100.935 40.1665V66.8328" stroke="black" stroke-miterlimit="10"/>
<path d="M127.08 37.4932V66.8328" stroke="black" stroke-miterlimit="10"/>
<path d="M151.146 37.7271V66.8328" stroke="black" stroke-miterlimit="10"/>
<path d="M180.528 37.7271V66.8328" stroke="black" stroke-miterlimit="10"/>
<path d="M213.177 37.5601V66.8329" stroke="black" stroke-miterlimit="10"/>
<path d="M246.982 37.6602V66.8327" stroke="black" stroke-miterlimit="10"/>
<path d="M277.089 37.7271V66.8328" stroke="black" stroke-miterlimit="10"/>
<path d="M58.0179 38.2618C58.0179 37.4932 57.7208 36.8917 57.4897 36.2234C56.8295 34.6862 55.443 32.8818 51.2504 31.9795C49.4347 31.5785 44.8789 31.1441 42.337 31.0439C38.5405 30.9102 30.9807 30.9102 27.1842 31.0439C24.6423 31.1441 20.1195 31.5785 18.2708 31.9795C14.1113 32.8818 12.7247 34.6528 12.0315 36.2234C11.8004 36.9252 11.5033 37.5266 11.5033 38.2618C11.5033 38.2618 10.909 42.5057 15.6628 42.5057H15.8939H53.5282H53.7593C58.6122 42.5057 58.0179 38.2618 58.0179 38.2618Z" fill="#FFEA9D" stroke="black" stroke-miterlimit="10"/>
<path d="M36.0646 38.9301C42.1389 37.8608 44.4167 36.2902 46.3315 35.2877C51.7125 32.3137 57.6548 35.1206 59.0413 36.7581V36.7246C62.3425 40.1331 70.8598 42.6728 79.9052 42.6728C89.3138 42.6728 100.802 39.4314 111.762 37.7271C114.7 37.2593 117.672 37.8942 120.181 39.4314C124.076 41.8039 131.966 44.7112 139.46 44.3102C143.95 44.0763 148.142 43.0738 150.882 40.3002C151.972 39.1975 153.391 38.5291 154.91 38.4289C166.86 37.6603 199.972 35.7556 199.972 35.7556C199.972 35.7556 204.99 36.6578 205.023 36.6578C206.112 37.0588 214.101 40.0997 221.43 40.0997C225.953 40.0997 236.12 37.9945 239.323 37.4264C243.581 36.6578 253.419 36.3571 257.711 36.9585C259.824 37.2593 263.851 38.596 264.577 38.997C265.436 39.4982 271.84 40.7012 271.642 34.3521C271.543 31.9461 271.411 30.9102 271.345 28.6044C271.279 26.5326 271.411 22.4892 271.411 22.389C271.411 22.389 271.807 20.3172 271.642 17.3097C271.51 15.2378 271.576 13.166 271.84 11.0942C271.972 10.0583 272.005 8.95555 271.741 8.15356C271.444 7.2179 268.935 6.31565 268.935 8.01989C268.935 9.75755 268.275 12.3974 267.945 13.0658C267.581 13.8009 265.535 17.7107 263.092 22.389C262.861 22.8234 262.63 23.2244 262.398 23.6588C260.781 26.6329 257.579 28.3037 254.244 27.9695C241.832 26.6663 211.823 23.5251 207.135 23.2244C203.999 21.2528 200.401 20.6847 198.321 20.7181C196.241 20.7516 175.741 15.6054 151.443 15.4718C144.544 12.0967 123.053 11.963 113.149 12.8653C108.989 11.9296 96.3785 12.5645 94.7609 12.364C79.7402 10.593 66.7332 17.7441 62.4746 20.4174C62.4086 20.4508 62.3425 20.5176 62.2765 20.5511C60.5269 21.4867 54.5516 20.8518 51.5475 20.6513L51.5805 20.5845C51.8776 19.0473 52.0426 17.4433 52.0096 16.5745C51.9766 15.5386 50.9862 14.369 49.8308 14.2019C48.7414 14.0349 43.5254 13.8678 43.1953 13.8678C43.1293 13.6004 42.502 10.8603 41.6767 11.3615C40.2902 12.1301 36.3617 13.8344 36.0646 13.968C35.3053 14.0014 32.8624 14.2354 32.0701 14.2688C24.2131 14.7032 20.8128 22.79 22.3314 29.3396C23.8499 35.8892 27.7124 40.4004 36.0646 38.9301Z" fill="#C2D5FF"/>
<path d="M138.007 44.7445C131.174 44.7445 123.977 42.2382 119.949 39.7988C117.474 38.2951 114.568 37.6936 111.762 38.128C108.131 38.6961 104.401 39.4313 100.802 40.1664C93.2753 41.6702 86.1776 43.0736 79.8722 43.0736C71.0249 43.0736 62.4416 40.6342 58.8763 37.1589C58.8102 37.1255 58.7442 37.0921 58.7112 37.0587C57.4237 35.5215 51.7456 32.7814 46.4966 35.6552C46.2325 35.7889 46.0014 35.9225 45.7373 36.0562C43.9546 37.0587 41.4787 38.3953 36.1306 39.331L36.0646 38.9634L36.1306 39.331C28.5377 40.6342 23.7839 37.326 21.9683 29.4732C21.0439 25.53 21.9022 21.2193 24.1471 18.1784C26.0618 15.6053 28.8018 14.135 32.0371 13.9679C32.3672 13.9345 33.0275 13.9011 33.7207 13.8342C34.6121 13.7674 35.5034 13.6672 35.9656 13.6672C36.0646 13.6337 36.2297 13.5669 36.4277 13.4667C37.6162 12.932 40.3892 11.729 41.4787 11.1275C41.7098 10.9938 41.9408 10.9938 42.1719 11.0941C42.8652 11.3948 43.2944 12.7983 43.4924 13.6003C44.6479 13.6337 48.8735 13.8008 49.8638 13.9345C51.1513 14.135 52.3068 15.4048 52.3728 16.6746C52.4058 17.5101 52.2407 18.9804 52.0097 20.4173C52.3398 20.4507 52.6699 20.4507 53.0331 20.4841C56.0702 20.718 60.692 21.0522 62.0785 20.317L62.2766 20.1834C66.007 17.8108 79.4431 10.2253 94.8269 12.0632C95.3221 12.13 96.9397 12.0966 99.0195 12.0632C103.509 11.9963 110.277 11.9295 113.215 12.5644C122.921 11.6622 144.478 11.7624 151.575 15.1709C170.228 15.2712 186.404 18.2786 194.162 19.7155C196.34 20.1165 197.925 20.4173 198.354 20.4173C198.387 20.4173 198.42 20.4173 198.486 20.4173C200.797 20.4173 204.263 21.0856 207.301 22.9569C212.253 23.3245 241.799 26.3988 254.311 27.7021C257.48 28.0362 260.55 26.4323 262.101 23.5919C262.333 23.1574 262.564 22.7564 262.795 22.322C264.941 18.2118 267.284 13.7674 267.648 12.9988C267.978 12.3305 268.605 9.75744 268.605 8.12003C268.605 7.38487 269.001 6.88362 269.661 6.78337C270.619 6.61629 271.873 7.31804 272.137 8.12003C272.368 8.88861 272.434 9.92452 272.269 11.2278C272.005 13.2328 271.939 15.3046 272.071 17.3764C272.236 20.2168 271.906 22.2218 271.84 22.5225C271.84 22.5894 271.84 22.723 271.84 22.9235C271.807 24.0597 271.741 27.0338 271.774 28.7046C271.807 29.8741 271.873 30.6761 271.906 31.545C271.972 32.3804 272.005 33.2492 272.071 34.4188C272.137 36.6911 271.444 38.2617 269.991 39.1639C267.945 40.4003 265.106 39.7654 264.478 39.3978C263.818 38.9968 259.824 37.6936 257.744 37.3929C253.617 36.7914 243.879 37.0587 239.488 37.8273C238.96 37.9275 238.299 38.0612 237.474 38.1948C233.249 38.9968 225.359 40.5006 221.529 40.5006C216.94 40.5006 211.097 39.2976 205.122 37.0921L205.023 37.0587C204.759 37.0253 203.834 36.8582 200.038 36.1564C198.651 36.2233 166.596 38.0946 155.009 38.8298C153.622 38.93 152.269 39.5315 151.212 40.6008C148.736 43.0737 144.907 44.4437 139.526 44.7445C138.998 44.7111 138.503 44.7445 138.007 44.7445ZM113.611 37.1924C115.955 37.1924 118.299 37.8607 120.346 39.0971C124.571 41.6702 132.329 44.2766 139.427 43.9091C144.61 43.6417 148.274 42.3385 150.618 39.9993C151.807 38.8298 153.325 38.0946 154.91 37.9943C166.728 37.2592 199.642 35.3544 200.005 35.321C200.038 35.321 200.071 35.321 200.104 35.321C202.052 35.6552 204.957 36.1899 205.122 36.2233C205.155 36.2233 205.188 36.2233 205.188 36.2567L205.32 36.3235C211.196 38.4956 216.94 39.6986 221.463 39.6986C225.226 39.6986 233.05 38.1948 237.276 37.3929C238.101 37.2258 238.795 37.0921 239.29 37.0253C243.78 36.2233 253.617 35.9559 257.81 36.5574C259.857 36.8582 264.016 38.1614 264.808 38.6627C265.271 38.93 267.813 39.4981 269.562 38.4288C270.784 37.6936 271.345 36.3235 271.279 34.352C271.246 33.1824 271.18 32.3135 271.114 31.4781C271.048 30.6093 271.015 29.7739 270.982 28.6043C270.916 26.9001 271.015 23.926 271.048 22.7899C271.048 22.5559 271.048 22.3889 271.048 22.3889C271.048 22.3554 271.048 22.322 271.048 22.322C271.048 22.2886 271.444 20.2502 271.246 17.343C271.114 15.2377 271.18 13.1325 271.444 11.0607C271.609 9.85769 271.576 8.92203 271.345 8.28711C271.213 7.88612 270.289 7.35145 269.694 7.4517C269.496 7.48512 269.265 7.58537 269.265 8.0532C269.265 9.82427 268.605 12.531 268.242 13.2662C267.912 13.9679 266.129 17.3764 263.356 22.5894C263.125 23.0238 262.894 23.4248 262.663 23.8592C260.979 26.9669 257.645 28.7046 254.145 28.337C241.535 27.0003 211.724 23.8926 207.07 23.5919C207.004 23.5919 206.938 23.5584 206.904 23.525C203.933 21.6871 200.434 21.0522 198.288 21.0522C197.76 21.0522 196.34 20.7849 193.964 20.3505C186.206 18.9135 170.029 15.9061 151.41 15.8058C151.344 15.8058 151.311 15.8058 151.245 15.7724C144.412 12.4308 122.855 12.3639 113.215 13.2662C113.182 13.2662 113.149 13.2662 113.116 13.2662C110.31 12.6313 103.542 12.7315 99.0525 12.7983C96.8737 12.8318 95.3221 12.8318 94.7609 12.7983C79.6081 10.9938 66.4031 18.4791 62.7057 20.8183L62.5076 20.952C60.89 21.8208 56.3343 21.4866 53.0331 21.2193C52.5049 21.1859 52.0097 21.1525 51.5805 21.119C51.4485 21.119 51.3494 21.0522 51.2834 20.952C51.2174 20.8517 51.2174 20.718 51.2504 20.6178V20.5844C51.5475 19.114 51.7125 17.5101 51.6795 16.6746C51.6465 15.8392 50.8542 14.8033 49.7978 14.6697C48.9065 14.536 45.11 14.4023 43.1953 14.3355C43.0303 14.3355 42.8652 14.2018 42.8322 14.0347C42.5351 12.6647 42.0729 11.7958 41.8748 11.7624C40.7194 12.3973 37.9463 13.6337 36.7249 14.1684C36.4277 14.3021 36.2627 14.3689 36.1967 14.4023C36.1636 14.3689 36.1306 14.3689 36.0646 14.3689C35.6354 14.3689 34.6451 14.4692 33.7867 14.536C33.0935 14.6028 32.4332 14.6362 32.1031 14.6697C29.0659 14.8367 26.524 16.2068 24.7743 18.5794C22.6615 21.4532 21.8692 25.53 22.7275 29.2727C24.4772 36.7579 28.8018 39.7988 36.0316 38.529C41.2476 37.6268 43.6575 36.2901 45.4072 35.321C45.6713 35.1874 45.9354 35.0203 46.1664 34.8866C51.6135 31.8791 57.5558 34.6193 59.1734 36.3235C59.2064 36.3569 59.2724 36.3569 59.3054 36.4238C62.6397 39.8657 71.0909 42.2717 79.9053 42.2717C86.1446 42.2717 93.2093 40.8682 100.703 39.3644C104.335 38.6293 108.065 37.8941 111.696 37.326C112.291 37.2592 112.951 37.1924 113.611 37.1924Z" fill="black"/>
<path d="M70.8926 38.8298C75.5804 38.6961 103.212 36.925 105.325 37.2926C107.47 37.6936 113.05 38.0278 116.912 38.0278C120.775 38.0278 143.058 36.9919 144.015 37.1589L145.006 37.1924C145.369 37.3594 146.392 37.8273 146.854 38.0946C148.076 38.7964 151.608 39.3644 153.061 39.4647C155.801 39.6318 159.168 38.93 160.291 38.2617C161.38 38.4956 162.634 38.7295 163.526 38.6961C164.384 39.0303 166.728 39.732 166.728 39.732C166.728 39.732 169.567 41.0018 170.888 40.8013C171.152 40.7679 171.548 40.4338 171.614 40.1998C172.307 40.4003 173.033 40.5674 173.529 40.4672C174.255 40.3669 174.519 40.0328 174.552 39.7988C174.849 39.6986 175.179 39.4647 175.278 39.1305C175.509 38.2951 171.482 37.4263 171.482 37.4263C171.482 37.4263 169.765 36.8582 167.388 36.1899C166.101 35.8223 165.011 35.5215 164.087 35.2542C162.766 34.753 161.545 34.2183 160.852 33.9844C159.993 33.6502 151.773 32.5475 146.788 31.0437C144.775 30.8098 141.242 30.7096 138.205 30.5091C135.696 30.0747 111.96 28.2368 107.801 27.8692C103.674 27.5016 82.513 26.6328 78.4855 25.8976C74.4579 25.1624 73.8637 24.1934 73.8637 24.1934L70.8926 38.8298Z" fill="#C2D5FF"/>
<path d="M170.624 41.2023C169.204 41.2023 166.893 40.1998 166.629 40.0996C166.365 40.0327 164.351 39.3978 163.493 39.0971C162.635 39.0971 161.578 38.93 160.39 38.6627C159.102 39.3644 155.801 39.9993 153.061 39.8322C151.576 39.7654 147.977 39.1639 146.69 38.4288C146.294 38.1948 145.336 37.7604 144.94 37.5933L144.049 37.5599C144.016 37.5599 144.016 37.5599 143.983 37.5599C143.454 37.4597 136.423 37.7604 130.216 37.9943C124.637 38.2283 118.827 38.4288 116.978 38.4288H116.945C112.918 38.4288 107.372 38.0612 105.292 37.6602C103.872 37.3928 90.0402 38.1614 80.8627 38.6627C76.34 38.93 72.4115 39.1305 70.9259 39.1639C70.6948 39.1639 70.5628 38.9968 70.5298 38.7963C70.5298 38.5958 70.6948 38.4288 70.8929 38.3953C72.3785 38.3619 76.307 38.128 80.8297 37.8941C93.4735 37.1923 104.038 36.6243 105.424 36.8916C107.471 37.2592 112.951 37.6268 116.945 37.6268H116.978C118.827 37.6268 124.571 37.3928 130.183 37.1923C138.338 36.8582 143.388 36.6911 144.082 36.7579L145.039 36.7913C145.072 36.7913 145.138 36.7913 145.171 36.8248C145.567 36.9918 146.591 37.4597 147.053 37.727C148.175 38.3953 151.675 38.9634 153.094 39.0303C155.735 39.1639 159.036 38.529 160.126 37.8941C160.192 37.8607 160.291 37.8273 160.39 37.8607C161.347 38.0612 162.635 38.3285 163.526 38.2951C163.559 38.2951 163.625 38.2951 163.658 38.3285C164.516 38.6627 166.827 39.3644 166.86 39.3644H166.893C167.653 39.6986 169.831 40.5674 170.855 40.4003C170.954 40.3669 171.218 40.1664 171.284 40.0662C171.35 39.8657 171.548 39.7654 171.746 39.8322C172.704 40.133 173.232 40.133 173.496 40.0996C174.057 40.0327 174.189 39.7988 174.222 39.732C174.255 39.5983 174.321 39.4981 174.453 39.4312C174.651 39.3644 174.882 39.2308 174.948 39.0303C174.717 38.6961 173.133 38.128 171.449 37.7604H171.416C171.383 37.7604 169.666 37.1923 167.356 36.524C166.761 36.3569 166.167 36.1899 165.672 36.0228C165.078 35.8557 164.549 35.6886 164.054 35.5549C163.295 35.2542 162.602 34.9869 162.008 34.7529C161.545 34.5524 161.116 34.3854 160.819 34.2851C160.555 34.1849 159.3 33.9844 157.881 33.717C154.778 33.1824 150.123 32.347 146.822 31.3445C145.633 31.2108 143.917 31.1106 142.101 31.0437C140.846 30.9769 139.526 30.9101 138.305 30.8432H138.272C136.423 30.5425 122.492 29.4063 114.205 28.738C111.3 28.5041 108.956 28.3036 107.933 28.2367C106.546 28.1031 103.146 27.936 99.2507 27.7355C91.2617 27.3011 81.2919 26.7664 78.5848 26.2652C74.5903 25.53 73.831 24.5609 73.699 24.3938C73.6 24.2268 73.633 23.9929 73.831 23.8592C73.9961 23.7589 74.2272 23.7924 74.3592 23.9929C74.3592 23.9929 75.0525 24.8617 78.7499 25.53C81.3909 26.0313 91.7568 26.5659 99.3167 27.0003C103.245 27.2008 106.612 27.4013 108.032 27.5016C109.088 27.6018 111.399 27.7689 114.304 28.0028C123.152 28.7046 136.489 29.8073 138.437 30.1415C139.658 30.2417 140.946 30.3086 142.2 30.342C144.049 30.4422 145.798 30.5091 147.02 30.6761C147.053 30.6761 147.053 30.6761 147.086 30.6761C150.354 31.6786 155.009 32.4806 158.079 33.0487C159.895 33.3495 160.852 33.55 161.149 33.6502C161.446 33.7839 161.875 33.951 162.371 34.118C162.965 34.3519 163.658 34.6527 164.384 34.92C164.847 35.0537 165.375 35.1874 165.969 35.3544C166.497 35.4881 167.058 35.6552 167.686 35.8557C169.898 36.4906 171.581 37.0253 171.746 37.0921C172.572 37.2592 175.246 37.9275 175.741 38.7295C175.873 38.9634 175.84 39.1305 175.807 39.2642C175.708 39.6317 175.411 39.9325 175.014 40.133C174.882 40.4003 174.585 40.7679 173.727 40.9016C173.265 40.9684 172.671 40.9016 171.911 40.7011C171.68 40.9684 171.35 41.1689 171.086 41.2357C170.855 41.2023 170.723 41.2023 170.624 41.2023Z" fill="black"/>
<path d="M171.614 40.6009C171.581 40.6009 171.548 40.6009 171.515 40.6009C171.35 40.5675 171.251 40.4338 171.218 40.2667C170.921 39.8991 168.907 38.8298 167.158 37.9944C166.96 37.9276 165.243 37.3261 163.064 36.6912C160.819 36.0228 160.423 35.9226 159.202 35.4548C159.004 35.3879 158.905 35.154 158.971 34.9535C159.037 34.753 159.268 34.6528 159.466 34.7196C160.621 35.154 160.951 35.2543 163.262 35.9226C165.606 36.5909 167.389 37.2258 167.422 37.2258H167.455C172.143 39.3979 172.011 39.9326 171.945 40.2333C171.945 40.4672 171.779 40.6009 171.614 40.6009Z" fill="black"/>
<path d="M174.552 40.1998C174.519 40.1998 174.519 40.1998 174.486 40.1998C174.354 40.1664 174.222 40.0661 174.189 39.9325C173.826 39.5649 171.449 38.3285 170.591 38.0946C170.096 37.9609 168.874 37.4262 167.719 36.925C166.86 36.5574 165.837 36.0896 165.573 36.0227C165.408 36.0227 165.243 35.8891 165.21 35.722C165.177 35.5215 165.309 35.321 165.507 35.2876C165.738 35.2542 166.035 35.3544 168.016 36.2566C169.105 36.7245 170.327 37.2926 170.756 37.3928C171.119 37.4931 175.014 39.0636 174.915 39.899C174.915 40.0661 174.75 40.1998 174.552 40.1998Z" fill="black"/>
<path d="M37.9138 31.2443C36.5273 31.2443 35.3719 30.7096 34.9757 29.774C34.5466 28.7715 35.0087 27.5685 36.1972 26.5994C36.3622 26.4657 36.5933 26.4991 36.7254 26.6662C36.8574 26.8333 36.8244 27.0672 36.6594 27.2009C35.768 27.9361 35.3719 28.8383 35.669 29.5066C36.1312 30.576 38.1119 30.8433 39.9606 30.1415C41.1821 29.6737 42.1725 28.8717 42.5026 28.0363C42.6676 27.6353 42.6676 27.2677 42.5356 26.967C42.4696 26.8333 42.3705 26.6662 42.2385 26.566C42.0734 26.4323 42.0734 26.1984 42.2385 26.0313C42.3705 25.8642 42.6016 25.8642 42.7667 26.0313C42.9648 26.2318 43.1298 26.4323 43.2289 26.6662C43.4599 27.1675 43.4269 27.769 43.1958 28.3371C42.7667 29.373 41.6443 30.3086 40.2247 30.8767C39.4324 31.1106 38.6401 31.2443 37.9138 31.2443Z" fill="black"/>
<g opacity="0.4">
<path opacity="0.4" d="M275.208 36.2902C275.109 34.4857 272.765 33.1824 264.71 33.4164C264.71 33.4164 255.334 33.0488 254.74 32.9819C254.113 32.8483 244.638 31.946 243.912 31.7121L241.865 30.9769C235.098 28.4707 225.623 23.5919 219.912 22.6228C212.451 21.353 204.594 21.9879 204.594 21.9879C204.594 21.9879 185.546 11.3615 171.482 7.75251C164.715 6.01485 160.456 5.14603 143.62 5.14603C128.962 5.14603 124.605 8.15351 120.412 8.15351C112.06 8.15351 95.8508 3.8762 86.8713 3.10762C68.4834 -5.78116 68.5164 9.62383 67.394 13.7006C66.8327 15.739 65.6773 19.3814 60.9235 20.6513C59.8011 20.952 53.7268 20.551 51.647 20.7849V33.8842L64.3898 35.5216C66.3706 36.8582 67.0308 38.5959 67.427 39.9994C68.5494 44.0762 69.1766 49.9241 81.6884 48.8213C90.6678 48.0193 112.093 46.5156 120.445 46.5156C124.605 46.5156 128.995 49.0553 143.653 49.5231C148.275 49.6567 150.024 49.8573 156.033 49.6568C172.77 49.0887 197.43 47.6518 202.646 47.351C205.023 47.5849 214.135 48.5206 217.469 48.5206C225.194 48.5874 246.058 46.6159 251.901 46.0478C252.693 45.9809 253.519 46.0144 254.278 46.1814C254.509 46.2483 254.839 46.2817 255.202 46.3485C255.532 46.3819 256.655 46.2483 257.051 46.2817C261.937 46.8832 270.025 47.9859 270.124 47.9859C280.325 48.9884 280.325 47.1839 281.579 44.4104C282.603 42.0712 288.248 34.2852 275.208 36.2902Z" fill="white"/>
<path opacity="0.4" d="M151.51 50.0912C149.628 50.0912 148.175 50.0243 146.426 49.9575C145.567 49.9241 144.643 49.8907 143.587 49.8573C134.277 49.5565 128.962 48.4204 125.463 47.6518C123.383 47.184 121.864 46.8498 120.379 46.8498C112.258 46.8498 91.1627 48.3535 81.6551 49.1555C69.6716 50.1914 68.252 44.8114 67.1956 40.9017C67.1296 40.6343 67.0636 40.3336 66.9646 40.0662C66.5684 38.6628 65.9412 37.0922 64.1585 35.8224L51.5147 34.2184C51.3166 34.1849 51.1846 34.0179 51.1846 33.8508V20.7515C51.1846 20.551 51.3166 20.3839 51.5147 20.3839C52.5381 20.2837 54.4198 20.3171 56.2685 20.3505C58.2162 20.3839 60.197 20.4174 60.7582 20.2837C65.446 19.0473 66.4694 15.3715 66.9646 13.6004C67.0966 13.0992 67.2287 12.4642 67.3607 11.6623C67.9879 8.25377 68.9123 3.07422 73.0719 0.93557C76.3071 -0.735253 80.9949 -0.133757 86.9371 2.74006C90.8326 3.07422 95.9496 4.0433 101.397 5.07921C108.428 6.41587 115.691 7.78594 120.379 7.78594C121.798 7.78594 123.284 7.41836 125.133 6.95053C128.665 6.0817 133.98 4.77846 143.554 4.77846C160.522 4.77846 164.814 5.68071 171.515 7.38495C184.951 10.8268 203.108 20.7515 204.627 21.5869C205.617 21.5201 212.979 21.0523 219.945 22.2553C223.741 22.9236 229.122 25.2293 234.338 27.5017C237.078 28.6712 239.653 29.8074 241.964 30.6762L244.011 31.378C244.407 31.5116 248.467 31.946 251.141 32.2134C253.287 32.4473 254.509 32.581 254.773 32.6144C255.202 32.6478 261.441 32.9151 264.677 33.0488C271.609 32.8817 274.977 33.7505 275.472 35.8892C279.829 35.2543 282.437 35.6887 283.494 37.1924C284.748 39.0303 283.263 41.8039 282.305 43.6418C282.107 44.0094 281.942 44.3435 281.81 44.5775C281.711 44.778 281.645 44.945 281.579 45.1455C280.391 47.8857 279.334 49.2892 269.992 48.3869C269.959 48.3869 269.628 48.3535 269.067 48.2533C266.822 47.9525 260.847 47.1505 256.919 46.6493C256.754 46.6159 256.357 46.6493 256.027 46.6827C255.631 46.7161 255.301 46.7161 255.103 46.7161C254.74 46.6827 254.41 46.6159 254.146 46.549C253.419 46.382 252.66 46.3485 251.868 46.4154C245.727 47.0169 225.095 48.9884 217.403 48.8882C214.101 48.8548 205.254 47.9859 202.58 47.7186C197.661 48.0194 172.77 49.4563 155.999 50.0243C154.184 50.0578 152.764 50.0912 151.51 50.0912ZM120.412 46.0812C121.963 46.0812 123.515 46.4154 125.628 46.8832C129.325 47.6852 134.343 48.7879 143.62 49.0887C144.709 49.1221 145.6 49.1555 146.459 49.1889C149.298 49.2892 151.378 49.3894 155.966 49.2224C172.77 48.6543 197.727 47.2174 202.58 46.9166C202.613 46.9166 202.613 46.9166 202.646 46.9166C205.287 47.1839 214.134 48.0528 217.436 48.0862C225.095 48.153 245.694 46.2149 251.835 45.6134C252.693 45.5131 253.551 45.58 254.344 45.747C254.608 45.8139 254.905 45.8473 255.235 45.8807C255.367 45.8807 255.73 45.8807 256.027 45.8473C256.456 45.8139 256.853 45.7805 257.084 45.8139C261.012 46.3151 266.987 47.1171 269.232 47.4179C269.761 47.4847 270.091 47.5181 270.124 47.5515C279.334 48.4538 279.961 47.0837 280.952 44.778C281.018 44.6109 281.117 44.4104 281.216 44.2099C281.348 43.9426 281.513 43.6084 281.711 43.2074C282.536 41.6368 283.956 38.9969 282.966 37.56C282.074 36.2902 279.499 35.9894 275.307 36.6243C275.208 36.6243 275.109 36.6243 275.01 36.5575C274.943 36.4907 274.877 36.3904 274.877 36.2902C274.778 34.4189 271.477 33.5835 264.776 33.7505C264.379 33.7505 255.334 33.3829 254.773 33.3161C254.509 33.2827 252.891 33.0822 251.174 32.9151C247.312 32.5141 244.308 32.18 243.879 32.0463L241.799 31.3111C239.455 30.4423 236.88 29.3061 234.14 28.1366C228.957 25.8977 223.609 23.5919 219.912 22.957C212.583 21.6872 204.759 22.3221 204.66 22.3221C204.594 22.3221 204.528 22.3221 204.462 22.2887C204.264 22.1884 185.314 11.6623 171.449 8.12011C164.814 6.41587 160.555 5.51363 143.686 5.51363C134.178 5.51363 129.127 6.75003 125.43 7.68569C123.515 8.15353 121.996 8.52111 120.478 8.52111C115.691 8.52111 108.395 7.15103 101.364 5.81437C95.9165 4.77846 90.7666 3.80939 86.9041 3.47522C86.8711 3.47522 86.8051 3.47522 86.7721 3.4418C81.0279 0.668238 76.5382 0.0333257 73.501 1.6039C69.7046 3.57547 68.7802 8.52111 68.186 11.7959C68.054 12.5979 67.9219 13.2662 67.7899 13.8009C67.2617 15.7056 66.1723 19.6488 61.0553 21.0189C60.3951 21.1859 58.5464 21.1525 56.3675 21.1191C54.7499 21.0857 53.0663 21.0523 52.0429 21.1191V33.5166L64.4556 35.1206C64.5216 35.1206 64.5546 35.154 64.6207 35.1874C66.6675 36.5909 67.3607 38.3286 67.7899 39.8992C67.8559 40.1665 67.9549 40.4338 68.021 40.7346C69.0443 44.6109 70.2988 49.4229 81.6882 48.4538C91.1627 47.5849 112.291 46.0812 120.412 46.0812Z" fill="black"/>
</g>
<g opacity="0.4">
<g opacity="0.4">
<path opacity="0.4" d="M288.38 32.3471C290.46 33.1156 293.034 33.383 295.708 37.3261C299.373 37.3261 300.66 40.4004 298.746 40.8014C298.746 40.8014 295.675 40.9017 294.652 40.6678C293.86 40.4673 287.224 39.8323 282.008 40.3336C278.707 40.6678 273.293 40.6343 273.26 40.6678C272.27 41.6368 222.421 38.6962 216.478 38.8967C214.101 40.1331 208.588 40.1331 206.509 40.0328C204.429 39.9326 182.376 41.3027 158.079 40.5341C157.584 40.5341 119.752 40.4338 119.752 40.4338C119.752 40.4338 103.014 42.0044 101.43 42.3052C92.1202 43.976 76.0101 36.19 69.4736 32.982L58.1833 34.1181C59.7349 32.9486 51.3167 20.3171 51.7459 20.6847C55.2782 21.8543 68.9784 17.978 68.9784 17.978C68.9784 17.978 76.5713 11.6623 86.277 12.4309C109.485 14.2353 110.904 15.7725 120.016 17.7107C122.954 18.3456 126.024 17.8777 128.665 16.374C132.627 14.1351 138.206 10.9271 147.581 11.5286C152.071 11.7959 156.825 13.7341 159.466 16.6079C160.522 17.7441 161.909 18.4792 163.427 18.6129C175.312 19.7825 209.15 26.0982 209.15 26.0982C209.15 26.0982 214.168 25.9311 214.201 25.9311C215.323 25.5635 227.67 24.0598 230.674 24.0598C239.686 24.0598 245.397 28.3037 248.468 29.4398C251.505 30.5426 259.857 31.7122 264.743 32.3471C266.823 32.6144 268.902 31.7456 270.19 30.0747C272.171 27.4683 275.472 24.2937 278.542 26.967C280.358 28.5376 281.414 29.4732 283.131 30.977C284.649 32.3471 286.894 31.8124 288.38 32.3471Z" fill="white"/>
<path opacity="0.4" d="M98.6566 42.8732C88.8849 42.8732 74.5904 35.8557 69.4405 33.3495L58.2492 34.4856C58.0842 34.5191 57.9191 34.4188 57.8531 34.2517C57.787 34.0846 57.8531 33.9176 57.9851 33.8173C58.0181 33.7839 58.4473 33.3161 56.2355 29.1056C54.948 26.6662 53.2643 23.926 52.274 22.3221C51.2506 20.6512 51.2506 20.6512 51.5147 20.4173C51.6137 20.3171 51.7788 20.3171 51.9108 20.3505C55.1791 21.3864 67.7568 17.9445 68.8132 17.6772C69.5725 17.0757 77.0334 11.3615 86.3099 12.0966C104.401 13.5001 109.254 14.7365 114.866 16.14C116.45 16.541 118.101 16.942 120.082 17.3764C122.921 17.9779 125.925 17.5435 128.467 16.0732L128.533 16.0398C132.593 13.734 138.173 10.5929 147.614 11.161C152.335 11.4617 157.089 13.5001 159.763 16.3739C160.753 17.4433 162.074 18.1116 163.493 18.2787C175.048 19.3814 207.829 25.4632 209.15 25.7305C212.979 25.5969 213.903 25.5635 214.134 25.5635C215.653 25.129 227.802 23.6921 230.674 23.6921C237.639 23.6921 242.657 26.1984 245.992 27.8692C247.015 28.3704 247.873 28.8048 248.6 29.0722C251.604 30.1415 260.055 31.3445 264.809 31.946C266.756 32.2133 268.704 31.3779 269.893 29.8073C271.279 28.0029 273.392 25.7974 275.67 25.5635C276.792 25.4632 277.849 25.8308 278.806 26.6662L280.325 28.0029C281.348 28.9051 282.206 29.6737 283.395 30.6762C284.286 31.4447 285.441 31.545 286.564 31.6452C287.29 31.7121 287.95 31.7789 288.578 31.9794C288.875 32.0797 289.205 32.1799 289.535 32.3136C291.384 32.9151 293.695 33.6168 295.972 36.9585C298.349 37.0253 299.934 38.3954 300.066 39.6652C300.132 40.4004 299.67 41.0019 298.911 41.1689C298.878 41.1689 298.878 41.1689 298.845 41.1689C298.713 41.1689 295.708 41.2692 294.652 41.0019C293.893 40.8348 287.29 40.1664 282.14 40.7011C279.466 40.9684 275.439 41.0019 273.92 41.0019C273.623 41.0019 273.425 41.0019 273.392 41.0019C271.774 41.4363 262.399 41.1355 239.059 40.0662C228.858 39.5984 219.185 39.1639 216.676 39.2308C213.771 40.6677 206.905 40.3669 206.608 40.3669C206.112 40.3335 204.429 40.4004 201.821 40.5006C193.634 40.8014 176.566 41.4363 158.178 40.8682C157.683 40.8682 120.907 40.7679 119.884 40.7679C119.256 40.8348 103.146 42.3385 101.595 42.6058C100.637 42.8063 99.68 42.8732 98.6566 42.8732ZM69.5065 32.5809C69.5725 32.5809 69.6055 32.5809 69.6716 32.6143C75.1847 35.3211 91.988 43.5749 101.397 41.9041C102.981 41.6034 119.091 40.0996 119.752 40.0328H119.785C121.336 40.0328 157.617 40.133 158.112 40.133C176.467 40.7011 193.535 40.0662 201.722 39.7654C204.429 39.6652 206.046 39.5984 206.542 39.6318C208.984 39.732 214.167 39.6652 216.313 38.5625C216.346 38.529 216.412 38.529 216.478 38.529C218.888 38.4622 228.198 38.8632 238.993 39.3644C252.792 39.9994 271.642 40.8348 273.062 40.3669C273.161 40.3001 273.227 40.3001 273.854 40.3001C275.373 40.3001 279.334 40.2333 282.008 39.9994C287.356 39.4647 293.992 40.133 294.784 40.3335C295.708 40.5674 298.448 40.4672 298.746 40.4672C299.142 40.3669 299.307 40.1664 299.274 39.7989C299.175 38.93 297.92 37.7605 295.741 37.7605C295.609 37.7605 295.51 37.6936 295.444 37.5934C293.265 34.352 291.153 33.6837 289.271 33.0822C288.941 32.9819 288.611 32.8817 288.281 32.748C287.752 32.5475 287.125 32.5141 286.465 32.4472C285.276 32.347 283.923 32.2467 282.867 31.3111C281.678 30.2752 280.82 29.5066 279.796 28.6043L278.278 27.2677C277.485 26.5659 276.66 26.2652 275.736 26.3654C273.722 26.5659 271.774 28.6378 270.487 30.3086C269.133 32.0797 266.921 33.0153 264.71 32.748C259.923 32.1465 251.439 30.9435 248.368 29.8073C247.609 29.54 246.718 29.0722 245.694 28.5709C242.426 26.9335 237.507 24.4607 230.707 24.4607C227.703 24.4607 215.389 25.9644 214.332 26.2986C214.299 26.2986 214.233 26.332 214.2 26.332C214.101 26.332 210.866 26.4323 209.183 26.4991C209.15 26.4991 209.117 26.4991 209.117 26.4991C208.786 26.4323 175.18 20.1834 163.427 19.0472C161.843 18.8802 160.357 18.145 159.235 16.9086C156.693 14.1684 152.137 12.2303 147.581 11.9295C138.338 11.3615 132.891 14.4358 128.929 16.7081L128.863 16.7415C126.156 18.2787 122.987 18.7799 119.95 18.1116C117.936 17.6772 116.285 17.2428 114.701 16.8418C109.122 15.4383 104.302 14.2019 86.2769 12.7984C76.8353 12.0632 69.3414 18.2118 69.2424 18.2787C69.2094 18.3121 69.1434 18.3455 69.1103 18.3455C68.5821 18.4792 56.9947 21.7206 52.505 21.2193C52.6371 21.4198 52.7691 21.6537 52.9342 21.8876C57.0938 28.6378 58.8434 32.1465 58.7774 33.6502L69.4735 32.5809H69.5065Z" fill="black"/>
</g>
<g opacity="0.4">
<path opacity="0.4" d="M116.649 33.7839C119.323 35.0872 123.35 37.6602 121.997 40.367C121.997 40.367 117.837 42.773 114.503 43.4413C111.631 44.0094 107.174 44.3435 105.028 44.3435C101.628 44.377 81.1601 42.1046 80.3348 42.2717L79.4764 42.3051C79.1463 42.4388 78.255 42.8732 77.8588 43.1071C76.8024 43.742 73.6662 44.2433 72.3787 44.3435C69.9688 44.4772 66.9647 43.9091 65.9743 43.3076C65.0169 43.5081 63.9275 43.7421 63.1352 43.7086C62.3759 44.0094 60.2961 44.6443 60.2961 44.6443C60.2961 44.6443 57.8202 45.7805 56.6318 45.6134C56.4007 45.58 56.0705 45.2792 56.0045 45.0787C55.4103 45.2792 54.75 45.4129 54.3209 45.346C53.6936 45.2458 53.4626 44.9785 53.3965 44.7445C53.1324 44.6443 52.8353 44.4438 52.7363 44.143C52.5382 43.4079 55.9715 42.2717 55.9715 42.2717C55.9715 42.2717 57.16 41.6702 59.2397 41.0353C60.3952 40.7011 61.3526 40.4338 62.1449 40.1665C63.3333 39.6987 64.8189 39.6987 65.4131 39.4647C66.1724 39.164 73.4021 38.1615 77.8258 36.7914C79.5755 36.5909 82.7447 36.4907 85.3857 36.2902C87.3334 35.956 98.5577 35.5216 107.438 35.2543L116.649 33.7839Z" fill="white"/>
<path opacity="0.4" d="M56.8628 46.0143C56.7638 46.0143 56.6647 46.0143 56.5657 45.9809C56.3346 45.9475 56.0375 45.747 55.8064 45.513C55.1462 45.7135 54.618 45.7804 54.2218 45.7135C53.4955 45.6133 53.1984 45.2791 53.0664 45.0118C52.7032 44.8447 52.4391 44.5774 52.3401 44.2432C52.142 43.508 53.2975 42.7395 55.8064 41.9041C56.0045 41.8038 57.1599 41.2357 59.1077 40.6676C59.6359 40.5006 60.1311 40.3669 60.5932 40.2332C61.1214 40.0662 61.5836 39.9325 62.0128 39.8322C62.706 39.5649 63.5314 39.4312 64.2246 39.331C64.6538 39.2642 65.0499 39.1973 65.281 39.1305C65.5451 39.0302 66.3704 38.8632 68.0211 38.5624C70.7281 38.0612 74.8216 37.326 77.6937 36.4238C77.7267 36.4238 77.7267 36.4238 77.7598 36.4238C78.8162 36.2901 80.3678 36.2233 81.9854 36.123C83.1078 36.0562 84.2302 35.9893 85.3196 35.9225C87.2344 35.5883 97.7654 35.1539 107.405 34.8866C107.603 34.8866 107.768 35.0537 107.801 35.2542C107.801 35.4547 107.636 35.6218 107.438 35.6552C97.7984 35.9559 87.2674 36.3903 85.4517 36.6911H85.4187C84.3293 36.7579 83.1738 36.8248 82.0514 36.8916C80.4338 36.9918 78.9152 37.0587 77.8918 37.1923C74.9867 38.0946 70.8601 38.8632 68.1531 39.331C66.8656 39.5649 65.7762 39.7654 65.5451 39.8322C65.248 39.9325 64.8188 39.9993 64.3237 40.0662C63.6634 40.1664 62.9041 40.2667 62.2439 40.534C61.7817 40.6677 61.3195 40.8013 60.7913 40.9684C60.3291 41.1021 59.8339 41.2357 59.3057 41.4028C57.292 42.0043 56.1365 42.6058 56.1035 42.6058C56.0705 42.6058 56.0705 42.6392 56.0375 42.6392C54.585 43.107 53.2314 43.7754 53.0664 44.0761C53.1324 44.2432 53.3305 44.3435 53.4625 44.3769C53.5946 44.4103 53.6936 44.544 53.6936 44.6776C53.6936 44.711 53.8257 44.9115 54.2878 44.9784C54.5189 45.0118 54.9811 45.0118 55.8064 44.7445C56.0045 44.6776 56.2026 44.7779 56.2686 44.9784C56.3016 45.0452 56.4997 45.2123 56.5987 45.2457C57.457 45.3794 59.4048 44.6108 60.065 44.31C60.065 44.31 60.098 44.31 60.098 44.2766C60.1311 44.2766 62.1778 43.6417 62.9041 43.341C62.9371 43.3075 63.0032 43.3076 63.0362 43.3076C63.8285 43.341 64.9509 43.0736 65.8092 42.9065C65.9083 42.8731 66.0073 42.9066 66.0733 42.94C66.9977 43.508 69.9688 44.0761 72.2467 43.9425C73.5011 43.8756 76.5713 43.341 77.5617 42.7729C77.9578 42.539 78.8492 42.138 79.2123 41.9709C79.2453 41.9375 79.3113 41.9375 79.3444 41.9375L80.2027 41.9041C80.7309 41.8372 83.537 42.1046 90.1395 42.7395C96.1477 43.3076 102.981 43.9759 104.896 43.9759C104.929 43.9759 104.929 43.9759 104.962 43.9759C107.108 43.9759 111.565 43.6417 114.371 43.0736C117.309 42.4721 121.006 40.4672 121.666 40.0996C121.898 39.5983 121.898 39.0971 121.732 38.5624C121.039 36.5574 117.804 34.7864 116.45 34.1514C108.23 30.1749 103.278 27.9694 101.331 27.4347C98.9208 26.733 94.9593 24.3938 91.8231 22.5225C90.1725 21.5534 88.3238 20.4507 87.9276 20.3839C87.7295 20.4173 87.5645 20.2836 87.5315 20.0831C87.4985 19.8826 87.5975 19.6821 87.8286 19.6153C88.2247 19.515 89.0831 19.9829 92.2193 21.8542C95.1904 23.5918 99.2179 25.9978 101.562 26.6662C103.543 27.2342 108.527 29.4397 116.814 33.4497C118.629 34.3185 121.732 36.0896 122.492 38.2951C122.756 39.0637 122.69 39.7988 122.36 40.534C122.327 40.6008 122.261 40.6677 122.195 40.7011C122.03 40.8013 117.936 43.1405 114.569 43.8088C111.565 44.4103 107.108 44.711 104.995 44.711C104.962 44.711 104.962 44.711 104.929 44.711C102.981 44.711 96.1477 44.0427 90.1064 43.4746C85.5177 43.0402 80.7969 42.5724 80.3347 42.6392H80.3017L79.5094 42.6726C79.1793 42.8397 78.354 43.2073 77.9909 43.4078C76.8354 44.0761 73.6662 44.6108 72.3457 44.6776C69.9358 44.8113 67.0307 44.2766 65.8752 43.6417C65.0499 43.8088 63.9605 44.0427 63.1682 44.0427C62.4089 44.3435 60.6263 44.8781 60.3952 44.945C60.098 45.1455 58.1173 46.0143 56.8628 46.0143Z" fill="black"/>
</g>
<g opacity="0.4">
<path opacity="0.4" d="M90.1724 36.0563C90.1394 36.0563 90.1064 36.0563 90.0734 36.0563C89.4791 35.9227 88.3567 35.8558 87.0692 35.7556C83.9 35.5551 79.5424 35.2878 77.0995 33.6504C76.9344 33.5501 76.8684 33.3162 77.0004 33.1157C77.0995 32.9486 77.3305 32.8818 77.5286 33.0154C79.8395 34.5526 84.0651 34.8199 87.1353 34.987C88.5218 35.0873 89.6112 35.1541 90.2714 35.2878C90.4695 35.3212 90.6016 35.5551 90.5355 35.7556C90.5025 35.9227 90.3375 36.0563 90.1724 36.0563Z" fill="black"/>
</g>
<g opacity="0.4">
<path opacity="0.4" d="M56.0045 45.4797C55.9055 45.4797 55.8065 45.4463 55.7404 45.3795C55.6414 45.2792 55.6084 45.1455 55.6084 44.9785C55.6414 44.8114 55.7074 44.3101 59.3388 42.4722C59.3388 42.4722 59.3718 42.4722 59.3718 42.4388C59.3718 42.4388 60.9894 41.8707 63.0362 41.2358C65.083 40.6343 65.6772 40.4004 66.7006 40.0328C66.8987 39.966 67.0968 40.0662 67.1958 40.2667C67.2618 40.4672 67.1628 40.6677 66.9647 40.768C65.9413 41.169 65.3141 41.3695 63.2673 42.0044C61.3526 42.5725 59.867 43.1071 59.6689 43.174C58.3154 43.8757 56.7308 44.778 56.4007 45.1455C56.4007 45.2458 56.3677 45.346 56.3017 45.4129C56.1696 45.4463 56.0706 45.4797 56.0045 45.4797Z" fill="black"/>
</g>
<g opacity="0.4">
<path opacity="0.4" d="M53.3962 45.1455C53.1981 45.1455 53.0661 45.0118 53.0331 44.8113C52.934 44.0428 56.0372 42.6393 56.4334 42.539C56.7965 42.4388 58.7773 41.6368 60.5269 40.935C64.7855 39.1974 64.8516 39.1974 65.0496 39.2308C65.2477 39.2642 65.3798 39.4647 65.3468 39.6652C65.3138 39.8323 65.1487 39.9659 64.9836 39.9659C64.6535 40.0328 62.5077 40.9016 60.824 41.6034C58.8763 42.4053 57.0606 43.1405 56.6314 43.2408C55.9052 43.4413 54.0565 44.5106 53.7594 44.8447C53.7263 44.9784 53.5943 45.0787 53.4622 45.1121C53.4292 45.1455 53.3962 45.1455 53.3962 45.1455Z" fill="black"/>
</g>
</g>
</g>
<defs>
<clipPath id="clip0_139_926">
<rect width="303" height="67" fill="white"/>
</clipPath>
</defs>
</svg>
