<svg width="300" height="67" viewBox="0 0 300 67" fill="none" xmlns="http://www.w3.org/2000/svg">
<g clip-path="url(#clip0_139_927)">
<path d="M289.054 66.8327H10.2781C7.43445 66.8327 5.11377 64.4602 5.11377 61.5529V42.94C5.11377 40.0327 7.43445 37.6602 10.2781 37.6602H289.054C291.898 37.6602 294.219 40.0327 294.219 42.94V61.5529C294.219 64.4602 291.898 66.8327 289.054 66.8327Z" fill="#E4E4E4" stroke="black" stroke-miterlimit="10"/>
<path d="M27.9609 37.6602V66.8327" stroke="black" stroke-miterlimit="10"/>
<path d="M48.9453 37.6602V66.8327" stroke="black" stroke-miterlimit="10"/>
<path d="M75.3555 42.5056V66.8328" stroke="black" stroke-miterlimit="10"/>
<path d="M99.9351 40.1665V66.8328" stroke="black" stroke-miterlimit="10"/>
<path d="M125.822 37.4932V66.8328" stroke="black" stroke-miterlimit="10"/>
<path d="M149.65 37.7271V66.8328" stroke="black" stroke-miterlimit="10"/>
<path d="M178.74 37.7271V66.8328" stroke="black" stroke-miterlimit="10"/>
<path d="M211.066 37.5601V66.8329" stroke="black" stroke-miterlimit="10"/>
<path d="M244.536 37.6602V66.8327" stroke="black" stroke-miterlimit="10"/>
<path d="M274.346 37.7271V66.8328" stroke="black" stroke-miterlimit="10"/>
<path d="M57.4434 38.2618C57.4434 37.4932 57.1492 36.8917 56.9204 36.2234C56.2667 34.6862 54.8939 32.8818 50.7428 31.9795C48.9451 31.5785 44.4345 31.1441 41.9177 31.0439C38.1588 30.9102 30.6738 30.9102 26.915 31.0439C24.3982 31.1441 19.9202 31.5785 18.0898 31.9795C13.9714 32.8818 12.5986 34.6528 11.9122 36.2234C11.6834 36.9252 11.3893 37.5266 11.3893 38.2618C11.3893 38.2618 10.8009 42.5057 15.5077 42.5057H15.7365H52.9981H53.2269C58.0317 42.5057 57.4434 38.2618 57.4434 38.2618Z" fill="#EAEAEA" stroke="black" stroke-miterlimit="10"/>
<path d="M35.7073 38.9304C41.7215 37.861 43.9768 36.2905 45.8726 35.288C51.2003 32.3139 57.0838 35.1209 58.4566 36.7583V36.7249C61.7251 40.1334 70.158 42.673 79.1139 42.673C88.4293 42.673 99.8039 39.4316 110.656 37.7274C113.565 37.2595 116.506 37.8945 118.99 39.4316C122.847 41.8042 130.659 44.7114 138.079 44.3104C142.524 44.0765 146.675 43.074 149.388 40.3004C150.467 39.1977 151.872 38.5294 153.376 38.4291C165.208 37.6605 197.992 35.7558 197.992 35.7558C197.992 35.7558 202.96 36.658 202.993 36.658C204.071 37.059 211.981 40.0999 219.237 40.0999C223.715 40.0999 233.783 37.9947 236.953 37.4266C241.169 36.658 250.91 36.3573 255.159 36.9588C257.251 37.2595 261.238 38.5962 261.958 38.9972C262.807 39.4984 269.148 40.7014 268.952 34.3523C268.854 31.9463 268.724 30.9104 268.658 28.6047C268.593 26.5329 268.724 22.4895 268.724 22.3892C268.724 22.3892 269.116 20.3174 268.952 17.3099C268.822 15.2381 268.887 13.1663 269.148 11.0945C269.279 10.0585 269.312 8.9558 269.05 8.1538C268.756 7.21814 266.272 6.3159 266.272 8.02014C266.272 9.75779 265.618 12.3977 265.292 13.066C264.932 13.8012 262.905 17.7109 260.487 22.3892C260.258 22.8236 260.029 23.2246 259.8 23.659C258.199 26.6331 255.028 28.3039 251.727 27.9698C239.437 26.6665 209.726 23.5254 205.085 23.2246C201.979 21.2531 198.417 20.685 196.357 20.7184C194.298 20.7518 174 15.6057 149.944 15.472C143.112 12.0969 121.834 11.9633 112.028 12.8655C107.91 11.9299 95.4241 12.5648 93.8225 12.3643C78.9505 10.5932 66.0723 17.7443 61.8559 20.4176C61.7905 20.4511 61.7251 20.5179 61.6598 20.5513C59.9274 21.487 54.0113 20.8521 51.0369 20.6516L51.0696 20.5847C51.3638 19.0476 51.5272 17.4436 51.4945 16.5748C51.4618 15.5388 50.4813 14.3693 49.3373 14.2022C48.2586 14.0351 43.0943 13.868 42.7674 13.868C42.7021 13.6007 42.081 10.8605 41.2639 11.3618C39.8911 12.1304 36.0015 13.8346 35.7073 13.9683C34.9556 14.0017 32.5368 14.2356 31.7524 14.269C23.9732 14.7034 20.6065 22.7902 22.1101 29.3398C23.6136 35.8895 27.4379 40.4007 35.7073 38.9304Z" fill="#E4E4E4"/>
<path d="M136.641 44.7447C129.875 44.7447 122.75 42.2385 118.762 39.7991C116.31 38.2953 113.434 37.6938 110.656 38.1283C107.06 38.6963 103.367 39.4315 99.8042 40.1667C92.3518 41.6704 85.3244 43.0739 79.0814 43.0739C70.3217 43.0739 61.8234 40.6345 58.2933 37.1592C58.228 37.1258 58.1626 37.0923 58.1299 37.0589C56.8552 35.5218 51.2332 32.7816 46.0362 35.6554C45.7747 35.7891 45.5459 35.9228 45.2844 36.0564C43.5194 37.0589 41.068 38.3956 35.7729 39.3312L35.7075 38.9637L35.7729 39.3312C28.2552 40.6345 23.5485 37.3263 21.7508 29.4734C20.8356 25.5303 21.6854 21.2195 23.908 18.1786C25.8038 15.6056 28.5167 14.1352 31.7199 13.9682C32.0467 13.9347 32.7005 13.9013 33.3869 13.8345C34.2694 13.7677 35.1519 13.6674 35.6095 13.6674C35.7075 13.634 35.871 13.5672 36.0671 13.4669C37.2438 12.9322 39.9894 11.7293 41.068 11.1278C41.2968 10.9941 41.5256 10.9941 41.7544 11.0943C42.4408 11.3951 42.8657 12.7986 43.0618 13.6006C44.2058 13.634 48.3896 13.8011 49.3702 13.9347C50.6449 14.1352 51.7889 15.4051 51.8543 16.6749C51.887 17.5103 51.7235 18.9806 51.4947 20.4175C51.8216 20.4509 52.1484 20.451 52.508 20.4844C55.5151 20.7183 60.0911 21.0524 61.4639 20.3173L61.66 20.1836C65.3535 17.8111 78.6565 10.2255 93.8881 12.0634C94.3783 12.1303 95.9799 12.0968 98.0391 12.0634C102.484 11.9966 109.185 11.9298 112.094 12.5647C121.704 11.6624 143.047 11.7627 150.075 15.1712C168.542 15.2714 184.558 18.2789 192.239 19.7158C194.397 20.1168 195.965 20.4175 196.39 20.4175C196.423 20.4175 196.456 20.4175 196.521 20.4175C198.809 20.4175 202.241 21.0859 205.248 22.9572C210.151 23.3248 239.405 26.3991 251.793 27.7023C254.93 28.0365 257.97 26.4325 259.506 23.5921C259.735 23.1577 259.964 22.7567 260.193 22.3223C262.317 18.212 264.638 13.7677 264.998 12.9991C265.324 12.3308 265.945 9.75768 265.945 8.12028C265.945 7.38511 266.338 6.88387 266.991 6.78362C267.939 6.61654 269.181 7.31828 269.443 8.12028C269.672 8.88886 269.737 9.92477 269.574 11.228C269.312 13.233 269.247 15.3048 269.377 17.3766C269.541 20.217 269.214 22.222 269.149 22.5228C269.149 22.5896 269.149 22.7233 269.149 22.9238C269.116 24.0599 269.051 27.034 269.083 28.7048C269.116 29.8744 269.181 30.6764 269.214 31.5452C269.279 32.3806 269.312 33.2495 269.377 34.419C269.443 36.6914 268.756 38.2619 267.318 39.1642C265.292 40.4006 262.481 39.7657 261.86 39.3981C261.206 38.9971 257.251 37.6938 255.192 37.3931C251.106 36.7916 241.464 37.0589 237.117 37.8275C236.594 37.9278 235.94 38.0614 235.123 38.1951C230.939 38.9971 223.127 40.5008 219.336 40.5008C214.792 40.5008 209.007 39.2978 203.091 37.0923L202.993 37.0589C202.731 37.0255 201.816 36.8584 198.057 36.1567C196.685 36.2235 164.947 38.0948 153.474 38.83C152.101 38.9303 150.761 39.5317 149.715 40.6011C147.264 43.0739 143.472 44.444 138.144 44.7447C137.621 44.7113 137.131 44.7447 136.641 44.7447ZM112.486 37.1926C114.807 37.1926 117.128 37.8609 119.154 39.0973C123.338 41.6704 131.019 44.2769 138.046 43.9093C143.178 43.642 146.806 42.3387 149.127 39.9996C150.304 38.83 151.807 38.0948 153.376 37.9946C165.077 37.2594 197.665 35.3547 198.025 35.3213C198.057 35.3213 198.09 35.3213 198.123 35.3213C200.051 35.6554 202.927 36.1901 203.091 36.2235C203.124 36.2235 203.156 36.2235 203.156 36.2569L203.287 36.3238C209.105 38.4958 214.792 39.6988 219.27 39.6988C222.997 39.6988 230.743 38.1951 234.927 37.3931C235.744 37.226 236.43 37.0923 236.921 37.0255C241.366 36.2235 251.106 35.9562 255.257 36.5577C257.284 36.8584 261.402 38.1617 262.187 38.6629C262.644 38.9303 265.161 39.4983 266.893 38.429C268.103 37.6938 268.658 36.3238 268.593 34.3522C268.56 33.1826 268.495 32.3138 268.43 31.4784C268.364 30.6096 268.332 29.7741 268.299 28.6046C268.233 26.9003 268.332 23.9263 268.364 22.7901C268.364 22.5562 268.364 22.3891 268.364 22.3891C268.364 22.3557 268.364 22.3223 268.364 22.3223C268.364 22.2889 268.756 20.2505 268.56 17.3432C268.43 15.238 268.495 13.1327 268.756 11.0609C268.92 9.85793 268.887 8.92227 268.658 8.28736C268.528 7.88636 267.612 7.3517 267.024 7.45195C266.828 7.48536 266.599 7.58561 266.599 8.05344C266.599 9.82452 265.945 12.5312 265.586 13.2664C265.259 13.9682 263.494 17.3766 260.748 22.5896C260.52 23.024 260.291 23.425 260.062 23.8594C258.395 26.9672 255.094 28.7048 251.629 28.3372C239.143 27.0006 209.628 23.8928 205.019 23.5921C204.954 23.5921 204.889 23.5587 204.856 23.5253C201.914 21.6874 198.45 21.0524 196.325 21.0524C195.802 21.0524 194.397 20.7851 192.043 20.3507C184.362 18.9138 168.346 15.9063 149.911 15.8061C149.846 15.8061 149.813 15.8061 149.748 15.7726C142.982 12.431 121.638 12.3642 112.094 13.2664C112.061 13.2664 112.029 13.2664 111.996 13.2664C109.218 12.6315 102.517 12.7317 98.0718 12.7986C95.9146 12.832 94.3783 12.832 93.8227 12.7986C78.82 10.9941 65.7457 18.4794 62.0849 20.8185L61.8888 20.9522C60.2872 21.821 55.7766 21.4869 52.508 21.2195C51.985 21.1861 51.4947 21.1527 51.0698 21.1193C50.9391 21.1193 50.841 21.0524 50.7756 20.9522C50.7103 20.8519 50.7103 20.7183 50.743 20.618V20.5846C51.0371 19.1143 51.2006 17.5103 51.1679 16.6749C51.1352 15.8395 50.3507 14.8036 49.3048 14.6699C48.4223 14.5362 44.6634 14.4026 42.7676 14.3357C42.6042 14.3357 42.4408 14.2021 42.4081 14.035C42.1139 12.6649 41.6563 11.7961 41.4602 11.7627C40.3162 12.3976 37.5706 13.634 36.3613 14.1687C36.0671 14.3023 35.9037 14.3692 35.8383 14.4026C35.8056 14.3692 35.7729 14.3692 35.7075 14.3692C35.2826 14.3692 34.3021 14.4694 33.4522 14.5362C32.7658 14.6031 32.1121 14.6365 31.7853 14.6699C28.7782 14.837 26.2614 16.2071 24.529 18.5796C22.4372 21.4534 21.6527 25.5303 22.5025 29.2729C24.2349 36.7582 28.5167 39.7991 35.6749 38.5293C40.8392 37.627 43.2252 36.2904 44.9576 35.3213C45.2191 35.1876 45.4806 35.0205 45.7094 34.8869C51.1025 31.8794 56.9859 34.6195 58.5875 36.3238C58.6202 36.3572 58.6856 36.3572 58.7183 36.424C62.0195 39.8659 70.387 42.2719 79.1141 42.2719C85.2917 42.2719 92.2865 40.8684 99.7061 39.3647C103.302 38.6295 106.995 37.8943 110.59 37.3263C111.179 37.2594 111.832 37.1926 112.486 37.1926Z" fill="black"/>
<path d="M70.1909 38.8298C74.8323 38.6961 102.19 36.925 104.282 37.2926C106.407 37.6936 111.931 38.0278 115.755 38.0278C119.579 38.0278 141.642 36.9919 142.59 37.1589L143.57 37.1924C143.93 37.3594 144.943 37.8273 145.401 38.0946C146.61 38.7964 150.107 39.3644 151.546 39.4647C154.258 39.6318 157.592 38.93 158.704 38.2617C159.782 38.4956 161.024 38.7295 161.907 38.6961C162.757 39.0303 165.077 39.732 165.077 39.732C165.077 39.732 167.888 41.0018 169.196 40.8013C169.457 40.7679 169.85 40.4338 169.915 40.1998C170.601 40.4003 171.32 40.5674 171.811 40.4672C172.53 40.3669 172.791 40.0328 172.824 39.7988C173.118 39.6986 173.445 39.4647 173.543 39.1305C173.772 38.2951 169.784 37.4263 169.784 37.4263C169.784 37.4263 168.085 36.8582 165.731 36.1899C164.456 35.8223 163.378 35.5215 162.463 35.2542C161.155 34.753 159.946 34.2183 159.259 33.9844C158.41 33.6502 150.271 32.5475 145.335 31.0437C143.341 30.8098 139.844 30.7096 136.837 30.5091C134.353 30.0747 110.852 28.2368 106.734 27.8692C102.648 27.5016 81.6963 26.6328 77.7086 25.8976C73.721 25.1624 73.1326 24.1934 73.1326 24.1934L70.1909 38.8298Z" fill="#EAEAEA"/>
<path d="M168.935 41.2023C167.529 41.2023 165.241 40.1998 164.98 40.0996C164.718 40.0327 162.724 39.3978 161.874 39.0971C161.025 39.0971 159.979 38.93 158.802 38.6627C157.527 39.3644 154.259 39.9993 151.546 39.8322C150.075 39.7654 146.512 39.1639 145.237 38.4288C144.845 38.1948 143.897 37.7604 143.505 37.5933L142.623 37.5599C142.59 37.5599 142.59 37.5599 142.557 37.5599C142.034 37.4597 135.072 37.7604 128.927 37.9943C123.403 38.2283 117.651 38.4288 115.82 38.4288H115.788C111.8 38.4288 106.309 38.0612 104.25 37.6602C102.844 37.3928 89.1488 38.1614 80.0622 38.6627C75.5842 38.93 71.6946 39.1305 70.2238 39.1639C69.995 39.1639 69.8642 38.9968 69.8315 38.7963C69.8315 38.5958 69.995 38.4288 70.1911 38.3953C71.6619 38.3619 75.5515 38.128 80.0295 37.8941C92.5481 37.1923 103.008 36.6243 104.38 36.8916C106.407 37.2592 111.833 37.6268 115.788 37.6268H115.82C117.651 37.6268 123.338 37.3928 128.895 37.1923C136.968 36.8582 141.969 36.6911 142.655 36.7579L143.603 36.7913C143.636 36.7913 143.701 36.7913 143.734 36.8248C144.126 36.9918 145.139 37.4597 145.597 37.727C146.708 38.3953 150.173 38.9634 151.578 39.0303C154.193 39.1639 157.462 38.529 158.54 37.8941C158.606 37.8607 158.704 37.8273 158.802 37.8607C159.75 38.0612 161.025 38.3285 161.907 38.2951C161.94 38.2951 162.005 38.2951 162.038 38.3285C162.888 38.6627 165.176 39.3644 165.208 39.3644H165.241C165.993 39.6986 168.15 40.5674 169.163 40.4003C169.261 40.3669 169.523 40.1664 169.588 40.0662C169.654 39.8657 169.85 39.7654 170.046 39.8322C170.994 40.133 171.517 40.133 171.778 40.0996C172.334 40.0327 172.465 39.7988 172.497 39.732C172.53 39.5983 172.595 39.4981 172.726 39.4312C172.922 39.3644 173.151 39.2308 173.216 39.0303C172.988 38.6961 171.419 38.128 169.752 37.7604H169.719C169.686 37.7604 167.987 37.1923 165.699 36.524C165.11 36.3569 164.522 36.1899 164.032 36.0228C163.443 35.8557 162.92 35.6886 162.43 35.5549C161.678 35.2542 160.992 34.9869 160.404 34.7529C159.946 34.5524 159.521 34.3854 159.227 34.2851C158.965 34.1849 157.723 33.9844 156.318 33.717C153.245 33.1824 148.637 32.347 145.368 31.3445C144.191 31.2108 142.492 31.1106 140.694 31.0437C139.452 30.9769 138.145 30.9101 136.935 30.8432H136.903C135.072 30.5425 121.279 29.4063 113.075 28.738C110.198 28.5041 107.878 28.3036 106.864 28.2367C105.492 28.1031 102.125 27.936 98.2681 27.7355C90.3581 27.3011 80.4871 26.7664 77.8068 26.2652C73.8519 25.53 73.1001 24.5609 72.9694 24.3938C72.8713 24.2268 72.904 23.9929 73.1001 23.8592C73.2635 23.7589 73.4923 23.7924 73.6231 23.9929C73.6231 23.9929 74.3095 24.8617 77.9703 25.53C80.5851 26.0313 90.8484 26.5659 98.3335 27.0003C102.223 27.2008 105.557 27.4013 106.962 27.5016C108.008 27.6018 110.296 27.7689 113.173 28.0028C121.933 28.7046 135.138 29.8073 137.066 30.1415C138.275 30.2417 139.55 30.3086 140.792 30.342C142.623 30.4422 144.355 30.5091 145.564 30.6761C145.597 30.6761 145.597 30.6761 145.63 30.6761C148.866 31.6786 153.474 32.4806 156.514 33.0487C158.312 33.3495 159.26 33.55 159.554 33.6502C159.848 33.7839 160.273 33.951 160.763 34.118C161.351 34.3519 162.038 34.6527 162.757 34.92C163.215 35.0537 163.738 35.1874 164.326 35.3544C164.849 35.4881 165.404 35.6552 166.025 35.8557C168.215 36.4906 169.882 37.0253 170.046 37.0921C170.863 37.2592 173.511 37.9275 174.001 38.7295C174.132 38.9634 174.099 39.1305 174.066 39.2642C173.968 39.6317 173.674 39.9325 173.282 40.133C173.151 40.4003 172.857 40.7679 172.007 40.9016C171.549 40.9684 170.961 40.9016 170.209 40.7011C169.98 40.9684 169.654 41.1689 169.392 41.2357C169.163 41.2023 169.033 41.2023 168.935 41.2023Z" fill="black"/>
<path d="M169.915 40.6009C169.883 40.6009 169.85 40.6009 169.817 40.6009C169.654 40.5675 169.556 40.4338 169.523 40.2667C169.229 39.8991 167.235 38.8298 165.503 37.9944C165.307 37.9276 163.607 37.3261 161.45 36.6912C159.227 36.0228 158.835 35.9226 157.625 35.4548C157.429 35.3879 157.331 35.154 157.397 34.9535C157.462 34.753 157.691 34.6528 157.887 34.7196C159.031 35.154 159.358 35.2543 161.646 35.9226C163.966 36.5909 165.731 37.2258 165.764 37.2258H165.797C170.438 39.3979 170.307 39.9326 170.242 40.2333C170.242 40.4672 170.079 40.6009 169.915 40.6009Z" fill="black"/>
<path d="M172.824 40.1998C172.791 40.1998 172.791 40.1998 172.759 40.1998C172.628 40.1664 172.497 40.0661 172.464 39.9325C172.105 39.5649 169.751 38.3285 168.902 38.0946C168.411 37.9609 167.202 37.4262 166.058 36.925C165.208 36.5574 164.195 36.0896 163.933 36.0227C163.77 36.0227 163.607 35.8891 163.574 35.722C163.541 35.5215 163.672 35.321 163.868 35.2876C164.097 35.2542 164.391 35.3544 166.352 36.2566C167.431 36.7245 168.64 37.2926 169.065 37.3928C169.425 37.4931 173.282 39.0636 173.183 39.899C173.183 40.0661 173.02 40.1998 172.824 40.1998Z" fill="black"/>
<path d="M37.538 31.2443C36.1652 31.2443 35.0212 30.7096 34.6289 29.774C34.204 28.7715 34.6616 27.5685 35.8383 26.5994C36.0017 26.4657 36.2305 26.4991 36.3613 26.6662C36.492 26.8333 36.4593 27.0672 36.2959 27.2009C35.4134 27.9361 35.0212 28.8383 35.3153 29.5066C35.7729 30.576 37.7341 30.8433 39.5645 30.1415C40.7739 29.6737 41.7544 28.8717 42.0813 28.0363C42.2447 27.6353 42.2447 27.2677 42.114 26.967C42.0486 26.8333 41.9505 26.6662 41.8198 26.566C41.6564 26.4323 41.6564 26.1984 41.8198 26.0313C41.9505 25.8642 42.1793 25.8642 42.3428 26.0313C42.5389 26.2318 42.7023 26.4323 42.8004 26.6662C43.0292 27.1675 42.9965 27.769 42.7677 28.3371C42.3428 29.373 41.2315 30.3086 39.826 30.8767C39.0415 31.1106 38.2571 31.2443 37.538 31.2443Z" fill="black"/>
<g opacity="0.4">
<path opacity="0.4" d="M272.483 36.2904C272.385 34.4859 270.064 33.1827 262.089 33.4166C262.089 33.4166 252.806 33.049 252.218 32.9822C251.597 32.8485 242.216 31.9463 241.497 31.7124L239.47 30.9772C232.77 28.471 223.389 23.5922 217.734 22.6231C210.347 21.3533 202.568 21.9882 202.568 21.9882C202.568 21.9882 183.708 11.3617 169.784 7.75275C163.084 6.0151 158.867 5.14627 142.198 5.14627C127.685 5.14627 123.371 8.15375 119.22 8.15375C110.95 8.15375 94.9014 3.87645 86.0109 3.10787C67.8049 -5.78091 67.8376 9.62408 66.7263 13.7009C66.1707 15.7393 65.0267 19.3817 60.3199 20.6515C59.2086 20.9523 53.1945 20.5513 51.1353 20.7852V33.8844L63.7519 35.5218C65.7131 36.8585 66.3668 38.5961 66.759 39.9996C67.8703 44.0764 68.4914 49.9243 80.8792 48.8216C89.7697 48.0196 110.983 46.5158 119.252 46.5158C123.371 46.5158 127.718 49.0555 142.23 49.5233C146.806 49.657 148.539 49.8575 154.487 49.657C171.059 49.0889 195.475 47.652 200.64 47.3513C202.993 47.5852 212.014 48.5208 215.315 48.5208C222.964 48.5877 243.621 46.6161 249.407 46.048C250.191 45.9812 251.008 46.0146 251.76 46.1817C251.989 46.2485 252.316 46.2819 252.675 46.3488C253.002 46.3822 254.113 46.2485 254.506 46.2819C259.343 46.8834 267.351 47.9862 267.449 47.9862C277.549 48.9887 277.549 47.1842 278.791 44.4106C279.804 42.0715 285.394 34.2854 272.483 36.2904Z" fill="white"/>
<path opacity="0.4" d="M150.009 50.0912C148.146 50.0912 146.708 50.0243 144.976 49.9575C144.126 49.9241 143.211 49.8907 142.165 49.8573C132.948 49.5565 127.685 48.4204 124.22 47.6518C122.161 47.184 120.658 46.8498 119.187 46.8498C111.146 46.8498 90.2601 48.3535 80.8466 49.1555C68.9817 50.1914 67.5762 44.8114 66.5303 40.9017C66.4649 40.6343 66.3995 40.3336 66.3015 40.0662C65.9093 38.6628 65.2882 37.0922 63.5232 35.8224L51.0046 34.2184C50.8085 34.1849 50.6777 34.0179 50.6777 33.8508V20.7515C50.6777 20.551 50.8085 20.3839 51.0046 20.3839C52.0178 20.2837 53.8809 20.3171 55.7113 20.3505C57.6398 20.3839 59.6009 20.4174 60.1566 20.2837C64.7979 19.0473 65.8112 15.3715 66.3015 13.6004C66.4322 13.0992 66.563 12.4642 66.6937 11.6623C67.3147 8.25377 68.2299 3.07422 72.3483 0.93557C75.5515 -0.735253 80.1929 -0.133757 86.0763 2.74006C89.9332 3.07422 94.9995 4.0433 100.393 5.07921C107.355 6.41587 114.546 7.78594 119.187 7.78594C120.592 7.78594 122.063 7.41836 123.894 6.95053C127.391 6.0817 132.653 4.77846 142.132 4.77846C158.933 4.77846 163.182 5.68071 169.817 7.38495C183.12 10.8268 201.097 20.7515 202.601 21.5869C203.581 21.5201 210.87 21.0523 217.767 22.2553C221.526 22.9236 226.854 25.2293 232.018 27.5017C234.731 28.6712 237.28 29.8074 239.568 30.6762L241.595 31.378C241.987 31.5116 246.007 31.946 248.655 32.2134C250.779 32.4473 251.989 32.581 252.25 32.6144C252.675 32.6478 258.853 32.9151 262.056 33.0488C268.92 32.8817 272.254 33.7505 272.744 35.8892C277.059 35.2543 279.641 35.6887 280.687 37.1924C281.929 39.0303 280.458 41.8039 279.51 43.6418C279.314 44.0094 279.151 44.3435 279.02 44.5775C278.922 44.778 278.856 44.945 278.791 45.1455C277.614 47.8857 276.568 49.2892 267.318 48.3869C267.286 48.3869 266.959 48.3535 266.403 48.2533C264.181 47.9525 258.264 47.1505 254.375 46.6493C254.211 46.6159 253.819 46.6493 253.492 46.6827C253.1 46.7161 252.773 46.7161 252.577 46.7161C252.218 46.6827 251.891 46.6159 251.629 46.549C250.91 46.382 250.158 46.3485 249.374 46.4154C243.294 47.0169 222.866 48.9884 215.25 48.8882C211.982 48.8548 203.222 47.9859 200.574 47.7186C195.704 48.0194 171.059 49.4563 154.455 50.0243C152.657 50.0578 151.252 50.0912 150.009 50.0912ZM119.22 46.0812C120.756 46.0812 122.292 46.4154 124.384 46.8832C128.045 47.6852 133.013 48.7879 142.198 49.0887C143.276 49.1221 144.159 49.1555 145.009 49.1889C147.82 49.2892 149.879 49.3894 154.422 49.2224C171.059 48.6543 195.769 47.2174 200.574 46.9166C200.607 46.9166 200.607 46.9166 200.64 46.9166C203.254 47.1839 212.014 48.0528 215.283 48.0862C222.866 48.153 243.262 46.2149 249.341 45.6134C250.191 45.5131 251.041 45.58 251.825 45.747C252.087 45.8139 252.381 45.8473 252.708 45.8807C252.839 45.8807 253.198 45.8807 253.492 45.8473C253.917 45.8139 254.309 45.7805 254.538 45.8139C258.428 46.3151 264.344 47.1171 266.567 47.4179C267.09 47.4847 267.416 47.5181 267.449 47.5515C276.568 48.4538 277.189 47.0837 278.17 44.778C278.235 44.6109 278.333 44.4104 278.432 44.2099C278.562 43.9426 278.726 43.6084 278.922 43.2074C279.739 41.6368 281.144 38.9969 280.164 37.56C279.281 36.2902 276.732 35.9894 272.581 36.6243C272.483 36.6243 272.385 36.6243 272.287 36.5575C272.221 36.4907 272.156 36.3904 272.156 36.2902C272.058 34.4189 268.789 33.5834 262.154 33.7505C261.762 33.7505 252.806 33.383 252.25 33.3161C251.989 33.2827 250.387 33.0822 248.688 32.9151C244.863 32.5141 241.889 32.18 241.464 32.0463L239.405 31.3111C237.084 30.4423 234.535 29.3061 231.822 28.1366C226.69 25.8977 221.395 23.5919 217.734 22.957C210.478 21.6872 202.731 22.3221 202.633 22.3221C202.568 22.3221 202.503 22.3221 202.437 22.2887C202.241 22.1884 183.48 11.6623 169.752 8.12011C163.182 6.41587 158.965 5.51362 142.263 5.51362C132.85 5.51362 127.849 6.75003 124.188 7.68569C122.292 8.15353 120.789 8.52111 119.285 8.52111C114.546 8.52111 107.322 7.15103 100.36 5.81437C94.9668 4.77846 89.8679 3.80939 86.0436 3.47522C86.011 3.47522 85.9456 3.47522 85.9129 3.4418C80.2256 0.668238 75.7803 0.0333257 72.7733 1.6039C69.0144 3.57547 68.0992 8.52111 67.5109 11.7959C67.3801 12.5979 67.2494 13.2662 67.1186 13.8009C66.5957 15.7056 65.517 19.6488 60.4508 21.0189C59.797 21.1859 57.9666 21.1525 55.8094 21.1191C54.2078 21.0857 52.5408 21.0523 51.5276 21.1191V33.5166L63.8174 35.1206C63.8828 35.1206 63.9154 35.154 63.9808 35.1874C66.0073 36.5909 66.6937 38.3286 67.1186 39.8992C67.184 40.1665 67.2821 40.4338 67.3474 40.7346C68.3607 44.6109 69.6027 49.4229 80.8793 48.4538C90.2601 47.5849 111.179 46.0812 119.22 46.0812Z" fill="black"/>
</g>
<g opacity="0.4">
<g opacity="0.4">
<path opacity="0.4" d="M285.524 32.3473C287.584 33.1159 290.133 33.3832 292.781 37.3264C296.409 37.3264 297.683 40.4007 295.788 40.8017C295.788 40.8017 292.748 40.9019 291.735 40.668C290.95 40.4675 284.38 39.8326 279.216 40.3338C275.948 40.668 270.587 40.6346 270.554 40.668C269.574 41.6371 220.218 38.6964 214.335 38.8969C211.982 40.1333 206.523 40.1333 204.464 40.0331C202.405 39.9328 180.571 41.3029 156.514 40.5343C156.024 40.5343 118.566 40.4341 118.566 40.4341C118.566 40.4341 101.994 42.0047 100.425 42.3054C91.2081 43.9762 75.2575 36.1902 68.7857 32.9822L57.6072 34.1184C59.1434 32.9488 50.8086 20.3174 51.2335 20.685C54.7309 21.8545 68.2954 17.9782 68.2954 17.9782C68.2954 17.9782 75.8131 11.6625 85.4227 12.4311C108.401 14.2356 109.806 15.7727 118.827 17.7109C121.737 18.3458 124.776 17.878 127.391 16.3742C131.313 14.1353 136.837 10.9274 146.12 11.5289C150.565 11.7962 155.272 13.7343 157.887 16.6082C158.933 17.7443 160.306 18.4795 161.809 18.6131C173.576 19.7827 207.079 26.0984 207.079 26.0984C207.079 26.0984 212.047 25.9313 212.08 25.9313C213.191 25.5638 225.415 24.06 228.39 24.06C237.313 24.06 242.968 28.3039 246.007 29.4401C249.015 30.5428 257.284 31.7124 262.121 32.3473C264.181 32.6146 266.24 31.7458 267.515 30.075C269.476 27.4685 272.744 24.2939 275.784 26.9673C277.582 28.5378 278.628 29.4735 280.327 30.9772C281.831 32.3473 284.054 31.8126 285.524 32.3473Z" fill="white"/>
<path opacity="0.4" d="M97.6796 42.8734C88.0046 42.8734 73.8517 35.856 68.7527 33.3497L57.6723 34.4859C57.5089 34.5193 57.3454 34.4191 57.2801 34.252C57.2147 34.0849 57.2801 33.9178 57.4108 33.8176C57.4435 33.7841 57.8684 33.3163 55.6785 29.1058C54.4037 26.6664 52.7368 23.9263 51.7562 22.3223C50.7429 20.6515 50.7429 20.6515 51.0044 20.4176C51.1025 20.3173 51.2659 20.3173 51.3966 20.3507C54.6325 21.3866 67.0858 17.9447 68.1317 17.6774C68.8835 17.0759 76.2704 11.3617 85.4551 12.0969C103.367 13.5004 108.172 14.7368 113.728 16.1403C115.297 16.5413 116.931 16.9422 118.893 17.3767C121.704 17.9782 124.678 17.5437 127.195 16.0734L127.26 16.04C131.28 13.7343 136.804 10.5931 146.152 11.1612C150.826 11.462 155.533 13.5004 158.181 16.3742C159.161 17.4435 160.469 18.1118 161.874 18.2789C173.314 19.3817 205.771 25.4634 207.079 25.7308C210.87 25.5971 211.785 25.5637 212.014 25.5637C213.518 25.1293 225.546 23.6924 228.39 23.6924C235.286 23.6924 240.254 26.1986 243.556 27.8694C244.569 28.3707 245.419 28.8051 246.138 29.0724C249.112 30.1417 257.48 31.3447 262.187 31.9462C264.115 32.2136 266.043 31.3782 267.22 29.8076C268.593 28.0031 270.685 25.7976 272.94 25.5637C274.051 25.4634 275.097 25.831 276.045 26.6664L277.549 28.0031C278.562 28.9053 279.412 29.6739 280.589 30.6764C281.471 31.445 282.615 31.5452 283.726 31.6455C284.446 31.7123 285.099 31.7792 285.72 31.9797C286.014 32.0799 286.341 32.1802 286.668 32.3138C288.499 32.9153 290.787 33.6171 293.042 36.9587C295.395 37.0255 296.964 38.3956 297.095 39.6654C297.16 40.4006 296.703 41.0021 295.951 41.1692C295.918 41.1692 295.918 41.1692 295.885 41.1692C295.755 41.1692 292.78 41.2694 291.734 41.0021C290.983 40.835 284.446 40.1667 279.347 40.7014C276.699 40.9687 272.711 41.0021 271.208 41.0021C270.914 41.0021 270.718 41.0021 270.685 41.0021C269.083 41.4365 259.801 41.1358 236.692 40.0664C226.592 39.5986 217.015 39.1642 214.531 39.231C211.655 40.6679 204.856 40.3672 204.562 40.3672C204.071 40.3338 202.404 40.4006 199.822 40.5009C191.716 40.8016 174.818 41.4365 156.612 40.8684C156.122 40.8684 119.71 40.7682 118.696 40.7682C118.075 40.835 102.125 42.3388 100.589 42.6061C99.6407 42.8066 98.6928 42.8734 97.6796 42.8734ZM68.8181 32.5812C68.8835 32.5812 68.9162 32.5812 68.9815 32.6146C74.44 35.3213 91.0771 43.5752 100.392 41.9043C101.961 41.6036 117.912 40.0999 118.566 40.033H118.598C120.135 40.033 156.056 40.1333 156.546 40.1333C174.72 40.7014 191.618 40.0664 199.724 39.7657C202.404 39.6654 204.006 39.5986 204.496 39.632C206.915 39.7323 212.047 39.6654 214.171 38.5627C214.204 38.5293 214.269 38.5293 214.335 38.5293C216.721 38.4624 225.938 38.8634 236.626 39.3647C250.289 39.9996 268.953 40.835 270.358 40.3672C270.456 40.3004 270.521 40.3004 271.142 40.3004C272.646 40.3004 276.568 40.2335 279.216 39.9996C284.511 39.4649 291.081 40.1333 291.865 40.3338C292.78 40.5677 295.493 40.4674 295.787 40.4674C296.18 40.3672 296.343 40.1667 296.31 39.7991C296.212 38.9303 294.97 37.7607 292.813 37.7607C292.682 37.7607 292.584 37.6939 292.519 37.5936C290.362 34.3522 288.27 33.6839 286.407 33.0824C286.08 32.9821 285.753 32.8819 285.426 32.7482C284.903 32.5477 284.282 32.5143 283.628 32.4475C282.452 32.3472 281.112 32.247 280.066 31.3113C278.889 30.2754 278.039 29.5068 277.026 28.6046L275.522 27.2679C274.738 26.5662 273.921 26.2654 273.006 26.3657C271.012 26.5662 269.083 28.638 267.809 30.3088C266.468 32.0799 264.278 33.0156 262.089 32.7482C257.349 32.1467 248.949 30.9437 245.909 29.8076C245.157 29.5403 244.275 29.0724 243.262 28.5712C240.026 26.9338 235.156 24.461 228.422 24.461C225.448 24.461 213.256 25.9647 212.21 26.2989C212.177 26.2989 212.112 26.3323 212.079 26.3323C211.981 26.3323 208.778 26.4325 207.111 26.4994C207.079 26.4994 207.046 26.4994 207.046 26.4994C206.719 26.4325 173.445 20.1836 161.809 19.0475C160.24 18.8804 158.769 18.1452 157.658 16.9088C155.141 14.1687 150.63 12.2305 146.12 11.9298C136.968 11.3617 131.575 14.436 127.652 16.7083L127.587 16.7417C124.907 18.2789 121.769 18.7802 118.762 18.1118C116.768 17.6774 115.134 17.243 113.565 16.842C108.041 15.4385 103.269 14.2021 85.4224 12.7986C76.0743 12.0634 68.6547 18.2121 68.5566 18.2789C68.5239 18.3123 68.4586 18.3457 68.4259 18.3457C67.9029 18.4794 56.4302 21.7208 51.985 21.2196C52.1157 21.4201 52.2465 21.654 52.4099 21.8879C56.5283 28.638 58.2606 32.1467 58.1953 33.6505L68.7854 32.5812C68.7854 32.5812 68.8181 32.5812 68.8181 32.5812Z" fill="black"/>
</g>
<g opacity="0.4">
<path opacity="0.4" d="M115.493 33.7842C118.141 35.0874 122.128 37.6605 120.788 40.3672C120.788 40.3672 116.67 42.7732 113.369 43.4415C110.525 44.0096 106.112 44.3438 103.988 44.3438C100.621 44.3772 80.3561 42.1049 79.539 42.272L78.6891 42.3054C78.3623 42.439 77.4798 42.8735 77.0875 43.1074C76.0416 43.7423 72.9365 44.2435 71.6617 44.3438C69.2757 44.4775 66.3013 43.9094 65.3207 43.3079C64.3728 43.5084 63.2942 43.7423 62.5097 43.7089C61.758 44.0096 59.6988 44.6445 59.6988 44.6445C59.6988 44.6445 57.2473 45.7807 56.0706 45.6136C55.8418 45.5802 55.515 45.2794 55.4496 45.079C54.8613 45.2794 54.2076 45.4131 53.7826 45.3463C53.1616 45.246 52.9328 44.9787 52.8675 44.7448C52.606 44.6445 52.3118 44.444 52.2137 44.1433C52.0176 43.4081 55.4169 42.272 55.4169 42.272C55.4169 42.272 56.5936 41.6705 58.6528 41.0356C59.7968 40.7014 60.7447 40.4341 61.5292 40.1667C62.7058 39.6989 64.1767 39.6989 64.765 39.465C65.5168 39.1642 72.675 38.1617 77.0549 36.7917C78.7872 36.5912 81.925 36.4909 84.5399 36.2904C86.4683 35.9563 97.5815 35.5218 106.374 35.2545L115.493 33.7842Z" fill="white"/>
<path opacity="0.4" d="M56.2993 46.0145C56.2012 46.0145 56.1032 46.0145 56.0051 45.9811C55.7763 45.9477 55.4821 45.7472 55.2533 45.5133C54.5996 45.7138 54.0766 45.7806 53.6844 45.7138C52.9653 45.6135 52.6712 45.2794 52.5404 45.012C52.1809 44.8449 51.9194 44.5776 51.8213 44.2435C51.6252 43.5083 52.7692 42.7397 55.2533 41.9043C55.4494 41.8041 56.5934 41.236 58.5219 40.6679C59.0449 40.5008 59.5352 40.3671 59.9928 40.2335C60.5157 40.0664 60.9733 39.9327 61.3982 39.8325C62.0846 39.5651 62.9018 39.4315 63.5882 39.3312C64.0131 39.2644 64.4053 39.1976 64.6341 39.1307C64.8956 39.0305 65.7127 38.8634 67.347 38.5627C70.0273 38.0614 74.0803 37.3262 76.9239 36.424C76.9566 36.424 76.9566 36.424 76.9893 36.424C78.0353 36.2903 79.5715 36.2235 81.1731 36.1233C82.2844 36.0564 83.3957 35.9896 84.4743 35.9228C86.3701 35.5886 96.7968 35.1542 106.341 34.8868C106.537 34.8868 106.701 35.0539 106.733 35.2544C106.733 35.4549 106.57 35.622 106.374 35.6554C96.8295 35.9562 86.4028 36.3906 84.6051 36.6913H84.5724C83.4938 36.7582 82.3498 36.825 81.2384 36.8918C79.6369 36.9921 78.1333 37.0589 77.1201 37.1926C74.2437 38.0948 70.158 38.8634 67.4778 39.3312C66.203 39.5651 65.1244 39.7656 64.8956 39.8325C64.6014 39.9327 64.1765 39.9996 63.6862 40.0664C63.0325 40.1666 62.2807 40.2669 61.627 40.5342C61.1694 40.6679 60.7118 40.8016 60.1889 40.9686C59.7313 41.1023 59.241 41.236 58.718 41.4031C56.7242 42.0046 55.5802 42.606 55.5475 42.606C55.5148 42.606 55.5148 42.6395 55.4821 42.6395C54.044 43.1073 52.7038 43.7756 52.5404 44.0764C52.6058 44.2435 52.8019 44.3437 52.9326 44.3771C53.0634 44.4105 53.1614 44.5442 53.1614 44.6779C53.1614 44.7113 53.2922 44.9118 53.7498 44.9786C53.9786 45.012 54.4362 45.012 55.2533 44.7447C55.4494 44.6779 55.6456 44.7781 55.7109 44.9786C55.7436 45.0455 55.9397 45.2125 56.0378 45.2459C56.8876 45.3796 58.8161 44.611 59.4698 44.3103C59.4698 44.3103 59.5025 44.3103 59.5025 44.2769C59.5352 44.2769 61.5617 43.642 62.2807 43.3412C62.3134 43.3078 62.3788 43.3078 62.4115 43.3078C63.196 43.3412 64.3073 43.0739 65.1571 42.9068C65.2551 42.8734 65.3532 42.9068 65.4186 42.9402C66.3338 43.5083 69.2755 44.0764 71.5308 43.9427C72.7729 43.8759 75.8126 43.3412 76.7932 42.7731C77.1854 42.5392 78.0679 42.1382 78.4275 41.9711C78.4602 41.9377 78.5255 41.9377 78.5582 41.9377L79.4081 41.9043C79.931 41.8375 82.7093 42.1048 89.2464 42.7397C95.1952 43.3078 101.961 43.9761 103.857 43.9761C103.89 43.9761 103.89 43.9761 103.922 43.9761C106.047 43.9761 110.459 43.642 113.238 43.0739C116.147 42.4724 119.808 40.4674 120.461 40.0998C120.69 39.5986 120.69 39.0973 120.527 38.5627C119.84 36.5577 116.637 34.7866 115.297 34.1517C107.158 30.1751 102.255 27.9696 100.327 27.435C97.9408 26.7332 94.0186 24.3941 90.9134 22.5228C89.2791 21.5537 87.4487 20.4509 87.0565 20.3841C86.8604 20.4175 86.697 20.2839 86.6643 20.0834C86.6316 19.8829 86.7296 19.6824 86.9584 19.6155C87.3507 19.5153 88.2005 19.9831 91.3056 21.8544C94.2474 23.5921 98.235 25.9981 100.556 26.6664C102.517 27.2345 107.452 29.44 115.656 33.4499C117.454 34.3188 120.527 36.0898 121.278 38.2953C121.54 39.0639 121.475 39.7991 121.148 40.5342C121.115 40.6011 121.05 40.6679 120.984 40.7013C120.821 40.8016 116.768 43.1407 113.434 43.809C110.459 44.4105 106.047 44.7113 103.955 44.7113C103.922 44.7113 103.922 44.7113 103.89 44.7113C101.961 44.7113 95.1952 44.043 89.2138 43.4749C84.6704 43.0405 79.9964 42.5726 79.5388 42.6395H79.5061L78.7217 42.6729C78.3948 42.84 77.5777 43.2075 77.2181 43.408C76.0741 44.0764 72.9363 44.611 71.6289 44.6779C69.2428 44.8115 66.3665 44.2769 65.2225 43.642C64.4053 43.809 63.3267 44.043 62.5422 44.043C61.7905 44.3437 60.0254 44.8784 59.7966 44.9452C59.5025 45.1457 57.5413 46.0145 56.2993 46.0145Z" fill="black"/>
</g>
<g opacity="0.4">
<path opacity="0.4" d="M89.2796 36.0566C89.2469 36.0566 89.2142 36.0566 89.1815 36.0566C88.5932 35.9229 87.4819 35.8561 86.2071 35.7558C83.0693 35.5553 78.7548 35.288 76.3361 33.6506C76.1726 33.5503 76.1073 33.3164 76.238 33.1159C76.3361 32.9489 76.5649 32.882 76.761 33.0157C79.049 34.5528 83.2327 34.8202 86.2725 34.9873C87.6453 35.0875 88.7239 35.1543 89.3776 35.288C89.5737 35.3214 89.7045 35.5553 89.6391 35.7558C89.6064 35.9229 89.443 36.0566 89.2796 36.0566Z" fill="black"/>
</g>
<g opacity="0.4">
<path opacity="0.4" d="M55.4498 45.48C55.3518 45.48 55.2537 45.4465 55.1884 45.3797C55.0903 45.2795 55.0576 45.1458 55.0576 44.9787C55.0903 44.8116 55.1557 44.3104 58.7511 42.4725C58.7511 42.4725 58.7838 42.4725 58.7838 42.4391C58.7838 42.4391 60.3854 41.871 62.4119 41.2361C64.4384 40.6346 65.0267 40.4007 66.04 40.0331C66.2361 39.9662 66.4322 40.0665 66.5303 40.267C66.5957 40.4675 66.4976 40.668 66.3015 40.7682C65.2882 41.1692 64.6672 41.3697 62.6407 42.0046C60.7449 42.5727 59.2741 43.1074 59.078 43.1742C57.7378 43.876 56.1689 44.7782 55.8421 45.1458C55.8421 45.246 55.8094 45.3463 55.744 45.4131C55.6133 45.4465 55.5152 45.48 55.4498 45.48Z" fill="black"/>
</g>
<g opacity="0.4">
<path opacity="0.4" d="M52.8677 45.1457C52.6716 45.1457 52.5408 45.0121 52.5082 44.8116C52.4101 44.043 55.4826 42.6395 55.8748 42.5393C56.2343 42.439 58.1955 41.637 59.9278 40.9353C64.1443 39.1976 64.2096 39.1976 64.4057 39.231C64.6019 39.2644 64.7326 39.4649 64.6999 39.6654C64.6672 39.8325 64.5038 39.9662 64.3404 39.9662C64.0135 40.033 61.889 40.9019 60.222 41.6036C58.2935 42.4056 56.4958 43.1408 56.0709 43.241C55.3518 43.4415 53.5214 44.5108 53.2272 44.845C53.1946 44.9787 53.0638 45.0789 52.9331 45.1123C52.9004 45.1457 52.8677 45.1457 52.8677 45.1457Z" fill="black"/>
</g>
</g>
</g>
<defs>
<clipPath id="clip0_139_927">
<rect width="300" height="67" fill="white"/>
</clipPath>
</defs>
</svg>
