<svg width="303" height="104" viewBox="0 0 303 104" fill="none" xmlns="http://www.w3.org/2000/svg">
<path d="M84.3711 101V88.1152H86.1201L92.8877 98.2314V88.1152H94.5225V101H92.7734L86.0059 90.875V101H84.3711ZM103.285 99.8486C102.699 100.347 102.134 100.698 101.589 100.903C101.05 101.108 100.47 101.211 99.8486 101.211C98.8232 101.211 98.0352 100.962 97.4844 100.464C96.9336 99.96 96.6582 99.3184 96.6582 98.5391C96.6582 98.082 96.7607 97.666 96.9658 97.291C97.1768 96.9102 97.4492 96.6055 97.7832 96.377C98.123 96.1484 98.5039 95.9756 98.9258 95.8584C99.2363 95.7764 99.7051 95.6973 100.332 95.6211C101.609 95.4688 102.55 95.2871 103.153 95.0762C103.159 94.8594 103.162 94.7217 103.162 94.6631C103.162 94.0186 103.013 93.5645 102.714 93.3008C102.31 92.9434 101.709 92.7646 100.912 92.7646C100.168 92.7646 99.6172 92.8965 99.2598 93.1602C98.9082 93.418 98.6475 93.8779 98.4775 94.54L96.9307 94.3291C97.0713 93.667 97.3027 93.1338 97.625 92.7295C97.9473 92.3193 98.4131 92.0059 99.0225 91.7891C99.6318 91.5664 100.338 91.4551 101.141 91.4551C101.938 91.4551 102.585 91.5488 103.083 91.7363C103.581 91.9238 103.947 92.1611 104.182 92.4482C104.416 92.7295 104.58 93.0869 104.674 93.5205C104.727 93.79 104.753 94.2764 104.753 94.9795V97.0889C104.753 98.5596 104.785 99.4912 104.85 99.8838C104.92 100.271 105.055 100.643 105.254 101H103.602C103.438 100.672 103.332 100.288 103.285 99.8486ZM103.153 96.3154C102.579 96.5498 101.718 96.749 100.569 96.9131C99.9189 97.0068 99.459 97.1123 99.1895 97.2295C98.9199 97.3467 98.7119 97.5195 98.5654 97.748C98.4189 97.9707 98.3457 98.2197 98.3457 98.4951C98.3457 98.917 98.5039 99.2686 98.8203 99.5498C99.1426 99.8311 99.6113 99.9717 100.227 99.9717C100.836 99.9717 101.378 99.8398 101.853 99.5762C102.327 99.3066 102.676 98.9404 102.898 98.4775C103.068 98.1201 103.153 97.5928 103.153 96.8955V96.3154ZM102.679 88.1328H103.76C103.672 88.8652 103.402 89.4277 102.951 89.8203C102.506 90.2129 101.911 90.4092 101.167 90.4092C100.417 90.4092 99.8164 90.2158 99.3652 89.8291C98.9199 89.4365 98.6533 88.8711 98.5654 88.1328H99.6465C99.7285 88.5312 99.8896 88.8301 100.13 89.0293C100.376 89.2227 100.704 89.3193 101.114 89.3193C101.589 89.3193 101.946 89.2256 102.187 89.0381C102.433 88.8447 102.597 88.543 102.679 88.1328ZM102.178 87.4033H100.903L98.873 84.9424H100.991L102.178 87.4033ZM107.214 101V91.666H108.629V92.9756C108.922 92.5186 109.312 92.1523 109.798 91.877C110.284 91.5957 110.838 91.4551 111.459 91.4551C112.15 91.4551 112.716 91.5986 113.155 91.8857C113.601 92.1729 113.914 92.5742 114.096 93.0898C114.834 92 115.795 91.4551 116.979 91.4551C117.904 91.4551 118.616 91.7129 119.114 92.2285C119.612 92.7383 119.861 93.5264 119.861 94.5928V101H118.288V95.1201C118.288 94.4873 118.235 94.0332 118.13 93.7578C118.03 93.4766 117.846 93.251 117.576 93.0811C117.307 92.9111 116.99 92.8262 116.627 92.8262C115.971 92.8262 115.426 93.0459 114.992 93.4854C114.559 93.9189 114.342 94.6162 114.342 95.5771V101H112.76V94.9355C112.76 94.2324 112.631 93.7051 112.373 93.3535C112.115 93.002 111.693 92.8262 111.107 92.8262C110.662 92.8262 110.249 92.9434 109.868 93.1777C109.493 93.4121 109.221 93.7549 109.051 94.2061C108.881 94.6572 108.796 95.3076 108.796 96.1572V101H107.214ZM127.218 101V91.666H128.633V92.9756C128.926 92.5186 129.315 92.1523 129.802 91.877C130.288 91.5957 130.842 91.4551 131.463 91.4551C132.154 91.4551 132.72 91.5986 133.159 91.8857C133.604 92.1729 133.918 92.5742 134.1 93.0898C134.838 92 135.799 91.4551 136.982 91.4551C137.908 91.4551 138.62 91.7129 139.118 92.2285C139.616 92.7383 139.865 93.5264 139.865 94.5928V101H138.292V95.1201C138.292 94.4873 138.239 94.0332 138.134 93.7578C138.034 93.4766 137.85 93.251 137.58 93.0811C137.311 92.9111 136.994 92.8262 136.631 92.8262C135.975 92.8262 135.43 93.0459 134.996 93.4854C134.562 93.9189 134.346 94.6162 134.346 95.5771V101H132.764V94.9355C132.764 94.2324 132.635 93.7051 132.377 93.3535C132.119 93.002 131.697 92.8262 131.111 92.8262C130.666 92.8262 130.253 92.9434 129.872 93.1777C129.497 93.4121 129.225 93.7549 129.055 94.2061C128.885 94.6572 128.8 95.3076 128.8 96.1572V101H127.218ZM141.623 96.333C141.623 94.6045 142.104 93.3242 143.064 92.4922C143.867 91.8008 144.846 91.4551 146 91.4551C147.283 91.4551 148.332 91.877 149.146 92.7207C149.961 93.5586 150.368 94.7188 150.368 96.2012C150.368 97.4023 150.187 98.3486 149.823 99.04C149.466 99.7256 148.941 100.259 148.25 100.64C147.564 101.021 146.814 101.211 146 101.211C144.693 101.211 143.636 100.792 142.827 99.9541C142.024 99.1162 141.623 97.9092 141.623 96.333ZM143.249 96.333C143.249 97.5283 143.51 98.4248 144.031 99.0225C144.553 99.6143 145.209 99.9102 146 99.9102C146.785 99.9102 147.438 99.6113 147.96 99.0137C148.481 98.416 148.742 97.5049 148.742 96.2803C148.742 95.126 148.479 94.2529 147.951 93.6611C147.43 93.0635 146.779 92.7646 146 92.7646C145.209 92.7646 144.553 93.0605 144.031 93.6523C143.51 94.2441 143.249 95.1377 143.249 96.333ZM145.033 103.856V102.055H146.835V103.856H145.033ZM152.24 89.9346V88.1152H153.822V89.9346H152.24ZM152.24 101V91.666H153.822V101H152.24ZM164.703 99.585L164.932 100.982C164.486 101.076 164.088 101.123 163.736 101.123C163.162 101.123 162.717 101.032 162.4 100.851C162.084 100.669 161.861 100.432 161.732 100.139C161.604 99.8398 161.539 99.2158 161.539 98.2666V92.8965H160.379V91.666H161.539V89.3545L163.112 88.4053V91.666H164.703V92.8965H163.112V98.3545C163.112 98.8057 163.139 99.0957 163.191 99.2246C163.25 99.3535 163.341 99.4561 163.464 99.5322C163.593 99.6084 163.774 99.6465 164.009 99.6465C164.185 99.6465 164.416 99.626 164.703 99.585ZM174.881 93.5029V91.666H176.577V93.1162C176.577 94.0361 176.472 94.6777 176.261 95.041C175.722 95.9785 174.898 96.5059 173.791 96.623V101H172.376V99.6289C171.649 100.684 170.662 101.211 169.414 101.211C168.869 101.211 168.356 101.108 167.876 100.903C167.401 100.692 167.047 100.426 166.812 100.104C166.578 99.7812 166.414 99.3887 166.32 98.9258C166.256 98.6094 166.224 98.1172 166.224 97.4492V91.666H167.806V96.8428C167.806 97.6807 167.838 98.2373 167.902 98.5127C168.107 99.4033 168.717 99.8486 169.73 99.8486C170.217 99.8486 170.665 99.7256 171.075 99.4795C171.491 99.2334 171.784 98.9023 171.954 98.4863C172.124 98.0703 172.209 97.4639 172.209 96.667V91.666H173.791V95.9551C174.535 95.8262 175.092 95.4775 175.461 94.9092C175.625 94.6631 175.707 94.1943 175.707 93.5029H174.881ZM186.781 99.585L187.01 100.982C186.564 101.076 186.166 101.123 185.814 101.123C185.24 101.123 184.795 101.032 184.479 100.851C184.162 100.669 183.939 100.432 183.811 100.139C183.682 99.8398 183.617 99.2158 183.617 98.2666V92.8965H182.457V91.666H183.617V89.3545L185.19 88.4053V91.666H186.781V92.8965H185.19V98.3545C185.19 98.8057 185.217 99.0957 185.27 99.2246C185.328 99.3535 185.419 99.4561 185.542 99.5322C185.671 99.6084 185.853 99.6465 186.087 99.6465C186.263 99.6465 186.494 99.626 186.781 99.585ZM188.337 101V88.1152H189.919V92.7383C190.657 91.8828 191.589 91.4551 192.714 91.4551C193.405 91.4551 194.006 91.5928 194.516 91.8682C195.025 92.1377 195.389 92.5127 195.605 92.9932C195.828 93.4736 195.939 94.1709 195.939 95.085V101H194.357V95.085C194.357 94.2939 194.185 93.7197 193.839 93.3623C193.499 92.999 193.016 92.8174 192.389 92.8174C191.92 92.8174 191.478 92.9404 191.062 93.1865C190.651 93.4268 190.358 93.7549 190.183 94.1709C190.007 94.5869 189.919 95.1611 189.919 95.8936V101H188.337ZM204.746 97.9941L206.381 98.1963C206.123 99.1514 205.646 99.8926 204.948 100.42C204.251 100.947 203.36 101.211 202.276 101.211C200.911 101.211 199.827 100.792 199.024 99.9541C198.228 99.1104 197.829 97.9297 197.829 96.4121C197.829 94.8418 198.233 93.623 199.042 92.7559C199.851 91.8887 200.899 91.4551 202.188 91.4551C203.437 91.4551 204.456 91.8799 205.247 92.7295C206.038 93.5791 206.434 94.7744 206.434 96.3154C206.434 96.4092 206.431 96.5498 206.425 96.7373H199.464C199.522 97.7627 199.812 98.5479 200.334 99.0928C200.855 99.6377 201.506 99.9102 202.285 99.9102C202.865 99.9102 203.36 99.7578 203.771 99.4531C204.181 99.1484 204.506 98.6621 204.746 97.9941ZM199.552 95.4365H204.764C204.693 94.6514 204.494 94.0625 204.166 93.6699C203.662 93.0605 203.009 92.7559 202.206 92.7559C201.479 92.7559 200.867 92.999 200.369 93.4854C199.877 93.9717 199.604 94.6221 199.552 95.4365ZM202.153 89.0117L201.16 90.5059H199.35L201.248 88.0449H202.936L204.913 90.5059H203.12L202.153 89.0117ZM202.435 84.9424H204.553L202.522 87.4033H201.248L202.435 84.9424Z" fill="#20315C"/>
<g clip-path="url(#clip0_139_927)">
<path d="M291.945 66.8327H10.381C7.50893 66.8327 5.16504 64.4602 5.16504 61.5529V42.94C5.16504 40.0327 7.50893 37.6602 10.381 37.6602H291.945C294.817 37.6602 297.161 40.0327 297.161 42.94V61.5529C297.161 64.4602 294.817 66.8327 291.945 66.8327Z" fill="#E4E4E4" stroke="black" stroke-miterlimit="10"/>
<path d="M28.2407 37.6602V66.8327" stroke="black" stroke-miterlimit="10"/>
<path d="M49.4351 37.6602V66.8327" stroke="black" stroke-miterlimit="10"/>
<path d="M76.1089 42.5056V66.8328" stroke="black" stroke-miterlimit="10"/>
<path d="M100.935 40.1665V66.8328" stroke="black" stroke-miterlimit="10"/>
<path d="M127.08 37.4932V66.8328" stroke="black" stroke-miterlimit="10"/>
<path d="M151.146 37.7271V66.8328" stroke="black" stroke-miterlimit="10"/>
<path d="M180.528 37.7271V66.8328" stroke="black" stroke-miterlimit="10"/>
<path d="M213.177 37.5601V66.8329" stroke="black" stroke-miterlimit="10"/>
<path d="M246.982 37.6602V66.8327" stroke="black" stroke-miterlimit="10"/>
<path d="M277.089 37.7271V66.8328" stroke="black" stroke-miterlimit="10"/>
<path d="M58.0179 38.2618C58.0179 37.4932 57.7208 36.8917 57.4897 36.2234C56.8295 34.6862 55.443 32.8818 51.2504 31.9795C49.4347 31.5785 44.8789 31.1441 42.337 31.0439C38.5405 30.9102 30.9807 30.9102 27.1842 31.0439C24.6423 31.1441 20.1195 31.5785 18.2708 31.9795C14.1113 32.8818 12.7247 34.6528 12.0315 36.2234C11.8004 36.9252 11.5033 37.5266 11.5033 38.2618C11.5033 38.2618 10.909 42.5057 15.6628 42.5057H15.8939H53.5282H53.7593C58.6122 42.5057 58.0179 38.2618 58.0179 38.2618Z" fill="#EAEAEA" stroke="black" stroke-miterlimit="10"/>
<path d="M36.0646 38.9304C42.1389 37.861 44.4167 36.2905 46.3315 35.288C51.7125 32.3139 57.6548 35.1209 59.0413 36.7583V36.7249C62.3425 40.1334 70.8598 42.673 79.9052 42.673C89.3138 42.673 100.802 39.4316 111.762 37.7274C114.7 37.2595 117.672 37.8945 120.181 39.4316C124.076 41.8042 131.966 44.7114 139.46 44.3104C143.95 44.0765 148.142 43.074 150.882 40.3004C151.972 39.1977 153.391 38.5294 154.91 38.4291C166.86 37.6605 199.972 35.7558 199.972 35.7558C199.972 35.7558 204.99 36.658 205.023 36.658C206.112 37.059 214.101 40.0999 221.43 40.0999C225.953 40.0999 236.12 37.9947 239.323 37.4266C243.581 36.658 253.419 36.3573 257.711 36.9588C259.824 37.2595 263.851 38.5962 264.577 38.9972C265.436 39.4984 271.84 40.7014 271.642 34.3523C271.543 31.9463 271.411 30.9104 271.345 28.6047C271.279 26.5329 271.411 22.4895 271.411 22.3892C271.411 22.3892 271.807 20.3174 271.642 17.3099C271.51 15.2381 271.576 13.1663 271.84 11.0945C271.972 10.0585 272.005 8.9558 271.741 8.1538C271.444 7.21814 268.935 6.3159 268.935 8.02014C268.935 9.75779 268.275 12.3977 267.945 13.066C267.581 13.8012 265.535 17.7109 263.092 22.3892C262.861 22.8236 262.63 23.2246 262.398 23.659C260.781 26.6331 257.579 28.3039 254.244 27.9698C241.832 26.6665 211.823 23.5254 207.135 23.2246C203.999 21.2531 200.401 20.685 198.321 20.7184C196.241 20.7518 175.741 15.6057 151.443 15.472C144.544 12.0969 123.053 11.9633 113.149 12.8655C108.989 11.9299 96.3785 12.5648 94.7609 12.3643C79.7402 10.5932 66.7332 17.7443 62.4746 20.4176C62.4086 20.4511 62.3425 20.5179 62.2765 20.5513C60.5269 21.487 54.5516 20.8521 51.5475 20.6516L51.5805 20.5847C51.8776 19.0476 52.0426 17.4436 52.0096 16.5748C51.9766 15.5388 50.9862 14.3693 49.8308 14.2022C48.7414 14.0351 43.5254 13.868 43.1953 13.868C43.1293 13.6007 42.502 10.8605 41.6767 11.3618C40.2902 12.1304 36.3617 13.8346 36.0646 13.9683C35.3053 14.0017 32.8624 14.2356 32.0701 14.269C24.2131 14.7034 20.8128 22.7902 22.3314 29.3398C23.8499 35.8895 27.7124 40.4007 36.0646 38.9304Z" fill="#E4E4E4"/>
<path d="M138.007 44.7447C131.174 44.7447 123.977 42.2385 119.949 39.7991C117.474 38.2953 114.568 37.6938 111.762 38.1283C108.131 38.6963 104.401 39.4315 100.802 40.1667C93.2753 41.6704 86.1776 43.0739 79.8722 43.0739C71.0249 43.0739 62.4416 40.6345 58.8763 37.1592C58.8102 37.1258 58.7442 37.0923 58.7112 37.0589C57.4237 35.5218 51.7456 32.7816 46.4966 35.6554C46.2325 35.7891 46.0014 35.9228 45.7373 36.0564C43.9546 37.0589 41.4787 38.3956 36.1306 39.3312L36.0646 38.9637L36.1306 39.3312C28.5377 40.6345 23.7839 37.3263 21.9683 29.4734C21.0439 25.5303 21.9022 21.2195 24.1471 18.1786C26.0618 15.6056 28.8018 14.1352 32.0371 13.9682C32.3672 13.9347 33.0275 13.9013 33.7207 13.8345C34.6121 13.7677 35.5034 13.6674 35.9656 13.6674C36.0646 13.634 36.2297 13.5672 36.4277 13.4669C37.6162 12.9322 40.3892 11.7293 41.4787 11.1278C41.7098 10.9941 41.9408 10.9941 42.1719 11.0943C42.8652 11.3951 43.2944 12.7986 43.4924 13.6006C44.6479 13.634 48.8735 13.8011 49.8638 13.9347C51.1513 14.1352 52.3068 15.4051 52.3728 16.6749C52.4058 17.5103 52.2407 18.9806 52.0097 20.4175C52.3398 20.4509 52.6699 20.4509 53.0331 20.4844C56.0702 20.7183 60.692 21.0524 62.0785 20.3173L62.2766 20.1836C66.007 17.8111 79.4431 10.2255 94.8269 12.0634C95.3221 12.1303 96.9397 12.0968 99.0195 12.0634C103.509 11.9966 110.277 11.9298 113.215 12.5647C122.921 11.6624 144.478 11.7627 151.575 15.1712C170.228 15.2714 186.404 18.2789 194.162 19.7158C196.34 20.1168 197.925 20.4175 198.354 20.4175C198.387 20.4175 198.42 20.4175 198.486 20.4175C200.797 20.4175 204.263 21.0859 207.301 22.9572C212.253 23.3248 241.799 26.3991 254.311 27.7023C257.48 28.0365 260.55 26.4325 262.101 23.5921C262.333 23.1577 262.564 22.7567 262.795 22.3223C264.941 18.212 267.284 13.7677 267.648 12.9991C267.978 12.3308 268.605 9.75768 268.605 8.12028C268.605 7.38511 269.001 6.88387 269.661 6.78362C270.619 6.61654 271.873 7.31828 272.137 8.12028C272.368 8.88886 272.434 9.92477 272.269 11.228C272.005 13.233 271.939 15.3048 272.071 17.3766C272.236 20.217 271.906 22.222 271.84 22.5228C271.84 22.5896 271.84 22.7233 271.84 22.9238C271.807 24.0599 271.741 27.034 271.774 28.7048C271.807 29.8744 271.873 30.6764 271.906 31.5452C271.972 32.3806 272.005 33.2495 272.071 34.419C272.137 36.6914 271.444 38.2619 269.991 39.1642C267.945 40.4006 265.106 39.7657 264.478 39.3981C263.818 38.9971 259.824 37.6938 257.744 37.3931C253.617 36.7916 243.879 37.0589 239.488 37.8275C238.96 37.9278 238.299 38.0614 237.474 38.1951C233.249 38.9971 225.359 40.5008 221.529 40.5008C216.94 40.5008 211.097 39.2978 205.122 37.0923L205.023 37.0589C204.759 37.0255 203.834 36.8584 200.038 36.1567C198.651 36.2235 166.596 38.0948 155.009 38.83C153.622 38.9303 152.269 39.5317 151.212 40.6011C148.736 43.0739 144.907 44.444 139.526 44.7447C138.998 44.7113 138.503 44.7447 138.007 44.7447ZM113.611 37.1926C115.955 37.1926 118.299 37.8609 120.346 39.0973C124.571 41.6704 132.329 44.2769 139.427 43.9093C144.61 43.642 148.274 42.3387 150.618 39.9996C151.807 38.83 153.325 38.0948 154.91 37.9946C166.728 37.2594 199.642 35.3547 200.005 35.3213C200.038 35.3213 200.071 35.3213 200.104 35.3213C202.052 35.6554 204.957 36.1901 205.122 36.2235C205.155 36.2235 205.188 36.2235 205.188 36.2569L205.32 36.3238C211.196 38.4958 216.94 39.6988 221.463 39.6988C225.226 39.6988 233.05 38.1951 237.276 37.3931C238.101 37.226 238.795 37.0924 239.29 37.0255C243.78 36.2235 253.617 35.9562 257.81 36.5577C259.857 36.8584 264.016 38.1617 264.808 38.6629C265.271 38.9303 267.813 39.4983 269.562 38.429C270.784 37.6938 271.345 36.3238 271.279 34.3522C271.246 33.1826 271.18 32.3138 271.114 31.4784C271.048 30.6096 271.015 29.7741 270.982 28.6046C270.916 26.9003 271.015 23.9263 271.048 22.7901C271.048 22.5562 271.048 22.3891 271.048 22.3891C271.048 22.3557 271.048 22.3223 271.048 22.3223C271.048 22.2889 271.444 20.2505 271.246 17.3432C271.114 15.238 271.18 13.1327 271.444 11.0609C271.609 9.85793 271.576 8.92227 271.345 8.28736C271.213 7.88636 270.289 7.3517 269.694 7.45195C269.496 7.48536 269.265 7.58561 269.265 8.05344C269.265 9.82452 268.605 12.5312 268.242 13.2664C267.912 13.9682 266.129 17.3766 263.356 22.5896C263.125 23.024 262.894 23.425 262.663 23.8594C260.979 26.9672 257.645 28.7048 254.145 28.3372C241.535 27.0006 211.724 23.8928 207.07 23.5921C207.004 23.5921 206.938 23.5587 206.904 23.5253C203.933 21.6874 200.434 21.0524 198.288 21.0524C197.76 21.0524 196.34 20.7851 193.964 20.3507C186.206 18.9138 170.029 15.9063 151.41 15.8061C151.344 15.8061 151.311 15.8061 151.245 15.7726C144.412 12.431 122.855 12.3642 113.215 13.2664C113.182 13.2664 113.149 13.2664 113.116 13.2664C110.31 12.6315 103.542 12.7317 99.0525 12.7986C96.8737 12.832 95.3221 12.832 94.7609 12.7986C79.6081 10.9941 66.4031 18.4794 62.7057 20.8185L62.5076 20.9522C60.89 21.821 56.3343 21.4869 53.0331 21.2195C52.5049 21.1861 52.0097 21.1527 51.5805 21.1193C51.4485 21.1193 51.3494 21.0524 51.2834 20.9522C51.2174 20.8519 51.2174 20.7183 51.2504 20.618V20.5846C51.5475 19.1143 51.7125 17.5103 51.6795 16.6749C51.6465 15.8395 50.8542 14.8036 49.7978 14.6699C48.9065 14.5362 45.11 14.4026 43.1953 14.3357C43.0303 14.3357 42.8652 14.2021 42.8322 14.035C42.5351 12.6649 42.0729 11.7961 41.8748 11.7627C40.7194 12.3976 37.9463 13.634 36.7249 14.1687C36.4277 14.3023 36.2627 14.3692 36.1967 14.4026C36.1636 14.3692 36.1306 14.3692 36.0646 14.3692C35.6354 14.3692 34.6451 14.4694 33.7867 14.5362C33.0935 14.6031 32.4332 14.6365 32.1031 14.6699C29.0659 14.837 26.524 16.2071 24.7743 18.5796C22.6615 21.4534 21.8692 25.5303 22.7275 29.2729C24.4772 36.7582 28.8018 39.7991 36.0316 38.5293C41.2476 37.627 43.6575 36.2904 45.4072 35.3213C45.6713 35.1876 45.9354 35.0205 46.1664 34.8869C51.6135 31.8794 57.5558 34.6195 59.1734 36.3238C59.2064 36.3572 59.2724 36.3572 59.3054 36.424C62.6397 39.8659 71.0909 42.2719 79.9053 42.2719C86.1446 42.2719 93.2093 40.8684 100.703 39.3647C104.335 38.6295 108.065 37.8943 111.696 37.3263C112.291 37.2594 112.951 37.1926 113.611 37.1926Z" fill="black"/>
<path d="M70.8926 38.8298C75.5804 38.6961 103.212 36.925 105.325 37.2926C107.47 37.6936 113.05 38.0278 116.912 38.0278C120.775 38.0278 143.058 36.9919 144.015 37.1589L145.006 37.1924C145.369 37.3594 146.392 37.8273 146.854 38.0946C148.076 38.7964 151.608 39.3644 153.061 39.4647C155.801 39.6318 159.168 38.93 160.291 38.2617C161.38 38.4956 162.634 38.7295 163.526 38.6961C164.384 39.0303 166.728 39.732 166.728 39.732C166.728 39.732 169.567 41.0018 170.888 40.8013C171.152 40.7679 171.548 40.4338 171.614 40.1998C172.307 40.4003 173.033 40.5674 173.529 40.4672C174.255 40.3669 174.519 40.0328 174.552 39.7988C174.849 39.6986 175.179 39.4647 175.278 39.1305C175.509 38.2951 171.482 37.4263 171.482 37.4263C171.482 37.4263 169.765 36.8582 167.388 36.1899C166.101 35.8223 165.011 35.5215 164.087 35.2542C162.766 34.753 161.545 34.2183 160.852 33.9844C159.993 33.6502 151.773 32.5475 146.788 31.0437C144.775 30.8098 141.242 30.7096 138.205 30.5091C135.696 30.0747 111.96 28.2368 107.801 27.8692C103.674 27.5016 82.513 26.6328 78.4855 25.8976C74.4579 25.1624 73.8637 24.1934 73.8637 24.1934L70.8926 38.8298Z" fill="#EAEAEA"/>
<path d="M170.624 41.2023C169.204 41.2023 166.893 40.1998 166.629 40.0996C166.365 40.0327 164.351 39.3978 163.493 39.0971C162.635 39.0971 161.578 38.93 160.39 38.6627C159.102 39.3644 155.801 39.9993 153.061 39.8322C151.576 39.7654 147.977 39.1639 146.69 38.4288C146.294 38.1948 145.336 37.7604 144.94 37.5933L144.049 37.5599C144.016 37.5599 144.016 37.5599 143.983 37.5599C143.454 37.4597 136.423 37.7604 130.216 37.9943C124.637 38.2283 118.827 38.4288 116.978 38.4288H116.945C112.918 38.4288 107.372 38.0612 105.292 37.6602C103.872 37.3928 90.0402 38.1614 80.8627 38.6627C76.34 38.93 72.4115 39.1305 70.9259 39.1639C70.6948 39.1639 70.5628 38.9968 70.5298 38.7963C70.5298 38.5958 70.6948 38.4288 70.8929 38.3953C72.3785 38.3619 76.307 38.128 80.8297 37.8941C93.4735 37.1923 104.038 36.6243 105.424 36.8916C107.471 37.2592 112.951 37.6268 116.945 37.6268H116.978C118.827 37.6268 124.571 37.3928 130.183 37.1923C138.338 36.8582 143.388 36.6911 144.082 36.7579L145.039 36.7913C145.072 36.7913 145.138 36.7913 145.171 36.8248C145.567 36.9918 146.591 37.4597 147.053 37.727C148.175 38.3953 151.675 38.9634 153.094 39.0303C155.735 39.1639 159.036 38.529 160.126 37.8941C160.192 37.8607 160.291 37.8273 160.39 37.8607C161.347 38.0612 162.635 38.3285 163.526 38.2951C163.559 38.2951 163.625 38.2951 163.658 38.3285C164.516 38.6627 166.827 39.3644 166.86 39.3644H166.893C167.653 39.6986 169.831 40.5674 170.855 40.4003C170.954 40.3669 171.218 40.1664 171.284 40.0662C171.35 39.8657 171.548 39.7654 171.746 39.8322C172.704 40.133 173.232 40.133 173.496 40.0996C174.057 40.0327 174.189 39.7988 174.222 39.732C174.255 39.5983 174.321 39.4981 174.453 39.4312C174.651 39.3644 174.882 39.2308 174.948 39.0303C174.717 38.6961 173.133 38.128 171.449 37.7604H171.416C171.383 37.7604 169.666 37.1923 167.356 36.524C166.761 36.3569 166.167 36.1899 165.672 36.0228C165.078 35.8557 164.549 35.6886 164.054 35.5549C163.295 35.2542 162.602 34.9869 162.008 34.7529C161.545 34.5524 161.116 34.3854 160.819 34.2851C160.555 34.1849 159.3 33.9844 157.881 33.717C154.778 33.1824 150.123 32.347 146.822 31.3445C145.633 31.2108 143.917 31.1106 142.101 31.0437C140.846 30.9769 139.526 30.9101 138.305 30.8432H138.272C136.423 30.5425 122.492 29.4063 114.205 28.738C111.3 28.5041 108.956 28.3036 107.933 28.2367C106.546 28.1031 103.146 27.936 99.2507 27.7355C91.2617 27.3011 81.2919 26.7664 78.5848 26.2652C74.5903 25.53 73.831 24.5609 73.699 24.3938C73.6 24.2268 73.633 23.9929 73.831 23.8592C73.9961 23.7589 74.2272 23.7924 74.3592 23.9929C74.3592 23.9929 75.0525 24.8617 78.7499 25.53C81.3909 26.0313 91.7568 26.5659 99.3167 27.0003C103.245 27.2008 106.612 27.4013 108.032 27.5016C109.088 27.6018 111.399 27.7689 114.304 28.0028C123.152 28.7046 136.489 29.8073 138.437 30.1415C139.658 30.2417 140.946 30.3086 142.2 30.342C144.049 30.4422 145.798 30.5091 147.02 30.6761C147.053 30.6761 147.053 30.6761 147.086 30.6761C150.354 31.6786 155.009 32.4806 158.079 33.0487C159.895 33.3495 160.852 33.55 161.149 33.6502C161.446 33.7839 161.875 33.951 162.371 34.118C162.965 34.3519 163.658 34.6527 164.384 34.92C164.847 35.0537 165.375 35.1874 165.969 35.3544C166.497 35.4881 167.058 35.6552 167.686 35.8557C169.898 36.4906 171.581 37.0253 171.746 37.0921C172.572 37.2592 175.246 37.9275 175.741 38.7295C175.873 38.9634 175.84 39.1305 175.807 39.2642C175.708 39.6317 175.411 39.9325 175.014 40.133C174.882 40.4003 174.585 40.7679 173.727 40.9016C173.265 40.9684 172.671 40.9016 171.911 40.7011C171.68 40.9684 171.35 41.1689 171.086 41.2357C170.855 41.2023 170.723 41.2023 170.624 41.2023Z" fill="black"/>
<path d="M171.614 40.6009C171.581 40.6009 171.548 40.6009 171.515 40.6009C171.35 40.5675 171.251 40.4338 171.218 40.2667C170.921 39.8991 168.907 38.8298 167.158 37.9944C166.96 37.9276 165.243 37.3261 163.064 36.6912C160.819 36.0228 160.423 35.9226 159.202 35.4548C159.004 35.3879 158.905 35.154 158.971 34.9535C159.037 34.753 159.268 34.6528 159.466 34.7196C160.621 35.154 160.951 35.2543 163.262 35.9226C165.606 36.5909 167.389 37.2258 167.422 37.2258H167.455C172.143 39.3979 172.011 39.9326 171.945 40.2333C171.945 40.4672 171.779 40.6009 171.614 40.6009Z" fill="black"/>
<path d="M174.552 40.1998C174.519 40.1998 174.519 40.1998 174.486 40.1998C174.354 40.1664 174.222 40.0661 174.189 39.9325C173.826 39.5649 171.449 38.3285 170.591 38.0946C170.096 37.9609 168.874 37.4262 167.719 36.925C166.86 36.5574 165.837 36.0896 165.573 36.0227C165.408 36.0227 165.243 35.8891 165.21 35.722C165.177 35.5215 165.309 35.321 165.507 35.2876C165.738 35.2542 166.035 35.3544 168.016 36.2566C169.105 36.7245 170.327 37.2926 170.756 37.3928C171.119 37.4931 175.014 39.0636 174.915 39.899C174.915 40.0661 174.75 40.1998 174.552 40.1998Z" fill="black"/>
<path d="M37.9138 31.2443C36.5273 31.2443 35.3719 30.7096 34.9757 29.774C34.5466 28.7715 35.0087 27.5685 36.1972 26.5994C36.3622 26.4657 36.5933 26.4991 36.7254 26.6662C36.8574 26.8333 36.8244 27.0672 36.6594 27.2009C35.768 27.9361 35.3719 28.8383 35.669 29.5066C36.1312 30.576 38.1119 30.8433 39.9606 30.1415C41.1821 29.6737 42.1725 28.8717 42.5026 28.0363C42.6676 27.6353 42.6676 27.2677 42.5356 26.967C42.4696 26.8333 42.3705 26.6662 42.2385 26.566C42.0734 26.4323 42.0734 26.1984 42.2385 26.0313C42.3705 25.8642 42.6016 25.8642 42.7667 26.0313C42.9648 26.2318 43.1298 26.4323 43.2289 26.6662C43.4599 27.1675 43.4269 27.769 43.1958 28.3371C42.7667 29.373 41.6443 30.3086 40.2247 30.8767C39.4324 31.1106 38.6401 31.2443 37.9138 31.2443Z" fill="black"/>
<g opacity="0.4">
<path opacity="0.4" d="M275.208 36.2904C275.109 34.4859 272.765 33.1827 264.71 33.4166C264.71 33.4166 255.334 33.049 254.74 32.9822C254.113 32.8485 244.638 31.9463 243.912 31.7124L241.865 30.9772C235.098 28.471 225.623 23.5922 219.912 22.6231C212.451 21.3533 204.594 21.9882 204.594 21.9882C204.594 21.9882 185.546 11.3617 171.482 7.75275C164.715 6.0151 160.456 5.14627 143.62 5.14627C128.962 5.14627 124.605 8.15375 120.412 8.15375C112.06 8.15375 95.8508 3.87645 86.8713 3.10787C68.4834 -5.78091 68.5164 9.62408 67.394 13.7009C66.8327 15.7393 65.6773 19.3817 60.9235 20.6515C59.8011 20.9523 53.7268 20.5513 51.647 20.7852V33.8844L64.3898 35.5218C66.3706 36.8585 67.0308 38.5961 67.427 39.9996C68.5494 44.0764 69.1766 49.9243 81.6884 48.8216C90.6678 48.0196 112.093 46.5158 120.445 46.5158C124.605 46.5158 128.995 49.0555 143.653 49.5233C148.275 49.657 150.024 49.8575 156.033 49.657C172.77 49.0889 197.43 47.652 202.646 47.3513C205.023 47.5852 214.135 48.5208 217.469 48.5208C225.194 48.5877 246.058 46.6161 251.901 46.048C252.693 45.9812 253.519 46.0146 254.278 46.1817C254.509 46.2485 254.839 46.2819 255.202 46.3488C255.532 46.3822 256.655 46.2485 257.051 46.2819C261.937 46.8834 270.025 47.9862 270.124 47.9862C280.325 48.9887 280.325 47.1842 281.579 44.4106C282.603 42.0715 288.248 34.2854 275.208 36.2904Z" fill="white"/>
<path opacity="0.4" d="M151.51 50.0912C149.628 50.0912 148.175 50.0243 146.426 49.9575C145.567 49.9241 144.643 49.8907 143.587 49.8573C134.277 49.5565 128.962 48.4204 125.463 47.6518C123.383 47.184 121.864 46.8498 120.379 46.8498C112.258 46.8498 91.1627 48.3535 81.6551 49.1555C69.6716 50.1914 68.252 44.8114 67.1956 40.9017C67.1296 40.6343 67.0636 40.3336 66.9646 40.0662C66.5684 38.6628 65.9412 37.0922 64.1585 35.8224L51.5147 34.2184C51.3166 34.1849 51.1846 34.0179 51.1846 33.8508V20.7515C51.1846 20.551 51.3166 20.3839 51.5147 20.3839C52.5381 20.2837 54.4198 20.3171 56.2685 20.3505C58.2162 20.3839 60.197 20.4174 60.7582 20.2837C65.446 19.0473 66.4694 15.3715 66.9646 13.6004C67.0966 13.0992 67.2287 12.4642 67.3607 11.6623C67.9879 8.25377 68.9123 3.07422 73.0719 0.93557C76.3071 -0.735253 80.9949 -0.133757 86.9371 2.74006C90.8326 3.07422 95.9496 4.0433 101.397 5.07921C108.428 6.41587 115.691 7.78594 120.379 7.78594C121.798 7.78594 123.284 7.41836 125.133 6.95053C128.665 6.0817 133.98 4.77846 143.554 4.77846C160.522 4.77846 164.814 5.68071 171.515 7.38495C184.951 10.8268 203.108 20.7515 204.627 21.5869C205.617 21.5201 212.979 21.0523 219.945 22.2553C223.741 22.9236 229.122 25.2293 234.338 27.5017C237.078 28.6712 239.653 29.8074 241.964 30.6762L244.011 31.378C244.407 31.5116 248.467 31.946 251.141 32.2134C253.287 32.4473 254.509 32.581 254.773 32.6144C255.202 32.6478 261.441 32.9151 264.677 33.0488C271.609 32.8817 274.977 33.7505 275.472 35.8892C279.829 35.2543 282.437 35.6887 283.494 37.1924C284.748 39.0303 283.263 41.8039 282.305 43.6418C282.107 44.0094 281.942 44.3435 281.81 44.5775C281.711 44.778 281.645 44.945 281.579 45.1455C280.391 47.8857 279.334 49.2892 269.992 48.3869C269.959 48.3869 269.628 48.3535 269.067 48.2533C266.822 47.9525 260.847 47.1505 256.919 46.6493C256.754 46.6159 256.357 46.6493 256.027 46.6827C255.631 46.7161 255.301 46.7161 255.103 46.7161C254.74 46.6827 254.41 46.6159 254.146 46.549C253.419 46.382 252.66 46.3485 251.868 46.4154C245.727 47.0169 225.095 48.9884 217.403 48.8882C214.101 48.8548 205.254 47.9859 202.58 47.7186C197.661 48.0194 172.77 49.4563 155.999 50.0243C154.184 50.0578 152.764 50.0912 151.51 50.0912ZM120.412 46.0812C121.963 46.0812 123.515 46.4154 125.628 46.8832C129.325 47.6852 134.343 48.7879 143.62 49.0887C144.709 49.1221 145.6 49.1555 146.459 49.1889C149.298 49.2892 151.378 49.3894 155.966 49.2224C172.77 48.6543 197.727 47.2174 202.58 46.9166C202.613 46.9166 202.613 46.9166 202.646 46.9166C205.287 47.1839 214.134 48.0528 217.436 48.0862C225.095 48.153 245.694 46.2149 251.835 45.6134C252.693 45.5131 253.551 45.58 254.344 45.747C254.608 45.8139 254.905 45.8473 255.235 45.8807C255.367 45.8807 255.73 45.8807 256.027 45.8473C256.456 45.8139 256.853 45.7805 257.084 45.8139C261.012 46.3151 266.987 47.1171 269.232 47.4179C269.761 47.4847 270.091 47.5181 270.124 47.5515C279.334 48.4538 279.961 47.0837 280.952 44.778C281.018 44.6109 281.117 44.4104 281.216 44.2099C281.348 43.9426 281.513 43.6084 281.711 43.2074C282.536 41.6368 283.956 38.9969 282.966 37.56C282.074 36.2902 279.499 35.9894 275.307 36.6243C275.208 36.6243 275.109 36.6243 275.01 36.5575C274.943 36.4907 274.877 36.3904 274.877 36.2902C274.778 34.4189 271.477 33.5835 264.776 33.7505C264.379 33.7505 255.334 33.3829 254.773 33.3161C254.509 33.2827 252.891 33.0822 251.174 32.9151C247.312 32.5141 244.308 32.18 243.879 32.0463L241.799 31.3111C239.455 30.4423 236.88 29.3061 234.14 28.1366C228.957 25.8977 223.609 23.5919 219.912 22.957C212.583 21.6872 204.759 22.3221 204.66 22.3221C204.594 22.3221 204.528 22.3221 204.462 22.2887C204.264 22.1884 185.314 11.6623 171.449 8.12011C164.814 6.41587 160.555 5.51363 143.686 5.51363C134.178 5.51363 129.127 6.75003 125.43 7.68569C123.515 8.15353 121.996 8.52111 120.478 8.52111C115.691 8.52111 108.395 7.15103 101.364 5.81437C95.9165 4.77846 90.7666 3.80939 86.9041 3.47522C86.8711 3.47522 86.8051 3.47522 86.7721 3.4418C81.0279 0.668238 76.5382 0.0333257 73.501 1.6039C69.7046 3.57547 68.7802 8.52111 68.186 11.7959C68.054 12.5979 67.9219 13.2662 67.7899 13.8009C67.2617 15.7056 66.1723 19.6488 61.0553 21.0189C60.3951 21.1859 58.5464 21.1525 56.3675 21.1191C54.7499 21.0857 53.0663 21.0523 52.0429 21.1191V33.5166L64.4556 35.1206C64.5216 35.1206 64.5546 35.154 64.6207 35.1874C66.6675 36.5909 67.3607 38.3286 67.7899 39.8992C67.8559 40.1665 67.9549 40.4338 68.021 40.7346C69.0443 44.6109 70.2988 49.4229 81.6882 48.4538C91.1627 47.5849 112.291 46.0812 120.412 46.0812Z" fill="black"/>
</g>
<g opacity="0.4">
<g opacity="0.4">
<path opacity="0.4" d="M288.38 32.3473C290.46 33.1159 293.034 33.3832 295.708 37.3264C299.373 37.3264 300.66 40.4007 298.746 40.8017C298.746 40.8017 295.675 40.9019 294.652 40.668C293.86 40.4675 287.224 39.8326 282.008 40.3338C278.707 40.668 273.293 40.6346 273.26 40.668C272.27 41.6371 222.421 38.6964 216.478 38.8969C214.101 40.1333 208.588 40.1333 206.509 40.0331C204.429 39.9328 182.376 41.3029 158.079 40.5343C157.584 40.5343 119.752 40.4341 119.752 40.4341C119.752 40.4341 103.014 42.0047 101.43 42.3054C92.1202 43.9762 76.0101 36.1902 69.4736 32.9822L58.1833 34.1184C59.7349 32.9488 51.3167 20.3174 51.7459 20.685C55.2782 21.8545 68.9784 17.9782 68.9784 17.9782C68.9784 17.9782 76.5713 11.6625 86.277 12.4311C109.485 14.2356 110.904 15.7727 120.016 17.7109C122.954 18.3458 126.024 17.878 128.665 16.3742C132.627 14.1353 138.206 10.9274 147.581 11.5289C152.071 11.7962 156.825 13.7343 159.466 16.6082C160.522 17.7443 161.909 18.4795 163.427 18.6131C175.312 19.7827 209.15 26.0984 209.15 26.0984C209.15 26.0984 214.168 25.9313 214.201 25.9313C215.323 25.5638 227.67 24.06 230.674 24.06C239.686 24.06 245.397 28.3039 248.468 29.4401C251.505 30.5428 259.857 31.7124 264.743 32.3473C266.823 32.6146 268.902 31.7458 270.19 30.075C272.171 27.4685 275.472 24.2939 278.542 26.9673C280.358 28.5378 281.414 29.4735 283.131 30.9772C284.649 32.3473 286.894 31.8126 288.38 32.3473Z" fill="white"/>
<path opacity="0.4" d="M98.6566 42.8734C88.8849 42.8734 74.5904 35.856 69.4405 33.3497L58.2492 34.4859C58.0842 34.5193 57.9191 34.4191 57.8531 34.252C57.787 34.0849 57.8531 33.9178 57.9851 33.8176C58.0181 33.7841 58.4473 33.3163 56.2355 29.1058C54.948 26.6664 53.2643 23.9263 52.274 22.3223C51.2506 20.6515 51.2506 20.6515 51.5147 20.4176C51.6137 20.3173 51.7788 20.3173 51.9108 20.3507C55.1791 21.3866 67.7568 17.9447 68.8132 17.6774C69.5725 17.0759 77.0334 11.3617 86.3099 12.0969C104.401 13.5004 109.254 14.7368 114.866 16.1403C116.45 16.5413 118.101 16.9422 120.082 17.3767C122.921 17.9782 125.925 17.5437 128.467 16.0734L128.533 16.04C132.593 13.7343 138.173 10.5931 147.614 11.1612C152.335 11.462 157.089 13.5004 159.763 16.3742C160.753 17.4435 162.074 18.1118 163.493 18.2789C175.048 19.3817 207.829 25.4634 209.15 25.7308C212.979 25.5971 213.903 25.5637 214.134 25.5637C215.653 25.1293 227.802 23.6924 230.674 23.6924C237.639 23.6924 242.657 26.1986 245.992 27.8694C247.015 28.3707 247.873 28.8051 248.6 29.0724C251.604 30.1418 260.055 31.3447 264.809 31.9462C266.756 32.2136 268.704 31.3782 269.893 29.8076C271.279 28.0031 273.392 25.7976 275.67 25.5637C276.792 25.4634 277.849 25.831 278.806 26.6664L280.325 28.0031C281.348 28.9053 282.206 29.6739 283.395 30.6764C284.286 31.445 285.441 31.5452 286.564 31.6455C287.29 31.7123 287.95 31.7792 288.578 31.9797C288.875 32.0799 289.205 32.1802 289.535 32.3138C291.384 32.9153 293.695 33.6171 295.972 36.9587C298.349 37.0255 299.934 38.3956 300.066 39.6654C300.132 40.4006 299.67 41.0021 298.911 41.1692C298.878 41.1692 298.878 41.1692 298.845 41.1692C298.713 41.1692 295.708 41.2694 294.652 41.0021C293.893 40.835 287.29 40.1667 282.14 40.7014C279.466 40.9687 275.439 41.0021 273.92 41.0021C273.623 41.0021 273.425 41.0021 273.392 41.0021C271.774 41.4365 262.399 41.1358 239.059 40.0664C228.858 39.5986 219.185 39.1642 216.676 39.231C213.771 40.6679 206.905 40.3672 206.608 40.3672C206.112 40.3338 204.429 40.4006 201.821 40.5009C193.634 40.8016 176.566 41.4365 158.178 40.8684C157.683 40.8684 120.907 40.7682 119.884 40.7682C119.256 40.835 103.146 42.3388 101.595 42.6061C100.637 42.8066 99.68 42.8734 98.6566 42.8734ZM69.5065 32.5812C69.5725 32.5812 69.6055 32.5812 69.6716 32.6146C75.1847 35.3213 91.988 43.5752 101.397 41.9043C102.981 41.6036 119.091 40.0999 119.752 40.033H119.785C121.336 40.033 157.617 40.1333 158.112 40.1333C176.467 40.7013 193.535 40.0664 201.722 39.7657C204.429 39.6654 206.046 39.5986 206.542 39.632C208.984 39.7323 214.167 39.6654 216.313 38.5627C216.346 38.5293 216.412 38.5293 216.478 38.5293C218.888 38.4624 228.198 38.8634 238.993 39.3647C252.792 39.9996 271.642 40.835 273.062 40.3672C273.161 40.3004 273.227 40.3004 273.854 40.3004C275.373 40.3004 279.334 40.2335 282.008 39.9996C287.356 39.4649 293.992 40.1333 294.784 40.3338C295.708 40.5677 298.448 40.4674 298.746 40.4674C299.142 40.3672 299.307 40.1667 299.274 39.7991C299.175 38.9303 297.92 37.7607 295.741 37.7607C295.609 37.7607 295.51 37.6939 295.444 37.5936C293.265 34.3522 291.153 33.6839 289.271 33.0824C288.941 32.9821 288.611 32.8819 288.281 32.7482C287.752 32.5477 287.125 32.5143 286.465 32.4475C285.276 32.3472 283.923 32.247 282.867 31.3113C281.678 30.2754 280.82 29.5068 279.796 28.6046L278.278 27.2679C277.485 26.5662 276.66 26.2654 275.736 26.3657C273.722 26.5662 271.774 28.638 270.487 30.3088C269.133 32.0799 266.921 33.0156 264.71 32.7482C259.923 32.1467 251.439 30.9437 248.368 29.8076C247.609 29.5403 246.718 29.0724 245.694 28.5712C242.426 26.9338 237.507 24.461 230.707 24.461C227.703 24.461 215.389 25.9647 214.332 26.2989C214.299 26.2989 214.233 26.3323 214.2 26.3323C214.101 26.3323 210.866 26.4325 209.183 26.4994C209.15 26.4994 209.117 26.4994 209.117 26.4994C208.786 26.4325 175.18 20.1836 163.427 19.0475C161.843 18.8804 160.357 18.1452 159.235 16.9088C156.693 14.1687 152.137 12.2305 147.581 11.9298C138.338 11.3617 132.891 14.436 128.929 16.7083L128.863 16.7417C126.156 18.2789 122.987 18.7802 119.95 18.1118C117.936 17.6774 116.285 17.243 114.701 16.842C109.122 15.4385 104.302 14.2021 86.2769 12.7986C76.8353 12.0634 69.3414 18.2121 69.2424 18.2789C69.2094 18.3123 69.1434 18.3457 69.1103 18.3457C68.5821 18.4794 56.9947 21.7208 52.505 21.2196C52.6371 21.4201 52.7691 21.654 52.9342 21.8879C57.0938 28.638 58.8434 32.1467 58.7774 33.6505L69.4735 32.5812H69.5065Z" fill="black"/>
</g>
<g opacity="0.4">
<path opacity="0.4" d="M116.649 33.7842C119.323 35.0874 123.35 37.6605 121.997 40.3672C121.997 40.3672 117.837 42.7732 114.503 43.4415C111.631 44.0096 107.174 44.3438 105.028 44.3438C101.628 44.3772 81.1601 42.1049 80.3348 42.272L79.4764 42.3054C79.1463 42.439 78.255 42.8735 77.8588 43.1074C76.8024 43.7423 73.6662 44.2435 72.3787 44.3438C69.9688 44.4775 66.9647 43.9094 65.9743 43.3079C65.0169 43.5084 63.9275 43.7423 63.1352 43.7089C62.3759 44.0096 60.2961 44.6445 60.2961 44.6445C60.2961 44.6445 57.8202 45.7807 56.6318 45.6136C56.4007 45.5802 56.0705 45.2794 56.0045 45.0789C55.4103 45.2794 54.75 45.4131 54.3209 45.3463C53.6936 45.246 53.4626 44.9787 53.3965 44.7448C53.1324 44.6445 52.8353 44.444 52.7363 44.1433C52.5382 43.4081 55.9715 42.272 55.9715 42.272C55.9715 42.272 57.16 41.6705 59.2397 41.0356C60.3952 40.7014 61.3526 40.4341 62.1449 40.1667C63.3333 39.6989 64.8189 39.6989 65.4131 39.465C66.1724 39.1642 73.4021 38.1617 77.8258 36.7917C79.5755 36.5912 82.7447 36.4909 85.3857 36.2904C87.3334 35.9563 98.5577 35.5218 107.438 35.2545L116.649 33.7842Z" fill="white"/>
<path opacity="0.4" d="M56.8628 46.0145C56.7638 46.0145 56.6647 46.0145 56.5657 45.9811C56.3346 45.9477 56.0375 45.7472 55.8064 45.5133C55.1462 45.7138 54.618 45.7806 54.2218 45.7138C53.4955 45.6135 53.1984 45.2794 53.0664 45.012C52.7032 44.8449 52.4391 44.5776 52.3401 44.2435C52.142 43.5083 53.2975 42.7397 55.8064 41.9043C56.0045 41.8041 57.1599 41.236 59.1077 40.6679C59.6359 40.5008 60.1311 40.3671 60.5932 40.2335C61.1214 40.0664 61.5836 39.9327 62.0128 39.8325C62.706 39.5651 63.5314 39.4315 64.2246 39.3312C64.6538 39.2644 65.0499 39.1976 65.281 39.1307C65.5451 39.0305 66.3704 38.8634 68.0211 38.5627C70.7281 38.0614 74.8216 37.3262 77.6937 36.424C77.7267 36.424 77.7267 36.424 77.7598 36.424C78.8162 36.2903 80.3678 36.2235 81.9854 36.1233C83.1078 36.0564 84.2302 35.9896 85.3196 35.9228C87.2344 35.5886 97.7654 35.1542 107.405 34.8868C107.603 34.8868 107.768 35.0539 107.801 35.2544C107.801 35.4549 107.636 35.622 107.438 35.6554C97.7984 35.9562 87.2674 36.3906 85.4517 36.6913H85.4187C84.3293 36.7582 83.1738 36.825 82.0514 36.8918C80.4338 36.9921 78.9152 37.0589 77.8918 37.1926C74.9867 38.0948 70.8601 38.8634 68.1531 39.3312C66.8656 39.5651 65.7762 39.7656 65.5451 39.8325C65.248 39.9327 64.8188 39.9996 64.3237 40.0664C63.6634 40.1666 62.9041 40.2669 62.2439 40.5342C61.7817 40.6679 61.3195 40.8016 60.7913 40.9686C60.3291 41.1023 59.8339 41.236 59.3057 41.4031C57.292 42.0046 56.1365 42.606 56.1035 42.606C56.0705 42.606 56.0705 42.6395 56.0375 42.6395C54.585 43.1073 53.2314 43.7756 53.0664 44.0764C53.1324 44.2435 53.3305 44.3437 53.4625 44.3771C53.5946 44.4105 53.6936 44.5442 53.6936 44.6779C53.6936 44.7113 53.8257 44.9118 54.2878 44.9786C54.5189 45.012 54.9811 45.012 55.8064 44.7447C56.0045 44.6779 56.2026 44.7781 56.2686 44.9786C56.3016 45.0455 56.4997 45.2125 56.5987 45.2459C57.457 45.3796 59.4048 44.611 60.065 44.3103C60.065 44.3103 60.098 44.3103 60.098 44.2769C60.1311 44.2769 62.1778 43.642 62.9041 43.3412C62.9371 43.3078 63.0032 43.3078 63.0362 43.3078C63.8285 43.3412 64.9509 43.0739 65.8092 42.9068C65.9083 42.8734 66.0073 42.9068 66.0733 42.9402C66.9977 43.5083 69.9688 44.0764 72.2467 43.9427C73.5011 43.8759 76.5713 43.3412 77.5617 42.7731C77.9578 42.5392 78.8492 42.1382 79.2123 41.9711C79.2453 41.9377 79.3113 41.9377 79.3444 41.9377L80.2027 41.9043C80.7309 41.8375 83.537 42.1048 90.1395 42.7397C96.1477 43.3078 102.981 43.9761 104.896 43.9761C104.929 43.9761 104.929 43.9761 104.962 43.9761C107.108 43.9761 111.565 43.642 114.371 43.0739C117.309 42.4724 121.006 40.4674 121.666 40.0998C121.898 39.5986 121.898 39.0973 121.732 38.5627C121.039 36.5577 117.804 34.7866 116.45 34.1517C108.23 30.1751 103.278 27.9696 101.331 27.435C98.9208 26.7332 94.9593 24.3941 91.8231 22.5228C90.1725 21.5537 88.3238 20.4509 87.9276 20.3841C87.7295 20.4175 87.5645 20.2839 87.5315 20.0834C87.4985 19.8829 87.5975 19.6824 87.8286 19.6155C88.2247 19.5153 89.0831 19.9831 92.2193 21.8544C95.1904 23.5921 99.2179 25.9981 101.562 26.6664C103.543 27.2345 108.527 29.44 116.814 33.4499C118.629 34.3188 121.732 36.0898 122.492 38.2953C122.756 39.0639 122.69 39.7991 122.36 40.5342C122.327 40.6011 122.261 40.6679 122.195 40.7013C122.03 40.8016 117.936 43.1407 114.569 43.809C111.565 44.4105 107.108 44.7113 104.995 44.7113C104.962 44.7113 104.962 44.7113 104.929 44.7113C102.981 44.7113 96.1477 44.043 90.1064 43.4749C85.5177 43.0405 80.7969 42.5726 80.3347 42.6395H80.3017L79.5094 42.6729C79.1793 42.84 78.354 43.2075 77.9909 43.408C76.8354 44.0764 73.6662 44.611 72.3457 44.6779C69.9358 44.8115 67.0307 44.2769 65.8752 43.642C65.0499 43.809 63.9605 44.043 63.1682 44.043C62.4089 44.3437 60.6263 44.8784 60.3952 44.9452C60.098 45.1457 58.1173 46.0145 56.8628 46.0145Z" fill="black"/>
</g>
<g opacity="0.4">
<path opacity="0.4" d="M90.1724 36.0566C90.1394 36.0566 90.1064 36.0566 90.0734 36.0566C89.4791 35.9229 88.3567 35.8561 87.0692 35.7558C83.9 35.5553 79.5424 35.288 77.0995 33.6506C76.9344 33.5503 76.8684 33.3164 77.0004 33.1159C77.0995 32.9489 77.3305 32.882 77.5286 33.0157C79.8395 34.5528 84.0651 34.8202 87.1353 34.9873C88.5218 35.0875 89.6112 35.1543 90.2714 35.288C90.4695 35.3214 90.6016 35.5553 90.5355 35.7558C90.5025 35.9229 90.3375 36.0566 90.1724 36.0566Z" fill="black"/>
</g>
<g opacity="0.4">
<path opacity="0.4" d="M56.0045 45.48C55.9055 45.48 55.8065 45.4465 55.7404 45.3797C55.6414 45.2795 55.6084 45.1458 55.6084 44.9787C55.6414 44.8116 55.7074 44.3104 59.3388 42.4725C59.3388 42.4725 59.3718 42.4725 59.3718 42.4391C59.3718 42.4391 60.9894 41.871 63.0362 41.2361C65.083 40.6346 65.6772 40.4007 66.7006 40.0331C66.8987 39.9662 67.0968 40.0665 67.1958 40.267C67.2618 40.4675 67.1628 40.668 66.9647 40.7682C65.9413 41.1692 65.3141 41.3697 63.2673 42.0046C61.3526 42.5727 59.867 43.1074 59.6689 43.1742C58.3154 43.876 56.7308 44.7782 56.4007 45.1458C56.4007 45.246 56.3677 45.3463 56.3017 45.4131C56.1696 45.4465 56.0706 45.48 56.0045 45.48Z" fill="black"/>
</g>
<g opacity="0.4">
<path opacity="0.4" d="M53.3962 45.1457C53.1981 45.1457 53.0661 45.0121 53.0331 44.8116C52.934 44.043 56.0372 42.6395 56.4334 42.5393C56.7965 42.439 58.7773 41.637 60.5269 40.9353C64.7855 39.1976 64.8516 39.1976 65.0496 39.231C65.2477 39.2644 65.3798 39.4649 65.3468 39.6654C65.3138 39.8325 65.1487 39.9662 64.9836 39.9662C64.6535 40.033 62.5077 40.9019 60.824 41.6036C58.8763 42.4056 57.0606 43.1408 56.6314 43.241C55.9052 43.4415 54.0565 44.5108 53.7594 44.845C53.7263 44.9787 53.5943 45.0789 53.4622 45.1123C53.4292 45.1457 53.3962 45.1457 53.3962 45.1457Z" fill="black"/>
</g>
</g>
</g>
<defs>
<clipPath id="clip0_139_927">
<rect width="303" height="67" fill="white"/>
</clipPath>
</defs>
</svg>
