<svg width="200" height="72" viewBox="0 0 200 72" fill="none" xmlns="http://www.w3.org/2000/svg">
<path d="M192.703 39.9002H6.85219C4.95642 39.9002 3.4093 38.4838 3.4093 36.7481V25.6359C3.4093 23.9002 4.95642 22.4838 6.85219 22.4838H192.703C194.599 22.4838 196.146 23.9002 196.146 25.6359V36.7481C196.146 38.4838 194.599 39.9002 192.703 39.9002Z" fill="#E4E4E4" stroke="black" stroke-miterlimit="10"/>
<path d="M18.6409 22.4838V39.9002" stroke="black" stroke-miterlimit="10"/>
<path d="M32.6302 22.4838V39.9002" stroke="black" stroke-miterlimit="10"/>
<path d="M50.2369 25.3765V39.9002" stroke="black" stroke-miterlimit="10"/>
<path d="M66.6234 23.98V39.9002" stroke="black" stroke-miterlimit="10"/>
<path d="M83.8815 22.384V39.9002" stroke="black" stroke-miterlimit="10"/>
<path d="M99.7667 22.5237V39.9002" stroke="black" stroke-miterlimit="10"/>
<path d="M119.16 22.5237V39.9002" stroke="black" stroke-miterlimit="10"/>
<path d="M140.711 22.4239V39.9002" stroke="black" stroke-miterlimit="10"/>
<path d="M163.024 22.4838V39.9002" stroke="black" stroke-miterlimit="10"/>
<path d="M182.897 22.5237V39.9002" stroke="black" stroke-miterlimit="10"/>
<path d="M38.2957 22.8429C38.2957 22.384 38.0996 22.0249 37.9471 21.6259C37.5113 20.7082 36.5961 19.6309 33.8287 19.0922C32.6302 18.8528 29.6231 18.5935 27.9452 18.5336C25.4393 18.4538 20.4493 18.4538 17.9434 18.5336C16.2656 18.5935 13.2803 18.8528 12.06 19.0922C9.31441 19.6309 8.39921 20.6882 7.94161 21.6259C7.78907 22.0449 7.59296 22.404 7.59296 22.8429C7.59296 22.8429 7.20073 25.3765 10.3386 25.3765H10.4911H35.3322H35.4847C38.6879 25.3765 38.2957 22.8429 38.2957 22.8429Z" fill="#EAEAEA" stroke="black" stroke-miterlimit="10"/>
<path d="M23.8051 23.2419C27.8146 22.6035 29.3181 21.6659 30.582 21.0674C34.1338 19.2918 38.0561 20.9676 38.9713 21.9452V21.9252C41.1503 23.9601 46.7723 25.4763 52.7428 25.4763C58.9531 25.4763 66.5362 23.5412 73.7706 22.5237C75.71 22.2444 77.6711 22.6235 79.3272 23.5412C81.8985 24.9576 87.1064 26.6933 92.0528 26.4539C95.0163 26.3142 97.7837 25.7157 99.5923 24.0599C100.311 23.4015 101.248 23.0025 102.251 22.9427C110.139 22.4838 131.995 21.3467 131.995 21.3467C131.995 21.3467 135.307 21.8853 135.329 21.8853C136.048 22.1247 141.321 23.9402 146.159 23.9402C149.144 23.9402 155.855 22.6833 157.969 22.3442C160.78 21.8853 167.273 21.7058 170.106 22.0649C171.501 22.2444 174.159 23.0424 174.639 23.2818C175.205 23.5811 179.433 24.2993 179.302 20.5088C179.236 19.0723 179.149 18.4539 179.106 17.0773C179.062 15.8404 179.149 13.4265 179.149 13.3666C179.149 13.3666 179.411 12.1297 179.302 10.3342C179.215 9.09728 179.258 7.86037 179.433 6.62346C179.52 6.00501 179.541 5.34666 179.367 4.86785C179.171 4.30925 177.515 3.7706 177.515 4.78805C177.515 5.82546 177.079 7.40152 176.861 7.80052C176.622 8.23942 175.271 10.5736 173.658 13.3666C173.506 13.626 173.353 13.8654 173.2 14.1247C172.133 15.9003 170.019 16.8978 167.818 16.6983C159.625 15.9202 139.817 14.0449 136.723 13.8654C134.653 12.6883 132.278 12.3492 130.905 12.3691C129.532 12.3891 116.001 9.31673 99.9628 9.23693C95.4086 7.22197 81.223 7.14217 74.6858 7.68082C71.9402 7.12222 63.6163 7.50127 62.5486 7.38157C52.6339 6.32421 44.0485 10.5935 41.2375 12.1895C41.1939 12.2095 41.1503 12.2494 41.1067 12.2693C39.9519 12.828 36.0078 12.4489 34.0249 12.3292L34.0466 12.2893C34.2428 11.3716 34.3517 10.414 34.3299 9.89528C34.3081 9.27683 33.6544 8.57858 32.8917 8.47883C32.1727 8.37908 28.7298 8.27932 28.5119 8.27932C28.4683 8.11972 28.0543 6.48381 27.5095 6.78307C26.5943 7.24192 24.0012 8.25937 23.8051 8.33917C23.304 8.35913 21.6915 8.49878 21.1685 8.51873C15.9824 8.77808 13.7379 13.606 14.7403 17.5162C15.7427 21.4265 18.2921 24.1197 23.8051 23.2419Z" fill="#E4E4E4"/>
<path d="M91.094 26.7132C86.5834 26.7132 81.8331 25.2169 79.1747 23.7606C77.5404 22.8628 75.6228 22.5037 73.7706 22.763C71.3737 23.1022 68.9114 23.5411 66.5362 23.98C61.568 24.8778 56.883 25.7157 52.721 25.7157C46.8812 25.7157 41.2157 24.2593 38.8623 22.1845C38.8187 22.1645 38.7752 22.1446 38.7534 22.1246C37.9035 21.2069 34.1556 19.571 30.6909 21.2867C30.5166 21.3665 30.364 21.4463 30.1897 21.5261C29.013 22.1246 27.3787 22.9226 23.8487 23.4812L23.8051 23.2618L23.8487 23.4812C18.8369 24.2593 15.6991 22.2842 14.5006 17.596C13.8905 15.2418 14.457 12.6683 15.9388 10.8528C17.2026 9.31666 19.0112 8.43885 21.1467 8.3391C21.3646 8.31915 21.8004 8.2992 22.258 8.2593C22.8463 8.2194 23.4347 8.15955 23.7397 8.15955C23.8051 8.1396 23.9141 8.0997 24.0448 8.03985C24.8293 7.72065 26.6597 7.00245 27.3787 6.64334C27.5313 6.56354 27.6838 6.56354 27.8363 6.62339C28.2939 6.80294 28.5772 7.64085 28.708 8.11965C29.4706 8.1396 32.2598 8.23935 32.9135 8.31915C33.7633 8.43885 34.526 9.19696 34.5696 9.95506C34.5914 10.4538 34.4824 11.3316 34.3299 12.1895C34.5478 12.2094 34.7657 12.2094 35.0054 12.2294C37.0101 12.369 40.0608 12.5685 40.976 12.1296L41.1067 12.0498C43.5691 10.6334 52.4378 6.10469 62.5921 7.20195C62.919 7.24185 63.9867 7.2219 65.3595 7.20195C68.323 7.16205 72.79 7.12215 74.7294 7.5012C81.1358 6.96255 95.365 7.0224 100.05 9.05731C112.362 9.11716 123.039 10.9127 128.16 11.7705C129.598 12.0099 130.644 12.1895 130.927 12.1895C130.949 12.1895 130.971 12.1895 131.014 12.1895C132.539 12.1895 134.827 12.5885 136.832 13.7057C140.101 13.9251 159.603 15.7606 167.862 16.5386C169.954 16.7381 171.98 15.7805 173.004 14.0847C173.157 13.8254 173.309 13.586 173.462 13.3266C174.878 10.8728 176.425 8.2194 176.665 7.76055C176.883 7.36155 177.297 5.82539 177.297 4.84783C177.297 4.40893 177.559 4.10968 177.994 4.04983C178.626 3.95008 179.454 4.36903 179.629 4.84783C179.781 5.30668 179.825 5.92514 179.716 6.70319C179.541 7.9002 179.498 9.13711 179.585 10.374C179.694 12.0698 179.476 13.2668 179.433 13.4463C179.433 13.4862 179.433 13.566 179.433 13.6857C179.411 14.364 179.367 16.1396 179.389 17.1371C179.411 17.8354 179.454 18.3142 179.476 18.8329C179.52 19.3316 179.541 19.8503 179.585 20.5486C179.629 21.9052 179.171 22.8428 178.212 23.3815C176.861 24.1197 174.987 23.7406 174.573 23.5211C174.137 23.2817 171.501 22.5037 170.128 22.3241C167.404 21.965 160.976 22.1246 158.078 22.5835C157.729 22.6433 157.293 22.7231 156.749 22.8029C153.959 23.2817 148.752 24.1795 146.224 24.1795C143.195 24.1795 139.338 23.4613 135.394 22.1446L135.329 22.1246C135.154 22.1047 134.544 22.0049 132.038 21.586C131.123 21.6259 109.965 22.7431 102.316 23.182C101.401 23.2418 100.508 23.601 99.8102 24.2394C98.1759 25.7157 95.6482 26.5336 92.0964 26.7132C91.7477 26.6932 91.4209 26.7132 91.094 26.7132ZM74.9909 22.2044C76.538 22.2044 78.0851 22.6034 79.4361 23.3416C82.2253 24.8778 87.3461 26.4339 92.031 26.2144C95.4521 26.0548 97.8709 25.2768 99.418 23.8803C100.202 23.182 101.205 22.7431 102.251 22.6832C110.052 22.2443 131.777 21.1072 132.017 21.0872C132.038 21.0872 132.06 21.0872 132.082 21.0872C133.368 21.2867 135.285 21.6059 135.394 21.6259C135.416 21.6259 135.438 21.6259 135.438 21.6458L135.525 21.6857C139.403 22.9825 143.195 23.7007 146.18 23.7007C148.664 23.7007 153.829 22.8029 156.618 22.3241C157.163 22.2244 157.62 22.1446 157.947 22.1047C160.911 21.6259 167.404 21.4663 170.172 21.8254C171.523 22.0049 174.268 22.783 174.791 23.0822C175.096 23.2418 176.774 23.581 177.929 22.9426C178.735 22.5037 179.106 21.6857 179.062 20.5087C179.04 19.8104 178.997 19.2917 178.953 18.793C178.91 18.2743 178.888 17.7755 178.866 17.0773C178.822 16.0598 178.888 14.2842 178.91 13.6059C178.91 13.4663 178.91 13.3665 178.91 13.3665C178.91 13.3466 178.91 13.3266 178.91 13.3266C178.91 13.3067 179.171 12.0897 179.04 10.3541C178.953 9.09721 178.997 7.84035 179.171 6.60344C179.28 5.88524 179.258 5.32664 179.106 4.94758C179.019 4.70818 178.408 4.38898 178.016 4.44883C177.885 4.46878 177.733 4.52863 177.733 4.80793C177.733 5.86529 177.297 7.48125 177.057 7.92015C176.839 8.3391 175.663 10.374 173.832 13.4862C173.68 13.7456 173.527 13.985 173.375 14.2443C172.263 16.0997 170.063 17.1371 167.753 16.9177C159.429 16.1197 139.752 14.2643 136.68 14.0847C136.636 14.0847 136.592 14.0648 136.571 14.0448C134.61 12.9476 132.3 12.5685 130.883 12.5685C130.535 12.5685 129.598 12.4089 128.029 12.1496C122.908 11.2917 112.231 9.49621 99.941 9.43636C99.8974 9.43636 99.8756 9.43636 99.832 9.41641C95.3214 7.4214 81.0922 7.3815 74.7294 7.92015C74.7076 7.92015 74.6858 7.92015 74.664 7.92015C72.8118 7.5411 68.3448 7.60095 65.3813 7.64085C63.9431 7.6608 62.919 7.6608 62.5485 7.64085C52.5467 6.56354 43.8305 11.0324 41.39 12.4289L41.2593 12.5087C40.1915 13.0274 37.1844 12.8279 35.0054 12.6683C34.6568 12.6483 34.3299 12.6284 34.0466 12.6084C33.9595 12.6084 33.8941 12.5685 33.8505 12.5087C33.8069 12.4488 33.8069 12.369 33.8287 12.3092V12.2892C34.0248 11.4114 34.1338 10.4538 34.112 9.95506C34.0902 9.45631 33.5672 8.83786 32.8699 8.75806C32.2816 8.67826 29.7757 8.59846 28.5118 8.55856C28.4029 8.55856 28.2939 8.47875 28.2722 8.379C28.076 7.56105 27.771 7.04235 27.6402 7.0224C26.8776 7.40145 25.0472 8.1396 24.2409 8.45881C24.0448 8.53861 23.9359 8.57851 23.8923 8.59846C23.8705 8.57851 23.8487 8.57851 23.8051 8.57851C23.5218 8.57851 22.8681 8.63836 22.3016 8.67826C21.844 8.71816 21.4082 8.73811 21.1903 8.75806C19.1855 8.85781 17.5077 9.67576 16.3528 11.0922C14.9582 12.8079 14.4352 15.2418 15.0018 17.4763C16.1567 21.9451 19.0112 23.7606 23.7833 23.0024C27.2262 22.4638 28.8169 21.6658 29.9718 21.0872C30.1461 21.0074 30.3205 20.9077 30.473 20.8279C34.0684 19.0324 37.9907 20.6683 39.0584 21.6857C39.0802 21.7057 39.1238 21.7057 39.1456 21.7456C41.3464 23.8005 46.9248 25.2369 52.7428 25.2369C56.8612 25.2369 61.5244 24.399 66.4708 23.5012C68.8678 23.0623 71.3301 22.6234 73.727 22.2842C74.1193 22.2443 74.5551 22.2044 74.9909 22.2044Z" fill="black"/>
<path d="M46.7939 23.182C49.8882 23.1022 68.1268 22.0448 69.5214 22.2643C70.9378 22.5037 74.6204 22.7032 77.1698 22.7032C79.7193 22.7032 94.4279 22.0847 95.0598 22.1845L95.7135 22.2044C95.9532 22.3042 96.6287 22.5835 96.9338 22.7431C97.74 23.1621 100.072 23.5012 101.03 23.5611C102.839 23.6608 105.062 23.2419 105.802 22.8429C106.522 22.9825 107.35 23.1222 107.938 23.1022C108.505 23.3017 110.052 23.7207 110.052 23.7207C110.052 23.7207 111.926 24.4788 112.797 24.3591C112.972 24.3391 113.233 24.1396 113.277 24C113.734 24.1197 114.214 24.2194 114.54 24.1596C115.02 24.0997 115.194 23.9002 115.216 23.7606C115.412 23.7007 115.63 23.5611 115.695 23.3616C115.848 22.8628 113.189 22.3441 113.189 22.3441C113.189 22.3441 112.056 22.0049 110.487 21.6059C109.638 21.3865 108.919 21.2069 108.308 21.0473C107.437 20.7481 106.631 20.4289 106.173 20.2892C105.606 20.0897 100.181 19.4314 96.8902 18.5336C95.561 18.394 93.2294 18.3341 91.2247 18.2144C89.5686 17.9551 73.9013 16.8578 71.1557 16.6384C68.4319 16.4189 54.4642 15.9002 51.8058 15.4613C49.1473 15.0224 48.7551 14.4438 48.7551 14.4438L46.7939 23.182Z" fill="#EAEAEA"/>
<path d="M112.623 24.5985C111.686 24.5985 110.161 24 109.986 23.9401C109.812 23.9002 108.483 23.5212 107.916 23.3416C107.35 23.3416 106.652 23.2419 105.868 23.0823C105.018 23.5012 102.839 23.8803 101.03 23.7805C100.05 23.7406 97.6747 23.3815 96.8249 22.9426C96.5634 22.803 95.9315 22.5436 95.67 22.4439L95.0817 22.4239C95.0599 22.4239 95.0599 22.4239 95.0381 22.4239C94.6894 22.3641 90.0481 22.5436 85.9515 22.6833C82.2689 22.8229 78.4338 22.9426 77.2135 22.9426H77.1917C74.5333 22.9426 70.8725 22.7232 69.4997 22.4837C68.5627 22.3241 59.4325 22.783 53.3747 23.0823C50.3894 23.2419 47.7964 23.3616 46.8158 23.3815C46.6633 23.3815 46.5761 23.2818 46.5543 23.1621C46.5543 23.0424 46.6633 22.9426 46.794 22.9227C47.7746 22.9027 50.3677 22.7631 53.3529 22.6234C61.6987 22.2044 68.6716 21.8653 69.5868 22.0249C70.9378 22.2443 74.5551 22.4638 77.1917 22.4638H77.2135C78.4338 22.4638 82.2253 22.3242 85.9297 22.2044C91.3119 22.0049 94.6459 21.9052 95.1034 21.9451L95.7354 21.965C95.7572 21.965 95.8007 21.965 95.8225 21.985C96.084 22.0847 96.7595 22.3641 97.0646 22.5237C97.8055 22.9227 100.115 23.2618 101.052 23.3017C102.795 23.3815 104.975 23.0025 105.694 22.6234C105.737 22.6035 105.803 22.5835 105.868 22.6035C106.5 22.7232 107.35 22.8828 107.938 22.8628C107.96 22.8628 108.003 22.8628 108.025 22.8828C108.592 23.0823 110.117 23.5012 110.139 23.5012H110.161C110.662 23.7007 112.1 24.2194 112.776 24.1197C112.841 24.0997 113.015 23.98 113.059 23.9202C113.102 23.8005 113.233 23.7406 113.364 23.7805C113.996 23.9601 114.344 23.9601 114.519 23.9401C114.889 23.9002 114.976 23.7606 114.998 23.7207C115.02 23.6409 115.064 23.581 115.151 23.5411C115.281 23.5012 115.434 23.4214 115.478 23.3017C115.325 23.1022 114.279 22.7631 113.168 22.5436H113.146C113.124 22.5436 111.991 22.2044 110.466 21.8054C110.073 21.7057 109.681 21.6059 109.354 21.5062C108.962 21.4064 108.614 21.3067 108.287 21.2269C107.785 21.0473 107.328 20.8877 106.936 20.7481C106.631 20.6284 106.347 20.5286 106.151 20.4688C105.977 20.4089 105.149 20.2892 104.212 20.1296C102.164 19.8104 99.0911 19.3117 96.9121 18.7132C96.1276 18.6334 94.9945 18.5735 93.796 18.5336C92.968 18.4937 92.0964 18.4538 91.2901 18.4139H91.2683C90.0481 18.2344 80.8525 17.5561 75.3831 17.1571C73.4655 17.0174 71.9184 16.8977 71.2429 16.8578C70.3277 16.778 68.0833 16.6783 65.512 16.5586C60.2387 16.2992 53.658 15.98 51.8712 15.6808C49.2345 15.2419 48.7334 14.6633 48.6462 14.5636C48.5808 14.4638 48.6026 14.3242 48.7334 14.2444C48.8423 14.1845 48.9949 14.2045 49.082 14.3242C49.082 14.3242 49.5396 14.8429 51.9801 15.2419C53.7234 15.5411 60.5656 15.8603 65.5556 16.1197C68.1487 16.2394 70.3713 16.3591 71.3083 16.4189C72.0056 16.4788 73.5309 16.5785 75.4485 16.7182C81.2883 17.1371 90.0917 17.7955 91.3773 17.995C92.1835 18.0548 93.0334 18.0947 93.8614 18.1147C95.0817 18.1745 96.2366 18.2144 97.0428 18.3142C97.0646 18.3142 97.0646 18.3142 97.0864 18.3142C99.2436 18.9127 102.316 19.3915 104.343 19.7306C105.541 19.9102 106.173 20.0299 106.369 20.0897C106.565 20.1695 106.849 20.2693 107.175 20.369C107.568 20.5087 108.025 20.6882 108.505 20.8478C108.81 20.9276 109.158 21.0074 109.551 21.1072C109.899 21.187 110.27 21.2867 110.684 21.4064C112.144 21.7855 113.255 22.1047 113.364 22.1446C113.909 22.2443 115.674 22.6434 116.001 23.1222C116.088 23.2618 116.066 23.3616 116.044 23.4414C115.979 23.6608 115.783 23.8404 115.521 23.9601C115.434 24.1197 115.238 24.3391 114.671 24.4189C114.366 24.4588 113.974 24.4189 113.473 24.2992C113.32 24.4588 113.102 24.5785 112.928 24.6184C112.776 24.5985 112.688 24.5985 112.623 24.5985Z" fill="black"/>
<path d="M113.277 24.2394C113.255 24.2394 113.233 24.2394 113.211 24.2394C113.102 24.2194 113.037 24.1396 113.015 24.0399C112.819 23.8204 111.49 23.182 110.335 22.6833C110.204 22.6434 109.071 22.2843 107.633 21.9052C106.151 21.5062 105.89 21.4464 105.083 21.1671C104.953 21.1272 104.887 20.9875 104.931 20.8678C104.975 20.7481 105.127 20.6883 105.258 20.7282C106.02 20.9875 106.238 21.0474 107.764 21.4464C109.311 21.8454 110.487 22.2244 110.509 22.2244H110.531C113.625 23.5212 113.538 23.8404 113.495 24.0199C113.495 24.1596 113.386 24.2394 113.277 24.2394Z" fill="black"/>
<path d="M115.216 24C115.194 24 115.194 24 115.172 24C115.085 23.98 114.998 23.9202 114.976 23.8404C114.737 23.6209 113.168 22.8828 112.601 22.7431C112.274 22.6633 111.468 22.3441 110.705 22.0449C110.139 21.8254 109.463 21.5461 109.289 21.5062C109.18 21.5062 109.071 21.4264 109.049 21.3267C109.028 21.207 109.115 21.0873 109.245 21.0673C109.398 21.0474 109.594 21.1072 110.902 21.6459C111.621 21.9252 112.427 22.2643 112.71 22.3242C112.95 22.384 115.521 23.3217 115.456 23.8204C115.456 23.9202 115.347 24 115.216 24Z" fill="black"/>
<path d="M25.0255 18.6533C24.1103 18.6533 23.3477 18.3341 23.0862 17.7755C22.8029 17.177 23.108 16.4588 23.8924 15.8802C24.0014 15.8004 24.1539 15.8204 24.2411 15.9201C24.3282 16.0199 24.3064 16.1595 24.1975 16.2393C23.6091 16.6782 23.3477 17.2169 23.5438 17.6159C23.8488 18.2543 25.1563 18.4139 26.3765 17.995C27.1828 17.7157 27.8365 17.2369 28.0544 16.7381C28.1633 16.4987 28.1633 16.2792 28.0762 16.0997C28.0326 16.0199 27.9672 15.9201 27.8801 15.8603C27.7711 15.7805 27.7711 15.6408 27.8801 15.5411C27.9672 15.4413 28.1198 15.4413 28.2287 15.5411C28.3595 15.6608 28.4684 15.7805 28.5338 15.9201C28.6863 16.2194 28.6645 16.5785 28.512 16.9176C28.2287 17.5361 27.4878 18.0947 26.5509 18.4339C26.0279 18.5735 25.5049 18.6533 25.0255 18.6533Z" fill="black"/>
<g opacity="0.4">
<path opacity="0.4" d="M181.655 21.6658C181.59 20.5885 180.043 19.8104 174.726 19.9501C174.726 19.9501 168.537 19.7306 168.145 19.6907C167.731 19.6109 161.477 19.0723 160.998 18.9326L159.647 18.4937C155.18 16.9975 148.926 14.0847 145.156 13.5062C140.232 12.7481 135.045 13.1271 135.045 13.1271C135.045 13.1271 122.472 6.783 113.19 4.62838C108.723 3.59098 105.912 3.07227 94.7984 3.07227C85.1234 3.07227 82.2471 4.86779 79.4797 4.86779C73.9667 4.86779 63.2676 2.31417 57.3406 1.85532C45.2033 -3.45142 45.2251 5.74559 44.4843 8.17951C44.1138 9.39646 43.3512 11.571 40.2133 12.3291C39.4724 12.5087 35.463 12.2693 34.0902 12.4089V20.2294L42.5013 21.2069C43.8087 22.0049 44.2446 23.0424 44.506 23.8803C45.2469 26.3142 45.6609 29.8054 53.9195 29.1471C59.8465 28.6683 73.9885 27.7705 79.5015 27.7705C82.2471 27.7705 85.1452 29.2867 94.8202 29.566C97.8709 29.6458 99.0258 29.7655 102.992 29.6458C114.039 29.3067 130.317 28.4488 133.76 28.2693C135.329 28.4089 141.343 28.9675 143.544 28.9675C148.643 29.0074 162.414 27.8304 166.271 27.4912C166.794 27.4513 167.339 27.4713 167.84 27.571C167.993 27.6109 168.21 27.6309 168.45 27.6708C168.668 27.6907 169.409 27.6109 169.67 27.6309C172.895 27.99 178.234 28.6483 178.299 28.6483C185.033 29.2468 185.033 28.1695 185.861 26.5137C186.536 25.1172 190.262 20.4688 181.655 21.6658Z" fill="white"/>
<path opacity="0.4" d="M100.006 29.9052C98.7643 29.9052 97.8055 29.8653 96.6506 29.8254C96.0841 29.8054 95.4739 29.7855 94.7766 29.7655C88.6317 29.586 85.1235 28.9077 82.8137 28.4488C81.4409 28.1695 80.4385 27.97 79.4579 27.97C74.0975 27.97 60.1734 28.8678 53.8977 29.3466C45.9878 29.965 45.0508 26.7531 44.3535 24.4189C44.3099 24.2593 44.2664 24.0797 44.201 23.9201C43.9395 23.0822 43.5255 22.1446 42.3488 21.3865L34.0031 20.4289C33.8723 20.4089 33.7852 20.3092 33.7852 20.2094V12.389C33.7852 12.2693 33.8723 12.1695 34.0031 12.1695C34.6786 12.1097 35.9206 12.1296 37.1409 12.1496C38.4265 12.1695 39.7339 12.1895 40.1044 12.1097C43.1986 11.3715 43.8741 9.177 44.201 8.11965C44.2882 7.82039 44.3753 7.44134 44.4625 6.96254C44.8765 4.92763 45.4866 1.83536 48.2322 0.558549C50.3677 -0.438958 53.4619 -0.0798553 57.3842 1.63586C59.9555 1.83536 63.333 2.41391 66.9284 3.03236C71.5698 3.83037 76.3637 4.64832 79.4579 4.64832C80.3949 4.64832 81.3755 4.42887 82.5958 4.14957C84.9273 3.63087 88.4356 2.85281 94.7548 2.85281C105.955 2.85281 108.788 3.39147 113.211 4.40892C122.08 6.46379 134.065 12.389 135.067 12.8877C135.721 12.8478 140.58 12.5685 145.178 13.2867C147.684 13.6857 151.236 15.0623 154.679 16.4189C156.487 17.1172 158.187 17.7955 159.712 18.3142L161.063 18.7331C161.325 18.8129 164.005 19.0723 165.77 19.2319C167.186 19.3715 167.993 19.4513 168.167 19.4713C168.45 19.4912 172.569 19.6508 174.704 19.7306C179.28 19.6309 181.503 20.1496 181.829 21.4264C184.706 21.0473 186.427 21.3067 187.125 22.2044C187.953 23.3017 186.972 24.9576 186.34 26.0548C186.209 26.2743 186.1 26.4738 186.013 26.6134C185.948 26.7331 185.904 26.8329 185.861 26.9526C185.076 28.5885 184.379 29.4264 178.212 28.8877C178.19 28.8877 177.973 28.8678 177.602 28.8079C176.12 28.6284 172.176 28.1496 169.583 27.8503C169.474 27.8304 169.213 27.8503 168.995 27.8703C168.733 27.8902 168.515 27.8902 168.385 27.8902C168.145 27.8703 167.927 27.8304 167.753 27.7905C167.273 27.6907 166.772 27.6708 166.249 27.7107C162.196 28.0698 148.577 29.2468 143.5 29.187C141.321 29.167 135.481 28.6483 133.716 28.4887C130.469 28.6683 114.039 29.5261 102.97 29.8653C101.771 29.8852 100.834 29.9052 100.006 29.9052ZM79.4797 27.5112C80.5039 27.5112 81.528 27.7107 82.9226 27.99C85.3631 28.4688 88.6753 29.1271 94.7984 29.3067C95.5175 29.3266 96.1058 29.3466 96.6724 29.3665C98.5464 29.4264 99.9192 29.4862 102.948 29.3865C114.039 29.0473 130.513 28.1895 133.716 28.0099C133.738 28.0099 133.738 28.0099 133.76 28.0099C135.503 28.1695 141.343 28.6882 143.522 28.7082C148.577 28.7481 162.174 27.591 166.228 27.2319C166.794 27.172 167.361 27.2119 167.884 27.3117C168.058 27.3516 168.254 27.3715 168.472 27.3915C168.559 27.3915 168.799 27.3915 168.995 27.3715C169.278 27.3516 169.54 27.3316 169.692 27.3516C172.285 27.6508 176.229 28.1296 177.711 28.3092C178.06 28.3491 178.278 28.369 178.299 28.389C184.379 28.9276 184.793 28.1097 185.447 26.7331C185.49 26.6334 185.556 26.5137 185.621 26.394C185.708 26.2344 185.817 26.0349 185.948 25.7955C186.493 24.8578 187.43 23.2817 186.776 22.4239C186.188 21.6658 184.488 21.4862 181.721 21.8653C181.655 21.8653 181.59 21.8653 181.524 21.8254C181.481 21.7855 181.437 21.7256 181.437 21.6658C181.372 20.5486 179.193 20.0498 174.769 20.1496C174.508 20.1496 168.537 19.9301 168.167 19.8902C167.993 19.8703 166.925 19.7506 165.792 19.6508C163.242 19.4114 161.259 19.2119 160.976 19.1321L159.603 18.6932C158.056 18.1745 156.356 17.4962 154.548 16.798C151.127 15.4613 147.597 14.0847 145.156 13.7057C140.319 12.9476 135.154 13.3266 135.089 13.3266C135.045 13.3266 135.002 13.3266 134.958 13.3067C134.827 13.2468 122.32 6.96254 113.168 4.84783C108.788 3.83037 105.977 3.29172 94.842 3.29172C88.5663 3.29172 85.2324 4.02987 82.7919 4.58847C81.528 4.86778 80.5257 5.08723 79.5233 5.08723C76.3637 5.08723 71.548 4.26927 66.9066 3.47127C63.3112 2.85281 59.9119 2.27426 57.3624 2.07476C57.3406 2.07476 57.2971 2.07476 57.2753 2.05481C53.4837 0.398948 50.5202 0.0198955 48.5155 0.957551C46.0096 2.13461 45.3995 5.08723 45.0072 7.04234C44.9201 7.52114 44.8329 7.92014 44.7458 8.23935C44.3971 9.3765 43.678 11.7306 40.3005 12.5486C39.8647 12.6483 38.6444 12.6284 37.2063 12.6084C36.1385 12.5885 35.0272 12.5685 34.3517 12.6084V20.0099L42.5449 20.9675C42.5885 20.9675 42.6103 20.9875 42.6539 21.0074C44.0049 21.8453 44.4625 22.8827 44.7458 23.8204C44.7893 23.98 44.8547 24.1396 44.8983 24.3191C45.5738 26.6334 46.4018 29.5062 53.9195 28.9276C60.1734 28.4089 74.1193 27.5112 79.4797 27.5112Z" fill="black"/>
</g>
<g opacity="0.4">
<g opacity="0.4">
<path opacity="0.4" d="M190.35 19.3117C191.722 19.7706 193.422 19.9302 195.187 22.2843C197.606 22.2843 198.456 24.1197 197.192 24.3591C197.192 24.3591 195.165 24.4189 194.49 24.2793C193.967 24.1596 189.587 23.7805 186.144 24.0798C183.965 24.2793 180.391 24.2593 180.37 24.2793C179.716 24.8579 146.812 23.1022 142.89 23.2219C141.321 23.9601 137.682 23.9601 136.309 23.9002C134.936 23.8404 120.38 24.6584 104.343 24.1995C104.016 24.1995 79.044 24.1396 79.044 24.1396C79.044 24.1396 67.9962 25.0773 66.9503 25.2569C60.8054 26.2544 50.1716 21.606 45.8571 19.6908L38.4048 20.3691C39.4289 19.6708 33.8724 12.1297 34.1556 12.3491C36.4872 13.0474 45.5302 10.7332 45.5302 10.7332C45.5302 10.7332 50.5421 6.96259 56.9484 7.42144C72.2671 8.49875 73.2041 9.41646 79.2183 10.5736C81.1576 10.9526 83.1841 10.6733 84.9274 9.77556C87.5422 8.4389 91.2248 6.52369 97.4133 6.88279C100.377 7.04239 103.515 8.1995 105.258 9.91521C105.955 10.5935 106.87 11.0324 107.873 11.1122C115.717 11.8105 138.052 15.581 138.052 15.581C138.052 15.581 141.365 15.4813 141.386 15.4813C142.127 15.2618 150.277 14.3641 152.26 14.3641C158.209 14.3641 161.978 16.8978 164.005 17.5761C166.01 18.2344 171.523 18.9327 174.748 19.3117C176.12 19.4713 177.493 18.9526 178.343 17.9551C179.65 16.399 181.83 14.5037 183.856 16.0997C185.054 17.0374 185.752 17.596 186.885 18.4938C187.887 19.3117 189.369 18.9925 190.35 19.3117Z" fill="white"/>
<path opacity="0.4" d="M65.1198 25.596C58.6699 25.596 49.2346 21.4064 45.8353 19.9102L38.4483 20.5885C38.3394 20.6084 38.2304 20.5486 38.1868 20.4488C38.1432 20.3491 38.1868 20.2493 38.274 20.1895C38.2958 20.1695 38.5791 19.8902 37.1191 17.3765C36.2693 15.9201 35.158 14.2842 34.5042 13.3266C33.8287 12.3291 33.8287 12.3291 34.0031 12.1895C34.0684 12.1296 34.1774 12.1296 34.2645 12.1496C36.4218 12.768 44.724 10.7132 45.4213 10.5536C45.9224 10.1945 50.8471 6.78299 56.9702 7.22189C68.9114 8.05979 72.1146 8.79795 75.8189 9.63585C76.8649 9.87526 77.9544 10.1147 79.2618 10.374C81.1358 10.7331 83.1187 10.4738 84.7966 9.59595L84.8402 9.576C87.5204 8.19945 91.203 6.32413 97.4351 6.66329C100.551 6.84284 103.689 8.05979 105.454 9.77551C106.108 10.4139 106.979 10.8129 107.916 10.9127C115.543 11.571 137.181 15.2019 138.052 15.3615C140.58 15.2817 141.19 15.2618 141.343 15.2618C142.345 15.0024 150.364 14.1446 152.26 14.1446C156.858 14.1446 160.17 15.6408 162.371 16.6383C163.046 16.9376 163.613 17.197 164.092 17.3566C166.075 17.995 171.653 18.7132 174.791 19.0723C176.077 19.2319 177.362 18.7331 178.147 17.7955C179.062 16.7181 180.457 15.4014 181.96 15.2618C182.701 15.2019 183.398 15.4214 184.03 15.9201L185.033 16.7181C185.708 17.2568 186.275 17.7157 187.059 18.3142C187.648 18.773 188.41 18.8329 189.151 18.8927C189.63 18.9326 190.066 18.9725 190.48 19.0922C190.676 19.1521 190.894 19.2119 191.112 19.2917C192.332 19.6508 193.858 20.0698 195.361 22.0648C196.93 22.1047 197.976 22.9226 198.063 23.6807C198.107 24.1196 197.802 24.4787 197.301 24.5785C197.279 24.5785 197.279 24.5785 197.257 24.5785C197.17 24.5785 195.187 24.6383 194.49 24.4787C193.989 24.379 189.63 23.98 186.231 24.2992C184.466 24.4588 181.808 24.4787 180.805 24.4787C180.609 24.4787 180.478 24.4787 180.457 24.4787C179.389 24.7381 173.2 24.5585 157.795 23.9201C151.061 23.6408 144.677 23.3815 143.021 23.4214C141.103 24.2792 136.571 24.0997 136.375 24.0997C136.048 24.0797 134.936 24.1196 133.215 24.1795C127.811 24.359 116.545 24.7381 104.408 24.3989C104.081 24.3989 79.8066 24.3391 79.1311 24.3391C78.7171 24.379 68.0833 25.2768 67.0592 25.4364C66.4273 25.5561 65.7953 25.596 65.1198 25.596ZM45.8789 19.4513C45.9224 19.4513 45.9442 19.4513 45.9878 19.4713C49.6268 21.0872 60.7182 26.0149 66.9284 25.0174C67.9744 24.8378 78.6081 23.9401 79.0439 23.9002H79.0657C80.0899 23.9002 104.038 23.96 104.364 23.96C116.48 24.2992 127.746 23.9201 133.15 23.7406C134.936 23.6807 136.004 23.6408 136.331 23.6608C137.944 23.7206 141.365 23.6807 142.781 23.0224C142.803 23.0024 142.846 23.0024 142.89 23.0024C144.481 22.9625 150.626 23.2019 157.751 23.5012C166.859 23.8802 179.302 24.379 180.239 24.0997C180.304 24.0598 180.348 24.0598 180.762 24.0598C181.764 24.0598 184.379 24.0199 186.144 23.8802C189.674 23.561 194.054 23.96 194.577 24.0797C195.187 24.2194 196.996 24.1595 197.192 24.1595C197.453 24.0997 197.562 23.98 197.54 23.7605C197.475 23.2418 196.647 22.5436 195.209 22.5436C195.122 22.5436 195.056 22.5037 195.013 22.4438C193.575 20.5087 192.18 20.1097 190.938 19.7506C190.72 19.6907 190.502 19.6309 190.284 19.5511C189.936 19.4314 189.521 19.4114 189.086 19.3715C188.301 19.3117 187.408 19.2518 186.711 18.6932C185.926 18.0748 185.36 17.6159 184.684 17.0772L183.682 16.2792C183.159 15.8603 182.614 15.6807 182.004 15.7406C180.675 15.8603 179.389 17.0972 178.539 18.0947C177.646 19.1521 176.186 19.7107 174.726 19.5511C171.566 19.192 165.966 18.4738 163.94 17.7955C163.438 17.6359 162.85 17.3566 162.174 17.0573C160.017 16.0797 156.77 14.6034 152.282 14.6034C150.299 14.6034 142.171 15.5012 141.474 15.7007C141.452 15.7007 141.408 15.7206 141.386 15.7206C141.321 15.7206 139.186 15.7805 138.074 15.8204C138.052 15.8204 138.031 15.8204 138.031 15.8204C137.813 15.7805 115.63 12.0498 107.873 11.3715C106.827 11.2718 105.846 10.8329 105.105 10.0947C103.427 8.4588 100.42 7.30169 97.4133 7.12214C91.3119 6.78299 87.7165 8.6184 85.1017 9.97501L85.0581 9.99496C83.2713 10.9127 81.1794 11.2119 79.1747 10.8129C77.8455 10.5536 76.7559 10.2942 75.71 10.0548C72.0274 9.2169 68.846 8.47875 56.9484 7.64084C50.7163 7.20194 45.7699 10.8728 45.7045 10.9127C45.6827 10.9326 45.6392 10.9526 45.6174 10.9526C45.2687 11.0324 37.6203 12.9675 34.6568 12.6683C34.7439 12.788 34.8311 12.9276 34.9401 13.0673C37.6856 17.0972 38.8405 19.192 38.797 20.0897L45.8571 19.4513C45.8571 19.4513 45.8789 19.4513 45.8789 19.4513Z" fill="black"/>
</g>
<g opacity="0.4">
<path opacity="0.4" d="M76.9956 20.1695C78.7606 20.9476 81.4191 22.4837 80.5257 24.0997C80.5257 24.0997 77.7801 25.5361 75.5792 25.9351C73.6835 26.2742 70.7417 26.4737 69.3254 26.4737C67.0809 26.4937 53.5709 25.1371 53.0261 25.2368L52.4595 25.2568C52.2416 25.3366 51.6533 25.5959 51.3918 25.7356C50.6945 26.1146 48.6244 26.4139 47.7746 26.4737C46.1839 26.5535 44.201 26.2144 43.5473 25.8553C42.9153 25.975 42.1962 26.1146 41.6733 26.0947C41.1721 26.2742 39.7993 26.6533 39.7993 26.6533C39.7993 26.6533 38.165 27.3316 37.3806 27.2318C37.228 27.2119 37.0101 27.0323 36.9665 26.9126C36.5743 27.0323 36.1385 27.1121 35.8552 27.0722C35.4412 27.0124 35.2887 26.8528 35.2451 26.7131C35.0708 26.6533 34.8747 26.5336 34.8093 26.354C34.6785 25.9151 36.9447 25.2368 36.9447 25.2368C36.9447 25.2368 37.7292 24.8777 39.102 24.4987C39.8647 24.2992 40.4966 24.1396 41.0196 23.98C41.804 23.7007 42.7846 23.7007 43.1768 23.561C43.678 23.3815 48.4501 22.783 51.37 21.965C52.5249 21.8453 54.6168 21.7855 56.36 21.6658C57.6457 21.4663 65.0544 21.2069 70.9161 21.0473L76.9956 20.1695Z" fill="white"/>
<path opacity="0.4" d="M37.5331 27.4712C37.4677 27.4712 37.4023 27.4712 37.337 27.4513C37.1844 27.4313 36.9883 27.3116 36.8358 27.172C36.4 27.2917 36.0513 27.3316 35.7899 27.2917C35.3105 27.2318 35.1144 27.0323 35.0272 26.8727C34.7875 26.773 34.6132 26.6134 34.5478 26.4139C34.4171 25.975 35.1797 25.5161 36.8358 25.0174C36.9665 24.9575 37.7292 24.6184 39.0148 24.2792C39.3635 24.1795 39.6903 24.0997 39.9954 24.0199C40.3441 23.9201 40.6491 23.8403 40.9324 23.7805C41.39 23.6209 41.9348 23.5411 42.3924 23.4812C42.6756 23.4413 42.9371 23.4014 43.0897 23.3615C43.264 23.3017 43.8087 23.2019 44.8983 23.0224C46.6851 22.7231 49.3871 22.2842 51.2829 21.7456C51.3047 21.7456 51.3047 21.7456 51.3265 21.7456C52.0237 21.6658 53.0479 21.6259 54.1156 21.566C54.8565 21.5261 55.5974 21.4862 56.3165 21.4463C57.5803 21.2468 64.5315 20.9874 70.8943 20.8278C71.025 20.8278 71.134 20.9276 71.1558 21.0473C71.1558 21.167 71.0468 21.2668 70.9161 21.2867C64.5533 21.4663 57.6021 21.7256 56.4036 21.9052H56.3818C55.6628 21.9451 54.9001 21.985 54.1592 22.0249C53.0915 22.0847 52.0891 22.1246 51.4136 22.2044C49.4961 22.7431 46.7722 23.2019 44.9854 23.4812C44.1356 23.6209 43.4165 23.7406 43.264 23.7805C43.0679 23.8403 42.7846 23.8802 42.4577 23.9201C42.0219 23.98 41.5207 24.0398 41.0849 24.1994C40.7799 24.2792 40.4748 24.359 40.1262 24.4588C39.8211 24.5386 39.4942 24.6184 39.1456 24.7181C37.8164 25.0772 37.0537 25.4363 37.0319 25.4363C37.0101 25.4363 37.0101 25.4563 36.9883 25.4563C36.0296 25.7356 35.1361 26.1346 35.0272 26.3141C35.0708 26.4139 35.2015 26.4737 35.2887 26.4937C35.3758 26.5136 35.4412 26.5934 35.4412 26.6732C35.4412 26.6932 35.5284 26.8129 35.8334 26.8528C35.986 26.8727 36.291 26.8727 36.8358 26.7131C36.9665 26.6732 37.0973 26.7331 37.1409 26.8528C37.1627 26.8927 37.2934 26.9924 37.3588 27.0124C37.9253 27.0922 39.211 26.6333 39.6468 26.4538C39.6468 26.4538 39.6686 26.4538 39.6686 26.4338C39.6903 26.4338 41.0414 26.0548 41.5207 25.8752C41.5425 25.8553 41.5861 25.8553 41.6079 25.8553C42.1309 25.8752 42.8718 25.7156 43.4383 25.6159C43.5037 25.5959 43.569 25.6159 43.6126 25.6358C44.2228 25.975 46.1839 26.3141 47.6874 26.2343C48.5155 26.1944 50.542 25.8752 51.1957 25.5361C51.4572 25.3964 52.0455 25.157 52.2852 25.0573C52.307 25.0373 52.3506 25.0373 52.3724 25.0373L52.9389 25.0174C53.2876 24.9775 55.1398 25.1371 59.4979 25.5161C63.4637 25.8553 67.9744 26.2543 69.2382 26.2543C69.26 26.2543 69.26 26.2543 69.2818 26.2543C70.6982 26.2543 73.6399 26.0548 75.4921 25.7156C77.4314 25.3565 79.872 24.1595 80.3078 23.9401C80.4603 23.6408 80.4603 23.3416 80.3513 23.0224C79.8937 21.8254 77.7583 20.768 76.8649 20.3889C71.439 18.0149 68.1705 16.6982 66.8848 16.379C65.2941 15.96 62.6793 14.5635 60.6092 13.4463C59.5197 12.8677 58.2994 12.2094 58.0379 12.1695C57.9072 12.1894 57.7982 12.1096 57.7764 11.9899C57.7546 11.8702 57.82 11.7505 57.9725 11.7106C58.234 11.6508 58.8006 11.9301 60.8707 13.0473C62.8318 14.0847 65.4903 15.5211 67.0374 15.9201C68.3448 16.2593 71.6352 17.576 77.1046 19.97C78.303 20.4887 80.3513 21.5461 80.8525 22.8628C81.0268 23.3216 80.9833 23.7605 80.7654 24.1994C80.7436 24.2393 80.7 24.2792 80.6564 24.2992C80.5475 24.359 77.8454 25.7555 75.6228 26.1545C73.6399 26.5136 70.6982 26.6932 69.3036 26.6932C69.2818 26.6932 69.2818 26.6932 69.26 26.6932C67.9744 26.6932 63.4637 26.2942 59.4761 25.955C56.4472 25.6957 53.3312 25.4164 53.0261 25.4563H53.0043L52.4813 25.4762C52.2634 25.576 51.7187 25.7954 51.479 25.9151C50.7163 26.3141 48.6244 26.6333 47.7528 26.6732C46.1621 26.753 44.2446 26.4338 43.4819 26.0548C42.9371 26.1545 42.218 26.2942 41.6951 26.2942C41.1939 26.4737 40.0172 26.7929 39.8647 26.8328C39.6686 26.9525 38.3611 27.4712 37.5331 27.4712Z" fill="black"/>
</g>
<g opacity="0.4">
<path opacity="0.4" d="M59.5197 21.5262C59.4979 21.5262 59.4761 21.5262 59.4543 21.5262C59.0621 21.4464 58.3212 21.4065 57.4714 21.3466C55.3795 21.2269 52.5032 21.0673 50.8907 20.0898C50.7817 20.0299 50.7381 19.8903 50.8253 19.7706C50.8907 19.6708 51.0432 19.6309 51.1739 19.7107C52.6993 20.6284 55.4884 20.788 57.515 20.8878C58.4302 20.9476 59.1492 20.9875 59.585 21.0673C59.7158 21.0873 59.803 21.2269 59.7594 21.3466C59.7376 21.4464 59.6286 21.5262 59.5197 21.5262Z" fill="black"/>
</g>
<g opacity="0.4">
<path opacity="0.4" d="M36.9666 27.1521C36.9012 27.1521 36.8358 27.1321 36.7922 27.0922C36.7269 27.0324 36.7051 26.9526 36.7051 26.8528C36.7269 26.7531 36.7705 26.4538 39.1674 25.3565C39.1674 25.3565 39.1892 25.3565 39.1892 25.3366C39.1892 25.3366 40.2569 24.9974 41.6079 24.6184C42.9589 24.2593 43.3512 24.1196 44.0267 23.9002C44.1574 23.8603 44.2882 23.9201 44.3535 24.0398C44.3971 24.1595 44.3317 24.2792 44.201 24.3391C43.5255 24.5785 43.1115 24.6982 41.7605 25.0772C40.4966 25.4164 39.516 25.7356 39.3853 25.7755C38.4919 26.1945 37.446 26.7331 37.228 26.9526C37.228 27.0124 37.2063 27.0723 37.1627 27.1122C37.0755 27.1321 37.0101 27.1521 36.9666 27.1521Z" fill="black"/>
</g>
<g opacity="0.4">
<path opacity="0.4" d="M35.2451 26.9526C35.1144 26.9526 35.0272 26.8728 35.0054 26.7531C34.9401 26.2942 36.9884 25.4563 37.2499 25.3965C37.4896 25.3366 38.797 24.8578 39.9519 24.4389C42.7628 23.4015 42.8064 23.4015 42.9372 23.4214C43.0679 23.4414 43.1551 23.5611 43.1333 23.6808C43.1115 23.7805 43.0025 23.8603 42.8936 23.8603C42.6757 23.9002 41.2593 24.4189 40.148 24.8379C38.8624 25.3167 37.6639 25.7556 37.3806 25.8154C36.9012 25.9351 35.6809 26.5735 35.4848 26.773C35.463 26.8528 35.3759 26.9127 35.2887 26.9326C35.2669 26.9526 35.2451 26.9526 35.2451 26.9526Z" fill="black"/>
</g>
</g>
<path d="M51.4226 54.8C51.6039 54.8 51.7479 54.8587 51.8546 54.976C51.9612 55.0827 52.0146 55.2213 52.0146 55.392V65.328C52.0146 65.5307 51.9506 65.696 51.8226 65.824C51.6946 65.9413 51.5399 66 51.3586 66C51.2626 66 51.1666 65.984 51.0706 65.952C50.9746 65.9093 50.8999 65.856 50.8466 65.792L43.9986 56.736L44.3186 56.544V65.408C44.3186 65.5787 44.2599 65.7227 44.1426 65.84C44.0359 65.9467 43.8919 66 43.7106 66C43.5399 66 43.4012 65.9467 43.2946 65.84C43.1879 65.7227 43.1346 65.5787 43.1346 65.408V55.44C43.1346 55.248 43.1932 55.0933 43.3106 54.976C43.4386 54.8587 43.5879 54.8 43.7586 54.8C43.8546 54.8 43.9506 54.8213 44.0466 54.864C44.1532 54.896 44.2332 54.9493 44.2866 55.024L51.0386 63.952L50.8306 64.208V55.392C50.8306 55.2213 50.8839 55.0827 50.9906 54.976C51.1079 54.8587 51.2519 54.8 51.4226 54.8ZM61.4141 57.648C61.5954 57.648 61.7447 57.712 61.8621 57.84C61.9901 57.9573 62.0541 58.1067 62.0541 58.288V65.344C62.0541 65.5253 61.9901 65.68 61.8621 65.808C61.7447 65.936 61.5954 66 61.4141 66C61.2221 66 61.0674 65.936 60.9501 65.808C60.8327 65.68 60.7741 65.5253 60.7741 65.344V63.824L61.0781 63.792C61.0781 64.0267 60.9981 64.2827 60.8381 64.56C60.6781 64.8373 60.4594 65.0987 60.1821 65.344C59.9047 65.5787 59.5741 65.776 59.1901 65.936C58.8167 66.0853 58.4114 66.16 57.9741 66.16C57.2487 66.16 56.5981 65.9733 56.0221 65.6C55.4461 65.216 54.9874 64.6987 54.6461 64.048C54.3154 63.3973 54.1501 62.656 54.1501 61.824C54.1501 60.9813 54.3154 60.24 54.6461 59.6C54.9874 58.9493 55.4461 58.4427 56.0221 58.08C56.5981 57.7067 57.2381 57.52 57.9421 57.52C58.4007 57.52 58.8274 57.5947 59.2221 57.744C59.6167 57.8933 59.9581 58.096 60.2461 58.352C60.5447 58.608 60.7741 58.8907 60.9341 59.2C61.1047 59.5093 61.1901 59.8187 61.1901 60.128L60.7741 60.032V58.288C60.7741 58.1067 60.8327 57.9573 60.9501 57.84C61.0674 57.712 61.2221 57.648 61.4141 57.648ZM58.1181 64.976C58.6514 64.976 59.1207 64.8373 59.5261 64.56C59.9421 64.2827 60.2621 63.9093 60.4861 63.44C60.7207 62.96 60.8381 62.4213 60.8381 61.824C60.8381 61.2373 60.7207 60.7093 60.4861 60.24C60.2621 59.76 59.9421 59.3867 59.5261 59.12C59.1207 58.8427 58.6514 58.704 58.1181 58.704C57.5954 58.704 57.1261 58.8373 56.7101 59.104C56.3047 59.3707 55.9847 59.7387 55.7501 60.208C55.5154 60.6773 55.3981 61.216 55.3981 61.824C55.3981 62.4213 55.5101 62.96 55.7341 63.44C55.9687 63.9093 56.2887 64.2827 56.6941 64.56C57.1101 64.8373 57.5847 64.976 58.1181 64.976ZM58.3581 56.672C57.9847 56.672 57.6381 56.5973 57.3181 56.448C57.0087 56.288 56.7474 56.0747 56.5341 55.808C56.3314 55.5307 56.1981 55.2213 56.1341 54.88C56.0807 54.7093 56.0914 54.5707 56.1661 54.464C56.2514 54.3573 56.3687 54.304 56.5181 54.304C56.6781 54.304 56.8061 54.3467 56.9021 54.432C56.9981 54.5067 57.0834 54.6133 57.1581 54.752C57.2434 55.0507 57.3927 55.28 57.6061 55.44C57.8194 55.6 58.0701 55.68 58.3581 55.68C58.6567 55.68 58.9074 55.6 59.1101 55.44C59.3234 55.2693 59.4727 55.04 59.5581 54.752C59.6434 54.6133 59.7287 54.5067 59.8141 54.432C59.9101 54.3467 60.0434 54.304 60.2141 54.304C60.3634 54.304 60.4754 54.3573 60.5501 54.464C60.6354 54.5707 60.6514 54.704 60.5981 54.864C60.5341 55.2053 60.3954 55.5147 60.1821 55.792C59.9794 56.0587 59.7181 56.272 59.3981 56.432C59.0887 56.592 58.7421 56.672 58.3581 56.672ZM58.4701 54.496C58.4061 54.496 58.3367 54.48 58.2621 54.448C58.1981 54.4053 58.1341 54.3627 58.0701 54.32L56.7101 53.264C56.5927 53.1893 56.5021 53.1093 56.4381 53.024C56.3847 52.928 56.3581 52.8213 56.3581 52.704C56.3581 52.5227 56.4221 52.384 56.5501 52.288C56.6781 52.1813 56.8114 52.128 56.9501 52.128C57.0887 52.128 57.2061 52.16 57.3021 52.224C57.3981 52.288 57.4834 52.3573 57.5581 52.432L58.7421 53.792C58.8381 53.8987 58.8861 54.0053 58.8861 54.112C58.8861 54.2187 58.8487 54.3093 58.7741 54.384C58.6994 54.4587 58.5981 54.496 58.4701 54.496ZM68.3782 57.6C69.1035 57.6 69.6902 57.7867 70.1382 58.16C70.5969 58.5227 70.9009 59.04 71.0502 59.712H70.8102L70.9222 59.424C71.0502 59.1253 71.2689 58.8373 71.5782 58.56C71.8875 58.2827 72.2449 58.0533 72.6502 57.872C73.0555 57.6907 73.4769 57.6 73.9142 57.6C74.6182 57.6 75.1729 57.7547 75.5782 58.064C75.9835 58.3627 76.2715 58.768 76.4422 59.28C76.6235 59.7813 76.7142 60.3467 76.7142 60.976V65.344C76.7142 65.5253 76.6502 65.68 76.5222 65.808C76.4049 65.936 76.2555 66 76.0742 66C75.8822 66 75.7275 65.936 75.6102 65.808C75.4929 65.68 75.4342 65.5253 75.4342 65.344V61.008C75.4342 60.592 75.3702 60.2187 75.2422 59.888C75.1249 59.5467 74.9275 59.28 74.6502 59.088C74.3835 58.8853 74.0155 58.784 73.5462 58.784C73.1089 58.784 72.7089 58.8853 72.3462 59.088C71.9835 59.28 71.6955 59.5467 71.4822 59.888C71.2689 60.2187 71.1622 60.592 71.1622 61.008V65.344C71.1622 65.5253 71.1035 65.68 70.9862 65.808C70.8689 65.936 70.7142 66 70.5222 66C70.3409 66 70.1862 65.936 70.0582 65.808C69.9409 65.68 69.8822 65.5253 69.8822 65.344V60.96C69.8822 60.5547 69.8235 60.192 69.7062 59.872C69.5995 59.5413 69.4129 59.28 69.1462 59.088C68.8795 58.8853 68.5115 58.784 68.0422 58.784C67.6155 58.784 67.2262 58.8853 66.8742 59.088C66.5222 59.28 66.2395 59.5413 66.0262 59.872C65.8129 60.192 65.7062 60.5547 65.7062 60.96V65.344C65.7062 65.5253 65.6422 65.68 65.5142 65.808C65.3969 65.936 65.2475 66 65.0662 66C64.8849 66 64.7302 65.936 64.6022 65.808C64.4849 65.68 64.4262 65.5253 64.4262 65.344V58.368C64.4262 58.1867 64.4849 58.0373 64.6022 57.92C64.7302 57.792 64.8849 57.728 65.0662 57.728C65.2582 57.728 65.4129 57.792 65.5302 57.92C65.6475 58.0373 65.7062 58.1867 65.7062 58.368V59.584L65.3542 59.968C65.3969 59.6907 65.5035 59.4133 65.6742 59.136C65.8555 58.8587 66.0849 58.6027 66.3622 58.368C66.6395 58.1333 66.9489 57.9467 67.2902 57.808C67.6315 57.6693 67.9942 57.6 68.3782 57.6ZM87.4407 57.6C88.166 57.6 88.7527 57.7867 89.2007 58.16C89.6594 58.5227 89.9634 59.04 90.1127 59.712H89.8727L89.9847 59.424C90.1127 59.1253 90.3314 58.8373 90.6407 58.56C90.95 58.2827 91.3074 58.0533 91.7127 57.872C92.118 57.6907 92.5394 57.6 92.9767 57.6C93.6807 57.6 94.2354 57.7547 94.6407 58.064C95.046 58.3627 95.334 58.768 95.5047 59.28C95.686 59.7813 95.7767 60.3467 95.7767 60.976V65.344C95.7767 65.5253 95.7127 65.68 95.5847 65.808C95.4674 65.936 95.318 66 95.1367 66C94.9447 66 94.79 65.936 94.6727 65.808C94.5554 65.68 94.4967 65.5253 94.4967 65.344V61.008C94.4967 60.592 94.4327 60.2187 94.3047 59.888C94.1874 59.5467 93.99 59.28 93.7127 59.088C93.446 58.8853 93.078 58.784 92.6087 58.784C92.1714 58.784 91.7714 58.8853 91.4087 59.088C91.046 59.28 90.758 59.5467 90.5447 59.888C90.3314 60.2187 90.2247 60.592 90.2247 61.008V65.344C90.2247 65.5253 90.166 65.68 90.0487 65.808C89.9314 65.936 89.7767 66 89.5847 66C89.4034 66 89.2487 65.936 89.1207 65.808C89.0034 65.68 88.9447 65.5253 88.9447 65.344V60.96C88.9447 60.5547 88.886 60.192 88.7687 59.872C88.662 59.5413 88.4754 59.28 88.2087 59.088C87.942 58.8853 87.574 58.784 87.1047 58.784C86.678 58.784 86.2887 58.8853 85.9367 59.088C85.5847 59.28 85.302 59.5413 85.0887 59.872C84.8754 60.192 84.7687 60.5547 84.7687 60.96V65.344C84.7687 65.5253 84.7047 65.68 84.5767 65.808C84.4594 65.936 84.31 66 84.1287 66C83.9474 66 83.7927 65.936 83.6647 65.808C83.5474 65.68 83.4887 65.5253 83.4887 65.344V58.368C83.4887 58.1867 83.5474 58.0373 83.6647 57.92C83.7927 57.792 83.9474 57.728 84.1287 57.728C84.3207 57.728 84.4754 57.792 84.5927 57.92C84.71 58.0373 84.7687 58.1867 84.7687 58.368V59.584L84.4167 59.968C84.4594 59.6907 84.566 59.4133 84.7367 59.136C84.918 58.8587 85.1474 58.6027 85.4247 58.368C85.702 58.1333 86.0114 57.9467 86.3527 57.808C86.694 57.6693 87.0567 57.6 87.4407 57.6ZM106.001 61.84C106.001 62.672 105.814 63.4133 105.441 64.064C105.078 64.7147 104.582 65.2267 103.953 65.6C103.334 65.9733 102.636 66.16 101.857 66.16C101.078 66.16 100.374 65.9733 99.7449 65.6C99.1156 65.2267 98.6143 64.7147 98.2409 64.064C97.8783 63.4133 97.6969 62.672 97.6969 61.84C97.6969 61.008 97.8783 60.2667 98.2409 59.616C98.6143 58.9653 99.1156 58.4533 99.7449 58.08C100.374 57.7067 101.078 57.52 101.857 57.52C102.636 57.52 103.334 57.7067 103.953 58.08C104.582 58.4533 105.078 58.9653 105.441 59.616C105.814 60.2667 106.001 61.008 106.001 61.84ZM104.721 61.84C104.721 61.2213 104.593 60.6773 104.337 60.208C104.092 59.7387 103.75 59.3707 103.313 59.104C102.886 58.8373 102.401 58.704 101.857 58.704C101.313 58.704 100.822 58.8373 100.385 59.104C99.9583 59.3707 99.6169 59.7387 99.3609 60.208C99.1049 60.6773 98.9769 61.2213 98.9769 61.84C98.9769 62.448 99.1049 62.9867 99.3609 63.456C99.6169 63.9253 99.9583 64.2987 100.385 64.576C100.822 64.8427 101.313 64.976 101.857 64.976C102.401 64.976 102.886 64.8427 103.313 64.576C103.75 64.2987 104.092 63.9253 104.337 63.456C104.593 62.9867 104.721 62.448 104.721 61.84ZM101.841 68.448C101.585 68.448 101.393 68.3947 101.265 68.288C101.137 68.1813 101.073 68.016 101.073 67.792V67.568C101.073 67.344 101.142 67.1787 101.281 67.072C101.42 66.9653 101.612 66.912 101.857 66.912C102.124 66.912 102.321 66.9653 102.449 67.072C102.577 67.1787 102.641 67.344 102.641 67.568V67.792C102.641 68.016 102.572 68.1813 102.433 68.288C102.305 68.3947 102.108 68.448 101.841 68.448ZM109.158 65.344C109.158 65.5253 109.094 65.68 108.966 65.808C108.849 65.936 108.7 66 108.518 66C108.326 66 108.172 65.936 108.054 65.808C107.937 65.68 107.878 65.5253 107.878 65.344V58.24C107.878 58.0587 107.937 57.9093 108.054 57.792C108.182 57.664 108.337 57.6 108.518 57.6C108.7 57.6 108.849 57.664 108.966 57.792C109.094 57.9093 109.158 58.0587 109.158 58.24V65.344ZM108.518 56.528C108.252 56.528 108.054 56.4747 107.926 56.368C107.798 56.2613 107.734 56.096 107.734 55.872V55.648C107.734 55.424 107.804 55.2587 107.942 55.152C108.081 55.0453 108.278 54.992 108.534 54.992C108.79 54.992 108.982 55.0453 109.11 55.152C109.238 55.2587 109.302 55.424 109.302 55.648V55.872C109.302 56.096 109.233 56.2613 109.094 56.368C108.966 56.4747 108.774 56.528 108.518 56.528ZM115.544 57.776H119.304C119.474 57.776 119.613 57.8347 119.72 57.952C119.837 58.0693 119.896 58.208 119.896 58.368C119.896 58.5387 119.837 58.6827 119.72 58.8C119.613 58.9067 119.474 58.96 119.304 58.96H115.544C115.384 58.96 115.245 58.9013 115.128 58.784C115.01 58.6667 114.952 58.5227 114.952 58.352C114.952 58.192 115.01 58.0587 115.128 57.952C115.245 57.8347 115.384 57.776 115.544 57.776ZM117.224 55.6C117.405 55.6 117.554 55.664 117.672 55.792C117.789 55.9093 117.848 56.0587 117.848 56.24V63.968C117.848 64.224 117.885 64.416 117.96 64.544C118.034 64.672 118.13 64.7627 118.248 64.816C118.376 64.8587 118.498 64.88 118.616 64.88C118.722 64.88 118.813 64.864 118.888 64.832C118.973 64.7893 119.069 64.768 119.176 64.768C119.282 64.768 119.378 64.8213 119.464 64.928C119.56 65.024 119.608 65.152 119.608 65.312C119.608 65.504 119.496 65.6693 119.272 65.808C119.048 65.936 118.797 66 118.52 66C118.37 66 118.184 65.9893 117.96 65.968C117.746 65.9467 117.533 65.8773 117.32 65.76C117.106 65.6427 116.925 65.4507 116.776 65.184C116.637 64.9067 116.568 64.5227 116.568 64.032V56.24C116.568 56.0587 116.632 55.9093 116.76 55.792C116.888 55.664 117.042 55.6 117.224 55.6ZM127.868 57.728C128.06 57.728 128.215 57.792 128.332 57.92C128.45 58.0373 128.508 58.1867 128.508 58.368V62.736C128.508 63.8133 128.204 64.6507 127.596 65.248C126.999 65.8347 126.162 66.128 125.084 66.128C124.018 66.128 123.18 65.8347 122.572 65.248C121.975 64.6507 121.676 63.8133 121.676 62.736V58.368C121.676 58.1867 121.735 58.0373 121.852 57.92C121.98 57.792 122.135 57.728 122.316 57.728C122.508 57.728 122.663 57.792 122.78 57.92C122.898 58.0373 122.956 58.1867 122.956 58.368V62.736C122.956 63.4613 123.143 64.0107 123.516 64.384C123.89 64.7573 124.412 64.944 125.084 64.944C125.778 64.944 126.306 64.7573 126.668 64.384C127.042 64.0107 127.228 63.4613 127.228 62.736V58.368C127.228 58.1867 127.287 58.0373 127.404 57.92C127.532 57.792 127.687 57.728 127.868 57.728ZM127.756 58.832V57.728C128.236 57.728 128.599 57.6373 128.844 57.456C129.09 57.2747 129.212 56.9813 129.212 56.576C129.212 56.416 129.255 56.2667 129.34 56.128C129.436 55.9787 129.58 55.904 129.772 55.904C129.986 55.904 130.124 55.984 130.188 56.144C130.263 56.2933 130.3 56.4373 130.3 56.576C130.3 57.0027 130.204 57.3867 130.012 57.728C129.82 58.0693 129.538 58.3413 129.164 58.544C128.791 58.736 128.322 58.832 127.756 58.832ZM134.966 57.776H138.726C138.896 57.776 139.035 57.8347 139.142 57.952C139.259 58.0693 139.318 58.208 139.318 58.368C139.318 58.5387 139.259 58.6827 139.142 58.8C139.035 58.9067 138.896 58.96 138.726 58.96H134.966C134.806 58.96 134.667 58.9013 134.55 58.784C134.432 58.6667 134.374 58.5227 134.374 58.352C134.374 58.192 134.432 58.0587 134.55 57.952C134.667 57.8347 134.806 57.776 134.966 57.776ZM136.646 55.6C136.827 55.6 136.976 55.664 137.094 55.792C137.211 55.9093 137.27 56.0587 137.27 56.24V63.968C137.27 64.224 137.307 64.416 137.382 64.544C137.456 64.672 137.552 64.7627 137.67 64.816C137.798 64.8587 137.92 64.88 138.038 64.88C138.144 64.88 138.235 64.864 138.31 64.832C138.395 64.7893 138.491 64.768 138.598 64.768C138.704 64.768 138.8 64.8213 138.886 64.928C138.982 65.024 139.03 65.152 139.03 65.312C139.03 65.504 138.918 65.6693 138.694 65.808C138.47 65.936 138.219 66 137.942 66C137.792 66 137.606 65.9893 137.382 65.968C137.168 65.9467 136.955 65.8773 136.742 65.76C136.528 65.6427 136.347 65.4507 136.198 65.184C136.059 64.9067 135.99 64.5227 135.99 64.032V56.24C135.99 56.0587 136.054 55.9093 136.182 55.792C136.31 55.664 136.464 55.6 136.646 55.6ZM145.098 57.6C145.802 57.6 146.357 57.7547 146.762 58.064C147.178 58.3627 147.471 58.768 147.642 59.28C147.823 59.7813 147.914 60.3413 147.914 60.96V65.344C147.914 65.5253 147.85 65.68 147.722 65.808C147.605 65.936 147.455 66 147.274 66C147.093 66 146.938 65.936 146.81 65.808C146.693 65.68 146.634 65.5253 146.634 65.344V60.96C146.634 60.5547 146.575 60.192 146.458 59.872C146.341 59.5413 146.143 59.28 145.866 59.088C145.599 58.8853 145.231 58.784 144.762 58.784C144.325 58.784 143.925 58.8853 143.562 59.088C143.199 59.28 142.911 59.5413 142.698 59.872C142.485 60.192 142.378 60.5547 142.378 60.96V65.344C142.378 65.5253 142.314 65.68 142.186 65.808C142.069 65.936 141.919 66 141.738 66C141.557 66 141.402 65.936 141.274 65.808C141.157 65.68 141.098 65.5253 141.098 65.344V54.8C141.098 54.6187 141.157 54.4693 141.274 54.352C141.402 54.224 141.557 54.16 141.738 54.16C141.93 54.16 142.085 54.224 142.202 54.352C142.319 54.4693 142.378 54.6187 142.378 54.8V59.584L142.058 59.936C142.111 59.6587 142.229 59.3813 142.41 59.104C142.591 58.816 142.821 58.56 143.098 58.336C143.375 58.112 143.685 57.936 144.026 57.808C144.367 57.6693 144.725 57.6 145.098 57.6ZM154.11 66.16C153.256 66.16 152.51 65.9787 151.87 65.616C151.23 65.2533 150.728 64.7573 150.366 64.128C150.014 63.488 149.838 62.752 149.838 61.92C149.838 60.992 150.019 60.2027 150.382 59.552C150.755 58.8907 151.235 58.3893 151.822 58.048C152.419 57.696 153.048 57.52 153.71 57.52C154.2 57.52 154.675 57.6107 155.134 57.792C155.592 57.9733 155.998 58.24 156.35 58.592C156.702 58.9333 156.984 59.3493 157.198 59.84C157.411 60.32 157.523 60.8587 157.534 61.456C157.534 61.6267 157.47 61.7707 157.342 61.888C157.214 62.0053 157.064 62.064 156.894 62.064H150.574L150.286 60.96H156.446L156.19 61.184V60.832C156.147 60.3947 155.998 60.0213 155.742 59.712C155.496 59.392 155.192 59.1467 154.83 58.976C154.478 58.8053 154.104 58.72 153.71 58.72C153.39 58.72 153.07 58.7787 152.75 58.896C152.44 59.0027 152.158 59.184 151.902 59.44C151.656 59.6853 151.454 60.0053 151.294 60.4C151.144 60.7947 151.07 61.2693 151.07 61.824C151.07 62.4427 151.192 62.9867 151.438 63.456C151.694 63.9253 152.046 64.2987 152.494 64.576C152.942 64.8427 153.464 64.976 154.062 64.976C154.435 64.976 154.76 64.928 155.038 64.832C155.315 64.736 155.555 64.6187 155.758 64.48C155.96 64.3307 156.131 64.1813 156.27 64.032C156.408 63.936 156.542 63.888 156.67 63.888C156.83 63.888 156.958 63.9413 157.054 64.048C157.16 64.1547 157.214 64.2827 157.214 64.432C157.214 64.6133 157.128 64.7733 156.958 64.912C156.659 65.2427 156.254 65.536 155.742 65.792C155.23 66.0373 154.686 66.16 154.11 66.16ZM153.854 55.312L152.51 56.432C152.414 56.5173 152.328 56.5867 152.254 56.64C152.19 56.6827 152.094 56.704 151.966 56.704C151.87 56.704 151.79 56.6773 151.726 56.624C151.662 56.56 151.63 56.4907 151.63 56.416C151.63 56.352 151.64 56.2987 151.662 56.256C151.683 56.2027 151.72 56.1387 151.774 56.064L152.814 54.88C152.984 54.6667 153.214 54.56 153.502 54.56H153.87C154.019 54.56 154.136 54.5813 154.222 54.624C154.318 54.6667 154.408 54.752 154.494 54.88L155.486 56.064C155.55 56.128 155.587 56.1867 155.598 56.24C155.619 56.2933 155.63 56.3467 155.63 56.4C155.63 56.4747 155.598 56.544 155.534 56.608C155.48 56.672 155.4 56.704 155.294 56.704C155.176 56.704 155.08 56.6773 155.006 56.624C154.942 56.5707 154.856 56.5067 154.75 56.432L153.358 55.264L153.854 55.312ZM155.63 55.392C155.555 55.392 155.475 55.36 155.39 55.296C155.315 55.232 155.278 55.1467 155.278 55.04C155.278 54.9653 155.31 54.88 155.374 54.784L156.334 53.216C156.398 53.1093 156.483 53.008 156.59 52.912C156.696 52.816 156.824 52.768 156.974 52.768C157.187 52.768 157.347 52.8267 157.454 52.944C157.56 53.0507 157.614 53.1947 157.614 53.376C157.603 53.4613 157.582 53.5413 157.55 53.616C157.518 53.6907 157.47 53.7707 157.406 53.856L156.19 55.136C156.115 55.2213 156.024 55.2853 155.918 55.328C155.822 55.3707 155.726 55.392 155.63 55.392Z" fill="#4F46E5"/>
</svg>
