<svg width="200" height="72" viewBox="0 0 200 72" fill="none" xmlns="http://www.w3.org/2000/svg">
<g clip-path="url(#clip0_2_470)">
<path d="M195.632 39.2353H4.38766C2.43687 39.2353 0.844849 37.6876 0.844849 35.7913V23.6501C0.844849 21.7538 2.43687 20.2061 4.38766 20.2061H195.632C197.583 20.2061 199.175 21.7538 199.175 23.6501V35.7913C199.175 37.6876 197.583 39.2353 195.632 39.2353Z" fill="#4B80FB" stroke="black" stroke-miterlimit="10"/>
<path d="M16.5183 20.2062V39.2353" stroke="black" stroke-miterlimit="10"/>
<path d="M30.9138 20.2062V39.2353" stroke="black" stroke-miterlimit="10"/>
<path d="M49.0316 23.3668V39.2353" stroke="black" stroke-miterlimit="10"/>
<path d="M65.8936 21.8409V39.2352" stroke="black" stroke-miterlimit="10"/>
<path d="M83.6525 20.0972V39.2353" stroke="black" stroke-miterlimit="10"/>
<path d="M99.9988 20.2497V39.2353" stroke="black" stroke-miterlimit="10"/>
<path d="M119.955 20.2497V39.2353" stroke="black" stroke-miterlimit="10"/>
<path d="M142.131 20.1408V39.2353" stroke="black" stroke-miterlimit="10"/>
<path d="M165.092 20.2061V39.2353" stroke="black" stroke-miterlimit="10"/>
<path d="M185.542 20.2497V39.2353" stroke="black" stroke-miterlimit="10"/>
<path d="M42.7533 20.5767C42.7533 20.0754 42.5515 19.683 42.3945 19.2471C41.9461 18.2444 41.0043 17.0673 38.1566 16.4788C36.9233 16.2172 33.829 15.9339 32.1024 15.8685C29.5238 15.7813 24.3889 15.7813 21.8103 15.8685C20.0838 15.9339 17.0118 16.2172 15.7561 16.4788C12.9309 17.0673 11.9891 18.2226 11.5182 19.2471C11.3613 19.7048 11.1595 20.0972 11.1595 20.5767C11.1595 20.5767 10.7558 23.345 13.9847 23.345H14.1865H39.7486H39.9056C43.1345 23.3668 42.7533 20.5767 42.7533 20.5767Z" fill="#FFEA9D" stroke="black" stroke-miterlimit="10"/>
<path d="M27.8197 21.0344C31.9455 20.3369 33.4927 19.3124 34.7932 18.6585C38.4482 16.7185 42.4843 18.5495 43.4261 19.6176V19.5958C45.6683 21.8191 51.4534 23.4757 57.5973 23.4757C63.9878 23.4757 71.791 21.3614 79.2354 20.2497C81.231 19.9445 83.2491 20.3587 84.9532 21.3614C87.5991 22.909 92.9582 24.8054 98.0482 24.5438C101.098 24.3912 103.945 23.7373 105.806 21.9281C106.546 21.2088 107.511 20.7728 108.542 20.7075C116.659 20.2061 139.149 18.9637 139.149 18.9637C139.149 18.9637 142.558 19.5522 142.58 19.5522C143.32 19.8138 148.746 21.7973 153.724 21.7973C156.796 21.7973 163.702 20.4241 165.877 20.0535C168.77 19.5522 175.452 19.356 178.367 19.7484C179.802 19.9445 182.538 20.8164 183.031 21.078C183.614 21.405 187.964 22.1897 187.829 18.0482C187.762 16.4788 187.672 15.803 187.628 14.299C187.583 12.9476 187.672 10.3101 187.672 10.2447C187.672 10.2447 187.941 8.89327 187.829 6.93151C187.74 5.58007 187.784 4.22864 187.964 2.8772C188.054 2.20148 188.076 1.48217 187.897 0.959029C187.695 0.348703 185.991 -0.239826 185.991 0.87184C185.991 2.0053 185.542 3.7273 185.318 4.16324C185.071 4.64279 183.681 7.19308 182.022 10.2447C181.865 10.5281 181.708 10.7896 181.551 11.073C180.452 13.013 178.277 14.1028 176.012 13.8849C167.581 13.0348 147.199 10.9858 144.015 10.7896C141.885 9.5036 139.441 9.13304 138.028 9.15484C136.615 9.17664 122.691 5.81984 106.188 5.73265C101.501 3.53112 86.904 3.44393 80.1771 4.03246C77.3518 3.42213 68.7863 3.83628 67.6876 3.7055C57.4852 2.55024 48.6506 7.21488 45.758 8.95866C45.7132 8.98046 45.6683 9.02406 45.6235 9.04585C44.4351 9.65618 40.3765 9.24203 38.3361 9.11125L38.3585 9.06765C38.5603 8.06497 38.6724 7.0187 38.65 6.45197C38.6276 5.77625 37.9549 5.01334 37.1701 4.90435C36.4301 4.79537 32.8873 4.68638 32.6631 4.68638C32.6182 4.512 32.1922 2.72462 31.6316 3.05158C30.6899 3.55292 28.0215 4.66458 27.8197 4.75177C27.304 4.77357 25.6447 4.92615 25.1066 4.94795C19.7699 5.23131 17.4604 10.5063 18.4918 14.7786C19.5233 19.0509 22.1468 21.9935 27.8197 21.0344Z" fill="#C2D5FF"/>
<path d="M97.0839 24.8054C92.4423 24.8054 87.5542 23.1706 84.8186 21.5794C83.1369 20.5985 81.1636 20.2061 79.2577 20.4895C76.7912 20.8601 74.2574 21.3396 71.8133 21.8192C66.7009 22.8 61.88 23.7155 57.5972 23.7155C51.5879 23.7155 45.7579 22.1243 43.3363 19.8574C43.2914 19.8356 43.2466 19.8138 43.2241 19.792C42.3497 18.7893 38.4929 17.0019 34.9277 18.8765C34.7483 18.9637 34.5913 19.0509 34.412 19.1381C33.2011 19.792 31.5194 20.6639 27.8869 21.2742L27.8421 21.0344L27.8869 21.2742C22.7296 22.1243 19.5008 19.9664 18.2675 14.844C17.6397 12.2719 18.2227 9.46004 19.7474 7.47648C21.0479 5.79808 22.909 4.839 25.1065 4.73001C25.3307 4.70821 25.7792 4.68641 26.25 4.64282C26.8555 4.59922 27.4609 4.53383 27.7748 4.53383C27.8421 4.51203 27.9542 4.46844 28.0887 4.40305C28.8959 4.05429 30.7795 3.26958 31.5194 2.87723C31.6764 2.79004 31.8333 2.79004 31.9903 2.85543C32.4612 3.05161 32.7527 3.9671 32.8872 4.49024C33.672 4.51203 36.5421 4.62102 37.2148 4.70821C38.0893 4.839 38.8741 5.6673 38.919 6.4956C38.9414 7.04053 38.8293 7.99961 38.6723 8.9369C38.8965 8.9587 39.1208 8.9587 39.3674 8.9805C41.4303 9.13308 44.5695 9.35105 45.5113 8.87151L45.6458 8.78432C48.1796 7.23671 57.3057 2.2887 67.7548 3.48756C68.0911 3.53115 69.1898 3.50936 70.6025 3.48756C73.652 3.44396 78.2487 3.40037 80.2443 3.81452C86.8366 3.22599 101.479 3.29138 106.3 5.51471C118.969 5.58011 129.956 7.54187 135.225 8.47916C136.705 8.74073 137.781 8.9369 138.073 8.9369C138.095 8.9369 138.118 8.9369 138.163 8.9369C139.732 8.9369 142.087 9.37285 144.149 10.5935C147.513 10.8333 167.581 12.8386 176.08 13.6887C178.232 13.9067 180.318 12.8604 181.371 11.0077C181.528 10.7243 181.685 10.4627 181.842 10.1794C183.3 7.49828 184.892 4.59922 185.138 4.09788C185.363 3.66194 185.789 1.98354 185.789 0.915467C185.789 0.435925 186.058 0.108964 186.506 0.0435719C187.157 -0.065415 188.009 0.39233 188.188 0.915467C188.345 1.41681 188.39 2.09253 188.278 2.94262C188.098 4.25047 188.053 5.6019 188.143 6.95334C188.255 8.80612 188.031 10.114 187.986 10.3101C187.986 10.3537 187.986 10.4409 187.986 10.5717C187.964 11.3128 187.919 13.2528 187.941 14.3427C187.964 15.1056 188.009 15.6287 188.031 16.1954C188.076 16.7404 188.098 17.3071 188.143 18.07C188.188 19.5522 187.717 20.5767 186.73 21.1652C185.34 21.9717 183.412 21.5576 182.986 21.3178C182.537 21.0562 179.824 20.2061 178.412 20.01C175.609 19.6176 168.994 19.792 166.012 20.2933C165.653 20.3587 165.205 20.4459 164.644 20.5331C161.774 21.0562 156.415 22.0371 153.814 22.0371C150.697 22.0371 146.728 21.2524 142.67 19.8138L142.602 19.792C142.423 19.7702 141.795 19.6612 139.216 19.2035C138.275 19.2471 116.502 20.4677 108.632 20.9473C107.69 21.0127 106.771 21.405 106.053 22.1025C104.371 23.7155 101.77 24.6092 98.1153 24.8054C97.7341 24.8054 97.3978 24.8054 97.0839 24.8054ZM80.491 19.901C82.083 19.901 83.675 20.3369 85.0652 21.1434C87.9353 22.8218 93.2047 24.522 98.0256 24.2823C101.546 24.1079 104.035 23.2578 105.627 21.732C106.434 20.9691 107.466 20.4895 108.542 20.4241C116.569 19.9446 138.925 18.7021 139.172 18.6803C139.194 18.6803 139.216 18.6803 139.239 18.6803C140.562 18.8983 142.535 19.2471 142.647 19.2689C142.67 19.2689 142.692 19.2689 142.692 19.2907L142.782 19.3343C146.773 20.7511 150.675 21.5358 153.746 21.5358C156.303 21.5358 161.617 20.5549 164.487 20.0318C165.048 19.9228 165.518 19.8356 165.855 19.792C168.904 19.2689 175.586 19.0945 178.434 19.4868C179.824 19.683 182.65 20.5331 183.188 20.8601C183.502 21.0344 185.228 21.405 186.417 20.7075C187.246 20.2279 187.627 19.3343 187.583 18.0482C187.56 17.2853 187.515 16.7186 187.47 16.1736C187.426 15.6069 187.403 15.062 187.381 14.2991C187.336 13.1874 187.403 11.2474 187.426 10.5063C187.426 10.3537 187.426 10.2447 187.426 10.2447C187.426 10.2229 187.426 10.2011 187.426 10.2011C187.426 10.1794 187.695 8.84971 187.56 6.95334C187.47 5.58011 187.515 4.20687 187.695 2.85543C187.807 2.07073 187.784 1.4604 187.627 1.04625C187.538 0.784683 186.91 0.435925 186.506 0.501317C186.372 0.523114 186.215 0.588506 186.215 0.89367C186.215 2.04893 185.766 3.81452 185.52 4.29406C185.295 4.75181 184.085 6.97514 182.201 10.3755C182.044 10.6589 181.887 10.9205 181.73 11.2038C180.587 13.231 178.322 14.3645 175.945 14.1247C167.38 13.2528 147.132 11.2256 143.97 11.0295C143.925 11.0295 143.88 11.0077 143.858 10.9859C141.84 9.787 139.463 9.37285 138.006 9.37285C137.647 9.37285 136.683 9.19847 135.068 8.91511C129.799 7.97782 118.812 6.01605 106.165 5.95066C106.12 5.95066 106.098 5.95066 106.053 5.92886C101.367 3.72733 86.7245 3.66194 80.177 4.25047C80.1546 4.25047 80.1322 4.25047 80.1098 4.25047C78.2038 3.83632 73.6071 3.90171 70.5576 3.9453C69.0777 3.9671 68.0238 3.9671 67.6426 3.9453C57.3506 2.76824 48.3814 7.65086 45.87 9.17667L45.7355 9.26386C44.6368 9.83059 41.5424 9.61262 39.3001 9.43824C38.9414 9.41644 38.605 9.39465 38.3135 9.37285C38.2238 9.37285 38.1566 9.32925 38.1117 9.26386C38.0669 9.19847 38.0669 9.11128 38.0893 9.04589V9.02409C38.2911 8.06501 38.4032 7.01873 38.3808 6.4738C38.3584 5.92886 37.8202 5.25315 37.1027 5.16596C36.4973 5.07877 33.9187 4.99158 32.6181 4.94798C32.506 4.94798 32.3939 4.86079 32.3715 4.75181C32.1697 3.85811 31.8558 3.29138 31.7212 3.26958C30.9364 3.68373 29.0529 4.49024 28.2232 4.839C28.0214 4.92618 27.9093 4.96978 27.8645 4.99158C27.8421 5.01337 27.7972 5.01337 27.7748 5.01337C27.4833 5.01337 26.8106 5.07877 26.2276 5.12236C25.7567 5.16596 25.3083 5.18775 25.084 5.20955C23.0211 5.31854 21.2946 6.21223 20.1062 7.75984C18.6711 9.63442 18.133 12.2937 18.716 14.735C19.9044 19.6176 22.8418 21.6012 27.7524 20.7729C31.2952 20.1844 32.932 19.3125 34.1205 18.6803C34.2998 18.5931 34.4792 18.4842 34.6362 18.397C38.336 16.4352 42.3721 18.2226 43.4708 19.3343C43.4932 19.356 43.5381 19.356 43.5605 19.3996C45.8252 21.6448 51.5655 23.2142 57.5524 23.2142C61.7903 23.2142 66.5888 22.2987 71.6788 21.3178C74.1453 20.8383 76.6791 20.3587 79.1456 19.9882C79.6165 19.9446 80.0425 19.901 80.491 19.901Z" fill="black"/>
<path d="M51.476 20.9473C54.66 20.8601 73.4279 19.7048 74.863 19.9446C76.3205 20.2061 80.11 20.4241 82.7334 20.4241C85.3569 20.4241 100.492 19.7484 101.143 19.8574L101.815 19.8792C102.062 19.9882 102.757 20.2933 103.071 20.4677C103.901 20.9255 106.3 21.296 107.286 21.3614C109.148 21.4704 111.435 21.0126 112.197 20.5767C112.937 20.7293 113.789 20.8819 114.395 20.8601C114.978 21.078 116.57 21.5358 116.57 21.5358C116.57 21.5358 118.498 22.3641 119.395 22.2333C119.574 22.2115 119.843 21.9935 119.888 21.8409C120.359 21.9717 120.852 22.0807 121.189 22.0153C121.682 21.9499 121.861 21.732 121.884 21.5794C122.086 21.514 122.31 21.3614 122.377 21.1434C122.534 20.5985 119.798 20.0318 119.798 20.0318C119.798 20.0318 118.632 19.6612 117.018 19.2253C116.144 18.9855 115.404 18.7893 114.776 18.6149C113.879 18.288 113.049 17.9392 112.578 17.7866C111.995 17.5687 106.412 16.8494 103.026 15.8685C101.658 15.7159 99.2591 15.6505 97.1962 15.5197C95.492 15.2363 79.37 14.0375 76.5447 13.7977C73.7419 13.5579 59.3688 12.9912 56.6332 12.5117C53.8976 12.0321 53.494 11.4 53.494 11.4L51.476 20.9473Z" fill="#C2D5FF"/>
<path d="M119.215 22.5167C118.251 22.5167 116.682 21.8628 116.502 21.7974C116.323 21.7538 114.955 21.3397 114.372 21.1435C113.789 21.1435 113.072 21.0345 112.264 20.8601C111.39 21.3179 109.148 21.732 107.286 21.623C106.277 21.5795 103.833 21.1871 102.959 20.7076C102.69 20.555 102.039 20.2716 101.77 20.1626L101.165 20.1408C101.143 20.1408 101.143 20.1408 101.12 20.1408C100.761 20.0754 95.9853 20.2716 91.7698 20.4242C87.9803 20.5768 84.0339 20.7076 82.7782 20.7076H82.7558C80.0202 20.7076 76.2532 20.4678 74.8405 20.2062C73.8763 20.0318 64.4812 20.5332 58.2476 20.8601C55.1757 21.0345 52.5074 21.1653 51.4983 21.1871C51.3414 21.1871 51.2517 21.0781 51.2292 20.9473C51.2292 20.8165 51.3414 20.7076 51.4759 20.6858C52.4849 20.664 55.1532 20.5114 58.2252 20.3588C66.8131 19.9011 73.9885 19.5305 74.9302 19.7049C76.3204 19.9446 80.0426 20.1844 82.7558 20.1844H82.7782C84.0339 20.1844 87.9355 20.0318 91.7474 19.9011C97.2858 19.6831 100.717 19.5741 101.187 19.6177L101.838 19.6395C101.86 19.6395 101.905 19.6395 101.927 19.6613C102.196 19.7703 102.892 20.0754 103.205 20.2498C103.968 20.6858 106.345 21.0563 107.309 21.0999C109.103 21.1871 111.345 20.7729 112.085 20.3588C112.13 20.337 112.197 20.3152 112.264 20.337C112.915 20.4678 113.789 20.6422 114.394 20.6204C114.417 20.6204 114.462 20.6204 114.484 20.6422C115.067 20.8601 116.637 21.3179 116.659 21.3179H116.682C117.197 21.5359 118.677 22.1026 119.372 21.9936C119.44 21.9718 119.619 21.841 119.664 21.7756C119.709 21.6448 119.843 21.5795 119.978 21.623C120.628 21.8192 120.987 21.8192 121.166 21.7974C121.547 21.7538 121.637 21.6012 121.659 21.5577C121.682 21.4705 121.727 21.4051 121.816 21.3615C121.951 21.3179 122.108 21.2307 122.153 21.0999C121.996 20.8819 120.92 20.5114 119.776 20.2716H119.754C119.731 20.2716 118.565 19.9011 116.996 19.4651C116.592 19.3561 116.188 19.2471 115.852 19.1381C115.448 19.0292 115.09 18.9202 114.753 18.833C114.237 18.6368 113.767 18.4624 113.363 18.3098C113.049 18.1791 112.758 18.0701 112.556 18.0047C112.376 17.9393 111.524 17.8085 110.56 17.6341C108.452 17.2854 105.291 16.7404 103.048 16.0865C102.241 15.9993 101.075 15.9339 99.842 15.8903C98.9899 15.8467 98.093 15.8031 97.2634 15.7596H97.241C95.9853 15.5634 86.5228 14.8223 80.8947 14.3863C78.9215 14.2337 77.3295 14.103 76.6344 14.0594C75.6926 13.9722 73.383 13.8632 70.7371 13.7324C65.3108 13.449 58.5391 13.1003 56.7004 12.7733C53.9873 12.2938 53.4715 11.6616 53.3818 11.5527C53.3146 11.4437 53.337 11.2911 53.4715 11.2039C53.5836 11.1385 53.7406 11.1603 53.8303 11.2911C53.8303 11.2911 54.3012 11.8578 56.8125 12.2938C58.6064 12.6207 65.6471 12.9695 70.782 13.2529C73.4503 13.3836 75.7374 13.5144 76.7016 13.5798C77.4192 13.6452 78.9888 13.7542 80.962 13.9068C86.9713 14.3645 96.0301 15.0838 97.3531 15.3018C98.1827 15.3672 99.0572 15.4108 99.9093 15.4326C101.165 15.498 102.353 15.5416 103.183 15.6506C103.205 15.6506 103.205 15.6506 103.228 15.6506C105.448 16.3045 108.609 16.8276 110.695 17.1982C111.928 17.3944 112.578 17.5251 112.78 17.5905C112.982 17.6777 113.273 17.7867 113.61 17.8957C114.013 18.0483 114.484 18.2445 114.977 18.4188C115.291 18.506 115.65 18.5932 116.054 18.7022C116.413 18.7894 116.794 18.8984 117.22 19.0292C118.722 19.4433 119.866 19.7921 119.978 19.8357C120.538 19.9446 122.355 20.3806 122.691 20.9037C122.781 21.0563 122.758 21.1653 122.736 21.2525C122.668 21.4923 122.467 21.6884 122.198 21.8192C122.108 21.9936 121.906 22.2334 121.323 22.3206C121.009 22.3642 120.606 22.3206 120.09 22.1898C119.933 22.3642 119.709 22.4949 119.529 22.5385C119.372 22.5167 119.283 22.5167 119.215 22.5167Z" fill="black"/>
<path d="M119.888 22.1243C119.866 22.1243 119.843 22.1243 119.821 22.1243C119.709 22.1025 119.641 22.0153 119.619 21.9063C119.417 21.6666 118.049 20.9691 116.861 20.4241C116.726 20.3805 115.56 19.9882 114.081 19.574C112.556 19.1381 112.287 19.0727 111.457 18.7675C111.323 18.7239 111.255 18.5713 111.3 18.4406C111.345 18.3098 111.502 18.2444 111.636 18.288C112.421 18.5713 112.645 18.6367 114.215 19.0727C115.807 19.5086 117.018 19.9228 117.04 19.9228H117.063C120.247 21.3396 120.157 21.6884 120.112 21.8845C120.112 22.0371 120 22.1243 119.888 22.1243Z" fill="black"/>
<path d="M121.906 21.8628C121.884 21.8628 121.884 21.8628 121.861 21.8628C121.772 21.841 121.682 21.7756 121.659 21.6884C121.413 21.4487 119.798 20.6422 119.215 20.4896C118.879 20.4024 118.049 20.0536 117.265 19.7267C116.682 19.4869 115.986 19.1817 115.807 19.1381C115.695 19.1381 115.583 19.051 115.56 18.942C115.538 18.8112 115.628 18.6804 115.762 18.6586C115.919 18.6368 116.121 18.7022 117.466 19.2907C118.206 19.5959 119.036 19.9664 119.327 20.0318C119.574 20.0972 122.22 21.1217 122.153 21.6666C122.13 21.7756 122.018 21.8628 121.906 21.8628Z" fill="black"/>
<path d="M29.0753 16.021C28.1335 16.021 27.3487 15.6723 27.0797 15.062C26.7882 14.408 27.1021 13.6233 27.9093 12.9912C28.0214 12.904 28.1784 12.9258 28.2681 13.0348C28.3578 13.1438 28.3353 13.2964 28.2232 13.3836C27.6178 13.8631 27.3487 14.4516 27.5505 14.8876C27.8645 15.5851 29.2098 15.7595 30.4655 15.3017C31.2952 14.9966 31.9678 14.4734 32.1921 13.9285C32.3042 13.6669 32.3042 13.4272 32.2145 13.231C32.1696 13.1438 32.1024 13.0348 32.0127 12.9694C31.9006 12.8822 31.9006 12.7296 32.0127 12.6207C32.1024 12.5117 32.2593 12.5117 32.3715 12.6207C32.506 12.7514 32.6181 12.8822 32.6854 13.0348C32.8423 13.3618 32.8199 13.7541 32.6629 14.1247C32.3714 14.8004 31.6091 15.4107 30.6449 15.7813C30.1067 15.9339 29.5686 16.021 29.0753 16.021Z" fill="black"/>
</g>
<path d="M70.2507 54.8C70.432 54.8 70.576 54.8587 70.6827 54.976C70.7894 55.0827 70.8427 55.2213 70.8427 55.392V65.328C70.8427 65.5307 70.7787 65.696 70.6507 65.824C70.5227 65.9413 70.368 66 70.1867 66C70.0907 66 69.9947 65.984 69.8987 65.952C69.8027 65.9093 69.728 65.856 69.6747 65.792L62.8267 56.736L63.1467 56.544V65.408C63.1467 65.5787 63.088 65.7227 62.9707 65.84C62.864 65.9467 62.72 66 62.5387 66C62.368 66 62.2294 65.9467 62.1227 65.84C62.016 65.7227 61.9627 65.5787 61.9627 65.408V55.44C61.9627 55.248 62.0214 55.0933 62.1387 54.976C62.2667 54.8587 62.416 54.8 62.5867 54.8C62.6827 54.8 62.7787 54.8213 62.8747 54.864C62.9814 54.896 63.0614 54.9493 63.1147 55.024L69.8667 63.952L69.6587 64.208V55.392C69.6587 55.2213 69.712 55.0827 69.8187 54.976C69.936 54.8587 70.08 54.8 70.2507 54.8ZM80.2422 57.648C80.4235 57.648 80.5729 57.712 80.6902 57.84C80.8182 57.9573 80.8822 58.1067 80.8822 58.288V65.344C80.8822 65.5253 80.8182 65.68 80.6902 65.808C80.5729 65.936 80.4235 66 80.2422 66C80.0502 66 79.8955 65.936 79.7782 65.808C79.6609 65.68 79.6022 65.5253 79.6022 65.344V63.824L79.9062 63.792C79.9062 64.0267 79.8262 64.2827 79.6662 64.56C79.5062 64.8373 79.2875 65.0987 79.0102 65.344C78.7329 65.5787 78.4022 65.776 78.0182 65.936C77.6449 66.0853 77.2395 66.16 76.8022 66.16C76.0769 66.16 75.4262 65.9733 74.8502 65.6C74.2742 65.216 73.8155 64.6987 73.4742 64.048C73.1435 63.3973 72.9782 62.656 72.9782 61.824C72.9782 60.9813 73.1435 60.24 73.4742 59.6C73.8155 58.9493 74.2742 58.4427 74.8502 58.08C75.4262 57.7067 76.0662 57.52 76.7702 57.52C77.2289 57.52 77.6555 57.5947 78.0502 57.744C78.4449 57.8933 78.7862 58.096 79.0742 58.352C79.3729 58.608 79.6022 58.8907 79.7622 59.2C79.9329 59.5093 80.0182 59.8187 80.0182 60.128L79.6022 60.032V58.288C79.6022 58.1067 79.6609 57.9573 79.7782 57.84C79.8955 57.712 80.0502 57.648 80.2422 57.648ZM76.9462 64.976C77.4795 64.976 77.9489 64.8373 78.3542 64.56C78.7702 64.2827 79.0902 63.9093 79.3142 63.44C79.5489 62.96 79.6662 62.4213 79.6662 61.824C79.6662 61.2373 79.5489 60.7093 79.3142 60.24C79.0902 59.76 78.7702 59.3867 78.3542 59.12C77.9489 58.8427 77.4795 58.704 76.9462 58.704C76.4235 58.704 75.9542 58.8373 75.5382 59.104C75.1329 59.3707 74.8129 59.7387 74.5782 60.208C74.3435 60.6773 74.2262 61.216 74.2262 61.824C74.2262 62.4213 74.3382 62.96 74.5622 63.44C74.7969 63.9093 75.1169 64.2827 75.5222 64.56C75.9382 64.8373 76.4129 64.976 76.9462 64.976ZM77.1862 56.672C76.8129 56.672 76.4662 56.5973 76.1462 56.448C75.8369 56.288 75.5755 56.0747 75.3622 55.808C75.1595 55.5307 75.0262 55.2213 74.9622 54.88C74.9089 54.7093 74.9195 54.5707 74.9942 54.464C75.0795 54.3573 75.1969 54.304 75.3462 54.304C75.5062 54.304 75.6342 54.3467 75.7302 54.432C75.8262 54.5067 75.9115 54.6133 75.9862 54.752C76.0715 55.0507 76.2209 55.28 76.4342 55.44C76.6475 55.6 76.8982 55.68 77.1862 55.68C77.4849 55.68 77.7355 55.6 77.9382 55.44C78.1515 55.2693 78.3009 55.04 78.3862 54.752C78.4715 54.6133 78.5569 54.5067 78.6422 54.432C78.7382 54.3467 78.8715 54.304 79.0422 54.304C79.1915 54.304 79.3035 54.3573 79.3782 54.464C79.4635 54.5707 79.4795 54.704 79.4262 54.864C79.3622 55.2053 79.2235 55.5147 79.0102 55.792C78.8075 56.0587 78.5462 56.272 78.2262 56.432C77.9169 56.592 77.5702 56.672 77.1862 56.672ZM77.2982 54.496C77.2342 54.496 77.1649 54.48 77.0902 54.448C77.0262 54.4053 76.9622 54.3627 76.8982 54.32L75.5382 53.264C75.4209 53.1893 75.3302 53.1093 75.2662 53.024C75.2129 52.928 75.1862 52.8213 75.1862 52.704C75.1862 52.5227 75.2502 52.384 75.3782 52.288C75.5062 52.1813 75.6395 52.128 75.7782 52.128C75.9169 52.128 76.0342 52.16 76.1302 52.224C76.2262 52.288 76.3115 52.3573 76.3862 52.432L77.5702 53.792C77.6662 53.8987 77.7142 54.0053 77.7142 54.112C77.7142 54.2187 77.6769 54.3093 77.6022 54.384C77.5275 54.4587 77.4262 54.496 77.2982 54.496ZM87.2063 57.6C87.9316 57.6 88.5183 57.7867 88.9663 58.16C89.425 58.5227 89.729 59.04 89.8783 59.712H89.6383L89.7503 59.424C89.8783 59.1253 90.097 58.8373 90.4063 58.56C90.7156 58.2827 91.073 58.0533 91.4783 57.872C91.8836 57.6907 92.305 57.6 92.7423 57.6C93.4463 57.6 94.001 57.7547 94.4063 58.064C94.8116 58.3627 95.0996 58.768 95.2703 59.28C95.4516 59.7813 95.5423 60.3467 95.5423 60.976V65.344C95.5423 65.5253 95.4783 65.68 95.3503 65.808C95.233 65.936 95.0836 66 94.9023 66C94.7103 66 94.5556 65.936 94.4383 65.808C94.321 65.68 94.2623 65.5253 94.2623 65.344V61.008C94.2623 60.592 94.1983 60.2187 94.0703 59.888C93.953 59.5467 93.7556 59.28 93.4783 59.088C93.2116 58.8853 92.8436 58.784 92.3743 58.784C91.937 58.784 91.537 58.8853 91.1743 59.088C90.8116 59.28 90.5236 59.5467 90.3103 59.888C90.097 60.2187 89.9903 60.592 89.9903 61.008V65.344C89.9903 65.5253 89.9316 65.68 89.8143 65.808C89.697 65.936 89.5423 66 89.3503 66C89.169 66 89.0143 65.936 88.8863 65.808C88.769 65.68 88.7103 65.5253 88.7103 65.344V60.96C88.7103 60.5547 88.6516 60.192 88.5343 59.872C88.4276 59.5413 88.241 59.28 87.9743 59.088C87.7076 58.8853 87.3396 58.784 86.8703 58.784C86.4436 58.784 86.0543 58.8853 85.7023 59.088C85.3503 59.28 85.0676 59.5413 84.8543 59.872C84.641 60.192 84.5343 60.5547 84.5343 60.96V65.344C84.5343 65.5253 84.4703 65.68 84.3423 65.808C84.225 65.936 84.0756 66 83.8943 66C83.713 66 83.5583 65.936 83.4303 65.808C83.313 65.68 83.2543 65.5253 83.2543 65.344V58.368C83.2543 58.1867 83.313 58.0373 83.4303 57.92C83.5583 57.792 83.713 57.728 83.8943 57.728C84.0863 57.728 84.241 57.792 84.3583 57.92C84.4756 58.0373 84.5343 58.1867 84.5343 58.368V59.584L84.1823 59.968C84.225 59.6907 84.3316 59.4133 84.5023 59.136C84.6836 58.8587 84.913 58.6027 85.1903 58.368C85.4676 58.1333 85.777 57.9467 86.1183 57.808C86.4596 57.6693 86.8223 57.6 87.2063 57.6ZM106.429 57.52C107.154 57.52 107.725 57.6693 108.141 57.968C108.557 58.2667 108.85 58.6667 109.021 59.168C109.202 59.6693 109.293 60.2293 109.293 60.848V65.344C109.293 65.5253 109.229 65.68 109.101 65.808C108.983 65.936 108.834 66 108.653 66C108.471 66 108.317 65.936 108.189 65.808C108.071 65.68 108.013 65.5253 108.013 65.344V60.88C108.013 60.4747 107.949 60.112 107.821 59.792C107.703 59.4613 107.501 59.2 107.213 59.008C106.935 58.8053 106.551 58.704 106.061 58.704C105.613 58.704 105.202 58.8053 104.829 59.008C104.455 59.2 104.157 59.4613 103.933 59.792C103.709 60.112 103.597 60.4747 103.597 60.88V65.344C103.597 65.5253 103.533 65.68 103.405 65.808C103.287 65.936 103.138 66 102.957 66C102.775 66 102.621 65.936 102.493 65.808C102.375 65.68 102.317 65.5253 102.317 65.344V58.368C102.317 58.1867 102.375 58.0373 102.493 57.92C102.621 57.792 102.775 57.728 102.957 57.728C103.149 57.728 103.303 57.792 103.421 57.92C103.538 58.0373 103.597 58.1867 103.597 58.368V59.504L103.277 59.856C103.33 59.5787 103.453 59.3013 103.645 59.024C103.837 58.736 104.077 58.48 104.365 58.256C104.653 58.032 104.973 57.856 105.325 57.728C105.677 57.5893 106.045 57.52 106.429 57.52ZM115.133 57.52C115.591 57.52 116.018 57.6 116.413 57.76C116.807 57.9093 117.149 58.1067 117.437 58.352C117.735 58.5973 117.965 58.8533 118.125 59.12C118.295 59.3867 118.381 59.6373 118.381 59.872L118.077 59.68V58.288C118.077 58.1067 118.135 57.9573 118.253 57.84C118.37 57.712 118.525 57.648 118.717 57.648C118.898 57.648 119.047 57.712 119.165 57.84C119.293 57.9573 119.357 58.1067 119.357 58.288V65.296C119.357 66.1707 119.17 66.896 118.797 67.472C118.434 68.048 117.943 68.48 117.325 68.768C116.706 69.056 116.013 69.2 115.245 69.2C114.925 69.2 114.573 69.1573 114.189 69.072C113.805 68.9867 113.463 68.88 113.165 68.752C112.866 68.6347 112.674 68.512 112.589 68.384C112.429 68.2773 112.327 68.1547 112.285 68.016C112.253 67.888 112.279 67.7653 112.365 67.648C112.461 67.4987 112.583 67.424 112.733 67.424C112.893 67.424 113.09 67.472 113.325 67.568C113.421 67.6 113.57 67.6533 113.773 67.728C113.986 67.8027 114.221 67.8667 114.477 67.92C114.743 67.984 115.005 68.016 115.261 68.016C116.167 68.016 116.861 67.776 117.341 67.296C117.831 66.8267 118.077 66.2027 118.077 65.424V63.936L118.253 64.016C118.189 64.3147 118.055 64.592 117.853 64.848C117.661 65.104 117.421 65.3333 117.133 65.536C116.855 65.728 116.546 65.8827 116.205 66C115.863 66.1067 115.517 66.16 115.165 66.16C114.418 66.16 113.746 65.9733 113.149 65.6C112.551 65.2267 112.077 64.7147 111.725 64.064C111.383 63.4133 111.213 62.672 111.213 61.84C111.213 60.9973 111.383 60.2507 111.725 59.6C112.077 58.9493 112.546 58.4427 113.133 58.08C113.73 57.7067 114.397 57.52 115.133 57.52ZM115.293 58.704C114.749 58.704 114.258 58.8427 113.821 59.12C113.394 59.3867 113.058 59.7547 112.813 60.224C112.578 60.6933 112.461 61.232 112.461 61.84C112.461 62.4267 112.578 62.96 112.813 63.44C113.058 63.9093 113.394 64.2827 113.821 64.56C114.258 64.8373 114.749 64.976 115.293 64.976C115.847 64.976 116.338 64.8427 116.765 64.576C117.191 64.2987 117.527 63.9253 117.773 63.456C118.018 62.9867 118.141 62.448 118.141 61.84C118.141 61.2213 118.018 60.6773 117.773 60.208C117.527 59.7387 117.191 59.3707 116.765 59.104C116.338 58.8373 115.847 58.704 115.293 58.704ZM127.79 57.728C127.982 57.728 128.137 57.792 128.254 57.92C128.371 58.0373 128.43 58.1867 128.43 58.368V62.736C128.43 63.8133 128.126 64.6507 127.518 65.248C126.921 65.8347 126.083 66.128 125.006 66.128C123.939 66.128 123.102 65.8347 122.494 65.248C121.897 64.6507 121.598 63.8133 121.598 62.736V58.368C121.598 58.1867 121.657 58.0373 121.774 57.92C121.902 57.792 122.057 57.728 122.238 57.728C122.43 57.728 122.585 57.792 122.702 57.92C122.819 58.0373 122.878 58.1867 122.878 58.368V62.736C122.878 63.4613 123.065 64.0107 123.438 64.384C123.811 64.7573 124.334 64.944 125.006 64.944C125.699 64.944 126.227 64.7573 126.59 64.384C126.963 64.0107 127.15 63.4613 127.15 62.736V58.368C127.15 58.1867 127.209 58.0373 127.326 57.92C127.454 57.792 127.609 57.728 127.79 57.728ZM127.678 58.832V57.728C128.158 57.728 128.521 57.6373 128.766 57.456C129.011 57.2747 129.134 56.9813 129.134 56.576C129.134 56.416 129.177 56.2667 129.262 56.128C129.358 55.9787 129.502 55.904 129.694 55.904C129.907 55.904 130.046 55.984 130.11 56.144C130.185 56.2933 130.222 56.4373 130.222 56.576C130.222 57.0027 130.126 57.3867 129.934 57.728C129.742 58.0693 129.459 58.3413 129.086 58.544C128.713 58.736 128.243 58.832 127.678 58.832ZM123.886 54.512C124.046 54.3627 124.222 54.2453 124.414 54.16C124.617 54.064 124.846 54.016 125.102 54.016C125.475 54.016 125.763 54.0853 125.966 54.224C126.179 54.3627 126.323 54.528 126.398 54.72C126.483 54.912 126.526 55.0933 126.526 55.264C126.526 55.4453 126.483 55.6107 126.398 55.76C126.323 55.8987 126.211 56.048 126.062 56.208C125.987 56.2933 125.923 56.3733 125.87 56.448C125.827 56.5227 125.806 56.6027 125.806 56.688C125.795 56.7947 125.753 56.88 125.678 56.944C125.603 56.9973 125.507 57.024 125.39 57.024C125.283 57.024 125.187 56.992 125.102 56.928C125.027 56.864 124.99 56.7787 124.99 56.672C124.99 56.576 125.006 56.4747 125.038 56.368C125.081 56.2613 125.145 56.1547 125.23 56.048C125.347 55.9093 125.449 55.7867 125.534 55.68C125.619 55.5627 125.662 55.4507 125.662 55.344C125.662 55.1947 125.603 55.0773 125.486 54.992C125.379 54.9067 125.251 54.864 125.102 54.864C124.953 54.864 124.819 54.896 124.702 54.96C124.585 55.024 124.478 55.088 124.382 55.152C124.307 55.216 124.217 55.2533 124.11 55.264C124.014 55.2747 123.913 55.2267 123.806 55.12C123.721 55.0133 123.689 54.9067 123.71 54.8C123.742 54.6827 123.801 54.5867 123.886 54.512ZM137.617 57.648C137.799 57.648 137.948 57.712 138.065 57.84C138.193 57.9573 138.257 58.1067 138.257 58.288V65.344C138.257 65.5253 138.193 65.68 138.065 65.808C137.948 65.936 137.799 66 137.617 66C137.425 66 137.271 65.936 137.153 65.808C137.036 65.68 136.977 65.5253 136.977 65.344V63.824L137.281 63.792C137.281 64.0267 137.201 64.2827 137.041 64.56C136.881 64.8373 136.663 65.0987 136.385 65.344C136.108 65.5787 135.777 65.776 135.393 65.936C135.02 66.0853 134.615 66.16 134.177 66.16C133.452 66.16 132.801 65.9733 132.225 65.6C131.649 65.216 131.191 64.6987 130.849 64.048C130.519 63.3973 130.353 62.656 130.353 61.824C130.353 60.9813 130.519 60.24 130.849 59.6C131.191 58.9493 131.649 58.4427 132.225 58.08C132.801 57.7067 133.441 57.52 134.145 57.52C134.604 57.52 135.031 57.5947 135.425 57.744C135.82 57.8933 136.161 58.096 136.449 58.352C136.748 58.608 136.977 58.8907 137.137 59.2C137.308 59.5093 137.393 59.8187 137.393 60.128L136.977 60.032V58.288C136.977 58.1067 137.036 57.9573 137.153 57.84C137.271 57.712 137.425 57.648 137.617 57.648ZM134.321 64.976C134.855 64.976 135.324 64.8373 135.729 64.56C136.145 64.2827 136.465 63.9093 136.689 63.44C136.924 62.96 137.041 62.4213 137.041 61.824C137.041 61.2373 136.924 60.7093 136.689 60.24C136.465 59.76 136.145 59.3867 135.729 59.12C135.324 58.8427 134.855 58.704 134.321 58.704C133.799 58.704 133.329 58.8373 132.913 59.104C132.508 59.3707 132.188 59.7387 131.953 60.208C131.719 60.6773 131.601 61.216 131.601 61.824C131.601 62.4213 131.713 62.96 131.937 63.44C132.172 63.9093 132.492 64.2827 132.897 64.56C133.313 64.8373 133.788 64.976 134.321 64.976Z" fill="#4F46E5"/>
<defs>
<clipPath id="clip0_2_470">
<rect width="200" height="40" fill="white"/>
</clipPath>
</defs>
</svg>
