<svg width="307" height="99" viewBox="0 0 307 99" fill="none" xmlns="http://www.w3.org/2000/svg">
<path d="M107.371 95V82.1152H109.12L115.888 92.2314V82.1152H117.522V95H115.773L109.006 84.875V95H107.371ZM126.285 93.8486C125.699 94.3467 125.134 94.6982 124.589 94.9033C124.05 95.1084 123.47 95.2109 122.849 95.2109C121.823 95.2109 121.035 94.9619 120.484 94.4639C119.934 93.96 119.658 93.3184 119.658 92.5391C119.658 92.082 119.761 91.666 119.966 91.291C120.177 90.9102 120.449 90.6055 120.783 90.377C121.123 90.1484 121.504 89.9756 121.926 89.8584C122.236 89.7764 122.705 89.6973 123.332 89.6211C124.609 89.4688 125.55 89.2871 126.153 89.0762C126.159 88.8594 126.162 88.7217 126.162 88.6631C126.162 88.0186 126.013 87.5645 125.714 87.3008C125.31 86.9434 124.709 86.7646 123.912 86.7646C123.168 86.7646 122.617 86.8965 122.26 87.1602C121.908 87.418 121.647 87.8779 121.478 88.54L119.931 88.3291C120.071 87.667 120.303 87.1338 120.625 86.7295C120.947 86.3193 121.413 86.0059 122.022 85.7891C122.632 85.5664 123.338 85.4551 124.141 85.4551C124.938 85.4551 125.585 85.5488 126.083 85.7363C126.581 85.9238 126.947 86.1611 127.182 86.4482C127.416 86.7295 127.58 87.0869 127.674 87.5205C127.727 87.79 127.753 88.2764 127.753 88.9795V91.0889C127.753 92.5596 127.785 93.4912 127.85 93.8838C127.92 94.2705 128.055 94.6426 128.254 95H126.602C126.438 94.6719 126.332 94.2881 126.285 93.8486ZM126.153 90.3154C125.579 90.5498 124.718 90.749 123.569 90.9131C122.919 91.0068 122.459 91.1123 122.189 91.2295C121.92 91.3467 121.712 91.5195 121.565 91.748C121.419 91.9707 121.346 92.2197 121.346 92.4951C121.346 92.917 121.504 93.2686 121.82 93.5498C122.143 93.8311 122.611 93.9717 123.227 93.9717C123.836 93.9717 124.378 93.8398 124.853 93.5762C125.327 93.3066 125.676 92.9404 125.898 92.4775C126.068 92.1201 126.153 91.5928 126.153 90.8955V90.3154ZM125.679 82.1328H126.76C126.672 82.8652 126.402 83.4277 125.951 83.8203C125.506 84.2129 124.911 84.4092 124.167 84.4092C123.417 84.4092 122.816 84.2158 122.365 83.8291C121.92 83.4365 121.653 82.8711 121.565 82.1328H122.646C122.729 82.5312 122.89 82.8301 123.13 83.0293C123.376 83.2227 123.704 83.3193 124.114 83.3193C124.589 83.3193 124.946 83.2256 125.187 83.0381C125.433 82.8447 125.597 82.543 125.679 82.1328ZM125.178 81.4033H123.903L121.873 78.9424H123.991L125.178 81.4033ZM130.214 95V85.666H131.629V86.9756C131.922 86.5186 132.312 86.1523 132.798 85.877C133.284 85.5957 133.838 85.4551 134.459 85.4551C135.15 85.4551 135.716 85.5986 136.155 85.8857C136.601 86.1729 136.914 86.5742 137.096 87.0898C137.834 86 138.795 85.4551 139.979 85.4551C140.904 85.4551 141.616 85.7129 142.114 86.2285C142.612 86.7383 142.861 87.5264 142.861 88.5928V95H141.288V89.1201C141.288 88.4873 141.235 88.0332 141.13 87.7578C141.03 87.4766 140.846 87.251 140.576 87.0811C140.307 86.9111 139.99 86.8262 139.627 86.8262C138.971 86.8262 138.426 87.0459 137.992 87.4854C137.559 87.9189 137.342 88.6162 137.342 89.5771V95H135.76V88.9355C135.76 88.2324 135.631 87.7051 135.373 87.3535C135.115 87.002 134.693 86.8262 134.107 86.8262C133.662 86.8262 133.249 86.9434 132.868 87.1777C132.493 87.4121 132.221 87.7549 132.051 88.2061C131.881 88.6572 131.796 89.3076 131.796 90.1572V95H130.214ZM150.218 95V85.666H151.642V86.9932C152.327 85.9678 153.317 85.4551 154.612 85.4551C155.175 85.4551 155.69 85.5576 156.159 85.7627C156.634 85.9619 156.988 86.2256 157.223 86.5537C157.457 86.8818 157.621 87.2715 157.715 87.7227C157.773 88.0156 157.803 88.5283 157.803 89.2607V95H156.221V89.3223C156.221 88.6777 156.159 88.1973 156.036 87.8809C155.913 87.5586 155.693 87.3037 155.377 87.1162C155.066 86.9229 154.7 86.8262 154.278 86.8262C153.604 86.8262 153.021 87.04 152.529 87.4678C152.043 87.8955 151.8 88.707 151.8 89.9023V95H150.218ZM159.947 95.7734L161.485 96.002C161.55 96.4766 161.729 96.8223 162.021 97.0391C162.414 97.332 162.95 97.4785 163.63 97.4785C164.362 97.4785 164.928 97.332 165.326 97.0391C165.725 96.7461 165.994 96.3359 166.135 95.8086C166.217 95.4863 166.255 94.8096 166.249 93.7783C165.558 94.5928 164.696 95 163.665 95C162.382 95 161.389 94.5371 160.686 93.6113C159.982 92.6855 159.631 91.5752 159.631 90.2803C159.631 89.3896 159.792 88.5693 160.114 87.8193C160.437 87.0635 160.902 86.4805 161.512 86.0703C162.127 85.6602 162.848 85.4551 163.674 85.4551C164.775 85.4551 165.684 85.9004 166.398 86.791V85.666H167.857V93.7344C167.857 95.1875 167.708 96.2158 167.409 96.8193C167.116 97.4287 166.647 97.9092 166.003 98.2607C165.364 98.6123 164.576 98.7881 163.639 98.7881C162.525 98.7881 161.626 98.5361 160.94 98.0322C160.255 97.5342 159.924 96.7812 159.947 95.7734ZM161.257 90.166C161.257 91.3906 161.5 92.2842 161.986 92.8467C162.473 93.4092 163.082 93.6904 163.814 93.6904C164.541 93.6904 165.15 93.4121 165.643 92.8555C166.135 92.293 166.381 91.4141 166.381 90.2188C166.381 89.0762 166.126 88.2148 165.616 87.6348C165.112 87.0547 164.503 86.7646 163.788 86.7646C163.085 86.7646 162.487 87.0518 161.995 87.626C161.503 88.1943 161.257 89.041 161.257 90.166ZM178.879 87.5029V85.666H180.575V87.1162C180.575 88.0361 180.47 88.6777 180.259 89.041C179.72 89.9785 178.896 90.5059 177.789 90.623V95H176.374V93.6289C175.647 94.6836 174.66 95.2109 173.412 95.2109C172.867 95.2109 172.354 95.1084 171.874 94.9033C171.399 94.6924 171.045 94.4258 170.811 94.1035C170.576 93.7812 170.412 93.3887 170.318 92.9258C170.254 92.6094 170.222 92.1172 170.222 91.4492V85.666H171.804V90.8428C171.804 91.6807 171.836 92.2373 171.9 92.5127C172.105 93.4033 172.715 93.8486 173.729 93.8486C174.215 93.8486 174.663 93.7256 175.073 93.4795C175.489 93.2334 175.782 92.9023 175.952 92.4863C176.122 92.0703 176.207 91.4639 176.207 90.667V85.666H177.789V89.9551C178.533 89.8262 179.09 89.4775 179.459 88.9092C179.623 88.6631 179.705 88.1943 179.705 87.5029H178.879ZM173.509 83.4512C173.843 83.416 174.057 83.3838 174.15 83.3545C174.461 83.249 174.619 83.085 174.625 82.8623C174.631 82.7275 174.549 82.6133 174.379 82.5195C174.133 82.3848 173.743 82.3174 173.21 82.3174C173.028 82.3174 172.753 82.3291 172.384 82.3525L172.287 81.4561C172.516 81.4092 172.938 81.3887 173.553 81.3945C174.273 81.4004 174.862 81.5176 175.319 81.7461C175.823 81.9922 176.081 82.335 176.093 82.7744C176.116 83.501 175.583 83.9316 174.493 84.0664V84.5059H173.509V83.4512ZM188.406 93.8486C187.82 94.3467 187.255 94.6982 186.71 94.9033C186.171 95.1084 185.591 95.2109 184.97 95.2109C183.944 95.2109 183.156 94.9619 182.605 94.4639C182.055 93.96 181.779 93.3184 181.779 92.5391C181.779 92.082 181.882 91.666 182.087 91.291C182.298 90.9102 182.57 90.6055 182.904 90.377C183.244 90.1484 183.625 89.9756 184.047 89.8584C184.357 89.7764 184.826 89.6973 185.453 89.6211C186.73 89.4688 187.671 89.2871 188.274 89.0762C188.28 88.8594 188.283 88.7217 188.283 88.6631C188.283 88.0186 188.134 87.5645 187.835 87.3008C187.431 86.9434 186.83 86.7646 186.033 86.7646C185.289 86.7646 184.738 86.8965 184.381 87.1602C184.029 87.418 183.769 87.8779 183.599 88.54L182.052 88.3291C182.192 87.667 182.424 87.1338 182.746 86.7295C183.068 86.3193 183.534 86.0059 184.144 85.7891C184.753 85.5664 185.459 85.4551 186.262 85.4551C187.059 85.4551 187.706 85.5488 188.204 85.7363C188.702 85.9238 189.068 86.1611 189.303 86.4482C189.537 86.7295 189.701 87.0869 189.795 87.5205C189.848 87.79 189.874 88.2764 189.874 88.9795V91.0889C189.874 92.5596 189.906 93.4912 189.971 93.8838C190.041 94.2705 190.176 94.6426 190.375 95H188.723C188.559 94.6719 188.453 94.2881 188.406 93.8486ZM188.274 90.3154C187.7 90.5498 186.839 90.749 185.69 90.9131C185.04 91.0068 184.58 91.1123 184.311 91.2295C184.041 91.3467 183.833 91.5195 183.687 91.748C183.54 91.9707 183.467 92.2197 183.467 92.4951C183.467 92.917 183.625 93.2686 183.941 93.5498C184.264 93.8311 184.732 93.9717 185.348 93.9717C185.957 93.9717 186.499 93.8398 186.974 93.5762C187.448 93.3066 187.797 92.9404 188.02 92.4775C188.189 92.1201 188.274 91.5928 188.274 90.8955V90.3154Z" fill="#20315C"/>
<g clip-path="url(#clip0_139_918)">
<path d="M295.625 59.8341H14.3752C11.5063 59.8341 9.16504 57.474 9.16504 54.582V36.0668C9.16504 33.1748 11.5063 30.8147 14.3752 30.8147H295.625C298.494 30.8147 300.835 33.1748 300.835 36.0668V54.582C300.835 57.474 298.494 59.8341 295.625 59.8341Z" fill="#E4E4E4" stroke="black" stroke-miterlimit="10"/>
<path d="M32.2148 30.8147V59.8341" stroke="black" stroke-miterlimit="10"/>
<path d="M53.3853 30.8147V59.8341" stroke="black" stroke-miterlimit="10"/>
<path d="M80.0298 35.6345V59.834" stroke="black" stroke-miterlimit="10"/>
<path d="M104.828 33.3076V59.8339" stroke="black" stroke-miterlimit="10"/>
<path d="M130.944 30.6484V59.834" stroke="black" stroke-miterlimit="10"/>
<path d="M154.984 30.8811V59.834" stroke="black" stroke-miterlimit="10"/>
<path d="M184.332 30.8811V59.834" stroke="black" stroke-miterlimit="10"/>
<path d="M216.945 30.7148V59.834" stroke="black" stroke-miterlimit="10"/>
<path d="M250.712 30.8147V59.8341" stroke="black" stroke-miterlimit="10"/>
<path d="M280.786 30.8811V59.834" stroke="black" stroke-miterlimit="10"/>
<path d="M70.7966 31.3796C70.7966 30.6151 70.4998 30.0168 70.269 29.3519C69.6095 27.8228 68.2245 26.0278 64.0366 25.1303C62.2229 24.7314 57.6722 24.2993 55.1331 24.1996C51.3409 24.0666 43.7895 24.0666 39.9973 24.1996C37.4581 24.2993 32.9405 24.7314 31.0938 25.1303C26.9389 26.0278 25.5539 27.7896 24.8614 29.3519C24.6306 30.05 24.3338 30.6483 24.3338 31.3796C24.3338 31.3796 23.7402 35.6012 28.4887 35.6012H28.7855H66.3778H66.6087C71.3572 35.6345 70.7966 31.3796 70.7966 31.3796Z" fill="#EAEAEA" stroke="black" stroke-miterlimit="10"/>
<path d="M48.835 32.078C54.9025 31.0143 57.1779 29.4519 59.0904 28.4547C64.4655 25.4962 70.4011 28.2885 71.7861 29.9173V29.8841C75.0837 33.2746 83.5914 35.801 92.6268 35.801C102.025 35.801 113.5 32.5766 124.448 30.8813C127.383 30.4159 130.351 31.0475 132.857 32.5766C136.748 34.9367 144.629 37.8287 152.115 37.4298C156.6 37.1971 160.788 36.1998 163.525 33.4408C164.613 32.3439 166.031 31.6791 167.548 31.5793C179.485 30.8148 212.559 28.9201 212.559 28.9201C212.559 28.9201 217.572 29.8176 217.605 29.8176C218.693 30.2165 226.673 33.2414 233.994 33.2414C238.511 33.2414 248.668 31.1472 251.867 30.5821C256.12 29.8176 265.947 29.5184 270.234 30.1167C272.344 30.4159 276.367 31.7456 277.093 32.1444C277.95 32.6431 284.348 33.8397 284.15 27.524C284.051 25.1306 283.919 24.1001 283.853 21.8065C283.787 19.7456 283.919 15.7234 283.919 15.6237C283.919 15.6237 284.315 13.5627 284.15 10.571C284.018 8.5101 284.084 6.44916 284.348 4.38822C284.48 3.35774 284.512 2.26079 284.249 1.46301C283.952 0.53226 281.446 -0.365247 281.446 1.33004C281.446 3.05858 280.786 5.68461 280.456 6.34943C280.094 7.08074 278.049 10.9699 275.609 15.6237C275.378 16.0558 275.147 16.4547 274.917 16.8868C273.301 19.8453 270.102 21.5073 266.772 21.1749C254.373 19.8785 224.398 16.7539 219.715 16.4547C216.582 14.4935 212.988 13.9284 210.911 13.9616C208.833 13.9949 188.355 8.87575 164.085 8.74279C157.193 5.38544 135.726 5.25248 125.833 6.14999C121.678 5.21924 109.082 5.85082 107.466 5.65137C92.4619 3.8896 79.4694 11.0032 75.2156 13.6625C75.1496 13.6957 75.0837 13.7622 75.0177 13.7954C73.27 14.7262 67.3014 14.0946 64.3006 13.8951L64.3336 13.8287C64.6304 12.2996 64.7953 10.704 64.7623 9.83974C64.7293 8.80927 63.74 7.64583 62.5859 7.47963C61.4977 7.31342 56.2875 7.14722 55.9578 7.14722C55.8918 6.88129 55.2653 4.15553 54.4409 4.65414C53.0559 5.41869 49.1318 7.11398 48.835 7.24694C48.0766 7.28018 45.6364 7.51287 44.8449 7.54611C36.9967 7.97824 33.6002 16.0226 35.1171 22.5378C36.634 29.053 40.4921 33.5406 48.835 32.078Z" fill="#E4E4E4"/>
<path d="M150.697 37.8285C143.871 37.8285 136.682 35.3354 132.659 32.9088C130.186 31.413 127.284 30.8146 124.481 31.2467C120.854 31.8118 117.128 32.5431 113.533 33.2744C106.015 34.7703 98.925 36.1664 92.6266 36.1664C83.7891 36.1664 75.2154 33.7398 71.654 30.2828C71.5881 30.2495 71.5221 30.2163 71.4892 30.183C70.2031 28.654 64.5313 25.9282 59.2881 28.7869C59.0243 28.9199 58.7935 29.0528 58.5297 29.1858C56.749 30.183 54.2758 31.5127 48.9338 32.4434L48.8678 32.0778L48.9338 32.4434C41.3493 33.7398 36.6008 30.449 34.7872 22.6373C33.8639 18.7149 34.7212 14.4268 36.9636 11.4019C38.8762 8.84231 41.6132 7.37971 44.8448 7.21351C45.1745 7.18026 45.834 7.14702 46.5265 7.08054C47.4169 7.01406 48.3072 6.91434 48.7689 6.91434C48.8678 6.8811 49.0327 6.81461 49.2305 6.71489C50.4177 6.18303 53.1876 4.98636 54.2758 4.38802C54.5067 4.25506 54.7375 4.25506 54.9683 4.35478C55.6608 4.65395 56.0895 6.05007 56.2873 6.84785C57.4415 6.8811 61.6624 7.0473 62.6517 7.18026C63.9377 7.37971 65.0919 8.64287 65.1578 9.90603C65.1908 10.7371 65.0259 12.1997 64.7951 13.629C65.1248 13.6623 65.4546 13.6623 65.8173 13.6955C68.8511 13.9282 73.4677 14.2606 74.8527 13.5293L75.0505 13.3963C78.7768 11.0362 92.1979 3.49051 107.565 5.31877C108.059 5.38525 109.675 5.35201 111.753 5.31877C116.237 5.25229 122.997 5.1858 125.932 5.81738C135.627 4.91988 157.16 5.0196 164.25 8.41018C182.881 8.5099 199.039 11.5016 206.789 12.931C208.965 13.3298 210.548 13.629 210.976 13.629C211.009 13.629 211.042 13.629 211.108 13.629C213.417 13.629 216.879 14.2938 219.913 16.1553C224.859 16.521 254.373 19.5792 266.87 20.8756C270.036 21.208 273.103 19.6124 274.653 16.7869C274.883 16.3548 275.114 15.9559 275.345 15.5238C277.488 11.4351 279.83 7.01406 280.193 6.24952C280.522 5.5847 281.149 3.02514 281.149 1.39633C281.149 0.665029 281.545 0.166414 282.204 0.0666912C283.16 -0.0995138 284.413 0.598547 284.677 1.39633C284.908 2.16087 284.974 3.19134 284.809 4.48774C284.545 6.4822 284.479 8.54315 284.611 10.6041C284.776 13.4296 284.446 15.424 284.38 15.7232C284.38 15.7897 284.38 15.9226 284.38 16.1221C284.347 17.2523 284.281 20.2107 284.314 21.8728C284.347 23.0362 284.413 23.834 284.446 24.6983C284.512 25.5293 284.545 26.3936 284.611 27.557C284.677 29.8174 283.985 31.3797 282.534 32.2772C280.489 33.5071 277.653 32.8756 277.027 32.5099C276.367 32.111 272.377 30.8146 270.3 30.5154C266.178 29.9171 256.45 30.183 252.064 30.9476C251.537 31.0473 250.877 31.1803 250.053 31.3132C245.832 32.111 237.951 33.6069 234.125 33.6069C229.542 33.6069 223.705 32.4102 217.736 30.2163L217.638 30.183C217.374 30.1498 216.45 29.9836 212.658 29.2855C211.273 29.352 179.254 31.2135 167.679 31.9448C166.294 32.0445 164.942 32.6429 163.887 33.7066C161.414 36.1664 157.589 37.5293 152.214 37.8285C151.653 37.8285 151.159 37.8285 150.697 37.8285ZM126.295 30.3492C128.636 30.3492 130.977 31.0141 133.022 32.244C137.243 34.8035 144.992 37.3963 152.082 37.0307C157.259 36.7648 160.919 35.4684 163.261 33.1415C164.448 31.978 165.965 31.2467 167.547 31.147C179.353 30.4157 212.23 28.521 212.592 28.4877C212.625 28.4877 212.658 28.4877 212.691 28.4877C214.637 28.8202 217.539 29.352 217.704 29.3853C217.736 29.3853 217.769 29.3853 217.769 29.4185L217.901 29.485C223.771 31.6456 229.509 32.8423 234.027 32.8423C237.786 32.8423 245.601 31.3465 249.822 30.5487C250.646 30.3825 251.339 30.2495 251.833 30.183C256.318 29.3853 266.145 29.1193 270.333 29.7177C272.377 30.0168 276.532 31.3132 277.324 31.8118C277.785 32.0778 280.324 32.6429 282.072 31.5792C283.292 30.8479 283.853 29.485 283.787 27.5238C283.754 26.3603 283.688 25.4961 283.622 24.665C283.556 23.8008 283.523 22.9697 283.49 21.8063C283.424 20.111 283.523 17.1526 283.556 16.0224C283.556 15.7897 283.556 15.6235 283.556 15.6235C283.556 15.5902 283.556 15.557 283.556 15.557C283.556 15.5238 283.952 13.4961 283.754 10.6041C283.622 8.5099 283.688 6.41572 283.952 4.35478C284.117 3.1581 284.084 2.22736 283.853 1.59578C283.721 1.19689 282.798 0.665029 282.204 0.764752C282.006 0.797993 281.775 0.897716 281.775 1.36309C281.775 3.12486 281.116 5.81738 280.753 6.54869C280.423 7.24675 278.643 10.6373 275.873 15.8229C275.642 16.2551 275.411 16.6539 275.18 17.0861C273.498 20.1775 270.168 21.906 266.672 21.5404C254.076 20.2107 224.299 17.1193 219.649 16.8202C219.583 16.8202 219.517 16.7869 219.484 16.7537C216.516 14.9254 213.021 14.2938 210.878 14.2938C210.35 14.2938 208.932 14.0279 206.558 13.5958C198.808 12.1664 182.65 9.17472 164.052 9.075C163.986 9.075 163.953 9.075 163.887 9.04176C156.995 5.68442 135.462 5.5847 125.833 6.4822C125.8 6.4822 125.767 6.4822 125.734 6.4822C122.931 5.85062 116.171 5.95035 111.687 6.01683C109.51 6.05007 107.96 6.05007 107.4 6.01683C92.2639 4.22182 79.0736 11.6678 75.3803 13.9947L75.1824 14.1276C73.5666 14.9919 69.016 14.6595 65.7184 14.3936C65.1908 14.3603 64.6962 14.3271 64.2675 14.2938C64.1356 14.2938 64.0366 14.2274 63.9707 14.1276C63.9047 14.0279 63.9047 13.8949 63.9377 13.7952V13.762C64.2345 12.2994 64.3994 10.7038 64.3664 9.87279C64.3334 9.04176 63.542 8.01129 62.4868 7.87833C61.5964 7.74536 57.8042 7.6124 55.8916 7.54592C55.7268 7.54592 55.5619 7.41295 55.5289 7.24675C55.2321 5.88387 54.7705 5.0196 54.5726 4.98636C53.4185 5.61794 50.6485 6.84785 49.4284 7.37971C49.1316 7.51267 48.9667 7.57916 48.9008 7.6124C48.8678 7.64564 48.8019 7.64564 48.7689 7.64564C48.3402 7.64564 47.3509 7.74536 46.4936 7.81184C45.8011 7.87833 45.1416 7.91157 44.8118 7.94481C41.778 8.11101 39.2389 9.47389 37.4912 11.834C35.3807 14.6927 34.5893 18.7481 35.4467 22.4711C37.1944 29.9171 41.5142 32.942 48.7359 31.6789C53.9461 30.7814 56.3533 29.4517 58.101 28.4877C58.3648 28.3548 58.6286 28.1886 58.8595 28.0556C64.3004 25.0639 70.2361 27.7897 71.8519 29.485C71.8849 29.5182 71.9508 29.5182 71.9838 29.5847C75.3143 33.0085 83.7561 35.4019 92.5606 35.4019C98.7931 35.4019 105.85 34.0058 113.335 32.5099C116.963 31.7786 120.689 31.0473 124.316 30.4822C125.009 30.4157 125.635 30.3492 126.295 30.3492Z" fill="black"/>
<path d="M83.6245 31.9448C88.3071 31.8118 115.908 30.0501 118.018 30.4157C120.162 30.8146 125.735 31.147 129.593 31.147C133.451 31.147 155.709 30.1166 156.666 30.2828L157.655 30.316C158.018 30.4822 159.04 30.9476 159.502 31.2135C160.722 31.9116 164.25 32.4767 165.701 32.5764C168.438 32.7426 171.802 32.0445 172.923 31.3797C174.011 31.6124 175.264 31.8451 176.154 31.8118C177.012 32.1443 179.353 32.8423 179.353 32.8423C179.353 32.8423 182.189 34.1055 183.508 33.906C183.772 33.8728 184.168 33.5404 184.233 33.3077C184.926 33.5071 185.651 33.6733 186.146 33.5736C186.872 33.4739 187.135 33.1415 187.168 32.9088C187.465 32.8091 187.795 32.5764 187.894 32.244C188.125 31.413 184.102 30.5487 184.102 30.5487C184.102 30.5487 182.387 29.9836 180.013 29.3188C178.726 28.9531 177.638 28.654 176.715 28.388C175.396 27.8894 174.176 27.3576 173.483 27.1249C172.626 26.7925 164.415 25.6955 159.436 24.1997C157.424 23.967 153.896 23.8672 150.862 23.6678C148.356 23.2357 124.646 21.4074 120.491 21.0418C116.369 20.6761 95.232 19.8118 91.2089 19.0805C87.1859 18.3492 86.5923 17.3853 86.5923 17.3853L83.6245 31.9448Z" fill="#E4E4E4"/>
<path d="M183.244 34.3383C181.826 34.3383 179.518 33.341 179.254 33.2413C178.99 33.1748 176.979 32.5433 176.121 32.2441C175.264 32.2441 174.209 32.0779 173.022 31.812C171.736 32.51 168.438 33.1416 165.701 32.9754C164.217 32.9089 160.623 32.3106 159.337 31.5793C158.941 31.3466 157.985 30.9144 157.589 30.7482L156.699 30.715C156.666 30.715 156.666 30.715 156.633 30.715C156.105 30.6153 149.081 30.9144 142.882 31.1471C137.309 31.3798 131.505 31.5793 129.659 31.5793H129.626C125.603 31.5793 120.063 31.2136 117.985 30.8147C116.567 30.5488 102.75 31.3133 93.5831 31.812C89.0654 32.0779 85.1413 32.2773 83.6574 32.3106C83.4266 32.3106 83.2947 32.1444 83.2617 31.9449C83.2617 31.7455 83.4266 31.5793 83.6245 31.546C85.1084 31.5128 89.0325 31.2801 93.5501 31.0474C106.18 30.3493 116.732 29.7843 118.117 30.0502C120.162 30.4158 125.636 30.7815 129.626 30.7815H129.659C131.505 30.7815 137.243 30.5488 142.849 30.3493C150.994 30.0169 156.039 29.8507 156.732 29.9172L157.688 29.9505C157.721 29.9505 157.787 29.9505 157.82 29.9837C158.216 30.1499 159.238 30.6153 159.699 30.8812C160.821 31.546 164.316 32.1111 165.734 32.1776C168.372 32.3106 171.67 31.679 172.758 31.0474C172.824 31.0142 172.923 30.9809 173.022 31.0142C173.978 31.2136 175.264 31.4795 176.154 31.4463C176.187 31.4463 176.253 31.4463 176.286 31.4795C177.144 31.812 179.452 32.51 179.485 32.51H179.518C180.276 32.8424 182.453 33.7067 183.475 33.5405C183.574 33.5072 183.838 33.3078 183.904 33.2081C183.97 33.0086 184.167 32.9089 184.365 32.9754C185.322 33.2746 185.849 33.2746 186.113 33.2413C186.674 33.1748 186.805 32.9421 186.838 32.8757C186.871 32.7427 186.937 32.643 187.069 32.5765C187.267 32.51 187.498 32.377 187.564 32.1776C187.333 31.8452 185.75 31.2801 184.068 30.9144H184.035C184.003 30.9144 182.288 30.3493 179.979 29.6845C179.386 29.5183 178.792 29.3521 178.298 29.1859C177.704 29.0197 177.177 28.8535 176.682 28.7205C175.923 28.4214 175.231 28.1554 174.637 27.9228C174.176 27.7233 173.747 27.5571 173.45 27.4574C173.186 27.3577 171.933 27.1582 170.515 26.8923C167.416 26.3604 162.766 25.5294 159.469 24.5322C158.281 24.3992 156.567 24.2995 154.753 24.233C153.5 24.1665 152.181 24.1 150.961 24.0336H150.928C149.081 23.7344 135.165 22.6042 126.889 21.9394C123.987 21.7067 121.645 21.5072 120.623 21.4408C119.238 21.3078 115.842 21.1416 111.951 20.9421C103.97 20.51 94.0118 19.9782 91.3078 19.4795C87.3177 18.7482 86.5593 17.7843 86.4274 17.618C86.3285 17.4518 86.3614 17.2192 86.5593 17.0862C86.7242 16.9865 86.955 17.0197 87.0869 17.2192C87.0869 17.2192 87.7794 18.0834 91.4727 18.7482C94.1107 19.2469 104.465 19.7787 112.017 20.2108C115.941 20.4103 119.304 20.6097 120.722 20.7095C121.777 20.8092 124.086 20.9754 126.988 21.2081C135.825 21.9061 149.147 23.0031 151.093 23.3355C152.313 23.4352 153.599 23.5017 154.852 23.5349C156.699 23.6347 158.446 23.7012 159.666 23.8674C159.699 23.8674 159.699 23.8674 159.732 23.8674C162.997 24.8646 167.647 25.6624 170.713 26.2275C172.527 26.5266 173.483 26.7261 173.78 26.8258C174.077 26.9588 174.506 27.125 175 27.2912C175.594 27.5239 176.286 27.823 177.012 28.089C177.473 28.2219 178.001 28.3549 178.595 28.5211C179.122 28.6541 179.683 28.8203 180.309 29.0197C182.519 29.6513 184.2 30.1831 184.365 30.2496C185.19 30.4158 187.861 31.0807 188.355 31.8784C188.487 32.1111 188.454 32.2773 188.421 32.4103C188.322 32.7759 188.026 33.0751 187.63 33.2746C187.498 33.5405 187.201 33.9061 186.344 34.0391C185.882 34.1056 185.289 34.0391 184.53 33.8397C184.299 34.1056 183.97 34.305 183.706 34.3715C183.475 34.3383 183.343 34.3383 183.244 34.3383Z" fill="black"/>
<path d="M184.233 33.7398C184.2 33.7398 184.167 33.7398 184.134 33.7398C183.969 33.7066 183.871 33.5736 183.838 33.4074C183.541 33.0418 181.529 31.9781 179.782 31.147C179.584 31.0805 177.869 30.4822 175.693 29.8506C173.45 29.1858 173.055 29.0861 171.834 28.6207C171.637 28.5542 171.538 28.3215 171.604 28.1221C171.67 27.9226 171.9 27.8229 172.098 27.8894C173.252 28.3215 173.582 28.4213 175.89 29.0861C178.232 29.7509 180.012 30.3825 180.045 30.3825H180.078C184.761 32.5432 184.629 33.075 184.563 33.3742C184.563 33.6069 184.398 33.7398 184.233 33.7398Z" fill="black"/>
<path d="M187.201 33.341C187.168 33.341 187.168 33.341 187.135 33.341C187.003 33.3077 186.871 33.208 186.838 33.075C186.476 32.7094 184.101 31.4795 183.244 31.2468C182.749 31.1138 181.529 30.582 180.375 30.0833C179.518 29.7177 178.496 29.2523 178.232 29.1858C178.067 29.1858 177.902 29.0529 177.869 28.8867C177.836 28.6872 177.968 28.4878 178.166 28.4545C178.397 28.4213 178.693 28.521 180.672 29.4185C181.76 29.8839 182.98 30.449 183.409 30.5487C183.772 30.6484 187.663 32.2108 187.564 33.0418C187.531 33.208 187.366 33.341 187.201 33.341Z" fill="black"/>
<path d="M50.6814 24.4323C49.2964 24.4323 48.1422 23.9005 47.7465 22.9697C47.3179 21.9725 47.7795 20.7758 48.9666 19.8118C49.1315 19.6789 49.3623 19.7121 49.4943 19.8783C49.6262 20.0445 49.5932 20.2772 49.4283 20.4102C48.538 21.1415 48.1422 22.039 48.439 22.7038C48.9007 23.7675 50.8792 24.0334 52.7259 23.3354C53.946 22.87 54.9352 22.0722 55.265 21.2412C55.4299 20.8423 55.4299 20.4766 55.298 20.1775C55.232 20.0445 55.1331 19.8783 55.0012 19.7786C54.8363 19.6456 54.8363 19.4129 55.0012 19.2467C55.1331 19.0805 55.3639 19.0805 55.5288 19.2467C55.7267 19.4462 55.8915 19.6456 55.9905 19.8783C56.2213 20.3769 56.1883 20.9753 55.9575 21.5404C55.5288 22.5708 54.4076 23.5016 52.9897 24.0667C52.1983 24.2994 51.4068 24.4323 50.6814 24.4323Z" fill="black"/>
</g>
<defs>
<clipPath id="clip0_139_918">
<rect width="307" height="60" fill="white"/>
</clipPath>
</defs>
</svg>
