<svg width="200" height="72" viewBox="0 0 200 72" fill="none" xmlns="http://www.w3.org/2000/svg">
<path d="M195.738 39.2352H4.21425C2.26061 39.2352 0.66626 37.6876 0.66626 35.7913V23.6501C0.66626 21.7538 2.26061 20.2061 4.21425 20.2061H195.738C197.692 20.2061 199.286 21.7538 199.286 23.6501V35.7913C199.286 37.6876 197.692 39.2352 195.738 39.2352Z" fill="#E4E4E4" stroke="black" stroke-miterlimit="10"/>
<path d="M16.3625 20.2062V39.2353" stroke="black" stroke-miterlimit="10"/>
<path d="M30.7791 20.2062V39.2353" stroke="black" stroke-miterlimit="10"/>
<path d="M48.9235 23.3668V39.2352" stroke="black" stroke-miterlimit="10"/>
<path d="M65.8101 21.8409V39.2352" stroke="black" stroke-miterlimit="10"/>
<path d="M83.5948 20.0972V39.2353" stroke="black" stroke-miterlimit="10"/>
<path d="M99.9651 20.2497V39.2353" stroke="black" stroke-miterlimit="10"/>
<path d="M119.951 20.2497V39.2353" stroke="black" stroke-miterlimit="10"/>
<path d="M142.159 20.1407V39.2353" stroke="black" stroke-miterlimit="10"/>
<path d="M165.154 20.2061V39.2352" stroke="black" stroke-miterlimit="10"/>
<path d="M185.633 20.2497V39.2353" stroke="black" stroke-miterlimit="10"/>
<path d="M42.6359 20.5767C42.6359 20.0754 42.4338 19.683 42.2766 19.2471C41.8275 18.2444 40.8843 17.0673 38.0325 16.4788C36.7974 16.2172 33.6985 15.9339 31.9695 15.8685C29.3871 15.7813 24.2447 15.7813 21.6623 15.8685C19.9332 15.9339 16.8568 16.2172 15.5993 16.4788C12.7699 17.0673 11.8268 18.2226 11.3552 19.2471C11.198 19.7048 10.9959 20.0972 10.9959 20.5767C10.9959 20.5767 10.5917 23.345 13.8253 23.345H14.0274H39.6268H39.784C43.0176 23.3668 42.6359 20.5767 42.6359 20.5767Z" fill="#EAEAEA" stroke="black" stroke-miterlimit="10"/>
<path d="M27.6804 21.0344C31.8122 20.3369 33.3617 19.3124 34.6641 18.6585C38.3244 16.7185 42.3664 18.5495 43.3095 19.6176V19.5958C45.5551 21.8191 51.3486 23.4757 57.5015 23.4757C63.9013 23.4757 71.7159 21.3614 79.1712 20.2497C81.1697 19.9445 83.1907 20.3587 84.8973 21.3614C87.5471 22.909 92.914 24.8054 98.0114 24.5438C101.065 24.3912 103.917 23.7373 105.781 21.9281C106.522 21.2088 107.488 20.7728 108.521 20.7075C116.65 20.2061 139.173 18.9637 139.173 18.9637C139.173 18.9637 142.586 19.5522 142.608 19.5522C143.349 19.8138 148.784 21.7973 153.769 21.7973C156.845 21.7973 163.762 20.4241 165.94 20.0535C168.836 19.5522 175.528 19.356 178.448 19.7484C179.885 19.9445 182.624 20.8164 183.118 21.078C183.702 21.405 188.059 22.1897 187.924 18.0482C187.856 16.4788 187.767 15.803 187.722 14.299C187.677 12.9476 187.767 10.3101 187.767 10.2447C187.767 10.2447 188.036 8.89327 187.924 6.93151C187.834 5.58007 187.879 4.22864 188.059 2.8772C188.148 2.20148 188.171 1.48217 187.991 0.959031C187.789 0.348704 186.082 -0.239825 186.082 0.871841C186.082 2.0053 185.633 3.7273 185.409 4.16324C185.162 4.64279 183.769 7.19308 182.108 10.2447C181.951 10.5281 181.793 10.7896 181.636 11.073C180.536 13.013 178.358 14.1028 176.09 13.8849C167.646 13.0348 147.234 10.9858 144.045 10.7896C141.912 9.5036 139.465 9.13305 138.05 9.15484C136.635 9.17664 122.69 5.81984 106.163 5.73266C101.47 3.53112 86.851 3.44393 80.1143 4.03246C77.2849 3.42213 68.7068 3.83628 67.6065 3.7055C57.3892 2.55024 48.5417 7.21488 45.6449 8.95867C45.6 8.98046 45.5551 9.02406 45.5102 9.04586C44.32 9.65618 40.2556 9.24203 38.2121 9.11125L38.2345 9.06765C38.4366 8.06497 38.5489 7.0187 38.5265 6.45197C38.504 5.77625 37.8303 5.01334 37.0444 4.90436C36.3034 4.79537 32.7554 4.68638 32.5308 4.68638C32.4859 4.512 32.0592 2.72462 31.4979 3.05158C30.5547 3.55292 27.8825 4.66458 27.6804 4.75177C27.1639 4.77357 25.5022 4.92615 24.9633 4.94795C19.6188 5.23132 17.3059 10.5063 18.3389 14.7786C19.3718 19.0509 21.9991 21.9935 27.6804 21.0344Z" fill="#E4E4E4"/>
<path d="M97.0457 24.8054C92.3974 24.8054 87.5021 23.1706 84.7625 21.5794C83.0783 20.5985 81.1022 20.2061 79.1935 20.4895C76.7234 20.8601 74.1859 21.3396 71.7382 21.8192C66.6183 22.8 61.7904 23.7155 57.5014 23.7155C51.4832 23.7155 45.6448 22.1243 43.2196 19.8574C43.1747 19.8356 43.1297 19.8138 43.1073 19.792C42.2315 18.7893 38.3692 17.0019 34.7987 18.8765C34.6191 18.9637 34.4619 19.0509 34.2822 19.1381C33.0696 19.792 31.3855 20.6639 27.7476 21.2742L27.7027 21.0344L27.7476 21.2742C22.5828 22.1243 19.3492 19.9664 18.1142 14.844C17.4854 12.2719 18.0693 9.46004 19.5962 7.47648C20.8987 5.79808 22.7625 4.83899 24.9631 4.73001C25.1877 4.70821 25.6368 4.68641 26.1084 4.64282C26.7147 4.59922 27.321 4.53383 27.6354 4.53383C27.7027 4.51203 27.815 4.46844 27.9497 4.40305C28.7581 4.05429 30.6444 3.26958 31.3855 2.87723C31.5426 2.79004 31.6998 2.79004 31.857 2.85543C32.3286 3.05161 32.6205 3.9671 32.7552 4.49024C33.5412 4.51203 36.4155 4.62102 37.0892 4.70821C37.965 4.83899 38.7509 5.66729 38.7958 6.49559C38.8183 7.04053 38.706 7.99961 38.5488 8.9369C38.7734 8.9587 38.9979 8.9587 39.2449 8.9805C41.3108 9.13308 44.4546 9.35105 45.3978 8.87151L45.5325 8.78432C48.07 7.2367 57.2094 2.2887 67.6738 3.48756C68.0106 3.53115 69.1109 3.50935 70.5256 3.48756C73.5796 3.44396 78.183 3.40037 80.1815 3.81452C86.7835 3.22599 101.447 3.29138 106.275 5.51471C118.962 5.5801 129.966 7.54187 135.243 8.47916C136.725 8.74072 137.803 8.9369 138.095 8.9369C138.117 8.9369 138.14 8.9369 138.184 8.9369C139.756 8.9369 142.114 9.37285 144.18 10.5935C147.548 10.8333 167.646 12.8386 176.157 13.6887C178.313 13.9067 180.401 12.8604 181.456 11.0077C181.614 10.7243 181.771 10.4627 181.928 10.1794C183.388 7.49827 184.982 4.59922 185.229 4.09788C185.454 3.66193 185.88 1.98354 185.88 0.915465C185.88 0.435923 186.15 0.108962 186.599 0.0435703C187.25 -0.0654165 188.103 0.392328 188.283 0.915465C188.44 1.41681 188.485 2.09252 188.373 2.94262C188.193 4.25046 188.148 5.6019 188.238 6.95334C188.35 8.80612 188.126 10.114 188.081 10.3101C188.081 10.3537 188.081 10.4409 188.081 10.5717C188.058 11.3128 188.013 13.2528 188.036 14.3427C188.058 15.1056 188.103 15.6287 188.126 16.1954C188.171 16.7404 188.193 17.3071 188.238 18.07C188.283 19.5522 187.811 20.5767 186.823 21.1652C185.431 21.9717 183.5 21.5576 183.073 21.3178C182.624 21.0562 179.907 20.2061 178.492 20.01C175.685 19.6176 169.061 19.792 166.074 20.2933C165.715 20.3587 165.266 20.4459 164.705 20.5331C161.83 21.0562 156.463 22.0371 153.858 22.0371C150.737 22.0371 146.762 21.2524 142.698 19.8138L142.631 19.792C142.451 19.7702 141.822 19.6612 139.24 19.2035C138.297 19.2471 116.492 20.4677 108.61 20.9473C107.667 21.0126 106.747 21.405 106.028 22.1025C104.344 23.7155 101.739 24.6092 98.0787 24.8054C97.6969 24.8054 97.3601 24.8054 97.0457 24.8054ZM80.4286 19.901C82.0229 19.901 83.6173 20.3369 85.0095 21.1434C87.8838 22.8218 93.1609 24.522 97.9889 24.2823C101.514 24.1079 104.007 23.2578 105.601 21.732C106.41 20.9691 107.443 20.4895 108.521 20.4241C116.56 19.9446 138.948 18.7021 139.195 18.6803C139.217 18.6803 139.24 18.6803 139.262 18.6803C140.587 18.8983 142.563 19.2471 142.676 19.2689C142.698 19.2689 142.72 19.2689 142.72 19.2907L142.81 19.3343C146.807 20.7511 150.715 21.5358 153.791 21.5358C156.351 21.5358 161.673 20.5549 164.547 20.0318C165.109 19.9228 165.58 19.8356 165.917 19.792C168.971 19.2689 175.663 19.0945 178.515 19.4868C179.907 19.683 182.736 20.5331 183.275 20.8601C183.59 21.0344 185.319 21.405 186.509 20.7075C187.34 20.2279 187.722 19.3343 187.677 18.0482C187.654 17.2853 187.609 16.7186 187.564 16.1736C187.519 15.6069 187.497 15.062 187.475 14.2991C187.43 13.1874 187.497 11.2474 187.519 10.5063C187.519 10.3537 187.519 10.2447 187.519 10.2447C187.519 10.2229 187.519 10.2011 187.519 10.2011C187.519 10.1794 187.789 8.84971 187.654 6.95334C187.564 5.5801 187.609 4.20687 187.789 2.85543C187.901 2.07073 187.879 1.4604 187.722 1.04625C187.632 0.784681 187.003 0.435923 186.599 0.501315C186.464 0.523113 186.307 0.588505 186.307 0.893668C186.307 2.04893 185.858 3.81452 185.611 4.29406C185.386 4.7518 184.174 6.97514 182.287 10.3755C182.13 10.6589 181.973 10.9205 181.816 11.2038C180.671 13.231 178.402 14.3644 176.022 14.1247C167.444 13.2528 147.167 11.2256 144 11.0294C143.956 11.0294 143.911 11.0077 143.888 10.9859C141.867 9.787 139.487 9.37285 138.027 9.37285C137.668 9.37285 136.702 9.19847 135.086 8.9151C129.808 7.97782 118.805 6.01605 106.14 5.95066C106.095 5.95066 106.073 5.95066 106.028 5.92886C101.335 3.72733 86.6712 3.66193 80.1142 4.25046C80.0917 4.25046 80.0693 4.25046 80.0468 4.25046C78.1381 3.83631 73.5347 3.90171 70.4807 3.9453C68.9986 3.9671 67.9432 3.9671 67.5615 3.9453C57.2543 2.76824 48.2721 7.65085 45.7571 9.17667L45.6223 9.26386C44.522 9.83059 41.4231 9.61262 39.1776 9.43824C38.8183 9.41644 38.4814 9.39465 38.1895 9.37285C38.0997 9.37285 38.0323 9.32925 37.9874 9.26386C37.9425 9.19847 37.9425 9.11128 37.965 9.04589V9.02409C38.1671 8.06501 38.2793 7.01873 38.2569 6.4738C38.2344 5.92886 37.6955 5.25314 36.9769 5.16595C36.3706 5.07876 33.7882 4.99158 32.4858 4.94798C32.3735 4.94798 32.2612 4.86079 32.2388 4.7518C32.0367 3.85811 31.7223 3.29138 31.5876 3.26958C30.8016 3.68373 28.9153 4.49024 28.0845 4.83899C27.8824 4.92618 27.7701 4.96978 27.7252 4.99157C27.7027 5.01337 27.6578 5.01337 27.6354 5.01337C27.3434 5.01337 26.6698 5.07876 26.0859 5.12236C25.6144 5.16595 25.1652 5.18775 24.9407 5.20955C22.8748 5.31854 21.1457 6.21223 19.9555 7.75984C18.5184 9.63442 17.9794 12.2937 18.5633 14.735C19.7534 19.6176 22.6951 21.6012 27.6129 20.7729C31.1609 20.1843 32.8002 19.3125 33.9903 18.6803C34.17 18.5931 34.3496 18.4842 34.5068 18.397C38.212 16.4352 42.254 18.2226 43.3543 19.3343C43.3768 19.356 43.4217 19.356 43.4441 19.3996C45.7121 21.6448 51.4608 23.2142 57.4564 23.2142C61.7006 23.2142 66.5061 22.2987 71.6035 21.3178C74.0736 20.8383 76.6111 20.3587 79.0812 19.9882C79.5528 19.9446 79.9794 19.901 80.4286 19.901Z" fill="black"/>
<path d="M51.3713 20.9473C54.56 20.8601 73.3554 19.7048 74.7926 19.9446C76.2522 20.2061 80.0472 20.4241 82.6745 20.4241C85.3018 20.4241 100.459 19.7484 101.111 19.8574L101.784 19.8792C102.031 19.9882 102.727 20.2933 103.042 20.4677C103.873 20.9255 106.275 21.296 107.263 21.3614C109.127 21.4704 111.418 21.0127 112.181 20.5767C112.922 20.7293 113.776 20.8819 114.382 20.8601C114.966 21.078 116.56 21.5358 116.56 21.5358C116.56 21.5358 118.491 22.3641 119.389 22.2333C119.569 22.2115 119.839 21.9935 119.883 21.841C120.355 21.9717 120.849 22.0807 121.186 22.0153C121.68 21.9499 121.86 21.732 121.882 21.5794C122.084 21.514 122.309 21.3614 122.376 21.1434C122.533 20.5985 119.794 20.0318 119.794 20.0318C119.794 20.0318 118.626 19.6612 117.009 19.2253C116.133 18.9855 115.392 18.7893 114.764 18.6149C113.865 18.288 113.035 17.9392 112.563 17.7866C111.979 17.5687 106.388 16.8494 102.997 15.8685C101.627 15.7159 99.2243 15.6505 97.1584 15.5197C95.4517 15.2363 79.3061 14.0375 76.4767 13.7977C73.6698 13.5579 59.2757 12.9912 56.5361 12.5117C53.7965 12.0321 53.3923 11.4 53.3923 11.4L51.3713 20.9473Z" fill="#E4E4E4"/>
<path d="M119.21 22.5167C118.244 22.5167 116.672 21.8628 116.493 21.7974C116.313 21.7538 114.943 21.3397 114.359 21.1435C113.775 21.1435 113.057 21.0345 112.248 20.8601C111.373 21.3179 109.127 21.732 107.263 21.623C106.253 21.5795 103.805 21.1871 102.929 20.7076C102.66 20.555 102.009 20.2716 101.739 20.1626L101.133 20.1408C101.11 20.1408 101.111 20.1408 101.088 20.1408C100.729 20.0754 95.9457 20.2716 91.724 20.4242C87.929 20.5768 83.9769 20.7076 82.7193 20.7076H82.6969C79.9573 20.7076 76.1848 20.4678 74.77 20.2062C73.8045 20.0318 64.3955 20.5332 58.1529 20.8601C55.0765 21.0345 52.4042 21.1653 51.3937 21.1871C51.2365 21.1871 51.1467 21.0781 51.1243 20.9473C51.1243 20.8165 51.2365 20.7076 51.3713 20.6858C52.3818 20.664 55.054 20.5114 58.1304 20.3588C66.7309 19.9011 73.9167 19.5305 74.8599 19.7049C76.2521 19.9447 79.9797 20.1844 82.6969 20.1844H82.7193C83.9769 20.1844 87.8841 20.0318 91.7016 19.9011C97.2481 19.6831 100.684 19.5741 101.155 19.6177L101.807 19.6395C101.829 19.6395 101.874 19.6395 101.896 19.6613C102.166 19.7703 102.862 20.0754 103.176 20.2498C103.94 20.6858 106.32 21.0563 107.286 21.0999C109.082 21.1871 111.328 20.773 112.069 20.3588C112.114 20.337 112.181 20.3152 112.248 20.337C112.9 20.4678 113.775 20.6422 114.382 20.6204C114.404 20.6204 114.449 20.6204 114.472 20.6422C115.055 20.8601 116.627 21.3179 116.65 21.3179H116.672C117.189 21.5359 118.671 22.1026 119.367 21.9936C119.434 21.9718 119.614 21.841 119.659 21.7756C119.704 21.6448 119.838 21.5795 119.973 21.623C120.624 21.8192 120.984 21.8192 121.163 21.7974C121.545 21.7538 121.635 21.6013 121.657 21.5577C121.68 21.4705 121.725 21.4051 121.815 21.3615C121.949 21.3179 122.107 21.2307 122.151 21.0999C121.994 20.8819 120.916 20.5114 119.771 20.2716H119.749C119.726 20.2716 118.559 19.9011 116.987 19.4651C116.582 19.3561 116.178 19.2471 115.841 19.1382C115.437 19.0292 115.078 18.9202 114.741 18.833C114.225 18.6368 113.753 18.4624 113.349 18.3098C113.034 18.1791 112.743 18.0701 112.54 18.0047C112.361 17.9393 111.507 17.8085 110.542 17.6341C108.431 17.2854 105.265 16.7404 103.019 16.0865C102.211 15.9993 101.043 15.9339 99.8081 15.8903C98.9548 15.8467 98.0565 15.8032 97.2257 15.7596H97.2032C95.9457 15.5634 86.4694 14.8223 80.8331 14.3863C78.857 14.2337 77.2626 14.103 76.5665 14.0594C75.6234 13.9722 73.3104 13.8632 70.6607 13.7324C65.2264 13.449 58.4448 13.1003 56.6034 12.7733C53.8863 12.2938 53.3698 11.6616 53.28 11.5527C53.2126 11.4437 53.2351 11.2911 53.3698 11.2039C53.4821 11.1385 53.6393 11.1603 53.7291 11.2911C53.7291 11.2911 54.2007 11.8578 56.7157 12.2938C58.5122 12.6207 65.5632 12.9695 70.7056 13.2529C73.3778 13.3836 75.6683 13.5144 76.6339 13.5798C77.3524 13.6452 78.9243 13.7542 80.9004 13.9068C86.9185 14.3645 95.9906 15.0838 97.3155 15.3018C98.1464 15.3672 99.0221 15.4108 99.8754 15.4326C101.133 15.498 102.323 15.5416 103.154 15.6506C103.176 15.6506 103.176 15.6506 103.199 15.6506C105.422 16.3045 108.588 16.8276 110.677 17.1982C111.912 17.3944 112.563 17.5251 112.765 17.5905C112.967 17.6777 113.259 17.7867 113.596 17.8957C114 18.0483 114.472 18.2445 114.966 18.4188C115.28 18.506 115.639 18.5932 116.043 18.7022C116.403 18.7894 116.785 18.8984 117.211 19.0292C118.716 19.4433 119.861 19.7921 119.973 19.8357C120.535 19.9447 122.354 20.3806 122.69 20.9037C122.78 21.0563 122.758 21.1653 122.735 21.2525C122.668 21.4923 122.466 21.6884 122.196 21.8192C122.107 21.9936 121.904 22.2334 121.321 22.3206C121.006 22.3642 120.602 22.3206 120.086 22.1898C119.928 22.3642 119.704 22.4949 119.524 22.5385C119.367 22.5167 119.277 22.5167 119.21 22.5167Z" fill="black"/>
<path d="M119.883 22.1243C119.861 22.1243 119.838 22.1243 119.816 22.1243C119.704 22.1025 119.636 22.0153 119.614 21.9063C119.412 21.6666 118.042 20.9691 116.852 20.4241C116.717 20.3805 115.549 19.9882 114.067 19.574C112.54 19.1381 112.271 19.0727 111.44 18.7675C111.305 18.7239 111.238 18.5713 111.283 18.4406C111.328 18.3098 111.485 18.2444 111.62 18.288C112.406 18.5713 112.63 18.6367 114.202 19.0727C115.796 19.5086 117.009 19.9228 117.032 19.9228H117.054C120.243 21.3396 120.153 21.6884 120.108 21.8845C120.108 22.0371 119.996 22.1243 119.883 22.1243Z" fill="black"/>
<path d="M121.904 21.8628C121.882 21.8628 121.882 21.8628 121.859 21.8628C121.77 21.841 121.68 21.7756 121.657 21.6884C121.41 21.4487 119.794 20.6422 119.21 20.4896C118.873 20.4024 118.042 20.0536 117.256 19.7267C116.672 19.4869 115.976 19.1817 115.796 19.1381C115.684 19.1381 115.572 19.051 115.549 18.942C115.527 18.8112 115.617 18.6804 115.752 18.6586C115.909 18.6368 116.111 18.7022 117.458 19.2907C118.199 19.5959 119.03 19.9664 119.322 20.0318C119.569 20.0972 122.219 21.1217 122.151 21.6666C122.129 21.7756 122.017 21.8628 121.904 21.8628Z" fill="black"/>
<path d="M28.9379 16.021C27.9947 16.021 27.2088 15.6723 26.9393 15.062C26.6474 14.408 26.9618 13.6233 27.7702 12.9912C27.8824 12.904 28.0396 12.9258 28.1295 13.0348C28.2193 13.1438 28.1968 13.2964 28.0845 13.3836C27.4782 13.8631 27.2088 14.4516 27.4109 14.8876C27.7253 15.5851 29.0726 15.7595 30.3301 15.3017C31.161 14.9966 31.8346 14.4734 32.0592 13.9285C32.1715 13.6669 32.1715 13.4272 32.0816 13.231C32.0367 13.1438 31.9694 13.0348 31.8795 12.9694C31.7673 12.8822 31.7673 12.7296 31.8795 12.6207C31.9694 12.5117 32.1266 12.5117 32.2388 12.6207C32.3736 12.7514 32.4858 12.8822 32.5532 13.0348C32.7104 13.3618 32.6879 13.7541 32.5308 14.1247C32.2388 14.8004 31.4753 15.4107 30.5098 15.7813C29.9708 15.9339 29.4319 16.021 28.9379 16.021Z" fill="black"/>
<path d="M70.2507 54.8C70.432 54.8 70.576 54.8587 70.6827 54.976C70.7894 55.0827 70.8427 55.2213 70.8427 55.392V65.328C70.8427 65.5307 70.7787 65.696 70.6507 65.824C70.5227 65.9413 70.368 66 70.1867 66C70.0907 66 69.9947 65.984 69.8987 65.952C69.8027 65.9093 69.728 65.856 69.6747 65.792L62.8267 56.736L63.1467 56.544V65.408C63.1467 65.5787 63.088 65.7227 62.9707 65.84C62.864 65.9467 62.72 66 62.5387 66C62.368 66 62.2294 65.9467 62.1227 65.84C62.016 65.7227 61.9627 65.5787 61.9627 65.408V55.44C61.9627 55.248 62.0214 55.0933 62.1387 54.976C62.2667 54.8587 62.416 54.8 62.5867 54.8C62.6827 54.8 62.7787 54.8213 62.8747 54.864C62.9814 54.896 63.0614 54.9493 63.1147 55.024L69.8667 63.952L69.6587 64.208V55.392C69.6587 55.2213 69.712 55.0827 69.8187 54.976C69.936 54.8587 70.08 54.8 70.2507 54.8ZM80.2422 57.648C80.4235 57.648 80.5729 57.712 80.6902 57.84C80.8182 57.9573 80.8822 58.1067 80.8822 58.288V65.344C80.8822 65.5253 80.8182 65.68 80.6902 65.808C80.5729 65.936 80.4235 66 80.2422 66C80.0502 66 79.8955 65.936 79.7782 65.808C79.6609 65.68 79.6022 65.5253 79.6022 65.344V63.824L79.9062 63.792C79.9062 64.0267 79.8262 64.2827 79.6662 64.56C79.5062 64.8373 79.2875 65.0987 79.0102 65.344C78.7329 65.5787 78.4022 65.776 78.0182 65.936C77.6449 66.0853 77.2395 66.16 76.8022 66.16C76.0769 66.16 75.4262 65.9733 74.8502 65.6C74.2742 65.216 73.8155 64.6987 73.4742 64.048C73.1435 63.3973 72.9782 62.656 72.9782 61.824C72.9782 60.9813 73.1435 60.24 73.4742 59.6C73.8155 58.9493 74.2742 58.4427 74.8502 58.08C75.4262 57.7067 76.0662 57.52 76.7702 57.52C77.2289 57.52 77.6555 57.5947 78.0502 57.744C78.4449 57.8933 78.7862 58.096 79.0742 58.352C79.3729 58.608 79.6022 58.8907 79.7622 59.2C79.9329 59.5093 80.0182 59.8187 80.0182 60.128L79.6022 60.032V58.288C79.6022 58.1067 79.6609 57.9573 79.7782 57.84C79.8955 57.712 80.0502 57.648 80.2422 57.648ZM76.9462 64.976C77.4795 64.976 77.9489 64.8373 78.3542 64.56C78.7702 64.2827 79.0902 63.9093 79.3142 63.44C79.5489 62.96 79.6662 62.4213 79.6662 61.824C79.6662 61.2373 79.5489 60.7093 79.3142 60.24C79.0902 59.76 78.7702 59.3867 78.3542 59.12C77.9489 58.8427 77.4795 58.704 76.9462 58.704C76.4235 58.704 75.9542 58.8373 75.5382 59.104C75.1329 59.3707 74.8129 59.7387 74.5782 60.208C74.3435 60.6773 74.2262 61.216 74.2262 61.824C74.2262 62.4213 74.3382 62.96 74.5622 63.44C74.7969 63.9093 75.1169 64.2827 75.5222 64.56C75.9382 64.8373 76.4129 64.976 76.9462 64.976ZM77.1862 56.672C76.8129 56.672 76.4662 56.5973 76.1462 56.448C75.8369 56.288 75.5755 56.0747 75.3622 55.808C75.1595 55.5307 75.0262 55.2213 74.9622 54.88C74.9089 54.7093 74.9195 54.5707 74.9942 54.464C75.0795 54.3573 75.1969 54.304 75.3462 54.304C75.5062 54.304 75.6342 54.3467 75.7302 54.432C75.8262 54.5067 75.9115 54.6133 75.9862 54.752C76.0715 55.0507 76.2209 55.28 76.4342 55.44C76.6475 55.6 76.8982 55.68 77.1862 55.68C77.4849 55.68 77.7355 55.6 77.9382 55.44C78.1515 55.2693 78.3009 55.04 78.3862 54.752C78.4715 54.6133 78.5569 54.5067 78.6422 54.432C78.7382 54.3467 78.8715 54.304 79.0422 54.304C79.1915 54.304 79.3035 54.3573 79.3782 54.464C79.4635 54.5707 79.4795 54.704 79.4262 54.864C79.3622 55.2053 79.2235 55.5147 79.0102 55.792C78.8075 56.0587 78.5462 56.272 78.2262 56.432C77.9169 56.592 77.5702 56.672 77.1862 56.672ZM77.2982 54.496C77.2342 54.496 77.1649 54.48 77.0902 54.448C77.0262 54.4053 76.9622 54.3627 76.8982 54.32L75.5382 53.264C75.4209 53.1893 75.3302 53.1093 75.2662 53.024C75.2129 52.928 75.1862 52.8213 75.1862 52.704C75.1862 52.5227 75.2502 52.384 75.3782 52.288C75.5062 52.1813 75.6395 52.128 75.7782 52.128C75.9169 52.128 76.0342 52.16 76.1302 52.224C76.2262 52.288 76.3115 52.3573 76.3862 52.432L77.5702 53.792C77.6662 53.8987 77.7142 54.0053 77.7142 54.112C77.7142 54.2187 77.6769 54.3093 77.6022 54.384C77.5275 54.4587 77.4262 54.496 77.2982 54.496ZM87.2063 57.6C87.9316 57.6 88.5183 57.7867 88.9663 58.16C89.425 58.5227 89.729 59.04 89.8783 59.712H89.6383L89.7503 59.424C89.8783 59.1253 90.097 58.8373 90.4063 58.56C90.7156 58.2827 91.073 58.0533 91.4783 57.872C91.8836 57.6907 92.305 57.6 92.7423 57.6C93.4463 57.6 94.001 57.7547 94.4063 58.064C94.8116 58.3627 95.0996 58.768 95.2703 59.28C95.4516 59.7813 95.5423 60.3467 95.5423 60.976V65.344C95.5423 65.5253 95.4783 65.68 95.3503 65.808C95.233 65.936 95.0836 66 94.9023 66C94.7103 66 94.5556 65.936 94.4383 65.808C94.321 65.68 94.2623 65.5253 94.2623 65.344V61.008C94.2623 60.592 94.1983 60.2187 94.0703 59.888C93.953 59.5467 93.7556 59.28 93.4783 59.088C93.2116 58.8853 92.8436 58.784 92.3743 58.784C91.937 58.784 91.537 58.8853 91.1743 59.088C90.8116 59.28 90.5236 59.5467 90.3103 59.888C90.097 60.2187 89.9903 60.592 89.9903 61.008V65.344C89.9903 65.5253 89.9316 65.68 89.8143 65.808C89.697 65.936 89.5423 66 89.3503 66C89.169 66 89.0143 65.936 88.8863 65.808C88.769 65.68 88.7103 65.5253 88.7103 65.344V60.96C88.7103 60.5547 88.6516 60.192 88.5343 59.872C88.4276 59.5413 88.241 59.28 87.9743 59.088C87.7076 58.8853 87.3396 58.784 86.8703 58.784C86.4436 58.784 86.0543 58.8853 85.7023 59.088C85.3503 59.28 85.0676 59.5413 84.8543 59.872C84.641 60.192 84.5343 60.5547 84.5343 60.96V65.344C84.5343 65.5253 84.4703 65.68 84.3423 65.808C84.225 65.936 84.0756 66 83.8943 66C83.713 66 83.5583 65.936 83.4303 65.808C83.313 65.68 83.2543 65.5253 83.2543 65.344V58.368C83.2543 58.1867 83.313 58.0373 83.4303 57.92C83.5583 57.792 83.713 57.728 83.8943 57.728C84.0863 57.728 84.241 57.792 84.3583 57.92C84.4756 58.0373 84.5343 58.1867 84.5343 58.368V59.584L84.1823 59.968C84.225 59.6907 84.3316 59.4133 84.5023 59.136C84.6836 58.8587 84.913 58.6027 85.1903 58.368C85.4676 58.1333 85.777 57.9467 86.1183 57.808C86.4596 57.6693 86.8223 57.6 87.2063 57.6ZM106.429 57.52C107.154 57.52 107.725 57.6693 108.141 57.968C108.557 58.2667 108.85 58.6667 109.021 59.168C109.202 59.6693 109.293 60.2293 109.293 60.848V65.344C109.293 65.5253 109.229 65.68 109.101 65.808C108.983 65.936 108.834 66 108.653 66C108.471 66 108.317 65.936 108.189 65.808C108.071 65.68 108.013 65.5253 108.013 65.344V60.88C108.013 60.4747 107.949 60.112 107.821 59.792C107.703 59.4613 107.501 59.2 107.213 59.008C106.935 58.8053 106.551 58.704 106.061 58.704C105.613 58.704 105.202 58.8053 104.829 59.008C104.455 59.2 104.157 59.4613 103.933 59.792C103.709 60.112 103.597 60.4747 103.597 60.88V65.344C103.597 65.5253 103.533 65.68 103.405 65.808C103.287 65.936 103.138 66 102.957 66C102.775 66 102.621 65.936 102.493 65.808C102.375 65.68 102.317 65.5253 102.317 65.344V58.368C102.317 58.1867 102.375 58.0373 102.493 57.92C102.621 57.792 102.775 57.728 102.957 57.728C103.149 57.728 103.303 57.792 103.421 57.92C103.538 58.0373 103.597 58.1867 103.597 58.368V59.504L103.277 59.856C103.33 59.5787 103.453 59.3013 103.645 59.024C103.837 58.736 104.077 58.48 104.365 58.256C104.653 58.032 104.973 57.856 105.325 57.728C105.677 57.5893 106.045 57.52 106.429 57.52ZM115.133 57.52C115.591 57.52 116.018 57.6 116.413 57.76C116.807 57.9093 117.149 58.1067 117.437 58.352C117.735 58.5973 117.965 58.8533 118.125 59.12C118.295 59.3867 118.381 59.6373 118.381 59.872L118.077 59.68V58.288C118.077 58.1067 118.135 57.9573 118.253 57.84C118.37 57.712 118.525 57.648 118.717 57.648C118.898 57.648 119.047 57.712 119.165 57.84C119.293 57.9573 119.357 58.1067 119.357 58.288V65.296C119.357 66.1707 119.17 66.896 118.797 67.472C118.434 68.048 117.943 68.48 117.325 68.768C116.706 69.056 116.013 69.2 115.245 69.2C114.925 69.2 114.573 69.1573 114.189 69.072C113.805 68.9867 113.463 68.88 113.165 68.752C112.866 68.6347 112.674 68.512 112.589 68.384C112.429 68.2773 112.327 68.1547 112.285 68.016C112.253 67.888 112.279 67.7653 112.365 67.648C112.461 67.4987 112.583 67.424 112.733 67.424C112.893 67.424 113.09 67.472 113.325 67.568C113.421 67.6 113.57 67.6533 113.773 67.728C113.986 67.8027 114.221 67.8667 114.477 67.92C114.743 67.984 115.005 68.016 115.261 68.016C116.167 68.016 116.861 67.776 117.341 67.296C117.831 66.8267 118.077 66.2027 118.077 65.424V63.936L118.253 64.016C118.189 64.3147 118.055 64.592 117.853 64.848C117.661 65.104 117.421 65.3333 117.133 65.536C116.855 65.728 116.546 65.8827 116.205 66C115.863 66.1067 115.517 66.16 115.165 66.16C114.418 66.16 113.746 65.9733 113.149 65.6C112.551 65.2267 112.077 64.7147 111.725 64.064C111.383 63.4133 111.213 62.672 111.213 61.84C111.213 60.9973 111.383 60.2507 111.725 59.6C112.077 58.9493 112.546 58.4427 113.133 58.08C113.73 57.7067 114.397 57.52 115.133 57.52ZM115.293 58.704C114.749 58.704 114.258 58.8427 113.821 59.12C113.394 59.3867 113.058 59.7547 112.813 60.224C112.578 60.6933 112.461 61.232 112.461 61.84C112.461 62.4267 112.578 62.96 112.813 63.44C113.058 63.9093 113.394 64.2827 113.821 64.56C114.258 64.8373 114.749 64.976 115.293 64.976C115.847 64.976 116.338 64.8427 116.765 64.576C117.191 64.2987 117.527 63.9253 117.773 63.456C118.018 62.9867 118.141 62.448 118.141 61.84C118.141 61.2213 118.018 60.6773 117.773 60.208C117.527 59.7387 117.191 59.3707 116.765 59.104C116.338 58.8373 115.847 58.704 115.293 58.704ZM127.79 57.728C127.982 57.728 128.137 57.792 128.254 57.92C128.371 58.0373 128.43 58.1867 128.43 58.368V62.736C128.43 63.8133 128.126 64.6507 127.518 65.248C126.921 65.8347 126.083 66.128 125.006 66.128C123.939 66.128 123.102 65.8347 122.494 65.248C121.897 64.6507 121.598 63.8133 121.598 62.736V58.368C121.598 58.1867 121.657 58.0373 121.774 57.92C121.902 57.792 122.057 57.728 122.238 57.728C122.43 57.728 122.585 57.792 122.702 57.92C122.819 58.0373 122.878 58.1867 122.878 58.368V62.736C122.878 63.4613 123.065 64.0107 123.438 64.384C123.811 64.7573 124.334 64.944 125.006 64.944C125.699 64.944 126.227 64.7573 126.59 64.384C126.963 64.0107 127.15 63.4613 127.15 62.736V58.368C127.15 58.1867 127.209 58.0373 127.326 57.92C127.454 57.792 127.609 57.728 127.79 57.728ZM127.678 58.832V57.728C128.158 57.728 128.521 57.6373 128.766 57.456C129.011 57.2747 129.134 56.9813 129.134 56.576C129.134 56.416 129.177 56.2667 129.262 56.128C129.358 55.9787 129.502 55.904 129.694 55.904C129.907 55.904 130.046 55.984 130.11 56.144C130.185 56.2933 130.222 56.4373 130.222 56.576C130.222 57.0027 130.126 57.3867 129.934 57.728C129.742 58.0693 129.459 58.3413 129.086 58.544C128.713 58.736 128.243 58.832 127.678 58.832ZM123.886 54.512C124.046 54.3627 124.222 54.2453 124.414 54.16C124.617 54.064 124.846 54.016 125.102 54.016C125.475 54.016 125.763 54.0853 125.966 54.224C126.179 54.3627 126.323 54.528 126.398 54.72C126.483 54.912 126.526 55.0933 126.526 55.264C126.526 55.4453 126.483 55.6107 126.398 55.76C126.323 55.8987 126.211 56.048 126.062 56.208C125.987 56.2933 125.923 56.3733 125.87 56.448C125.827 56.5227 125.806 56.6027 125.806 56.688C125.795 56.7947 125.753 56.88 125.678 56.944C125.603 56.9973 125.507 57.024 125.39 57.024C125.283 57.024 125.187 56.992 125.102 56.928C125.027 56.864 124.99 56.7787 124.99 56.672C124.99 56.576 125.006 56.4747 125.038 56.368C125.081 56.2613 125.145 56.1547 125.23 56.048C125.347 55.9093 125.449 55.7867 125.534 55.68C125.619 55.5627 125.662 55.4507 125.662 55.344C125.662 55.1947 125.603 55.0773 125.486 54.992C125.379 54.9067 125.251 54.864 125.102 54.864C124.953 54.864 124.819 54.896 124.702 54.96C124.585 55.024 124.478 55.088 124.382 55.152C124.307 55.216 124.217 55.2533 124.11 55.264C124.014 55.2747 123.913 55.2267 123.806 55.12C123.721 55.0133 123.689 54.9067 123.71 54.8C123.742 54.6827 123.801 54.5867 123.886 54.512ZM137.617 57.648C137.799 57.648 137.948 57.712 138.065 57.84C138.193 57.9573 138.257 58.1067 138.257 58.288V65.344C138.257 65.5253 138.193 65.68 138.065 65.808C137.948 65.936 137.799 66 137.617 66C137.425 66 137.271 65.936 137.153 65.808C137.036 65.68 136.977 65.5253 136.977 65.344V63.824L137.281 63.792C137.281 64.0267 137.201 64.2827 137.041 64.56C136.881 64.8373 136.663 65.0987 136.385 65.344C136.108 65.5787 135.777 65.776 135.393 65.936C135.02 66.0853 134.615 66.16 134.177 66.16C133.452 66.16 132.801 65.9733 132.225 65.6C131.649 65.216 131.191 64.6987 130.849 64.048C130.519 63.3973 130.353 62.656 130.353 61.824C130.353 60.9813 130.519 60.24 130.849 59.6C131.191 58.9493 131.649 58.4427 132.225 58.08C132.801 57.7067 133.441 57.52 134.145 57.52C134.604 57.52 135.031 57.5947 135.425 57.744C135.82 57.8933 136.161 58.096 136.449 58.352C136.748 58.608 136.977 58.8907 137.137 59.2C137.308 59.5093 137.393 59.8187 137.393 60.128L136.977 60.032V58.288C136.977 58.1067 137.036 57.9573 137.153 57.84C137.271 57.712 137.425 57.648 137.617 57.648ZM134.321 64.976C134.855 64.976 135.324 64.8373 135.729 64.56C136.145 64.2827 136.465 63.9093 136.689 63.44C136.924 62.96 137.041 62.4213 137.041 61.824C137.041 61.2373 136.924 60.7093 136.689 60.24C136.465 59.76 136.145 59.3867 135.729 59.12C135.324 58.8427 134.855 58.704 134.321 58.704C133.799 58.704 133.329 58.8373 132.913 59.104C132.508 59.3707 132.188 59.7387 131.953 60.208C131.719 60.6773 131.601 61.216 131.601 61.824C131.601 62.4213 131.713 62.96 131.937 63.44C132.172 63.9093 132.492 64.2827 132.897 64.56C133.313 64.8373 133.788 64.976 134.321 64.976Z" fill="#4F46E5"/>
</svg>
