<svg width="300" height="60" viewBox="0 0 300 60" fill="none" xmlns="http://www.w3.org/2000/svg">
<g clip-path="url(#clip0_139_917)">
<path d="M288.884 59.8338H14.0474C11.2439 59.8338 8.95605 57.4737 8.95605 54.5818V36.0665C8.95605 33.1746 11.2439 30.8145 14.0474 30.8145H288.884C291.688 30.8145 293.976 33.1746 293.976 36.0665V54.5818C293.976 57.4737 291.688 59.8338 288.884 59.8338Z" fill="#4B80FB" stroke="black" stroke-miterlimit="10"/>
<path d="M31.4802 30.8145V59.8338" stroke="black" stroke-miterlimit="10"/>
<path d="M52.168 30.8145V59.8338" stroke="black" stroke-miterlimit="10"/>
<path d="M78.2051 35.6343V59.8337" stroke="black" stroke-miterlimit="10"/>
<path d="M102.438 33.3074V59.8337" stroke="black" stroke-miterlimit="10"/>
<path d="M127.959 30.6482V59.8338" stroke="black" stroke-miterlimit="10"/>
<path d="M151.45 30.8809V59.8338" stroke="black" stroke-miterlimit="10"/>
<path d="M180.129 30.8809V59.8338" stroke="black" stroke-miterlimit="10"/>
<path d="M211.999 30.7146V59.8337" stroke="black" stroke-miterlimit="10"/>
<path d="M244.996 30.8145V59.8338" stroke="black" stroke-miterlimit="10"/>
<path d="M274.384 30.8809V59.8338" stroke="black" stroke-miterlimit="10"/>
<path d="M69.1824 31.3794C69.1824 30.6148 68.8924 30.0165 68.6669 29.3517C68.0224 27.8226 66.669 26.0276 62.5765 25.1301C60.8042 24.7312 56.3573 24.2991 53.8761 24.1993C50.1704 24.0664 42.7911 24.0664 39.0854 24.1993C36.6041 24.2991 32.1895 24.7312 30.3849 25.1301C26.3247 26.0276 24.9713 27.7894 24.2946 29.3517C24.0691 30.0497 23.7791 30.6481 23.7791 31.3794C23.7791 31.3794 23.199 35.601 27.8393 35.601H28.1293H64.8644H65.09C69.7302 35.6342 69.1824 31.3794 69.1824 31.3794Z" fill="#FFEA9D" stroke="black" stroke-miterlimit="10"/>
<path d="M47.7214 32.0775C53.6506 31.0138 55.8741 29.4514 57.7431 28.4542C62.9955 25.4958 68.7958 28.288 70.1492 29.9168V29.8836C73.3716 33.2742 81.6854 35.8005 90.5147 35.8005C99.6985 35.8005 110.912 32.5761 121.611 30.8808C124.479 30.4154 127.379 31.047 129.828 32.5761C133.63 34.9362 141.332 37.8282 148.646 37.4293C153.029 37.1966 157.121 36.1994 159.796 33.4404C160.859 32.3434 162.245 31.6786 163.727 31.5789C175.392 30.8143 207.713 28.9196 207.713 28.9196C207.713 28.9196 212.611 29.8171 212.643 29.8171C213.706 30.216 221.505 33.2409 228.658 33.2409C233.073 33.2409 242.998 31.1467 246.124 30.5816C250.28 29.8171 259.883 29.5179 264.072 30.1163C266.135 30.4154 270.066 31.7451 270.775 32.144C271.613 32.6426 277.864 33.8393 277.671 27.5235C277.574 25.1301 277.445 24.0996 277.381 21.806C277.316 19.7451 277.445 15.7229 277.445 15.6232C277.445 15.6232 277.832 13.5622 277.671 10.5706C277.542 8.50961 277.606 6.44867 277.864 4.38773C277.993 3.35726 278.025 2.2603 277.767 1.46252C277.477 0.531772 275.028 -0.365735 275.028 1.32956C275.028 3.05809 274.384 5.68413 274.062 6.34895C273.707 7.08025 271.709 10.9694 269.325 15.6232C269.099 16.0553 268.874 16.4542 268.648 16.8863C267.069 19.8448 263.943 21.5068 260.689 21.1744C248.573 19.878 219.281 16.7534 214.705 16.4542C211.644 14.493 208.132 13.9279 206.102 13.9611C204.071 13.9944 184.06 8.87526 160.344 8.7423C153.609 5.38496 132.631 5.25199 122.964 6.1495C118.904 5.21875 106.594 5.85033 105.015 5.65088C90.3536 3.88911 77.6574 11.0027 73.5005 13.662C73.4361 13.6952 73.3716 13.7617 73.3072 13.7949C71.5993 14.7257 65.7668 14.0941 62.8344 13.8947L62.8666 13.8282C63.1567 12.2991 63.3178 10.7035 63.2856 9.83925C63.2533 8.80878 62.2866 7.64534 61.1588 7.47914C60.0954 7.31293 55.004 7.14673 54.6818 7.14673C54.6173 6.8808 54.0051 4.15504 53.1995 4.65365C51.8461 5.4182 48.0115 7.11349 47.7214 7.24645C46.9803 7.27969 44.5957 7.51238 43.8224 7.54562C36.1531 7.97775 32.834 16.0221 34.3163 22.5373C35.7986 29.0525 39.5688 33.5401 47.7214 32.0775Z" fill="#C2D5FF"/>
<path d="M147.261 37.8282C140.59 37.8282 133.566 35.3351 129.634 32.9086C127.217 31.4127 124.382 30.8144 121.643 31.2465C118.098 31.8116 114.457 32.5429 110.944 33.2742C103.597 34.77 96.6693 36.1662 90.5145 36.1662C81.8785 36.1662 73.5003 33.7396 70.0202 30.2825C69.9557 30.2493 69.8913 30.216 69.859 30.1828C68.6023 28.6537 63.0598 25.9279 57.9362 28.7867C57.6784 28.9196 57.4529 29.0526 57.1951 29.1856C55.455 30.1828 53.0382 31.5124 47.8179 32.4432L47.7535 32.0775L47.8179 32.4432C40.4065 33.7396 35.7662 30.4487 33.9939 22.6371C33.0916 18.7146 33.9295 14.4266 36.1207 11.4016C37.9897 8.84207 40.6642 7.37947 43.8222 7.21326C44.1444 7.18002 44.7889 7.14678 45.4656 7.0803C46.3356 7.01382 47.2057 6.91409 47.6568 6.91409C47.7535 6.88085 47.9146 6.81437 48.108 6.71465C49.268 6.18279 51.9748 4.98611 53.0382 4.38778C53.2638 4.25481 53.4893 4.25481 53.7149 4.35454C54.3916 4.6537 54.8105 6.04983 55.0039 6.84761C56.1317 6.88085 60.2563 7.04706 61.2231 7.18002C62.4798 7.37947 63.6076 8.64262 63.6721 9.90578C63.7043 10.7368 63.5432 12.1994 63.3176 13.6288C63.6398 13.662 63.9621 13.662 64.3165 13.6953C67.2811 13.9279 71.7925 14.2604 73.1459 13.5291L73.3392 13.3961C76.9805 11.036 90.0956 3.49027 105.112 5.31852C105.595 5.38501 107.174 5.35177 109.204 5.31852C113.587 5.25204 120.193 5.18556 123.061 5.81714C132.534 4.91963 153.577 5.01936 160.505 8.40994C178.711 8.50966 194.501 11.5014 202.073 12.9307C204.2 13.3296 205.747 13.6288 206.166 13.6288C206.198 13.6288 206.23 13.6288 206.295 13.6288C208.55 13.6288 211.934 14.2936 214.899 16.1551C219.732 16.5207 248.572 19.5789 260.785 20.8753C263.879 21.2077 266.876 19.6122 268.39 16.7867C268.616 16.3545 268.841 15.9556 269.067 15.5235C271.161 11.4349 273.449 7.01382 273.804 6.24927C274.126 5.58445 274.738 3.0249 274.738 1.39609C274.738 0.664785 275.125 0.16617 275.769 0.0664471C276.704 -0.0997579 277.928 0.598303 278.186 1.39609C278.412 2.16063 278.476 3.1911 278.315 4.4875C278.057 6.48196 277.993 8.5429 278.122 10.6038C278.283 13.4293 277.961 15.4238 277.896 15.723C277.896 15.7894 277.896 15.9224 277.896 16.1218C277.864 17.252 277.799 20.2105 277.832 21.8725C277.864 23.036 277.928 23.8338 277.961 24.698C278.025 25.5291 278.057 26.3933 278.122 27.5568C278.186 29.8171 277.509 31.3795 276.092 32.277C274.094 33.5069 271.322 32.8753 270.71 32.5097C270.066 32.1108 266.167 30.8144 264.137 30.5152C260.109 29.9169 250.603 30.1828 246.317 30.9473C245.801 31.0471 245.157 31.18 244.351 31.313C240.226 32.1108 232.525 33.6066 228.787 33.6066C224.308 33.6066 218.604 32.4099 212.772 30.216L212.675 30.1828C212.417 30.1496 211.515 29.9833 207.809 29.2853C206.456 29.3518 175.167 31.2133 163.856 31.9446C162.503 32.0443 161.181 32.6426 160.15 33.7063C157.733 36.1662 153.995 37.5291 148.743 37.8282C148.195 37.8282 147.712 37.8282 147.261 37.8282ZM123.415 30.349C125.703 30.349 127.991 31.0138 129.989 32.2437C134.113 34.8033 141.686 37.3961 148.614 37.0304C153.673 36.7645 157.25 35.4681 159.538 33.1412C160.698 31.9778 162.18 31.2465 163.727 31.1468C175.263 30.4155 207.39 28.5207 207.745 28.4875C207.777 28.4875 207.809 28.4875 207.841 28.4875C209.743 28.8199 212.578 29.3518 212.74 29.385C212.772 29.385 212.804 29.385 212.804 29.4182L212.933 29.4847C218.669 31.6454 224.276 32.8421 228.69 32.8421C232.364 32.8421 240.001 31.3462 244.126 30.5484C244.931 30.3822 245.608 30.2493 246.091 30.1828C250.474 29.385 260.076 29.1191 264.169 29.7174C266.167 30.0166 270.227 31.313 271 31.8116C271.451 32.0775 273.933 32.6426 275.64 31.5789C276.833 30.8476 277.381 29.4847 277.316 27.5235C277.284 26.3601 277.219 25.4958 277.155 24.6648C277.091 23.8005 277.058 22.9695 277.026 21.8061C276.962 20.1108 277.058 17.1523 277.091 16.0221C277.091 15.7894 277.091 15.6232 277.091 15.6232C277.091 15.59 277.091 15.5568 277.091 15.5568C277.091 15.5235 277.477 13.4958 277.284 10.6038C277.155 8.50966 277.219 6.41548 277.477 4.35454C277.638 3.15786 277.606 2.22711 277.381 1.59553C277.252 1.19664 276.349 0.664785 275.769 0.764508C275.576 0.797749 275.35 0.897472 275.35 1.36285C275.35 3.12462 274.706 5.81714 274.351 6.54844C274.029 7.2465 272.289 10.6371 269.582 15.8227C269.357 16.2548 269.131 16.6537 268.906 17.0858C267.262 20.1773 264.008 21.9058 260.592 21.5401C248.282 20.2105 219.184 17.1191 214.641 16.8199C214.576 16.8199 214.512 16.7867 214.48 16.7534C211.579 14.9252 208.164 14.2936 206.069 14.2936C205.554 14.2936 204.168 14.0277 201.848 13.5955C194.275 12.1662 178.486 9.17448 160.311 9.07476C160.247 9.07476 160.215 9.07476 160.15 9.04152C153.415 5.68418 132.373 5.58445 122.964 6.48196C122.932 6.48196 122.899 6.48196 122.867 6.48196C120.128 5.85038 113.522 5.9501 109.14 6.01659C107.013 6.04983 105.499 6.04983 104.951 6.01659C90.1601 4.22157 77.2705 11.6676 73.6615 13.9944L73.4681 14.1274C71.8891 14.9917 67.4423 14.6592 64.2199 14.3933C63.7043 14.3601 63.2209 14.3268 62.802 14.2936C62.6731 14.2936 62.5765 14.2271 62.512 14.1274C62.4476 14.0277 62.4476 13.8947 62.4798 13.795V13.7617C62.7698 12.2991 62.9309 10.7036 62.8987 9.87254C62.8665 9.04152 62.0931 8.01105 61.0619 7.87808C60.1919 7.74512 56.4861 7.61215 54.6172 7.54567C54.456 7.54567 54.2949 7.41271 54.2627 7.2465C53.9727 5.88362 53.5216 5.01936 53.3282 4.98611C52.2004 5.61769 49.4936 6.84761 48.3013 7.37947C48.0113 7.51243 47.8502 7.57891 47.7857 7.61215C47.7535 7.64539 47.689 7.64539 47.6568 7.64539C47.2379 7.64539 46.2712 7.74512 45.4334 7.8116C44.7567 7.87808 44.1122 7.91132 43.79 7.94456C40.8254 8.11077 38.3441 9.47365 36.6363 11.8338C34.5739 14.6925 33.8006 18.7479 34.6384 22.4709C36.3463 29.9169 40.5676 32.9418 47.6246 31.6786C52.716 30.7811 55.0683 29.4515 56.7762 28.4875C57.034 28.3545 57.2917 28.1883 57.5173 28.0554C62.8342 25.0637 68.6345 27.7894 70.2135 29.4847C70.2457 29.518 70.3102 29.518 70.3424 29.5845C73.597 33.0083 81.8463 35.4016 90.4501 35.4016C96.5404 35.4016 103.436 34.0055 110.751 32.5097C114.296 31.7784 117.937 31.0471 121.482 30.482C122.158 30.4155 122.771 30.349 123.415 30.349Z" fill="black"/>
<path d="M81.7178 31.9446C86.2936 31.8116 113.265 30.0498 115.327 30.4155C117.422 30.8144 122.868 31.1468 126.638 31.1468C130.408 31.1468 152.159 30.1163 153.094 30.2825L154.06 30.3158C154.415 30.482 155.414 30.9473 155.865 31.2133C157.057 31.9113 160.505 32.4764 161.923 32.5761C164.597 32.7423 167.884 32.0443 168.98 31.3795C170.043 31.6122 171.268 31.8448 172.138 31.8116C172.976 32.144 175.264 32.8421 175.264 32.8421C175.264 32.8421 178.035 34.1052 179.324 33.9058C179.582 33.8725 179.968 33.5401 180.033 33.3074C180.709 33.5069 181.418 33.6731 181.902 33.5734C182.611 33.4737 182.868 33.1412 182.901 32.9086C183.191 32.8088 183.513 32.5761 183.61 32.2437C183.835 31.4127 179.904 30.5484 179.904 30.5484C179.904 30.5484 178.228 29.9833 175.908 29.3185C174.651 28.9529 173.588 28.6537 172.686 28.3878C171.397 27.8892 170.204 27.3573 169.528 27.1246C168.69 26.7922 160.666 25.6953 155.8 24.1994C153.835 23.9667 150.387 23.867 147.422 23.6676C144.973 23.2354 121.804 21.4072 117.744 21.0415C113.716 20.6759 93.0606 19.8116 89.1293 19.0803C85.1979 18.349 84.6179 17.385 84.6179 17.385L81.7178 31.9446Z" fill="#C2D5FF"/>
<path d="M179.066 34.338C177.68 34.338 175.425 33.3408 175.167 33.2411C174.909 33.1746 172.943 32.543 172.106 32.2438C171.268 32.2438 170.237 32.0776 169.077 31.8117C167.82 32.5098 164.597 33.1413 161.923 32.9751C160.473 32.9087 156.96 32.3103 155.704 31.579C155.317 31.3463 154.382 30.9142 153.996 30.748L153.126 30.7148C153.094 30.7148 153.094 30.7148 153.061 30.7148C152.546 30.615 145.682 30.9142 139.624 31.1469C134.178 31.3796 128.507 31.579 126.702 31.579H126.67C122.739 31.579 117.325 31.2134 115.295 30.8145C113.909 30.5485 100.408 31.3131 91.4493 31.8117C87.0347 32.0776 83.2 32.2771 81.75 32.3103C81.5244 32.3103 81.3955 32.1441 81.3633 31.9447C81.3633 31.7452 81.5244 31.579 81.7177 31.5458C83.1678 31.5125 87.0024 31.2799 91.4171 31.0472C103.759 30.3491 114.07 29.784 115.424 30.0499C117.422 30.4156 122.771 30.7812 126.67 30.7812H126.702C128.507 30.7812 134.114 30.5486 139.592 30.3491C147.551 30.0167 152.481 29.8505 153.158 29.917L154.092 29.9502C154.125 29.9502 154.189 29.9502 154.221 29.9835C154.608 30.1497 155.607 30.615 156.058 30.881C157.154 31.5458 160.569 32.1109 161.955 32.1774C164.533 32.3103 167.755 31.6787 168.819 31.0472C168.883 31.0139 168.98 30.9807 169.077 31.0139C170.011 31.2134 171.268 31.4793 172.138 31.4461C172.17 31.4461 172.234 31.4461 172.267 31.4793C173.105 31.8117 175.36 32.5098 175.392 32.5098H175.425C176.166 32.8422 178.293 33.7064 179.291 33.5402C179.388 33.507 179.646 33.3076 179.71 33.2078C179.775 33.0084 179.968 32.9087 180.162 32.9751C181.096 33.2743 181.612 33.2743 181.869 33.2411C182.417 33.1746 182.546 32.9419 182.578 32.8754C182.611 32.7425 182.675 32.6427 182.804 32.5763C182.997 32.5098 183.223 32.3768 183.287 32.1774C183.062 31.8449 181.515 31.2799 179.872 30.9142H179.839C179.807 30.9142 178.131 30.3491 175.876 29.6843C175.296 29.5181 174.716 29.3519 174.232 29.1857C173.652 29.0195 173.137 28.8533 172.653 28.7203C171.912 28.4211 171.236 28.1552 170.655 27.9225C170.204 27.7231 169.785 27.5569 169.495 27.4571C169.238 27.3574 168.013 27.158 166.628 26.892C163.598 26.3602 159.055 25.5292 155.833 24.5319C154.672 24.399 152.997 24.2992 151.225 24.2328C150 24.1663 148.711 24.0998 147.519 24.0333H147.487C145.682 23.7341 132.084 22.604 123.995 21.9391C121.16 21.7064 118.872 21.507 117.873 21.4405C116.519 21.3076 113.2 21.1413 109.398 20.9419C101.6 20.5098 91.8683 19.9779 89.2259 19.4793C85.3268 18.748 84.5857 17.784 84.4568 17.6178C84.3601 17.4516 84.3923 17.2189 84.5857 17.0859C84.7468 16.9862 84.9724 17.0195 85.1012 17.2189C85.1012 17.2189 85.7779 18.0832 89.387 18.748C91.9649 19.2466 102.083 19.7785 109.462 20.2106C113.297 20.41 116.584 20.6095 117.97 20.7092C119.001 20.8089 121.256 20.9751 124.092 21.2078C132.728 21.9059 145.746 23.0028 147.648 23.3353C148.84 23.435 150.097 23.5015 151.321 23.5347C153.126 23.6344 154.834 23.7009 156.026 23.8671C156.058 23.8671 156.058 23.8671 156.09 23.8671C159.28 24.8643 163.824 25.6621 166.821 26.2272C168.593 26.5264 169.528 26.7258 169.818 26.8256C170.108 26.9585 170.527 27.1247 171.01 27.2909C171.59 27.5236 172.267 27.8228 172.976 28.0887C173.427 28.2217 173.942 28.3546 174.522 28.5209C175.038 28.6538 175.586 28.82 176.198 29.0195C178.357 29.651 180 30.1829 180.162 30.2494C180.967 30.4156 183.577 31.0804 184.061 31.8782C184.19 32.1109 184.157 32.2771 184.125 32.41C184.028 32.7757 183.738 33.0749 183.352 33.2743C183.223 33.5402 182.933 33.9059 182.095 34.0389C181.644 34.1053 181.064 34.0389 180.323 33.8394C180.097 34.1053 179.775 34.3048 179.517 34.3713C179.291 34.338 179.163 34.338 179.066 34.338Z" fill="black"/>
<path d="M180.033 33.7396C180 33.7396 179.968 33.7396 179.936 33.7396C179.775 33.7063 179.678 33.5734 179.646 33.4072C179.356 33.0415 177.39 31.9778 175.682 31.1468C175.489 31.0803 173.813 30.482 171.687 29.8504C169.495 29.1856 169.109 29.0858 167.916 28.6205C167.723 28.554 167.626 28.3213 167.691 28.1218C167.755 27.9224 167.981 27.8227 168.174 27.8892C169.302 28.3213 169.624 28.421 171.88 29.0858C174.168 29.7507 175.908 30.3822 175.94 30.3822H175.972C180.548 32.5429 180.419 33.0748 180.355 33.3739C180.355 33.6066 180.194 33.7396 180.033 33.7396Z" fill="black"/>
<path d="M182.933 33.3407C182.901 33.3407 182.901 33.3407 182.868 33.3407C182.74 33.3075 182.611 33.2078 182.578 33.0748C182.224 32.7091 179.904 31.4792 179.066 31.2465C178.583 31.1136 177.39 30.5817 176.263 30.0831C175.425 29.7175 174.426 29.2521 174.168 29.1856C174.007 29.1856 173.846 29.0526 173.814 28.8864C173.781 28.687 173.91 28.4875 174.104 28.4543C174.329 28.4211 174.619 28.5208 176.553 29.4183C177.616 29.8837 178.808 30.4488 179.227 30.5485C179.582 30.6482 183.384 32.2105 183.287 33.0416C183.255 33.2078 183.094 33.3407 182.933 33.3407Z" fill="black"/>
<path d="M49.5259 24.4321C48.1725 24.4321 47.0447 23.9002 46.658 22.9695C46.2391 21.9722 46.6902 20.7756 47.8503 19.8116C48.0114 19.6786 48.237 19.7119 48.3659 19.8781C48.4948 20.0443 48.4625 20.277 48.3014 20.4099C47.4314 21.1412 47.0447 22.0387 47.3347 22.7035C47.7858 23.7673 49.7193 24.0332 51.5238 23.3351C52.7161 22.8697 53.6828 22.072 54.005 21.2409C54.1661 20.842 54.1661 20.4764 54.0372 20.1772C53.9728 20.0443 53.8761 19.8781 53.7472 19.7783C53.5861 19.6454 53.5861 19.4127 53.7472 19.2465C53.8761 19.0803 54.1017 19.0803 54.2628 19.2465C54.4562 19.4459 54.6173 19.6454 54.7139 19.8781C54.9395 20.3767 54.9073 20.975 54.6817 21.5401C54.2628 22.5706 53.1672 23.5013 51.7816 24.0664C51.0082 24.2991 50.2348 24.4321 49.5259 24.4321Z" fill="black"/>
</g>
<defs>
<clipPath id="clip0_139_917">
<rect width="300" height="60" fill="white"/>
</clipPath>
</defs>
</svg>
