<svg width="300" height="60" viewBox="0 0 300 60" fill="none" xmlns="http://www.w3.org/2000/svg">
<g clip-path="url(#clip0_139_918)">
<path d="M288.884 59.8341H14.0474C11.2439 59.8341 8.95605 57.474 8.95605 54.582V36.0668C8.95605 33.1748 11.2439 30.8147 14.0474 30.8147H288.884C291.688 30.8147 293.976 33.1748 293.976 36.0668V54.582C293.976 57.474 291.688 59.8341 288.884 59.8341Z" fill="#E4E4E4" stroke="black" stroke-miterlimit="10"/>
<path d="M31.4802 30.8147V59.8341" stroke="black" stroke-miterlimit="10"/>
<path d="M52.168 30.8147V59.8341" stroke="black" stroke-miterlimit="10"/>
<path d="M78.2051 35.6345V59.834" stroke="black" stroke-miterlimit="10"/>
<path d="M102.438 33.3076V59.8339" stroke="black" stroke-miterlimit="10"/>
<path d="M127.959 30.6484V59.834" stroke="black" stroke-miterlimit="10"/>
<path d="M151.45 30.8811V59.834" stroke="black" stroke-miterlimit="10"/>
<path d="M180.129 30.8811V59.834" stroke="black" stroke-miterlimit="10"/>
<path d="M211.999 30.7148V59.834" stroke="black" stroke-miterlimit="10"/>
<path d="M244.996 30.8147V59.8341" stroke="black" stroke-miterlimit="10"/>
<path d="M274.384 30.8811V59.834" stroke="black" stroke-miterlimit="10"/>
<path d="M69.1824 31.3796C69.1824 30.6151 68.8924 30.0168 68.6669 29.3519C68.0224 27.8228 66.669 26.0278 62.5765 25.1303C60.8042 24.7314 56.3573 24.2993 53.8761 24.1996C50.1704 24.0666 42.7911 24.0666 39.0854 24.1996C36.6041 24.2993 32.1895 24.7314 30.3849 25.1303C26.3247 26.0278 24.9713 27.7896 24.2946 29.3519C24.0691 30.05 23.7791 30.6483 23.7791 31.3796C23.7791 31.3796 23.199 35.6012 27.8393 35.6012H28.1293H64.8644H65.09C69.7302 35.6345 69.1824 31.3796 69.1824 31.3796Z" fill="#EAEAEA" stroke="black" stroke-miterlimit="10"/>
<path d="M47.7214 32.078C53.6506 31.0143 55.8741 29.4519 57.7431 28.4547C62.9955 25.4962 68.7958 28.2885 70.1492 29.9173V29.8841C73.3716 33.2746 81.6854 35.801 90.5147 35.801C99.6985 35.801 110.912 32.5766 121.611 30.8813C124.479 30.4159 127.379 31.0475 129.828 32.5766C133.63 34.9367 141.332 37.8287 148.646 37.4298C153.029 37.1971 157.121 36.1998 159.796 33.4408C160.859 32.3439 162.245 31.6791 163.727 31.5794C175.392 30.8148 207.713 28.9201 207.713 28.9201C207.713 28.9201 212.611 29.8176 212.643 29.8176C213.706 30.2165 221.505 33.2414 228.658 33.2414C233.073 33.2414 242.998 31.1472 246.124 30.5821C250.28 29.8176 259.883 29.5184 264.072 30.1167C266.135 30.4159 270.066 31.7456 270.775 32.1444C271.613 32.6431 277.864 33.8397 277.671 27.5239C277.574 25.1306 277.445 24.1001 277.381 21.8065C277.316 19.7456 277.445 15.7234 277.445 15.6237C277.445 15.6237 277.832 13.5627 277.671 10.571C277.542 8.5101 277.606 6.44916 277.864 4.38822C277.993 3.35774 278.025 2.26079 277.767 1.46301C277.477 0.53226 275.028 -0.365247 275.028 1.33004C275.028 3.05858 274.384 5.68461 274.062 6.34943C273.707 7.08074 271.709 10.9699 269.325 15.6237C269.099 16.0558 268.874 16.4547 268.648 16.8868C267.069 19.8453 263.943 21.5073 260.689 21.1749C248.573 19.8785 219.281 16.7539 214.705 16.4547C211.644 14.4935 208.132 13.9284 206.102 13.9616C204.071 13.9949 184.06 8.87575 160.344 8.74279C153.609 5.38544 132.631 5.25248 122.964 6.14999C118.904 5.21924 106.594 5.85082 105.015 5.65137C90.3536 3.8896 77.6574 11.0032 73.5005 13.6625C73.4361 13.6957 73.3716 13.7622 73.3072 13.7954C71.5993 14.7262 65.7668 14.0946 62.8344 13.8951L62.8666 13.8287C63.1567 12.2996 63.3178 10.704 63.2856 9.83974C63.2533 8.80927 62.2866 7.64583 61.1588 7.47963C60.0954 7.31342 55.004 7.14722 54.6818 7.14722C54.6173 6.88129 54.0051 4.15553 53.1995 4.65414C51.8461 5.41869 48.0115 7.11398 47.7214 7.24694C46.9803 7.28018 44.5957 7.51287 43.8224 7.54611C36.1531 7.97824 32.834 16.0226 34.3163 22.5378C35.7986 29.053 39.5688 33.5406 47.7214 32.078Z" fill="#E4E4E4"/>
<path d="M147.261 37.8285C140.59 37.8285 133.566 35.3354 129.634 32.9088C127.217 31.413 124.382 30.8146 121.643 31.2467C118.098 31.8118 114.457 32.5431 110.944 33.2744C103.597 34.7703 96.6693 36.1664 90.5145 36.1664C81.8785 36.1664 73.5003 33.7398 70.0202 30.2828C69.9557 30.2495 69.8913 30.2163 69.859 30.183C68.6023 28.654 63.0598 25.9282 57.9362 28.7869C57.6784 28.9199 57.4529 29.0528 57.1951 29.1858C55.455 30.183 53.0382 31.5127 47.8179 32.4434L47.7535 32.0778L47.8179 32.4434C40.4065 33.7398 35.7662 30.449 33.9939 22.6373C33.0916 18.7149 33.9295 14.4268 36.1207 11.4019C37.9897 8.84231 40.6642 7.37971 43.8222 7.21351C44.1444 7.18026 44.7889 7.14702 45.4656 7.08054C46.3356 7.01406 47.2057 6.91434 47.6568 6.91434C47.7535 6.8811 47.9146 6.81461 48.108 6.71489C49.268 6.18303 51.9748 4.98636 53.0382 4.38802C53.2638 4.25506 53.4893 4.25506 53.7149 4.35478C54.3916 4.65395 54.8105 6.05007 55.0039 6.84785C56.1317 6.8811 60.2563 7.0473 61.2231 7.18026C62.4798 7.37971 63.6076 8.64287 63.6721 9.90603C63.7043 10.7371 63.5432 12.1997 63.3176 13.629C63.6398 13.6623 63.9621 13.6623 64.3165 13.6955C67.2811 13.9282 71.7925 14.2606 73.1459 13.5293L73.3392 13.3963C76.9805 11.0362 90.0956 3.49051 105.112 5.31877C105.595 5.38525 107.174 5.35201 109.204 5.31877C113.587 5.25229 120.193 5.1858 123.061 5.81738C132.534 4.91988 153.577 5.0196 160.505 8.41018C178.711 8.5099 194.501 11.5016 202.073 12.931C204.2 13.3298 205.747 13.629 206.166 13.629C206.198 13.629 206.23 13.629 206.295 13.629C208.55 13.629 211.934 14.2938 214.899 16.1553C219.732 16.521 248.572 19.5792 260.785 20.8756C263.879 21.208 266.876 19.6124 268.39 16.7869C268.616 16.3548 268.841 15.9559 269.067 15.5238C271.161 11.4351 273.449 7.01406 273.804 6.24952C274.126 5.5847 274.738 3.02514 274.738 1.39633C274.738 0.665029 275.125 0.166414 275.769 0.0666912C276.704 -0.0995138 277.928 0.598547 278.186 1.39633C278.412 2.16087 278.476 3.19134 278.315 4.48774C278.057 6.4822 277.993 8.54315 278.122 10.6041C278.283 13.4296 277.961 15.424 277.896 15.7232C277.896 15.7897 277.896 15.9226 277.896 16.1221C277.864 17.2523 277.799 20.2107 277.832 21.8728C277.864 23.0362 277.928 23.834 277.961 24.6983C278.025 25.5293 278.057 26.3936 278.122 27.557C278.186 29.8174 277.509 31.3797 276.092 32.2772C274.094 33.5071 271.322 32.8756 270.71 32.5099C270.066 32.111 266.167 30.8146 264.137 30.5154C260.109 29.9171 250.603 30.183 246.317 30.9476C245.801 31.0473 245.157 31.1803 244.351 31.3132C240.226 32.111 232.525 33.6069 228.787 33.6069C224.308 33.6069 218.604 32.4102 212.772 30.2163L212.675 30.183C212.417 30.1498 211.515 29.9836 207.809 29.2855C206.456 29.352 175.167 31.2135 163.856 31.9448C162.503 32.0445 161.181 32.6429 160.15 33.7066C157.733 36.1664 153.995 37.5293 148.743 37.8285C148.195 37.8285 147.712 37.8285 147.261 37.8285ZM123.415 30.3492C125.703 30.3492 127.991 31.0141 129.989 32.244C134.113 34.8035 141.686 37.3963 148.614 37.0307C153.673 36.7648 157.25 35.4684 159.538 33.1415C160.698 31.978 162.18 31.2467 163.727 31.147C175.263 30.4157 207.39 28.521 207.745 28.4877C207.777 28.4877 207.809 28.4877 207.841 28.4877C209.743 28.8202 212.578 29.352 212.74 29.3853C212.772 29.3853 212.804 29.3853 212.804 29.4185L212.933 29.485C218.669 31.6456 224.276 32.8423 228.69 32.8423C232.364 32.8423 240.001 31.3465 244.126 30.5487C244.931 30.3825 245.608 30.2495 246.091 30.183C250.474 29.3853 260.076 29.1193 264.169 29.7177C266.167 30.0168 270.227 31.3132 271 31.8118C271.451 32.0778 273.933 32.6429 275.64 31.5792C276.833 30.8479 277.381 29.485 277.316 27.5238C277.284 26.3603 277.219 25.4961 277.155 24.665C277.091 23.8008 277.058 22.9697 277.026 21.8063C276.962 20.111 277.058 17.1526 277.091 16.0224C277.091 15.7897 277.091 15.6235 277.091 15.6235C277.091 15.5902 277.091 15.557 277.091 15.557C277.091 15.5238 277.477 13.4961 277.284 10.6041C277.155 8.5099 277.219 6.41572 277.477 4.35478C277.638 3.1581 277.606 2.22736 277.381 1.59578C277.252 1.19689 276.349 0.665029 275.769 0.764752C275.576 0.797993 275.35 0.897716 275.35 1.36309C275.35 3.12486 274.706 5.81738 274.351 6.54869C274.029 7.24675 272.289 10.6373 269.582 15.8229C269.357 16.2551 269.131 16.6539 268.906 17.0861C267.262 20.1775 264.008 21.906 260.592 21.5404C248.282 20.2107 219.184 17.1193 214.641 16.8202C214.576 16.8202 214.512 16.7869 214.48 16.7537C211.579 14.9254 208.164 14.2938 206.069 14.2938C205.554 14.2938 204.168 14.0279 201.848 13.5958C194.275 12.1664 178.486 9.17472 160.311 9.075C160.247 9.075 160.215 9.075 160.15 9.04176C153.415 5.68442 132.373 5.5847 122.964 6.4822C122.932 6.4822 122.899 6.4822 122.867 6.4822C120.128 5.85062 113.522 5.95035 109.14 6.01683C107.013 6.05007 105.499 6.05007 104.951 6.01683C90.1601 4.22182 77.2705 11.6678 73.6615 13.9947L73.4681 14.1276C71.8891 14.9919 67.4423 14.6595 64.2199 14.3936C63.7043 14.3603 63.2209 14.3271 62.802 14.2938C62.6731 14.2938 62.5765 14.2274 62.512 14.1276C62.4476 14.0279 62.4476 13.8949 62.4798 13.7952V13.762C62.7698 12.2994 62.9309 10.7038 62.8987 9.87279C62.8665 9.04176 62.0931 8.01129 61.0619 7.87833C60.1919 7.74536 56.4861 7.6124 54.6172 7.54592C54.456 7.54592 54.2949 7.41295 54.2627 7.24675C53.9727 5.88387 53.5216 5.0196 53.3282 4.98636C52.2004 5.61794 49.4936 6.84785 48.3013 7.37971C48.0113 7.51267 47.8502 7.57916 47.7857 7.6124C47.7535 7.64564 47.689 7.64564 47.6568 7.64564C47.2379 7.64564 46.2712 7.74536 45.4334 7.81184C44.7567 7.87833 44.1122 7.91157 43.79 7.94481C40.8254 8.11101 38.3441 9.47389 36.6363 11.834C34.5739 14.6927 33.8006 18.7481 34.6384 22.4711C36.3463 29.9171 40.5676 32.942 47.6246 31.6789C52.716 30.7814 55.0683 29.4517 56.7762 28.4877C57.034 28.3548 57.2917 28.1886 57.5173 28.0556C62.8342 25.0639 68.6345 27.7897 70.2135 29.485C70.2457 29.5182 70.3102 29.5182 70.3424 29.5847C73.597 33.0085 81.8463 35.4019 90.4501 35.4019C96.5404 35.4019 103.436 34.0058 110.751 32.5099C114.296 31.7786 117.937 31.0473 121.482 30.4822C122.158 30.4157 122.771 30.3492 123.415 30.3492Z" fill="black"/>
<path d="M81.7178 31.9448C86.2936 31.8118 113.265 30.0501 115.327 30.4157C117.422 30.8146 122.868 31.147 126.638 31.147C130.408 31.147 152.159 30.1166 153.094 30.2828L154.06 30.316C154.415 30.4822 155.414 30.9476 155.865 31.2135C157.057 31.9116 160.505 32.4767 161.923 32.5764C164.597 32.7426 167.884 32.0445 168.98 31.3797C170.043 31.6124 171.268 31.8451 172.138 31.8118C172.976 32.1443 175.264 32.8423 175.264 32.8423C175.264 32.8423 178.035 34.1055 179.324 33.906C179.582 33.8728 179.968 33.5404 180.033 33.3077C180.709 33.5071 181.418 33.6733 181.902 33.5736C182.611 33.4739 182.868 33.1415 182.901 32.9088C183.191 32.8091 183.513 32.5764 183.61 32.244C183.835 31.413 179.904 30.5487 179.904 30.5487C179.904 30.5487 178.228 29.9836 175.908 29.3188C174.651 28.9531 173.588 28.654 172.686 28.388C171.397 27.8894 170.204 27.3576 169.528 27.1249C168.69 26.7925 160.666 25.6955 155.8 24.1997C153.835 23.967 150.387 23.8672 147.422 23.6678C144.973 23.2357 121.804 21.4074 117.744 21.0418C113.716 20.6761 93.0606 19.8118 89.1293 19.0805C85.1979 18.3492 84.6179 17.3853 84.6179 17.3853L81.7178 31.9448Z" fill="#E4E4E4"/>
<path d="M179.066 34.3383C177.68 34.3383 175.425 33.341 175.167 33.2413C174.909 33.1748 172.943 32.5433 172.106 32.2441C171.268 32.2441 170.237 32.0779 169.077 31.812C167.82 32.51 164.597 33.1416 161.923 32.9754C160.473 32.9089 156.96 32.3106 155.704 31.5793C155.317 31.3466 154.382 30.9144 153.996 30.7482L153.126 30.715C153.094 30.715 153.094 30.715 153.061 30.715C152.546 30.6153 145.682 30.9144 139.624 31.1471C134.178 31.3798 128.507 31.5793 126.702 31.5793H126.67C122.739 31.5793 117.325 31.2136 115.295 30.8147C113.909 30.5488 100.408 31.3133 91.4493 31.812C87.0347 32.0779 83.2 32.2773 81.75 32.3106C81.5244 32.3106 81.3955 32.1444 81.3633 31.9449C81.3633 31.7455 81.5244 31.5793 81.7177 31.546C83.1678 31.5128 87.0024 31.2801 91.4171 31.0474C103.759 30.3493 114.07 29.7843 115.424 30.0502C117.422 30.4158 122.771 30.7815 126.67 30.7815H126.702C128.507 30.7815 134.114 30.5488 139.592 30.3493C147.551 30.0169 152.481 29.8507 153.158 29.9172L154.092 29.9505C154.125 29.9505 154.189 29.9505 154.221 29.9837C154.608 30.1499 155.607 30.6153 156.058 30.8812C157.154 31.546 160.569 32.1111 161.955 32.1776C164.533 32.3106 167.755 31.679 168.819 31.0474C168.883 31.0142 168.98 30.9809 169.077 31.0142C170.011 31.2136 171.268 31.4795 172.138 31.4463C172.17 31.4463 172.234 31.4463 172.267 31.4795C173.105 31.812 175.36 32.51 175.392 32.51H175.425C176.166 32.8424 178.293 33.7067 179.291 33.5405C179.388 33.5072 179.646 33.3078 179.71 33.2081C179.775 33.0086 179.968 32.9089 180.162 32.9754C181.096 33.2746 181.612 33.2746 181.869 33.2413C182.417 33.1748 182.546 32.9421 182.578 32.8757C182.611 32.7427 182.675 32.643 182.804 32.5765C182.997 32.51 183.223 32.377 183.287 32.1776C183.062 31.8452 181.515 31.2801 179.872 30.9144H179.839C179.807 30.9144 178.131 30.3493 175.876 29.6845C175.296 29.5183 174.716 29.3521 174.232 29.1859C173.652 29.0197 173.137 28.8535 172.653 28.7205C171.912 28.4214 171.236 28.1554 170.655 27.9228C170.204 27.7233 169.785 27.5571 169.495 27.4574C169.238 27.3577 168.013 27.1582 166.628 26.8923C163.598 26.3604 159.055 25.5294 155.833 24.5322C154.672 24.3992 152.997 24.2995 151.225 24.233C150 24.1665 148.711 24.1 147.519 24.0336H147.487C145.682 23.7344 132.084 22.6042 123.995 21.9394C121.16 21.7067 118.872 21.5072 117.873 21.4408C116.519 21.3078 113.2 21.1416 109.398 20.9421C101.6 20.51 91.8683 19.9782 89.2259 19.4795C85.3268 18.7482 84.5857 17.7843 84.4568 17.618C84.3601 17.4518 84.3923 17.2192 84.5857 17.0862C84.7468 16.9865 84.9724 17.0197 85.1012 17.2192C85.1012 17.2192 85.7779 18.0834 89.387 18.7482C91.9649 19.2469 102.083 19.7787 109.462 20.2108C113.297 20.4103 116.584 20.6097 117.97 20.7095C119.001 20.8092 121.256 20.9754 124.092 21.2081C132.728 21.9061 145.746 23.0031 147.648 23.3355C148.84 23.4352 150.097 23.5017 151.321 23.5349C153.126 23.6347 154.834 23.7012 156.026 23.8674C156.058 23.8674 156.058 23.8674 156.09 23.8674C159.28 24.8646 163.824 25.6624 166.821 26.2275C168.593 26.5266 169.528 26.7261 169.818 26.8258C170.108 26.9588 170.527 27.125 171.01 27.2912C171.59 27.5239 172.267 27.823 172.976 28.089C173.427 28.2219 173.942 28.3549 174.522 28.5211C175.038 28.6541 175.586 28.8203 176.198 29.0197C178.357 29.6513 180 30.1831 180.162 30.2496C180.967 30.4158 183.577 31.0807 184.061 31.8784C184.19 32.1111 184.157 32.2773 184.125 32.4103C184.028 32.7759 183.738 33.0751 183.352 33.2746C183.223 33.5405 182.933 33.9061 182.095 34.0391C181.644 34.1056 181.064 34.0391 180.323 33.8397C180.097 34.1056 179.775 34.305 179.517 34.3715C179.291 34.3383 179.163 34.3383 179.066 34.3383Z" fill="black"/>
<path d="M180.033 33.7398C180 33.7398 179.968 33.7398 179.936 33.7398C179.775 33.7066 179.678 33.5736 179.646 33.4074C179.356 33.0418 177.39 31.9781 175.682 31.147C175.489 31.0805 173.813 30.4822 171.687 29.8506C169.495 29.1858 169.109 29.0861 167.916 28.6207C167.723 28.5542 167.626 28.3215 167.691 28.1221C167.755 27.9226 167.981 27.8229 168.174 27.8894C169.302 28.3215 169.624 28.4213 171.88 29.0861C174.168 29.7509 175.908 30.3825 175.94 30.3825H175.972C180.548 32.5432 180.419 33.075 180.355 33.3742C180.355 33.6069 180.194 33.7398 180.033 33.7398Z" fill="black"/>
<path d="M182.933 33.341C182.901 33.341 182.901 33.341 182.868 33.341C182.74 33.3077 182.611 33.208 182.578 33.075C182.224 32.7094 179.904 31.4795 179.066 31.2468C178.583 31.1138 177.39 30.582 176.263 30.0833C175.425 29.7177 174.426 29.2523 174.168 29.1858C174.007 29.1858 173.846 29.0529 173.814 28.8867C173.781 28.6872 173.91 28.4878 174.104 28.4545C174.329 28.4213 174.619 28.521 176.553 29.4185C177.616 29.8839 178.808 30.449 179.227 30.5487C179.582 30.6484 183.384 32.2108 183.287 33.0418C183.255 33.208 183.094 33.341 182.933 33.341Z" fill="black"/>
<path d="M49.5259 24.4323C48.1725 24.4323 47.0447 23.9005 46.658 22.9697C46.2391 21.9725 46.6902 20.7758 47.8503 19.8118C48.0114 19.6789 48.237 19.7121 48.3659 19.8783C48.4948 20.0445 48.4625 20.2772 48.3014 20.4102C47.4314 21.1415 47.0447 22.039 47.3347 22.7038C47.7858 23.7675 49.7193 24.0334 51.5238 23.3354C52.7161 22.87 53.6828 22.0722 54.005 21.2412C54.1661 20.8423 54.1661 20.4766 54.0372 20.1775C53.9728 20.0445 53.8761 19.8783 53.7472 19.7786C53.5861 19.6456 53.5861 19.4129 53.7472 19.2467C53.8761 19.0805 54.1017 19.0805 54.2628 19.2467C54.4562 19.4462 54.6173 19.6456 54.7139 19.8783C54.9395 20.3769 54.9073 20.9753 54.6817 21.5404C54.2628 22.5708 53.1672 23.5016 51.7816 24.0667C51.0082 24.2994 50.2348 24.4323 49.5259 24.4323Z" fill="black"/>
</g>
<defs>
<clipPath id="clip0_139_918">
<rect width="300" height="60" fill="white"/>
</clipPath>
</defs>
</svg>
