<svg width="307" height="99" viewBox="0 0 307 99" fill="none" xmlns="http://www.w3.org/2000/svg">
<path d="M107.371 95V82.1152H109.12L115.888 92.2314V82.1152H117.522V95H115.773L109.006 84.875V95H107.371ZM126.285 93.8486C125.699 94.3467 125.134 94.6982 124.589 94.9033C124.05 95.1084 123.47 95.2109 122.849 95.2109C121.823 95.2109 121.035 94.9619 120.484 94.4639C119.934 93.96 119.658 93.3184 119.658 92.5391C119.658 92.082 119.761 91.666 119.966 91.291C120.177 90.9102 120.449 90.6055 120.783 90.377C121.123 90.1484 121.504 89.9756 121.926 89.8584C122.236 89.7764 122.705 89.6973 123.332 89.6211C124.609 89.4688 125.55 89.2871 126.153 89.0762C126.159 88.8594 126.162 88.7217 126.162 88.6631C126.162 88.0186 126.013 87.5645 125.714 87.3008C125.31 86.9434 124.709 86.7646 123.912 86.7646C123.168 86.7646 122.617 86.8965 122.26 87.1602C121.908 87.418 121.647 87.8779 121.478 88.54L119.931 88.3291C120.071 87.667 120.303 87.1338 120.625 86.7295C120.947 86.3193 121.413 86.0059 122.022 85.7891C122.632 85.5664 123.338 85.4551 124.141 85.4551C124.938 85.4551 125.585 85.5488 126.083 85.7363C126.581 85.9238 126.947 86.1611 127.182 86.4482C127.416 86.7295 127.58 87.0869 127.674 87.5205C127.727 87.79 127.753 88.2764 127.753 88.9795V91.0889C127.753 92.5596 127.785 93.4912 127.85 93.8838C127.92 94.2705 128.055 94.6426 128.254 95H126.602C126.438 94.6719 126.332 94.2881 126.285 93.8486ZM126.153 90.3154C125.579 90.5498 124.718 90.749 123.569 90.9131C122.919 91.0068 122.459 91.1123 122.189 91.2295C121.92 91.3467 121.712 91.5195 121.565 91.748C121.419 91.9707 121.346 92.2197 121.346 92.4951C121.346 92.917 121.504 93.2686 121.82 93.5498C122.143 93.8311 122.611 93.9717 123.227 93.9717C123.836 93.9717 124.378 93.8398 124.853 93.5762C125.327 93.3066 125.676 92.9404 125.898 92.4775C126.068 92.1201 126.153 91.5928 126.153 90.8955V90.3154ZM125.679 82.1328H126.76C126.672 82.8652 126.402 83.4277 125.951 83.8203C125.506 84.2129 124.911 84.4092 124.167 84.4092C123.417 84.4092 122.816 84.2158 122.365 83.8291C121.92 83.4365 121.653 82.8711 121.565 82.1328H122.646C122.729 82.5312 122.89 82.8301 123.13 83.0293C123.376 83.2227 123.704 83.3193 124.114 83.3193C124.589 83.3193 124.946 83.2256 125.187 83.0381C125.433 82.8447 125.597 82.543 125.679 82.1328ZM125.178 81.4033H123.903L121.873 78.9424H123.991L125.178 81.4033ZM130.214 95V85.666H131.629V86.9756C131.922 86.5186 132.312 86.1523 132.798 85.877C133.284 85.5957 133.838 85.4551 134.459 85.4551C135.15 85.4551 135.716 85.5986 136.155 85.8857C136.601 86.1729 136.914 86.5742 137.096 87.0898C137.834 86 138.795 85.4551 139.979 85.4551C140.904 85.4551 141.616 85.7129 142.114 86.2285C142.612 86.7383 142.861 87.5264 142.861 88.5928V95H141.288V89.1201C141.288 88.4873 141.235 88.0332 141.13 87.7578C141.03 87.4766 140.846 87.251 140.576 87.0811C140.307 86.9111 139.99 86.8262 139.627 86.8262C138.971 86.8262 138.426 87.0459 137.992 87.4854C137.559 87.9189 137.342 88.6162 137.342 89.5771V95H135.76V88.9355C135.76 88.2324 135.631 87.7051 135.373 87.3535C135.115 87.002 134.693 86.8262 134.107 86.8262C133.662 86.8262 133.249 86.9434 132.868 87.1777C132.493 87.4121 132.221 87.7549 132.051 88.2061C131.881 88.6572 131.796 89.3076 131.796 90.1572V95H130.214ZM150.218 95V85.666H151.642V86.9932C152.327 85.9678 153.317 85.4551 154.612 85.4551C155.175 85.4551 155.69 85.5576 156.159 85.7627C156.634 85.9619 156.988 86.2256 157.223 86.5537C157.457 86.8818 157.621 87.2715 157.715 87.7227C157.773 88.0156 157.803 88.5283 157.803 89.2607V95H156.221V89.3223C156.221 88.6777 156.159 88.1973 156.036 87.8809C155.913 87.5586 155.693 87.3037 155.377 87.1162C155.066 86.9229 154.7 86.8262 154.278 86.8262C153.604 86.8262 153.021 87.04 152.529 87.4678C152.043 87.8955 151.8 88.707 151.8 89.9023V95H150.218ZM159.947 95.7734L161.485 96.002C161.55 96.4766 161.729 96.8223 162.021 97.0391C162.414 97.332 162.95 97.4785 163.63 97.4785C164.362 97.4785 164.928 97.332 165.326 97.0391C165.725 96.7461 165.994 96.3359 166.135 95.8086C166.217 95.4863 166.255 94.8096 166.249 93.7783C165.558 94.5928 164.696 95 163.665 95C162.382 95 161.389 94.5371 160.686 93.6113C159.982 92.6855 159.631 91.5752 159.631 90.2803C159.631 89.3896 159.792 88.5693 160.114 87.8193C160.437 87.0635 160.902 86.4805 161.512 86.0703C162.127 85.6602 162.848 85.4551 163.674 85.4551C164.775 85.4551 165.684 85.9004 166.398 86.791V85.666H167.857V93.7344C167.857 95.1875 167.708 96.2158 167.409 96.8193C167.116 97.4287 166.647 97.9092 166.003 98.2607C165.364 98.6123 164.576 98.7881 163.639 98.7881C162.525 98.7881 161.626 98.5361 160.94 98.0322C160.255 97.5342 159.924 96.7812 159.947 95.7734ZM161.257 90.166C161.257 91.3906 161.5 92.2842 161.986 92.8467C162.473 93.4092 163.082 93.6904 163.814 93.6904C164.541 93.6904 165.15 93.4121 165.643 92.8555C166.135 92.293 166.381 91.4141 166.381 90.2188C166.381 89.0762 166.126 88.2148 165.616 87.6348C165.112 87.0547 164.503 86.7646 163.788 86.7646C163.085 86.7646 162.487 87.0518 161.995 87.626C161.503 88.1943 161.257 89.041 161.257 90.166ZM178.879 87.5029V85.666H180.575V87.1162C180.575 88.0361 180.47 88.6777 180.259 89.041C179.72 89.9785 178.896 90.5059 177.789 90.623V95H176.374V93.6289C175.647 94.6836 174.66 95.2109 173.412 95.2109C172.867 95.2109 172.354 95.1084 171.874 94.9033C171.399 94.6924 171.045 94.4258 170.811 94.1035C170.576 93.7812 170.412 93.3887 170.318 92.9258C170.254 92.6094 170.222 92.1172 170.222 91.4492V85.666H171.804V90.8428C171.804 91.6807 171.836 92.2373 171.9 92.5127C172.105 93.4033 172.715 93.8486 173.729 93.8486C174.215 93.8486 174.663 93.7256 175.073 93.4795C175.489 93.2334 175.782 92.9023 175.952 92.4863C176.122 92.0703 176.207 91.4639 176.207 90.667V85.666H177.789V89.9551C178.533 89.8262 179.09 89.4775 179.459 88.9092C179.623 88.6631 179.705 88.1943 179.705 87.5029H178.879ZM173.509 83.4512C173.843 83.416 174.057 83.3838 174.15 83.3545C174.461 83.249 174.619 83.085 174.625 82.8623C174.631 82.7275 174.549 82.6133 174.379 82.5195C174.133 82.3848 173.743 82.3174 173.21 82.3174C173.028 82.3174 172.753 82.3291 172.384 82.3525L172.287 81.4561C172.516 81.4092 172.938 81.3887 173.553 81.3945C174.273 81.4004 174.862 81.5176 175.319 81.7461C175.823 81.9922 176.081 82.335 176.093 82.7744C176.116 83.501 175.583 83.9316 174.493 84.0664V84.5059H173.509V83.4512ZM188.406 93.8486C187.82 94.3467 187.255 94.6982 186.71 94.9033C186.171 95.1084 185.591 95.2109 184.97 95.2109C183.944 95.2109 183.156 94.9619 182.605 94.4639C182.055 93.96 181.779 93.3184 181.779 92.5391C181.779 92.082 181.882 91.666 182.087 91.291C182.298 90.9102 182.57 90.6055 182.904 90.377C183.244 90.1484 183.625 89.9756 184.047 89.8584C184.357 89.7764 184.826 89.6973 185.453 89.6211C186.73 89.4688 187.671 89.2871 188.274 89.0762C188.28 88.8594 188.283 88.7217 188.283 88.6631C188.283 88.0186 188.134 87.5645 187.835 87.3008C187.431 86.9434 186.83 86.7646 186.033 86.7646C185.289 86.7646 184.738 86.8965 184.381 87.1602C184.029 87.418 183.769 87.8779 183.599 88.54L182.052 88.3291C182.192 87.667 182.424 87.1338 182.746 86.7295C183.068 86.3193 183.534 86.0059 184.144 85.7891C184.753 85.5664 185.459 85.4551 186.262 85.4551C187.059 85.4551 187.706 85.5488 188.204 85.7363C188.702 85.9238 189.068 86.1611 189.303 86.4482C189.537 86.7295 189.701 87.0869 189.795 87.5205C189.848 87.79 189.874 88.2764 189.874 88.9795V91.0889C189.874 92.5596 189.906 93.4912 189.971 93.8838C190.041 94.2705 190.176 94.6426 190.375 95H188.723C188.559 94.6719 188.453 94.2881 188.406 93.8486ZM188.274 90.3154C187.7 90.5498 186.839 90.749 185.69 90.9131C185.04 91.0068 184.58 91.1123 184.311 91.2295C184.041 91.3467 183.833 91.5195 183.687 91.748C183.54 91.9707 183.467 92.2197 183.467 92.4951C183.467 92.917 183.625 93.2686 183.941 93.5498C184.264 93.8311 184.732 93.9717 185.348 93.9717C185.957 93.9717 186.499 93.8398 186.974 93.5762C187.448 93.3066 187.797 92.9404 188.02 92.4775C188.189 92.1201 188.274 91.5928 188.274 90.8955V90.3154Z" fill="#20315C"/>
<g clip-path="url(#clip0_139_917)">
<path d="M295.625 59.8338H14.3752C11.5063 59.8338 9.16504 57.4737 9.16504 54.5818V36.0665C9.16504 33.1746 11.5063 30.8145 14.3752 30.8145H295.625C298.494 30.8145 300.835 33.1746 300.835 36.0665V54.5818C300.835 57.4737 298.494 59.8338 295.625 59.8338Z" fill="#4B80FB" stroke="black" stroke-miterlimit="10"/>
<path d="M32.2148 30.8145V59.8338" stroke="black" stroke-miterlimit="10"/>
<path d="M53.3853 30.8145V59.8338" stroke="black" stroke-miterlimit="10"/>
<path d="M80.0298 35.6343V59.8337" stroke="black" stroke-miterlimit="10"/>
<path d="M104.828 33.3074V59.8337" stroke="black" stroke-miterlimit="10"/>
<path d="M130.944 30.6482V59.8338" stroke="black" stroke-miterlimit="10"/>
<path d="M154.984 30.8809V59.8338" stroke="black" stroke-miterlimit="10"/>
<path d="M184.332 30.8809V59.8338" stroke="black" stroke-miterlimit="10"/>
<path d="M216.945 30.7146V59.8337" stroke="black" stroke-miterlimit="10"/>
<path d="M250.712 30.8145V59.8338" stroke="black" stroke-miterlimit="10"/>
<path d="M280.786 30.8809V59.8338" stroke="black" stroke-miterlimit="10"/>
<path d="M70.7966 31.3794C70.7966 30.6148 70.4998 30.0165 70.269 29.3517C69.6095 27.8226 68.2245 26.0276 64.0366 25.1301C62.2229 24.7312 57.6722 24.2991 55.1331 24.1993C51.3409 24.0664 43.7895 24.0664 39.9973 24.1993C37.4581 24.2991 32.9405 24.7312 31.0938 25.1301C26.9389 26.0276 25.5539 27.7894 24.8614 29.3517C24.6306 30.0497 24.3338 30.6481 24.3338 31.3794C24.3338 31.3794 23.7402 35.601 28.4887 35.601H28.7855H66.3778H66.6087C71.3572 35.6342 70.7966 31.3794 70.7966 31.3794Z" fill="#FFEA9D" stroke="black" stroke-miterlimit="10"/>
<path d="M48.835 32.0775C54.9025 31.0138 57.1779 29.4514 59.0904 28.4542C64.4655 25.4958 70.4011 28.288 71.7861 29.9168V29.8836C75.0837 33.2742 83.5914 35.8005 92.6268 35.8005C102.025 35.8005 113.5 32.5761 124.448 30.8808C127.383 30.4154 130.351 31.047 132.857 32.5761C136.748 34.9362 144.629 37.8282 152.115 37.4293C156.6 37.1966 160.788 36.1994 163.525 33.4404C164.613 32.3434 166.031 31.6786 167.548 31.5789C179.485 30.8143 212.559 28.9196 212.559 28.9196C212.559 28.9196 217.572 29.8171 217.605 29.8171C218.693 30.216 226.673 33.2409 233.994 33.2409C238.511 33.2409 248.668 31.1467 251.867 30.5816C256.12 29.8171 265.947 29.5179 270.234 30.1163C272.344 30.4154 276.367 31.7451 277.093 32.144C277.95 32.6426 284.348 33.8392 284.15 27.5235C284.051 25.1301 283.919 24.0996 283.853 21.806C283.787 19.7451 283.919 15.7229 283.919 15.6232C283.919 15.6232 284.315 13.5622 284.15 10.5706C284.018 8.50961 284.084 6.44867 284.348 4.38773C284.48 3.35726 284.512 2.2603 284.249 1.46252C283.952 0.531772 281.446 -0.365735 281.446 1.32956C281.446 3.05809 280.786 5.68413 280.456 6.34895C280.094 7.08025 278.049 10.9694 275.609 15.6232C275.378 16.0553 275.147 16.4542 274.917 16.8863C273.301 19.8448 270.102 21.5068 266.772 21.1744C254.373 19.878 224.398 16.7534 219.715 16.4542C216.582 14.493 212.988 13.9279 210.911 13.9611C208.833 13.9944 188.355 8.87526 164.085 8.7423C157.193 5.38496 135.726 5.25199 125.833 6.1495C121.678 5.21875 109.082 5.85033 107.466 5.65088C92.4619 3.88911 79.4694 11.0027 75.2156 13.662C75.1496 13.6952 75.0837 13.7617 75.0177 13.7949C73.27 14.7257 67.3014 14.0941 64.3006 13.8947L64.3336 13.8282C64.6304 12.2991 64.7953 10.7035 64.7623 9.83925C64.7293 8.80878 63.74 7.64534 62.5859 7.47914C61.4977 7.31293 56.2875 7.14673 55.9578 7.14673C55.8918 6.8808 55.2653 4.15504 54.4409 4.65366C53.0559 5.4182 49.1318 7.11349 48.835 7.24645C48.0766 7.27969 45.6364 7.51238 44.8449 7.54562C36.9967 7.97775 33.6002 16.0221 35.1171 22.5373C36.634 29.0525 40.4921 33.5401 48.835 32.0775Z" fill="#C2D5FF"/>
<path d="M150.697 37.8282C143.871 37.8282 136.682 35.3351 132.659 32.9086C130.186 31.4127 127.284 30.8144 124.481 31.2465C120.854 31.8116 117.128 32.5429 113.533 33.2742C106.015 34.7701 98.925 36.1662 92.6266 36.1662C83.7891 36.1662 75.2154 33.7396 71.654 30.2825C71.5881 30.2493 71.5221 30.216 71.4892 30.1828C70.2031 28.6537 64.5313 25.9279 59.2881 28.7867C59.0243 28.9196 58.7935 29.0526 58.5297 29.1856C56.749 30.1828 54.2758 31.5124 48.9338 32.4432L48.8678 32.0775L48.9338 32.4432C41.3493 33.7396 36.6008 30.4487 34.7872 22.6371C33.8639 18.7146 34.7212 14.4266 36.9636 11.4016C38.8762 8.84207 41.6132 7.37947 44.8448 7.21326C45.1745 7.18002 45.834 7.14678 46.5265 7.0803C47.4169 7.01381 48.3072 6.91409 48.7689 6.91409C48.8678 6.88085 49.0327 6.81437 49.2305 6.71465C50.4177 6.18279 53.1876 4.98611 54.2758 4.38778C54.5067 4.25481 54.7375 4.25481 54.9683 4.35454C55.6608 4.6537 56.0895 6.04983 56.2873 6.84761C57.4415 6.88085 61.6624 7.04706 62.6517 7.18002C63.9377 7.37947 65.0919 8.64262 65.1578 9.90578C65.1908 10.7368 65.0259 12.1994 64.7951 13.6288C65.1248 13.662 65.4546 13.662 65.8173 13.6953C68.8511 13.9279 73.4677 14.2604 74.8527 13.5291L75.0505 13.3961C78.7768 11.036 92.1979 3.49027 107.565 5.31852C108.059 5.38501 109.675 5.35177 111.753 5.31852C116.237 5.25204 122.997 5.18556 125.932 5.81714C135.627 4.91963 157.16 5.01936 164.25 8.40994C182.881 8.50966 199.039 11.5014 206.789 12.9307C208.965 13.3296 210.548 13.6288 210.976 13.6288C211.009 13.6288 211.042 13.6288 211.108 13.6288C213.417 13.6288 216.879 14.2936 219.913 16.1551C224.859 16.5207 254.373 19.5789 266.87 20.8753C270.036 21.2077 273.103 19.6122 274.653 16.7867C274.883 16.3545 275.114 15.9556 275.345 15.5235C277.488 11.4349 279.83 7.01381 280.193 6.24927C280.522 5.58445 281.149 3.0249 281.149 1.39609C281.149 0.664785 281.545 0.16617 282.204 0.0664471C283.16 -0.0997579 284.413 0.598303 284.677 1.39609C284.908 2.16063 284.974 3.1911 284.809 4.4875C284.545 6.48196 284.479 8.5429 284.611 10.6038C284.776 13.4293 284.446 15.4238 284.38 15.723C284.38 15.7894 284.38 15.9224 284.38 16.1218C284.347 17.252 284.281 20.2105 284.314 21.8725C284.347 23.036 284.413 23.8338 284.446 24.698C284.512 25.5291 284.545 26.3933 284.611 27.5568C284.677 29.8171 283.985 31.3795 282.534 32.277C280.489 33.5069 277.653 32.8753 277.027 32.5097C276.367 32.1108 272.377 30.8144 270.3 30.5152C266.178 29.9169 256.45 30.1828 252.064 30.9473C251.537 31.0471 250.877 31.18 250.053 31.313C245.832 32.1108 237.951 33.6066 234.125 33.6066C229.542 33.6066 223.705 32.4099 217.736 30.216L217.638 30.1828C217.374 30.1496 216.45 29.9833 212.658 29.2853C211.273 29.3518 179.254 31.2133 167.679 31.9446C166.294 32.0443 164.942 32.6426 163.887 33.7063C161.414 36.1662 157.589 37.5291 152.214 37.8282C151.653 37.8282 151.159 37.8282 150.697 37.8282ZM126.295 30.349C128.636 30.349 130.977 31.0138 133.022 32.2437C137.243 34.8033 144.992 37.3961 152.082 37.0304C157.259 36.7645 160.919 35.4681 163.261 33.1412C164.448 31.9778 165.965 31.2465 167.547 31.1468C179.353 30.4155 212.23 28.5207 212.592 28.4875C212.625 28.4875 212.658 28.4875 212.691 28.4875C214.637 28.8199 217.539 29.3518 217.704 29.385C217.736 29.385 217.769 29.385 217.769 29.4182L217.901 29.4847C223.771 31.6454 229.509 32.8421 234.027 32.8421C237.786 32.8421 245.601 31.3462 249.822 30.5484C250.646 30.3822 251.339 30.2493 251.833 30.1828C256.318 29.385 266.145 29.1191 270.333 29.7174C272.377 30.0166 276.532 31.313 277.324 31.8116C277.785 32.0775 280.324 32.6426 282.072 31.5789C283.292 30.8476 283.853 29.4847 283.787 27.5235C283.754 26.3601 283.688 25.4958 283.622 24.6648C283.556 23.8005 283.523 22.9695 283.49 21.8061C283.424 20.1108 283.523 17.1523 283.556 16.0221C283.556 15.7894 283.556 15.6232 283.556 15.6232C283.556 15.59 283.556 15.5568 283.556 15.5568C283.556 15.5235 283.952 13.4958 283.754 10.6038C283.622 8.50966 283.688 6.41548 283.952 4.35454C284.117 3.15786 284.084 2.22711 283.853 1.59553C283.721 1.19664 282.798 0.664785 282.204 0.764508C282.006 0.797749 281.775 0.897472 281.775 1.36285C281.775 3.12462 281.116 5.81714 280.753 6.54844C280.423 7.2465 278.643 10.6371 275.873 15.8227C275.642 16.2548 275.411 16.6537 275.18 17.0858C273.498 20.1773 270.168 21.9058 266.672 21.5401C254.076 20.2105 224.299 17.1191 219.649 16.8199C219.583 16.8199 219.517 16.7867 219.484 16.7534C216.516 14.9252 213.021 14.2936 210.878 14.2936C210.35 14.2936 208.932 14.0277 206.558 13.5955C198.808 12.1662 182.65 9.17448 164.052 9.07476C163.986 9.07476 163.953 9.07476 163.887 9.04152C156.995 5.68418 135.462 5.58445 125.833 6.48196C125.8 6.48196 125.767 6.48196 125.734 6.48196C122.931 5.85038 116.171 5.9501 111.687 6.01659C109.51 6.04983 107.96 6.04983 107.4 6.01659C92.2639 4.22157 79.0736 11.6676 75.3803 13.9944L75.1824 14.1274C73.5666 14.9917 69.016 14.6592 65.7184 14.3933C65.1908 14.3601 64.6962 14.3268 64.2675 14.2936C64.1356 14.2936 64.0366 14.2271 63.9707 14.1274C63.9047 14.0277 63.9047 13.8947 63.9377 13.795V13.7617C64.2345 12.2991 64.3994 10.7036 64.3664 9.87254C64.3334 9.04152 63.542 8.01105 62.4868 7.87808C61.5964 7.74512 57.8042 7.61215 55.8916 7.54567C55.7268 7.54567 55.5619 7.41271 55.5289 7.2465C55.2321 5.88362 54.7705 5.01936 54.5726 4.98611C53.4185 5.61769 50.6485 6.84761 49.4284 7.37947C49.1316 7.51243 48.9667 7.57891 48.9008 7.61215C48.8678 7.64539 48.8019 7.64539 48.7689 7.64539C48.3402 7.64539 47.3509 7.74512 46.4936 7.8116C45.8011 7.87808 45.1416 7.91132 44.8118 7.94456C41.778 8.11077 39.2389 9.47365 37.4912 11.8338C35.3807 14.6925 34.5893 18.7479 35.4467 22.4709C37.1944 29.9169 41.5142 32.9418 48.7359 31.6786C53.9461 30.7811 56.3533 29.4515 58.101 28.4875C58.3648 28.3545 58.6286 28.1883 58.8595 28.0554C64.3004 25.0637 70.2361 27.7894 71.8519 29.4847C71.8849 29.518 71.9508 29.518 71.9838 29.5845C75.3143 33.0083 83.7561 35.4016 92.5606 35.4016C98.7931 35.4016 105.85 34.0055 113.335 32.5097C116.963 31.7784 120.689 31.0471 124.316 30.482C125.009 30.4155 125.635 30.349 126.295 30.349Z" fill="black"/>
<path d="M83.6245 31.9446C88.3071 31.8116 115.908 30.0498 118.018 30.4155C120.162 30.8144 125.735 31.1468 129.593 31.1468C133.451 31.1468 155.709 30.1163 156.666 30.2825L157.655 30.3158C158.018 30.482 159.04 30.9473 159.502 31.2133C160.722 31.9113 164.25 32.4764 165.701 32.5761C168.438 32.7423 171.802 32.0443 172.923 31.3795C174.011 31.6122 175.264 31.8448 176.154 31.8116C177.012 32.144 179.353 32.8421 179.353 32.8421C179.353 32.8421 182.189 34.1052 183.508 33.9058C183.772 33.8725 184.168 33.5401 184.233 33.3074C184.926 33.5069 185.651 33.6731 186.146 33.5734C186.872 33.4737 187.135 33.1412 187.168 32.9086C187.465 32.8088 187.795 32.5761 187.894 32.2437C188.125 31.4127 184.102 30.5484 184.102 30.5484C184.102 30.5484 182.387 29.9833 180.013 29.3185C178.726 28.9529 177.638 28.6537 176.715 28.3878C175.396 27.8892 174.176 27.3573 173.483 27.1246C172.626 26.7922 164.415 25.6953 159.436 24.1994C157.424 23.9667 153.896 23.867 150.862 23.6676C148.356 23.2354 124.646 21.4072 120.491 21.0415C116.369 20.6759 95.232 19.8116 91.2089 19.0803C87.1859 18.349 86.5923 17.385 86.5923 17.385L83.6245 31.9446Z" fill="#C2D5FF"/>
<path d="M183.244 34.338C181.826 34.338 179.518 33.3408 179.254 33.2411C178.99 33.1746 176.979 32.543 176.121 32.2438C175.264 32.2438 174.209 32.0776 173.022 31.8117C171.736 32.5098 168.438 33.1413 165.701 32.9751C164.217 32.9087 160.623 32.3103 159.337 31.579C158.941 31.3463 157.985 30.9142 157.589 30.748L156.699 30.7148C156.666 30.7148 156.666 30.7148 156.633 30.7148C156.105 30.615 149.081 30.9142 142.882 31.1469C137.309 31.3796 131.505 31.579 129.659 31.579H129.626C125.603 31.579 120.063 31.2134 117.985 30.8145C116.567 30.5485 102.75 31.3131 93.5831 31.8117C89.0654 32.0776 85.1413 32.2771 83.6574 32.3103C83.4266 32.3103 83.2947 32.1441 83.2617 31.9447C83.2617 31.7452 83.4266 31.579 83.6245 31.5458C85.1084 31.5125 89.0325 31.2799 93.5501 31.0472C106.18 30.3491 116.732 29.784 118.117 30.0499C120.162 30.4156 125.636 30.7812 129.626 30.7812H129.659C131.505 30.7812 137.243 30.5486 142.849 30.3491C150.994 30.0167 156.039 29.8505 156.732 29.917L157.688 29.9502C157.721 29.9502 157.787 29.9502 157.82 29.9835C158.216 30.1497 159.238 30.615 159.699 30.881C160.821 31.5458 164.316 32.1109 165.734 32.1774C168.372 32.3103 171.67 31.6787 172.758 31.0472C172.824 31.0139 172.923 30.9807 173.022 31.0139C173.978 31.2134 175.264 31.4793 176.154 31.4461C176.187 31.4461 176.253 31.4461 176.286 31.4793C177.144 31.8117 179.452 32.5098 179.485 32.5098H179.518C180.276 32.8422 182.453 33.7064 183.475 33.5402C183.574 33.507 183.838 33.3076 183.904 33.2078C183.97 33.0084 184.167 32.9087 184.365 32.9751C185.322 33.2743 185.849 33.2743 186.113 33.2411C186.674 33.1746 186.805 32.9419 186.838 32.8754C186.871 32.7425 186.937 32.6427 187.069 32.5763C187.267 32.5098 187.498 32.3768 187.564 32.1774C187.333 31.8449 185.75 31.2799 184.068 30.9142H184.035C184.003 30.9142 182.288 30.3491 179.979 29.6843C179.386 29.5181 178.792 29.3519 178.298 29.1857C177.704 29.0195 177.177 28.8533 176.682 28.7203C175.923 28.4211 175.231 28.1552 174.637 27.9225C174.176 27.7231 173.747 27.5569 173.45 27.4571C173.186 27.3574 171.933 27.158 170.515 26.892C167.416 26.3602 162.766 25.5292 159.469 24.5319C158.281 24.399 156.567 24.2992 154.753 24.2328C153.5 24.1663 152.181 24.0998 150.961 24.0333H150.928C149.081 23.7341 135.165 22.604 126.889 21.9391C123.987 21.7064 121.645 21.507 120.623 21.4405C119.238 21.3076 115.842 21.1413 111.951 20.9419C103.97 20.5098 94.0118 19.9779 91.3078 19.4793C87.3177 18.748 86.5593 17.784 86.4274 17.6178C86.3285 17.4516 86.3614 17.2189 86.5593 17.0859C86.7242 16.9862 86.955 17.0195 87.0869 17.2189C87.0869 17.2189 87.7794 18.0832 91.4727 18.748C94.1107 19.2466 104.465 19.7785 112.017 20.2106C115.941 20.41 119.304 20.6095 120.722 20.7092C121.777 20.8089 124.086 20.9751 126.988 21.2078C135.825 21.9059 149.147 23.0028 151.093 23.3353C152.313 23.435 153.599 23.5015 154.852 23.5347C156.699 23.6344 158.446 23.7009 159.666 23.8671C159.699 23.8671 159.699 23.8671 159.732 23.8671C162.997 24.8643 167.647 25.6621 170.713 26.2272C172.527 26.5264 173.483 26.7258 173.78 26.8256C174.077 26.9585 174.506 27.1247 175 27.2909C175.594 27.5236 176.286 27.8228 177.012 28.0887C177.473 28.2217 178.001 28.3546 178.595 28.5209C179.122 28.6538 179.683 28.82 180.309 29.0195C182.519 29.651 184.2 30.1829 184.365 30.2494C185.19 30.4156 187.861 31.0804 188.355 31.8782C188.487 32.1109 188.454 32.2771 188.421 32.41C188.322 32.7757 188.026 33.0749 187.63 33.2743C187.498 33.5402 187.201 33.9059 186.344 34.0389C185.882 34.1053 185.289 34.0389 184.53 33.8394C184.299 34.1053 183.97 34.3048 183.706 34.3713C183.475 34.338 183.343 34.338 183.244 34.338Z" fill="black"/>
<path d="M184.233 33.7396C184.2 33.7396 184.167 33.7396 184.134 33.7396C183.969 33.7063 183.871 33.5734 183.838 33.4072C183.541 33.0415 181.529 31.9778 179.782 31.1468C179.584 31.0803 177.869 30.482 175.693 29.8504C173.45 29.1856 173.055 29.0858 171.834 28.6205C171.637 28.554 171.538 28.3213 171.604 28.1218C171.67 27.9224 171.9 27.8227 172.098 27.8892C173.252 28.3213 173.582 28.421 175.89 29.0858C178.232 29.7507 180.012 30.3822 180.045 30.3822H180.078C184.761 32.5429 184.629 33.0748 184.563 33.3739C184.563 33.6066 184.398 33.7396 184.233 33.7396Z" fill="black"/>
<path d="M187.201 33.3407C187.168 33.3407 187.168 33.3407 187.135 33.3407C187.003 33.3075 186.871 33.2078 186.838 33.0748C186.476 32.7091 184.101 31.4792 183.244 31.2465C182.749 31.1136 181.529 30.5817 180.375 30.0831C179.518 29.7175 178.496 29.2521 178.232 29.1856C178.067 29.1856 177.902 29.0526 177.869 28.8864C177.836 28.687 177.968 28.4875 178.166 28.4543C178.397 28.4211 178.693 28.5208 180.672 29.4183C181.76 29.8837 182.98 30.4488 183.409 30.5485C183.772 30.6482 187.663 32.2105 187.564 33.0416C187.531 33.2078 187.366 33.3407 187.201 33.3407Z" fill="black"/>
<path d="M50.6814 24.4321C49.2964 24.4321 48.1422 23.9002 47.7465 22.9695C47.3179 21.9722 47.7795 20.7756 48.9666 19.8116C49.1315 19.6786 49.3623 19.7119 49.4943 19.8781C49.6262 20.0443 49.5932 20.277 49.4283 20.4099C48.538 21.1412 48.1422 22.0387 48.439 22.7035C48.9007 23.7673 50.8792 24.0332 52.7259 23.3351C53.946 22.8697 54.9352 22.072 55.265 21.2409C55.4299 20.842 55.4299 20.4764 55.298 20.1772C55.232 20.0443 55.1331 19.8781 55.0012 19.7783C54.8363 19.6454 54.8363 19.4127 55.0012 19.2465C55.1331 19.0803 55.3639 19.0803 55.5288 19.2465C55.7267 19.4459 55.8915 19.6454 55.9905 19.8781C56.2213 20.3767 56.1883 20.975 55.9575 21.5401C55.5288 22.5706 54.4076 23.5013 52.9897 24.0664C52.1983 24.2991 51.4068 24.4321 50.6814 24.4321Z" fill="black"/>
</g>
<defs>
<clipPath id="clip0_139_917">
<rect width="307" height="60" fill="white"/>
</clipPath>
</defs>
</svg>
