<svg width="294" height="97" viewBox="0 0 294 97" fill="none" xmlns="http://www.w3.org/2000/svg">
<g clip-path="url(#clip0_139_923)">
<path d="M286.994 57.0584H6.67772C3.81836 57.0584 1.48486 54.716 1.48486 51.8456V33.4691C1.48486 30.5988 3.81836 28.2563 6.67772 28.2563H286.994C289.853 28.2563 292.186 30.5988 292.186 33.4691V51.8456C292.186 54.716 289.853 57.0584 286.994 57.0584Z" fill="#4B80FB" stroke="black" stroke-miterlimit="10"/>
<path d="M23.1382 29.033V57.835" stroke="black" stroke-miterlimit="10"/>
<path d="M44.2383 29.033V57.835" stroke="black" stroke-miterlimit="10"/>
<path d="M70.7939 37.4128V57.8349" stroke="black" stroke-miterlimit="10"/>
<path d="M95.5093 37.4128V57.8349" stroke="black" stroke-miterlimit="10"/>
<path d="M121.54 36.1262V57.835" stroke="black" stroke-miterlimit="10"/>
<path d="M145.499 39.8542V57.8349" stroke="black" stroke-miterlimit="10"/>
<path d="M174.75 35.1365V57.835" stroke="black" stroke-miterlimit="10"/>
<path d="M207.254 34.4106V57.835" stroke="black" stroke-miterlimit="10"/>
<path d="M240.91 32.8928V57.8348" stroke="black" stroke-miterlimit="10"/>
<path d="M270.883 34.4106V57.835" stroke="black" stroke-miterlimit="10"/>
<path d="M61.4201 27.1193V27.1542L61.4247 27.1872L61.4247 27.1873L61.4248 27.1878L61.4248 27.1882L61.4249 27.1887L61.4253 27.1918C61.4259 27.1967 61.4269 27.2053 61.4281 27.2174C61.4306 27.2417 61.434 27.2799 61.4369 27.3298C61.4427 27.43 61.4466 27.5765 61.4376 27.7533C61.4196 28.1101 61.3502 28.5735 61.1532 29.0277C60.9585 29.4768 60.6401 29.9159 60.1154 30.2449C59.5888 30.5751 58.8184 30.817 57.6837 30.8093H57.6803H57.4503H19.9828H19.7527C18.644 30.8093 17.8927 30.5645 17.3797 30.2342C16.8681 29.9048 16.5575 29.4672 16.3678 29.0193C16.1759 28.5664 16.1092 28.1052 16.0925 27.7505C16.0842 27.5746 16.0884 27.4291 16.0945 27.3295C16.0975 27.2799 16.1009 27.242 16.1034 27.2178C16.1047 27.2058 16.1057 27.1972 16.1063 27.1923L16.1068 27.1883L16.1068 27.188L16.1068 27.1879C16.1069 27.1876 16.1069 27.1876 16.1068 27.1878L16.1116 27.1544V27.1193C16.1116 26.6553 16.2481 26.2804 16.4251 25.7943C16.4817 25.6391 16.5423 25.4726 16.604 25.2883C16.9241 24.5752 17.3961 23.8318 18.2572 23.1582C19.1322 22.4737 20.4374 21.8395 22.4543 21.4056C24.2525 21.0188 28.7205 20.5913 31.2415 20.4927C35.0095 20.3612 42.5221 20.3612 46.2901 20.4927C48.8122 20.5914 53.3117 21.0189 55.0755 21.4052L55.0781 21.4058C57.1104 21.8395 58.4232 22.4817 59.298 23.1697C60.161 23.8486 60.6246 24.5931 60.9283 25.2892C60.9816 25.4413 61.0343 25.5821 61.0843 25.7157C61.2711 26.2146 61.4201 26.6125 61.4201 27.1193Z" fill="#FFEA9D" stroke="black" stroke-miterlimit="10"/>
<path d="M275.254 20.9828C277.325 21.7416 279.888 22.0056 282.55 25.8986C286.199 25.8986 287.48 28.9339 285.574 29.3298C285.574 29.3298 282.518 29.4288 281.499 29.1979C280.71 28.9999 274.104 28.373 268.911 28.8679C265.624 29.1979 260.234 29.1649 260.201 29.1979C259.215 30.1546 209.587 27.2513 203.672 27.4493C201.305 28.67 195.817 28.67 193.746 28.571C191.675 28.472 169.721 29.8247 145.531 29.0659C145.038 29.0659 107.374 28.9669 107.374 28.9669C107.374 28.9669 90.7104 30.5175 89.1328 30.8145C79.8645 32.4641 63.8258 24.7769 57.3183 21.6097L46.0781 22.7314C47.6228 21.5767 39.2419 9.1057 39.6691 9.46861C43.1858 10.6233 56.8253 6.79626 56.8253 6.79626C56.8253 6.79626 64.3845 0.560763 74.0472 1.31958C97.1522 3.10115 98.5654 4.61878 107.636 6.53232C110.562 7.15917 113.618 6.69728 116.247 5.21264C120.191 3.00217 125.746 -0.165061 135.08 0.428795C139.55 0.692732 144.282 2.60627 146.912 5.44358C147.963 6.56531 149.344 7.29114 150.856 7.42311C162.687 8.57783 196.375 14.8133 196.375 14.8133C196.375 14.8133 201.371 14.6484 201.404 14.6484C202.521 14.2855 214.813 12.8008 217.804 12.8008C226.776 12.8008 232.462 16.9908 235.519 18.1125C238.543 19.2013 246.858 20.356 251.722 20.9828C253.793 21.2468 255.863 20.389 257.145 18.7394C259.117 16.166 262.403 13.0318 265.46 15.6711C267.268 17.2217 268.319 18.1455 270.028 19.6302C271.507 20.9828 273.742 20.455 275.254 20.9828Z" fill="#C2D5FF"/>
<path d="M189.079 29.0659L189.069 28.8029C189.035 28.8042 189 28.8054 188.966 28.8067L188.966 28.8067L188.809 28.8124C180.617 29.1109 163.767 29.7248 145.638 29.1734C145.635 29.1734 145.632 29.1733 145.63 29.1732C145.594 29.1721 145.559 29.171 145.523 29.1699C145.243 29.1697 140.452 29.1568 134.352 29.1405C131.985 29.1342 129.42 29.1273 126.845 29.1205C117.927 29.0967 108.889 29.0729 107.505 29.0711C107.495 29.0711 107.486 29.0711 107.478 29.0711C107.434 29.071 107.399 29.071 107.373 29.071H107.365C107.236 29.0836 106.842 29.1207 106.253 29.1761C104.664 29.3257 101.656 29.6087 98.5972 29.9058C94.4429 30.3092 90.2329 30.7351 89.255 30.8934L89.297 31.1444C90.5384 30.9322 101.14 29.9318 105.58 29.5128C106.665 29.4104 107.382 29.3427 107.505 29.3298C108.106 29.3298 121.087 29.3642 131.738 29.3925C139.146 29.4121 145.427 29.4288 145.63 29.4288C163.821 29.9861 180.715 29.3706 188.924 29.0715L189.079 29.0659ZM189.079 29.0659L189.069 28.8029L260.333 29.5607C258.722 29.9896 249.388 29.6927 226.152 28.637C215.996 28.1751 206.366 27.7462 203.869 27.8122C201.174 29.1337 195.058 28.9665 193.994 28.9374C193.916 28.9353 193.865 28.9339 193.844 28.9339M189.079 29.0659L189.37 29.0548C191.8 28.962 193.37 28.9021 193.844 28.9339M193.844 28.9339V28.6793L269.042 29.2638L269.018 29.0267C268.988 29.0296 268.957 29.0326 268.927 29.0355L268.921 29.0361C266.294 29.2641 262.442 29.3321 260.859 29.3348C260.825 29.3349 260.792 29.3349 260.76 29.3349C260.557 29.3349 260.424 29.3351 260.333 29.3367C260.311 29.3371 260.291 29.3376 260.273 29.3382C260.25 29.339 260.23 29.34 260.212 29.3413L260.192 29.3548L260.127 29.3762C259.978 29.4248 259.769 29.4518 259.552 29.4709C259.32 29.4912 259.029 29.5061 258.687 29.5165C258.001 29.5372 257.091 29.5403 256.002 29.5292C253.823 29.507 250.911 29.4274 247.617 29.314C241.07 29.0885 233.003 28.7286 226.162 28.4166C226.118 28.4146 226.074 28.4126 226.031 28.4106L226.03 28.4106C215.562 27.9286 206.534 27.5425 203.863 27.5818C203.826 27.5823 203.791 27.583 203.757 27.5837C203.723 27.5843 203.69 27.5851 203.659 27.586C202.488 28.1666 200.595 28.4528 198.758 28.5912C196.942 28.728 195.095 28.7252 193.861 28.6799L193.844 28.9339ZM116.412 5.57553C113.717 7.09316 110.561 7.58804 107.538 6.9282C105.838 6.56458 104.398 6.20096 103.038 5.85744C102.794 5.79578 102.552 5.73476 102.312 5.67451L102.187 5.64322C96.6846 4.27044 91.824 3.0577 74.0142 1.68247C64.9418 0.98192 57.6757 6.61269 57.0921 7.06497C57.071 7.08129 57.0587 7.09087 57.0553 7.09316L116.412 5.57553ZM146.649 5.74049C144.118 3.03515 139.582 1.12161 135.047 0.824679C125.844 0.263815 120.421 3.29908 116.477 5.54254L146.649 5.74049ZM39.7546 9.38981C39.7547 9.38984 39.755 9.3911 39.7555 9.39348C39.7548 9.39096 39.7545 9.38977 39.7546 9.38981Z" fill="black" stroke="black"/>
<path d="M104.251 22.4014C106.913 23.6881 110.923 26.2284 109.575 28.9008C109.575 28.9008 105.434 31.2762 102.115 31.9361C99.2553 32.4969 94.8184 32.8269 92.6821 32.8269C89.2968 32.8598 68.9198 30.6164 68.0981 30.7813L67.2436 30.8143C66.915 30.9463 66.0276 31.3752 65.6332 31.6061C64.5815 32.233 61.4592 32.7279 60.1774 32.8269C57.7781 32.9588 54.7873 32.398 53.8013 31.8041C52.8482 32.0021 51.7636 32.233 50.9748 32.2C50.2189 32.4969 48.1483 33.1238 48.1483 33.1238C48.1483 33.1238 45.6834 34.2455 44.5002 34.0806C44.2701 34.0476 43.9415 33.7506 43.8757 33.5527C43.2841 33.7506 42.6268 33.8826 42.1996 33.8166C41.5751 33.7176 41.345 33.4537 41.2793 33.2228C41.0164 33.1238 40.7206 32.9258 40.622 32.6289C40.4248 31.9031 43.8429 30.7813 43.8429 30.7813C43.8429 30.7813 45.0261 30.1875 47.0966 29.5606C48.2469 29.2307 49.2001 28.9668 49.9889 28.7028C51.172 28.241 52.651 28.241 53.2426 28.01C53.9985 27.7131 61.1962 26.7233 65.6003 25.3707C67.3422 25.1727 70.4974 25.0737 73.1267 24.8758C75.0658 24.5459 86.2403 24.117 95.0813 23.853L104.251 22.4014Z" fill="#C2D5FF"/>
<path d="M44.7631 34.4764C44.6645 34.4764 44.5659 34.4764 44.4673 34.4434C44.2372 34.4104 43.9414 34.2125 43.7114 33.9816C43.054 34.1795 42.5282 34.2455 42.1338 34.1795C41.4107 34.0805 41.1149 33.7506 40.9835 33.4867C40.6219 33.3217 40.359 33.0578 40.2604 32.7279C40.0632 32.002 41.2135 31.2432 43.7114 30.4184C43.9086 30.3194 45.0589 29.7586 46.998 29.1977C47.5238 29.0327 48.0168 28.9008 48.477 28.7688C49.0028 28.6038 49.4629 28.4719 49.8902 28.3729C50.5804 28.109 51.4021 27.977 52.0922 27.878C52.5195 27.812 52.9139 27.7461 53.144 27.6801C53.4069 27.5811 54.2285 27.4161 55.8719 27.1192C58.5669 26.6243 62.6423 25.8985 65.5017 25.0077C65.5345 25.0077 65.5345 25.0077 65.5674 25.0077C66.6191 24.8757 68.1638 24.8098 69.7743 24.7108C70.8917 24.6448 72.0092 24.5788 73.0937 24.5128C75 24.1829 85.4843 23.754 95.0812 23.4901C95.2784 23.4901 95.4428 23.655 95.4756 23.853C95.4756 24.051 95.3113 24.2159 95.1141 24.2489C85.5172 24.5458 75.0329 24.9747 73.2252 25.2717H73.1923C72.1078 25.3376 70.9574 25.4036 69.84 25.4696C68.2296 25.5686 66.7177 25.6346 65.6989 25.7665C62.8066 26.6573 58.6983 27.4161 56.0033 27.878C54.7215 28.109 53.637 28.3069 53.4069 28.3729C53.1111 28.4719 52.6838 28.5379 52.1908 28.6038C51.5335 28.7028 50.7776 28.8018 50.1203 29.0657C49.6601 29.1977 49.2 29.3297 48.6742 29.4946C48.214 29.6266 47.721 29.7586 47.1952 29.9235C45.1903 30.5174 44.04 31.1112 44.0072 31.1112C43.9743 31.1112 43.9743 31.1442 43.9414 31.1442C42.4953 31.6061 41.1478 32.266 40.9835 32.5629C41.0492 32.7279 41.2464 32.8268 41.3779 32.8598C41.5093 32.8928 41.6079 33.0248 41.6079 33.1567C41.6079 33.1897 41.7394 33.3877 42.1995 33.4537C42.4296 33.4867 42.8897 33.4867 43.7114 33.2227C43.9086 33.1567 44.1058 33.2557 44.1715 33.4537C44.2044 33.5197 44.4016 33.6846 44.5002 33.7176C45.3547 33.8496 47.2938 33.0908 47.9511 32.7938C47.9511 32.7938 47.984 32.7938 47.984 32.7608C48.0168 32.7608 50.0545 32.134 50.7776 31.8371C50.8105 31.8041 50.8762 31.8041 50.9091 31.8041C51.6978 31.8371 52.8153 31.5731 53.6698 31.4082C53.7684 31.3752 53.867 31.4082 53.9328 31.4412C54.853 32.002 57.811 32.5629 60.0787 32.4309C61.3276 32.3649 64.3842 31.8371 65.3702 31.2762C65.7646 31.0453 66.652 30.6494 67.0135 30.4844C67.0464 30.4514 67.1121 30.4514 67.145 30.4514L67.9995 30.4184C68.5253 30.3524 71.319 30.6164 77.8922 31.2432C83.8739 31.8041 90.6772 32.4639 92.5834 32.4639C92.6163 32.4639 92.6163 32.4639 92.6491 32.4639C94.7854 32.4639 99.2224 32.134 102.016 31.5731C104.941 30.9793 108.622 28.9998 109.279 28.6368C109.509 28.142 109.51 27.6471 109.345 27.1192C108.655 25.1397 105.434 23.3911 104.087 22.7643C95.9029 18.8382 90.973 16.6607 89.0339 16.1329C86.6346 15.44 82.6907 13.1306 79.5684 11.283C77.9251 10.3263 76.0846 9.23753 75.6902 9.17154C75.493 9.20454 75.3287 9.07257 75.2958 8.87462C75.2629 8.67666 75.3615 8.47871 75.5916 8.41273C75.986 8.31375 76.8405 8.77564 79.9628 10.6232C82.9207 12.3388 86.9304 14.7142 89.2639 15.374C91.2359 15.9349 96.1987 18.1124 104.448 22.0714C106.256 22.9292 109.345 24.6778 110.101 26.8553C110.364 27.6141 110.298 28.3399 109.97 29.0657C109.937 29.1317 109.871 29.1977 109.805 29.2307C109.641 29.3297 105.566 31.6391 102.213 32.299C99.2224 32.8928 94.7854 33.1897 92.682 33.1897C92.6491 33.1897 92.6491 33.1897 92.6163 33.1897C90.6772 33.1897 83.8739 32.5299 77.8593 31.969C73.2909 31.5401 68.5911 31.0783 68.131 31.1442H68.0981L67.3093 31.1772C66.9806 31.3422 66.159 31.7051 65.7975 31.9031C64.6471 32.5629 61.492 33.0908 60.1773 33.1567C57.7781 33.2887 54.8859 32.7608 53.7356 32.134C52.9139 32.299 51.8293 32.5299 51.0405 32.5299C50.2846 32.8268 48.5098 33.3547 48.2798 33.4207C47.9511 33.6186 46.012 34.4764 44.7631 34.4764Z" fill="black"/>
<path d="M77.8921 24.645C77.8592 24.645 77.8263 24.645 77.7935 24.645C77.2019 24.513 76.0844 24.447 74.8026 24.3481C71.6475 24.1501 67.3091 23.8862 64.877 22.2696C64.7127 22.1706 64.647 21.9396 64.7784 21.7417C64.877 21.5767 65.1071 21.5107 65.3043 21.6427C67.6049 23.1603 71.8118 23.4243 74.8684 23.5892C76.2487 23.6882 77.3333 23.7542 77.9907 23.8862C78.1878 23.9192 78.3193 24.1501 78.2536 24.3481C78.2207 24.513 78.0564 24.645 77.8921 24.645Z" fill="black"/>
<path d="M43.8758 33.9486C43.7772 33.9486 43.6786 33.9156 43.6129 33.8496C43.5143 33.7506 43.4814 33.6187 43.4814 33.4537C43.5143 33.2888 43.58 32.7939 47.1953 30.9793C47.1953 30.9793 47.2282 30.9793 47.2282 30.9463C47.2282 30.9463 48.8386 30.3855 50.8763 29.7586C52.9141 29.1648 53.5056 28.9338 54.5245 28.5709C54.7217 28.5049 54.9189 28.6039 55.0175 28.8018C55.0832 28.9998 54.9846 29.1977 54.7874 29.2967C53.7686 29.6926 53.1441 29.8906 51.1064 30.5174C49.2002 31.0783 47.7212 31.6062 47.524 31.6721C46.1765 32.365 44.5989 33.2558 44.2702 33.6187C44.2702 33.7176 44.2374 33.8166 44.1716 33.8826C44.073 33.9156 43.9744 33.9486 43.8758 33.9486Z" fill="black"/>
<path d="M41.2794 33.6189C41.0822 33.6189 40.9507 33.4869 40.9178 33.2889C40.8192 32.5301 43.9087 31.1445 44.3031 31.0455C44.6646 30.9465 46.6366 30.1547 48.3785 29.4619C52.6182 27.7463 52.6839 27.7463 52.8811 27.7793C53.0783 27.8123 53.2098 28.0102 53.1769 28.2082C53.1441 28.3731 52.9797 28.5051 52.8154 28.5051C52.4868 28.5711 50.3504 29.4289 48.6743 30.1217C46.7352 30.9135 44.9275 31.6393 44.5003 31.7383C43.7772 31.9363 41.9367 32.992 41.6409 33.3219C41.608 33.4539 41.4766 33.5529 41.3451 33.5859C41.3122 33.6189 41.2794 33.6189 41.2794 33.6189Z" fill="black"/>
<path d="M32.5042 5.24548C26.8184 5.47642 21.0339 9.86436 21.1982 15.7369C21.4283 24.2489 25.5366 27.779 31.6168 28.6038C32.9315 28.8018 36.5468 28.3069 36.5468 28.3069C36.5468 28.3069 41.5096 28.142 43.0214 27.878C46.2423 27.3172 52.1254 24.7768 52.0925 21.3126C52.0596 16.4298 47.9513 11.1181 45.1577 8.97358C43.3829 7.58791 40.7865 4.91556 32.5042 5.24548Z" fill="#C2D5FF"/>
<path d="M44.9282 9.3036C47.7547 11.4481 51.6986 16.5948 51.7315 21.3457L44.9282 9.3036ZM44.9282 9.3036C44.7968 9.20467 44.6326 9.07278 44.4683 8.94087M44.9282 9.3036L44.4683 8.94087M44.4681 8.94069L44.6415 8.72478L44.4681 8.94069ZM44.4681 8.94069L44.4683 8.94087M44.4681 8.94069L44.4683 8.94087" fill="black" stroke="black"/>
<path d="M42.2333 12.8339C42.1347 12.8339 42.0032 12.8009 41.9375 12.7019C41.806 12.537 41.8389 12.306 42.0032 12.174C42.1347 12.0751 42.2333 11.9431 42.3319 11.7781C42.4962 11.4812 42.4962 11.1183 42.3647 10.7224C42.0689 9.8646 41.1487 9.00681 39.9655 8.47894C38.1579 7.65414 36.1859 7.8191 35.66 8.80886C35.3314 9.43571 35.66 10.3265 36.5145 11.1513C36.6789 11.2833 36.6789 11.5142 36.5474 11.6792C36.4159 11.8441 36.1859 11.8441 36.0216 11.7122C34.9041 10.6894 34.5426 9.43571 35.0356 8.47894C35.7586 7.09327 38.0921 6.79634 40.327 7.8191C41.7074 8.44594 42.7591 9.4687 43.1207 10.5244C43.3179 11.1183 43.285 11.6792 43.0549 12.174C42.9235 12.405 42.7591 12.6029 42.5619 12.7679C42.3976 12.8009 42.299 12.8339 42.2333 12.8339Z" fill="black"/>
</g>
<path d="M112.371 91V78.1152H114.12L120.888 88.2314V78.1152H122.522V91H120.773L114.006 80.875V91H112.371ZM131.285 89.8486C130.699 90.3467 130.134 90.6982 129.589 90.9033C129.05 91.1084 128.47 91.2109 127.849 91.2109C126.823 91.2109 126.035 90.9619 125.484 90.4639C124.934 89.96 124.658 89.3184 124.658 88.5391C124.658 88.082 124.761 87.666 124.966 87.291C125.177 86.9102 125.449 86.6055 125.783 86.377C126.123 86.1484 126.504 85.9756 126.926 85.8584C127.236 85.7764 127.705 85.6973 128.332 85.6211C129.609 85.4688 130.55 85.2871 131.153 85.0762C131.159 84.8594 131.162 84.7217 131.162 84.6631C131.162 84.0186 131.013 83.5645 130.714 83.3008C130.31 82.9434 129.709 82.7646 128.912 82.7646C128.168 82.7646 127.617 82.8965 127.26 83.1602C126.908 83.418 126.647 83.8779 126.478 84.54L124.931 84.3291C125.071 83.667 125.303 83.1338 125.625 82.7295C125.947 82.3193 126.413 82.0059 127.022 81.7891C127.632 81.5664 128.338 81.4551 129.141 81.4551C129.938 81.4551 130.585 81.5488 131.083 81.7363C131.581 81.9238 131.947 82.1611 132.182 82.4482C132.416 82.7295 132.58 83.0869 132.674 83.5205C132.727 83.79 132.753 84.2764 132.753 84.9795V87.0889C132.753 88.5596 132.785 89.4912 132.85 89.8838C132.92 90.2705 133.055 90.6426 133.254 91H131.602C131.438 90.6719 131.332 90.2881 131.285 89.8486ZM131.153 86.3154C130.579 86.5498 129.718 86.749 128.569 86.9131C127.919 87.0068 127.459 87.1123 127.189 87.2295C126.92 87.3467 126.712 87.5195 126.565 87.748C126.419 87.9707 126.346 88.2197 126.346 88.4951C126.346 88.917 126.504 89.2686 126.82 89.5498C127.143 89.8311 127.611 89.9717 128.227 89.9717C128.836 89.9717 129.378 89.8398 129.853 89.5762C130.327 89.3066 130.676 88.9404 130.898 88.4775C131.068 88.1201 131.153 87.5928 131.153 86.8955V86.3154ZM130.679 78.1328H131.76C131.672 78.8652 131.402 79.4277 130.951 79.8203C130.506 80.2129 129.911 80.4092 129.167 80.4092C128.417 80.4092 127.816 80.2158 127.365 79.8291C126.92 79.4365 126.653 78.8711 126.565 78.1328H127.646C127.729 78.5312 127.89 78.8301 128.13 79.0293C128.376 79.2227 128.704 79.3193 129.114 79.3193C129.589 79.3193 129.946 79.2256 130.187 79.0381C130.433 78.8447 130.597 78.543 130.679 78.1328ZM130.178 77.4033H128.903L126.873 74.9424H128.991L130.178 77.4033ZM135.214 91V81.666H136.629V82.9756C136.922 82.5186 137.312 82.1523 137.798 81.877C138.284 81.5957 138.838 81.4551 139.459 81.4551C140.15 81.4551 140.716 81.5986 141.155 81.8857C141.601 82.1729 141.914 82.5742 142.096 83.0898C142.834 82 143.795 81.4551 144.979 81.4551C145.904 81.4551 146.616 81.7129 147.114 82.2285C147.612 82.7383 147.861 83.5264 147.861 84.5928V91H146.288V85.1201C146.288 84.4873 146.235 84.0332 146.13 83.7578C146.03 83.4766 145.846 83.251 145.576 83.0811C145.307 82.9111 144.99 82.8262 144.627 82.8262C143.971 82.8262 143.426 83.0459 142.992 83.4854C142.559 83.9189 142.342 84.6162 142.342 85.5771V91H140.76V84.9355C140.76 84.2324 140.631 83.7051 140.373 83.3535C140.115 83.002 139.693 82.8262 139.107 82.8262C138.662 82.8262 138.249 82.9434 137.868 83.1777C137.493 83.4121 137.221 83.7549 137.051 84.2061C136.881 84.6572 136.796 85.3076 136.796 86.1572V91H135.214ZM154.585 88.2139L156.149 87.9678C156.237 88.5947 156.48 89.0752 156.879 89.4092C157.283 89.7432 157.846 89.9102 158.566 89.9102C159.293 89.9102 159.832 89.7637 160.184 89.4707C160.535 89.1719 160.711 88.8232 160.711 88.4248C160.711 88.0674 160.556 87.7861 160.245 87.5811C160.028 87.4404 159.489 87.2617 158.628 87.0449C157.468 86.752 156.662 86.5 156.211 86.2891C155.766 86.0723 155.426 85.7764 155.191 85.4014C154.963 85.0205 154.849 84.6016 154.849 84.1445C154.849 83.7285 154.942 83.3447 155.13 82.9932C155.323 82.6357 155.584 82.3398 155.912 82.1055C156.158 81.9238 156.492 81.7715 156.914 81.6484C157.342 81.5195 157.799 81.4551 158.285 81.4551C159.018 81.4551 159.659 81.5605 160.21 81.7715C160.767 81.9824 161.177 82.2695 161.44 82.6328C161.704 82.9902 161.886 83.4707 161.985 84.0742L160.438 84.2852C160.368 83.8047 160.163 83.4297 159.823 83.1602C159.489 82.8906 159.015 82.7559 158.399 82.7559C157.673 82.7559 157.154 82.876 156.844 83.1162C156.533 83.3564 156.378 83.6377 156.378 83.96C156.378 84.165 156.442 84.3496 156.571 84.5137C156.7 84.6836 156.902 84.8242 157.178 84.9355C157.336 84.9941 157.802 85.1289 158.575 85.3398C159.694 85.6387 160.474 85.8848 160.913 86.0781C161.358 86.2656 161.707 86.541 161.959 86.9043C162.211 87.2676 162.337 87.7188 162.337 88.2578C162.337 88.7852 162.182 89.2832 161.871 89.752C161.566 90.2148 161.124 90.5752 160.544 90.833C159.964 91.085 159.308 91.2109 158.575 91.2109C157.362 91.2109 156.437 90.959 155.798 90.4551C155.165 89.9512 154.761 89.2041 154.585 88.2139ZM170.309 89.8486C169.723 90.3467 169.157 90.6982 168.612 90.9033C168.073 91.1084 167.493 91.2109 166.872 91.2109C165.847 91.2109 165.059 90.9619 164.508 90.4639C163.957 89.96 163.682 89.3184 163.682 88.5391C163.682 88.082 163.784 87.666 163.989 87.291C164.2 86.9102 164.473 86.6055 164.807 86.377C165.146 86.1484 165.527 85.9756 165.949 85.8584C166.26 85.7764 166.729 85.6973 167.355 85.6211C168.633 85.4688 169.573 85.2871 170.177 85.0762C170.183 84.8594 170.186 84.7217 170.186 84.6631C170.186 84.0186 170.036 83.5645 169.737 83.3008C169.333 82.9434 168.732 82.7646 167.936 82.7646C167.191 82.7646 166.641 82.8965 166.283 83.1602C165.932 83.418 165.671 83.8779 165.501 84.54L163.954 84.3291C164.095 83.667 164.326 83.1338 164.648 82.7295C164.971 82.3193 165.437 82.0059 166.046 81.7891C166.655 81.5664 167.361 81.4551 168.164 81.4551C168.961 81.4551 169.608 81.5488 170.106 81.7363C170.604 81.9238 170.971 82.1611 171.205 82.4482C171.439 82.7295 171.604 83.0869 171.697 83.5205C171.75 83.79 171.776 84.2764 171.776 84.9795V87.0889C171.776 88.5596 171.809 89.4912 171.873 89.8838C171.943 90.2705 172.078 90.6426 172.277 91H170.625C170.461 90.6719 170.355 90.2881 170.309 89.8486ZM170.177 86.3154C169.603 86.5498 168.741 86.749 167.593 86.9131C166.942 87.0068 166.482 87.1123 166.213 87.2295C165.943 87.3467 165.735 87.5195 165.589 87.748C165.442 87.9707 165.369 88.2197 165.369 88.4951C165.369 88.917 165.527 89.2686 165.844 89.5498C166.166 89.8311 166.635 89.9717 167.25 89.9717C167.859 89.9717 168.401 89.8398 168.876 89.5762C169.351 89.3066 169.699 88.9404 169.922 88.4775C170.092 88.1201 170.177 87.5928 170.177 86.8955V86.3154ZM168.006 79.0117L167.013 80.5059H165.202L167.101 78.0449H168.788L170.766 80.5059H168.973L168.006 79.0117ZM168.287 74.9424H170.405L168.375 77.4033H167.101L168.287 74.9424ZM174.237 94.5771V81.666H175.679V82.8789C176.019 82.4043 176.402 82.0498 176.83 81.8154C177.258 81.5752 177.776 81.4551 178.386 81.4551C179.183 81.4551 179.886 81.6602 180.495 82.0703C181.104 82.4805 181.564 83.0605 181.875 83.8105C182.186 84.5547 182.341 85.3721 182.341 86.2627C182.341 87.2178 182.168 88.0791 181.822 88.8467C181.482 89.6084 180.984 90.1943 180.328 90.6045C179.678 91.0088 178.992 91.2109 178.271 91.2109C177.744 91.2109 177.27 91.0996 176.848 90.877C176.432 90.6543 176.089 90.373 175.819 90.0332V94.5771H174.237ZM175.67 86.3857C175.67 87.5869 175.913 88.4746 176.399 89.0488C176.886 89.623 177.475 89.9102 178.166 89.9102C178.869 89.9102 179.47 89.6143 179.968 89.0225C180.472 88.4248 180.724 87.502 180.724 86.2539C180.724 85.0645 180.478 84.1738 179.985 83.582C179.499 82.9902 178.916 82.6943 178.236 82.6943C177.562 82.6943 176.965 83.0107 176.443 83.6436C175.928 84.2705 175.67 85.1846 175.67 86.3857Z" fill="#20315C"/>
<defs>
<clipPath id="clip0_139_923">
<rect width="294" height="58" fill="white"/>
</clipPath>
</defs>
</svg>
