<svg width="300" height="58" viewBox="0 0 300 58" fill="none" xmlns="http://www.w3.org/2000/svg">
<g clip-path="url(#clip0_139_924)">
<path d="M292.851 57.0586H6.81397C3.89626 57.0586 1.51514 54.7162 1.51514 51.8459V33.4693C1.51514 30.599 3.89626 28.2566 6.81397 28.2566H292.851C295.768 28.2566 298.149 30.599 298.149 33.4693V51.8459C298.149 54.7162 295.768 57.0586 292.851 57.0586Z" fill="#E4E4E4" stroke="black" stroke-miterlimit="10"/>
<path d="M23.6108 29.0332V57.8352" stroke="black" stroke-miterlimit="10"/>
<path d="M45.1411 29.0332V57.8352" stroke="black" stroke-miterlimit="10"/>
<path d="M72.2388 37.4131V57.8352" stroke="black" stroke-miterlimit="10"/>
<path d="M97.4585 37.4131V57.8352" stroke="black" stroke-miterlimit="10"/>
<path d="M124.02 36.1265V57.8352" stroke="black" stroke-miterlimit="10"/>
<path d="M148.469 39.8545V57.8352" stroke="black" stroke-miterlimit="10"/>
<path d="M178.316 35.1367V57.8352" stroke="black" stroke-miterlimit="10"/>
<path d="M211.484 34.4109V57.8352" stroke="black" stroke-miterlimit="10"/>
<path d="M245.826 32.8931V57.835" stroke="black" stroke-miterlimit="10"/>
<path d="M276.412 34.4109V57.8352" stroke="black" stroke-miterlimit="10"/>
<path d="M62.684 27.1195V27.1551L62.6888 27.1887L62.6888 27.1889L62.6889 27.1894L62.6889 27.1898L62.689 27.1903L62.6894 27.1932C62.69 27.1981 62.691 27.2066 62.6922 27.2187C62.6947 27.2429 62.6982 27.2808 62.7012 27.3307C62.7071 27.4306 62.711 27.5766 62.7019 27.7531C62.6835 28.1089 62.6129 28.5713 62.4123 29.0246C62.2141 29.4725 61.8893 29.9124 61.3517 30.2428C60.8117 30.5746 60.0221 30.8173 58.8611 30.8095H58.8577H58.6229H20.3908H20.1561C19.0214 30.8095 18.2513 30.5639 17.7252 30.232C17.2011 29.9013 16.8843 29.4629 16.6912 29.0162C16.4958 28.5642 16.428 28.1041 16.411 27.7502C16.4025 27.5748 16.4068 27.4297 16.4129 27.3304C16.416 27.2809 16.4195 27.2431 16.422 27.2191C16.4233 27.2071 16.4243 27.1986 16.4249 27.1938L16.4254 27.1899L16.4255 27.1896L16.4255 27.1894C16.4255 27.1892 16.4255 27.1892 16.4255 27.1894L16.4304 27.1554V27.1195C16.4304 26.8279 16.4905 26.5528 16.5866 26.254C16.6351 26.1033 16.6912 25.9512 16.7526 25.7864C16.7579 25.7721 16.7633 25.7578 16.7687 25.7434C16.8218 25.601 16.8785 25.4491 16.9323 25.2918C17.2586 24.5796 17.7401 23.8359 18.6199 23.1614C19.5143 22.4758 20.8483 21.8406 22.9086 21.4063C24.7452 21.0191 29.3058 20.5916 31.8786 20.4929C35.7239 20.3614 43.3904 20.3614 47.2358 20.4929C49.8098 20.5917 54.4025 21.0192 56.204 21.4059L56.2065 21.4065C58.2826 21.8407 59.6244 22.4837 60.5186 23.173C61.4003 23.8527 61.8733 24.5975 62.1827 25.2926C62.2373 25.4451 62.2911 25.5862 62.3422 25.7199C62.5326 26.2185 62.684 26.6146 62.684 27.1195Z" fill="#EAEAEA" stroke="black" stroke-miterlimit="10"/>
<path d="M280.872 20.9828C282.985 21.7416 285.601 22.0056 288.317 25.8986C292.04 25.8986 293.348 28.9339 291.403 29.3298C291.403 29.3298 288.284 29.4288 287.244 29.1979C286.439 28.9999 279.698 28.373 274.399 28.8679C271.046 29.1979 265.546 29.1649 265.512 29.1979C264.506 30.1546 213.865 27.2513 207.828 27.4493C205.414 28.67 199.813 28.67 197.7 28.571C195.587 28.472 173.185 29.8247 148.502 29.0659C147.999 29.0659 109.565 28.9669 109.565 28.9669C109.565 28.9669 92.5619 30.5175 90.9522 30.8145C81.4947 32.4641 65.1287 24.7769 58.4884 21.6097L47.0187 22.7314C48.595 21.5767 40.0431 9.1057 40.479 9.46861C44.0675 10.6233 57.9853 6.79626 57.9853 6.79626C57.9853 6.79626 65.6988 0.560763 75.5587 1.31958C99.1352 3.10115 100.577 4.61878 109.833 6.53232C112.818 7.15917 115.937 6.69728 118.62 5.21264C122.645 3.00217 128.312 -0.165061 137.837 0.428795C142.398 0.692732 147.227 2.60627 149.91 5.44358C150.983 6.56531 152.392 7.29114 153.935 7.42311C166.008 8.57783 200.383 14.8133 200.383 14.8133C200.383 14.8133 205.481 14.6484 205.514 14.6484C206.655 14.2855 219.197 12.8008 222.249 12.8008C231.405 12.8008 237.207 16.9908 240.326 18.1125C243.411 19.2013 251.896 20.356 256.859 20.9828C258.972 21.2468 261.085 20.389 262.393 18.7394C264.405 16.166 267.759 13.0318 270.878 15.6711C272.722 17.2217 273.796 18.1455 275.54 19.6302C277.049 20.9828 279.329 20.455 280.872 20.9828Z" fill="#E4E4E4"/>
<path d="M291.57 29.7259L291.517 29.4783C291.513 29.4796 291.508 29.4808 291.503 29.482C291.498 29.4832 291.493 29.4844 291.488 29.4856L291.43 29.5001H291.369C291.332 29.5001 291.253 29.5018 291.138 29.5043C291.036 29.5064 290.907 29.5092 290.754 29.5119C290.434 29.5176 290.024 29.5228 289.593 29.5207C288.791 29.5168 287.842 29.4885 287.291 29.3689C287.289 29.3685 287.287 29.3681 287.285 29.3676C287.265 29.3631 287.245 29.3585 287.225 29.3537C287.065 29.3144 286.531 29.2387 285.692 29.1565C284.87 29.0758 283.791 28.9918 282.566 28.9304C280.142 28.8087 277.168 28.7761 274.51 29.0267L274.533 29.262L274.51 29.0268C274.478 29.0298 274.446 29.0328 274.414 29.0359L274.408 29.0365C271.728 29.2643 267.798 29.3323 266.183 29.3351C266.148 29.3351 266.115 29.3352 266.082 29.3352C265.876 29.3352 265.74 29.3353 265.646 29.337C265.625 29.3374 265.606 29.3378 265.588 29.3384C265.56 29.3393 265.537 29.3404 265.517 29.3419L265.495 29.3566L265.43 29.3773C265.28 29.4252 265.07 29.4521 264.848 29.4712C264.612 29.4915 264.315 29.5064 263.966 29.5167C263.267 29.5374 262.338 29.5406 261.227 29.5295C259.004 29.5072 256.033 29.4277 252.672 29.3142C245.991 29.0888 237.758 28.7289 230.778 28.4168C230.733 28.4148 230.689 28.4129 230.645 28.4109L230.645 28.4109C219.965 27.9289 210.752 27.5428 208.024 27.582C207.988 27.5826 207.953 27.5831 207.92 27.5838C207.882 27.5846 207.846 27.5854 207.811 27.5863C206.62 28.1665 204.689 28.453 202.814 28.5915C200.961 28.7283 199.076 28.7254 197.818 28.6801L197.801 28.934V28.6795C197.76 28.678 197.72 28.6765 197.68 28.6749L197.668 28.6744L197.668 28.6742C197.248 28.6467 195.923 28.6947 193.66 28.7767C193.426 28.7851 193.182 28.794 192.929 28.8031L192.938 29.0615L192.928 28.8031C192.893 28.8044 192.858 28.8057 192.822 28.807L192.822 28.807L192.662 28.8127C184.302 29.1112 167.109 29.7251 148.61 29.1737C148.607 29.1736 148.605 29.1735 148.602 29.1734C148.566 29.1724 148.53 29.1713 148.494 29.1702C148.211 29.1699 143.323 29.1571 137.099 29.1408C134.682 29.1344 132.063 29.1276 129.435 29.1207C120.334 29.0969 111.112 29.0732 109.699 29.0713C109.69 29.0713 109.681 29.0713 109.673 29.0713C109.627 29.0712 109.591 29.0712 109.565 29.0712H109.556C109.425 29.0837 109.022 29.1209 108.419 29.1766C106.797 29.3261 103.729 29.6091 100.608 29.9061C96.3769 30.3088 92.0872 30.734 91.0787 30.8931L91.1199 31.1441L91.0779 30.8932C91.0389 30.8994 91.0048 30.9051 90.9759 30.9105L90.9702 30.9115C90.079 31.0653 89.129 31.1363 88.1352 31.1372C86.371 31.1387 84.4687 30.919 82.5117 30.5487C79.4468 29.9687 76.2163 29.0129 73.1209 27.9253C67.025 25.7836 61.4149 23.1172 58.571 21.7604C58.5386 21.7449 58.5065 21.7296 58.4748 21.7144L58.4276 21.719L47.6373 22.7674L47.1053 22.8191L47.081 22.837C47.0843 22.8346 47.0906 22.8292 47.0974 22.8199L47.0702 22.8225L47.0635 22.8232L47.0639 22.8139L47.068 22.7233L47.0694 22.6931L47.0724 22.6262C47.0551 22.6137 47.0328 22.6039 47.0053 22.6012C46.9903 22.5997 46.9739 22.6004 46.9559 22.6039L46.9802 22.5992L47.0049 22.5968L47.074 22.5902L47.0895 22.2472C47.102 21.971 47.0279 21.5476 46.8121 20.9312C46.5993 20.3233 46.2624 19.5652 45.7856 18.6333C45.6264 18.3221 45.4522 17.9927 45.2627 17.6444C45.2626 17.6443 45.2625 17.6441 45.2624 17.6439C44.3183 15.909 42.993 13.704 41.2388 10.9371C41.2366 10.9341 41.2344 10.931 41.2322 10.9279L40.9822 11.0854M291.57 29.7259H291.503C291.491 29.7259 291.453 29.7268 291.394 29.7281C290.817 29.7412 288.217 29.8003 287.244 29.561C286.473 29.396 279.765 28.7362 274.534 29.264C271.817 29.528 267.726 29.561 266.183 29.561H265.646C264.003 29.9899 254.478 29.6929 230.768 28.6372C220.405 28.1753 210.579 27.7464 208.03 27.8124C205.281 29.134 199.039 28.9667 197.953 28.9377C197.874 28.9355 197.822 28.9341 197.801 28.9341C197.317 28.9024 195.715 28.9623 193.235 29.055L192.938 29.0661L192.781 29.0717C184.404 29.3708 167.165 29.9864 148.602 29.429C148.396 29.429 141.987 29.4124 134.427 29.3927C123.559 29.3645 110.313 29.33 109.699 29.33C109.574 29.343 108.843 29.4107 107.735 29.513C103.205 29.932 92.3867 30.9325 91.12 31.1446C90.1138 31.3096 89.1413 31.4085 88.1352 31.4085C78.3299 31.4085 64.042 24.649 58.6515 22.0988C58.5846 22.0671 58.5191 22.0361 58.455 22.0058L47.0524 23.0945C46.8847 23.1275 46.717 23.0286 46.65 22.8636C46.5829 22.6986 46.65 22.5337 46.7841 22.4347C46.8176 22.4017 47.2536 21.9398 45.0066 17.7828C43.6987 15.3744 41.9883 12.6691 40.9822 11.0854M291.57 29.7259C292.342 29.561 292.811 28.9671 292.744 28.2413L292.402 28.2779C292.402 28.2793 292.402 28.2807 292.402 28.282L292.404 28.2943L292.404 28.2943C292.428 28.5613 292.384 28.8469 292.187 29.0865C292.022 29.2882 291.795 29.3986 291.57 29.4638V29.7259ZM40.9822 11.0854L41.2316 10.927L40.2109 9.2049C39.9426 9.43584 39.9426 9.43584 40.9822 11.0854ZM270.576 15.9683L270.769 15.7439C270.787 15.7583 270.804 15.7729 270.822 15.7876C270.822 15.788 270.822 15.7884 270.823 15.7887L272.312 17.0624L272.312 17.0626L272.364 17.1068C272.544 17.2613 272.719 17.412 272.893 17.5608C273.703 18.257 274.465 18.9115 275.445 19.7155C275.446 19.7161 275.446 19.7166 275.447 19.7172C275.461 19.7287 275.475 19.7402 275.489 19.7518C276.513 20.6077 277.819 20.7206 278.91 20.8149L278.915 20.8154L278.92 20.8157L278.983 20.8212C278.983 20.8212 278.983 20.8212 278.983 20.8212C279.691 20.8845 280.285 20.9446 280.839 21.1049C280.841 21.1054 280.843 21.106 280.845 21.1066C280.871 21.114 280.896 21.1217 280.921 21.1295C281.002 21.1558 281.081 21.1812 281.16 21.2065C281.383 21.2775 281.602 21.3475 281.825 21.4337C281.826 21.4342 281.828 21.4347 281.829 21.4352C281.84 21.4395 281.851 21.4439 281.863 21.4483L281.879 21.4546L281.895 21.4598L281.989 21.4894C282.906 21.7793 283.878 22.086 284.897 22.6914C285.944 23.3134 287.058 24.2616 288.176 25.8561L288.269 25.9877L288.27 25.9901L288.317 26.0572L288.321 26.0619L288.572 26.0688C289.69 26.0993 290.6 26.4273 291.234 26.8698C291.876 27.3179 292.198 27.8523 292.247 28.2909C292.247 28.294 292.247 28.2971 292.247 28.3002C292.248 28.303 292.248 28.3058 292.248 28.3086C292.278 28.73 292.027 29.0978 291.514 29.2259H291.513H291.513H291.513H291.513H291.513H291.513H291.512H291.512H291.512H291.512H291.512H291.512H291.512H291.511H291.511H291.511H291.511H291.511H291.511H291.51H291.51H291.51H291.51H291.51H291.509H291.509H291.509H291.509H291.509H291.509H291.508H291.508H291.508H291.508H291.508H291.508H291.507H291.507H291.507H291.507H291.507H291.506H291.506H291.506H291.506H291.506H291.506H291.505H291.505H291.505H291.505H291.505H291.504H291.504H291.504H291.504H291.504H291.503H291.503C291.488 29.2259 291.462 29.2264 291.425 29.2272C291.408 29.2275 291.39 29.2279 291.369 29.2284C291.359 29.2286 291.349 29.2288 291.339 29.2291C291.053 29.2355 290.451 29.249 289.73 29.2425C288.803 29.2341 287.833 29.1909 287.363 29.0754L287.356 29.0736L287.349 29.072C287.333 29.0688 287.316 29.0653 287.297 29.0618C286.782 28.9653 284.924 28.7685 282.586 28.6533C280.148 28.5332 277.136 28.499 274.484 28.7665C274.453 28.7696 274.421 28.7726 274.389 28.7756C274.388 28.7757 274.387 28.7758 274.386 28.7759C271.697 29.0285 267.708 29.061 266.183 29.061H266.181H266.179H266.178H266.176H266.174H266.172H266.171H266.169H266.167H266.165H266.164H266.162H266.16H266.158H266.157H266.155H266.153H266.151H266.15H266.148H266.146H266.144H266.143H266.141H266.139H266.138H266.136H266.134H266.133H266.131H266.129H266.127H266.126H266.124H266.122H266.121H266.119H266.117H266.116H266.114H266.112H266.111H266.109H266.107H266.106H266.104H266.102H266.101H266.099H266.097H266.096H266.094H266.092H266.091H266.089H266.087H266.086H266.084H266.083H266.082H266.081H266.079H266.078H266.076H266.074H266.073H266.071H266.07H266.068H266.066H266.065H266.063H266.062H266.06H266.058H266.057H266.055H266.054H266.052H266.051H266.049H266.047H266.046H266.044H266.043H266.041H266.04H266.038H266.036H266.035H266.033H266.032H266.03H266.029H266.027H266.026H266.024H266.023H266.021H266.02H266.018H266.016H266.015H266.013H266.012H266.01H266.009H266.007H266.006H266.004H266.003H266.001H266H265.998H265.997H265.995H265.994H265.992H265.991H265.99H265.988H265.987H265.985H265.984H265.982H265.981H265.979H265.978H265.976H265.975H265.973H265.972H265.971H265.969H265.968H265.966H265.965H265.963H265.962H265.961H265.959H265.958H265.956H265.955H265.954H265.952H265.951H265.949H265.948H265.947H265.945H265.944H265.942H265.941H265.94H265.938H265.937H265.935H265.934H265.933H265.931H265.93H265.929H265.927H265.926H265.925H265.923H265.922H265.921H265.919H265.918H265.917H265.915H265.914H265.913H265.911H265.91H265.909H265.907H265.906H265.905H265.903H265.902H265.901H265.9H265.898H265.897H265.896H265.894H265.893H265.892H265.891H265.889H265.888H265.887H265.885H265.884H265.883H265.882H265.88H265.879H265.878H265.877H265.875H265.874H265.873H265.872H265.871H265.869H265.868H265.867H265.866H265.864H265.863H265.862H265.861H265.86H265.858H265.857H265.856H265.855H265.854H265.852H265.851H265.85H265.849H265.848H265.847H265.845H265.844H265.843H265.842H265.841H265.84H265.838H265.837H265.836H265.835H265.834H265.833H265.832H265.83H265.829H265.828H265.827H265.826H265.825H265.824H265.823H265.822H265.82H265.819H265.818H265.817H265.816H265.815H265.814H265.813H265.812H265.811H265.81H265.809H265.807H265.806H265.805H265.804H265.803H265.802H265.801H265.8H265.799H265.798H265.797H265.796H265.795H265.794H265.793H265.792H265.791H265.79H265.789H265.788H265.787H265.786H265.785H265.784H265.783H265.782H265.781H265.78H265.779H265.778H265.777H265.776H265.775H265.774H265.773H265.772H265.771H265.77H265.769H265.768H265.768H265.767H265.766H265.765H265.764H265.763H265.762H265.761H265.76H265.759H265.758H265.757H265.757H265.756H265.755H265.754H265.753H265.752H265.751H265.75H265.749H265.749H265.748H265.747H265.746H265.745H265.744H265.743H265.743H265.742H265.741H265.74H265.739H265.738H265.738H265.737H265.736H265.735H265.734H265.733H265.733H265.732H265.731H265.73H265.729H265.729H265.728H265.727H265.726H265.726H265.725H265.724H265.723H265.722H265.722H265.721H265.72H265.719H265.719H265.718H265.717H265.716H265.716H265.715H265.714H265.714H265.713H265.712H265.711H265.711H265.71H265.709H265.709H265.708H265.707H265.707H265.706H265.705H265.704H265.704H265.703H265.702H265.702H265.701H265.7H265.7H265.699H265.699H265.698H265.697H265.697H265.696H265.695H265.695H265.694H265.693H265.693H265.692H265.692H265.691H265.69H265.69H265.689H265.689H265.688H265.687H265.687H265.686H265.686H265.685H265.685H265.684H265.683H265.683H265.682H265.682H265.681H265.681H265.68H265.68H265.679H265.679H265.678H265.678H265.677H265.676H265.676H265.675H265.675H265.674H265.674H265.673H265.673H265.673H265.672H265.672H265.671H265.671H265.67H265.67H265.669H265.669H265.668H265.668H265.667H265.667H265.667H265.666H265.666H265.665H265.665H265.664H265.664H265.664H265.663H265.663H265.662H265.662H265.662H265.661H265.661H265.66H265.66H265.66H265.659H265.659H265.659H265.658H265.658H265.657H265.657H265.657H265.656H265.656H265.656H265.655H265.655H265.655H265.654H265.654H265.654H265.654H265.653H265.653H265.653H265.652H265.652H265.652H265.651H265.651H265.651H265.651H265.65H265.65H265.65H265.65H265.649H265.649H265.649H265.649H265.648H265.648H265.648H265.648H265.647H265.647H265.647H265.647H265.647H265.646H265.646H265.582L265.52 29.0772C265.488 29.0856 265.451 29.0939 265.409 29.1019C265.389 29.1057 265.368 29.1095 265.345 29.1133C264.93 29.183 264.129 29.2322 262.832 29.2461C261.347 29.2619 259.269 29.2323 256.496 29.156C250.95 29.0036 242.646 28.6656 230.79 28.1377C230.746 28.1357 230.702 28.1338 230.657 28.1318C220.359 27.6728 210.578 27.2463 208.017 27.3126L207.91 27.3153L207.849 27.3447L207.813 27.3618C207.81 27.3635 207.806 27.3651 207.803 27.3668C207.8 27.368 207.798 27.3692 207.795 27.3704C207.784 27.3758 207.772 27.3812 207.761 27.3866C207.092 27.6976 206.179 27.9279 205.15 28.0924C204.101 28.2602 202.962 28.3548 201.898 28.4058C200.075 28.4932 198.509 28.4521 197.979 28.4381C197.905 28.4362 197.851 28.4347 197.819 28.4343C197.782 28.432 197.739 28.4303 197.69 28.4289C197.688 28.4289 197.686 28.4288 197.684 28.4288C197.05 28.4119 195.511 28.4695 193.297 28.5523L192.92 28.5664L137.819 0.56595C137.819 0.565973 137.82 0.565997 137.82 0.566021C142.515 0.86004 147.208 2.83389 149.817 5.55805C149.819 5.56081 149.822 5.56356 149.825 5.56631C149.825 5.56696 149.826 5.56762 149.827 5.56828C150.913 6.7037 152.359 7.4126 153.911 7.59017L153.911 7.59026L153.921 7.59115C153.922 7.59131 153.924 7.59146 153.926 7.59161L153.901 7.85222M270.576 15.9683L270.769 15.7433C269.903 15.0289 268.978 14.733 268.007 14.8165C267.994 14.8178 267.982 14.8191 267.969 14.8205L267.994 15.0775M270.576 15.9683L272.119 17.2879L58.2578 7.06522C58.8534 6.61293 66.2677 0.982164 75.5253 1.68272C93.6985 3.05794 98.6583 4.27068 104.273 5.64346L104.401 5.67475C104.646 5.735 104.892 5.79602 105.141 5.85769C106.529 6.2012 107.999 6.56483 109.733 6.92845C112.818 7.58829 116.038 7.09341 118.788 5.57578L118.855 5.54278C122.879 3.29932 128.413 0.264059 137.803 0.824923C142.431 1.12185 147.06 3.03539 149.642 5.74074C150.782 6.96144 152.291 7.68726 153.901 7.85222M270.576 15.9683C269.771 15.2754 268.933 14.9785 267.994 15.0775M267.994 15.0775L267.967 14.8208C266.959 14.9334 265.949 15.4677 264.997 16.2237C264.037 16.9863 263.176 17.9433 262.484 18.8179C262.482 18.8204 262.48 18.8229 262.478 18.8254C262.478 18.8256 262.478 18.8259 262.478 18.8261C261.162 20.5086 259.014 21.402 256.863 21.1161C256.851 21.1146 256.838 21.113 256.825 21.1114L256.792 21.379M267.994 15.0775C265.948 15.2754 263.969 17.3209 262.661 18.9705C261.286 20.7191 259.039 21.6429 256.792 21.379M256.792 21.379L256.824 21.1113C254.409 20.8139 251.069 20.3699 247.947 19.8684C244.823 19.3664 241.87 18.7998 240.297 18.2554L240.292 18.2536C240.286 18.2515 240.28 18.2494 240.274 18.2472C240.273 18.2468 240.271 18.2464 240.27 18.246C239.602 18.0049 238.832 17.6373 237.97 17.2252C237.847 17.1665 237.722 17.1069 237.596 17.0466L237.592 17.0447C237.588 17.0428 237.584 17.041 237.58 17.0391L237.475 17.255M256.792 21.379C251.93 20.7851 243.311 19.5974 240.192 18.4757C239.568 18.2624 238.857 17.9198 238.059 17.535C237.869 17.4436 237.675 17.3499 237.475 17.255M237.475 17.255L237.578 17.0382C234.2 15.3928 229.194 12.9711 222.249 12.9711C220.824 12.9711 217.04 13.3217 213.388 13.7309C211.57 13.9348 209.795 14.1518 208.381 14.3445C206.991 14.5337 205.99 14.6943 205.615 14.7913V15.0115M237.475 17.255L237.451 17.243C234.13 15.6263 229.141 13.1969 222.249 13.1969C219.198 13.1969 206.688 14.6816 205.615 15.0115M205.615 15.0115L205.553 14.8084L205.516 14.8187H205.481H205.447C205.25 14.8187 204.508 14.8439 201.655 14.9407L200.4 14.9833L200.383 14.9839V15.2092L200.375 14.9842L200.36 14.9847L200.316 15.2094M205.615 15.0115C205.598 15.0115 205.573 15.0197 205.548 15.028C205.523 15.0362 205.498 15.0445 205.481 15.0445C205.38 15.0445 202.094 15.1435 200.383 15.2094H200.316M200.316 15.2094V14.98L200.287 14.9742C198.944 14.7101 165.678 8.71263 153.928 7.59183L153.901 7.85222M200.316 15.2094C199.981 15.1435 165.84 8.97395 153.901 7.85222M292.401 28.273C292.324 27.6471 291.853 27.034 291.177 26.5934C290.531 26.1729 289.652 25.8746 288.578 25.8328C288.517 25.8304 288.455 25.8289 288.392 25.8282C288.372 25.8004 288.353 25.7729 288.334 25.7455C287.222 24.1713 286.114 23.1918 285.026 22.5311C283.941 21.8721 282.896 21.5431 281.961 21.2526C281.954 21.2507 281.948 21.2488 281.942 21.2468C281.936 21.2449 281.93 21.243 281.924 21.2411L281.892 21.2313L281.885 21.2293C281.57 21.1362 281.276 21.049 280.985 20.9383L292.401 28.273ZM279.004 20.5904C278.983 20.5884 278.963 20.5864 278.942 20.5844L278.934 20.5837C277.713 20.4836 276.528 20.3846 275.604 19.6152L279.004 20.5904ZM272.496 16.9525C272.479 16.9378 272.461 16.923 272.444 16.9083L272.444 16.908L270.954 15.6338L272.496 16.9525ZM288.429 25.8823L288.429 25.8819L288.429 25.8823ZM40.5559 9.3876C40.556 9.38764 40.5564 9.38896 40.5569 9.39147C40.5561 9.38881 40.5559 9.38756 40.5559 9.3876ZM206.434 14.3451C206.027 14.4102 205.697 14.47 205.512 14.521L256.891 20.887C256.878 20.8855 256.865 20.8841 256.852 20.8825C254.424 20.586 251.061 20.1416 247.918 19.6317C244.772 19.1214 241.895 18.5528 240.381 18.0122C240.38 18.0119 240.379 18.0117 240.378 18.0114C240.372 18.0093 240.367 18.0072 240.361 18.0051L240.354 18.0026C239.761 17.7999 239.085 17.4744 238.29 17.0911C238.102 17.0009 237.908 16.9075 237.707 16.8118C237.707 16.8114 237.706 16.8111 237.706 16.8108C237.701 16.8087 237.696 16.8065 237.692 16.8044C237.691 16.8041 237.691 16.8038 237.69 16.8035L237.659 16.7884C234.332 15.1681 229.256 12.6969 222.249 12.6969C220.689 12.6969 216.768 13.0723 213.134 13.4837C211.31 13.6902 209.547 13.9071 208.171 14.0933C207.483 14.1864 206.89 14.272 206.434 14.3451ZM262.268 18.6615C261.012 20.2597 258.957 21.1145 256.894 20.8873L262.275 18.6536C262.273 18.6557 262.271 18.6578 262.27 18.6599L262.268 18.6615ZM264.736 16.0915C263.785 16.8638 262.94 17.8153 262.276 18.6522L267.983 14.5761C267.97 14.5773 267.957 14.5786 267.944 14.58C266.78 14.6933 265.682 15.3231 264.736 16.0915ZM270.902 15.5893C270.023 14.8323 269.066 14.4743 267.986 14.5758L270.902 15.5893Z" fill="black" stroke="black"/>
<path d="M106.379 22.4016C109.096 23.6883 113.187 26.2287 111.812 28.901C111.812 28.901 107.587 31.2765 104.199 31.9363C101.282 32.4972 96.7542 32.8271 94.5743 32.8271C91.12 32.8601 70.3271 30.6166 69.4886 30.7816L68.6167 30.8146C68.2813 30.9466 67.3758 31.3754 66.9734 31.6064C65.9002 32.2332 62.7142 32.7281 61.4062 32.8271C58.958 32.9591 55.9062 32.3982 54.9001 31.8043C53.9275 32.0023 52.8208 32.2332 52.0159 32.2002C51.2445 32.4972 49.1317 33.124 49.1317 33.124C49.1317 33.124 46.6164 34.2458 45.4091 34.0808C45.1743 34.0478 44.839 33.7509 44.7719 33.5529C44.1682 33.7509 43.4975 33.8828 43.0615 33.8169C42.4243 33.7179 42.1896 33.4539 42.1225 33.223C41.8542 33.124 41.5524 32.9261 41.4517 32.6291C41.2505 31.9033 44.7384 30.7816 44.7384 30.7816C44.7384 30.7816 45.9457 30.1877 48.0585 29.5609C49.2323 29.231 50.2049 28.967 51.0098 28.7031C52.2171 28.2412 53.7263 28.2412 54.3299 28.0103C55.1013 27.7133 62.4459 26.7236 66.9398 25.3709C68.7173 25.1729 71.9368 25.074 74.6198 24.876C76.5985 24.5461 88.001 24.1172 97.0225 23.8533L106.379 22.4016Z" fill="#E4E4E4"/>
<path d="M45.6772 34.4767C45.5766 34.4767 45.476 34.4767 45.3754 34.4437C45.1406 34.4107 44.8388 34.2127 44.604 33.9818C43.9333 34.1797 43.3967 34.2457 42.9942 34.1797C42.2564 34.0808 41.9546 33.7508 41.8204 33.4869C41.4515 33.322 41.1832 33.058 41.0826 32.7281C40.8814 32.0023 42.0552 31.2435 44.604 30.4187C44.8052 30.3197 45.979 29.7588 47.9577 29.1979C48.4943 29.033 48.9973 28.901 49.4669 28.7691C50.0035 28.6041 50.473 28.4721 50.909 28.3731C51.6132 28.1092 52.4517 27.9772 53.1559 27.8783C53.5919 27.8123 53.9944 27.7463 54.2291 27.6803C54.4974 27.5813 55.3358 27.4164 57.0127 27.1195C59.7627 26.6246 63.9213 25.8987 66.839 25.008C66.8725 25.008 66.8725 25.008 66.9061 25.008C67.9793 24.876 69.5555 24.81 71.1988 24.711C72.3391 24.645 73.4793 24.5791 74.586 24.5131C76.5312 24.1832 87.2295 23.7543 97.0222 23.4903C97.2235 23.4903 97.3912 23.6553 97.4247 23.8532C97.4247 24.0512 97.257 24.2162 97.0558 24.2491C87.263 24.5461 76.5647 24.975 74.7202 25.2719H74.6866C73.5799 25.3379 72.4061 25.4039 71.2659 25.4698C69.6226 25.5688 68.0799 25.6348 67.0402 25.7668C64.089 26.6576 59.8969 27.4164 57.1468 27.8783C55.8389 28.1092 54.7322 28.3072 54.4974 28.3731C54.1956 28.4721 53.7596 28.5381 53.2565 28.6041C52.5858 28.7031 51.8145 28.802 51.1437 29.066C50.6742 29.1979 50.2047 29.3299 49.6681 29.4949C49.1986 29.6268 48.6955 29.7588 48.1589 29.9238C46.1132 30.5176 44.9394 31.1115 44.9058 31.1115C44.8723 31.1115 44.8723 31.1445 44.8388 31.1445C43.3631 31.6064 41.9881 32.2662 41.8204 32.5631C41.8875 32.7281 42.0887 32.8271 42.2229 32.8601C42.357 32.8931 42.4576 33.025 42.4576 33.157C42.4576 33.19 42.5918 33.3879 43.0613 33.4539C43.2961 33.4869 43.7656 33.4869 44.604 33.223C44.8052 33.157 45.0065 33.256 45.0735 33.4539C45.1071 33.5199 45.3083 33.6849 45.4089 33.7179C46.2809 33.8498 48.2595 33.091 48.9303 32.7941C48.9303 32.7941 48.9638 32.7941 48.9638 32.7611C48.9973 32.7611 51.0766 32.1342 51.8145 31.8373C51.848 31.8043 51.9151 31.8043 51.9486 31.8043C52.7535 31.8373 53.8937 31.5734 54.7657 31.4084C54.8663 31.3754 54.9669 31.4084 55.034 31.4414C55.973 32.0023 58.9914 32.5631 61.3054 32.4312C62.5798 32.3652 65.6987 31.8373 66.7049 31.2764C67.1073 31.0455 68.0128 30.6496 68.3817 30.4846C68.4152 30.4516 68.4823 30.4516 68.5158 30.4516L69.3878 30.4187C69.9244 30.3527 72.775 30.6166 79.4824 31.2435C85.5862 31.8043 92.5283 32.4642 94.4734 32.4642C94.507 32.4642 94.507 32.4642 94.5405 32.4642C96.7204 32.4642 101.248 32.1342 104.099 31.5734C107.083 30.9795 110.839 29 111.51 28.6371C111.745 28.1422 111.745 27.6473 111.577 27.1195C110.873 25.1399 107.586 23.3914 106.211 22.7645C97.8607 18.8385 92.8301 16.661 90.8514 16.1331C88.4033 15.4403 84.3788 13.1308 81.1928 11.2833C79.516 10.3265 77.6379 9.23777 77.2355 9.17179C77.0342 9.20478 76.8665 9.07281 76.833 8.87486C76.7995 8.67691 76.9001 8.47896 77.1348 8.41297C77.5373 8.314 78.4092 8.77589 81.5953 10.6234C84.6136 12.339 88.7051 14.7144 91.0862 15.3743C93.0984 15.9352 98.1625 18.1126 106.58 22.0717C108.425 22.9295 111.577 24.678 112.349 26.8555C112.617 27.6143 112.55 28.3402 112.214 29.066C112.181 29.132 112.114 29.1979 112.047 29.2309C111.879 29.3299 107.721 31.6394 104.3 32.2992C101.248 32.8931 96.7204 33.19 94.574 33.19C94.5405 33.19 94.5405 33.19 94.507 33.19C92.5283 33.19 85.5861 32.5301 79.4489 31.9693C74.7873 31.5404 69.9915 31.0785 69.522 31.1445H69.4884L68.6835 31.1775C68.3482 31.3424 67.5097 31.7053 67.1408 31.9033C65.967 32.5631 62.7475 33.091 61.406 33.157C58.9578 33.289 56.0066 32.7611 54.8328 32.1342C53.9944 32.2992 52.8876 32.5301 52.0827 32.5301C51.3114 32.8271 49.5004 33.3549 49.2656 33.4209C48.9303 33.6189 46.9516 34.4767 45.6772 34.4767Z" fill="black"/>
<path d="M79.4824 24.6452C79.4489 24.6452 79.4153 24.6452 79.3818 24.6452C78.7781 24.5133 77.6379 24.4473 76.3299 24.3483C73.1104 24.1503 68.6835 23.8864 66.2018 22.2698C66.0341 22.1708 65.967 21.9399 66.1011 21.7419C66.2018 21.577 66.4365 21.511 66.6377 21.643C68.9853 23.1606 73.2781 23.4245 76.397 23.5895C77.8055 23.6885 78.9123 23.7544 79.583 23.8864C79.7842 23.9194 79.9184 24.1503 79.8513 24.3483C79.8178 24.5133 79.6501 24.6452 79.4824 24.6452Z" fill="black"/>
<path d="M44.7716 33.9488C44.671 33.9488 44.5704 33.9158 44.5033 33.8499C44.4027 33.7509 44.3691 33.6189 44.3691 33.454C44.4027 33.289 44.4698 32.7941 48.1588 30.9796C48.1588 30.9796 48.1924 30.9796 48.1924 30.9466C48.1924 30.9466 49.8357 30.3857 51.915 29.7589C53.9943 29.165 54.5979 28.9341 55.6376 28.5711C55.8388 28.5052 56.04 28.6041 56.1406 28.8021C56.2077 29 56.1071 29.198 55.9059 29.297C54.8662 29.6929 54.229 29.8908 52.1497 30.5177C50.2046 31.0785 48.6954 31.6064 48.4942 31.6724C47.1192 32.3652 45.5094 33.256 45.174 33.6189C45.174 33.7179 45.1405 33.8169 45.0734 33.8829C44.9728 33.9158 44.8722 33.9488 44.7716 33.9488Z" fill="black"/>
<path d="M42.1222 33.6191C41.921 33.6191 41.7869 33.4871 41.7533 33.2892C41.6527 32.5304 44.8052 31.1447 45.2076 31.0457C45.5765 30.9468 47.5888 30.1549 49.3662 29.4621C53.6925 27.7465 53.7596 27.7465 53.9608 27.7795C54.162 27.8125 54.2962 28.0105 54.2626 28.2084C54.2291 28.3734 54.0614 28.5053 53.8937 28.5053C53.5583 28.5713 51.3784 29.4291 49.6681 30.122C47.6894 30.9138 45.8448 31.6396 45.4089 31.7386C44.671 31.9365 42.793 32.9923 42.4911 33.3222C42.4576 33.4541 42.3235 33.5531 42.1893 33.5861C42.1558 33.6191 42.1222 33.6191 42.1222 33.6191Z" fill="black"/>
<path d="M33.1681 5.24572C27.3662 5.47667 21.4637 9.86461 21.6314 15.7372C21.8662 24.2491 26.0583 27.7793 32.2626 28.6041C33.6041 28.802 37.2932 28.3072 37.2932 28.3072C37.2932 28.3072 42.3573 28.1422 43.9 27.8783C47.1866 27.3174 53.1897 24.777 53.1562 21.3128C53.1226 16.43 48.9305 11.1183 46.0799 8.97382C44.2689 7.58816 41.6194 4.9158 33.1681 5.24572Z" fill="#E4E4E4"/>
<mask id="path-21-inside-1_139_924" fill="white">
<path d="M33.0341 29.0331C32.6987 29.0331 32.4304 29.0331 32.1957 29.0001C25.0523 28.0103 21.4638 23.6884 21.2626 15.7703C21.0949 9.53479 27.2657 5.11386 33.1682 4.88291C41.083 4.58598 44.0677 6.92842 45.8452 8.31408C46.0129 8.44605 46.147 8.54503 46.3147 8.677C49.2995 10.9205 53.5252 16.3311 53.5587 21.3129C53.5922 25.074 47.3208 27.6804 44.0007 28.2413C42.525 28.5052 37.7628 28.6702 37.3604 28.6702C37.0585 28.7362 34.6439 29.0331 33.0341 29.0331ZM33.2018 5.60874C27.6682 5.80669 21.8663 9.93069 22.034 15.7373C22.2352 23.2265 25.6224 27.3175 32.3298 28.2743C33.6042 28.4392 37.2262 27.9773 37.2597 27.9773H37.2933C37.3604 27.9773 42.3574 27.7794 43.833 27.5484C46.8513 27.0536 52.7874 24.6122 52.7874 21.3459C52.7538 16.5951 48.7294 11.4483 45.8452 9.30384C45.7111 9.20487 45.5434 9.0729 45.3757 8.94093C43.5647 7.48928 40.8147 5.3448 33.2018 5.60874Z"/>
</mask>
<path d="M33.0341 29.0331C32.6987 29.0331 32.4304 29.0331 32.1957 29.0001C25.0523 28.0103 21.4638 23.6884 21.2626 15.7703C21.0949 9.53479 27.2657 5.11386 33.1682 4.88291C41.083 4.58598 44.0677 6.92842 45.8452 8.31408C46.0129 8.44605 46.147 8.54503 46.3147 8.677C49.2995 10.9205 53.5252 16.3311 53.5587 21.3129C53.5922 25.074 47.3208 27.6804 44.0007 28.2413C42.525 28.5052 37.7628 28.6702 37.3604 28.6702C37.0585 28.7362 34.6439 29.0331 33.0341 29.0331ZM33.2018 5.60874C27.6682 5.80669 21.8663 9.93069 22.034 15.7373C22.2352 23.2265 25.6224 27.3175 32.3298 28.2743C33.6042 28.4392 37.2262 27.9773 37.2597 27.9773H37.2933C37.3604 27.9773 42.3574 27.7794 43.833 27.5484C46.8513 27.0536 52.7874 24.6122 52.7874 21.3459C52.7538 16.5951 48.7294 11.4483 45.8452 9.30384C45.7111 9.20487 45.5434 9.0729 45.3757 8.94093C43.5647 7.48928 40.8147 5.3448 33.2018 5.60874Z" fill="black"/>
<path d="M32.1957 29.0001L32.3348 28.0098L32.3329 28.0096L32.1957 29.0001ZM21.2626 15.7703L22.2623 15.7449L22.2623 15.7434L21.2626 15.7703ZM33.1682 4.88291L33.1307 3.88361L33.1291 3.88368L33.1682 4.88291ZM45.8452 8.31408L46.4637 7.52825L46.46 7.52542L45.8452 8.31408ZM46.3147 8.677L45.6963 9.46282L45.705 9.46969L45.7139 9.47637L46.3147 8.677ZM53.5587 21.3129L52.5587 21.3197L52.5587 21.3219L53.5587 21.3129ZM44.0007 28.2413L43.8341 27.2552L43.8246 27.2569L44.0007 28.2413ZM37.3604 28.6702V27.6702H37.2523L37.1468 27.6932L37.3604 28.6702ZM33.2018 5.60874L33.1671 4.60934L33.166 4.60938L33.2018 5.60874ZM22.034 15.7373L23.0336 15.7104L23.0336 15.7084L22.034 15.7373ZM32.3298 28.2743L32.1886 29.2643L32.2014 29.266L32.3298 28.2743ZM43.833 27.5484L43.9876 28.5364L43.9948 28.5353L43.833 27.5484ZM52.7874 21.3459L53.7874 21.3459L53.7873 21.3389L52.7874 21.3459ZM45.8452 9.30384L46.4419 8.50136L46.4389 8.49916L45.8452 9.30384ZM45.3757 8.94093L44.7502 9.72123L44.7572 9.72676L45.3757 8.94093ZM33.0341 28.0331C32.6765 28.0331 32.4857 28.031 32.3348 28.0098L32.0565 29.9904C32.3752 30.0351 32.7209 30.0331 33.0341 30.0331V28.0331ZM32.3329 28.0096C28.9379 27.5392 26.5115 26.2981 24.8963 24.3459C23.2711 22.3815 22.3594 19.5674 22.2623 15.7449L20.2629 15.7957C20.367 19.8913 21.3502 23.1972 23.3554 25.6208C25.3706 28.0565 28.3101 29.4713 32.0584 29.9906L32.3329 28.0096ZM22.2623 15.7434C22.1882 12.9894 23.5069 10.5982 25.5854 8.83801C27.673 7.07008 30.4771 5.98897 33.2073 5.88215L33.1291 3.88368C29.9569 4.00779 26.7243 5.25263 24.2928 7.31177C21.8522 9.37864 20.1694 12.3156 20.263 15.7972L22.2623 15.7434ZM33.2057 5.88221C37.0586 5.73766 39.6495 6.2375 41.4623 6.9058C43.268 7.57145 44.3578 8.4225 45.2304 9.10275L46.46 7.52542C45.5552 6.82 44.2639 5.807 42.1541 5.02925C40.0515 4.25414 37.1926 3.73123 33.1307 3.88361L33.2057 5.88221ZM45.2268 9.09991C45.3167 9.17069 45.3973 9.23232 45.4723 9.28973C45.5482 9.3478 45.6185 9.40163 45.6963 9.46282L46.9332 7.89117C46.8432 7.82039 46.7627 7.75875 46.6876 7.70134C46.6117 7.64328 46.5414 7.58945 46.4637 7.52826L45.2268 9.09991ZM45.7139 9.47637C47.0998 10.518 48.823 12.3387 50.1995 14.5045C51.581 16.6783 52.5437 19.0901 52.5587 21.3197L54.5587 21.3062C54.5402 18.554 53.3733 15.7696 51.8874 13.4317C50.3964 11.0858 48.5145 9.07942 46.9156 7.87762L45.7139 9.47637ZM52.5587 21.3219C52.5704 22.6253 51.4564 23.955 49.5214 25.1206C47.6582 26.2429 45.3804 26.994 43.8341 27.2552L44.1672 29.2273C45.9411 28.9276 48.4591 28.0952 50.5533 26.8338C52.5756 25.6157 54.5806 23.7617 54.5587 21.304L52.5587 21.3219ZM43.8246 27.2569C43.161 27.3756 41.6696 27.4809 40.2261 27.5561C38.7999 27.6303 37.5325 27.6702 37.3604 27.6702V29.6702C37.5906 29.6702 38.9056 29.6275 40.3301 29.5533C41.7372 29.4801 43.3647 29.3709 44.1767 29.2257L43.8246 27.2569ZM37.1468 27.6932C37.1521 27.6921 37.144 27.6939 37.1147 27.6988C37.0884 27.7032 37.053 27.7088 37.0082 27.7154C36.9188 27.7285 36.8005 27.7446 36.6582 27.7626C36.3738 27.7985 36.0027 27.8408 35.5903 27.8811C34.7584 27.9626 33.7902 28.0331 33.0341 28.0331V30.0331C33.8877 30.0331 34.9318 29.9551 35.7851 29.8716C36.6151 29.7904 37.355 29.695 37.5739 29.6471L37.1468 27.6932ZM33.166 4.60938C30.1785 4.71625 27.1304 5.87767 24.8368 7.80402C22.5342 9.73787 20.9399 12.4947 21.0344 15.7662L23.0336 15.7084C22.9603 13.1733 24.1831 10.9648 26.123 9.33552C28.0719 7.69874 30.6914 6.69918 33.2375 6.6081L33.166 4.60938ZM21.0343 15.7642C21.1386 19.6448 22.0715 22.7839 23.9699 25.0909C25.8786 27.4103 28.6572 28.7605 32.1886 29.2642L32.471 27.2843C29.295 26.8313 27.0264 25.6576 25.5142 23.82C23.9919 21.97 23.1306 19.319 23.0336 15.7104L21.0343 15.7642ZM32.2014 29.266C32.9676 29.3652 34.307 29.2762 35.3485 29.1838C35.893 29.1354 36.3967 29.082 36.7656 29.0407C36.9503 29.0201 37.1015 29.0025 37.2073 28.99C37.261 28.9837 37.3005 28.979 37.3286 28.9758C37.3428 28.9741 37.3513 28.9731 37.3559 28.9726C37.4067 28.967 37.3303 28.9773 37.2597 28.9773V26.9773C37.2303 26.9773 37.2073 26.9787 37.2009 26.9791C37.191 26.9796 37.183 26.9803 37.1784 26.9806C37.1692 26.9814 37.1616 26.9821 37.1578 26.9825C37.1496 26.9833 37.1418 26.9841 37.1366 26.9847C37.1254 26.9859 37.1116 26.9875 37.0971 26.9892C37.0679 26.9926 37.0249 26.9977 36.9738 27.0037C36.8701 27.0159 36.7229 27.0331 36.5434 27.0531C36.1839 27.0933 35.6962 27.145 35.1717 27.1916C34.0752 27.2889 32.9664 27.3483 32.4582 27.2825L32.2014 29.266ZM37.2597 28.9773H37.2933V26.9773H37.2597V28.9773ZM37.2933 28.9773C37.3605 28.9773 38.6589 28.9257 40.0892 28.848C41.514 28.7706 43.189 28.6614 43.9876 28.5364L43.6784 26.5605C43.0014 26.6664 41.44 26.7717 39.9807 26.851C38.5268 26.93 37.2931 26.9773 37.2933 26.9773V28.9773ZM43.9948 28.5353C45.6212 28.2686 47.9754 27.4941 49.9441 26.3513C50.9307 25.7786 51.8673 25.0866 52.5681 24.2787C53.27 23.4695 53.7874 22.4807 53.7874 21.3459H51.7874C51.7874 21.8443 51.5627 22.3855 51.0573 22.9682C50.5508 23.5521 49.8147 24.1138 48.94 24.6216C47.1861 25.6398 45.0631 26.3334 43.6712 26.5616L43.9948 28.5353ZM53.7873 21.3389C53.7687 18.7022 52.6521 16.0413 51.2283 13.8096C49.7995 11.5702 47.9919 9.65388 46.4419 8.50136L45.2485 10.1063C46.5827 11.0983 48.2294 12.8276 49.5422 14.8854C50.8601 16.9509 51.7725 19.2388 51.7874 21.353L53.7873 21.3389ZM46.4389 8.49916C46.32 8.41145 46.166 8.2904 45.9941 8.15511L44.7572 9.72676C44.9207 9.8554 45.1021 9.99829 45.2515 10.1085L46.4389 8.49916ZM46.0011 8.16066C45.0749 7.41823 43.8316 6.43497 41.8089 5.69271C39.7959 4.95396 37.0714 4.47398 33.1671 4.60934L33.2364 6.60814C36.9451 6.47956 39.402 6.93984 41.1199 7.57027C42.8283 8.19718 43.8655 9.01198 44.7502 9.7212L46.0011 8.16066Z" fill="black" mask="url(#path-21-inside-1_139_924)"/>
<path d="M43.095 12.8341C42.9944 12.8341 42.8603 12.8011 42.7932 12.7022C42.659 12.5372 42.6926 12.3063 42.8603 12.1743C42.9944 12.0753 43.095 11.9433 43.1956 11.7784C43.3633 11.4815 43.3633 11.1185 43.2292 10.7226C42.9273 9.86485 41.9883 9.00705 40.781 8.47918C38.9364 7.65438 36.9242 7.81934 36.3876 8.8091C36.0523 9.43595 36.3876 10.3267 37.2596 11.1515C37.4273 11.2835 37.4273 11.5144 37.2931 11.6794C37.159 11.8444 36.9242 11.8444 36.7565 11.7124C35.6163 10.6896 35.2474 9.43595 35.7504 8.47918C36.4882 7.09352 38.8694 6.79659 41.1499 7.81934C42.5584 8.44619 43.6316 9.46894 44.0005 10.5247C44.2017 11.1185 44.1682 11.6794 43.9334 12.1743C43.7993 12.4052 43.6316 12.6032 43.4304 12.7681C43.2627 12.8011 43.1621 12.8341 43.095 12.8341Z" fill="black"/>
</g>
<defs>
<clipPath id="clip0_139_924">
<rect width="300" height="58" fill="white"/>
</clipPath>
</defs>
</svg>
