<svg width="200" height="72" viewBox="0 0 200 72" fill="none" xmlns="http://www.w3.org/2000/svg">
<g clip-path="url(#clip0_2_504)">
<path d="M195.234 39.3507H4.54269C2.59755 39.3507 1.01013 37.7352 1.01013 35.7557V23.0822C1.01013 21.1027 2.59755 19.4872 4.54269 19.4872H195.234C197.179 19.4872 198.766 21.1027 198.766 23.0822V35.7557C198.766 37.7352 197.179 39.3507 195.234 39.3507Z" fill="#E4E4E4" stroke="black" stroke-miterlimit="10"/>
<path d="M15.7405 20.0228V39.8863" stroke="black" stroke-miterlimit="10"/>
<path d="M30.094 20.0228V39.8863" stroke="black" stroke-miterlimit="10"/>
<path d="M48.1593 25.8021V39.8863" stroke="black" stroke-miterlimit="10"/>
<path d="M64.9724 25.8021V39.8863" stroke="black" stroke-miterlimit="10"/>
<path d="M82.6799 24.9147V39.8863" stroke="black" stroke-miterlimit="10"/>
<path d="M98.9791 27.4857V39.8862" stroke="black" stroke-miterlimit="10"/>
<path d="M118.877 24.232V39.8862" stroke="black" stroke-miterlimit="10"/>
<path d="M140.99 23.7316V39.8863" stroke="black" stroke-miterlimit="10"/>
<path d="M163.884 22.6848V39.8862" stroke="black" stroke-miterlimit="10"/>
<path d="M184.274 23.7315V39.8862" stroke="black" stroke-miterlimit="10"/>
<path d="M41.6226 18.7029V18.7373L41.627 18.7691L41.627 18.7691L41.6271 18.7697C41.6271 18.7699 41.6271 18.77 41.6272 18.7704C41.6272 18.7706 41.6272 18.7705 41.6272 18.7708L41.6272 18.7708L41.6288 18.7856C41.6303 18.8004 41.6325 18.8246 41.6343 18.8567C41.638 18.9213 41.6405 19.0169 41.6348 19.1326C41.623 19.3673 41.5781 19.6679 41.4533 19.9596C41.3307 20.2463 41.1326 20.5219 40.8074 20.7287C40.4807 20.9363 39.9891 21.0977 39.2419 21.0925H39.2384H39.0819H13.5938H13.4373C12.7082 21.0925 12.2298 20.9296 11.9122 20.7223C11.5956 20.5157 11.4024 20.2411 11.2828 19.9549C11.1612 19.664 11.1179 19.3646 11.1071 19.1312C11.1018 19.016 11.1045 18.921 11.1083 18.8568C11.1102 18.8248 11.1124 18.8008 11.1139 18.7861L11.1155 18.7714C11.1156 18.7709 11.1156 18.7705 11.1157 18.7702C11.1157 18.7698 11.1158 18.7696 11.1157 18.7696L11.1202 18.7375V18.7029C11.1202 18.411 11.2019 18.1832 11.3188 17.8577C11.3576 17.7494 11.4003 17.6304 11.4452 17.4945C11.6556 17.0216 11.9627 16.5341 12.5211 16.0912C13.0927 15.638 13.9561 15.2091 15.3101 14.9138C16.5194 14.6501 19.5473 14.3558 21.259 14.2879C23.8184 14.1973 28.9245 14.1973 31.4838 14.2879C33.1967 14.3558 36.2456 14.6502 37.4308 14.9134L37.4335 14.914C38.7977 15.2091 39.6661 15.6434 40.2374 16.0989C40.7976 16.5456 41.0991 17.0342 41.2982 17.4954C41.3367 17.6065 41.3737 17.7069 41.408 17.8001C41.5325 18.1379 41.6226 18.3824 41.6226 18.7029Z" fill="#EAEAEA" stroke="black" stroke-miterlimit="10"/>
<path d="M187.248 14.4709C188.657 14.9942 190.4 15.1763 192.211 17.8611C194.693 17.8611 195.565 19.9544 194.268 20.2274C194.268 20.2274 192.189 20.2957 191.496 20.1364C190.959 19.9999 186.465 19.5676 182.933 19.9089C180.697 20.1364 177.03 20.1137 177.008 20.1364C176.337 20.7963 142.577 18.794 138.552 18.9305C136.943 19.7724 133.209 19.7724 131.8 19.7041C130.392 19.6359 115.457 20.5687 99.0011 20.0454C98.6657 20.0454 73.0435 19.9772 73.0435 19.9772C73.0435 19.9772 61.708 21.0466 60.6348 21.2513C54.3299 22.389 43.4192 17.0875 38.9923 14.9032L31.3459 15.6768C32.3967 14.8805 26.6955 6.27978 26.9861 6.53007C29.3784 7.32643 38.657 4.68706 38.657 4.68706C38.657 4.68706 43.7993 0.386722 50.3725 0.910044C66.0902 2.13871 67.0516 3.18536 73.2224 4.50504C75.2122 4.93735 77.2915 4.6188 79.0802 3.59491C81.7631 2.07045 85.5416 -0.113847 91.8913 0.295709C94.932 0.477734 98.1515 1.79742 99.9402 3.75418C100.656 4.52779 101.595 5.02836 102.623 5.11937C110.672 5.91573 133.589 10.2161 133.589 10.2161C133.589 10.2161 136.987 10.1023 137.01 10.1023C137.77 9.85202 146.132 8.82813 148.166 8.82813C154.27 8.82813 158.138 11.7178 160.217 12.4914C162.274 13.2422 167.931 14.0386 171.24 14.4709C172.648 14.6529 174.057 14.0614 174.929 12.9237C176.27 11.149 178.506 8.9874 180.585 10.8077C181.815 11.8771 182.53 12.5141 183.693 13.538C184.699 14.4709 186.22 14.1069 187.248 14.4709Z" fill="#E4E4E4"/>
<path d="M60.7466 21.4789L60.7433 21.459C61.3903 21.3522 64.2503 21.0586 67.0894 20.7791C69.1687 20.5744 71.2153 20.3791 72.2968 20.2759C72.6861 20.2388 72.9503 20.2136 73.046 20.2041C73.0662 20.2041 73.0944 20.2042 73.1305 20.2042C73.1313 20.2042 73.1321 20.2042 73.1329 20.2042C74.0744 20.2055 80.2221 20.2219 86.2893 20.2383C88.0381 20.243 89.7802 20.2477 91.3888 20.2521C95.5239 20.2633 98.7768 20.2721 98.9931 20.2724C99.0182 20.2732 99.0432 20.2739 99.0682 20.2747C99.0684 20.2747 99.0686 20.2747 99.0688 20.2747C111.407 20.6552 122.874 20.2316 128.447 20.0257L128.554 20.0218L128.555 20.0218C128.578 20.0209 128.601 20.02 128.624 20.0192C128.789 20.013 128.947 20.0071 129.098 20.0015C130.622 19.9444 131.496 19.9116 131.766 19.93L131.766 19.9301L131.78 19.9307C131.808 19.9319 131.838 19.933 131.867 19.9341V19.9544M60.7466 21.4789L60.7432 21.459C60.7207 21.4627 60.7009 21.4662 60.6838 21.4694L60.678 21.4706L60.678 21.4705C60.0725 21.5786 59.4287 21.6283 58.7568 21.6289C57.5647 21.63 56.2844 21.4764 54.9737 21.2198C52.9185 20.8174 50.7556 20.1551 48.687 19.4033C44.6225 17.9261 40.8828 16.0884 38.9826 15.1505C38.9772 15.1479 38.9719 15.1453 38.9667 15.1427C38.9612 15.14 38.9558 15.1373 38.9504 15.1347L31.776 15.8558L31.3653 15.8971L31.3622 15.8974L31.2314 15.9105C31.2736 15.9301 31.3209 15.9368 31.3683 15.9271L38.97 15.1763C39.0127 15.1972 39.0564 15.2186 39.101 15.2404C42.6946 16.9991 52.2199 21.6609 58.7568 21.6609C59.4275 21.6609 60.0759 21.5926 60.7466 21.4789ZM60.7466 21.4789C61.5911 21.3326 68.8034 20.6426 71.8238 20.3537C72.5618 20.2831 73.0495 20.2364 73.1329 20.2275C73.5417 20.2275 82.3723 20.2512 89.6177 20.2707C94.6577 20.2842 98.9306 20.2957 99.0682 20.2957C111.444 20.6801 122.936 20.2556 128.52 20.0493L128.625 20.0454L128.823 20.0378C130.477 19.9738 131.545 19.9325 131.867 19.9544M131.867 19.9544C131.881 19.9544 131.916 19.9554 131.969 19.9569C132.693 19.9769 136.854 20.0922 138.687 19.1808C138.84 19.1767 139.032 19.1754 139.261 19.1766C139.037 19.1746 138.845 19.1747 138.686 19.1771C138.686 19.1771 138.685 19.1771 138.685 19.1771C138.65 19.1776 138.616 19.1783 138.584 19.179C137.754 19.5843 136.455 19.7787 135.223 19.8728C133.978 19.9679 132.713 19.9657 131.869 19.9342L131.867 19.9544ZM73.0244 19.7359C73.0313 19.7352 73.0377 19.7346 73.0435 19.734C73.0594 19.7324 73.0715 19.7312 73.0797 19.7303L73.1062 19.7275H73.1329C73.4804 19.7275 79.8816 19.7445 86.2361 19.7616L89.636 19.7707C94.3686 19.7835 98.4202 19.7943 99.0004 19.7956L99.0011 19.7724M73.0244 19.7359L38.9923 14.6302C39.037 14.6302 39.0594 14.6302 39.1041 14.6529L39.1112 14.6565C42.8523 16.5031 54.2221 22.1152 60.5901 20.9783C61.51 20.8028 69.6577 20.0254 72.2482 19.7783C72.6799 19.7371 72.9573 19.7106 73.0212 19.7041M73.0244 19.7359L73.0212 19.7041M73.0244 19.7359L73.0212 19.7041M99.0011 19.7724V19.7956C99.0375 19.7957 99.0601 19.7957 99.0682 19.7957H99.076L99.0837 19.796C111.442 20.1798 122.921 19.7558 128.504 19.5496L128.537 19.5484L128.606 19.5458L128.607 19.5458L128.884 19.5351C130.34 19.4787 131.368 19.4389 131.799 19.451C131.799 19.451 131.799 19.451 131.799 19.451C131.832 19.4519 131.861 19.4531 131.887 19.4546C131.911 19.4551 131.947 19.456 131.995 19.4573C132.358 19.4671 133.387 19.4948 134.59 19.4351C135.296 19.4001 136.047 19.3354 136.738 19.2211C137.422 19.1079 138.015 18.951 138.44 18.7449C138.445 18.7426 138.449 18.7403 138.454 18.7381C138.457 18.7364 138.461 18.7348 138.464 18.7331L138.53 18.7002L138.531 18.7L138.563 18.684L138.673 18.681C138.83 18.6768 139.026 18.6754 139.26 18.6767C138.96 18.674 138.715 18.6751 138.53 18.6802C138.485 18.6802 138.441 18.6802 138.418 18.703C136.965 19.4539 133.455 19.4994 131.8 19.4311C131.502 19.4109 130.602 19.4446 129.117 19.5004C128.932 19.5073 128.739 19.5146 128.536 19.5221L128.431 19.526C122.846 19.7323 111.354 20.1568 99.0011 19.7724ZM99.0011 19.7724C98.88 19.7724 95.6006 19.7635 91.4094 19.7521C83.9905 19.732 73.715 19.7041 73.0435 19.7041H73.0212M174.728 12.7644L175.123 13.0624C175.626 12.4091 176.274 11.6692 176.993 11.1335C177.546 10.7174 178.11 10.4405 178.66 10.3756M174.728 12.7644C175.252 12.0785 175.929 11.3074 176.694 10.7324C177.264 10.3073 177.915 9.971 178.611 9.90082M174.728 12.7644L175.121 13.0653C175.117 13.0712 175.112 13.0771 175.108 13.083C174.698 13.6221 174.172 14.0476 173.581 14.337L158.542 11.4533L158.54 11.4523C158.68 11.5213 158.814 11.5882 158.943 11.6524C159.473 11.9161 159.911 12.1344 160.295 12.2703L160.302 12.273C160.302 12.2731 160.303 12.2733 160.303 12.2734C161.291 12.6409 163.2 13.0325 165.308 13.3862C167.4 13.7373 169.639 14.0434 171.256 14.2477C171.264 14.2487 171.272 14.2496 171.28 14.2506M174.728 12.7644C174.723 12.7702 174.719 12.7759 174.715 12.7817C174.714 12.7822 174.714 12.7827 174.713 12.7832C174.349 13.2604 173.883 13.6366 173.359 13.889C172.723 14.2007 172.001 14.3332 171.281 14.2506M178.611 9.90082C178.61 9.9009 178.609 9.90098 178.608 9.90106L178.66 10.3756M178.611 9.90082C178.611 9.90074 178.612 9.90067 178.613 9.9006L178.66 10.3756M178.611 9.90082C178.621 9.89967 178.632 9.89859 178.642 9.89757M178.66 10.3756C178.66 10.3756 178.66 10.3756 178.66 10.3756M178.66 10.3756L178.663 10.3981L178.66 10.3756M178.66 10.3756C178.67 10.3745 178.679 10.3735 178.688 10.3725M178.642 9.89757L178.685 10.3728C178.686 10.3727 178.687 10.3726 178.688 10.3725M178.642 9.89757C178.642 9.89756 178.642 9.89755 178.643 9.89754M178.642 9.89757L178.64 9.87479L178.643 9.89754M178.688 10.3725C178.689 10.3724 178.69 10.3723 178.692 10.3721L178.643 9.89754M178.688 10.3725C179.286 10.3197 179.861 10.5069 180.411 10.9815M178.643 9.89754C179.419 9.82269 180.103 10.0927 180.715 10.638M180.715 10.638L183.021 20.1728L182.97 19.6847C182.971 19.6846 182.971 19.6846 182.972 19.6845C183.976 19.5797 185.057 19.5417 186.1 19.5434C188.768 19.5504 191.179 19.8112 191.563 19.9089C191.575 19.9119 191.587 19.9148 191.6 19.9177C191.605 19.9188 191.61 19.9198 191.615 19.9209C192.029 20.0098 192.863 20.019 193.485 20.013C193.805 20.0123 194.059 20.0064 194.208 20.003C194.221 20.0026 194.234 20.0023 194.246 20.0021C194.246 20.0021 194.246 20.0021 194.247 20.0021C194.277 20.0014 194.301 20.0009 194.318 20.0006M180.715 10.638C180.716 10.6383 180.716 10.6387 180.717 10.639M180.715 10.638L194.38 20.5005V20.4817M180.715 10.638L180.411 10.9815M180.715 10.638L180.717 10.639M180.411 10.9815L180.384 11.0124L180.412 10.9816M180.411 10.9815C180.411 10.9816 180.412 10.9816 180.412 10.9816M180.412 10.9816C180.419 10.9882 180.427 10.9948 180.434 11.0015M180.412 10.9816L180.717 10.639M180.434 11.0015L181.44 11.8915L181.461 11.9099M180.434 11.0015L180.433 11.0001L180.737 10.6568M180.434 11.0015L180.737 10.6569M181.461 11.9099C181.581 12.0162 181.698 12.12 181.813 12.2225C182.357 12.7058 182.87 13.1612 183.53 13.7218C183.53 13.7219 183.53 13.722 183.531 13.7221C183.536 13.7266 183.541 13.7312 183.547 13.7358M181.461 11.9099L181.461 11.9102L181.765 11.5669M181.461 11.9099L181.765 11.5669M183.547 13.7358C184.271 14.3621 185.192 14.4442 185.911 14.5082L185.931 14.5101L185.932 14.5101L185.972 14.5137L186.016 14.0454M183.547 13.7358C183.546 13.7351 183.545 13.7345 183.544 13.7338L183.834 13.4003M183.547 13.7358C183.547 13.7363 183.548 13.7368 183.549 13.7373L183.834 13.4007M186.016 14.0454L185.974 14.5139L185.973 14.5138C186.446 14.5576 186.825 14.598 187.174 14.7024C187.175 14.7025 187.175 14.7026 187.175 14.7027C187.192 14.7077 187.209 14.7129 187.226 14.7182M186.016 14.0454C186.062 14.0499 186.109 14.0543 186.158 14.0589C186.528 14.0934 186.962 14.1337 187.337 14.2768L187.347 14.2807L187.347 14.2809C187.354 14.2835 187.36 14.2862 187.367 14.2888M186.016 14.0454C186.004 14.0442 185.991 14.0429 185.98 14.0417L185.971 14.041C185.14 13.9705 184.404 13.9016 183.834 13.4007M187.226 14.7182C187.281 14.7372 187.336 14.7551 187.389 14.7727C187.544 14.8238 187.69 14.872 187.841 14.9336C187.841 14.9336 187.841 14.9337 187.841 14.9338C187.842 14.9339 187.842 14.9339 187.842 14.934L187.858 14.9407L187.875 14.9461L187.934 14.9652C188.547 15.1658 189.178 15.3718 189.84 15.7786C190.516 16.1943 191.242 16.8316 191.977 17.9142L192.047 18.0185L192.047 18.0188L192.12 18.1262L192.211 18.1287L192.376 18.1334C193.089 18.1535 193.661 18.3693 194.054 18.6534C194.454 18.9423 194.638 19.2742 194.665 19.5245M187.226 14.7182C187.227 14.7186 187.228 14.719 187.229 14.7194L187.367 14.2891M187.226 14.7182C187.224 14.7178 187.223 14.7173 187.222 14.7169L187.367 14.2888M194.665 19.5245C194.665 19.5289 194.666 19.5334 194.666 19.5378C194.666 19.5383 194.666 19.5388 194.666 19.5393C194.678 19.7508 194.565 19.9292 194.318 20.0006M194.665 19.5245C194.665 19.5234 194.665 19.5222 194.665 19.5211L195.1 19.4822M194.665 19.5245C194.665 19.5257 194.665 19.5269 194.665 19.528L195.1 19.4831M194.318 20.0006C194.303 20.0049 194.288 20.0088 194.272 20.0123L194.335 20.2983L194.376 20.4827C194.378 20.4824 194.379 20.482 194.38 20.4817M194.318 20.0006C194.325 20.0005 194.331 20.0005 194.335 20.0005H194.336H194.336H194.336H194.336H194.336H194.336H194.336H194.337H194.337H194.337H194.337H194.337H194.337H194.337H194.337H194.338H194.338H194.338H194.338H194.338H194.338H194.338H194.338H194.339H194.339H194.339H194.339H194.339H194.34H194.34H194.34H194.34H194.34H194.34H194.341H194.341H194.341H194.341H194.341H194.342H194.342H194.342H194.342H194.342H194.343H194.343H194.343H194.343H194.344H194.344H194.344H194.344H194.344H194.344H194.345H194.345H194.345H194.345H194.345H194.346H194.346H194.346H194.346H194.346H194.347H194.347H194.347H194.347H194.347H194.347H194.348H194.348H194.348H194.348H194.348H194.348H194.349H194.349H194.349H194.349H194.349H194.349H194.35H194.35H194.35H194.35H194.35H194.35H194.351H194.351H194.351H194.351H194.351H194.351H194.351H194.352H194.352H194.352H194.352H194.352H194.352H194.352H194.353H194.353H194.353H194.353H194.353H194.353H194.353H194.354H194.354H194.354H194.354H194.354H194.354H194.354H194.355H194.355H194.355H194.355H194.355H194.355H194.355H194.355H194.356H194.356H194.356H194.356H194.356H194.356H194.356H194.357H194.357H194.357H194.357H194.357H194.357H194.357H194.357H194.358H194.358H194.358H194.358H194.358H194.358H194.358H194.359H194.359H194.359H194.359H194.359H194.359H194.359H194.359H194.36H194.36H194.36H194.36H194.36H194.36H194.36H194.36H194.361H194.361H194.361H194.361H194.361H194.361H194.361H194.362H194.362H194.362H194.362H194.362H194.362H194.362H194.363H194.363H194.363H194.363H194.363H194.363H194.363H194.364H194.364H194.364H194.364H194.364H194.364H194.364H194.365H194.365H194.365H194.365H194.365H194.365H194.365H194.366H194.366H194.366H194.366H194.366H194.366H194.367H194.367H194.367H194.367H194.367H194.367H194.368H194.368H194.368H194.368H194.368H194.368H194.369H194.369H194.369H194.369H194.369H194.37H194.37H194.37H194.37H194.37H194.37H194.371H194.371H194.371H194.371H194.371H194.372H194.372H194.372H194.372H194.372H194.373H194.373H194.373H194.373H194.373H194.374H194.374H194.374H194.374H194.374H194.375H194.375H194.375H194.375H194.375H194.376H194.376H194.376H194.376H194.376H194.377H194.377H194.377H194.377H194.377H194.377H194.378H194.378H194.378H194.378H194.378H194.378H194.378H194.378H194.379H194.379H194.379H194.379H194.379H194.379H194.379H194.379H194.38H194.38H194.38H194.38H194.38H194.38V20.4817M194.604 19.5449C194.626 19.7951 194.514 19.9317 194.246 19.9999L194.604 19.5449ZM194.604 19.5449C194.537 18.9533 193.687 18.1569 192.211 18.1569C192.122 18.1569 192.055 18.1114 192.01 18.0432C190.539 15.8422 189.112 15.3836 187.84 14.9749L187.829 14.9715M194.604 19.5449L187.829 14.9715M187.829 14.9715C187.606 14.9032 187.382 14.835 187.159 14.744M187.829 14.9715L187.159 14.744M171.281 14.2506L171.284 14.2213L171.28 14.2506M171.281 14.2506C171.28 14.2506 171.28 14.2506 171.28 14.2506M171.281 14.2506L171.28 14.2506M133.589 10.2694L133.597 10.2281L133.644 9.99917C133.639 9.99808 133.62 9.99456 133.589 9.98871C133.589 9.98872 133.589 9.98872 133.589 9.98873C133.586 9.98886 133.582 9.98899 133.579 9.98912M133.589 10.2694L133.544 10.4891L133.544 10.2082L133.544 9.98912H133.544H133.544H133.544H133.544H133.545H133.545H133.545H133.545H133.545H133.545H133.545H133.545H133.545H133.545H133.545H133.545H133.545H133.545H133.545H133.546H133.546H133.546H133.546H133.546H133.546H133.546H133.546H133.546H133.546H133.546H133.546H133.547H133.547H133.547H133.547H133.547H133.547H133.547H133.547H133.547H133.547H133.548H133.548H133.548H133.548H133.548H133.548H133.548H133.548H133.548H133.548H133.548H133.548H133.549H133.549H133.549H133.549H133.549H133.549H133.549H133.549H133.549H133.549H133.549H133.549H133.549H133.549H133.549H133.549H133.55H133.55H133.55H133.55H133.55H133.55H133.55H133.55H133.55H133.55H133.55H133.55H133.55H133.55H133.551H133.551H133.551H133.551H133.551H133.551H133.551H133.551H133.551H133.551H133.551H133.551H133.551H133.551H133.552H133.552H133.552H133.552H133.552H133.552H133.552H133.552H133.552H133.552H133.552H133.552H133.553H133.553H133.553H133.553H133.553H133.553H133.553H133.553H133.553H133.553H133.553H133.553H133.553H133.554H133.554H133.554H133.554H133.554H133.554H133.554H133.554H133.554H133.554H133.554H133.555H133.555H133.555H133.555H133.555H133.555H133.555H133.555H133.555H133.555H133.555H133.555H133.556H133.556H133.556H133.556H133.556H133.556H133.556H133.556H133.556H133.556H133.557H133.557H133.557H133.557H133.557H133.557H133.557H133.557H133.557H133.557H133.557H133.558H133.558H133.558H133.558H133.558H133.558H133.558H133.558H133.558H133.558H133.559H133.559H133.559H133.559H133.559H133.559H133.559H133.559H133.559H133.559H133.56H133.56H133.56H133.56H133.56H133.56H133.56H133.56H133.56H133.56H133.561H133.561H133.561H133.561H133.561H133.561H133.561H133.561H133.561H133.562H133.562H133.562H133.562H133.562H133.562H133.562H133.562H133.562H133.562H133.563H133.563H133.563H133.563H133.563H133.563H133.563H133.563H133.563H133.564H133.564H133.564H133.564H133.564H133.564H133.564H133.564H133.564H133.565H133.565H133.565H133.565H133.565H133.565H133.565H133.565H133.565H133.566H133.566H133.566H133.566H133.566H133.566H133.566H133.566H133.567H133.567H133.567H133.567H133.567H133.567H133.567H133.567H133.567H133.568H133.568H133.568H133.568H133.568H133.568H133.568H133.568H133.568H133.569H133.569H133.569H133.569H133.569H133.569H133.569H133.569H133.57H133.57H133.57H133.57H133.57H133.57H133.57H133.57H133.571H133.571H133.571H133.571H133.571H133.571H133.571H133.571H133.571H133.572H133.572H133.572H133.572H133.572H133.572H133.572H133.572H133.573H133.573H133.573H133.573H133.573H133.573H133.573H133.573H133.574H133.574H133.574H133.574H133.574H133.574H133.574H133.574H133.575H133.575H133.575H133.575H133.575H133.575H133.575H133.575H133.576H133.576H133.576H133.576H133.576H133.576H133.576H133.576H133.577H133.577H133.577H133.577H133.577H133.577H133.577H133.577H133.578H133.578H133.578H133.578H133.578H133.578H133.578H133.578H133.579H133.579H133.579M133.589 10.2694V9.98912H133.589H133.588H133.588H133.588H133.588H133.588H133.588H133.588H133.588H133.587H133.587H133.587H133.587H133.587H133.587H133.587H133.587H133.586H133.586H133.586H133.586H133.586H133.586H133.586H133.585H133.585H133.585H133.585H133.585H133.585H133.585H133.585H133.584H133.584H133.584H133.584H133.584H133.584H133.584H133.584H133.583H133.583H133.583H133.583H133.583H133.583H133.583H133.582H133.582H133.582H133.582H133.582H133.582H133.582H133.582H133.581H133.581H133.581H133.581H133.581H133.581H133.581H133.581H133.58H133.58H133.58H133.58H133.58H133.58H133.58H133.58H133.579H133.579H133.579H133.579H133.579M133.589 10.2694L133.569 9.98952C133.572 9.98939 133.576 9.98925 133.579 9.98912M136.913 9.87705C136.904 9.87978 136.896 9.88233 136.89 9.88426L136.871 9.89049L136.867 9.89195L136.874 9.89002C136.879 9.88854 136.891 9.88543 136.907 9.88252C136.912 9.88161 136.918 9.8805 136.926 9.87943M136.913 9.87705L137.047 9.85346C137.056 9.85292 137.066 9.8526 137.077 9.8526V10.2635V10.3526L136.987 10.0714L136.965 10.0011L136.926 9.87943M136.913 9.87705C136.918 9.87694 136.922 9.87683 136.925 9.87673M136.913 9.87705L136.965 9.87479C136.955 9.87479 136.943 9.87489 136.928 9.87509C136.927 9.87543 136.926 9.87577 136.925 9.87612L136.925 9.87673M136.926 9.87943L136.925 9.87673M136.926 9.87943C136.937 9.87799 136.95 9.87662 136.965 9.8759C136.965 9.87589 136.965 9.87589 136.965 9.87588C136.968 9.87575 136.971 9.87564 136.974 9.87556C136.971 9.87561 136.968 9.87567 136.965 9.87574C136.965 9.87574 136.965 9.87574 136.965 9.87574C136.955 9.87597 136.941 9.8763 136.925 9.87673M194.38 20.4817C194.564 20.4336 194.774 20.3427 194.926 20.1515C195.089 19.9459 195.12 19.707 195.102 19.5004L195.102 19.5004L195.101 19.4885C195.1 19.4867 195.1 19.4849 195.1 19.4831M195.1 19.4831L195.163 19.4766L195.1 19.4822M195.1 19.4831C195.1 19.4828 195.1 19.4825 195.1 19.4822M195.1 19.4822C195.042 18.9947 194.692 18.5359 194.215 18.2144C193.756 17.905 193.137 17.69 192.39 17.6604C192.378 17.66 192.366 17.6595 192.354 17.6592M192.354 17.6592C192.354 17.6589 192.354 17.6587 192.354 17.6585C191.605 16.5652 190.854 15.8771 190.11 15.4099C189.364 14.9406 188.644 14.7082 188.019 14.5072C188.018 14.5069 188.017 14.5066 188.016 14.5063C188.013 14.5054 188.011 14.5045 188.008 14.5036L187.982 14.4954L187.975 14.4933C187.756 14.4264 187.56 14.3662 187.367 14.2891M192.354 17.6592C192.354 17.6591 192.353 17.6591 192.353 17.6591C192.306 17.6577 192.259 17.6569 192.211 17.6569C192.246 17.6569 192.284 17.6645 192.321 17.6808C192.33 17.6852 192.34 17.6901 192.349 17.6957C192.364 17.7046 192.377 17.714 192.388 17.7233C192.405 17.7386 192.418 17.7536 192.426 17.7653C192.413 17.7465 192.401 17.7278 192.388 17.7092C192.377 17.6924 192.365 17.6758 192.354 17.6592ZM187.367 14.2891L187.382 14.2434L187.367 14.2888M187.367 14.2891C187.367 14.289 187.367 14.2889 187.367 14.2888M183.834 13.4007L183.872 13.356L183.834 13.4003M183.834 13.4007C183.834 13.4006 183.834 13.4004 183.834 13.4003M183.834 13.4003C183.831 13.3976 183.827 13.3949 183.824 13.3921L183.821 13.3895C183.286 12.9206 182.852 12.5335 182.415 12.145C182.203 11.9559 181.99 11.7664 181.765 11.5669M181.765 11.5669C181.758 11.5607 181.751 11.5546 181.744 11.5484L181.744 11.5481L180.737 10.6569M180.737 10.6569L180.763 10.6266L180.737 10.6568M180.737 10.6569L180.737 10.6568M180.737 10.6568L180.717 10.639M187.159 14.744C186.853 14.6274 186.499 14.5938 186.124 14.5581M187.159 14.744L186.124 14.5581M186.124 14.5581C186.059 14.552 185.994 14.5458 185.929 14.5392M186.124 14.5581L185.929 14.5392M185.929 14.5392L185.89 14.5359M185.929 14.5392L185.89 14.5359M185.89 14.5359C185.095 14.4686 184.196 14.3925 183.492 13.7656L185.89 14.5359ZM177.063 20.3884L177.075 20.3844L177.093 20.3718L177.097 20.369L177.132 20.3454C177.127 20.349 177.115 20.3568 177.097 20.3651C177.096 20.3659 177.094 20.3667 177.092 20.3675C177.081 20.3726 177.069 20.3777 177.055 20.3821C177.037 20.3878 177.023 20.3902 177.019 20.3909C177.015 20.3914 177.017 20.391 177.025 20.3903C177.034 20.3896 177.046 20.389 177.063 20.3884ZM176.859 19.9268C176.894 19.9042 176.927 19.8942 177.02 19.8897L176.967 19.904C176.938 19.9118 176.902 19.9195 176.859 19.9268ZM177.149 19.8867C177.211 19.8862 177.29 19.8862 177.388 19.8862C178.417 19.8862 181.1 19.8407 182.911 19.6814L177.149 19.8867Z" fill="black" stroke="black"/>
<path d="M70.9195 15.4493C72.7305 16.3367 75.4582 18.0887 74.5415 19.9317C74.5415 19.9317 71.7244 21.5699 69.4662 22.025C67.5211 22.4118 64.5028 22.6393 63.0495 22.6393C60.7466 22.662 46.8847 21.1148 46.3258 21.2286L45.7444 21.2513C45.5209 21.3424 44.9172 21.6381 44.6489 21.7974C43.9335 22.2297 41.8094 22.571 40.9375 22.6393C39.3054 22.7303 37.2708 22.3435 36.6 21.9339C35.9517 22.0705 35.2138 22.2297 34.6773 22.207C34.163 22.4118 32.7545 22.8441 32.7545 22.8441C32.7545 22.8441 31.0776 23.6177 30.2727 23.5039C30.1162 23.4812 29.8926 23.2764 29.8479 23.1399C29.4455 23.2764 28.9983 23.3674 28.7077 23.3219C28.2829 23.2536 28.1264 23.0716 28.0817 22.9123C27.9028 22.8441 27.7016 22.7075 27.6345 22.5028C27.5003 22.0022 29.8256 21.2286 29.8256 21.2286C29.8256 21.2286 30.6305 20.819 32.039 20.3867C32.8215 20.1592 33.4699 19.9772 34.0065 19.7951C34.8114 19.4766 35.8175 19.4766 36.22 19.3173C36.7342 19.1126 41.6306 18.43 44.6265 17.4971C45.8115 17.3606 47.9579 17.2923 49.7465 17.1558C51.0656 16.9282 58.6673 16.6325 64.6816 16.4504L70.9195 15.4493Z" fill="#E4E4E4"/>
<path d="M30.4515 23.7769C30.3845 23.7769 30.3174 23.7769 30.2503 23.7542C30.0938 23.7314 29.8926 23.5949 29.7361 23.4356C29.2889 23.5722 28.9312 23.6177 28.6629 23.5722C28.171 23.5039 27.9698 23.2764 27.8804 23.0943C27.6344 22.9806 27.4556 22.7986 27.3885 22.571C27.2544 22.0705 28.0369 21.5471 29.7361 20.9783C29.8702 20.91 30.6528 20.5232 31.9719 20.1364C32.3296 20.0227 32.665 19.9317 32.978 19.8406C33.3357 19.7269 33.6487 19.6359 33.9394 19.5676C34.4089 19.3856 34.9679 19.2946 35.4374 19.2263C35.728 19.1808 35.9963 19.1353 36.1528 19.0898C36.3317 19.0215 36.8906 18.9078 38.0085 18.703C39.8419 18.3617 42.6143 17.8611 44.5594 17.2468C44.5818 17.2468 44.5818 17.2468 44.6041 17.2468C45.3196 17.1558 46.3704 17.1103 47.4659 17.042C48.2261 16.9965 48.9863 16.951 49.7241 16.9055C51.0209 16.678 58.153 16.3822 64.6816 16.2001C64.8157 16.2001 64.9275 16.3139 64.9499 16.4504C64.9499 16.5869 64.8381 16.7007 64.7039 16.7235C58.1754 16.9282 51.0432 17.224 49.8135 17.4288H49.7912C49.0534 17.4743 48.2708 17.5198 47.5107 17.5653C46.4151 17.6336 45.3867 17.6791 44.6936 17.7701C42.7261 18.3844 39.9313 18.9078 38.098 19.2263C37.226 19.3856 36.4882 19.5221 36.3317 19.5676C36.1305 19.6359 35.8398 19.6814 35.5044 19.7269C35.0573 19.7951 34.543 19.8634 34.0959 20.0454C33.7829 20.1364 33.4699 20.2274 33.1121 20.3412C32.7991 20.4322 32.4638 20.5232 32.106 20.637C30.7422 21.0466 29.9597 21.4561 29.9373 21.4561C29.915 21.4561 29.915 21.4789 29.8926 21.4789C28.9088 21.7974 27.9922 22.2525 27.8804 22.4573C27.9251 22.571 28.0592 22.6393 28.1487 22.662C28.2381 22.6848 28.3052 22.7758 28.3052 22.8668C28.3052 22.8896 28.3946 23.0261 28.7076 23.0716C28.8641 23.0943 29.1771 23.0943 29.7361 22.9123C29.8702 22.8668 30.0044 22.9351 30.0491 23.0716C30.0715 23.1171 30.2056 23.2309 30.2727 23.2536C30.854 23.3446 32.1731 22.8213 32.6203 22.6165C32.6203 22.6165 32.6426 22.6165 32.6426 22.5938C32.665 22.5938 34.0512 22.1615 34.543 21.9567C34.5654 21.9339 34.6101 21.9339 34.6325 21.9339C35.1691 21.9567 35.9292 21.7747 36.5105 21.6609C36.5776 21.6381 36.6447 21.6609 36.6894 21.6836C37.3154 22.0705 39.3277 22.4573 40.8704 22.3662C41.72 22.3207 43.7992 21.9567 44.47 21.5699C44.7383 21.4106 45.3419 21.1376 45.5879 21.0238C45.6102 21.0011 45.655 21.0011 45.6773 21.0011L46.2586 20.9783C46.6163 20.9328 48.5168 21.1148 52.9884 21.5471C57.0575 21.9339 61.6856 22.389 62.9824 22.389C63.0047 22.389 63.0047 22.389 63.0271 22.389C64.4804 22.389 67.4987 22.1615 69.3991 21.7747C71.389 21.3651 73.8931 19.9999 74.3402 19.7496C74.4967 19.4083 74.4967 19.067 74.3849 18.703C73.9154 17.3378 71.7243 16.1319 70.8077 15.6996C65.2405 12.992 61.8868 11.4902 60.5677 11.1262C58.9356 10.6484 56.2526 9.05566 54.1286 7.78149C53.0107 7.12165 51.7587 6.37079 51.4904 6.32529C51.3562 6.34804 51.2444 6.25703 51.2221 6.12051C51.1997 5.98399 51.2668 5.84747 51.4233 5.80197C51.6916 5.73371 52.2729 6.05225 54.3969 7.32643C56.4091 8.50959 59.1368 10.1478 60.7242 10.6029C62.0657 10.9897 65.4417 12.4914 71.0536 15.2218C72.2833 15.8133 74.3849 17.0193 74.8992 18.521C75.078 19.0443 75.0333 19.5449 74.8097 20.0454C74.7874 20.0909 74.7427 20.1364 74.6979 20.1592C74.5862 20.2274 71.8138 21.8202 69.5333 22.2752C67.4987 22.6848 64.4804 22.8896 63.0494 22.8896C63.0271 22.8896 63.0271 22.8896 63.0047 22.8896C61.6856 22.8896 57.0575 22.4345 52.966 22.0477C49.8582 21.7519 46.6611 21.4334 46.3481 21.4789H46.3257L45.7891 21.5016C45.5655 21.6154 45.0066 21.8657 44.7606 22.0022C43.9781 22.4573 41.8317 22.8213 40.9374 22.8668C39.3053 22.9578 37.3378 22.5938 36.5553 22.1615C35.9963 22.2752 35.2585 22.4345 34.7219 22.4345C34.2077 22.6393 33.0003 23.0033 32.8438 23.0488C32.6203 23.1854 31.3011 23.7769 30.4515 23.7769Z" fill="black"/>
<path d="M52.9882 16.9965C52.9658 16.9965 52.9435 16.9965 52.9211 16.9965C52.5187 16.9055 51.7585 16.86 50.8865 16.7917C48.7402 16.6552 45.7889 16.4732 44.1344 15.3583C44.0226 15.29 43.9779 15.1307 44.0674 14.9942C44.1344 14.8805 44.2909 14.835 44.4251 14.926C45.9901 15.9726 48.852 16.1546 50.9312 16.2684C51.8703 16.3367 52.6081 16.3822 53.0553 16.4732C53.1894 16.4959 53.2788 16.6552 53.2341 16.7917C53.2118 16.9055 53.1 16.9965 52.9882 16.9965Z" fill="black"/>
<path d="M29.8478 23.4128C29.7807 23.4128 29.7136 23.39 29.6689 23.3445C29.6018 23.2763 29.5795 23.1853 29.5795 23.0715C29.6018 22.9577 29.6465 22.6164 32.1059 21.365C32.1059 21.365 32.1283 21.365 32.1283 21.3423C32.1283 21.3423 33.2238 20.9555 34.61 20.5232C35.9962 20.1136 36.3986 19.9543 37.0917 19.704C37.2259 19.6585 37.36 19.7268 37.4271 19.8633C37.4718 19.9998 37.4048 20.1364 37.2706 20.2046C36.5775 20.4776 36.1527 20.6142 34.7665 21.0465C33.4698 21.4333 32.4636 21.7973 32.3295 21.8428C31.4128 22.3206 30.3396 22.935 30.1161 23.1853C30.1161 23.2535 30.0937 23.3218 30.049 23.3673C29.9819 23.39 29.9148 23.4128 29.8478 23.4128Z" fill="black"/>
<path d="M28.0815 23.1854C27.9473 23.1854 27.8579 23.0944 27.8356 22.9579C27.7685 22.4345 29.8701 21.4789 30.1384 21.4107C30.3844 21.3424 31.7258 20.7963 32.9108 20.3185C35.795 19.1353 35.8397 19.1353 35.9739 19.1581C36.108 19.1809 36.1974 19.3174 36.1751 19.4539C36.1527 19.5677 36.0409 19.6587 35.9291 19.6587C35.7056 19.7042 34.2523 20.2958 33.112 20.7736C31.7929 21.3196 30.5632 21.8202 30.2726 21.8885C29.7807 22.025 28.5287 22.7531 28.3274 22.9806C28.3051 23.0716 28.2156 23.1399 28.1262 23.1626C28.1039 23.1854 28.0815 23.1854 28.0815 23.1854Z" fill="black"/>
<path d="M22.112 3.61756C18.2441 3.77683 14.3091 6.803 14.4209 10.8531C14.5774 16.7234 17.3722 19.1579 21.5084 19.7268C22.4027 19.8633 24.8621 19.522 24.8621 19.522C24.8621 19.522 28.2381 19.4082 29.2666 19.2262C31.4577 18.8394 35.4598 17.0874 35.4374 14.6983C35.415 11.3309 32.6203 7.66761 30.7199 6.18866C29.5125 5.23303 27.7463 3.39003 22.112 3.61756Z" fill="#E4E4E4"/>
<path d="M30.5636 6.4163C32.4864 7.89525 35.1693 11.4447 35.1917 14.7212L30.5636 6.4163ZM30.5636 6.4163C30.4742 6.34806 30.3624 6.25708 30.2507 6.16609M30.5636 6.4163L30.2507 6.16609M30.2507 6.16609L30.2506 6.16601L30.2507 6.16609ZM14.1752 10.8759L14.1754 10.8759L14.1752 10.8759Z" fill="black" stroke="black"/>
<path d="M28.7303 8.85088C28.6632 8.85088 28.5738 8.82813 28.5291 8.75987C28.4396 8.6461 28.462 8.48683 28.5738 8.39582C28.6632 8.32756 28.7303 8.23655 28.7974 8.12278C28.9092 7.918 28.9092 7.66772 28.8197 7.39468C28.6185 6.8031 27.9925 6.21152 27.1876 5.84747C25.9579 5.27864 24.6164 5.39241 24.2587 6.075C24.0351 6.50731 24.2587 7.12164 24.84 7.69047C24.9518 7.78148 24.9518 7.94076 24.8624 8.05452C24.7729 8.16829 24.6164 8.16829 24.5046 8.07727C23.7445 7.37193 23.4985 6.50731 23.8339 5.84747C24.3258 4.89184 25.9132 4.68706 27.4335 5.39241C28.3726 5.82471 29.088 6.53006 29.334 7.25816C29.4681 7.66772 29.4458 8.05452 29.2892 8.39582C29.1998 8.55509 29.088 8.69161 28.9539 8.80538C28.8421 8.82813 28.775 8.85088 28.7303 8.85088Z" fill="black"/>
</g>
<path d="M75.7273 54.8C75.9086 54.8 76.0526 54.8587 76.1593 54.976C76.2659 55.0827 76.3193 55.2213 76.3193 55.392V65.328C76.3193 65.5307 76.2553 65.696 76.1273 65.824C75.9993 65.9413 75.8446 66 75.6633 66C75.5673 66 75.4713 65.984 75.3753 65.952C75.2793 65.9093 75.2046 65.856 75.1513 65.792L68.3033 56.736L68.6233 56.544V65.408C68.6233 65.5787 68.5646 65.7227 68.4473 65.84C68.3406 65.9467 68.1966 66 68.0153 66C67.8446 66 67.7059 65.9467 67.5993 65.84C67.4926 65.7227 67.4393 65.5787 67.4393 65.408V55.44C67.4393 55.248 67.4979 55.0933 67.6153 54.976C67.7433 54.8587 67.8926 54.8 68.0633 54.8C68.1593 54.8 68.2553 54.8213 68.3513 54.864C68.4579 54.896 68.5379 54.9493 68.5913 55.024L75.3433 63.952L75.1353 64.208V55.392C75.1353 55.2213 75.1886 55.0827 75.2953 54.976C75.4126 54.8587 75.5566 54.8 75.7273 54.8ZM85.7188 57.648C85.9001 57.648 86.0494 57.712 86.1667 57.84C86.2948 57.9573 86.3588 58.1067 86.3588 58.288V65.344C86.3588 65.5253 86.2948 65.68 86.1667 65.808C86.0494 65.936 85.9001 66 85.7188 66C85.5268 66 85.3721 65.936 85.2548 65.808C85.1374 65.68 85.0788 65.5253 85.0788 65.344V63.824L85.3828 63.792C85.3828 64.0267 85.3028 64.2827 85.1428 64.56C84.9828 64.8373 84.7641 65.0987 84.4868 65.344C84.2094 65.5787 83.8788 65.776 83.4948 65.936C83.1214 66.0853 82.7161 66.16 82.2788 66.16C81.5534 66.16 80.9028 65.9733 80.3268 65.6C79.7508 65.216 79.2921 64.6987 78.9508 64.048C78.6201 63.3973 78.4548 62.656 78.4548 61.824C78.4548 60.9813 78.6201 60.24 78.9508 59.6C79.2921 58.9493 79.7508 58.4427 80.3268 58.08C80.9028 57.7067 81.5428 57.52 82.2468 57.52C82.7054 57.52 83.1321 57.5947 83.5268 57.744C83.9214 57.8933 84.2628 58.096 84.5508 58.352C84.8494 58.608 85.0788 58.8907 85.2388 59.2C85.4094 59.5093 85.4948 59.8187 85.4948 60.128L85.0788 60.032V58.288C85.0788 58.1067 85.1374 57.9573 85.2548 57.84C85.3721 57.712 85.5268 57.648 85.7188 57.648ZM82.4227 64.976C82.9561 64.976 83.4254 64.8373 83.8308 64.56C84.2468 64.2827 84.5668 63.9093 84.7908 63.44C85.0254 62.96 85.1428 62.4213 85.1428 61.824C85.1428 61.2373 85.0254 60.7093 84.7908 60.24C84.5668 59.76 84.2468 59.3867 83.8308 59.12C83.4254 58.8427 82.9561 58.704 82.4227 58.704C81.9001 58.704 81.4308 58.8373 81.0148 59.104C80.6094 59.3707 80.2894 59.7387 80.0548 60.208C79.8201 60.6773 79.7028 61.216 79.7028 61.824C79.7028 62.4213 79.8148 62.96 80.0388 63.44C80.2734 63.9093 80.5934 64.2827 80.9988 64.56C81.4148 64.8373 81.8894 64.976 82.4227 64.976ZM82.6628 56.672C82.2894 56.672 81.9428 56.5973 81.6228 56.448C81.3134 56.288 81.0521 56.0747 80.8388 55.808C80.6361 55.5307 80.5028 55.2213 80.4388 54.88C80.3854 54.7093 80.3961 54.5707 80.4708 54.464C80.5561 54.3573 80.6734 54.304 80.8228 54.304C80.9828 54.304 81.1108 54.3467 81.2068 54.432C81.3028 54.5067 81.3881 54.6133 81.4628 54.752C81.5481 55.0507 81.6974 55.28 81.9108 55.44C82.1241 55.6 82.3748 55.68 82.6628 55.68C82.9614 55.68 83.2121 55.6 83.4148 55.44C83.6281 55.2693 83.7774 55.04 83.8628 54.752C83.9481 54.6133 84.0334 54.5067 84.1188 54.432C84.2148 54.3467 84.3481 54.304 84.5188 54.304C84.6681 54.304 84.7801 54.3573 84.8548 54.464C84.9401 54.5707 84.9561 54.704 84.9028 54.864C84.8388 55.2053 84.7001 55.5147 84.4868 55.792C84.2841 56.0587 84.0228 56.272 83.7028 56.432C83.3934 56.592 83.0468 56.672 82.6628 56.672ZM82.7748 54.496C82.7108 54.496 82.6414 54.48 82.5668 54.448C82.5028 54.4053 82.4388 54.3627 82.3748 54.32L81.0148 53.264C80.8974 53.1893 80.8068 53.1093 80.7428 53.024C80.6894 52.928 80.6628 52.8213 80.6628 52.704C80.6628 52.5227 80.7268 52.384 80.8548 52.288C80.9828 52.1813 81.1161 52.128 81.2548 52.128C81.3934 52.128 81.5108 52.16 81.6068 52.224C81.7028 52.288 81.7881 52.3573 81.8628 52.432L83.0468 53.792C83.1428 53.8987 83.1908 54.0053 83.1908 54.112C83.1908 54.2187 83.1534 54.3093 83.0788 54.384C83.0041 54.4587 82.9028 54.496 82.7748 54.496ZM92.6829 57.6C93.4082 57.6 93.9949 57.7867 94.4429 58.16C94.9015 58.5227 95.2055 59.04 95.3549 59.712H95.1149L95.2269 59.424C95.3549 59.1253 95.5735 58.8373 95.8829 58.56C96.1922 58.2827 96.5495 58.0533 96.9549 57.872C97.3602 57.6907 97.7815 57.6 98.2189 57.6C98.9229 57.6 99.4775 57.7547 99.8829 58.064C100.288 58.3627 100.576 58.768 100.747 59.28C100.928 59.7813 101.019 60.3467 101.019 60.976V65.344C101.019 65.5253 100.955 65.68 100.827 65.808C100.71 65.936 100.56 66 100.379 66C100.187 66 100.032 65.936 99.9149 65.808C99.7975 65.68 99.7389 65.5253 99.7389 65.344V61.008C99.7389 60.592 99.6749 60.2187 99.5469 59.888C99.4295 59.5467 99.2322 59.28 98.9549 59.088C98.6882 58.8853 98.3202 58.784 97.8509 58.784C97.4135 58.784 97.0135 58.8853 96.6509 59.088C96.2882 59.28 96.0002 59.5467 95.7869 59.888C95.5735 60.2187 95.4669 60.592 95.4669 61.008V65.344C95.4669 65.5253 95.4082 65.68 95.2909 65.808C95.1735 65.936 95.0189 66 94.8269 66C94.6455 66 94.4909 65.936 94.3629 65.808C94.2455 65.68 94.1869 65.5253 94.1869 65.344V60.96C94.1869 60.5547 94.1282 60.192 94.0109 59.872C93.9042 59.5413 93.7175 59.28 93.4509 59.088C93.1842 58.8853 92.8162 58.784 92.3469 58.784C91.9202 58.784 91.5309 58.8853 91.1789 59.088C90.8269 59.28 90.5442 59.5413 90.3309 59.872C90.1175 60.192 90.0109 60.5547 90.0109 60.96V65.344C90.0109 65.5253 89.9469 65.68 89.8189 65.808C89.7015 65.936 89.5522 66 89.3709 66C89.1895 66 89.0349 65.936 88.9069 65.808C88.7895 65.68 88.7309 65.5253 88.7309 65.344V58.368C88.7309 58.1867 88.7895 58.0373 88.9069 57.92C89.0349 57.792 89.1895 57.728 89.3709 57.728C89.5629 57.728 89.7175 57.792 89.8349 57.92C89.9522 58.0373 90.0109 58.1867 90.0109 58.368V59.584L89.6589 59.968C89.7015 59.6907 89.8082 59.4133 89.9789 59.136C90.1602 58.8587 90.3895 58.6027 90.6669 58.368C90.9442 58.1333 91.2535 57.9467 91.5949 57.808C91.9362 57.6693 92.2989 57.6 92.6829 57.6ZM107.329 64.688C107.233 64.5493 107.191 64.4053 107.201 64.256C107.212 64.096 107.303 63.9573 107.473 63.84C107.58 63.7653 107.703 63.7333 107.841 63.744C107.991 63.7547 108.124 63.824 108.241 63.952C108.54 64.304 108.881 64.5867 109.265 64.8C109.649 65.0027 110.119 65.104 110.673 65.104C110.929 65.0933 111.185 65.0507 111.441 64.976C111.697 64.9013 111.911 64.7733 112.081 64.592C112.263 64.4 112.353 64.1493 112.353 63.84C112.353 63.5413 112.263 63.3067 112.081 63.136C111.9 62.9547 111.665 62.8107 111.377 62.704C111.089 62.5867 110.775 62.4853 110.433 62.4C110.081 62.304 109.735 62.1973 109.393 62.08C109.052 61.952 108.743 61.7973 108.465 61.616C108.199 61.424 107.98 61.1893 107.809 60.912C107.649 60.624 107.569 60.2773 107.569 59.872C107.569 59.392 107.697 58.976 107.953 58.624C108.22 58.272 108.572 58 109.009 57.808C109.457 57.616 109.943 57.52 110.465 57.52C110.764 57.52 111.073 57.5573 111.393 57.632C111.724 57.696 112.044 57.8133 112.353 57.984C112.663 58.144 112.935 58.368 113.169 58.656C113.265 58.7627 113.319 58.896 113.329 59.056C113.34 59.216 113.271 59.36 113.121 59.488C113.004 59.5733 112.871 59.6107 112.721 59.6C112.583 59.5893 112.465 59.536 112.369 59.44C112.145 59.1733 111.863 58.9707 111.521 58.832C111.191 58.6827 110.823 58.608 110.417 58.608C110.161 58.608 109.911 58.6453 109.665 58.72C109.42 58.7947 109.212 58.9227 109.041 59.104C108.881 59.2747 108.801 59.5147 108.801 59.824C108.812 60.112 108.908 60.3467 109.089 60.528C109.271 60.7093 109.516 60.8587 109.825 60.976C110.135 61.0827 110.476 61.1893 110.849 61.296C111.191 61.3813 111.516 61.4827 111.825 61.6C112.145 61.7067 112.433 61.8507 112.689 62.032C112.945 62.2133 113.148 62.448 113.297 62.736C113.447 63.0133 113.521 63.3653 113.521 63.792C113.521 64.2827 113.383 64.7093 113.105 65.072C112.828 65.424 112.46 65.696 112.001 65.888C111.553 66.0693 111.068 66.16 110.545 66.16C109.959 66.16 109.377 66.048 108.801 65.824C108.236 65.6 107.745 65.2213 107.329 64.688ZM122.312 57.648C122.494 57.648 122.643 57.712 122.76 57.84C122.889 57.9573 122.953 58.1067 122.953 58.288V65.344C122.953 65.5253 122.889 65.68 122.76 65.808C122.643 65.936 122.494 66 122.312 66C122.121 66 121.966 65.936 121.849 65.808C121.731 65.68 121.673 65.5253 121.673 65.344V63.824L121.977 63.792C121.977 64.0267 121.897 64.2827 121.737 64.56C121.577 64.8373 121.358 65.0987 121.081 65.344C120.803 65.5787 120.473 65.776 120.089 65.936C119.715 66.0853 119.31 66.16 118.873 66.16C118.147 66.16 117.497 65.9733 116.921 65.6C116.345 65.216 115.886 64.6987 115.545 64.048C115.214 63.3973 115.049 62.656 115.049 61.824C115.049 60.9813 115.214 60.24 115.545 59.6C115.886 58.9493 116.345 58.4427 116.921 58.08C117.497 57.7067 118.137 57.52 118.841 57.52C119.299 57.52 119.726 57.5947 120.121 57.744C120.515 57.8933 120.857 58.096 121.145 58.352C121.443 58.608 121.673 58.8907 121.833 59.2C122.003 59.5093 122.089 59.8187 122.089 60.128L121.673 60.032V58.288C121.673 58.1067 121.731 57.9573 121.849 57.84C121.966 57.712 122.121 57.648 122.312 57.648ZM119.016 64.976C119.55 64.976 120.019 64.8373 120.425 64.56C120.841 64.2827 121.161 63.9093 121.385 63.44C121.619 62.96 121.737 62.4213 121.737 61.824C121.737 61.2373 121.619 60.7093 121.385 60.24C121.161 59.76 120.841 59.3867 120.425 59.12C120.019 58.8427 119.55 58.704 119.016 58.704C118.494 58.704 118.025 58.8373 117.609 59.104C117.203 59.3707 116.883 59.7387 116.649 60.208C116.414 60.6773 116.297 61.216 116.297 61.824C116.297 62.4213 116.409 62.96 116.633 63.44C116.867 63.9093 117.187 64.2827 117.593 64.56C118.009 64.8373 118.483 64.976 119.016 64.976ZM119.225 55.312L117.881 56.432C117.785 56.5173 117.699 56.5867 117.625 56.64C117.561 56.6827 117.465 56.704 117.337 56.704C117.241 56.704 117.161 56.6773 117.097 56.624C117.033 56.56 117.001 56.4907 117.001 56.416C117.001 56.352 117.011 56.2987 117.033 56.256C117.054 56.2027 117.091 56.1387 117.145 56.064L118.185 54.88C118.355 54.6667 118.585 54.56 118.873 54.56H119.241C119.39 54.56 119.507 54.5813 119.593 54.624C119.689 54.6667 119.779 54.752 119.865 54.88L120.857 56.064C120.921 56.128 120.958 56.1867 120.969 56.24C120.99 56.2933 121.001 56.3467 121.001 56.4C121.001 56.4747 120.969 56.544 120.905 56.608C120.851 56.672 120.771 56.704 120.665 56.704C120.547 56.704 120.451 56.6773 120.377 56.624C120.313 56.5707 120.227 56.5067 120.121 56.432L118.729 55.264L119.225 55.312ZM121.001 55.392C120.926 55.392 120.846 55.36 120.761 55.296C120.686 55.232 120.649 55.1467 120.649 55.04C120.649 54.9653 120.681 54.88 120.745 54.784L121.705 53.216C121.769 53.1093 121.854 53.008 121.961 52.912C122.067 52.816 122.195 52.768 122.345 52.768C122.558 52.768 122.718 52.8267 122.825 52.944C122.931 53.0507 122.985 53.1947 122.985 53.376C122.974 53.4613 122.953 53.5413 122.921 53.616C122.889 53.6907 122.841 53.7707 122.777 53.856L121.561 55.136C121.486 55.2213 121.395 55.2853 121.289 55.328C121.193 55.3707 121.097 55.392 121.001 55.392ZM129.405 57.6C130.13 57.6 130.781 57.7813 131.357 58.144C131.933 58.5067 132.386 59.008 132.717 59.648C133.058 60.288 133.229 61.024 133.229 61.856C133.229 62.6773 133.058 63.4133 132.717 64.064C132.386 64.704 131.933 65.2107 131.357 65.584C130.791 65.9467 130.151 66.128 129.437 66.128C129.042 66.128 128.669 66.0693 128.317 65.952C127.975 65.824 127.661 65.664 127.373 65.472C127.095 65.2693 126.861 65.0453 126.669 64.8C126.477 64.544 126.338 64.2933 126.253 64.048L126.605 63.824V68.544C126.605 68.7253 126.546 68.88 126.429 69.008C126.311 69.136 126.157 69.2 125.965 69.2C125.783 69.2 125.629 69.136 125.501 69.008C125.383 68.8907 125.325 68.736 125.325 68.544V58.32C125.325 58.1387 125.383 57.9893 125.501 57.872C125.629 57.744 125.783 57.68 125.965 57.68C126.157 57.68 126.311 57.744 126.429 57.872C126.546 57.9893 126.605 58.1387 126.605 58.32V59.744L126.365 59.616C126.439 59.3493 126.567 59.0933 126.749 58.848C126.941 58.6027 127.17 58.3893 127.437 58.208C127.714 58.016 128.018 57.8667 128.349 57.76C128.69 57.6533 129.042 57.6 129.405 57.6ZM129.261 58.784C128.727 58.784 128.253 58.9173 127.837 59.184C127.431 59.4507 127.111 59.8133 126.877 60.272C126.653 60.7307 126.541 61.2587 126.541 61.856C126.541 62.4427 126.653 62.9707 126.877 63.44C127.111 63.9093 127.431 64.2773 127.837 64.544C128.253 64.8107 128.727 64.944 129.261 64.944C129.794 64.944 130.263 64.8107 130.669 64.544C131.074 64.2773 131.394 63.9093 131.629 63.44C131.863 62.9707 131.981 62.4427 131.981 61.856C131.981 61.2587 131.863 60.7307 131.629 60.272C131.394 59.8133 131.074 59.4507 130.669 59.184C130.263 58.9173 129.794 58.784 129.261 58.784Z" fill="#4F46E5"/>
<defs>
<clipPath id="clip0_2_504">
<rect width="200" height="40" fill="white"/>
</clipPath>
</defs>
</svg>
