<svg width="294" height="97" viewBox="0 0 294 97" fill="none" xmlns="http://www.w3.org/2000/svg">
<g clip-path="url(#clip0_139_924)">
<path d="M286.994 57.0586H6.67772C3.81836 57.0586 1.48486 54.7162 1.48486 51.8459V33.4693C1.48486 30.599 3.81836 28.2566 6.67772 28.2566H286.994C289.853 28.2566 292.186 30.599 292.186 33.4693V51.8459C292.186 54.7162 289.853 57.0586 286.994 57.0586Z" fill="#E4E4E4" stroke="black" stroke-miterlimit="10"/>
<path d="M23.1382 29.0332V57.8352" stroke="black" stroke-miterlimit="10"/>
<path d="M44.2383 29.0332V57.8352" stroke="black" stroke-miterlimit="10"/>
<path d="M70.7939 37.4131V57.8352" stroke="black" stroke-miterlimit="10"/>
<path d="M95.5093 37.4131V57.8352" stroke="black" stroke-miterlimit="10"/>
<path d="M121.54 36.1265V57.8352" stroke="black" stroke-miterlimit="10"/>
<path d="M145.499 39.8545V57.8352" stroke="black" stroke-miterlimit="10"/>
<path d="M174.75 35.1367V57.8352" stroke="black" stroke-miterlimit="10"/>
<path d="M207.254 34.4109V57.8352" stroke="black" stroke-miterlimit="10"/>
<path d="M240.91 32.8931V57.835" stroke="black" stroke-miterlimit="10"/>
<path d="M270.883 34.4109V57.8352" stroke="black" stroke-miterlimit="10"/>
<path d="M61.4201 27.1195V27.1544L61.4247 27.1875L61.4247 27.1876L61.4248 27.188L61.4248 27.1884L61.4249 27.1889L61.4253 27.192C61.4259 27.1969 61.4269 27.2056 61.4281 27.2177C61.4306 27.242 61.434 27.2801 61.4369 27.3301C61.4427 27.4303 61.4466 27.5767 61.4376 27.7536C61.4196 28.1103 61.3502 28.5737 61.1532 29.028C60.9585 29.477 60.6401 29.9161 60.1154 30.2452C59.5888 30.5754 58.8184 30.8173 57.6837 30.8095H57.6803H57.4503H19.9828H19.7527C18.644 30.8095 17.8927 30.5648 17.3797 30.2345C16.8681 29.905 16.5575 29.4674 16.3678 29.0195C16.1759 28.5666 16.1092 28.1055 16.0925 27.7507C16.0842 27.5749 16.0884 27.4293 16.0945 27.3298C16.0975 27.2801 16.1009 27.2422 16.1034 27.2181C16.1047 27.206 16.1057 27.1975 16.1063 27.1926L16.1068 27.1886L16.1068 27.1882L16.1068 27.1881C16.1069 27.1879 16.1069 27.1878 16.1068 27.188L16.1116 27.1547V27.1195C16.1116 26.6555 16.2481 26.2807 16.4251 25.7946C16.4817 25.6394 16.5423 25.4729 16.604 25.2885C16.9241 24.5755 17.3961 23.832 18.2572 23.1584C19.1322 22.474 20.4374 21.8397 22.4543 21.4059C24.2525 21.019 28.7205 20.5916 31.2415 20.4929C35.0095 20.3614 42.5221 20.3614 46.2901 20.4929C48.8122 20.5916 53.3117 21.0192 55.0755 21.4055L55.0781 21.406C57.1104 21.8398 58.4232 22.4819 59.298 23.17C60.161 23.8488 60.6246 24.5933 60.9283 25.2894C60.9816 25.4415 61.0343 25.5823 61.0843 25.7159C61.2711 26.2148 61.4201 26.6128 61.4201 27.1195Z" fill="#EAEAEA" stroke="black" stroke-miterlimit="10"/>
<path d="M275.254 20.9828C277.325 21.7416 279.888 22.0056 282.55 25.8986C286.199 25.8986 287.48 28.9339 285.574 29.3298C285.574 29.3298 282.518 29.4288 281.499 29.1979C280.71 28.9999 274.104 28.373 268.911 28.8679C265.624 29.1979 260.234 29.1649 260.201 29.1979C259.215 30.1546 209.587 27.2513 203.672 27.4493C201.305 28.67 195.817 28.67 193.746 28.571C191.675 28.472 169.721 29.8247 145.531 29.0659C145.038 29.0659 107.374 28.9669 107.374 28.9669C107.374 28.9669 90.7104 30.5175 89.1328 30.8145C79.8645 32.4641 63.8258 24.7769 57.3183 21.6097L46.0781 22.7314C47.6228 21.5767 39.2419 9.1057 39.6691 9.46861C43.1858 10.6233 56.8253 6.79626 56.8253 6.79626C56.8253 6.79626 64.3845 0.560763 74.0472 1.31958C97.1522 3.10115 98.5654 4.61878 107.636 6.53232C110.562 7.15917 113.618 6.69728 116.247 5.21264C120.191 3.00217 125.746 -0.165061 135.08 0.428795C139.55 0.692732 144.282 2.60627 146.912 5.44358C147.963 6.56531 149.344 7.29114 150.856 7.42311C162.687 8.57783 196.375 14.8133 196.375 14.8133C196.375 14.8133 201.371 14.6484 201.404 14.6484C202.521 14.2855 214.813 12.8008 217.804 12.8008C226.776 12.8008 232.462 16.9908 235.519 18.1125C238.543 19.2013 246.858 20.356 251.722 20.9828C253.793 21.2468 255.863 20.389 257.145 18.7394C259.117 16.166 262.403 13.0318 265.46 15.6711C267.268 17.2217 268.319 18.1455 270.028 19.6302C271.507 20.9828 273.742 20.455 275.254 20.9828Z" fill="#E4E4E4"/>
<path d="M189.079 29.0661L189.069 28.8032C189.035 28.8044 189 28.8057 188.966 28.8069L188.966 28.807L188.809 28.8127C180.617 29.1111 163.767 29.7251 145.638 29.1737C145.635 29.1736 145.632 29.1735 145.63 29.1734C145.594 29.1724 145.559 29.1713 145.523 29.1702C145.243 29.1699 140.452 29.1571 134.352 29.1408C131.985 29.1344 129.42 29.1276 126.845 29.1207C117.927 29.0969 108.889 29.0732 107.505 29.0713C107.495 29.0713 107.486 29.0713 107.478 29.0713C107.434 29.0712 107.399 29.0712 107.373 29.0712H107.365C107.236 29.0838 106.842 29.1209 106.253 29.1764C104.664 29.3259 101.656 29.609 98.5972 29.906C94.4429 30.3095 90.2329 30.7354 89.255 30.8936L89.297 31.1446C90.5384 30.9325 101.14 29.9321 105.58 29.5131C106.665 29.4107 107.382 29.343 107.505 29.33C108.106 29.33 121.087 29.3645 131.738 29.3927C139.146 29.4124 145.427 29.429 145.63 29.429C163.821 29.9864 180.715 29.3708 188.924 29.0717L189.079 29.0661ZM189.079 29.0661L189.069 28.8031L260.333 29.561C258.722 29.9899 249.388 29.6929 226.152 28.6372C215.996 28.1753 206.366 27.7464 203.869 27.8124C201.174 29.134 195.058 28.9667 193.994 28.9377C193.916 28.9355 193.865 28.9341 193.844 28.9341M189.079 29.0661L189.37 29.055C191.8 28.9623 193.37 28.9024 193.844 28.9341M193.844 28.9341V28.6795L269.042 29.264L269.018 29.0269C268.988 29.0298 268.957 29.0328 268.927 29.0358L268.921 29.0364C266.294 29.2643 262.442 29.3323 260.859 29.3351C260.825 29.3351 260.792 29.3352 260.76 29.3352C260.557 29.3352 260.424 29.3353 260.333 29.337C260.311 29.3374 260.291 29.3379 260.273 29.3385C260.25 29.3393 260.23 29.3403 260.212 29.3415L260.192 29.355L260.127 29.3764C259.978 29.425 259.769 29.452 259.552 29.4711C259.32 29.4915 259.029 29.5064 258.687 29.5167C258.001 29.5374 257.091 29.5406 256.002 29.5295C253.823 29.5072 250.911 29.4277 247.617 29.3142C241.07 29.0888 233.003 28.7289 226.162 28.4169C226.118 28.4149 226.074 28.4129 226.031 28.4109L226.03 28.4108C215.562 27.9288 206.534 27.5427 203.863 27.5821C203.826 27.5826 203.791 27.5832 203.757 27.5839C203.723 27.5846 203.69 27.5854 203.659 27.5862C202.488 28.1669 200.595 28.4531 198.758 28.5914C196.942 28.7283 195.095 28.7254 193.861 28.6802L193.844 28.9341ZM116.412 5.57578C113.717 7.09341 110.561 7.58829 107.538 6.92845C105.838 6.56483 104.398 6.2012 103.038 5.85769C102.794 5.79602 102.552 5.735 102.312 5.67475L102.187 5.64346C96.6846 4.27068 91.824 3.05794 74.0142 1.68272C64.9418 0.982164 57.6757 6.61293 57.0921 7.06522C57.071 7.08153 57.0587 7.09111 57.0553 7.09341L116.412 5.57578ZM146.649 5.74074C144.118 3.03539 139.582 1.12185 135.047 0.824923C125.844 0.264059 120.421 3.29932 116.477 5.54278L146.649 5.74074ZM39.7546 9.39005C39.7547 9.39009 39.755 9.39135 39.7555 9.39373C39.7548 9.3912 39.7545 9.39001 39.7546 9.39005Z" fill="black" stroke="black"/>
<path d="M104.251 22.4016C106.913 23.6883 110.923 26.2287 109.575 28.901C109.575 28.901 105.434 31.2765 102.115 31.9363C99.2553 32.4972 94.8184 32.8271 92.6821 32.8271C89.2968 32.8601 68.9198 30.6166 68.0981 30.7816L67.2436 30.8146C66.915 30.9466 66.0276 31.3754 65.6332 31.6064C64.5815 32.2332 61.4592 32.7281 60.1774 32.8271C57.7781 32.9591 54.7873 32.3982 53.8013 31.8043C52.8482 32.0023 51.7636 32.2332 50.9748 32.2002C50.2189 32.4972 48.1483 33.124 48.1483 33.124C48.1483 33.124 45.6834 34.2458 44.5002 34.0808C44.2701 34.0478 43.9415 33.7509 43.8757 33.5529C43.2841 33.7509 42.6268 33.8828 42.1996 33.8169C41.5751 33.7179 41.345 33.4539 41.2793 33.223C41.0164 33.124 40.7206 32.9261 40.622 32.6291C40.4248 31.9033 43.8429 30.7816 43.8429 30.7816C43.8429 30.7816 45.0261 30.1877 47.0966 29.5609C48.2469 29.231 49.2001 28.967 49.9889 28.7031C51.172 28.2412 52.651 28.2412 53.2426 28.0103C53.9985 27.7133 61.1962 26.7236 65.6003 25.3709C67.3422 25.1729 70.4974 25.074 73.1267 24.876C75.0658 24.5461 86.2403 24.1172 95.0813 23.8533L104.251 22.4016Z" fill="#E4E4E4"/>
<path d="M44.7631 34.4767C44.6645 34.4767 44.5659 34.4767 44.4673 34.4437C44.2372 34.4107 43.9414 34.2127 43.7114 33.9818C43.054 34.1797 42.5282 34.2457 42.1338 34.1797C41.4107 34.0808 41.1149 33.7508 40.9835 33.4869C40.6219 33.322 40.359 33.058 40.2604 32.7281C40.0632 32.0023 41.2135 31.2435 43.7114 30.4187C43.9086 30.3197 45.0589 29.7588 46.998 29.1979C47.5238 29.033 48.0168 28.901 48.477 28.7691C49.0028 28.6041 49.4629 28.4721 49.8902 28.3731C50.5804 28.1092 51.4021 27.9772 52.0922 27.8783C52.5195 27.8123 52.9139 27.7463 53.144 27.6803C53.4069 27.5813 54.2285 27.4164 55.8719 27.1194C58.5669 26.6246 62.6423 25.8987 65.5017 25.008C65.5345 25.008 65.5345 25.008 65.5674 25.008C66.6191 24.876 68.1638 24.81 69.7743 24.711C70.8917 24.6451 72.0092 24.5791 73.0937 24.5131C75 24.1832 85.4843 23.7543 95.0812 23.4903C95.2784 23.4903 95.4428 23.6553 95.4756 23.8532C95.4756 24.0512 95.3113 24.2162 95.1141 24.2491C85.5172 24.5461 75.0329 24.975 73.2252 25.2719H73.1923C72.1078 25.3379 70.9574 25.4039 69.84 25.4698C68.2296 25.5688 66.7177 25.6348 65.6989 25.7668C62.8066 26.6576 58.6983 27.4164 56.0033 27.8783C54.7215 28.1092 53.637 28.3072 53.4069 28.3731C53.1111 28.4721 52.6838 28.5381 52.1908 28.6041C51.5335 28.7031 50.7776 28.802 50.1203 29.066C49.6601 29.1979 49.2 29.3299 48.6742 29.4949C48.214 29.6268 47.721 29.7588 47.1952 29.9238C45.1903 30.5176 44.04 31.1115 44.0072 31.1115C43.9743 31.1115 43.9743 31.1445 43.9414 31.1445C42.4953 31.6064 41.1478 32.2662 40.9835 32.5631C41.0492 32.7281 41.2464 32.8271 41.3779 32.8601C41.5093 32.8931 41.6079 33.025 41.6079 33.157C41.6079 33.19 41.7394 33.3879 42.1995 33.4539C42.4296 33.4869 42.8897 33.4869 43.7114 33.223C43.9086 33.157 44.1058 33.256 44.1715 33.4539C44.2044 33.5199 44.4016 33.6849 44.5002 33.7179C45.3547 33.8498 47.2938 33.091 47.9511 32.7941C47.9511 32.7941 47.984 32.7941 47.984 32.7611C48.0168 32.7611 50.0545 32.1342 50.7776 31.8373C50.8105 31.8043 50.8762 31.8043 50.9091 31.8043C51.6978 31.8373 52.8153 31.5734 53.6698 31.4084C53.7684 31.3754 53.867 31.4084 53.9328 31.4414C54.853 32.0023 57.811 32.5631 60.0787 32.4312C61.3276 32.3652 64.3842 31.8373 65.3702 31.2764C65.7646 31.0455 66.652 30.6496 67.0135 30.4846C67.0464 30.4516 67.1121 30.4516 67.145 30.4516L67.9995 30.4187C68.5253 30.3527 71.319 30.6166 77.8922 31.2435C83.8739 31.8043 90.6772 32.4642 92.5834 32.4642C92.6163 32.4642 92.6163 32.4642 92.6491 32.4642C94.7854 32.4642 99.2224 32.1342 102.016 31.5734C104.941 30.9795 108.622 29 109.279 28.6371C109.509 28.1422 109.51 27.6473 109.345 27.1194C108.655 25.1399 105.434 23.3914 104.087 22.7645C95.9029 18.8385 90.973 16.661 89.0339 16.1331C86.6346 15.4403 82.6907 13.1308 79.5684 11.2833C77.9251 10.3265 76.0846 9.23777 75.6902 9.17179C75.493 9.20478 75.3287 9.07281 75.2958 8.87486C75.2629 8.67691 75.3615 8.47896 75.5916 8.41297C75.986 8.314 76.8405 8.77589 79.9628 10.6234C82.9207 12.339 86.9304 14.7144 89.2639 15.3743C91.2359 15.9352 96.1987 18.1126 104.448 22.0717C106.256 22.9295 109.345 24.678 110.101 26.8555C110.364 27.6143 110.298 28.3402 109.97 29.066C109.937 29.132 109.871 29.1979 109.805 29.2309C109.641 29.3299 105.566 31.6394 102.213 32.2992C99.2224 32.8931 94.7854 33.19 92.682 33.19C92.6491 33.19 92.6491 33.19 92.6163 33.19C90.6772 33.19 83.8739 32.5301 77.8593 31.9693C73.2909 31.5404 68.5911 31.0785 68.131 31.1445H68.0981L67.3093 31.1775C66.9806 31.3424 66.159 31.7053 65.7975 31.9033C64.6471 32.5631 61.492 33.091 60.1773 33.157C57.7781 33.289 54.8859 32.7611 53.7356 32.1342C52.9139 32.2992 51.8293 32.5301 51.0405 32.5301C50.2846 32.8271 48.5098 33.3549 48.2798 33.4209C47.9511 33.6189 46.012 34.4767 44.7631 34.4767Z" fill="black"/>
<path d="M77.8921 24.6452C77.8592 24.6452 77.8263 24.6452 77.7935 24.6452C77.2019 24.5133 76.0844 24.4473 74.8026 24.3483C71.6475 24.1503 67.3091 23.8864 64.877 22.2698C64.7127 22.1708 64.647 21.9399 64.7784 21.7419C64.877 21.577 65.1071 21.511 65.3043 21.643C67.6049 23.1606 71.8118 23.4245 74.8684 23.5895C76.2487 23.6885 77.3333 23.7544 77.9907 23.8864C78.1878 23.9194 78.3193 24.1503 78.2536 24.3483C78.2207 24.5133 78.0564 24.6452 77.8921 24.6452Z" fill="black"/>
<path d="M43.8758 33.9488C43.7772 33.9488 43.6786 33.9158 43.6129 33.8499C43.5143 33.7509 43.4814 33.6189 43.4814 33.454C43.5143 33.289 43.58 32.7941 47.1953 30.9796C47.1953 30.9796 47.2282 30.9796 47.2282 30.9466C47.2282 30.9466 48.8386 30.3857 50.8763 29.7589C52.9141 29.165 53.5056 28.9341 54.5245 28.5711C54.7217 28.5052 54.9189 28.6041 55.0175 28.8021C55.0832 29 54.9846 29.198 54.7874 29.297C53.7686 29.6929 53.1441 29.8908 51.1064 30.5177C49.2002 31.0785 47.7212 31.6064 47.524 31.6724C46.1765 32.3652 44.5989 33.256 44.2702 33.6189C44.2702 33.7179 44.2374 33.8169 44.1716 33.8829C44.073 33.9158 43.9744 33.9488 43.8758 33.9488Z" fill="black"/>
<path d="M41.2794 33.6191C41.0822 33.6191 40.9507 33.4871 40.9178 33.2892C40.8192 32.5304 43.9087 31.1447 44.3031 31.0457C44.6646 30.9468 46.6366 30.1549 48.3785 29.4621C52.6182 27.7465 52.6839 27.7465 52.8811 27.7795C53.0783 27.8125 53.2098 28.0105 53.1769 28.2084C53.1441 28.3734 52.9797 28.5053 52.8154 28.5053C52.4868 28.5713 50.3504 29.4291 48.6743 30.122C46.7352 30.9138 44.9275 31.6396 44.5003 31.7386C43.7772 31.9365 41.9367 32.9923 41.6409 33.3222C41.608 33.4541 41.4766 33.5531 41.3451 33.5861C41.3122 33.6191 41.2794 33.6191 41.2794 33.6191Z" fill="black"/>
<path d="M32.5042 5.24572C26.8184 5.47667 21.0339 9.86461 21.1982 15.7372C21.4283 24.2491 25.5366 27.7793 31.6168 28.6041C32.9315 28.802 36.5468 28.3072 36.5468 28.3072C36.5468 28.3072 41.5096 28.1422 43.0214 27.8783C46.2423 27.3174 52.1254 24.777 52.0925 21.3128C52.0596 16.43 47.9513 11.1183 45.1577 8.97382C43.3829 7.58816 40.7865 4.9158 32.5042 5.24572Z" fill="#E4E4E4"/>
<path d="M44.9282 9.30384C47.7547 11.4483 51.6986 16.5951 51.7315 21.3459L44.9282 9.30384ZM44.9282 9.30384C44.7968 9.20491 44.6326 9.07302 44.4683 8.94112M44.9282 9.30384L44.4683 8.94112M44.4681 8.94093L44.6415 8.72503L44.4681 8.94093ZM44.4681 8.94093L44.4683 8.94112M44.4681 8.94093L44.4683 8.94112" fill="black" stroke="black"/>
<path d="M42.2333 12.8341C42.1347 12.8341 42.0032 12.8011 41.9375 12.7022C41.806 12.5372 41.8389 12.3063 42.0032 12.1743C42.1347 12.0753 42.2333 11.9433 42.3319 11.7784C42.4962 11.4815 42.4962 11.1185 42.3647 10.7226C42.0689 9.86485 41.1487 9.00705 39.9655 8.47918C38.1579 7.65438 36.1859 7.81934 35.66 8.8091C35.3314 9.43595 35.66 10.3267 36.5145 11.1515C36.6789 11.2835 36.6789 11.5144 36.5474 11.6794C36.4159 11.8444 36.1859 11.8444 36.0216 11.7124C34.9041 10.6896 34.5426 9.43595 35.0356 8.47918C35.7586 7.09352 38.0921 6.79659 40.327 7.81934C41.7074 8.44619 42.7591 9.46894 43.1207 10.5247C43.3179 11.1185 43.285 11.6794 43.0549 12.1743C42.9235 12.4052 42.7591 12.6032 42.5619 12.7681C42.3976 12.8011 42.299 12.8341 42.2333 12.8341Z" fill="black"/>
</g>
<path d="M112.371 92V79.1152H114.12L120.888 89.2314V79.1152H122.522V92H120.773L114.006 81.875V92H112.371ZM131.285 90.8486C130.699 91.3467 130.134 91.6982 129.589 91.9033C129.05 92.1084 128.47 92.2109 127.849 92.2109C126.823 92.2109 126.035 91.9619 125.484 91.4639C124.934 90.96 124.658 90.3184 124.658 89.5391C124.658 89.082 124.761 88.666 124.966 88.291C125.177 87.9102 125.449 87.6055 125.783 87.377C126.123 87.1484 126.504 86.9756 126.926 86.8584C127.236 86.7764 127.705 86.6973 128.332 86.6211C129.609 86.4688 130.55 86.2871 131.153 86.0762C131.159 85.8594 131.162 85.7217 131.162 85.6631C131.162 85.0186 131.013 84.5645 130.714 84.3008C130.31 83.9434 129.709 83.7646 128.912 83.7646C128.168 83.7646 127.617 83.8965 127.26 84.1602C126.908 84.418 126.647 84.8779 126.478 85.54L124.931 85.3291C125.071 84.667 125.303 84.1338 125.625 83.7295C125.947 83.3193 126.413 83.0059 127.022 82.7891C127.632 82.5664 128.338 82.4551 129.141 82.4551C129.938 82.4551 130.585 82.5488 131.083 82.7363C131.581 82.9238 131.947 83.1611 132.182 83.4482C132.416 83.7295 132.58 84.0869 132.674 84.5205C132.727 84.79 132.753 85.2764 132.753 85.9795V88.0889C132.753 89.5596 132.785 90.4912 132.85 90.8838C132.92 91.2705 133.055 91.6426 133.254 92H131.602C131.438 91.6719 131.332 91.2881 131.285 90.8486ZM131.153 87.3154C130.579 87.5498 129.718 87.749 128.569 87.9131C127.919 88.0068 127.459 88.1123 127.189 88.2295C126.92 88.3467 126.712 88.5195 126.565 88.748C126.419 88.9707 126.346 89.2197 126.346 89.4951C126.346 89.917 126.504 90.2686 126.82 90.5498C127.143 90.8311 127.611 90.9717 128.227 90.9717C128.836 90.9717 129.378 90.8398 129.853 90.5762C130.327 90.3066 130.676 89.9404 130.898 89.4775C131.068 89.1201 131.153 88.5928 131.153 87.8955V87.3154ZM130.679 79.1328H131.76C131.672 79.8652 131.402 80.4277 130.951 80.8203C130.506 81.2129 129.911 81.4092 129.167 81.4092C128.417 81.4092 127.816 81.2158 127.365 80.8291C126.92 80.4365 126.653 79.8711 126.565 79.1328H127.646C127.729 79.5312 127.89 79.8301 128.13 80.0293C128.376 80.2227 128.704 80.3193 129.114 80.3193C129.589 80.3193 129.946 80.2256 130.187 80.0381C130.433 79.8447 130.597 79.543 130.679 79.1328ZM130.178 78.4033H128.903L126.873 75.9424H128.991L130.178 78.4033ZM135.214 92V82.666H136.629V83.9756C136.922 83.5186 137.312 83.1523 137.798 82.877C138.284 82.5957 138.838 82.4551 139.459 82.4551C140.15 82.4551 140.716 82.5986 141.155 82.8857C141.601 83.1729 141.914 83.5742 142.096 84.0898C142.834 83 143.795 82.4551 144.979 82.4551C145.904 82.4551 146.616 82.7129 147.114 83.2285C147.612 83.7383 147.861 84.5264 147.861 85.5928V92H146.288V86.1201C146.288 85.4873 146.235 85.0332 146.13 84.7578C146.03 84.4766 145.846 84.251 145.576 84.0811C145.307 83.9111 144.99 83.8262 144.627 83.8262C143.971 83.8262 143.426 84.0459 142.992 84.4854C142.559 84.9189 142.342 85.6162 142.342 86.5771V92H140.76V85.9355C140.76 85.2324 140.631 84.7051 140.373 84.3535C140.115 84.002 139.693 83.8262 139.107 83.8262C138.662 83.8262 138.249 83.9434 137.868 84.1777C137.493 84.4121 137.221 84.7549 137.051 85.2061C136.881 85.6572 136.796 86.3076 136.796 87.1572V92H135.214ZM154.585 89.2139L156.149 88.9678C156.237 89.5947 156.48 90.0752 156.879 90.4092C157.283 90.7432 157.846 90.9102 158.566 90.9102C159.293 90.9102 159.832 90.7637 160.184 90.4707C160.535 90.1719 160.711 89.8232 160.711 89.4248C160.711 89.0674 160.556 88.7861 160.245 88.5811C160.028 88.4404 159.489 88.2617 158.628 88.0449C157.468 87.752 156.662 87.5 156.211 87.2891C155.766 87.0723 155.426 86.7764 155.191 86.4014C154.963 86.0205 154.849 85.6016 154.849 85.1445C154.849 84.7285 154.942 84.3447 155.13 83.9932C155.323 83.6357 155.584 83.3398 155.912 83.1055C156.158 82.9238 156.492 82.7715 156.914 82.6484C157.342 82.5195 157.799 82.4551 158.285 82.4551C159.018 82.4551 159.659 82.5605 160.21 82.7715C160.767 82.9824 161.177 83.2695 161.44 83.6328C161.704 83.9902 161.886 84.4707 161.985 85.0742L160.438 85.2852C160.368 84.8047 160.163 84.4297 159.823 84.1602C159.489 83.8906 159.015 83.7559 158.399 83.7559C157.673 83.7559 157.154 83.876 156.844 84.1162C156.533 84.3564 156.378 84.6377 156.378 84.96C156.378 85.165 156.442 85.3496 156.571 85.5137C156.7 85.6836 156.902 85.8242 157.178 85.9355C157.336 85.9941 157.802 86.1289 158.575 86.3398C159.694 86.6387 160.474 86.8848 160.913 87.0781C161.358 87.2656 161.707 87.541 161.959 87.9043C162.211 88.2676 162.337 88.7188 162.337 89.2578C162.337 89.7852 162.182 90.2832 161.871 90.752C161.566 91.2148 161.124 91.5752 160.544 91.833C159.964 92.085 159.308 92.2109 158.575 92.2109C157.362 92.2109 156.437 91.959 155.798 91.4551C155.165 90.9512 154.761 90.2041 154.585 89.2139ZM170.309 90.8486C169.723 91.3467 169.157 91.6982 168.612 91.9033C168.073 92.1084 167.493 92.2109 166.872 92.2109C165.847 92.2109 165.059 91.9619 164.508 91.4639C163.957 90.96 163.682 90.3184 163.682 89.5391C163.682 89.082 163.784 88.666 163.989 88.291C164.2 87.9102 164.473 87.6055 164.807 87.377C165.146 87.1484 165.527 86.9756 165.949 86.8584C166.26 86.7764 166.729 86.6973 167.355 86.6211C168.633 86.4688 169.573 86.2871 170.177 86.0762C170.183 85.8594 170.186 85.7217 170.186 85.6631C170.186 85.0186 170.036 84.5645 169.737 84.3008C169.333 83.9434 168.732 83.7646 167.936 83.7646C167.191 83.7646 166.641 83.8965 166.283 84.1602C165.932 84.418 165.671 84.8779 165.501 85.54L163.954 85.3291C164.095 84.667 164.326 84.1338 164.648 83.7295C164.971 83.3193 165.437 83.0059 166.046 82.7891C166.655 82.5664 167.361 82.4551 168.164 82.4551C168.961 82.4551 169.608 82.5488 170.106 82.7363C170.604 82.9238 170.971 83.1611 171.205 83.4482C171.439 83.7295 171.604 84.0869 171.697 84.5205C171.75 84.79 171.776 85.2764 171.776 85.9795V88.0889C171.776 89.5596 171.809 90.4912 171.873 90.8838C171.943 91.2705 172.078 91.6426 172.277 92H170.625C170.461 91.6719 170.355 91.2881 170.309 90.8486ZM170.177 87.3154C169.603 87.5498 168.741 87.749 167.593 87.9131C166.942 88.0068 166.482 88.1123 166.213 88.2295C165.943 88.3467 165.735 88.5195 165.589 88.748C165.442 88.9707 165.369 89.2197 165.369 89.4951C165.369 89.917 165.527 90.2686 165.844 90.5498C166.166 90.8311 166.635 90.9717 167.25 90.9717C167.859 90.9717 168.401 90.8398 168.876 90.5762C169.351 90.3066 169.699 89.9404 169.922 89.4775C170.092 89.1201 170.177 88.5928 170.177 87.8955V87.3154ZM168.006 80.0117L167.013 81.5059H165.202L167.101 79.0449H168.788L170.766 81.5059H168.973L168.006 80.0117ZM168.287 75.9424H170.405L168.375 78.4033H167.101L168.287 75.9424ZM174.237 95.5771V82.666H175.679V83.8789C176.019 83.4043 176.402 83.0498 176.83 82.8154C177.258 82.5752 177.776 82.4551 178.386 82.4551C179.183 82.4551 179.886 82.6602 180.495 83.0703C181.104 83.4805 181.564 84.0605 181.875 84.8105C182.186 85.5547 182.341 86.3721 182.341 87.2627C182.341 88.2178 182.168 89.0791 181.822 89.8467C181.482 90.6084 180.984 91.1943 180.328 91.6045C179.678 92.0088 178.992 92.2109 178.271 92.2109C177.744 92.2109 177.27 92.0996 176.848 91.877C176.432 91.6543 176.089 91.373 175.819 91.0332V95.5771H174.237ZM175.67 87.3857C175.67 88.5869 175.913 89.4746 176.399 90.0488C176.886 90.623 177.475 90.9102 178.166 90.9102C178.869 90.9102 179.47 90.6143 179.968 90.0225C180.472 89.4248 180.724 88.502 180.724 87.2539C180.724 86.0645 180.478 85.1738 179.985 84.582C179.499 83.9902 178.916 83.6943 178.236 83.6943C177.562 83.6943 176.965 84.0107 176.443 84.6436C175.928 85.2705 175.67 86.1846 175.67 87.3857Z" fill="#20315C"/>
<defs>
<clipPath id="clip0_139_924">
<rect width="294" height="58" fill="white"/>
</clipPath>
</defs>
</svg>
