<svg width="300" height="58" viewBox="0 0 300 58" fill="none" xmlns="http://www.w3.org/2000/svg">
<g clip-path="url(#clip0_139_923)">
<path d="M292.851 57.0584H6.81397C3.89626 57.0584 1.51514 54.716 1.51514 51.8456V33.4691C1.51514 30.5988 3.89626 28.2563 6.81397 28.2563H292.851C295.768 28.2563 298.149 30.5988 298.149 33.4691V51.8456C298.149 54.716 295.768 57.0584 292.851 57.0584Z" fill="#4B80FB" stroke="black" stroke-miterlimit="10"/>
<path d="M23.6108 29.033V57.835" stroke="black" stroke-miterlimit="10"/>
<path d="M45.1411 29.033V57.835" stroke="black" stroke-miterlimit="10"/>
<path d="M72.2388 37.4128V57.8349" stroke="black" stroke-miterlimit="10"/>
<path d="M97.4585 37.4128V57.8349" stroke="black" stroke-miterlimit="10"/>
<path d="M124.02 36.1262V57.835" stroke="black" stroke-miterlimit="10"/>
<path d="M148.469 39.8542V57.8349" stroke="black" stroke-miterlimit="10"/>
<path d="M178.316 35.1365V57.835" stroke="black" stroke-miterlimit="10"/>
<path d="M211.484 34.4106V57.835" stroke="black" stroke-miterlimit="10"/>
<path d="M245.826 32.8928V57.8348" stroke="black" stroke-miterlimit="10"/>
<path d="M276.412 34.4106V57.835" stroke="black" stroke-miterlimit="10"/>
<path d="M62.684 27.1193V27.1549L62.6888 27.1884L62.6888 27.1886L62.6889 27.1891L62.6889 27.1895L62.689 27.1901L62.6894 27.193C62.69 27.1978 62.691 27.2064 62.6922 27.2185C62.6947 27.2426 62.6982 27.2806 62.7012 27.3304C62.7071 27.4303 62.711 27.5764 62.7019 27.7528C62.6835 28.1087 62.6129 28.571 62.4123 29.0243C62.2141 29.4722 61.8893 29.9121 61.3517 30.2425C60.8117 30.5744 60.0221 30.8171 58.8611 30.8093H58.8577H58.6229H20.3908H20.1561C19.0214 30.8093 18.2513 30.5637 17.7252 30.2317C17.2011 29.901 16.8843 29.4627 16.6912 29.0159C16.4958 28.564 16.428 28.1039 16.411 27.75C16.4025 27.5746 16.4068 27.4294 16.4129 27.3302C16.416 27.2806 16.4195 27.2429 16.422 27.2189C16.4233 27.2069 16.4243 27.1984 16.4249 27.1936L16.4254 27.1897L16.4255 27.1893L16.4255 27.1892C16.4255 27.1889 16.4255 27.1889 16.4255 27.1892L16.4304 27.1551V27.1193C16.4304 26.8276 16.4905 26.5526 16.5866 26.2538C16.6351 26.103 16.6912 25.951 16.7526 25.7861C16.7579 25.7719 16.7633 25.7576 16.7687 25.7431C16.8218 25.6007 16.8785 25.4489 16.9323 25.2916C17.2586 24.5794 17.7401 23.8356 18.6199 23.1612C19.5143 22.4756 20.8483 21.8404 22.9086 21.406C24.7452 21.0189 29.3058 20.5914 31.8786 20.4927C35.7239 20.3612 43.3904 20.3612 47.2358 20.4927C49.8098 20.5914 54.4025 21.019 56.204 21.4057L56.2065 21.4062C58.2826 21.8404 59.6244 22.4835 60.5186 23.1727C61.4003 23.8524 61.8733 24.5972 62.1827 25.2924C62.2373 25.4449 62.2911 25.586 62.3422 25.7197C62.5326 26.2182 62.684 26.6144 62.684 27.1193Z" fill="#FFEA9D" stroke="black" stroke-miterlimit="10"/>
<path d="M280.872 20.9828C282.985 21.7416 285.601 22.0056 288.317 25.8986C292.04 25.8986 293.348 28.9339 291.403 29.3298C291.403 29.3298 288.284 29.4288 287.244 29.1979C286.439 28.9999 279.698 28.373 274.399 28.8679C271.046 29.1979 265.546 29.1649 265.512 29.1979C264.506 30.1546 213.865 27.2513 207.828 27.4493C205.414 28.67 199.813 28.67 197.7 28.571C195.587 28.472 173.185 29.8247 148.502 29.0659C147.999 29.0659 109.565 28.9669 109.565 28.9669C109.565 28.9669 92.5619 30.5175 90.9522 30.8145C81.4947 32.4641 65.1287 24.7769 58.4884 21.6097L47.0187 22.7314C48.595 21.5767 40.0431 9.1057 40.479 9.46861C44.0675 10.6233 57.9853 6.79626 57.9853 6.79626C57.9853 6.79626 65.6988 0.560763 75.5587 1.31958C99.1352 3.10115 100.577 4.61878 109.833 6.53232C112.818 7.15917 115.937 6.69728 118.62 5.21264C122.645 3.00217 128.312 -0.165061 137.837 0.428795C142.398 0.692732 147.227 2.60627 149.91 5.44358C150.983 6.56531 152.392 7.29114 153.935 7.42311C166.008 8.57783 200.383 14.8133 200.383 14.8133C200.383 14.8133 205.481 14.6484 205.514 14.6484C206.655 14.2855 219.197 12.8008 222.249 12.8008C231.405 12.8008 237.207 16.9908 240.326 18.1125C243.411 19.2013 251.896 20.356 256.859 20.9828C258.972 21.2468 261.085 20.389 262.393 18.7394C264.405 16.166 267.759 13.0318 270.878 15.6711C272.722 17.2217 273.796 18.1455 275.54 19.6302C277.049 20.9828 279.329 20.455 280.872 20.9828Z" fill="#C2D5FF"/>
<path d="M291.57 29.7257L291.517 29.4781C291.513 29.4793 291.508 29.4805 291.503 29.4817C291.498 29.483 291.493 29.4842 291.488 29.4854L291.43 29.4999H291.369C291.332 29.4999 291.253 29.5016 291.138 29.504C291.036 29.5062 290.907 29.5089 290.754 29.5116C290.434 29.5174 290.024 29.5226 289.593 29.5205C288.791 29.5166 287.842 29.4882 287.291 29.3687C287.289 29.3683 287.287 29.3678 287.285 29.3674C287.265 29.3629 287.245 29.3582 287.225 29.3534C287.065 29.3141 286.531 29.2385 285.692 29.1562C284.87 29.0756 283.791 28.9916 282.566 28.9301C280.142 28.8085 277.168 28.7758 274.51 29.0264L274.533 29.2618L274.51 29.0265C274.478 29.0295 274.446 29.0326 274.414 29.0356L274.408 29.0362C271.728 29.2641 267.798 29.3321 266.183 29.3348C266.148 29.3349 266.115 29.3349 266.082 29.3349C265.876 29.3349 265.74 29.3351 265.646 29.3367C265.625 29.3371 265.606 29.3376 265.588 29.3381C265.56 29.339 265.537 29.3402 265.517 29.3417L265.495 29.3563L265.43 29.3771C265.28 29.425 265.07 29.4519 264.848 29.4709C264.612 29.4913 264.315 29.5061 263.966 29.5165C263.267 29.5372 262.338 29.5403 261.227 29.5292C259.004 29.507 256.033 29.4275 252.672 29.314C245.991 29.0885 237.758 28.7286 230.778 28.4166C230.733 28.4146 230.689 28.4126 230.645 28.4106L230.645 28.4106C219.965 27.9287 210.752 27.5425 208.024 27.5818C207.988 27.5823 207.953 27.5829 207.92 27.5836C207.882 27.5843 207.846 27.5851 207.811 27.5861C206.62 28.1663 204.689 28.4528 202.814 28.5912C200.961 28.7281 199.076 28.7251 197.818 28.6799L197.801 28.9338V28.6793C197.76 28.6778 197.72 28.6762 197.68 28.6747L197.668 28.6742L197.668 28.674C197.248 28.6464 195.923 28.6945 193.66 28.7764C193.426 28.7849 193.182 28.7937 192.929 28.8029L192.938 29.0613L192.928 28.8029C192.893 28.8042 192.858 28.8054 192.822 28.8067L192.822 28.8067L192.662 28.8124C184.302 29.1109 167.109 29.7248 148.61 29.1734C148.607 29.1733 148.605 29.1733 148.602 29.1732C148.566 29.1721 148.53 29.171 148.494 29.1699C148.211 29.1697 143.323 29.1568 137.099 29.1405C134.682 29.1342 132.063 29.1273 129.435 29.1205C120.334 29.0967 111.112 29.0729 109.699 29.0711C109.69 29.0711 109.681 29.0711 109.673 29.0711C109.627 29.071 109.591 29.071 109.565 29.071H109.556C109.425 29.0835 109.022 29.1207 108.419 29.1763C106.797 29.3259 103.729 29.6089 100.608 29.9059C96.3769 30.3086 92.0872 30.7338 91.0787 30.8929L91.1199 31.1439L91.0779 30.893C91.0389 30.8991 91.0048 30.9049 90.9759 30.9102L90.9702 30.9113C90.079 31.0651 89.129 31.1361 88.1352 31.1369C86.371 31.1384 84.4687 30.9188 82.5117 30.5484C79.4468 29.9684 76.2163 29.0126 73.1209 27.9251C67.025 25.7834 61.4149 23.1169 58.571 21.7601C58.5386 21.7446 58.5065 21.7293 58.4748 21.7142L58.4276 21.7188L47.6373 22.7672L47.1053 22.8188L47.081 22.8368C47.0843 22.8343 47.0906 22.8289 47.0974 22.8196L47.0702 22.8223L47.0635 22.8229L47.0639 22.8137L47.068 22.723L47.0694 22.6928L47.0724 22.6259C47.0551 22.6135 47.0328 22.6036 47.0053 22.601C46.9903 22.5995 46.9739 22.6002 46.9559 22.6037L46.9802 22.5989L47.0049 22.5966L47.074 22.59L47.0895 22.2469C47.102 21.9708 47.0279 21.5473 46.8121 20.931C46.5993 20.3231 46.2624 19.5649 45.7856 18.633C45.6264 18.3219 45.4522 17.9925 45.2627 17.6442C45.2626 17.644 45.2625 17.6438 45.2624 17.6437C44.3183 15.9087 42.993 13.7038 41.2388 10.9369C41.2366 10.9338 41.2344 10.9307 41.2322 10.9277L40.9822 11.0852M291.57 29.7257H291.503C291.491 29.7257 291.453 29.7266 291.394 29.7279C290.817 29.741 288.217 29.8001 287.244 29.5607C286.473 29.3958 279.765 28.7359 274.534 29.2638C271.817 29.5277 267.726 29.5607 266.183 29.5607H265.646C264.003 29.9896 254.478 29.6927 230.768 28.637C220.405 28.1751 210.579 27.7462 208.03 27.8122C205.281 29.1337 199.039 28.9665 197.953 28.9374C197.874 28.9353 197.822 28.9339 197.801 28.9339C197.317 28.9021 195.715 28.962 193.235 29.0548L192.938 29.0659L192.781 29.0715C184.404 29.3706 167.165 29.9861 148.602 29.4288C148.396 29.4288 141.987 29.4121 134.427 29.3925C123.559 29.3642 110.313 29.3298 109.699 29.3298C109.574 29.3427 108.843 29.4104 107.735 29.5128C103.205 29.9318 92.3867 30.9322 91.12 31.1444C90.1138 31.3093 89.1413 31.4083 88.1352 31.4083C78.3299 31.4083 64.042 24.6487 58.6515 22.0985C58.5846 22.0669 58.5191 22.0359 58.455 22.0056L47.0524 23.0943C46.8847 23.1273 46.717 23.0283 46.65 22.8634C46.5829 22.6984 46.65 22.5334 46.7841 22.4345C46.8176 22.4015 47.2536 21.9396 45.0066 17.7826C43.6987 15.3742 41.9883 12.6688 40.9822 11.0852M291.57 29.7257C292.342 29.5607 292.811 28.9669 292.744 28.2411L292.402 28.2777C292.402 28.279 292.402 28.2804 292.402 28.2818L292.404 28.294L292.404 28.294C292.428 28.561 292.384 28.8467 292.187 29.0862C292.022 29.2879 291.795 29.3983 291.57 29.4635V29.7257ZM40.9822 11.0852L41.2316 10.9268L40.2109 9.20465C39.9426 9.4356 39.9426 9.4356 40.9822 11.0852ZM270.576 15.968L270.769 15.7436C270.787 15.7581 270.804 15.7726 270.822 15.7874C270.822 15.7878 270.822 15.7881 270.823 15.7885L272.312 17.0622L272.312 17.0623L272.364 17.1065C272.544 17.261 272.719 17.4117 272.893 17.5605C273.703 18.2568 274.465 18.9112 275.445 19.7153C275.446 19.7158 275.446 19.7164 275.447 19.7169C275.461 19.7284 275.475 19.74 275.489 19.7515C276.513 20.6074 277.819 20.7203 278.91 20.8147L278.915 20.8151L278.92 20.8155L278.983 20.821C278.983 20.821 278.983 20.821 278.983 20.821C279.691 20.8843 280.285 20.9444 280.839 21.1046C280.841 21.1052 280.843 21.1058 280.845 21.1064C280.871 21.1138 280.896 21.1214 280.921 21.1293C281.002 21.1556 281.081 21.181 281.16 21.2063C281.383 21.2773 281.602 21.3472 281.825 21.4334C281.826 21.4339 281.828 21.4344 281.829 21.4349C281.84 21.4393 281.851 21.4437 281.863 21.4481L281.879 21.4544L281.895 21.4595L281.989 21.4892C282.906 21.779 283.878 22.0857 284.897 22.6911C285.944 23.3131 287.058 24.2614 288.176 25.8558L288.269 25.9875L288.27 25.9899L288.317 26.0569L288.321 26.0616L288.572 26.0685C289.69 26.0991 290.6 26.427 291.234 26.8695C291.876 27.3176 292.198 27.852 292.247 28.2906C292.247 28.2937 292.247 28.2968 292.247 28.3C292.248 28.3028 292.248 28.3056 292.248 28.3084C292.278 28.7298 292.027 29.0976 291.514 29.2257H291.513H291.513H291.513H291.513H291.513H291.513H291.512H291.512H291.512H291.512H291.512H291.512H291.512H291.511H291.511H291.511H291.511H291.511H291.511H291.51H291.51H291.51H291.51H291.51H291.509H291.509H291.509H291.509H291.509H291.509H291.508H291.508H291.508H291.508H291.508H291.508H291.507H291.507H291.507H291.507H291.507H291.506H291.506H291.506H291.506H291.506H291.506H291.505H291.505H291.505H291.505H291.505H291.504H291.504H291.504H291.504H291.504H291.503H291.503C291.488 29.2257 291.462 29.2262 291.425 29.2269C291.408 29.2273 291.39 29.2277 291.369 29.2281C291.359 29.2284 291.349 29.2286 291.339 29.2288C291.053 29.2352 290.451 29.2487 289.73 29.2422C288.803 29.2338 287.833 29.1906 287.363 29.0752L287.356 29.0734L287.349 29.0718C287.333 29.0685 287.316 29.0651 287.297 29.0615C286.782 28.9651 284.924 28.7683 282.586 28.6531C280.148 28.5329 277.136 28.4988 274.484 28.7662C274.453 28.7693 274.421 28.7723 274.389 28.7754C274.388 28.7754 274.387 28.7755 274.386 28.7756C271.697 29.0282 267.708 29.0607 266.183 29.0607H266.181H266.179H266.178H266.176H266.174H266.172H266.171H266.169H266.167H266.165H266.164H266.162H266.16H266.158H266.157H266.155H266.153H266.151H266.15H266.148H266.146H266.144H266.143H266.141H266.139H266.138H266.136H266.134H266.133H266.131H266.129H266.127H266.126H266.124H266.122H266.121H266.119H266.117H266.116H266.114H266.112H266.111H266.109H266.107H266.106H266.104H266.102H266.101H266.099H266.097H266.096H266.094H266.092H266.091H266.089H266.087H266.086H266.084H266.083H266.082H266.081H266.079H266.078H266.076H266.074H266.073H266.071H266.07H266.068H266.066H266.065H266.063H266.062H266.06H266.058H266.057H266.055H266.054H266.052H266.051H266.049H266.047H266.046H266.044H266.043H266.041H266.04H266.038H266.036H266.035H266.033H266.032H266.03H266.029H266.027H266.026H266.024H266.023H266.021H266.02H266.018H266.016H266.015H266.013H266.012H266.01H266.009H266.007H266.006H266.004H266.003H266.001H266H265.998H265.997H265.995H265.994H265.992H265.991H265.99H265.988H265.987H265.985H265.984H265.982H265.981H265.979H265.978H265.976H265.975H265.973H265.972H265.971H265.969H265.968H265.966H265.965H265.963H265.962H265.961H265.959H265.958H265.956H265.955H265.954H265.952H265.951H265.949H265.948H265.947H265.945H265.944H265.942H265.941H265.94H265.938H265.937H265.935H265.934H265.933H265.931H265.93H265.929H265.927H265.926H265.925H265.923H265.922H265.921H265.919H265.918H265.917H265.915H265.914H265.913H265.911H265.91H265.909H265.907H265.906H265.905H265.903H265.902H265.901H265.9H265.898H265.897H265.896H265.894H265.893H265.892H265.891H265.889H265.888H265.887H265.885H265.884H265.883H265.882H265.88H265.879H265.878H265.877H265.875H265.874H265.873H265.872H265.871H265.869H265.868H265.867H265.866H265.864H265.863H265.862H265.861H265.86H265.858H265.857H265.856H265.855H265.854H265.852H265.851H265.85H265.849H265.848H265.847H265.845H265.844H265.843H265.842H265.841H265.84H265.838H265.837H265.836H265.835H265.834H265.833H265.832H265.83H265.829H265.828H265.827H265.826H265.825H265.824H265.823H265.822H265.82H265.819H265.818H265.817H265.816H265.815H265.814H265.813H265.812H265.811H265.81H265.809H265.807H265.806H265.805H265.804H265.803H265.802H265.801H265.8H265.799H265.798H265.797H265.796H265.795H265.794H265.793H265.792H265.791H265.79H265.789H265.788H265.787H265.786H265.785H265.784H265.783H265.782H265.781H265.78H265.779H265.778H265.777H265.776H265.775H265.774H265.773H265.772H265.771H265.77H265.769H265.768H265.768H265.767H265.766H265.765H265.764H265.763H265.762H265.761H265.76H265.759H265.758H265.757H265.757H265.756H265.755H265.754H265.753H265.752H265.751H265.75H265.749H265.749H265.748H265.747H265.746H265.745H265.744H265.743H265.743H265.742H265.741H265.74H265.739H265.738H265.738H265.737H265.736H265.735H265.734H265.733H265.733H265.732H265.731H265.73H265.729H265.729H265.728H265.727H265.726H265.726H265.725H265.724H265.723H265.722H265.722H265.721H265.72H265.719H265.719H265.718H265.717H265.716H265.716H265.715H265.714H265.714H265.713H265.712H265.711H265.711H265.71H265.709H265.709H265.708H265.707H265.707H265.706H265.705H265.704H265.704H265.703H265.702H265.702H265.701H265.7H265.7H265.699H265.699H265.698H265.697H265.697H265.696H265.695H265.695H265.694H265.693H265.693H265.692H265.692H265.691H265.69H265.69H265.689H265.689H265.688H265.687H265.687H265.686H265.686H265.685H265.685H265.684H265.683H265.683H265.682H265.682H265.681H265.681H265.68H265.68H265.679H265.679H265.678H265.678H265.677H265.676H265.676H265.675H265.675H265.674H265.674H265.673H265.673H265.673H265.672H265.672H265.671H265.671H265.67H265.67H265.669H265.669H265.668H265.668H265.667H265.667H265.667H265.666H265.666H265.665H265.665H265.664H265.664H265.664H265.663H265.663H265.662H265.662H265.662H265.661H265.661H265.66H265.66H265.66H265.659H265.659H265.659H265.658H265.658H265.657H265.657H265.657H265.656H265.656H265.656H265.655H265.655H265.655H265.654H265.654H265.654H265.654H265.653H265.653H265.653H265.652H265.652H265.652H265.651H265.651H265.651H265.651H265.65H265.65H265.65H265.65H265.649H265.649H265.649H265.649H265.648H265.648H265.648H265.648H265.647H265.647H265.647H265.647H265.647H265.646H265.646H265.582L265.52 29.0769C265.488 29.0854 265.451 29.0936 265.409 29.1016C265.389 29.1055 265.368 29.1093 265.345 29.113C264.93 29.1828 264.129 29.232 262.832 29.2458C261.347 29.2617 259.269 29.232 256.496 29.1558C250.95 29.0033 242.646 28.6653 230.79 28.1375C230.746 28.1355 230.702 28.1335 230.657 28.1315C220.359 27.6726 210.578 27.246 208.017 27.3123L207.91 27.3151L207.849 27.3444L207.813 27.3615C207.81 27.3632 207.806 27.3649 207.803 27.3666C207.8 27.3678 207.798 27.369 207.795 27.3702C207.784 27.3756 207.772 27.381 207.761 27.3863C207.092 27.6974 206.179 27.9277 205.15 28.0922C204.101 28.2599 202.962 28.3546 201.898 28.4056C200.075 28.493 198.509 28.4518 197.979 28.4379C197.905 28.4359 197.851 28.4345 197.819 28.434C197.782 28.4318 197.739 28.43 197.69 28.4287C197.688 28.4286 197.686 28.4286 197.684 28.4285C197.05 28.4117 195.511 28.4692 193.297 28.5521L192.92 28.5662L137.819 0.565705C137.819 0.565729 137.82 0.565753 137.82 0.565777C142.515 0.859796 147.208 2.83365 149.817 5.55781C149.819 5.56056 149.822 5.56331 149.825 5.56606C149.825 5.56672 149.826 5.56738 149.827 5.56803C150.913 6.70345 152.359 7.41236 153.911 7.58992L153.911 7.59001L153.921 7.59091C153.922 7.59106 153.924 7.59122 153.926 7.59137L153.901 7.85198M270.576 15.968L270.769 15.7431C269.903 15.0286 268.978 14.7328 268.007 14.8163C267.994 14.8175 267.982 14.8189 267.969 14.8203L267.994 15.0772M270.576 15.968L272.119 17.2877L58.2578 7.06497C58.8534 6.61269 66.2677 0.98192 75.5253 1.68247C93.6985 3.0577 98.6583 4.27044 104.273 5.64322L104.401 5.67451C104.646 5.73476 104.892 5.79578 105.141 5.85744C106.529 6.20096 107.999 6.56458 109.733 6.9282C112.818 7.58804 116.038 7.09316 118.788 5.57553L118.855 5.54254C122.879 3.29908 128.413 0.263815 137.803 0.824679C142.431 1.12161 147.06 3.03515 149.642 5.74049C150.782 6.9612 152.291 7.68702 153.901 7.85198M270.576 15.968C269.771 15.2752 268.933 14.9783 267.994 15.0772M267.994 15.0772L267.967 14.8205C266.959 14.9332 265.949 15.4675 264.997 16.2234C264.037 16.9861 263.176 17.9431 262.484 18.8177C262.482 18.8202 262.48 18.8227 262.478 18.8251C262.478 18.8254 262.478 18.8256 262.478 18.8259C261.162 20.5083 259.014 21.4018 256.863 21.1159C256.851 21.1143 256.838 21.1127 256.825 21.1112L256.792 21.3787M267.994 15.0772C265.948 15.2752 263.969 17.3207 262.661 18.9703C261.286 20.7189 259.039 21.6426 256.792 21.3787M256.792 21.3787L256.824 21.111C254.409 20.8137 251.069 20.3697 247.947 19.8681C244.823 19.3662 241.87 18.7996 240.297 18.2551L240.292 18.2534C240.286 18.2513 240.28 18.2491 240.274 18.247C240.273 18.2466 240.271 18.2461 240.27 18.2457C239.602 18.0047 238.832 17.637 237.97 17.225C237.847 17.1663 237.722 17.1066 237.596 17.0463L237.592 17.0444C237.588 17.0426 237.584 17.0407 237.58 17.0389L237.475 17.2547M256.792 21.3787C251.93 20.7849 243.311 19.5971 240.192 18.4754C239.568 18.2621 238.857 17.9195 238.059 17.5347C237.869 17.4434 237.675 17.3497 237.475 17.2547M237.475 17.2547L237.578 17.0379C234.2 15.3925 229.194 12.9709 222.249 12.9709C220.824 12.9709 217.04 13.3215 213.388 13.7307C211.57 13.9345 209.795 14.1516 208.381 14.3442C206.991 14.5334 205.99 14.694 205.615 14.7911V15.0113M237.475 17.2547L237.451 17.2428C234.13 15.6261 229.141 13.1967 222.249 13.1967C219.198 13.1967 206.688 14.6813 205.615 15.0113M205.615 15.0113L205.553 14.8081L205.516 14.8184H205.481H205.447C205.25 14.8184 204.508 14.8436 201.655 14.9405L200.4 14.9831L200.383 14.9837V15.209L200.375 14.984L200.36 14.9844L200.316 15.2092M205.615 15.0113C205.598 15.0113 205.573 15.0195 205.548 15.0277C205.523 15.036 205.498 15.0442 205.481 15.0442C205.38 15.0442 202.094 15.1432 200.383 15.2092H200.316M200.316 15.2092V14.9798L200.287 14.974C198.944 14.7099 165.678 8.71239 153.928 7.59158L153.901 7.85198M200.316 15.2092C199.981 15.1432 165.84 8.97371 153.901 7.85198M292.401 28.2727C292.324 27.6468 291.853 27.0337 291.177 26.5931C290.531 26.1726 289.652 25.8744 288.578 25.8326C288.517 25.8302 288.455 25.8286 288.392 25.8279C288.372 25.8002 288.353 25.7726 288.334 25.7453C287.222 24.171 286.114 23.1915 285.026 22.5309C283.941 21.8718 282.896 21.5429 281.961 21.2524C281.954 21.2504 281.948 21.2485 281.942 21.2466C281.936 21.2447 281.93 21.2428 281.924 21.2409L281.892 21.2311L281.885 21.2291C281.57 21.136 281.276 21.0488 280.985 20.9381L292.401 28.2727ZM279.004 20.5901C278.983 20.5882 278.963 20.5861 278.942 20.5841L278.934 20.5835C277.713 20.4833 276.528 20.3843 275.604 19.615L279.004 20.5901ZM272.496 16.9523C272.479 16.9376 272.461 16.9228 272.444 16.908L272.444 16.9078L270.954 15.6335L272.496 16.9523ZM288.429 25.882L288.429 25.8817L288.429 25.882ZM40.5559 9.38735C40.556 9.38739 40.5564 9.38872 40.5569 9.39122C40.5561 9.38857 40.5559 9.38731 40.5559 9.38735ZM206.434 14.3448C206.027 14.41 205.697 14.4698 205.512 14.5208L256.891 20.8867C256.878 20.8853 256.865 20.8838 256.852 20.8823C254.424 20.5858 251.061 20.1413 247.918 19.6315C244.772 19.1211 241.895 18.5526 240.381 18.012C240.38 18.0117 240.379 18.0114 240.378 18.0111C240.372 18.0091 240.367 18.0069 240.361 18.0049L240.354 18.0023C239.761 17.7997 239.085 17.4742 238.29 17.0908C238.102 17.0006 237.908 16.9072 237.707 16.8115C237.707 16.8112 237.706 16.8109 237.706 16.8106C237.701 16.8084 237.696 16.8063 237.692 16.8041C237.691 16.8038 237.691 16.8035 237.69 16.8032L237.659 16.7881C234.332 15.1679 229.256 12.6967 222.249 12.6967C220.689 12.6967 216.768 13.0721 213.134 13.4834C211.31 13.6899 209.547 13.9069 208.171 14.0931C207.483 14.1861 206.89 14.2718 206.434 14.3448ZM262.268 18.6612C261.012 20.2594 258.957 21.1143 256.894 20.887L262.275 18.6534C262.273 18.6555 262.271 18.6575 262.27 18.6596L262.268 18.6612ZM264.736 16.0913C263.785 16.8635 262.94 17.815 262.276 18.652L267.983 14.5759C267.97 14.5771 267.957 14.5784 267.944 14.5798C266.78 14.693 265.682 15.3228 264.736 16.0913ZM270.902 15.5891C270.023 14.8321 269.066 14.474 267.986 14.5755L270.902 15.5891Z" fill="black" stroke="black"/>
<path d="M106.379 22.4014C109.096 23.6881 113.187 26.2284 111.812 28.9008C111.812 28.9008 107.587 31.2762 104.199 31.9361C101.282 32.4969 96.7542 32.8269 94.5743 32.8269C91.12 32.8598 70.3271 30.6164 69.4886 30.7813L68.6167 30.8143C68.2813 30.9463 67.3758 31.3752 66.9734 31.6061C65.9002 32.233 62.7142 32.7279 61.4062 32.8269C58.958 32.9588 55.9062 32.398 54.9001 31.8041C53.9275 32.0021 52.8208 32.233 52.0159 32.2C51.2445 32.4969 49.1317 33.1238 49.1317 33.1238C49.1317 33.1238 46.6164 34.2455 45.4091 34.0806C45.1743 34.0476 44.839 33.7506 44.7719 33.5527C44.1682 33.7506 43.4975 33.8826 43.0615 33.8166C42.4243 33.7176 42.1896 33.4537 42.1225 33.2228C41.8542 33.1238 41.5524 32.9258 41.4517 32.6289C41.2505 31.9031 44.7384 30.7813 44.7384 30.7813C44.7384 30.7813 45.9457 30.1875 48.0585 29.5606C49.2323 29.2307 50.2049 28.9668 51.0098 28.7028C52.2171 28.241 53.7263 28.241 54.3299 28.01C55.1013 27.7131 62.4459 26.7233 66.9398 25.3707C68.7173 25.1727 71.9368 25.0737 74.6198 24.8758C76.5985 24.5459 88.001 24.117 97.0225 23.853L106.379 22.4014Z" fill="#C2D5FF"/>
<path d="M45.6772 34.4764C45.5766 34.4764 45.476 34.4764 45.3754 34.4434C45.1406 34.4104 44.8388 34.2125 44.604 33.9815C43.9333 34.1795 43.3967 34.2455 42.9942 34.1795C42.2564 34.0805 41.9546 33.7506 41.8204 33.4867C41.4515 33.3217 41.1832 33.0578 41.0826 32.7279C40.8814 32.002 42.0552 31.2432 44.604 30.4184C44.8052 30.3194 45.979 29.7586 47.9577 29.1977C48.4943 29.0327 48.9973 28.9008 49.4669 28.7688C50.0035 28.6038 50.473 28.4719 50.909 28.3729C51.6132 28.109 52.4517 27.977 53.1559 27.878C53.5919 27.812 53.9944 27.7461 54.2291 27.6801C54.4974 27.5811 55.3358 27.4161 57.0127 27.1192C59.7627 26.6243 63.9213 25.8985 66.839 25.0077C66.8725 25.0077 66.8725 25.0077 66.9061 25.0077C67.9793 24.8758 69.5555 24.8098 71.1988 24.7108C72.3391 24.6448 73.4793 24.5788 74.586 24.5128C76.5312 24.1829 87.2295 23.754 97.0222 23.4901C97.2235 23.4901 97.3912 23.655 97.4247 23.853C97.4247 24.0509 97.257 24.2159 97.0558 24.2489C87.263 24.5458 76.5647 24.9747 74.7202 25.2717H74.6866C73.5799 25.3376 72.4061 25.4036 71.2659 25.4696C69.6226 25.5686 68.0799 25.6346 67.0402 25.7665C64.089 26.6573 59.8969 27.4161 57.1468 27.878C55.8389 28.109 54.7322 28.3069 54.4974 28.3729C54.1956 28.4719 53.7596 28.5379 53.2565 28.6038C52.5858 28.7028 51.8145 28.8018 51.1437 29.0657C50.6742 29.1977 50.2047 29.3297 49.6681 29.4946C49.1986 29.6266 48.6955 29.7586 48.1589 29.9235C46.1132 30.5174 44.9394 31.1112 44.9058 31.1112C44.8723 31.1112 44.8723 31.1442 44.8388 31.1442C43.3631 31.6061 41.9881 32.266 41.8204 32.5629C41.8875 32.7279 42.0887 32.8268 42.2229 32.8598C42.357 32.8928 42.4576 33.0248 42.4576 33.1567C42.4576 33.1897 42.5918 33.3877 43.0613 33.4537C43.2961 33.4867 43.7656 33.4867 44.604 33.2227C44.8052 33.1567 45.0065 33.2557 45.0735 33.4537C45.1071 33.5197 45.3083 33.6846 45.4089 33.7176C46.2809 33.8496 48.2595 33.0908 48.9303 32.7938C48.9303 32.7938 48.9638 32.7938 48.9638 32.7608C48.9973 32.7608 51.0766 32.134 51.8145 31.8371C51.848 31.8041 51.9151 31.8041 51.9486 31.8041C52.7535 31.8371 53.8937 31.5731 54.7657 31.4082C54.8663 31.3752 54.9669 31.4082 55.034 31.4412C55.973 32.002 58.9914 32.5629 61.3054 32.4309C62.5798 32.3649 65.6987 31.8371 66.7049 31.2762C67.1073 31.0453 68.0128 30.6494 68.3817 30.4844C68.4152 30.4514 68.4823 30.4514 68.5158 30.4514L69.3878 30.4184C69.9244 30.3524 72.775 30.6164 79.4824 31.2432C85.5862 31.8041 92.5283 32.4639 94.4734 32.4639C94.507 32.4639 94.507 32.4639 94.5405 32.4639C96.7204 32.4639 101.248 32.134 104.099 31.5731C107.083 30.9793 110.839 28.9998 111.51 28.6368C111.745 28.142 111.745 27.6471 111.577 27.1192C110.873 25.1397 107.586 23.3911 106.211 22.7643C97.8607 18.8382 92.8301 16.6607 90.8514 16.1329C88.4033 15.44 84.3788 13.1306 81.1928 11.283C79.516 10.3263 77.6379 9.23753 77.2355 9.17154C77.0342 9.20454 76.8665 9.07257 76.833 8.87462C76.7995 8.67666 76.9001 8.47871 77.1348 8.41273C77.5373 8.31375 78.4092 8.77564 81.5953 10.6232C84.6136 12.3388 88.7051 14.7142 91.0862 15.374C93.0984 15.9349 98.1625 18.1124 106.58 22.0714C108.425 22.9292 111.577 24.6778 112.349 26.8553C112.617 27.6141 112.55 28.3399 112.214 29.0657C112.181 29.1317 112.114 29.1977 112.047 29.2307C111.879 29.3297 107.721 31.6391 104.3 32.299C101.248 32.8928 96.7204 33.1897 94.574 33.1897C94.5405 33.1897 94.5405 33.1897 94.507 33.1897C92.5283 33.1897 85.5861 32.5299 79.4489 31.969C74.7873 31.5401 69.9915 31.0783 69.522 31.1442H69.4884L68.6835 31.1772C68.3482 31.3422 67.5097 31.7051 67.1408 31.9031C65.967 32.5629 62.7475 33.0908 61.406 33.1567C58.9578 33.2887 56.0066 32.7608 54.8328 32.134C53.9944 32.299 52.8876 32.5299 52.0827 32.5299C51.3114 32.8268 49.5004 33.3547 49.2656 33.4207C48.9303 33.6186 46.9516 34.4764 45.6772 34.4764Z" fill="black"/>
<path d="M79.4824 24.645C79.4489 24.645 79.4153 24.645 79.3818 24.645C78.7781 24.513 77.6379 24.447 76.3299 24.3481C73.1104 24.1501 68.6835 23.8862 66.2018 22.2696C66.0341 22.1706 65.967 21.9396 66.1011 21.7417C66.2018 21.5767 66.4365 21.5107 66.6377 21.6427C68.9853 23.1603 73.2781 23.4243 76.397 23.5892C77.8055 23.6882 78.9123 23.7542 79.583 23.8862C79.7842 23.9192 79.9184 24.1501 79.8513 24.3481C79.8178 24.513 79.6501 24.645 79.4824 24.645Z" fill="black"/>
<path d="M44.7716 33.9486C44.671 33.9486 44.5704 33.9156 44.5033 33.8496C44.4027 33.7506 44.3691 33.6187 44.3691 33.4537C44.4027 33.2888 44.4698 32.7939 48.1588 30.9793C48.1588 30.9793 48.1924 30.9793 48.1924 30.9463C48.1924 30.9463 49.8357 30.3855 51.915 29.7586C53.9943 29.1648 54.5979 28.9338 55.6376 28.5709C55.8388 28.5049 56.04 28.6039 56.1406 28.8018C56.2077 28.9998 56.1071 29.1977 55.9059 29.2967C54.8662 29.6926 54.229 29.8906 52.1497 30.5174C50.2046 31.0783 48.6954 31.6062 48.4942 31.6721C47.1192 32.365 45.5094 33.2558 45.174 33.6187C45.174 33.7176 45.1405 33.8166 45.0734 33.8826C44.9728 33.9156 44.8722 33.9486 44.7716 33.9486Z" fill="black"/>
<path d="M42.1222 33.6189C41.921 33.6189 41.7869 33.4869 41.7533 33.2889C41.6527 32.5301 44.8052 31.1445 45.2076 31.0455C45.5765 30.9465 47.5888 30.1547 49.3662 29.4619C53.6925 27.7463 53.7596 27.7463 53.9608 27.7793C54.162 27.8123 54.2962 28.0102 54.2626 28.2082C54.2291 28.3731 54.0614 28.5051 53.8937 28.5051C53.5583 28.5711 51.3784 29.4289 49.6681 30.1217C47.6894 30.9135 45.8448 31.6393 45.4089 31.7383C44.671 31.9363 42.793 32.992 42.4911 33.3219C42.4576 33.4539 42.3235 33.5529 42.1893 33.5859C42.1558 33.6189 42.1222 33.6189 42.1222 33.6189Z" fill="black"/>
<path d="M33.1681 5.24548C27.3662 5.47642 21.4637 9.86436 21.6314 15.7369C21.8662 24.2489 26.0583 27.779 32.2626 28.6038C33.6041 28.8018 37.2932 28.3069 37.2932 28.3069C37.2932 28.3069 42.3573 28.142 43.9 27.878C47.1866 27.3172 53.1897 24.7768 53.1562 21.3126C53.1226 16.4298 48.9305 11.1181 46.0799 8.97358C44.2689 7.58791 41.6194 4.91556 33.1681 5.24548Z" fill="#C2D5FF"/>
<mask id="path-21-inside-1_139_923" fill="white">
<path d="M33.0341 29.0328C32.6987 29.0328 32.4304 29.0328 32.1957 28.9998C25.0523 28.0101 21.4638 23.6881 21.2626 15.77C21.0949 9.53455 27.2657 5.11361 33.1682 4.88267C41.083 4.58574 44.0677 6.92817 45.8452 8.31384C46.0129 8.44581 46.147 8.54478 46.3147 8.67675C49.2995 10.9202 53.5252 16.3309 53.5587 21.3127C53.5922 25.0738 47.3208 27.6802 44.0007 28.241C42.525 28.505 37.7628 28.6699 37.3604 28.6699C37.0585 28.7359 34.6439 29.0328 33.0341 29.0328ZM33.2018 5.60849C27.6682 5.80644 21.8663 9.93045 22.034 15.737C22.2352 23.2262 25.6224 27.3173 32.3298 28.274C33.6042 28.439 37.2262 27.9771 37.2597 27.9771H37.2933C37.3604 27.9771 42.3574 27.7791 43.833 27.5482C46.8513 27.0533 52.7874 24.6119 52.7874 21.3457C52.7538 16.5948 48.7294 11.4481 45.8452 9.3036C45.7111 9.20462 45.5434 9.07266 45.3757 8.94069C43.5647 7.48904 40.8147 5.34456 33.2018 5.60849Z"/>
</mask>
<path d="M33.0341 29.0328C32.6987 29.0328 32.4304 29.0328 32.1957 28.9998C25.0523 28.0101 21.4638 23.6881 21.2626 15.77C21.0949 9.53455 27.2657 5.11361 33.1682 4.88267C41.083 4.58574 44.0677 6.92817 45.8452 8.31384C46.0129 8.44581 46.147 8.54478 46.3147 8.67675C49.2995 10.9202 53.5252 16.3309 53.5587 21.3127C53.5922 25.0738 47.3208 27.6802 44.0007 28.241C42.525 28.505 37.7628 28.6699 37.3604 28.6699C37.0585 28.7359 34.6439 29.0328 33.0341 29.0328ZM33.2018 5.60849C27.6682 5.80644 21.8663 9.93045 22.034 15.737C22.2352 23.2262 25.6224 27.3173 32.3298 28.274C33.6042 28.439 37.2262 27.9771 37.2597 27.9771H37.2933C37.3604 27.9771 42.3574 27.7791 43.833 27.5482C46.8513 27.0533 52.7874 24.6119 52.7874 21.3457C52.7538 16.5948 48.7294 11.4481 45.8452 9.3036C45.7111 9.20462 45.5434 9.07266 45.3757 8.94069C43.5647 7.48904 40.8147 5.34456 33.2018 5.60849Z" fill="black"/>
<path d="M32.1957 28.9998L32.3348 28.0096L32.3329 28.0093L32.1957 28.9998ZM21.2626 15.77L22.2623 15.7446L22.2623 15.7432L21.2626 15.77ZM33.1682 4.88267L33.1307 3.88337L33.1291 3.88343L33.1682 4.88267ZM45.8452 8.31384L46.4637 7.528L46.46 7.52518L45.8452 8.31384ZM46.3147 8.67675L45.6963 9.46258L45.705 9.46945L45.7139 9.47613L46.3147 8.67675ZM53.5587 21.3127L52.5587 21.3194L52.5587 21.3216L53.5587 21.3127ZM44.0007 28.241L43.8341 27.255L43.8246 27.2567L44.0007 28.241ZM37.3604 28.6699V27.6699H37.2523L37.1468 27.693L37.3604 28.6699ZM33.2018 5.60849L33.1671 4.60909L33.166 4.60913L33.2018 5.60849ZM22.034 15.737L23.0336 15.7102L23.0336 15.7082L22.034 15.737ZM32.3298 28.274L32.1886 29.2641L32.2014 29.2657L32.3298 28.274ZM43.833 27.5482L43.9876 28.5362L43.9948 28.535L43.833 27.5482ZM52.7874 21.3457L53.7874 21.3457L53.7873 21.3386L52.7874 21.3457ZM45.8452 9.3036L46.4419 8.50111L46.4389 8.49892L45.8452 9.3036ZM45.3757 8.94069L44.7502 9.72099L44.7572 9.72651L45.3757 8.94069ZM33.0341 28.0328C32.6765 28.0328 32.4857 28.0308 32.3348 28.0096L32.0565 29.9901C32.3752 30.0349 32.7209 30.0328 33.0341 30.0328V28.0328ZM32.3329 28.0093C28.9379 27.5389 26.5115 26.2978 24.8963 24.3456C23.2711 22.3813 22.3594 19.5671 22.2623 15.7446L20.2629 15.7954C20.367 19.891 21.3502 23.1969 23.3554 25.6205C25.3706 28.0563 28.3101 29.471 32.0584 29.9904L32.3329 28.0093ZM22.2623 15.7432C22.1882 12.9892 23.5069 10.598 25.5854 8.83777C27.673 7.06984 30.4771 5.98873 33.2073 5.8819L33.1291 3.88343C29.9569 4.00755 26.7243 5.25238 24.2928 7.31153C21.8522 9.3784 20.1694 12.3154 20.263 15.7969L22.2623 15.7432ZM33.2057 5.88196C37.0586 5.73742 39.6495 6.23726 41.4623 6.90556C43.268 7.5712 44.3578 8.42226 45.2304 9.1025L46.46 7.52518C45.5552 6.81975 44.2639 5.80676 42.1541 5.029C40.0515 4.2539 37.1926 3.73098 33.1307 3.88337L33.2057 5.88196ZM45.2268 9.09967C45.3167 9.17044 45.3973 9.23208 45.4723 9.28949C45.5482 9.34755 45.6185 9.40139 45.6963 9.46258L46.9332 7.89092C46.8432 7.82015 46.7627 7.75851 46.6876 7.7011C46.6117 7.64304 46.5414 7.5892 46.4637 7.52801L45.2268 9.09967ZM45.7139 9.47613C47.0998 10.5178 48.823 12.3385 50.1995 14.5042C51.581 16.678 52.5437 19.0898 52.5587 21.3194L54.5587 21.306C54.5402 18.5538 53.3733 15.7693 51.8874 13.4315C50.3964 11.0855 48.5145 9.07917 46.9156 7.87738L45.7139 9.47613ZM52.5587 21.3216C52.5704 22.625 51.4564 23.9548 49.5214 25.1203C47.6582 26.2426 45.3804 26.9938 43.8341 27.255L44.1672 29.2271C45.9411 28.9274 48.4591 28.095 50.5533 26.8336C52.5756 25.6155 54.5806 23.7615 54.5587 21.3038L52.5587 21.3216ZM43.8246 27.2567C43.161 27.3754 41.6696 27.4806 40.2261 27.5558C38.7999 27.6301 37.5325 27.6699 37.3604 27.6699V29.6699C37.5906 29.6699 38.9056 29.6273 40.3301 29.5531C41.7372 29.4798 43.3647 29.3706 44.1767 29.2254L43.8246 27.2567ZM37.1468 27.693C37.1521 27.6919 37.144 27.6937 37.1147 27.6986C37.0884 27.703 37.053 27.7085 37.0082 27.7151C36.9188 27.7283 36.8005 27.7444 36.6582 27.7623C36.3738 27.7982 36.0027 27.8405 35.5903 27.8809C34.7584 27.9623 33.7902 28.0328 33.0341 28.0328V30.0328C33.8877 30.0328 34.9318 29.9549 35.7851 29.8714C36.6151 29.7901 37.355 29.6947 37.5739 29.6469L37.1468 27.693ZM33.166 4.60913C30.1785 4.716 27.1304 5.87742 24.8368 7.80378C22.5342 9.73762 20.9399 12.4945 21.0344 15.7659L23.0336 15.7082C22.9603 13.173 24.1831 10.9646 26.123 9.33528C28.0719 7.69849 30.6914 6.69893 33.2375 6.60785L33.166 4.60913ZM21.0343 15.7639C21.1386 19.6446 22.0715 22.7836 23.9699 25.0906C25.8786 27.41 28.6572 28.7603 32.1886 29.264L32.471 27.284C29.295 26.831 27.0264 25.6574 25.5142 23.8198C23.9919 21.9698 23.1306 19.3187 23.0336 15.7102L21.0343 15.7639ZM32.2014 29.2657C32.9676 29.3649 34.307 29.2759 35.3485 29.1835C35.893 29.1352 36.3967 29.0817 36.7656 29.0405C36.9503 29.0198 37.1015 29.0022 37.2073 28.9898C37.261 28.9835 37.3005 28.9788 37.3286 28.9755C37.3428 28.9739 37.3513 28.9729 37.3559 28.9724C37.4067 28.9668 37.3303 28.9771 37.2597 28.9771V26.9771C37.2303 26.9771 37.2073 26.9784 37.2009 26.9788C37.191 26.9794 37.183 26.98 37.1784 26.9804C37.1692 26.9811 37.1616 26.9818 37.1578 26.9822C37.1496 26.983 37.1418 26.9839 37.1366 26.9844C37.1254 26.9857 37.1116 26.9873 37.0971 26.989C37.0679 26.9924 37.0249 26.9975 36.9738 27.0035C36.8701 27.0156 36.7229 27.0328 36.5434 27.0529C36.1839 27.0931 35.6962 27.1448 35.1717 27.1913C34.0752 27.2886 32.9664 27.3481 32.4582 27.2823L32.2014 29.2657ZM37.2597 28.9771H37.2933V26.9771H37.2597V28.9771ZM37.2933 28.9771C37.3605 28.9771 38.6589 28.9255 40.0892 28.8478C41.514 28.7704 43.189 28.6612 43.9876 28.5362L43.6784 26.5602C43.0014 26.6662 41.44 26.7714 39.9807 26.8507C38.5268 26.9297 37.2931 26.9771 37.2933 26.9771V28.9771ZM43.9948 28.535C45.6212 28.2684 47.9754 27.4938 49.9441 26.351C50.9307 25.7783 51.8673 25.0864 52.5681 24.2784C53.27 23.4693 53.7874 22.4805 53.7874 21.3457H51.7874C51.7874 21.844 51.5627 22.3852 51.0573 22.9679C50.5508 23.5518 49.8147 24.1136 48.94 24.6214C47.1861 25.6395 45.0631 26.3332 43.6712 26.5614L43.9948 28.535ZM53.7873 21.3386C53.7687 18.702 52.6521 16.0411 51.2283 13.8094C49.7995 11.5699 47.9919 9.65363 46.4419 8.50112L45.2485 10.1061C46.5827 11.0981 48.2294 12.8274 49.5422 14.8851C50.8601 16.9507 51.7725 19.2386 51.7874 21.3528L53.7873 21.3386ZM46.4389 8.49892C46.32 8.41121 46.166 8.29016 45.9941 8.15486L44.7572 9.72651C44.9207 9.85516 45.1021 9.99804 45.2515 10.1083L46.4389 8.49892ZM46.0011 8.16042C45.0749 7.41799 43.8316 6.43473 41.8089 5.69246C39.7959 4.95372 37.0714 4.47373 33.1671 4.60909L33.2364 6.60789C36.9451 6.47931 39.402 6.9396 41.1199 7.57003C42.8283 8.19693 43.8655 9.01174 44.7502 9.72096L46.0011 8.16042Z" fill="black" mask="url(#path-21-inside-1_139_923)"/>
<path d="M43.095 12.8339C42.9944 12.8339 42.8603 12.8009 42.7932 12.7019C42.659 12.537 42.6926 12.306 42.8603 12.174C42.9944 12.0751 43.095 11.9431 43.1956 11.7781C43.3633 11.4812 43.3633 11.1183 43.2292 10.7224C42.9273 9.8646 41.9883 9.00681 40.781 8.47894C38.9364 7.65414 36.9242 7.8191 36.3876 8.80886C36.0523 9.43571 36.3876 10.3265 37.2596 11.1513C37.4273 11.2833 37.4273 11.5142 37.2931 11.6792C37.159 11.8441 36.9242 11.8441 36.7565 11.7122C35.6163 10.6894 35.2474 9.43571 35.7504 8.47894C36.4882 7.09327 38.8694 6.79634 41.1499 7.8191C42.5584 8.44594 43.6316 9.4687 44.0005 10.5244C44.2017 11.1183 44.1682 11.6792 43.9334 12.174C43.7993 12.405 43.6316 12.6029 43.4304 12.7679C43.2627 12.8009 43.1621 12.8339 43.095 12.8339Z" fill="black"/>
</g>
<defs>
<clipPath id="clip0_139_923">
<rect width="300" height="58" fill="white"/>
</clipPath>
</defs>
</svg>
