<svg width="300" height="69" viewBox="0 0 300 69" fill="none" xmlns="http://www.w3.org/2000/svg">
<g clip-path="url(#clip0_139_792)">
<path d="M294.534 68.3884H8.50691C5.58929 68.3884 3.20825 66.047 3.20825 63.1779V44.8094C3.20825 41.9403 5.58929 39.5989 8.50691 39.5989H294.534C297.451 39.5989 299.832 41.9403 299.832 44.8094V63.1779C299.832 66.047 297.451 68.3884 294.534 68.3884Z" fill="#DBE5F5" stroke="black" stroke-miterlimit="10"/>
<path d="M26.6497 39.5989V68.3884" stroke="black" stroke-miterlimit="10"/>
<path d="M48.1799 39.5989V68.3884" stroke="black" stroke-miterlimit="10"/>
<path d="M75.2766 47.9753V68.3885" stroke="black" stroke-miterlimit="10"/>
<path d="M100.496 47.9753V68.3885" stroke="black" stroke-miterlimit="10"/>
<path d="M127.056 46.6892V68.3885" stroke="black" stroke-miterlimit="10"/>
<path d="M151.503 50.4155V68.3884" stroke="black" stroke-miterlimit="10"/>
<path d="M181.35 45.6997V68.3884" stroke="black" stroke-miterlimit="10"/>
<path d="M214.517 44.9744V68.3885" stroke="black" stroke-miterlimit="10"/>
<path d="M248.858 43.4573V68.3884" stroke="black" stroke-miterlimit="10"/>
<path d="M279.443 44.9744V68.3885" stroke="black" stroke-miterlimit="10"/>
<path d="M71.0847 38.4777C71.0847 37.7192 70.7829 37.1256 70.5481 36.4661C69.8774 34.9491 68.4689 33.1683 64.2098 32.2779C62.3654 31.8822 57.7374 31.4535 55.1552 31.3545C51.2986 31.2226 43.6189 31.2226 39.7622 31.3545C37.18 31.4535 32.5856 31.8822 30.7076 32.2779C26.4821 33.1683 25.0736 34.9161 24.3693 36.4661C24.1346 37.1586 23.8327 37.7522 23.8327 38.4777C23.8327 38.4777 23.2291 42.6659 28.0583 42.6659H28.293H66.5238H66.7586C71.6883 42.6659 71.0847 38.4777 71.0847 38.4777Z" fill="#EAEAEA" stroke="black" stroke-miterlimit="10"/>
<path d="M285.882 36.3674C285.781 34.5866 283.4 33.3004 275.217 33.5313C275.217 33.5313 265.693 33.1685 265.09 33.1026C264.452 32.9707 254.828 32.0803 254.09 31.8494L252.011 31.1239C245.136 28.6506 235.511 23.8358 229.709 22.8465C222.13 21.5934 214.149 22.2199 214.149 22.2199C214.149 22.2199 194.799 11.766 180.512 8.20441C173.637 6.48957 169.311 5.63215 152.208 5.63215C137.318 5.63215 132.891 8.60014 128.632 8.60014C120.148 8.60014 103.682 4.379 94.56 3.62051C75.8806 -5.15156 75.9141 10.0512 74.7739 14.0744C74.2038 16.0861 73.0301 19.6806 68.2009 20.9338C67.0607 21.2306 60.8901 20.8349 58.7773 21.0657V33.993L71.7222 35.6089C73.7343 36.928 74.405 38.6428 74.8075 40.0279C75.9477 44.0512 76.5849 49.8223 89.2949 48.734C98.4167 47.9425 120.181 46.4585 128.666 46.4585C132.891 46.4585 137.352 48.9648 152.242 49.4265C156.937 49.5584 158.714 49.7563 164.818 49.5584C181.82 48.9978 206.871 47.5798 212.17 47.283C214.585 47.5138 223.841 48.4372 227.228 48.4372C235.075 48.5032 256.27 46.5575 262.205 45.9968C263.01 45.9309 263.849 45.9639 264.62 46.1288C264.855 46.1947 265.19 46.2277 265.559 46.2936C265.894 46.3266 267.035 46.1947 267.437 46.2277C272.4 46.8213 280.617 47.9096 280.717 47.9096C291.08 48.8989 291.08 47.1181 292.354 44.3809C293.36 42.0725 299.128 34.3887 285.882 36.3674Z" fill="white"/>
<path d="M160.223 49.9869C158.311 49.9869 156.836 49.9209 155.058 49.855C154.186 49.822 153.247 49.789 152.174 49.756C142.717 49.4592 137.318 48.338 133.763 47.5795C131.65 47.1178 130.108 46.788 128.599 46.788C120.349 46.788 98.9195 48.272 89.2612 49.0635C77.0877 50.0858 75.6456 44.7764 74.5725 40.918C74.5054 40.6542 74.4383 40.3574 74.3377 40.0936C73.9353 38.7085 73.2981 37.1586 71.4872 35.9054L58.643 34.3225C58.4418 34.2895 58.3076 34.1246 58.3076 33.9597V21.0325C58.3076 20.8346 58.4418 20.6697 58.643 20.6697C59.6826 20.5708 61.5941 20.6038 63.4721 20.6367C65.4507 20.6697 67.4629 20.7027 68.033 20.5708C72.7951 19.3506 73.8347 15.7231 74.3377 13.9752C74.4719 13.4806 74.606 12.854 74.7402 12.0625C75.3773 8.69881 76.3163 3.58727 80.5419 1.47669C83.8284 -0.17219 88.5904 0.421408 94.6269 3.25749C98.5841 3.58727 103.782 4.54362 109.316 5.56593C116.459 6.88504 123.837 8.23712 128.599 8.23712C130.041 8.23712 131.55 7.87437 133.428 7.41268C137.016 6.55526 142.415 5.26913 152.141 5.26913C169.378 5.26913 173.738 6.15953 180.546 7.84139C194.195 11.2381 212.639 21.0325 214.182 21.8569C215.188 21.791 222.667 21.3293 229.743 22.5165C233.599 23.176 239.066 25.4515 244.364 27.694C247.148 28.8482 249.764 29.9694 252.111 30.8268L254.19 31.5194C254.593 31.6513 258.718 32.08 261.434 32.3438C263.614 32.5747 264.855 32.7066 265.123 32.7395C265.559 32.7725 271.897 33.0363 275.184 33.1683C282.226 33.0034 285.647 33.8608 286.15 35.9714C290.577 35.3448 293.226 35.7735 294.299 37.2575C295.573 39.0713 294.064 41.8084 293.092 43.6222C292.891 43.9849 292.723 44.3147 292.589 44.5456C292.488 44.7434 292.421 44.9083 292.354 45.1062C291.147 47.8104 290.074 49.1954 280.583 48.305C280.549 48.305 280.214 48.272 279.644 48.1731C277.363 47.8763 271.293 47.0848 267.303 46.5902C267.135 46.5572 266.733 46.5902 266.397 46.6232C265.995 46.6561 265.659 46.6561 265.458 46.6561C265.089 46.6232 264.754 46.5572 264.486 46.4912C263.748 46.3264 262.977 46.2934 262.172 46.3593C255.934 46.9529 234.974 48.8986 227.16 48.7997C223.807 48.7667 214.819 47.9093 212.103 47.6455C207.106 47.9423 181.82 49.3603 164.784 49.9209C162.939 49.9539 161.464 49.9869 160.223 49.9869ZM128.632 46.0296C130.208 46.0296 131.785 46.3593 133.931 46.821C137.687 47.6125 142.784 48.7007 152.208 48.9975C153.315 49.0305 154.22 49.0635 155.092 49.0965C157.976 49.1954 160.089 49.2943 164.75 49.1295C181.82 48.5688 207.173 47.1508 212.103 46.854C212.136 46.854 212.136 46.854 212.17 46.854C214.853 47.1178 223.84 47.9752 227.194 48.0082C234.974 48.0742 255.901 46.1615 262.138 45.5679C263.01 45.4689 263.882 45.5349 264.687 45.6998C264.955 45.7657 265.257 45.7987 265.592 45.8317C265.727 45.8317 266.095 45.8317 266.397 45.7987C266.833 45.7657 267.236 45.7328 267.47 45.7657C271.461 46.2604 277.531 47.0519 279.812 47.3487C280.348 47.4146 280.684 47.4476 280.717 47.4806C290.074 48.371 290.711 47.0189 291.717 44.7434C291.784 44.5785 291.884 44.3807 291.985 44.1828C292.119 43.919 292.287 43.5892 292.488 43.1935C293.326 41.6435 294.769 39.0383 293.762 37.6202C292.857 36.3671 290.241 36.0703 285.982 36.6969C285.882 36.6969 285.781 36.6969 285.68 36.6309C285.613 36.565 285.546 36.466 285.546 36.3671C285.446 34.5203 282.092 33.6959 275.284 33.8608C274.882 33.8608 265.693 33.498 265.123 33.4321C264.855 33.3991 263.211 33.2012 261.467 33.0363C257.544 32.6406 254.492 32.3108 254.056 32.1789L251.943 31.4534C249.562 30.596 246.946 29.4748 244.163 28.3205C238.898 26.111 233.465 23.8356 229.709 23.209C222.264 21.9558 214.316 22.5824 214.216 22.5824C214.148 22.5824 214.081 22.5824 214.014 22.5494C213.813 22.4505 194.564 12.0625 180.479 8.5669C173.738 6.88504 169.412 5.99464 152.275 5.99464C142.617 5.99464 137.486 7.21481 133.73 8.13819C131.785 8.59988 130.242 8.96263 128.699 8.96263C123.837 8.96263 116.425 7.61054 109.282 6.29144C103.749 5.26913 98.517 4.31278 94.5934 3.983C94.5598 3.983 94.4927 3.983 94.4592 3.95002C88.624 1.21287 84.0631 0.586297 80.9778 2.13625C77.1212 4.08193 76.1822 8.96263 75.5786 12.1944C75.4444 12.9859 75.3103 13.6455 75.1761 14.1731C74.6396 16.0528 73.5329 19.9442 68.3348 21.2963C67.6641 21.4612 65.7861 21.4282 63.5727 21.3952C61.9295 21.3622 60.2192 21.3293 59.1795 21.3952V33.6299L71.789 35.2129C71.8561 35.2129 71.8896 35.2459 71.9567 35.2788C74.0359 36.6639 74.7402 38.3787 75.1761 39.9287C75.2432 40.1925 75.3438 40.4563 75.4109 40.7531C76.4505 44.5785 77.7248 49.3273 89.2947 48.371C98.9195 47.5136 120.382 46.0296 128.632 46.0296Z" fill="black"/>
<path d="M78.7978 24.9571C78.6637 24.9571 78.5295 24.8911 78.4625 24.7592C77.3558 22.6157 77.6911 14.3712 77.7247 14.0415C77.7247 13.8436 77.9259 13.6787 78.1271 13.6787C78.3283 13.6787 78.496 13.8766 78.496 14.0744C78.3954 16.4159 78.3283 22.7806 79.1667 24.4294C79.2673 24.6273 79.2002 24.8252 78.999 24.9241C78.932 24.9571 78.8649 24.9571 78.7978 24.9571Z" fill="black"/>
<path d="M76.8863 45.1721C76.6516 45.1391 76.4839 44.9742 76.5175 44.7763C76.551 44.3806 77.3558 35.1798 78.4625 33.0363C78.5631 32.8384 78.7979 32.7724 78.9656 32.8714C79.1668 32.9703 79.2338 33.2012 79.1332 33.366C78.0936 35.3447 77.2888 44.7104 77.2552 44.8093C77.2552 45.0401 77.0876 45.1721 76.8863 45.1721Z" fill="black"/>
<path d="M266.095 38.8735C265.928 38.8735 265.794 38.7745 265.726 38.6097C265.659 38.4118 265.793 38.2139 265.995 38.148C267.94 37.5873 271.796 36.6969 275.519 37.0597C276.961 37.1916 278.436 37.0927 279.811 36.7299C282.696 35.9714 285.647 36.0044 285.948 36.0374C286.15 36.0704 286.317 36.2353 286.284 36.4331C286.25 36.631 286.083 36.7959 285.881 36.7629C285.613 36.7299 282.796 36.6969 280.013 37.4225C278.537 37.8182 276.994 37.9171 275.452 37.7852C271.863 37.4554 268.107 38.3129 266.229 38.8735C266.162 38.8735 266.129 38.8735 266.095 38.8735Z" fill="black"/>
<path d="M102.541 41.2479C97.5779 39.9618 95.5323 39.1374 88.2215 40.2916C80.9107 41.4458 66.3897 42.7979 64.5452 42.3692C62.7343 41.9405 60.4538 40.1926 58.3411 40.1926C56.1948 40.1926 53.5119 40.6543 52.2376 41.2809C51.8687 41.2809 48.6828 41.5777 47.8779 41.4788C48.7163 40.9182 48.6828 39.9948 48.0791 39.5661C47.7102 39.3023 46.7042 40.1597 45.7987 40.5884C46.8383 39.7969 47.006 38.4448 46.1341 38.214C45.8658 38.148 42.6128 40.1597 42.1433 40.7203C41.875 41.0501 41.6403 44.7106 41.8415 45.535C42.0427 46.3595 42.8811 46.2276 42.8811 46.2276C42.8811 46.2276 42.9482 46.6233 43.6189 47.1839C43.9878 47.5467 47.8444 48.1403 47.8444 48.1403C47.8444 48.1403 51.5669 48.6679 53.0424 48.3381C54.518 48.0413 59.9173 47.8105 62.03 47.8105C64.1428 47.8105 64.4446 48.602 66.4903 48.9647C68.536 49.3275 87.3495 50.6136 91.2732 50.6136C95.1969 50.6136 102.306 47.5137 103.715 46.0957C105.157 44.7106 103.681 41.5447 102.541 41.2479Z" fill="white"/>
<path d="M91.2731 50.9762C87.4836 50.9762 68.7035 49.7231 66.4231 49.3273C65.5176 49.1625 64.914 48.9316 64.3774 48.7008C63.7067 48.4369 63.1366 48.1731 61.9964 48.1731C59.783 48.1731 54.4844 48.404 53.1094 48.7008C51.6003 49.0305 47.9449 48.5029 47.7772 48.5029C46.3016 48.2721 43.82 47.8433 43.3505 47.4476C42.9145 47.1178 42.7133 46.7881 42.6127 46.5902C42.1767 46.5572 41.6401 46.3264 41.4725 45.6009C41.2713 44.8094 41.4389 40.951 41.8414 40.4564C42.1432 40.0606 45.6309 37.6533 46.2346 37.8181C46.6705 37.9171 46.9388 38.2469 47.0394 38.6756C47.0729 38.9064 47.0729 39.1373 47.0059 39.4011C47.5089 39.1043 47.9449 38.9394 48.3138 39.2032C48.7162 39.467 48.9174 39.8957 48.9174 40.3574C48.9174 40.5883 48.8503 40.8191 48.7497 41.017C49.5211 40.984 50.5942 40.918 51.332 40.8521C51.768 40.8191 52.0362 40.7861 52.2039 40.7861C53.5454 40.1925 56.2282 39.6979 58.4081 39.6979C59.783 39.6979 61.1245 40.3574 62.4323 40.984C63.2372 41.3797 64.0085 41.7425 64.6792 41.9074C66.3896 42.3031 80.9441 40.951 88.1878 39.8298C94.9621 38.7745 97.2425 39.4011 101.434 40.4893C101.837 40.5883 102.239 40.6872 102.675 40.8191C103.514 41.05 104.251 42.2371 104.553 43.3254C104.889 44.5456 104.687 45.6338 104.017 46.3264C102.508 47.8104 95.2639 50.9762 91.2731 50.9762ZM62.0299 47.4476C63.3043 47.4476 63.975 47.7114 64.6792 48.0082C65.1823 48.2061 65.7189 48.4369 66.5572 48.6018C68.4688 48.9316 87.2824 50.2507 91.2731 50.2507C95.0291 50.2507 102.072 47.1838 103.447 45.8317C104.151 45.1392 103.916 44.0179 103.782 43.5563C103.48 42.501 102.843 41.7095 102.441 41.5776C102.005 41.4787 101.602 41.3468 101.2 41.2478C97.1084 40.1925 94.8615 39.5989 88.2884 40.6212C81.4136 41.6765 66.4902 43.1605 64.478 42.6659C63.7067 42.501 62.9018 42.1052 62.0635 41.7095C60.8226 41.1159 59.5483 40.5223 58.341 40.5223C56.2282 40.5223 53.6124 40.984 52.4051 41.5776C52.3381 41.6106 52.3045 41.6106 52.2375 41.6106C52.1369 41.6106 51.768 41.6435 51.3655 41.6765C49.89 41.7755 48.4144 41.8744 47.8443 41.8084C47.6766 41.7755 47.576 41.6765 47.5089 41.5116C47.4754 41.3468 47.5425 41.2148 47.6766 41.1159C47.9784 40.918 48.1461 40.6542 48.1461 40.3904C48.1461 40.1925 48.0455 39.9947 47.8778 39.8628C47.7101 39.8957 47.2406 40.1596 46.9388 40.3574C46.637 40.5553 46.2681 40.7532 45.9327 40.918C45.7651 40.984 45.5638 40.951 45.4632 40.7861C45.3626 40.6212 45.3962 40.4234 45.5638 40.2915C46.1339 39.8628 46.3687 39.2362 46.3016 38.8734C46.2681 38.7085 46.201 38.6426 46.1004 38.6096C45.5303 38.8075 42.8139 40.5223 42.445 40.951C42.2773 41.3468 42.0426 44.7105 42.2103 45.469C42.3109 45.8977 42.7133 45.8977 42.8474 45.8977C43.0487 45.8647 43.2499 45.9966 43.2834 46.1945C43.2834 46.1945 43.384 46.4913 43.887 46.92C43.887 46.92 43.9206 46.92 43.9206 46.953C44.1889 47.1508 46.2346 47.5466 47.9449 47.8104C47.9784 47.8104 51.6003 48.305 52.9752 48.0082C54.5179 47.6455 60.0178 47.4476 62.0299 47.4476Z" fill="black"/>
<path d="M42.9146 46.5903C42.7469 46.5903 42.6128 46.4914 42.5457 46.3595C42.378 45.9637 42.5793 42.4021 43.3506 41.4128C43.6524 41.0171 44.3902 40.7533 45.0274 40.4894C45.2286 40.4235 45.4633 40.3245 45.5639 40.2586C45.7652 40.1597 45.9664 40.2256 46.067 40.4235C46.1676 40.6213 46.1005 40.8192 45.8993 40.9181C45.7316 40.9841 45.5304 41.083 45.2957 41.182C44.8597 41.3469 44.1554 41.6107 43.9542 41.8415C43.3841 42.6 43.2164 45.6669 43.2835 46.0957C43.3506 46.2935 43.25 46.4914 43.0488 46.5573C42.9817 46.5903 42.9481 46.5903 42.9146 46.5903Z" fill="black"/>
<path d="M46.5027 48.1732C46.4356 48.1732 46.4021 48.1732 46.335 48.1403L46.1003 48.0413C44.8259 47.4148 44.1887 47.118 43.8869 46.3595C43.5516 45.4691 43.6857 43.6883 43.954 42.8638C44.1552 42.2043 45.5302 40.1926 46.4021 40.3246C46.7375 40.3905 47.0728 40.6214 47.274 40.9511C47.5423 41.3798 47.5759 41.9405 47.3746 42.5341C47.1064 43.2925 46.7375 43.8202 46.5363 44.084L46.8045 45.2382L49.2191 45.8318L55.8592 42.7649C56.0604 42.666 56.2616 42.7649 56.3622 42.9298C56.4629 43.1277 56.3622 43.3255 56.1946 43.4245L49.4203 46.5573C49.3533 46.5903 49.2527 46.5903 49.152 46.5903L46.3686 45.9308C46.2344 45.8978 46.1338 45.7988 46.1003 45.634L45.7314 44.084C45.6979 43.9521 45.7314 43.8532 45.832 43.7542C45.832 43.7542 46.335 43.1936 46.6369 42.3032C46.8045 41.8085 46.7039 41.5117 46.6033 41.3469C46.5027 41.182 46.3686 41.116 46.3015 41.083C45.9326 41.182 44.893 42.4681 44.6918 43.0947C44.457 43.8861 44.39 45.4691 44.6247 46.0956C44.7924 46.5244 45.1948 46.7552 46.4692 47.3488L46.7039 47.4477C46.9051 47.5467 46.9722 47.7775 46.8716 47.9424C46.8045 48.1073 46.6704 48.1732 46.5027 48.1732Z" fill="black"/>
<path d="M47.1065 42.2701C46.9724 42.2701 46.8382 42.2041 46.7711 42.0722C46.6705 41.9073 46.7376 41.6765 46.9053 41.5446C47.0394 41.4456 47.14 41.4126 47.2406 41.3467C47.3748 41.2477 47.4754 41.1818 47.6766 41.0829C47.8443 40.9839 48.079 41.0499 48.1796 41.2148C48.2803 41.3797 48.2132 41.6105 48.0455 41.7094C47.8443 41.8084 47.7437 41.8743 47.6431 41.9403C47.5425 42.0062 47.4419 42.0392 47.3077 42.1382C47.2406 42.2371 47.1736 42.2701 47.1065 42.2701Z" fill="black"/>
<path d="M49.387 44.6116C49.2529 44.6116 46.8718 44.4797 46.067 44.3477C45.8658 44.3148 45.7316 44.1169 45.7651 43.919C45.7987 43.7212 45.9999 43.5893 46.2011 43.6222C46.8383 43.7212 48.6828 43.8201 49.2529 43.8861C49.823 43.2925 51.5668 41.5776 52.3382 41.3138C52.5394 41.2479 52.7406 41.3468 52.8077 41.5446C52.8747 41.7425 52.7741 41.9404 52.5729 42.0063C52.0699 42.1712 50.4937 43.6222 49.6553 44.5126C49.5882 44.5786 49.5212 44.6116 49.387 44.6116Z" fill="black"/>
<path d="M103.346 38.6754C103.279 38.6754 103.246 38.6754 103.179 38.6424C101.602 37.9169 99.0537 35.2127 98.9195 35.0808L98.886 35.0479L85.5388 17.2729C85.1028 16.9761 82.1852 14.7666 80.1395 12.656C80.0053 12.4911 80.0053 12.2603 80.173 12.1284C80.3407 11.9964 80.5755 11.9964 80.7096 12.1613C82.7888 14.3708 86.0083 16.7123 86.0418 16.7123C86.0753 16.7452 86.1089 16.7452 86.1089 16.7782L99.4896 34.5862C99.6909 34.817 102.105 37.2903 103.48 37.9499C103.682 38.0488 103.749 38.2467 103.648 38.4446C103.648 38.6095 103.48 38.6754 103.346 38.6754Z" fill="black"/>
<path d="M110.154 38.0159C104.587 38.7414 104.587 38.0488 97.7455 39.4339C90.9042 40.786 81.2794 44.1497 78.6972 44.1497C76.1149 44.1497 67.3621 44.2157 65.4841 44.4135C60.7891 44.9742 54.6855 48.6017 54.6855 49.1623C54.6855 50.0527 56.6306 49.9538 56.6306 49.9538C56.6306 49.9538 56.8318 50.5144 57.8044 50.5144C58.8105 50.5144 60.7891 49.69 60.7891 49.69C60.7891 49.69 60.3196 50.8772 62.2646 50.7123C63.3378 50.6133 67.1609 49.3602 67.1609 49.3602L69.7431 49.1953C69.7431 49.1953 70.0449 49.1623 72.7278 49.624C75.4107 50.0857 78.8649 50.2836 79.9715 50.2836C81.0782 50.2836 82.5538 49.5581 82.5538 49.5581C82.5538 49.5581 105.358 48.5357 108.745 48.5357C112.132 48.5357 115.721 47.3815 116.928 46.1284C118.068 44.9412 118.303 43.8199 116.928 40.819L110.154 38.0159Z" fill="white"/>
<path d="M61.8958 51.108C61.2586 51.108 60.7891 50.9431 60.5544 50.6134C60.4538 50.5144 60.4203 50.3825 60.3867 50.2506C59.6825 50.5144 58.5087 50.8772 57.8045 50.8772C57.0667 50.8772 56.6307 50.5804 56.396 50.3166C55.96 50.3166 55.0545 50.2506 54.585 49.8219C54.3838 49.624 54.2832 49.3932 54.2832 49.1623C54.2832 48.0741 61.1245 44.5455 65.4171 44.0508C67.2616 43.8199 75.7796 43.754 78.6637 43.754C79.9716 43.754 83.2917 42.8306 87.1483 41.7424C90.5689 40.786 94.4255 39.6977 97.645 39.0712C101.803 38.2467 103.413 38.1808 105.325 38.0818C106.599 38.0159 107.873 37.9499 110.087 37.6531C110.288 37.6201 110.489 37.785 110.523 37.9829C110.556 38.1808 110.389 38.3786 110.187 38.4116C107.94 38.7084 106.565 38.7744 105.358 38.8403C103.48 38.9393 101.87 39.0052 97.7791 39.8297C94.5597 40.4562 90.7366 41.5445 87.3495 42.5008C83.4593 43.5891 80.0722 44.5455 78.6637 44.5455C75.7796 44.5455 67.2951 44.6114 65.4842 44.8093C61.158 45.3039 55.6246 48.5028 55.021 49.2613C55.021 49.2942 55.0545 49.2942 55.0545 49.3272C55.2893 49.5581 56.0606 49.624 56.5301 49.624C56.6978 49.624 56.8655 49.723 56.899 49.8878C56.899 49.8878 57.0331 50.1846 57.7039 50.1846C58.4416 50.1846 60.0178 49.624 60.5544 49.3932C60.6885 49.3272 60.8562 49.3602 60.9568 49.4591C61.0574 49.5581 61.091 49.723 61.0574 49.8549C61.0574 49.8549 60.9904 50.0527 61.091 50.1846C61.1245 50.2506 61.3593 50.4485 62.1306 50.3495C63.0025 50.2836 65.8866 49.3602 66.9597 49.0304C66.9933 49.0304 67.0268 48.9974 67.0603 48.9974L69.6426 48.8326C69.7097 48.8326 70.1792 48.8326 72.7279 49.2613C75.4778 49.723 78.932 49.9208 79.9045 49.9208C80.9106 49.9208 82.3191 49.2283 82.3191 49.2283C82.3527 49.1953 82.4197 49.1953 82.4868 49.1953C82.7215 49.1953 105.325 48.173 108.678 48.173C112.099 48.173 115.52 46.9858 116.593 45.8646C117.599 44.7763 117.834 43.82 116.526 40.9509C115.151 37.9829 94.9621 8.23703 94.7274 7.94023C94.6268 7.77534 94.6603 7.54449 94.828 7.41258C94.9957 7.31365 95.2304 7.34663 95.3645 7.51152C96.2029 8.73169 115.821 37.6201 117.196 40.6211C118.538 43.5232 118.504 44.9082 117.129 46.3592C115.788 47.7443 111.998 48.8985 108.678 48.8985C105.459 48.8985 84.063 49.8549 82.5874 49.9208C82.252 50.0857 80.9442 50.6463 79.9045 50.6463C78.6973 50.6463 75.2095 50.4155 72.6273 49.9868C70.1456 49.5581 69.7432 49.5581 69.7097 49.5581L67.1945 49.723C66.725 49.8878 63.3043 50.9761 62.2312 51.075C62.1306 51.108 61.9964 51.108 61.8958 51.108Z" fill="black"/>
<path d="M56.5971 50.3165C56.4965 50.3165 56.3959 50.2836 56.3289 50.2176C56.1947 50.1187 56.1612 49.9538 56.1947 49.7559C56.4295 48.9645 60.5208 46.2603 66.1549 45.0401C66.3561 45.0071 66.5573 45.1061 66.6244 45.3369C66.6579 45.5348 66.5573 45.7327 66.3225 45.7986C61.0239 46.9528 57.4355 49.3602 56.966 49.9538C56.966 50.0527 56.9325 50.1517 56.8654 50.2176C56.7984 50.2836 56.6977 50.3165 56.5971 50.3165Z" fill="black"/>
<path d="M60.7557 50.0857C60.6551 50.0857 60.5545 50.0527 60.4874 49.9537C60.3532 49.7889 60.3532 49.558 60.5209 49.4261C60.9569 49.0304 64.1093 46.9858 68.9384 46.689C69.1396 46.689 69.3408 46.8209 69.3408 47.0517C69.3408 47.2496 69.2067 47.4474 68.972 47.4474C64.4446 47.7442 61.3929 49.6569 61.024 49.9867C60.9569 50.0527 60.8563 50.0857 60.7557 50.0857Z" fill="black"/>
<path d="M265.022 38.9393C261.032 38.9393 249.126 37.7521 247.617 37.3564C239.032 35.1139 223.103 34.2235 215.658 35.015C215.188 35.0479 211.264 34.4873 203.082 33.2672C188.527 31.1236 166.528 27.8588 160.122 27.8588C159.921 27.8588 159.753 27.6939 159.753 27.4961C159.753 27.2982 159.921 27.1333 160.122 27.1333C166.595 27.1333 188.628 30.3981 203.182 32.5416C209.453 33.465 214.886 34.2895 215.523 34.2895H215.557C223.203 33.465 238.965 34.3224 247.785 36.6309C249.562 37.0926 264.687 38.4776 265.928 38.1149C266.129 38.0489 266.33 38.1808 266.397 38.3787C266.464 38.5766 266.33 38.7744 266.129 38.8404C265.995 38.9063 265.592 38.9393 265.022 38.9393Z" fill="black"/>
<path d="M45.4636 15.4261C44.6587 16.0197 45.1282 16.6463 45.4971 17.075C43.7197 17.009 42.8143 16.9761 41.5735 16.9761C35.7718 16.9761 31.0432 21.5929 31.0432 27.4959C31.0432 33.399 35.7718 38.0158 41.5735 38.0158C42.8143 38.0158 43.7197 38.0158 45.4971 37.9169C45.1282 38.3786 44.6587 38.9722 45.4636 39.5658C46.4697 40.2913 52.2714 39.6317 53.1098 37.6531C53.1433 37.5871 53.1768 37.4882 53.2104 37.3563C53.8476 37.1914 54.9542 36.7957 55.4908 36.5648C58.2072 35.4765 62.4998 32.4096 62.4998 27.4959C62.4998 22.6152 58.2072 19.5483 55.4908 18.4271C54.9542 18.1962 53.814 17.8005 53.2104 17.6356C53.1768 17.5037 53.1433 17.4048 53.1098 17.3388C52.2378 15.3602 46.4361 14.7006 45.4636 15.4261Z" fill="white"/>
<path d="M47.0732 40.2254C46.2684 40.2254 45.5641 40.1265 45.2288 39.8626C44.8934 39.5988 44.6922 39.302 44.6587 38.9722C44.6251 38.7414 44.6922 38.5106 44.7928 38.3127C43.4849 38.3786 42.7136 38.3786 41.6069 38.3786C35.5034 38.3786 30.7078 33.5969 30.7078 27.496C30.7078 21.3951 35.5034 16.6134 41.6069 16.6134C42.7136 16.6134 43.5184 16.6134 44.7928 16.6793C44.6922 16.4815 44.6587 16.2506 44.6587 16.0198C44.6922 15.69 44.8934 15.3932 45.2288 15.1294C46.0001 14.5687 48.4482 14.7336 50.2927 15.1953C51.5 15.5251 53.0091 16.1187 53.4786 17.207C53.5121 17.2729 53.5121 17.3059 53.5456 17.3719C54.2164 17.5697 55.1554 17.9325 55.6584 18.1303C59.012 19.4824 62.9021 22.7472 62.9021 27.529C62.9021 32.3107 59.012 35.5755 55.6584 36.9276C55.1554 37.1255 54.1828 37.4882 53.5456 37.6861C53.5456 37.7521 53.5121 37.785 53.4786 37.851C53.0091 38.9393 51.5 39.5329 50.2927 39.8626C49.2531 40.0605 48.0793 40.2254 47.0732 40.2254ZM45.4971 37.5542C45.6312 37.5542 45.7653 37.6202 45.8324 37.7521C45.8995 37.884 45.8659 38.0489 45.7989 38.1478C45.5977 38.3786 45.3964 38.6754 45.3964 38.8733C45.3964 39.0052 45.4971 39.1371 45.6647 39.2361C46.0672 39.5329 48.0793 39.5658 50.0579 39.0382C51.5 38.6425 52.4725 38.0818 52.7408 37.4553C52.7408 37.4223 52.8079 37.3234 52.8079 37.2244C52.8414 37.0925 52.942 36.9606 53.0761 36.9276C53.6798 36.7627 54.7865 36.367 55.323 36.1362C57.8382 35.1138 62.0973 32.1459 62.0973 27.43C62.0973 22.7142 57.8718 19.8122 55.3566 18.7899C54.82 18.559 53.7133 18.1633 53.1097 17.9984C52.9755 17.9655 52.8749 17.8335 52.8414 17.7016C52.8079 17.6027 52.7743 17.5038 52.7743 17.4708C52.506 16.8442 51.5335 16.2836 50.0915 15.8879C48.1128 15.3602 46.1007 15.3932 45.6983 15.69C45.5306 15.8219 45.43 15.9538 45.43 16.0527C45.3964 16.2836 45.5977 16.5474 45.8324 16.7783C45.933 16.8772 45.933 17.0421 45.8659 17.174C45.7989 17.3059 45.6647 17.3719 45.4971 17.3719C43.7532 17.3059 42.8813 17.2729 41.5734 17.2729C35.8723 17.2729 31.412 21.7249 31.412 27.43C31.412 33.1352 35.8723 37.5872 41.5734 37.5872C42.8477 37.6531 43.7197 37.6202 45.4971 37.5542Z" fill="black"/>
<path d="M53.2103 18.0315H53.1768C50.7622 17.7677 48.5153 17.5039 45.4971 17.4709C45.2959 17.4709 45.1282 17.306 45.1282 17.0752C45.1282 16.8773 45.2959 16.7124 45.4971 16.7124C48.5488 16.7784 50.8293 17.0092 53.2438 17.306C53.4451 17.339 53.6127 17.5039 53.5792 17.7347C53.5457 17.8996 53.378 18.0315 53.2103 18.0315Z" fill="black"/>
<path d="M45.4971 38.3126C45.2959 38.3126 45.1282 38.1477 45.1282 37.9498C45.1282 37.752 45.2959 37.5871 45.4971 37.5541C48.5153 37.4881 50.7622 37.2573 53.1768 36.9935C53.378 36.9605 53.5792 37.1254 53.6127 37.3233C53.6463 37.5211 53.4786 37.719 53.2774 37.752C50.8293 37.9828 48.5488 38.2466 45.4971 38.3126Z" fill="black"/>
<path d="M294.366 68.3737H8.33918C5.42157 68.3737 3.04053 66.0323 3.04053 63.1633V44.7947C3.04053 41.9256 5.42157 39.5842 8.33918 39.5842H294.366C297.284 39.5842 299.665 41.9256 299.665 44.7947V63.1633C299.665 66.0323 297.284 68.3737 294.366 68.3737Z" fill="#E4E4E4" stroke="black" stroke-miterlimit="10"/>
<path d="M26.4819 39.5842V68.3737" stroke="black" stroke-miterlimit="10"/>
<path d="M48.0122 39.5842V68.3737" stroke="black" stroke-miterlimit="10"/>
<path d="M75.1089 47.9604V68.3736" stroke="black" stroke-miterlimit="10"/>
<path d="M100.328 47.9604V68.3736" stroke="black" stroke-miterlimit="10"/>
<path d="M126.888 46.6743V68.3736" stroke="black" stroke-miterlimit="10"/>
<path d="M151.336 50.4009V68.3737" stroke="black" stroke-miterlimit="10"/>
<path d="M181.183 45.6851V68.3737" stroke="black" stroke-miterlimit="10"/>
<path d="M214.35 44.9595V68.3736" stroke="black" stroke-miterlimit="10"/>
<path d="M248.69 43.4426V68.3738" stroke="black" stroke-miterlimit="10"/>
<path d="M279.275 44.9595V68.3736" stroke="black" stroke-miterlimit="10"/>
<path d="M70.917 38.4631C70.917 37.7046 70.6151 37.111 70.3804 36.4514C69.7097 34.9345 68.3012 33.1537 64.0421 32.2633C62.1977 31.8675 57.5697 31.4388 54.9875 31.3399C51.1308 31.208 43.4511 31.208 39.5945 31.3399C37.0123 31.4388 32.4179 31.8675 30.5399 32.2633C26.3143 33.1537 24.9058 34.9015 24.2016 36.4514C23.9668 37.144 23.665 37.7376 23.665 38.4631C23.665 38.4631 23.0614 42.6512 27.8905 42.6512H28.1253H66.3561H66.5908C71.5206 42.6512 70.917 38.4631 70.917 38.4631Z" fill="#EAEAEA" stroke="black" stroke-miterlimit="10"/>
<path d="M285.714 36.3527C285.613 34.5719 283.232 33.2858 275.05 33.5166C275.05 33.5166 265.525 33.1539 264.922 33.0879C264.285 32.956 254.66 32.0656 253.922 31.8348L251.843 31.1093C244.968 28.6359 235.343 23.8212 229.542 22.8319C221.962 21.5787 213.981 22.2053 213.981 22.2053C213.981 22.2053 194.631 11.7513 180.345 8.18976C173.47 6.47492 169.144 5.6175 152.04 5.6175C137.15 5.6175 132.724 8.58549 128.465 8.58549C119.98 8.58549 103.514 4.36435 94.3923 3.60586C75.7129 -5.1662 75.7464 10.0365 74.6062 14.0598C74.0361 16.0714 72.8623 19.666 68.0332 20.9191C66.893 21.2159 60.7224 20.8202 58.6096 21.0511V33.9783L71.5544 35.5942C73.5666 36.9133 74.2373 38.6282 74.6397 40.0132C75.7799 44.0365 76.4171 49.8076 89.1272 48.7193C98.2489 47.9279 120.014 46.4439 128.498 46.4439C132.724 46.4439 137.184 48.9502 152.074 49.4119C156.769 49.5438 158.546 49.7416 164.65 49.5438C181.652 48.9832 206.704 47.5651 212.002 47.2683C214.417 47.4992 223.673 48.4225 227.06 48.4225C234.907 48.4885 256.102 46.5428 262.038 45.9822C262.843 45.9162 263.681 45.9492 264.452 46.1141C264.687 46.1801 265.022 46.213 265.391 46.279C265.727 46.312 266.867 46.1801 267.269 46.213C272.233 46.8066 280.449 47.8949 280.549 47.8949C290.912 48.8842 290.912 47.1034 292.186 44.3663C293.192 42.0578 298.961 34.374 285.714 36.3527Z" fill="#E4E4E4"/>
<path d="M160.055 49.9722C158.144 49.9722 156.668 49.9063 154.891 49.8403C154.019 49.8073 153.08 49.7744 152.007 49.7414C142.549 49.4446 137.15 48.3233 133.595 47.5649C131.483 47.1032 129.94 46.7734 128.431 46.7734C120.181 46.7734 98.7517 48.2574 89.0934 49.0489C76.9199 50.0712 75.4779 44.7618 74.4047 40.9034C74.3377 40.6395 74.2706 40.3427 74.17 40.0789C73.7676 38.6939 73.1304 37.1439 71.3195 35.8908L58.4753 34.3078C58.274 34.2748 58.1399 34.11 58.1399 33.9451V21.0178C58.1399 20.8199 58.274 20.6551 58.4753 20.6551C59.5149 20.5561 61.4264 20.5891 63.3044 20.6221C65.283 20.6551 67.2952 20.688 67.8653 20.5561C72.6274 19.336 73.667 15.7084 74.17 13.9606C74.3041 13.4659 74.4383 12.8393 74.5724 12.0479C75.2096 8.68416 76.1486 3.57262 80.3741 1.46205C83.6606 -0.186839 88.4227 0.40676 94.4592 3.24284C98.4164 3.57262 103.614 4.52897 109.148 5.55128C116.291 6.87039 123.669 8.22247 128.431 8.22247C129.873 8.22247 131.382 7.85972 133.26 7.39803C136.848 6.54061 142.248 5.25448 151.973 5.25448C169.21 5.25448 173.57 6.14488 180.378 7.82674C194.027 11.2234 212.472 21.0178 214.014 21.8423C215.02 21.7763 222.499 21.3146 229.575 22.5018C233.431 23.1614 238.898 25.4368 244.196 27.6793C246.98 28.8335 249.596 29.9548 251.943 30.8122L254.022 31.5047C254.425 31.6366 258.55 32.0653 261.266 32.3292C263.446 32.56 264.687 32.6919 264.955 32.7249C265.391 32.7579 271.729 33.0217 275.016 33.1536C282.058 32.9887 285.479 33.8461 285.982 35.9567C290.409 35.3301 293.058 35.7588 294.131 37.2428C295.406 39.0566 293.896 41.7938 292.924 43.6075C292.723 43.9703 292.555 44.3001 292.421 44.5309C292.32 44.7288 292.253 44.8937 292.186 45.0915C290.979 47.7957 289.906 49.1808 280.415 48.2904C280.382 48.2904 280.046 48.2574 279.476 48.1585C277.196 47.8617 271.126 47.0702 267.135 46.5755C266.967 46.5426 266.565 46.5755 266.229 46.6085C265.827 46.6415 265.492 46.6415 265.29 46.6415C264.922 46.6085 264.586 46.5426 264.318 46.4766C263.58 46.3117 262.809 46.2787 262.004 46.3447C255.766 46.9383 234.806 48.884 226.993 48.785C223.639 48.7521 214.651 47.8946 211.935 47.6308C206.938 47.9276 181.652 49.3457 164.616 49.9063C162.772 49.9393 161.296 49.9722 160.055 49.9722ZM128.464 46.0149C130.041 46.0149 131.617 46.3447 133.763 46.8064C137.519 47.5978 142.617 48.6861 152.04 48.9829C153.147 49.0159 154.052 49.0489 154.924 49.0818C157.808 49.1808 159.921 49.2797 164.582 49.1148C181.652 48.5542 207.005 47.1361 211.935 46.8393C211.969 46.8393 211.969 46.8393 212.002 46.8393C214.685 47.1032 223.673 47.9606 227.026 47.9936C234.806 48.0595 255.733 46.1468 261.97 45.5532C262.842 45.4543 263.714 45.5202 264.519 45.6851C264.787 45.7511 265.089 45.7841 265.425 45.817C265.559 45.817 265.928 45.817 266.229 45.7841C266.665 45.7511 267.068 45.7181 267.303 45.7511C271.293 46.2458 277.363 47.0372 279.644 47.334C280.18 47.4 280.516 47.4329 280.549 47.4659C289.906 48.3563 290.543 47.0042 291.549 44.7288C291.616 44.5639 291.717 44.366 291.817 44.1682C291.951 43.9043 292.119 43.5746 292.32 43.1788C293.159 41.6289 294.601 39.0236 293.595 37.6056C292.689 36.3524 290.073 36.0556 285.814 36.6822C285.714 36.6822 285.613 36.6822 285.513 36.6163C285.445 36.5503 285.378 36.4514 285.378 36.3524C285.278 34.5057 281.924 33.6812 275.116 33.8461C274.714 33.8461 265.525 33.4834 264.955 33.4174C264.687 33.3844 263.044 33.1866 261.3 33.0217C257.376 32.626 254.324 32.2962 253.888 32.1643L251.776 31.4388C249.394 30.5813 246.779 29.4601 243.995 28.3059C238.73 26.0964 233.297 23.8209 229.541 23.1943C222.096 21.9412 214.148 22.5678 214.048 22.5678C213.981 22.5678 213.914 22.5678 213.847 22.5348C213.645 22.4359 194.396 12.0479 180.311 8.55225C173.57 6.87039 169.244 5.97999 152.107 5.97999C142.449 5.97999 137.318 7.20016 133.562 8.12354C131.617 8.58523 130.074 8.94798 128.532 8.94798C123.669 8.94798 116.257 7.5959 109.114 6.27679C103.581 5.25448 98.3493 4.29813 94.4256 3.96835C94.3921 3.96835 94.325 3.96835 94.2915 3.93537C88.4562 1.19822 83.8954 0.571648 80.8101 2.1216C76.9535 4.06728 76.0145 8.94798 75.4108 12.1798C75.2767 12.9713 75.1425 13.6308 75.0084 14.1585C74.4718 16.0382 73.3651 19.9296 68.1671 21.2816C67.4964 21.4465 65.6184 21.4135 63.405 21.3806C61.7618 21.3476 60.0514 21.3146 59.0118 21.3806V33.6153L71.6213 35.1982C71.6883 35.1982 71.7219 35.2312 71.789 35.2642C73.8682 36.6492 74.5724 38.3641 75.0084 39.914C75.0755 40.1779 75.1761 40.4417 75.2431 40.7385C76.2828 44.5639 77.5571 49.3127 89.127 48.3563C98.7517 47.4989 120.215 46.0149 128.464 46.0149Z" fill="black"/>
<path d="M78.6301 24.9424C78.4959 24.9424 78.3618 24.8765 78.2947 24.7446C77.188 22.601 77.5234 14.3566 77.5569 14.0268C77.5569 13.829 77.7582 13.6641 77.9594 13.6641C78.1606 13.6641 78.3283 13.8619 78.3283 14.0598C78.2276 16.4012 78.1606 22.7659 78.999 24.4148C79.0996 24.6127 79.0325 24.8105 78.8313 24.9095C78.7642 24.9424 78.6971 24.9424 78.6301 24.9424Z" fill="black"/>
<path d="M76.7186 45.1574C76.4839 45.1244 76.3162 44.9595 76.3497 44.7617C76.3833 44.3659 77.1881 35.1652 78.2948 33.0216C78.3954 32.8238 78.6302 32.7578 78.7978 32.8567C78.9991 32.9557 79.0661 33.1865 78.9655 33.3514C77.9259 35.3301 77.1211 44.6957 77.0875 44.7947C77.0875 45.0255 76.9198 45.1574 76.7186 45.1574Z" fill="black"/>
<path d="M265.928 38.8588C265.76 38.8588 265.626 38.7599 265.559 38.595C265.492 38.3971 265.626 38.1993 265.827 38.1333C267.772 37.5727 271.629 36.6823 275.351 37.045C276.793 37.177 278.269 37.078 279.644 36.7153C282.528 35.9568 285.479 35.9898 285.781 36.0227C285.982 36.0557 286.15 36.2206 286.116 36.4185C286.083 36.6163 285.915 36.7812 285.714 36.7482C285.445 36.7153 282.628 36.6823 279.845 37.4078C278.369 37.8035 276.827 37.9025 275.284 37.7706C271.696 37.4408 267.94 38.2982 266.062 38.8588C265.995 38.8588 265.961 38.8588 265.928 38.8588Z" fill="black"/>
<path d="M102.374 41.2333C97.4103 39.9472 95.3646 39.1227 88.0538 40.2769C80.743 41.4312 66.222 42.7832 64.3775 42.3545C62.5666 41.9258 60.2861 40.178 58.1734 40.178C56.0271 40.178 53.3442 40.6397 52.0699 41.2663C51.701 41.2663 48.5151 41.5631 47.7102 41.4641C48.5486 40.9035 48.5151 39.9801 47.9114 39.5514C47.5425 39.2876 46.5364 40.145 45.631 40.5737C46.6706 39.7823 46.8383 38.4302 45.9663 38.1993C45.6981 38.1334 42.4451 40.145 41.9756 40.7056C41.7073 41.0354 41.4725 44.6959 41.6738 45.5204C41.875 46.3448 42.7134 46.2129 42.7134 46.2129C42.7134 46.2129 42.7804 46.6086 43.4512 47.1693C43.8201 47.532 47.6767 48.1256 47.6767 48.1256C47.6767 48.1256 51.3991 48.6533 52.8747 48.3235C54.3503 48.0267 59.7496 47.7958 61.8623 47.7958C63.9751 47.7958 64.2769 48.5873 66.3226 48.9501C68.3683 49.3128 87.1818 50.599 91.1055 50.599C95.0292 50.599 102.139 47.4991 103.547 46.081C104.989 44.6959 103.514 41.5301 102.374 41.2333Z" fill="#E4E4E4"/>
<path d="M91.1054 50.9616C87.3158 50.9616 68.5358 49.7084 66.2554 49.3127C65.3499 49.1478 64.7463 48.917 64.2097 48.6861C63.539 48.4223 62.9689 48.1585 61.8286 48.1585C59.6153 48.1585 54.3166 48.3893 52.9417 48.6861C51.4326 49.0159 47.7771 48.4883 47.6095 48.4883C46.1339 48.2574 43.6522 47.8287 43.1827 47.433C42.7468 47.1032 42.5456 46.7734 42.445 46.5756C42.009 46.5426 41.4724 46.3117 41.3047 45.5862C41.1035 44.7948 41.2712 40.9364 41.6736 40.4417C41.9755 40.046 45.4632 37.6386 46.0668 37.8035C46.5028 37.9024 46.7711 38.2322 46.8717 38.6609C46.9052 38.8918 46.9052 39.1226 46.8381 39.3864C47.3412 39.0896 47.7771 38.9247 48.146 39.1886C48.5485 39.4524 48.7497 39.8811 48.7497 40.3428C48.7497 40.5736 48.6826 40.8045 48.582 41.0023C49.3533 40.9694 50.4265 40.9034 51.1643 40.8374C51.6002 40.8045 51.8685 40.7715 52.0362 40.7715C53.3776 40.1779 56.0605 39.6832 58.2403 39.6832C59.6153 39.6832 60.9567 40.3428 62.2646 40.9694C63.0695 41.3651 63.8408 41.7278 64.5115 41.8927C66.2218 42.2885 80.7764 40.9364 88.0201 39.8151C94.7943 38.7598 97.0747 39.3864 101.267 40.4747C101.669 40.5736 102.072 40.6726 102.508 40.8045C103.346 41.0353 104.084 42.2225 104.386 43.3108C104.721 44.5309 104.52 45.6192 103.849 46.3117C102.34 47.7957 95.0961 50.9616 91.1054 50.9616ZM61.8622 47.433C63.1365 47.433 63.8073 47.6968 64.5115 47.9936C65.0145 48.1915 65.5511 48.4223 66.3895 48.5872C68.301 48.917 87.1146 50.2361 91.1054 50.2361C94.8614 50.2361 101.904 47.1692 103.279 45.8171C103.983 45.1245 103.748 44.0033 103.614 43.5416C103.312 42.4863 102.675 41.6949 102.273 41.563C101.837 41.464 101.434 41.3321 101.032 41.2332C96.9406 40.1779 94.6937 39.5843 88.1207 40.6066C81.2459 41.6619 66.3224 43.1459 64.3103 42.6512C63.539 42.4863 62.7341 42.0906 61.8957 41.6949C60.6549 41.1013 59.3805 40.5077 58.1732 40.5077C56.0605 40.5077 53.4447 40.9694 52.2374 41.563C52.1703 41.5959 52.1368 41.5959 52.0697 41.5959C51.9691 41.5959 51.6002 41.6289 51.1978 41.6619C49.7222 41.7608 48.2467 41.8598 47.6765 41.7938C47.5089 41.7608 47.4083 41.6619 47.3412 41.497C47.3077 41.3321 47.3747 41.2002 47.5089 41.1013C47.8107 40.9034 47.9784 40.6396 47.9784 40.3758C47.9784 40.1779 47.8778 39.98 47.7101 39.8481C47.5424 39.8811 47.0729 40.1449 46.7711 40.3428C46.4693 40.5406 46.1004 40.7385 45.765 40.9034C45.5973 40.9694 45.3961 40.9364 45.2955 40.7715C45.1949 40.6066 45.2284 40.4087 45.3961 40.2768C45.9662 39.8481 46.201 39.2215 46.1339 38.8588C46.1004 38.6939 46.0333 38.6279 45.9327 38.595C45.3626 38.7928 42.6462 40.5077 42.2773 40.9364C42.1096 41.3321 41.8749 44.6958 42.0425 45.4543C42.1431 45.883 42.5456 45.883 42.6797 45.883C42.8809 45.8501 43.0821 45.982 43.1157 46.1798C43.1157 46.1798 43.2163 46.4766 43.7193 46.9053C43.7193 46.9053 43.7529 46.9053 43.7529 46.9383C44.0211 47.1362 46.0668 47.5319 47.7771 47.7957C47.8107 47.7957 51.4325 48.2904 52.8075 47.9936C54.3502 47.6308 59.85 47.433 61.8622 47.433Z" fill="black"/>
<path d="M42.7469 46.5756C42.5792 46.5756 42.4451 46.4767 42.378 46.3448C42.2103 45.9491 42.4115 42.3875 43.1828 41.3982C43.4847 41.0024 44.2225 40.7386 44.8596 40.4748C45.0608 40.4088 45.2956 40.3099 45.3962 40.2439C45.5974 40.145 45.7986 40.211 45.8992 40.4088C45.9998 40.6067 45.9328 40.8046 45.7316 40.9035C45.5639 40.9694 45.3627 41.0684 45.1279 41.1673C44.692 41.3322 43.9877 41.596 43.7865 41.8269C43.2164 42.5853 43.0487 45.6523 43.1158 46.081C43.1828 46.2788 43.0822 46.4767 42.881 46.5427C42.814 46.5756 42.7804 46.5756 42.7469 46.5756Z" fill="black"/>
<path d="M46.335 48.1586C46.2679 48.1586 46.2344 48.1586 46.1673 48.1256L45.9326 48.0267C44.6582 47.4001 44.021 47.1033 43.7192 46.3448C43.3838 45.4544 43.518 43.6736 43.7863 42.8492C43.9875 42.1896 45.3625 40.178 46.2344 40.3099C46.5697 40.3759 46.9051 40.6067 47.1063 40.9365C47.3746 41.3652 47.4081 41.9258 47.2069 42.5194C46.9386 43.2779 46.5697 43.8055 46.3685 44.0694L46.6368 45.2236L49.0514 45.8172L55.6915 42.7503C55.8927 42.6513 56.0939 42.7503 56.1945 42.9151C56.2951 43.113 56.1945 43.3109 56.0268 43.4098L49.2526 46.5427C49.1855 46.5757 49.0849 46.5757 48.9843 46.5757L46.2008 45.9161C46.0667 45.8831 45.9661 45.7842 45.9326 45.6193L45.5637 44.0694C45.5301 43.9375 45.5637 43.8385 45.6643 43.7396C45.6643 43.7396 46.1673 43.179 46.4691 42.2886C46.6368 41.7939 46.5362 41.4971 46.4356 41.3322C46.335 41.1673 46.2008 41.1014 46.1338 41.0684C45.7649 41.1673 44.7253 42.4535 44.5241 43.08C44.2893 43.8715 44.2222 45.4544 44.457 46.081C44.6247 46.5097 45.0271 46.7406 46.3015 47.3342L46.5362 47.4331C46.7374 47.532 46.8045 47.7629 46.7039 47.9278C46.6368 48.0926 46.5027 48.1586 46.335 48.1586Z" fill="black"/>
<path d="M46.9388 42.2554C46.8046 42.2554 46.6705 42.1895 46.6034 42.0575C46.5028 41.8927 46.5699 41.6618 46.7376 41.5299C46.8717 41.431 46.9723 41.398 47.0729 41.332C47.2071 41.2331 47.3077 41.1671 47.5089 41.0682C47.6766 40.9693 47.9113 41.0352 48.0119 41.2001C48.1125 41.365 48.0455 41.5959 47.8778 41.6948C47.6766 41.7937 47.576 41.8597 47.4754 41.9256C47.3748 41.9916 47.2741 42.0246 47.14 42.1235C47.0729 42.2224 47.0059 42.2554 46.9388 42.2554Z" fill="black"/>
<path d="M49.2193 44.5969C49.0851 44.5969 46.7041 44.465 45.8992 44.3331C45.698 44.3001 45.5639 44.1023 45.5974 43.9044C45.631 43.7065 45.8322 43.5746 46.0334 43.6076C46.6706 43.7065 48.515 43.8055 49.0851 43.8714C49.6553 43.2778 51.3991 41.563 52.1704 41.2992C52.3717 41.2332 52.5729 41.3321 52.6399 41.53C52.707 41.7279 52.6064 41.9257 52.4052 41.9917C51.9021 42.1566 50.326 43.6076 49.4876 44.498C49.4205 44.5639 49.3534 44.5969 49.2193 44.5969Z" fill="black"/>
<path d="M103.179 38.6607C103.111 38.6607 103.078 38.6607 103.011 38.6278C101.435 37.9023 98.886 35.1981 98.7518 35.0662L98.7183 35.0332L85.371 17.2582C84.9351 16.9614 82.0174 14.7519 79.9718 12.6414C79.8376 12.4765 79.8376 12.2456 80.0053 12.1137C80.173 11.9818 80.4077 11.9818 80.5419 12.1467C82.6211 14.3562 85.8405 16.6976 85.8741 16.6976C85.9076 16.7306 85.9411 16.7306 85.9411 16.7636L99.3219 34.5715C99.5231 34.8024 101.938 37.2757 103.313 37.9352C103.514 38.0342 103.581 38.232 103.48 38.4299C103.48 38.5948 103.313 38.6607 103.179 38.6607Z" fill="black"/>
<path d="M109.986 38.0012C104.419 38.7267 104.419 38.0342 97.5778 39.4193C90.7365 40.7713 81.1117 44.1351 78.5295 44.1351C75.9472 44.1351 67.1944 44.201 65.3163 44.3989C60.6213 44.9595 54.5178 48.5871 54.5178 49.1477C54.5178 50.0381 56.4629 49.9391 56.4629 49.9391C56.4629 49.9391 56.6641 50.4998 57.6367 50.4998C58.6427 50.4998 60.6213 49.6753 60.6213 49.6753C60.6213 49.6753 60.1518 50.8625 62.0969 50.6976C63.1701 50.5987 66.9931 49.3455 66.9931 49.3455L69.5754 49.1807C69.5754 49.1807 69.8772 49.1477 72.5601 49.6094C75.2429 50.0711 78.6971 50.2689 79.8038 50.2689C80.9105 50.2689 82.3861 49.5434 82.3861 49.5434C82.3861 49.5434 105.19 48.5211 108.578 48.5211C111.965 48.5211 115.553 47.3669 116.76 46.1137C117.9 44.9265 118.135 43.8053 116.76 40.8043L109.986 38.0012Z" fill="#E4E4E4"/>
<path d="M61.7281 51.0934C61.0909 51.0934 60.6214 50.9285 60.3867 50.5987C60.2861 50.4998 60.2525 50.3679 60.219 50.2359C59.5147 50.4998 58.341 50.8625 57.6367 50.8625C56.8989 50.8625 56.463 50.5657 56.2282 50.3019C55.7923 50.3019 54.8868 50.2359 54.4173 49.8072C54.2161 49.6094 54.1155 49.3785 54.1155 49.1477C54.1155 48.0594 60.9568 44.5308 65.2494 44.0361C67.0938 43.8053 75.6119 43.7393 78.496 43.7393C79.8039 43.7393 83.1239 42.816 86.9805 41.7277C90.4012 40.7714 94.2578 39.6831 97.4772 39.0565C101.636 38.2321 103.245 38.1661 105.157 38.0672C106.431 38.0012 107.706 37.9353 109.919 37.6385C110.12 37.6055 110.321 37.7704 110.355 37.9682C110.389 38.1661 110.221 38.364 110.02 38.397C107.773 38.6938 106.398 38.7597 105.19 38.8257C103.312 38.9246 101.703 38.9906 97.6114 39.815C94.392 40.4416 90.5689 41.5298 87.1818 42.4862C83.2916 43.5745 79.9045 44.5308 78.496 44.5308C75.6119 44.5308 67.1274 44.5968 65.3164 44.7946C60.9903 45.2893 55.4569 48.4881 54.8533 49.2466C54.8533 49.2796 54.8868 49.2796 54.8868 49.3126C55.1216 49.5434 55.8929 49.6094 56.3624 49.6094C56.5301 49.6094 56.6977 49.7083 56.7313 49.8732C56.7313 49.8732 56.8654 50.17 57.5361 50.17C58.2739 50.17 59.8501 49.6094 60.3867 49.3785C60.5208 49.3126 60.6885 49.3456 60.7891 49.4445C60.8897 49.5434 60.9232 49.7083 60.8897 49.8402C60.8897 49.8402 60.8226 50.0381 60.9232 50.17C60.9568 50.2359 61.1915 50.4338 61.9629 50.3349C62.8348 50.2689 65.7189 49.3456 66.792 49.0158C66.8255 49.0158 66.8591 48.9828 66.8926 48.9828L69.4749 48.8179C69.5419 48.8179 70.0114 48.8179 72.5602 49.2466C75.3101 49.7083 78.7643 49.9062 79.7368 49.9062C80.7429 49.9062 82.1514 49.2136 82.1514 49.2136C82.1849 49.1807 82.252 49.1807 82.3191 49.1807C82.5538 49.1807 105.157 48.1584 108.511 48.1584C111.931 48.1584 115.352 46.9712 116.425 45.8499C117.431 44.7617 117.666 43.8053 116.358 40.9362C114.983 37.9682 94.7944 8.22238 94.5596 7.92558C94.459 7.76069 94.4926 7.52985 94.6602 7.39793C94.8279 7.299 95.0627 7.33198 95.1968 7.49687C96.0352 8.71704 115.654 37.6055 117.029 40.6065C118.37 43.5085 118.337 44.8936 116.962 46.3446C115.62 47.7296 111.831 48.8839 108.511 48.8839C105.291 48.8839 83.8953 49.8402 82.4197 49.9062C82.0843 50.0711 80.7764 50.6317 79.7368 50.6317C78.5295 50.6317 75.0418 50.4008 72.4596 49.9721C69.9779 49.5434 69.5755 49.5434 69.5419 49.5434L67.0268 49.7083C66.5573 49.8732 63.1366 50.9615 62.0635 51.0604C61.9629 51.0934 61.8287 51.0934 61.7281 51.0934Z" fill="black"/>
<path d="M56.4294 50.3019C56.3288 50.3019 56.2282 50.2689 56.1611 50.203C56.027 50.104 55.9935 49.9391 56.027 49.7413C56.2617 48.9498 60.3531 46.2456 65.9871 45.0255C66.1883 44.9925 66.3895 45.0914 66.4566 45.3223C66.4901 45.5201 66.3895 45.718 66.1548 45.784C60.8561 46.9382 57.2678 49.3455 56.7983 49.9391C56.7983 50.0381 56.7648 50.137 56.6977 50.203C56.6306 50.2689 56.53 50.3019 56.4294 50.3019Z" fill="black"/>
<path d="M60.588 50.071C60.4873 50.071 60.3867 50.038 60.3197 49.9391C60.1855 49.7742 60.1855 49.5434 60.3532 49.4115C60.7892 49.0157 63.9415 46.9711 68.7707 46.6743C68.9719 46.6743 69.1731 46.8062 69.1731 47.0371C69.1731 47.2349 69.039 47.4328 68.8042 47.4328C64.2769 47.7296 61.2251 49.6423 60.8562 49.9721C60.7892 50.038 60.6886 50.071 60.588 50.071Z" fill="black"/>
<path d="M264.854 38.9247C260.864 38.9247 248.959 37.7375 247.449 37.3417C238.864 35.0993 222.935 34.2089 215.49 35.0003C215.02 35.0333 211.097 34.4727 202.914 33.2525C188.359 31.109 166.36 27.8442 159.955 27.8442C159.753 27.8442 159.586 27.6793 159.586 27.4814C159.586 27.2835 159.753 27.1187 159.955 27.1187C166.427 27.1187 188.46 30.3834 203.015 32.527C209.286 33.4504 214.718 34.2748 215.356 34.2748H215.389C223.035 33.4504 238.797 34.3078 247.617 36.6162C249.394 37.0779 264.519 38.463 265.76 38.1002C265.961 38.0343 266.162 38.1662 266.229 38.364C266.297 38.5619 266.162 38.7598 265.961 38.8257C265.827 38.8917 265.425 38.9247 264.854 38.9247Z" fill="black"/>
<path d="M45.2959 15.4115C44.491 16.0051 44.9605 16.6316 45.3294 17.0603C43.552 16.9944 42.6466 16.9614 41.4057 16.9614C35.604 16.9614 30.8755 21.5783 30.8755 27.4813C30.8755 33.3843 35.604 38.0012 41.4057 38.0012C42.6466 38.0012 43.552 38.0012 45.3294 37.9022C44.9605 38.3639 44.491 38.9575 45.2959 39.5511C46.302 40.2766 52.1036 39.6171 52.942 37.6384C52.9756 37.5725 53.0091 37.4735 53.0426 37.3416C53.6798 37.1767 54.7865 36.781 55.3231 36.5502C58.0395 35.4619 62.3321 32.395 62.3321 27.4813C62.3321 22.6006 58.0395 19.5337 55.3231 18.4124C54.7865 18.1816 53.6463 17.7859 53.0426 17.621C53.0091 17.4891 52.9756 17.3901 52.942 17.3242C52.0701 15.3455 46.2684 14.686 45.2959 15.4115Z" fill="#E4E4E4"/>
<path d="M46.9055 40.2107C46.1006 40.2107 45.3964 40.1118 45.061 39.848C44.7257 39.5842 44.5245 39.2874 44.4909 38.9576C44.4574 38.7267 44.5245 38.4959 44.6251 38.298C43.3172 38.364 42.5459 38.364 41.4392 38.364C35.3357 38.364 30.54 33.5822 30.54 27.4814C30.54 21.3805 35.3357 16.5987 41.4392 16.5987C42.5459 16.5987 43.3507 16.5987 44.6251 16.6647C44.5245 16.4668 44.4909 16.236 44.4909 16.0051C44.5245 15.6753 44.7257 15.3785 45.061 15.1147C45.8324 14.5541 48.2805 14.719 50.1249 15.1807C51.3322 15.5105 52.8413 16.1041 53.3108 17.1923C53.3444 17.2583 53.3444 17.2912 53.3779 17.3572C54.0486 17.5551 54.9876 17.9178 55.4907 18.1157C58.8442 19.4678 62.7344 22.7326 62.7344 27.5143C62.7344 32.2961 58.8442 35.5609 55.4907 36.913C54.9876 37.1108 54.0151 37.4736 53.3779 37.6715C53.3779 37.7374 53.3444 37.7704 53.3108 37.8363C52.8413 38.9246 51.3322 39.5182 50.1249 39.848C49.0853 40.0459 47.9116 40.2107 46.9055 40.2107ZM45.3293 37.5396C45.4635 37.5396 45.5976 37.6055 45.6647 37.7374C45.7318 37.8693 45.6982 38.0342 45.6311 38.1331C45.4299 38.364 45.2287 38.6608 45.2287 38.8587C45.2287 38.9906 45.3293 39.1225 45.497 39.2214C45.8994 39.5182 47.9116 39.5512 49.8902 39.0235C51.3322 38.6278 52.3048 38.0672 52.5731 37.4406C52.5731 37.4076 52.6401 37.3087 52.6401 37.2098C52.6737 37.0779 52.7743 36.946 52.9084 36.913C53.5121 36.7481 54.6187 36.3524 55.1553 36.1215C57.6705 35.0992 61.9295 32.1312 61.9295 27.4154C61.9295 22.6996 57.704 19.7976 55.1888 18.7752C54.6523 18.5444 53.5456 18.1487 52.942 17.9838C52.8078 17.9508 52.7072 17.8189 52.6737 17.687C52.6401 17.588 52.6066 17.4891 52.6066 17.4561C52.3383 16.8296 51.3658 16.2689 49.9237 15.8732C47.9451 15.3456 45.933 15.3785 45.5305 15.6753C45.3629 15.8073 45.2623 15.9392 45.2623 16.0381C45.2287 16.2689 45.4299 16.5328 45.6647 16.7636C45.7653 16.8625 45.7653 17.0274 45.6982 17.1593C45.6311 17.2912 45.497 17.3572 45.3293 17.3572C43.5855 17.2912 42.7135 17.2583 41.4056 17.2583C35.7046 17.2583 31.2443 21.7103 31.2443 27.4154C31.2443 33.1205 35.7046 37.5725 41.4056 37.5725C42.68 37.6385 43.5519 37.6055 45.3293 37.5396Z" fill="black"/>
<path d="M53.0426 18.0169H53.009C50.5945 17.753 48.3476 17.4892 45.3293 17.4562C45.1281 17.4562 44.9604 17.2914 44.9604 17.0605C44.9604 16.8626 45.1281 16.6978 45.3293 16.6978C48.3811 16.7637 50.6615 16.9946 53.0761 17.2914C53.2773 17.3243 53.445 17.4892 53.4115 17.7201C53.3779 17.8849 53.2103 18.0169 53.0426 18.0169Z" fill="black"/>
<path d="M45.3293 38.2979C45.1281 38.2979 44.9604 38.1331 44.9604 37.9352C44.9604 37.7373 45.1281 37.5724 45.3293 37.5395C48.3476 37.4735 50.5945 37.2427 53.009 36.9788C53.2103 36.9459 53.4115 37.1107 53.445 37.3086C53.4785 37.5065 53.3109 37.7043 53.1097 37.7373C50.6615 37.9682 48.3811 38.232 45.3293 38.2979Z" fill="black"/>
</g>
<defs>
<clipPath id="clip0_139_792">
<rect width="300" height="68.6962" fill="white"/>
</clipPath>
</defs>
</svg>
