<svg width="300" height="69" viewBox="0 0 300 69" fill="none" xmlns="http://www.w3.org/2000/svg">
<g clip-path="url(#clip0_139_793)">
<path d="M294.534 68.4939H8.50691C5.58929 68.4939 3.20825 66.1525 3.20825 63.2834V44.9148C3.20825 42.0458 5.58929 39.7043 8.50691 39.7043H294.534C297.451 39.7043 299.832 42.0458 299.832 44.9148V63.2834C299.832 66.1525 297.451 68.4939 294.534 68.4939Z" fill="#DBE5F5" stroke="black" stroke-miterlimit="10"/>
<path d="M26.6497 39.7043V68.4939" stroke="black" stroke-miterlimit="10"/>
<path d="M48.1799 39.7043V68.4939" stroke="black" stroke-miterlimit="10"/>
<path d="M75.2766 48.0808V68.494" stroke="black" stroke-miterlimit="10"/>
<path d="M100.496 48.0808V68.494" stroke="black" stroke-miterlimit="10"/>
<path d="M127.056 46.7947V68.494" stroke="black" stroke-miterlimit="10"/>
<path d="M151.503 50.521V68.4938" stroke="black" stroke-miterlimit="10"/>
<path d="M181.35 45.8052V68.4938" stroke="black" stroke-miterlimit="10"/>
<path d="M214.517 45.0798V68.494" stroke="black" stroke-miterlimit="10"/>
<path d="M248.858 43.5627V68.4939" stroke="black" stroke-miterlimit="10"/>
<path d="M279.443 45.0798V68.494" stroke="black" stroke-miterlimit="10"/>
<path d="M71.0847 38.5832C71.0847 37.8247 70.7829 37.2311 70.5481 36.5716C69.8774 35.0546 68.4689 33.2738 64.2098 32.3834C62.3654 31.9877 57.7374 31.559 55.1552 31.46C51.2986 31.3281 43.6189 31.3281 39.7622 31.46C37.18 31.559 32.5856 31.9877 30.7076 32.3834C26.4821 33.2738 25.0736 35.0216 24.3693 36.5716C24.1346 37.2641 23.8327 37.8577 23.8327 38.5832C23.8327 38.5832 23.2291 42.7714 28.0583 42.7714H28.293H66.5238H66.7586C71.6883 42.7714 71.0847 38.5832 71.0847 38.5832Z" fill="#EAEAEA" stroke="black" stroke-miterlimit="10"/>
<path d="M285.882 36.4726C285.781 34.6918 283.4 33.4057 275.217 33.6365C275.217 33.6365 265.693 33.2737 265.09 33.2078C264.452 33.0759 254.828 32.1855 254.09 31.9546L252.011 31.2291C245.136 28.7558 235.511 23.9411 229.709 22.9517C222.13 21.6986 214.149 22.3252 214.149 22.3252C214.149 22.3252 194.799 11.8712 180.512 8.30963C173.637 6.59479 169.311 5.73737 152.208 5.73737C137.318 5.73737 132.891 8.70537 128.632 8.70537C120.148 8.70537 103.682 4.48422 94.56 3.72573C75.8806 -5.04633 75.9141 10.1564 74.7739 14.1797C74.2038 16.1913 73.0301 19.7859 68.2009 21.039C67.0607 21.3358 60.8901 20.9401 58.7773 21.1709V34.0982L71.7222 35.7141C73.7343 37.0332 74.405 38.748 74.8075 40.1331C75.9477 44.1564 76.5849 49.9275 89.2949 48.8392C98.4167 48.0478 120.181 46.5638 128.666 46.5638C132.891 46.5638 137.352 49.0701 152.242 49.5318C156.937 49.6637 158.714 49.8615 164.818 49.6637C181.82 49.103 206.871 47.685 212.17 47.3882C214.585 47.619 223.841 48.5424 227.228 48.5424C235.075 48.6084 256.27 46.6627 262.205 46.1021C263.01 46.0361 263.849 46.0691 264.62 46.234C264.855 46.2999 265.19 46.3329 265.559 46.3989C265.894 46.4318 267.035 46.2999 267.437 46.3329C272.4 46.9265 280.617 48.0148 280.717 48.0148C291.08 49.0041 291.08 47.2233 292.354 44.4862C293.36 42.1777 299.128 34.4939 285.882 36.4726Z" fill="white"/>
<path d="M160.223 50.0923C158.311 50.0923 156.836 50.0264 155.058 49.9604C154.186 49.9275 153.247 49.8945 152.174 49.8615C142.717 49.5647 137.318 48.4435 133.763 47.685C131.65 47.2233 130.108 46.8935 128.599 46.8935C120.349 46.8935 98.9195 48.3775 89.2612 49.169C77.0877 50.1913 75.6456 44.8819 74.5725 41.0235C74.5054 40.7597 74.4383 40.4629 74.3377 40.199C73.9353 38.814 73.2981 37.264 71.4872 36.0109L58.643 34.4279C58.4418 34.395 58.3076 34.2301 58.3076 34.0652V21.1379C58.3076 20.9401 58.4418 20.7752 58.643 20.7752C59.6826 20.6762 61.5941 20.7092 63.4721 20.7422C65.4507 20.7752 67.4629 20.8082 68.033 20.6762C72.7951 19.4561 73.8347 15.8285 74.3377 14.0807C74.4719 13.586 74.606 12.9595 74.7402 12.168C75.3773 8.80428 76.3163 3.69274 80.5419 1.58216C83.8284 -0.0667216 88.5904 0.526877 94.6269 3.36296C98.5841 3.69274 103.782 4.64909 109.316 5.6714C116.459 6.9905 123.837 8.34259 128.599 8.34259C130.041 8.34259 131.55 7.97983 133.428 7.51815C137.016 6.66073 142.415 5.3746 152.141 5.3746C169.378 5.3746 173.738 6.265 180.546 7.94686C194.195 11.3436 212.639 21.1379 214.182 21.9624C215.188 21.8964 222.667 21.4347 229.743 22.6219C233.599 23.2815 239.066 25.5569 244.364 27.7994C247.148 28.9536 249.764 30.0749 252.111 30.9323L254.19 31.6248C254.593 31.7568 258.718 32.1855 261.434 32.4493C263.614 32.6801 264.855 32.812 265.123 32.845C265.559 32.878 271.897 33.1418 275.184 33.2737C282.226 33.1088 285.647 33.9663 286.15 36.0768C290.577 35.4503 293.226 35.879 294.299 37.363C295.573 39.1767 294.064 41.9139 293.092 43.7277C292.891 44.0904 292.723 44.4202 292.589 44.651C292.488 44.8489 292.421 45.0138 292.354 45.2117C291.147 47.9158 290.074 49.3009 280.583 48.4105C280.549 48.4105 280.214 48.3775 279.644 48.2786C277.363 47.9818 271.293 47.1903 267.303 46.6956C267.135 46.6627 266.733 46.6956 266.397 46.7286C265.995 46.7616 265.659 46.7616 265.458 46.7616C265.089 46.7286 264.754 46.6627 264.486 46.5967C263.748 46.4318 262.977 46.3988 262.172 46.4648C255.934 47.0584 234.974 49.0041 227.16 48.9052C223.807 48.8722 214.819 48.0148 212.103 47.7509C207.106 48.0477 181.82 49.4658 164.784 50.0264C162.939 50.0594 161.464 50.0923 160.223 50.0923ZM128.632 46.135C130.208 46.135 131.785 46.4648 133.931 46.9265C137.687 47.718 142.784 48.8062 152.208 49.103C153.315 49.136 154.22 49.169 155.092 49.2019C157.976 49.3009 160.089 49.3998 164.75 49.2349C181.82 48.6743 207.173 47.2563 212.103 46.9595C212.136 46.9595 212.136 46.9595 212.17 46.9595C214.853 47.2233 223.84 48.0807 227.194 48.1137C234.974 48.1796 255.901 46.2669 262.138 45.6733C263.01 45.5744 263.882 45.6404 264.687 45.8052C264.955 45.8712 265.257 45.9042 265.592 45.9372C265.727 45.9372 266.095 45.9372 266.397 45.9042C266.833 45.8712 267.236 45.8382 267.47 45.8712C271.461 46.3659 277.531 47.1573 279.812 47.4541C280.348 47.5201 280.684 47.5531 280.717 47.586C290.074 48.4764 290.711 47.1244 291.717 44.8489C291.784 44.684 291.884 44.4861 291.985 44.2883C292.119 44.0245 292.287 43.6947 292.488 43.2989C293.326 41.749 294.769 39.1438 293.762 37.7257C292.857 36.4726 290.241 36.1758 285.982 36.8023C285.882 36.8023 285.781 36.8023 285.68 36.7364C285.613 36.6704 285.546 36.5715 285.546 36.4726C285.446 34.6258 282.092 33.8014 275.284 33.9663C274.882 33.9663 265.693 33.6035 265.123 33.5375C264.855 33.5046 263.211 33.3067 261.467 33.1418C257.544 32.7461 254.492 32.4163 254.056 32.2844L251.943 31.5589C249.562 30.7015 246.946 29.5802 244.163 28.426C238.898 26.2165 233.465 23.941 229.709 23.3145C222.264 22.0613 214.316 22.6879 214.216 22.6879C214.148 22.6879 214.081 22.6879 214.014 22.6549C213.813 22.556 194.564 12.168 180.479 8.67237C173.738 6.9905 169.412 6.10011 152.275 6.10011C142.617 6.10011 137.486 7.32028 133.73 8.24366C131.785 8.70534 130.242 9.0681 128.699 9.0681C123.837 9.0681 116.425 7.71601 109.282 6.39691C103.749 5.3746 98.517 4.41824 94.5934 4.08847C94.5598 4.08847 94.4927 4.08847 94.4592 4.05549C88.624 1.31834 84.0631 0.691765 80.9778 2.24172C77.1212 4.1874 76.1822 9.0681 75.5786 12.2999C75.4444 13.0914 75.3103 13.7509 75.1761 14.2786C74.6396 16.1583 73.5329 20.0497 68.3348 21.4018C67.6641 21.5666 65.7861 21.5337 63.5727 21.5007C61.9295 21.4677 60.2192 21.4347 59.1795 21.5007V33.7354L71.789 35.3183C71.8561 35.3183 71.8896 35.3513 71.9567 35.3843C74.0359 36.7694 74.7402 38.4842 75.1761 40.0342C75.2432 40.298 75.3438 40.5618 75.4109 40.8586C76.4505 44.684 77.7248 49.4328 89.2947 48.4764C98.9195 47.619 120.382 46.135 128.632 46.135Z" fill="black"/>
<path d="M78.7978 25.0623C78.6637 25.0623 78.5295 24.9964 78.4625 24.8644C77.3558 22.7209 77.6911 14.4765 77.7247 14.1467C77.7247 13.9488 77.9259 13.7839 78.1271 13.7839C78.3283 13.7839 78.496 13.9818 78.496 14.1797C78.3954 16.5211 78.3283 22.8858 79.1667 24.5347C79.2673 24.7325 79.2002 24.9304 78.999 25.0293C78.932 25.0623 78.8649 25.0623 78.7978 25.0623Z" fill="black"/>
<path d="M76.8863 45.2775C76.6516 45.2445 76.4839 45.0797 76.5175 44.8818C76.551 44.4861 77.3558 35.2853 78.4625 33.1417C78.5631 32.9439 78.7979 32.8779 78.9656 32.9768C79.1668 33.0758 79.2338 33.3066 79.1332 33.4715C78.0936 35.4502 77.2888 44.8158 77.2552 44.9148C77.2552 45.1456 77.0876 45.2775 76.8863 45.2775Z" fill="black"/>
<path d="M266.095 38.9789C265.928 38.9789 265.794 38.88 265.726 38.7151C265.659 38.5173 265.793 38.3194 265.995 38.2534C267.94 37.6928 271.796 36.8024 275.519 37.1652C276.961 37.2971 278.436 37.1981 279.811 36.8354C282.696 36.0769 285.647 36.1099 285.948 36.1429C286.15 36.1758 286.317 36.3407 286.284 36.5386C286.25 36.7365 286.083 36.9013 285.881 36.8684C285.613 36.8354 282.796 36.8024 280.013 37.5279C278.537 37.9237 276.994 38.0226 275.452 37.8907C271.863 37.5609 268.107 38.4183 266.229 38.9789C266.162 38.9789 266.129 38.9789 266.095 38.9789Z" fill="black"/>
<path d="M102.541 41.3534C97.5779 40.0673 95.5323 39.2428 88.2215 40.3971C80.9107 41.5513 66.3897 42.9034 64.5452 42.4746C62.7343 42.0459 60.4538 40.2981 58.3411 40.2981C56.1948 40.2981 53.5119 40.7598 52.2376 41.3864C51.8687 41.3864 48.6828 41.6832 47.8779 41.5842C48.7163 41.0236 48.6828 40.1003 48.0791 39.6715C47.7102 39.4077 46.7042 40.2651 45.7987 40.6939C46.8383 39.9024 47.006 38.5503 46.1341 38.3195C45.8658 38.2535 42.6128 40.2651 42.1433 40.8258C41.875 41.1555 41.6403 44.8161 41.8415 45.6405C42.0427 46.4649 42.8811 46.333 42.8811 46.333C42.8811 46.333 42.9482 46.7288 43.6189 47.2894C43.9878 47.6521 47.8444 48.2457 47.8444 48.2457C47.8444 48.2457 51.5669 48.7734 53.0424 48.4436C54.518 48.1468 59.9173 47.916 62.03 47.916C64.1428 47.916 64.4446 48.7074 66.4903 49.0702C68.536 49.4329 87.3495 50.7191 91.2732 50.7191C95.1969 50.7191 102.306 47.6192 103.715 46.2011C105.157 44.8161 103.681 41.6502 102.541 41.3534Z" fill="white"/>
<path d="M91.2731 51.0817C87.4836 51.0817 68.7035 49.8285 66.4231 49.4328C65.5176 49.2679 64.914 49.0371 64.3774 48.8062C63.7067 48.5424 63.1366 48.2786 61.9964 48.2786C59.783 48.2786 54.4844 48.5094 53.1094 48.8062C51.6003 49.136 47.9449 48.6084 47.7772 48.6084C46.3016 48.3775 43.82 47.9488 43.3505 47.5531C42.9145 47.2233 42.7133 46.8935 42.6127 46.6957C42.1767 46.6627 41.6401 46.4318 41.4725 45.7063C41.2713 44.9149 41.4389 41.0565 41.8414 40.5618C42.1432 40.1661 45.6309 37.7587 46.2346 37.9236C46.6705 38.0225 46.9388 38.3523 47.0394 38.781C47.0729 39.0119 47.0729 39.2427 47.0059 39.5065C47.5089 39.2097 47.9449 39.0449 48.3138 39.3087C48.7162 39.5725 48.9174 40.0012 48.9174 40.4629C48.9174 40.6937 48.8503 40.9246 48.7497 41.1224C49.5211 41.0895 50.5942 41.0235 51.332 40.9576C51.768 40.9246 52.0362 40.8916 52.2039 40.8916C53.5454 40.298 56.2282 39.8033 58.4081 39.8033C59.783 39.8033 61.1245 40.4629 62.4323 41.0895C63.2372 41.4852 64.0085 41.848 64.6792 42.0128C66.3896 42.4086 80.9441 41.0565 88.1878 39.9352C94.9621 38.88 97.2425 39.5065 101.434 40.5948C101.837 40.6937 102.239 40.7927 102.675 40.9246C103.514 41.1554 104.251 42.3426 104.553 43.4309C104.889 44.6511 104.687 45.7393 104.017 46.4318C102.508 47.9158 95.2639 51.0817 91.2731 51.0817ZM62.0299 47.5531C63.3043 47.5531 63.975 47.8169 64.6792 48.1137C65.1823 48.3116 65.7189 48.5424 66.5572 48.7073C68.4688 49.0371 87.2824 50.3562 91.2731 50.3562C95.0291 50.3562 102.072 47.2893 103.447 45.9372C104.151 45.2447 103.916 44.1234 103.782 43.6617C103.48 42.6064 102.843 41.815 102.441 41.6831C102.005 41.5841 101.602 41.4522 101.2 41.3533C97.1084 40.298 94.8615 39.7044 88.2884 40.7267C81.4136 41.782 66.4902 43.266 64.478 42.7713C63.7067 42.6064 62.9018 42.2107 62.0635 41.815C60.8226 41.2214 59.5483 40.6278 58.341 40.6278C56.2282 40.6278 53.6124 41.0895 52.4051 41.6831C52.3381 41.716 52.3045 41.716 52.2375 41.716C52.1369 41.716 51.768 41.749 51.3655 41.782C49.89 41.8809 48.4144 41.9799 47.8443 41.9139C47.6766 41.8809 47.576 41.782 47.5089 41.6171C47.4754 41.4522 47.5425 41.3203 47.6766 41.2214C47.9784 41.0235 48.1461 40.7597 48.1461 40.4959C48.1461 40.298 48.0455 40.1001 47.8778 39.9682C47.7101 40.0012 47.2406 40.265 46.9388 40.4629C46.637 40.6608 46.2681 40.8586 45.9327 41.0235C45.7651 41.0895 45.5638 41.0565 45.4632 40.8916C45.3626 40.7267 45.3962 40.5288 45.5638 40.3969C46.1339 39.9682 46.3687 39.3417 46.3016 38.9789C46.2681 38.814 46.201 38.7481 46.1004 38.7151C45.5303 38.9129 42.8139 40.6278 42.445 41.0565C42.2773 41.4522 42.0426 44.8159 42.2103 45.5744C42.3109 46.0031 42.7133 46.0031 42.8474 46.0031C43.0487 45.9702 43.2499 46.1021 43.2834 46.2999C43.2834 46.2999 43.384 46.5967 43.887 47.0254C43.887 47.0254 43.9206 47.0254 43.9206 47.0584C44.1889 47.2563 46.2346 47.652 47.9449 47.9158C47.9784 47.9158 51.6003 48.4105 52.9752 48.1137C54.5179 47.7509 60.0178 47.5531 62.0299 47.5531Z" fill="black"/>
<path d="M42.9146 46.6958C42.7469 46.6958 42.6128 46.5969 42.5457 46.4649C42.378 46.0692 42.5793 42.5076 43.3506 41.5183C43.6524 41.1225 44.3902 40.8587 45.0274 40.5949C45.2286 40.5289 45.4633 40.43 45.5639 40.3641C45.7652 40.2651 45.9664 40.3311 46.067 40.5289C46.1676 40.7268 46.1005 40.9247 45.8993 41.0236C45.7316 41.0896 45.5304 41.1885 45.2957 41.2874C44.8597 41.4523 44.1554 41.7161 43.9542 41.947C43.3841 42.7055 43.2164 45.7724 43.2835 46.2011C43.3506 46.399 43.25 46.5969 43.0488 46.6628C42.9817 46.6958 42.9481 46.6958 42.9146 46.6958Z" fill="black"/>
<path d="M46.5027 48.2787C46.4356 48.2787 46.4021 48.2787 46.335 48.2457L46.1003 48.1468C44.8259 47.5202 44.1887 47.2234 43.8869 46.4649C43.5516 45.5745 43.6857 43.7937 43.954 42.9693C44.1552 42.3098 45.5302 40.2981 46.4021 40.43C46.7375 40.496 47.0728 40.7268 47.274 41.0566C47.5423 41.4853 47.5759 42.0459 47.3746 42.6395C47.1064 43.398 46.7375 43.9257 46.5363 44.1895L46.8045 45.3437L49.2191 45.9373L55.8592 42.8704C56.0604 42.7714 56.2616 42.8704 56.3622 43.0353C56.4629 43.2331 56.3622 43.431 56.1946 43.5299L49.4203 46.6628C49.3533 46.6958 49.2527 46.6958 49.152 46.6958L46.3686 46.0362C46.2344 46.0033 46.1338 45.9043 46.1003 45.7394L45.7314 44.1895C45.6979 44.0576 45.7314 43.9586 45.832 43.8597C45.832 43.8597 46.335 43.2991 46.6369 42.4087C46.8045 41.914 46.7039 41.6172 46.6033 41.4523C46.5027 41.2874 46.3686 41.2215 46.3015 41.1885C45.9326 41.2874 44.893 42.5736 44.6918 43.2001C44.457 43.9916 44.39 45.5745 44.6247 46.2011C44.7924 46.6298 45.1948 46.8607 46.4692 47.4543L46.7039 47.5532C46.9051 47.6521 46.9722 47.883 46.8716 48.0479C46.8045 48.2128 46.6704 48.2787 46.5027 48.2787Z" fill="black"/>
<path d="M47.1065 42.3755C46.9724 42.3755 46.8382 42.3096 46.7711 42.1777C46.6705 42.0128 46.7376 41.7819 46.9053 41.65C47.0394 41.5511 47.14 41.5181 47.2406 41.4522C47.3748 41.3532 47.4754 41.2873 47.6766 41.1883C47.8443 41.0894 48.079 41.1554 48.1796 41.3202C48.2803 41.4851 48.2132 41.716 48.0455 41.8149C47.8443 41.9138 47.7437 41.9798 47.6431 42.0458C47.5425 42.1117 47.4419 42.1447 47.3077 42.2436C47.2406 42.3426 47.1736 42.3755 47.1065 42.3755Z" fill="black"/>
<path d="M49.387 44.717C49.2529 44.717 46.8718 44.5851 46.067 44.4532C45.8658 44.4202 45.7316 44.2224 45.7651 44.0245C45.7987 43.8266 45.9999 43.6947 46.2011 43.7277C46.8383 43.8266 48.6828 43.9256 49.2529 43.9915C49.823 43.3979 51.5668 41.6831 52.3382 41.4193C52.5394 41.3533 52.7406 41.4523 52.8077 41.6501C52.8747 41.848 52.7741 42.0458 52.5729 42.1118C52.0699 42.2767 50.4937 43.7277 49.6553 44.6181C49.5882 44.6841 49.5212 44.717 49.387 44.717Z" fill="black"/>
<path d="M103.346 38.7809C103.279 38.7809 103.246 38.7809 103.179 38.7479C101.602 38.0224 99.0537 35.3182 98.9195 35.1863L98.886 35.1533L85.5388 17.3783C85.1028 17.0815 82.1852 14.872 80.1395 12.7615C80.0053 12.5966 80.0053 12.3657 80.173 12.2338C80.3407 12.1019 80.5755 12.1019 80.7096 12.2668C82.7888 14.4763 86.0083 16.8177 86.0418 16.8177C86.0753 16.8507 86.1089 16.8507 86.1089 16.8837L99.4896 34.6916C99.6909 34.9225 102.105 37.3958 103.48 38.0554C103.682 38.1543 103.749 38.3522 103.648 38.55C103.648 38.7149 103.48 38.7809 103.346 38.7809Z" fill="black"/>
<path d="M110.154 38.1213C104.587 38.8468 104.587 38.1543 97.7455 39.5394C90.9042 40.8915 81.2794 44.2552 78.6972 44.2552C76.1149 44.2552 67.3621 44.3211 65.4841 44.519C60.7891 45.0796 54.6855 48.7072 54.6855 49.2678C54.6855 50.1582 56.6306 50.0593 56.6306 50.0593C56.6306 50.0593 56.8318 50.6199 57.8044 50.6199C58.8105 50.6199 60.7891 49.7954 60.7891 49.7954C60.7891 49.7954 60.3196 50.9826 62.2646 50.8177C63.3378 50.7188 67.1609 49.4657 67.1609 49.4657L69.7431 49.3008C69.7431 49.3008 70.0449 49.2678 72.7278 49.7295C75.4107 50.1912 78.8649 50.389 79.9715 50.389C81.0782 50.389 82.5538 49.6635 82.5538 49.6635C82.5538 49.6635 105.358 48.6412 108.745 48.6412C112.132 48.6412 115.721 47.487 116.928 46.2338C118.068 45.0466 118.303 43.9254 116.928 40.9244L110.154 38.1213Z" fill="white"/>
<path d="M61.8958 51.2135C61.2586 51.2135 60.7891 51.0486 60.5544 50.7188C60.4538 50.6199 60.4203 50.488 60.3867 50.3561C59.6825 50.6199 58.5087 50.9826 57.8045 50.9826C57.0667 50.9826 56.6307 50.6858 56.396 50.422C55.96 50.422 55.0545 50.3561 54.585 49.9274C54.3838 49.7295 54.2832 49.4986 54.2832 49.2678C54.2832 48.1795 61.1245 44.6509 65.4171 44.1563C67.2616 43.9254 75.7796 43.8595 78.6637 43.8595C79.9716 43.8595 83.2917 42.9361 87.1483 41.8478C90.5689 40.8915 94.4255 39.8032 97.645 39.1766C101.803 38.3522 103.413 38.2862 105.325 38.1873C106.599 38.1213 107.873 38.0554 110.087 37.7586C110.288 37.7256 110.489 37.8905 110.523 38.0884C110.556 38.2862 110.389 38.4841 110.187 38.5171C107.94 38.8139 106.565 38.8798 105.358 38.9458C103.48 39.0447 101.87 39.1107 97.7791 39.9351C94.5597 40.5617 90.7366 41.65 87.3495 42.6063C83.4593 43.6946 80.0722 44.6509 78.6637 44.6509C75.7796 44.6509 67.2951 44.7169 65.4842 44.9148C61.158 45.4094 55.6246 48.6083 55.021 49.3667C55.021 49.3997 55.0545 49.3997 55.0545 49.4327C55.2893 49.6635 56.0606 49.7295 56.5301 49.7295C56.6978 49.7295 56.8655 49.8284 56.899 49.9933C56.899 49.9933 57.0331 50.2901 57.7039 50.2901C58.4416 50.2901 60.0178 49.7295 60.5544 49.4987C60.6885 49.4327 60.8562 49.4657 60.9568 49.5646C61.0574 49.6635 61.091 49.8284 61.0574 49.9603C61.0574 49.9603 60.9904 50.1582 61.091 50.2901C61.1245 50.3561 61.3593 50.5539 62.1306 50.455C63.0025 50.389 65.8866 49.4657 66.9597 49.1359C66.9933 49.1359 67.0268 49.1029 67.0603 49.1029L69.6426 48.938C69.7097 48.938 70.1792 48.938 72.7279 49.3667C75.4778 49.8284 78.932 50.0263 79.9045 50.0263C80.9106 50.0263 82.3191 49.3338 82.3191 49.3338C82.3527 49.3008 82.4197 49.3008 82.4868 49.3008C82.7215 49.3008 105.325 48.2785 108.678 48.2785C112.099 48.2785 115.52 47.0913 116.593 45.97C117.599 44.8818 117.834 43.9254 116.526 41.0564C115.151 38.0884 94.9621 8.34249 94.7274 8.0457C94.6268 7.88081 94.6603 7.64996 94.828 7.51805C94.9957 7.41912 95.2304 7.4521 95.3645 7.61699C96.2029 8.83716 115.821 37.7256 117.196 40.7266C118.538 43.6286 118.504 45.0137 117.129 46.4647C115.788 47.8498 111.998 49.004 108.678 49.004C105.459 49.004 84.063 49.9603 82.5874 50.0263C82.252 50.1912 80.9442 50.7518 79.9045 50.7518C78.6973 50.7518 75.2095 50.521 72.6273 50.0922C70.1456 49.6635 69.7432 49.6635 69.7097 49.6635L67.1945 49.8284C66.725 49.9933 63.3043 51.0816 62.2312 51.1805C62.1306 51.2135 61.9964 51.2135 61.8958 51.2135Z" fill="black"/>
<path d="M56.5971 50.422C56.4965 50.422 56.3959 50.389 56.3289 50.3231C56.1947 50.2242 56.1612 50.0593 56.1947 49.8614C56.4295 49.0699 60.5208 46.3658 66.1549 45.1456C66.3561 45.1126 66.5573 45.2115 66.6244 45.4424C66.6579 45.6403 66.5573 45.8381 66.3225 45.9041C61.0239 47.0583 57.4355 49.4657 56.966 50.0593C56.966 50.1582 56.9325 50.2571 56.8654 50.3231C56.7984 50.389 56.6977 50.422 56.5971 50.422Z" fill="black"/>
<path d="M60.7557 50.1911C60.6551 50.1911 60.5545 50.1581 60.4874 50.0592C60.3532 49.8943 60.3532 49.6635 60.5209 49.5316C60.9569 49.1358 64.1093 47.0912 68.9384 46.7944C69.1396 46.7944 69.3408 46.9263 69.3408 47.1572C69.3408 47.3551 69.2067 47.5529 68.972 47.5529C64.4446 47.8497 61.3929 49.7624 61.024 50.0922C60.9569 50.1581 60.8563 50.1911 60.7557 50.1911Z" fill="black"/>
<path d="M265.022 39.0448C261.032 39.0448 249.126 37.8576 247.617 37.4619C239.032 35.2194 223.103 34.329 215.658 35.1204C215.188 35.1534 211.264 34.5928 203.082 33.3726C188.527 31.2291 166.528 27.9643 160.122 27.9643C159.921 27.9643 159.753 27.7994 159.753 27.6015C159.753 27.4037 159.921 27.2388 160.122 27.2388C166.595 27.2388 188.628 30.5036 203.182 32.6471C209.453 33.5705 214.886 34.3949 215.523 34.3949H215.557C223.203 33.5705 238.965 34.4279 247.785 36.7363C249.562 37.198 264.687 38.5831 265.928 38.2203C266.129 38.1544 266.33 38.2863 266.397 38.4842C266.464 38.682 266.33 38.8799 266.129 38.9458C265.995 39.0118 265.592 39.0448 265.022 39.0448Z" fill="black"/>
<path d="M45.4636 15.5316C44.6587 16.1252 45.1282 16.7518 45.4971 17.1805C43.7197 17.1145 42.8143 17.0815 41.5735 17.0815C35.7718 17.0815 31.0432 21.6984 31.0432 27.6014C31.0432 33.5044 35.7718 38.1213 41.5735 38.1213C42.8143 38.1213 43.7197 38.1213 45.4971 38.0224C45.1282 38.4841 44.6587 39.0777 45.4636 39.6713C46.4697 40.3968 52.2714 39.7372 53.1098 37.7585C53.1433 37.6926 53.1768 37.5937 53.2104 37.4617C53.8476 37.2969 54.9542 36.9011 55.4908 36.6703C58.2072 35.582 62.4998 32.5151 62.4998 27.6014C62.4998 22.7207 58.2072 19.6538 55.4908 18.5325C54.9542 18.3017 53.814 17.906 53.2104 17.7411C53.1768 17.6092 53.1433 17.5102 53.1098 17.4443C52.2378 15.4656 46.4361 14.8061 45.4636 15.5316Z" fill="white"/>
<path d="M47.0732 40.3309C46.2684 40.3309 45.5641 40.2319 45.2288 39.9681C44.8934 39.7043 44.6922 39.4075 44.6587 39.0777C44.6251 38.8469 44.6922 38.616 44.7928 38.4182C43.4849 38.4841 42.7136 38.4841 41.6069 38.4841C35.5034 38.4841 30.7078 33.7023 30.7078 27.6015C30.7078 21.5006 35.5034 16.7188 41.6069 16.7188C42.7136 16.7188 43.5184 16.7188 44.7928 16.7848C44.6922 16.5869 44.6587 16.3561 44.6587 16.1252C44.6922 15.7955 44.8934 15.4987 45.2288 15.2348C46.0001 14.6742 48.4482 14.8391 50.2927 15.3008C51.5 15.6306 53.0091 16.2242 53.4786 17.3124C53.5121 17.3784 53.5121 17.4114 53.5456 17.4773C54.2164 17.6752 55.1554 18.0379 55.6584 18.2358C59.012 19.5879 62.9021 22.8527 62.9021 27.6345C62.9021 32.4162 59.012 35.681 55.6584 37.0331C55.1554 37.231 54.1828 37.5937 53.5456 37.7916C53.5456 37.8575 53.5121 37.8905 53.4786 37.9565C53.0091 39.0447 51.5 39.6383 50.2927 39.9681C49.2531 40.166 48.0793 40.3309 47.0732 40.3309ZM45.4971 37.6597C45.6312 37.6597 45.7653 37.7256 45.8324 37.8575C45.8995 37.9894 45.8659 38.1543 45.7989 38.2533C45.5977 38.4841 45.3964 38.7809 45.3964 38.9788C45.3964 39.1107 45.4971 39.2426 45.6647 39.3415C46.0672 39.6383 48.0793 39.6713 50.0579 39.1437C51.5 38.7479 52.4725 38.1873 52.7408 37.5607C52.7408 37.5278 52.8079 37.4288 52.8079 37.3299C52.8414 37.198 52.942 37.0661 53.0761 37.0331C53.6798 36.8682 54.7865 36.4725 55.323 36.2416C57.8382 35.2193 62.0973 32.2513 62.0973 27.5355C62.0973 22.8197 57.8718 19.9177 55.3566 18.8954C54.82 18.6645 53.7133 18.2688 53.1097 18.1039C52.9755 18.0709 52.8749 17.939 52.8414 17.8071C52.8079 17.7082 52.7743 17.6092 52.7743 17.5763C52.506 16.9497 51.5335 16.3891 50.0915 15.9933C48.1128 15.4657 46.1007 15.4987 45.6983 15.7955C45.5306 15.9274 45.43 16.0593 45.43 16.1582C45.3964 16.3891 45.5977 16.6529 45.8324 16.8837C45.933 16.9827 45.933 17.1475 45.8659 17.2795C45.7989 17.4114 45.6647 17.4773 45.4971 17.4773C43.7532 17.4114 42.8813 17.3784 41.5734 17.3784C35.8723 17.3784 31.412 21.8304 31.412 27.5355C31.412 33.2407 35.8723 37.6926 41.5734 37.6926C42.8477 37.7586 43.7197 37.7256 45.4971 37.6597Z" fill="black"/>
<path d="M53.2103 18.137H53.1768C50.7622 17.8732 48.5153 17.6093 45.4971 17.5764C45.2959 17.5764 45.1282 17.4115 45.1282 17.1806C45.1282 16.9828 45.2959 16.8179 45.4971 16.8179C48.5488 16.8838 50.8293 17.1147 53.2438 17.4115C53.4451 17.4444 53.6127 17.6093 53.5792 17.8402C53.5457 18.0051 53.378 18.137 53.2103 18.137Z" fill="black"/>
<path d="M45.4971 38.4181C45.2959 38.4181 45.1282 38.2532 45.1282 38.0553C45.1282 37.8574 45.2959 37.6925 45.4971 37.6596C48.5153 37.5936 50.7622 37.3628 53.1768 37.0989C53.378 37.066 53.5792 37.2309 53.6127 37.4287C53.6463 37.6266 53.4786 37.8245 53.2774 37.8574C50.8293 38.0883 48.5488 38.3521 45.4971 38.4181Z" fill="black"/>
<path d="M294.366 68.4797H8.33918C5.42157 68.4797 3.04053 66.1383 3.04053 63.2692V44.9007C3.04053 42.0316 5.42157 39.6902 8.33918 39.6902H294.366C297.284 39.6902 299.665 42.0316 299.665 44.9007V63.2692C299.665 66.1383 297.284 68.4797 294.366 68.4797Z" fill="#4B80FB" stroke="black" stroke-miterlimit="10"/>
<path d="M26.4819 39.6902V68.4797" stroke="black" stroke-miterlimit="10"/>
<path d="M48.0122 39.6902V68.4797" stroke="black" stroke-miterlimit="10"/>
<path d="M75.1089 48.0664V68.4796" stroke="black" stroke-miterlimit="10"/>
<path d="M100.328 48.0664V68.4796" stroke="black" stroke-miterlimit="10"/>
<path d="M126.888 46.7803V68.4796" stroke="black" stroke-miterlimit="10"/>
<path d="M151.336 50.5068V68.4797" stroke="black" stroke-miterlimit="10"/>
<path d="M181.183 45.791V68.4797" stroke="black" stroke-miterlimit="10"/>
<path d="M214.35 45.0654V68.4796" stroke="black" stroke-miterlimit="10"/>
<path d="M248.69 43.5486V68.4797" stroke="black" stroke-miterlimit="10"/>
<path d="M279.275 45.0654V68.4796" stroke="black" stroke-miterlimit="10"/>
<path d="M70.917 38.569C70.917 37.8106 70.6151 37.217 70.3804 36.5574C69.7097 35.0404 68.3012 33.2596 64.0421 32.3692C62.1977 31.9735 57.5697 31.5448 54.9875 31.4459C51.1308 31.3139 43.4511 31.3139 39.5945 31.4459C37.0123 31.5448 32.4179 31.9735 30.5399 32.3692C26.3143 33.2596 24.9058 35.0074 24.2016 36.5574C23.9668 37.2499 23.665 37.8435 23.665 38.569C23.665 38.569 23.0614 42.7572 27.8905 42.7572H28.1253H66.3561H66.5908C71.5206 42.7572 70.917 38.569 70.917 38.569Z" fill="#FFEA9D" stroke="black" stroke-miterlimit="10"/>
<path d="M285.714 36.4584C285.613 34.6776 283.232 33.3915 275.05 33.6223C275.05 33.6223 265.525 33.2596 264.922 33.1936C264.285 33.0617 254.66 32.1713 253.922 31.9405L251.843 31.215C244.968 28.7416 235.343 23.9269 229.542 22.9376C221.962 21.6844 213.981 22.311 213.981 22.311C213.981 22.311 194.631 11.8571 180.345 8.29547C173.47 6.58063 169.144 5.72321 152.04 5.72321C137.15 5.72321 132.724 8.6912 128.465 8.6912C119.98 8.6912 103.514 4.47006 94.3923 3.71157C75.7129 -5.06049 75.7464 10.1422 74.6062 14.1655C74.0361 16.1771 72.8623 19.7717 68.0332 21.0249C66.893 21.3217 60.7224 20.9259 58.6096 21.1568V34.084L71.5544 35.6999C73.5666 37.019 74.2373 38.7339 74.6397 40.1189C75.7799 44.1422 76.4171 49.9133 89.1272 48.8251C98.2489 48.0336 120.014 46.5496 128.498 46.5496C132.724 46.5496 137.184 49.0559 152.074 49.5176C156.769 49.6495 158.546 49.8474 164.65 49.6495C181.652 49.0889 206.704 47.6708 212.002 47.374C214.417 47.6049 223.673 48.5283 227.06 48.5283C234.907 48.5942 256.102 46.6485 262.038 46.0879C262.843 46.0219 263.681 46.0549 264.452 46.2198C264.687 46.2858 265.022 46.3187 265.391 46.3847C265.727 46.4177 266.867 46.2858 267.269 46.3187C272.233 46.9123 280.449 48.0006 280.549 48.0006C290.912 48.9899 290.912 47.2091 292.186 44.472C293.192 42.1636 298.961 34.4798 285.714 36.4584Z" fill="#C2D5FF"/>
<path d="M160.055 50.0782C158.144 50.0782 156.668 50.0122 154.891 49.9463C154.019 49.9133 153.08 49.8803 152.007 49.8473C142.549 49.5505 137.15 48.4293 133.595 47.6708C131.483 47.2091 129.94 46.8793 128.431 46.8793C120.181 46.8793 98.7517 48.3633 89.0934 49.1548C76.9199 50.1771 75.4779 44.8677 74.4047 41.0093C74.3377 40.7455 74.2706 40.4487 74.17 40.1849C73.7676 38.7998 73.1304 37.2499 71.3195 35.9967L58.4753 34.4138C58.274 34.3808 58.1399 34.2159 58.1399 34.051V21.1238C58.1399 20.9259 58.274 20.761 58.4753 20.761C59.5149 20.6621 61.4264 20.6951 63.3044 20.728C65.283 20.761 67.2952 20.794 67.8653 20.6621C72.6274 19.4419 73.667 15.8144 74.17 14.0665C74.3041 13.5719 74.4383 12.9453 74.5724 12.1538C75.2096 8.79012 76.1486 3.67858 80.3741 1.568C83.6606 -0.0808818 88.4227 0.512717 94.4592 3.3488C98.4164 3.67858 103.614 4.63493 109.148 5.65724C116.291 6.97634 123.669 8.32843 128.431 8.32843C129.873 8.32843 131.382 7.96567 133.26 7.50399C136.848 6.64657 142.248 5.36044 151.973 5.36044C169.21 5.36044 173.57 6.25084 180.378 7.9327C194.027 11.3294 212.472 21.1238 214.014 21.9482C215.02 21.8823 222.499 21.4206 229.575 22.6078C233.431 23.2673 238.898 25.5428 244.196 27.7853C246.98 28.9395 249.596 30.0607 251.943 30.9181L254.022 31.6107C254.425 31.7426 258.55 32.1713 261.266 32.4351C263.446 32.666 264.687 32.7979 264.955 32.8309C265.391 32.8638 271.729 33.1277 275.016 33.2596C282.058 33.0947 285.479 33.9521 285.982 36.0627C290.409 35.4361 293.058 35.8648 294.131 37.3488C295.406 39.1626 293.896 41.8997 292.924 43.7135C292.723 44.0762 292.555 44.406 292.421 44.6369C292.32 44.8347 292.253 44.9996 292.186 45.1975C290.979 47.9017 289.906 49.2867 280.415 48.3963C280.382 48.3963 280.046 48.3633 279.476 48.2644C277.196 47.9676 271.126 47.1762 267.135 46.6815C266.967 46.6485 266.565 46.6815 266.229 46.7145C265.827 46.7474 265.492 46.7474 265.29 46.7474C264.922 46.7145 264.586 46.6485 264.318 46.5826C263.58 46.4177 262.809 46.3847 262.004 46.4506C255.766 47.0442 234.806 48.9899 226.993 48.891C223.639 48.858 214.651 48.0006 211.935 47.7368C206.938 48.0336 181.652 49.4516 164.616 50.0122C162.772 50.0452 161.296 50.0782 160.055 50.0782ZM128.464 46.1209C130.041 46.1209 131.617 46.4506 133.763 46.9123C137.519 47.7038 142.617 48.7921 152.04 49.0889C153.147 49.1218 154.052 49.1548 154.924 49.1878C157.808 49.2867 159.921 49.3857 164.582 49.2208C181.652 48.6601 207.005 47.2421 211.935 46.9453C211.969 46.9453 211.969 46.9453 212.002 46.9453C214.685 47.2091 223.673 48.0665 227.026 48.0995C234.806 48.1655 255.733 46.2528 261.97 45.6592C262.842 45.5602 263.714 45.6262 264.519 45.7911C264.787 45.857 265.089 45.89 265.425 45.923C265.559 45.923 265.928 45.923 266.229 45.89C266.665 45.857 267.068 45.8241 267.303 45.857C271.293 46.3517 277.363 47.1432 279.644 47.44C280.18 47.5059 280.516 47.5389 280.549 47.5719C289.906 48.4623 290.543 47.1102 291.549 44.8347C291.616 44.6698 291.717 44.472 291.817 44.2741C291.951 44.0103 292.119 43.6805 292.32 43.2848C293.159 41.7348 294.601 39.1296 293.595 37.7116C292.689 36.4584 290.073 36.1616 285.814 36.7882C285.714 36.7882 285.613 36.7882 285.513 36.7222C285.445 36.6563 285.378 36.5573 285.378 36.4584C285.278 34.6116 281.924 33.7872 275.116 33.9521C274.714 33.9521 265.525 33.5893 264.955 33.5234C264.687 33.4904 263.044 33.2925 261.3 33.1277C257.376 32.7319 254.324 32.4021 253.888 32.2702L251.776 31.5447C249.394 30.6873 246.779 29.5661 243.995 28.4118C238.73 26.2023 233.297 23.9269 229.541 23.3003C222.096 22.0471 214.148 22.6737 214.048 22.6737C213.981 22.6737 213.914 22.6737 213.847 22.6407C213.645 22.5418 194.396 12.1538 180.311 8.65821C173.57 6.97634 169.244 6.08595 152.107 6.08595C142.449 6.08595 137.318 7.30612 133.562 8.2295C131.617 8.69118 130.074 9.05394 128.532 9.05394C123.669 9.05394 116.257 7.70185 109.114 6.38275C103.581 5.36044 98.3493 4.40408 94.4256 4.07431C94.3921 4.07431 94.325 4.07431 94.2915 4.04133C88.4562 1.30418 83.8954 0.677605 80.8101 2.22756C76.9535 4.17324 76.0145 9.05394 75.4108 12.2858C75.2767 13.0772 75.1425 13.7368 75.0084 14.2644C74.4718 16.1441 73.3651 20.0355 68.1671 21.3876C67.4964 21.5525 65.6184 21.5195 63.405 21.4865C61.7618 21.4536 60.0514 21.4206 59.0118 21.4865V33.7213L71.6213 35.3042C71.6883 35.3042 71.7219 35.3372 71.789 35.3701C73.8682 36.7552 74.5724 38.47 75.0084 40.02C75.0755 40.2838 75.1761 40.5476 75.2431 40.8444C76.2828 44.6698 77.5571 49.4186 89.127 48.4623C98.7517 47.6049 120.215 46.1209 128.464 46.1209Z" fill="black"/>
<path d="M78.6301 25.0481C78.4959 25.0481 78.3618 24.9822 78.2947 24.8503C77.188 22.7067 77.5234 14.4623 77.5569 14.1325C77.5569 13.9347 77.7582 13.7698 77.9594 13.7698C78.1606 13.7698 78.3283 13.9676 78.3283 14.1655C78.2276 16.5069 78.1606 22.8716 78.999 24.5205C79.0996 24.7184 79.0325 24.9162 78.8313 25.0152C78.7642 25.0481 78.6971 25.0481 78.6301 25.0481Z" fill="black"/>
<path d="M76.7186 45.2634C76.4839 45.2304 76.3162 45.0655 76.3497 44.8676C76.3833 44.4719 77.1881 35.2711 78.2948 33.1276C78.3954 32.9297 78.6302 32.8638 78.7978 32.9627C78.9991 33.0616 79.0661 33.2925 78.9655 33.4574C77.9259 35.436 77.1211 44.8017 77.0875 44.9006C77.0875 45.1315 76.9198 45.2634 76.7186 45.2634Z" fill="black"/>
<path d="M265.928 38.9648C265.76 38.9648 265.626 38.8658 265.559 38.7009C265.492 38.5031 265.626 38.3052 265.827 38.2393C267.772 37.6786 271.629 36.7882 275.351 37.151C276.793 37.2829 278.269 37.184 279.644 36.8212C282.528 36.0627 285.479 36.0957 285.781 36.1287C285.982 36.1617 286.15 36.3266 286.116 36.5244C286.083 36.7223 285.915 36.8872 285.714 36.8542C285.445 36.8212 282.628 36.7883 279.845 37.5138C278.369 37.9095 276.827 38.0084 275.284 37.8765C271.696 37.5467 267.94 38.4041 266.062 38.9648C265.995 38.9648 265.961 38.9648 265.928 38.9648Z" fill="black"/>
<path d="M102.374 41.3392C97.4103 40.0531 95.3646 39.2287 88.0538 40.3829C80.743 41.5371 66.222 42.8892 64.3775 42.4605C62.5666 42.0318 60.2861 40.284 58.1734 40.284C56.0271 40.284 53.3442 40.7456 52.0699 41.3722C51.701 41.3722 48.5151 41.669 47.7102 41.5701C48.5486 41.0095 48.5151 40.0861 47.9114 39.6574C47.5425 39.3936 46.5364 40.251 45.631 40.6797C46.6706 39.8882 46.8383 38.5361 45.9663 38.3053C45.6981 38.2393 42.4451 40.251 41.9756 40.8116C41.7073 41.1414 41.4725 44.8019 41.6738 45.6263C41.875 46.4508 42.7134 46.3189 42.7134 46.3189C42.7134 46.3189 42.7804 46.7146 43.4512 47.2752C43.8201 47.638 47.6767 48.2316 47.6767 48.2316C47.6767 48.2316 51.3991 48.7592 52.8747 48.4294C54.3503 48.1326 59.7496 47.9018 61.8623 47.9018C63.9751 47.9018 64.2769 48.6933 66.3226 49.056C68.3683 49.4188 87.1818 50.7049 91.1055 50.7049C95.0292 50.7049 102.139 47.605 103.547 46.187C104.989 44.8019 103.514 41.636 102.374 41.3392Z" fill="#C2D5FF"/>
<path d="M91.1054 51.0676C87.3158 51.0676 68.5358 49.8144 66.2554 49.4187C65.3499 49.2538 64.7463 49.0229 64.2097 48.7921C63.539 48.5283 62.9689 48.2644 61.8286 48.2644C59.6153 48.2644 54.3166 48.4953 52.9417 48.7921C51.4326 49.1219 47.7771 48.5942 47.6095 48.5942C46.1339 48.3634 43.6522 47.9347 43.1827 47.5389C42.7468 47.2092 42.5456 46.8794 42.445 46.6815C42.009 46.6485 41.4724 46.4177 41.3047 45.6922C41.1035 44.9007 41.2712 41.0423 41.6736 40.5477C41.9755 40.1519 45.4632 37.7446 46.0668 37.9095C46.5028 38.0084 46.7711 38.3382 46.8717 38.7669C46.9052 38.9977 46.9052 39.2286 46.8381 39.4924C47.3412 39.1956 47.7771 39.0307 48.146 39.2945C48.5485 39.5583 48.7497 39.987 48.7497 40.4487C48.7497 40.6796 48.6826 40.9104 48.582 41.1083C49.3533 41.0753 50.4265 41.0094 51.1643 40.9434C51.6002 40.9104 51.8685 40.8774 52.0362 40.8774C53.3776 40.2838 56.0605 39.7892 58.2403 39.7892C59.6153 39.7892 60.9567 40.4487 62.2646 41.0753C63.0695 41.471 63.8408 41.8338 64.5115 41.9987C66.2218 42.3944 80.7764 41.0423 88.0201 39.9211C94.7943 38.8658 97.0747 39.4924 101.267 40.5806C101.669 40.6796 102.072 40.7785 102.508 40.9104C103.346 41.1413 104.084 42.3285 104.386 43.4167C104.721 44.6369 104.52 45.7252 103.849 46.4177C102.34 47.9017 95.0961 51.0676 91.1054 51.0676ZM61.8622 47.5389C63.1365 47.5389 63.8073 47.8028 64.5115 48.0996C65.0145 48.2974 65.5511 48.5283 66.3895 48.6932C68.301 49.0229 87.1146 50.342 91.1054 50.342C94.8614 50.342 101.904 47.2751 103.279 45.923C103.983 45.2305 103.748 44.1093 103.614 43.6476C103.312 42.5923 102.675 41.8008 102.273 41.6689C101.837 41.57 101.434 41.4381 101.032 41.3391C96.9406 40.2838 94.6937 39.6902 88.1207 40.7126C81.2459 41.7678 66.3224 43.2518 64.3103 42.7572C63.539 42.5923 62.7341 42.1966 61.8957 41.8008C60.6549 41.2072 59.3805 40.6136 58.1732 40.6136C56.0605 40.6136 53.4447 41.0753 52.2374 41.6689C52.1703 41.7019 52.1368 41.7019 52.0697 41.7019C51.9691 41.7019 51.6002 41.7349 51.1978 41.7678C49.7222 41.8668 48.2467 41.9657 47.6765 41.8998C47.5089 41.8668 47.4083 41.7678 47.3412 41.603C47.3077 41.4381 47.3747 41.3062 47.5089 41.2072C47.8107 41.0094 47.9784 40.7455 47.9784 40.4817C47.9784 40.2838 47.8778 40.086 47.7101 39.9541C47.5424 39.987 47.0729 40.2509 46.7711 40.4487C46.4693 40.6466 46.1004 40.8445 45.765 41.0094C45.5973 41.0753 45.3961 41.0423 45.2955 40.8774C45.1949 40.7126 45.2284 40.5147 45.3961 40.3828C45.9662 39.9541 46.201 39.3275 46.1339 38.9647C46.1004 38.7998 46.0333 38.7339 45.9327 38.7009C45.3626 38.8988 42.6462 40.6136 42.2773 41.0423C42.1096 41.4381 41.8749 44.8018 42.0425 45.5603C42.1431 45.989 42.5456 45.989 42.6797 45.989C42.8809 45.956 43.0821 46.0879 43.1157 46.2858C43.1157 46.2858 43.2163 46.5826 43.7193 47.0113C43.7193 47.0113 43.7529 47.0113 43.7529 47.0443C44.0211 47.2421 46.0668 47.6379 47.7771 47.9017C47.8107 47.9017 51.4325 48.3964 52.8075 48.0996C54.3502 47.7368 59.85 47.5389 61.8622 47.5389Z" fill="black"/>
<path d="M42.7469 46.6816C42.5792 46.6816 42.4451 46.5827 42.378 46.4508C42.2103 46.055 42.4115 42.4934 43.1828 41.5041C43.4847 41.1084 44.2225 40.8446 44.8596 40.5807C45.0608 40.5148 45.2956 40.4159 45.3962 40.3499C45.5974 40.251 45.7986 40.3169 45.8992 40.5148C45.9998 40.7126 45.9328 40.9105 45.7316 41.0094C45.5639 41.0754 45.3627 41.1743 45.1279 41.2733C44.692 41.4382 43.9877 41.702 43.7865 41.9328C43.2164 42.6913 43.0487 45.7582 43.1158 46.1869C43.1828 46.3848 43.0822 46.5827 42.881 46.6486C42.814 46.6816 42.7804 46.6816 42.7469 46.6816Z" fill="black"/>
<path d="M46.335 48.2646C46.2679 48.2646 46.2344 48.2646 46.1673 48.2316L45.9326 48.1327C44.6582 47.5061 44.021 47.2093 43.7192 46.4508C43.3838 45.5604 43.518 43.7796 43.7863 42.9551C43.9875 42.2956 45.3625 40.284 46.2344 40.4159C46.5697 40.4818 46.9051 40.7127 47.1063 41.0424C47.3746 41.4711 47.4081 42.0318 47.2069 42.6254C46.9386 43.3839 46.5697 43.9115 46.3685 44.1753L46.6368 45.3295L49.0514 45.9231L55.6915 42.8562C55.8927 42.7573 56.0939 42.8562 56.1945 43.0211C56.2951 43.219 56.1945 43.4168 56.0268 43.5158L49.2526 46.6487C49.1855 46.6816 49.0849 46.6816 48.9843 46.6816L46.2008 46.0221C46.0667 45.9891 45.9661 45.8902 45.9326 45.7253L45.5637 44.1753C45.5301 44.0434 45.5637 43.9445 45.6643 43.8455C45.6643 43.8455 46.1673 43.2849 46.4691 42.3945C46.6368 41.8999 46.5362 41.6031 46.4356 41.4382C46.335 41.2733 46.2008 41.2073 46.1338 41.1744C45.7649 41.2733 44.7253 42.5594 44.5241 43.186C44.2893 43.9775 44.2222 45.5604 44.457 46.187C44.6247 46.6157 45.0271 46.8465 46.3015 47.4401L46.5362 47.5391C46.7374 47.638 46.8045 47.8688 46.7039 48.0337C46.6368 48.1986 46.5027 48.2646 46.335 48.2646Z" fill="black"/>
<path d="M46.9388 42.3614C46.8046 42.3614 46.6705 42.2954 46.6034 42.1635C46.5028 41.9986 46.5699 41.7678 46.7376 41.6359C46.8717 41.5369 46.9723 41.5039 47.0729 41.438C47.2071 41.3391 47.3077 41.2731 47.5089 41.1742C47.6766 41.0752 47.9113 41.1412 48.0119 41.3061C48.1125 41.471 48.0455 41.7018 47.8778 41.8007C47.6766 41.8997 47.576 41.9656 47.4754 42.0316C47.3748 42.0975 47.2741 42.1305 47.14 42.2295C47.0729 42.3284 47.0059 42.3614 46.9388 42.3614Z" fill="black"/>
<path d="M49.2193 44.7029C49.0851 44.7029 46.7041 44.571 45.8992 44.4391C45.698 44.4061 45.5639 44.2082 45.5974 44.0103C45.631 43.8125 45.8322 43.6806 46.0334 43.7136C46.6706 43.8125 48.515 43.9114 49.0851 43.9774C49.6553 43.3838 51.3991 41.6689 52.1704 41.4051C52.3717 41.3392 52.5729 41.4381 52.6399 41.636C52.707 41.8338 52.6064 42.0317 52.4052 42.0976C51.9021 42.2625 50.326 43.7136 49.4876 44.6039C49.4205 44.6699 49.3534 44.7029 49.2193 44.7029Z" fill="black"/>
<path d="M103.179 38.7667C103.111 38.7667 103.078 38.7667 103.011 38.7337C101.435 38.0082 98.886 35.304 98.7518 35.1721L98.7183 35.1392L85.371 17.3642C84.9351 17.0674 82.0174 14.8579 79.9718 12.7473C79.8376 12.5824 79.8376 12.3516 80.0053 12.2197C80.173 12.0878 80.4077 12.0878 80.5419 12.2526C82.6211 14.4621 85.8405 16.8036 85.8741 16.8036C85.9076 16.8365 85.9411 16.8365 85.9411 16.8695L99.3219 34.6775C99.5231 34.9083 101.938 37.3816 103.313 38.0412C103.514 38.1401 103.581 38.338 103.48 38.5359C103.48 38.7007 103.313 38.7667 103.179 38.7667Z" fill="black"/>
<path d="M109.986 38.1072C104.419 38.8327 104.419 38.1402 97.5778 39.5252C90.7365 40.8773 81.1117 44.241 78.5295 44.241C75.9472 44.241 67.1944 44.307 65.3163 44.5048C60.6213 45.0655 54.5178 48.693 54.5178 49.2536C54.5178 50.144 56.4629 50.0451 56.4629 50.0451C56.4629 50.0451 56.6641 50.6057 57.6367 50.6057C58.6427 50.6057 60.6213 49.7813 60.6213 49.7813C60.6213 49.7813 60.1518 50.9685 62.0969 50.8036C63.1701 50.7047 66.9931 49.4515 66.9931 49.4515L69.5754 49.2866C69.5754 49.2866 69.8772 49.2536 72.5601 49.7153C75.2429 50.177 78.6971 50.3749 79.8038 50.3749C80.9105 50.3749 82.3861 49.6494 82.3861 49.6494C82.3861 49.6494 105.19 48.6271 108.578 48.6271C111.965 48.6271 115.553 47.4728 116.76 46.2197C117.9 45.0325 118.135 43.9112 116.76 40.9103L109.986 38.1072Z" fill="#C2D5FF"/>
<path d="M61.7281 51.1993C61.0909 51.1993 60.6214 51.0344 60.3867 50.7047C60.2861 50.6057 60.2525 50.4738 60.219 50.3419C59.5147 50.6057 58.341 50.9685 57.6367 50.9685C56.8989 50.9685 56.463 50.6717 56.2282 50.4079C55.7923 50.4079 54.8868 50.3419 54.4173 49.9132C54.2161 49.7153 54.1155 49.4845 54.1155 49.2536C54.1155 48.1654 60.9568 44.6368 65.2494 44.1421C67.0938 43.9113 75.6119 43.8453 78.496 43.8453C79.8039 43.8453 83.1239 42.9219 86.9805 41.8337C90.4012 40.8773 94.2578 39.789 97.4772 39.1625C101.636 38.338 103.245 38.2721 105.157 38.1731C106.431 38.1072 107.706 38.0412 109.919 37.7444C110.12 37.7115 110.321 37.8763 110.355 38.0742C110.389 38.2721 110.221 38.4699 110.02 38.5029C107.773 38.7997 106.398 38.8657 105.19 38.9316C103.312 39.0306 101.703 39.0965 97.6114 39.921C94.392 40.5475 90.5689 41.6358 87.1818 42.5921C83.2916 43.6804 79.9045 44.6368 78.496 44.6368C75.6119 44.6368 67.1274 44.7027 65.3164 44.9006C60.9903 45.3953 55.4569 48.5941 54.8533 49.3526C54.8533 49.3856 54.8868 49.3856 54.8868 49.4185C55.1216 49.6494 55.8929 49.7153 56.3624 49.7153C56.5301 49.7153 56.6977 49.8143 56.7313 49.9792C56.7313 49.9792 56.8654 50.2759 57.5361 50.2759C58.2739 50.2759 59.8501 49.7153 60.3867 49.4845C60.5208 49.4185 60.6885 49.4515 60.7891 49.5504C60.8897 49.6494 60.9232 49.8143 60.8897 49.9462C60.8897 49.9462 60.8226 50.144 60.9232 50.2759C60.9568 50.3419 61.1915 50.5398 61.9629 50.4408C62.8348 50.3749 65.7189 49.4515 66.792 49.1217C66.8255 49.1217 66.8591 49.0888 66.8926 49.0888L69.4749 48.9239C69.5419 48.9239 70.0114 48.9239 72.5602 49.3526C75.3101 49.8143 78.7643 50.0121 79.7368 50.0121C80.7429 50.0121 82.1514 49.3196 82.1514 49.3196C82.1849 49.2866 82.252 49.2866 82.3191 49.2866C82.5538 49.2866 105.157 48.2643 108.511 48.2643C111.931 48.2643 115.352 47.0771 116.425 45.9559C117.431 44.8676 117.666 43.9113 116.358 41.0422C114.983 38.0742 94.7944 8.32833 94.5596 8.03154C94.459 7.86665 94.4926 7.6358 94.6602 7.50389C94.8279 7.40496 95.0627 7.43794 95.1968 7.60283C96.0352 8.823 115.654 37.7115 117.029 40.7124C118.37 43.6145 118.337 44.9995 116.962 46.4505C115.62 47.8356 111.831 48.9898 108.511 48.9898C105.291 48.9898 83.8953 49.9462 82.4197 50.0121C82.0843 50.177 80.7764 50.7376 79.7368 50.7376C78.5295 50.7376 75.0418 50.5068 72.4596 50.0781C69.9779 49.6494 69.5755 49.6494 69.5419 49.6494L67.0268 49.8143C66.5573 49.9792 63.1366 51.0674 62.0635 51.1663C61.9629 51.1993 61.8287 51.1993 61.7281 51.1993Z" fill="black"/>
<path d="M56.4294 50.4078C56.3288 50.4078 56.2282 50.3749 56.1611 50.3089C56.027 50.21 55.9935 50.0451 56.027 49.8472C56.2617 49.0558 60.3531 46.3516 65.9871 45.1314C66.1883 45.0984 66.3895 45.1974 66.4566 45.4282C66.4901 45.6261 66.3895 45.824 66.1548 45.8899C60.8561 47.0441 57.2678 49.4515 56.7983 50.0451C56.7983 50.144 56.7648 50.243 56.6977 50.3089C56.6306 50.3749 56.53 50.4078 56.4294 50.4078Z" fill="black"/>
<path d="M60.588 50.177C60.4873 50.177 60.3867 50.144 60.3197 50.0451C60.1855 49.8802 60.1855 49.6493 60.3532 49.5174C60.7892 49.1217 63.9415 47.0771 68.7707 46.7803C68.9719 46.7803 69.1731 46.9122 69.1731 47.143C69.1731 47.3409 69.039 47.5388 68.8042 47.5388C64.2769 47.8356 61.2251 49.7483 60.8562 50.078C60.7892 50.144 60.6886 50.177 60.588 50.177Z" fill="black"/>
<path d="M264.854 39.0306C260.864 39.0306 248.959 37.8434 247.449 37.4477C238.864 35.2052 222.935 34.3148 215.49 35.1063C215.02 35.1393 211.097 34.5786 202.914 33.3585C188.359 31.2149 166.36 27.9501 159.955 27.9501C159.753 27.9501 159.586 27.7852 159.586 27.5874C159.586 27.3895 159.753 27.2246 159.955 27.2246C166.427 27.2246 188.46 30.4894 203.015 32.633C209.286 33.5563 214.718 34.3808 215.356 34.3808H215.389C223.035 33.5563 238.797 34.4137 247.617 36.7222C249.394 37.1839 264.519 38.5689 265.76 38.2062C265.961 38.1402 266.162 38.2721 266.229 38.47C266.297 38.6679 266.162 38.8657 265.961 38.9317C265.827 38.9976 265.425 39.0306 264.854 39.0306Z" fill="black"/>
<path d="M45.2959 15.5174C44.491 16.111 44.9605 16.7376 45.3294 17.1663C43.552 17.1003 42.6466 17.0674 41.4057 17.0674C35.604 17.0674 30.8755 21.6842 30.8755 27.5873C30.8755 33.4903 35.604 38.1071 41.4057 38.1071C42.6466 38.1071 43.552 38.1071 45.3294 38.0082C44.9605 38.4699 44.491 39.0635 45.2959 39.6571C46.302 40.3826 52.1036 39.723 52.942 37.7444C52.9756 37.6784 53.0091 37.5795 53.0426 37.4476C53.6798 37.2827 54.7865 36.887 55.3231 36.6561C58.0395 35.5679 62.3321 32.5009 62.3321 27.5873C62.3321 22.7066 58.0395 19.6396 55.3231 18.5184C54.7865 18.2875 53.6463 17.8918 53.0426 17.7269C53.0091 17.595 52.9756 17.4961 52.942 17.4301C52.0701 15.4515 46.2684 14.7919 45.2959 15.5174Z" fill="#C2D5FF"/>
<path d="M46.9055 40.3167C46.1006 40.3167 45.3964 40.2178 45.061 39.9539C44.7257 39.6901 44.5245 39.3933 44.4909 39.0635C44.4574 38.8327 44.5245 38.6019 44.6251 38.404C43.3172 38.47 42.5459 38.4699 41.4392 38.4699C35.3357 38.4699 30.54 33.6882 30.54 27.5873C30.54 21.4864 35.3357 16.7047 41.4392 16.7047C42.5459 16.7047 43.3507 16.7047 44.6251 16.7706C44.5245 16.5728 44.4909 16.3419 44.4909 16.1111C44.5245 15.7813 44.7257 15.4845 45.061 15.2207C45.8324 14.6601 48.2805 14.8249 50.1249 15.2866C51.3322 15.6164 52.8413 16.21 53.3108 17.2983C53.3444 17.3642 53.3444 17.3972 53.3779 17.4632C54.0486 17.661 54.9876 18.0238 55.4907 18.2216C58.8442 19.5737 62.7344 22.8385 62.7344 27.6203C62.7344 32.4021 58.8442 35.6668 55.4907 37.0189C54.9876 37.2168 54.0151 37.5796 53.3779 37.7774C53.3779 37.8434 53.3444 37.8764 53.3108 37.9423C52.8413 39.0306 51.3322 39.6242 50.1249 39.9539C49.0853 40.1518 47.9116 40.3167 46.9055 40.3167ZM45.3293 37.6455C45.4635 37.6455 45.5976 37.7115 45.6647 37.8434C45.7318 37.9753 45.6982 38.1402 45.6311 38.2391C45.4299 38.47 45.2287 38.7667 45.2287 38.9646C45.2287 39.0965 45.3293 39.2284 45.497 39.3274C45.8994 39.6242 47.9116 39.6571 49.8902 39.1295C51.3322 38.7338 52.3048 38.1732 52.5731 37.5466C52.5731 37.5136 52.6401 37.4147 52.6401 37.3157C52.6737 37.1838 52.7743 37.0519 52.9084 37.0189C53.5121 36.854 54.6187 36.4583 55.1553 36.2275C57.6705 35.2052 61.9295 32.2372 61.9295 27.5214C61.9295 22.8055 57.704 19.9035 55.1888 18.8812C54.6523 18.6504 53.5456 18.2546 52.942 18.0897C52.8078 18.0568 52.7072 17.9248 52.6737 17.7929C52.6401 17.694 52.6066 17.5951 52.6066 17.5621C52.3383 16.9355 51.3658 16.3749 49.9237 15.9792C47.9451 15.4515 45.933 15.4845 45.5305 15.7813C45.3629 15.9132 45.2623 16.0451 45.2623 16.1441C45.2287 16.3749 45.4299 16.6387 45.6647 16.8696C45.7653 16.9685 45.7653 17.1334 45.6982 17.2653C45.6311 17.3972 45.497 17.4632 45.3293 17.4632C43.5855 17.3972 42.7135 17.3642 41.4056 17.3642C35.7046 17.3642 31.2443 21.8162 31.2443 27.5214C31.2443 33.2265 35.7046 37.6785 41.4056 37.6785C42.68 37.7444 43.5519 37.7115 45.3293 37.6455Z" fill="black"/>
<path d="M53.0426 18.1228H53.009C50.5945 17.859 48.3476 17.5952 45.3293 17.5622C45.1281 17.5622 44.9604 17.3973 44.9604 17.1665C44.9604 16.9686 45.1281 16.8037 45.3293 16.8037C48.3811 16.8697 50.6615 17.1005 53.0761 17.3973C53.2773 17.4303 53.445 17.5952 53.4115 17.826C53.3779 17.9909 53.2103 18.1228 53.0426 18.1228Z" fill="black"/>
<path d="M45.3293 38.4039C45.1281 38.4039 44.9604 38.239 44.9604 38.0411C44.9604 37.8433 45.1281 37.6784 45.3293 37.6454C48.3476 37.5795 50.5945 37.3486 53.009 37.0848C53.2103 37.0518 53.4115 37.2167 53.445 37.4146C53.4785 37.6124 53.3109 37.8103 53.1097 37.8433C50.6615 38.0741 48.3811 38.3379 45.3293 38.4039Z" fill="black"/>
</g>
<defs>
<clipPath id="clip0_139_793">
<rect width="300" height="68.6962" fill="white" transform="translate(0 0.105713)"/>
</clipPath>
</defs>
</svg>
