<svg width="296" height="110" viewBox="0 0 296 110" fill="none" xmlns="http://www.w3.org/2000/svg">
<path d="M92.3711 103.986V91.1016H94.1201L100.888 101.218V91.1016H102.522V103.986H100.773L94.0059 93.8613V103.986H92.3711ZM111.285 102.835C110.699 103.333 110.134 103.685 109.589 103.89C109.05 104.095 108.47 104.197 107.849 104.197C106.823 104.197 106.035 103.948 105.484 103.45C104.934 102.946 104.658 102.305 104.658 101.525C104.658 101.068 104.761 100.652 104.966 100.277C105.177 99.8965 105.449 99.5918 105.783 99.3633C106.123 99.1348 106.504 98.9619 106.926 98.8447C107.236 98.7627 107.705 98.6836 108.332 98.6074C109.609 98.4551 110.55 98.2734 111.153 98.0625C111.159 97.8457 111.162 97.708 111.162 97.6494C111.162 97.0049 111.013 96.5508 110.714 96.2871C110.31 95.9297 109.709 95.751 108.912 95.751C108.168 95.751 107.617 95.8828 107.26 96.1465C106.908 96.4043 106.647 96.8643 106.478 97.5264L104.931 97.3154C105.071 96.6533 105.303 96.1201 105.625 95.7158C105.947 95.3057 106.413 94.9922 107.022 94.7754C107.632 94.5527 108.338 94.4414 109.141 94.4414C109.938 94.4414 110.585 94.5352 111.083 94.7227C111.581 94.9102 111.947 95.1475 112.182 95.4346C112.416 95.7158 112.58 96.0732 112.674 96.5068C112.727 96.7764 112.753 97.2627 112.753 97.9658V100.075C112.753 101.546 112.785 102.478 112.85 102.87C112.92 103.257 113.055 103.629 113.254 103.986H111.602C111.438 103.658 111.332 103.274 111.285 102.835ZM111.153 99.3018C110.579 99.5361 109.718 99.7354 108.569 99.8994C107.919 99.9932 107.459 100.099 107.189 100.216C106.92 100.333 106.712 100.506 106.565 100.734C106.419 100.957 106.346 101.206 106.346 101.481C106.346 101.903 106.504 102.255 106.82 102.536C107.143 102.817 107.611 102.958 108.227 102.958C108.836 102.958 109.378 102.826 109.853 102.562C110.327 102.293 110.676 101.927 110.898 101.464C111.068 101.106 111.153 100.579 111.153 99.8818V99.3018ZM110.679 91.1191H111.76C111.672 91.8516 111.402 92.4141 110.951 92.8066C110.506 93.1992 109.911 93.3955 109.167 93.3955C108.417 93.3955 107.816 93.2021 107.365 92.8154C106.92 92.4229 106.653 91.8574 106.565 91.1191H107.646C107.729 91.5176 107.89 91.8164 108.13 92.0156C108.376 92.209 108.704 92.3057 109.114 92.3057C109.589 92.3057 109.946 92.2119 110.187 92.0244C110.433 91.8311 110.597 91.5293 110.679 91.1191ZM110.178 90.3896H108.903L106.873 87.9287H108.991L110.178 90.3896ZM115.214 103.986V94.6523H116.629V95.9619C116.922 95.5049 117.312 95.1387 117.798 94.8633C118.284 94.582 118.838 94.4414 119.459 94.4414C120.15 94.4414 120.716 94.585 121.155 94.8721C121.601 95.1592 121.914 95.5605 122.096 96.0762C122.834 94.9863 123.795 94.4414 124.979 94.4414C125.904 94.4414 126.616 94.6992 127.114 95.2148C127.612 95.7246 127.861 96.5127 127.861 97.5791V103.986H126.288V98.1064C126.288 97.4736 126.235 97.0195 126.13 96.7441C126.03 96.4629 125.846 96.2373 125.576 96.0674C125.307 95.8975 124.99 95.8125 124.627 95.8125C123.971 95.8125 123.426 96.0322 122.992 96.4717C122.559 96.9053 122.342 97.6025 122.342 98.5635V103.986H120.76V97.9219C120.76 97.2188 120.631 96.6914 120.373 96.3398C120.115 95.9883 119.693 95.8125 119.107 95.8125C118.662 95.8125 118.249 95.9297 117.868 96.1641C117.493 96.3984 117.221 96.7412 117.051 97.1924C116.881 97.6436 116.796 98.2939 116.796 99.1436V103.986H115.214ZM135.218 103.986V94.6523H136.642V95.9795C137.327 94.9541 138.317 94.4414 139.612 94.4414C140.175 94.4414 140.69 94.5439 141.159 94.749C141.634 94.9482 141.988 95.2119 142.223 95.54C142.457 95.8682 142.621 96.2578 142.715 96.709C142.773 97.002 142.803 97.5146 142.803 98.2471V103.986H141.221V98.3086C141.221 97.6641 141.159 97.1836 141.036 96.8672C140.913 96.5449 140.693 96.29 140.377 96.1025C140.066 95.9092 139.7 95.8125 139.278 95.8125C138.604 95.8125 138.021 96.0264 137.529 96.4541C137.043 96.8818 136.8 97.6934 136.8 98.8887V103.986H135.218ZM144.947 104.76L146.485 104.988C146.55 105.463 146.729 105.809 147.021 106.025C147.414 106.318 147.95 106.465 148.63 106.465C149.362 106.465 149.928 106.318 150.326 106.025C150.725 105.732 150.994 105.322 151.135 104.795C151.217 104.473 151.255 103.796 151.249 102.765C150.558 103.579 149.696 103.986 148.665 103.986C147.382 103.986 146.389 103.523 145.686 102.598C144.982 101.672 144.631 100.562 144.631 99.2666C144.631 98.376 144.792 97.5557 145.114 96.8057C145.437 96.0498 145.902 95.4668 146.512 95.0566C147.127 94.6465 147.848 94.4414 148.674 94.4414C149.775 94.4414 150.684 94.8867 151.398 95.7773V94.6523H152.857V102.721C152.857 104.174 152.708 105.202 152.409 105.806C152.116 106.415 151.647 106.896 151.003 107.247C150.364 107.599 149.576 107.774 148.639 107.774C147.525 107.774 146.626 107.522 145.94 107.019C145.255 106.521 144.924 105.768 144.947 104.76ZM146.257 99.1523C146.257 100.377 146.5 101.271 146.986 101.833C147.473 102.396 148.082 102.677 148.814 102.677C149.541 102.677 150.15 102.398 150.643 101.842C151.135 101.279 151.381 100.4 151.381 99.2051C151.381 98.0625 151.126 97.2012 150.616 96.6211C150.112 96.041 149.503 95.751 148.788 95.751C148.085 95.751 147.487 96.0381 146.995 96.6123C146.503 97.1807 146.257 98.0273 146.257 99.1523ZM155.257 103.986V91.1016H156.839V95.7246C157.577 94.8691 158.509 94.4414 159.634 94.4414C160.325 94.4414 160.926 94.5791 161.436 94.8545C161.945 95.124 162.309 95.499 162.525 95.9795C162.748 96.46 162.859 97.1572 162.859 98.0713V103.986H161.277V98.0713C161.277 97.2803 161.104 96.7061 160.759 96.3486C160.419 95.9854 159.936 95.8037 159.309 95.8037C158.84 95.8037 158.397 95.9268 157.981 96.1729C157.571 96.4131 157.278 96.7412 157.103 97.1572C156.927 97.5732 156.839 98.1475 156.839 98.8799V103.986H155.257ZM165.285 92.9209V91.1016H166.867V92.9209H165.285ZM165.285 103.986V94.6523H166.867V103.986H165.285ZM175.674 100.98L177.309 101.183C177.051 102.138 176.573 102.879 175.876 103.406C175.179 103.934 174.288 104.197 173.204 104.197C171.839 104.197 170.755 103.778 169.952 102.94C169.155 102.097 168.757 100.916 168.757 99.3984C168.757 97.8281 169.161 96.6094 169.97 95.7422C170.778 94.875 171.827 94.4414 173.116 94.4414C174.364 94.4414 175.384 94.8662 176.175 95.7158C176.966 96.5654 177.361 97.7607 177.361 99.3018C177.361 99.3955 177.358 99.5361 177.353 99.7236H170.392C170.45 100.749 170.74 101.534 171.262 102.079C171.783 102.624 172.434 102.896 173.213 102.896C173.793 102.896 174.288 102.744 174.698 102.439C175.108 102.135 175.434 101.648 175.674 100.98ZM170.479 98.4229H175.691C175.621 97.6377 175.422 97.0488 175.094 96.6562C174.59 96.0469 173.937 95.7422 173.134 95.7422C172.407 95.7422 171.795 95.9854 171.297 96.4717C170.805 96.958 170.532 97.6084 170.479 98.4229ZM173.081 91.998L172.088 93.4922H170.277L172.176 91.0312H173.863L175.841 93.4922H174.048L173.081 91.998ZM179.304 103.986V94.6523H180.728V95.9795C181.413 94.9541 182.403 94.4414 183.698 94.4414C184.261 94.4414 184.776 94.5439 185.245 94.749C185.72 94.9482 186.074 95.2119 186.309 95.54C186.543 95.8682 186.707 96.2578 186.801 96.709C186.859 97.002 186.889 97.5146 186.889 98.2471V103.986H185.307V98.3086C185.307 97.6641 185.245 97.1836 185.122 96.8672C184.999 96.5449 184.779 96.29 184.463 96.1025C184.152 95.9092 183.786 95.8125 183.364 95.8125C182.69 95.8125 182.107 96.0264 181.615 96.4541C181.129 96.8818 180.886 97.6934 180.886 98.8887V103.986H179.304ZM189.033 104.76L190.571 104.988C190.636 105.463 190.814 105.809 191.107 106.025C191.5 106.318 192.036 106.465 192.716 106.465C193.448 106.465 194.014 106.318 194.412 106.025C194.811 105.732 195.08 105.322 195.221 104.795C195.303 104.473 195.341 103.796 195.335 102.765C194.644 103.579 193.782 103.986 192.751 103.986C191.468 103.986 190.475 103.523 189.771 102.598C189.068 101.672 188.717 100.562 188.717 99.2666C188.717 98.376 188.878 97.5557 189.2 96.8057C189.522 96.0498 189.988 95.4668 190.598 95.0566C191.213 94.6465 191.934 94.4414 192.76 94.4414C193.861 94.4414 194.77 94.8867 195.484 95.7773V94.6523H196.943V102.721C196.943 104.174 196.794 105.202 196.495 105.806C196.202 106.415 195.733 106.896 195.089 107.247C194.45 107.599 193.662 107.774 192.725 107.774C191.611 107.774 190.712 107.522 190.026 107.019C189.341 106.521 189.01 105.768 189.033 104.76ZM190.343 99.1523C190.343 100.377 190.586 101.271 191.072 101.833C191.559 102.396 192.168 102.677 192.9 102.677C193.627 102.677 194.236 102.398 194.729 101.842C195.221 101.279 195.467 100.4 195.467 99.2051C195.467 98.0625 195.212 97.2012 194.702 96.6211C194.198 96.041 193.589 95.751 192.874 95.751C192.171 95.751 191.573 96.0381 191.081 96.6123C190.589 97.1807 190.343 98.0273 190.343 99.1523Z" fill="#20315C"/>
<g clip-path="url(#clip0_139_793)">
<path d="M290.607 68.4939H8.39353C5.51482 68.4939 3.16553 66.1525 3.16553 63.2834V44.9148C3.16553 42.0458 5.51482 39.7043 8.39353 39.7043H290.607C293.485 39.7043 295.835 42.0458 295.835 44.9148V63.2834C295.835 66.1525 293.485 68.4939 290.607 68.4939Z" fill="#DBE5F5" stroke="black" stroke-miterlimit="10"/>
<path d="M26.2944 39.7043V68.4939" stroke="black" stroke-miterlimit="10"/>
<path d="M47.5376 39.7043V68.4939" stroke="black" stroke-miterlimit="10"/>
<path d="M74.2729 48.0808V68.494" stroke="black" stroke-miterlimit="10"/>
<path d="M99.1558 48.0808V68.494" stroke="black" stroke-miterlimit="10"/>
<path d="M125.362 46.7947V68.494" stroke="black" stroke-miterlimit="10"/>
<path d="M149.484 50.521V68.4938" stroke="black" stroke-miterlimit="10"/>
<path d="M178.932 45.8052V68.4938" stroke="black" stroke-miterlimit="10"/>
<path d="M211.657 45.0798V68.494" stroke="black" stroke-miterlimit="10"/>
<path d="M245.54 43.5627V68.4939" stroke="black" stroke-miterlimit="10"/>
<path d="M275.717 45.0798V68.494" stroke="black" stroke-miterlimit="10"/>
<path d="M70.137 38.5832C70.137 37.8247 69.8392 37.2311 69.6075 36.5716C68.9458 35.0546 67.556 33.2738 63.3538 32.3834C61.5339 31.9877 56.9677 31.559 54.4198 31.46C50.6146 31.3281 43.0373 31.3281 39.2321 31.46C36.6843 31.559 32.1512 31.9877 30.2982 32.3834C26.129 33.2738 24.7393 35.0216 24.0445 36.5716C23.8128 37.2641 23.515 37.8577 23.515 38.5832C23.515 38.5832 22.9194 42.7714 27.6842 42.7714H27.9158H65.6369H65.8685C70.7326 42.7714 70.137 38.5832 70.137 38.5832Z" fill="#EAEAEA" stroke="black" stroke-miterlimit="10"/>
<path d="M282.07 36.4726C281.971 34.6918 279.621 33.4057 271.548 33.6365C271.548 33.6365 262.151 33.2737 261.555 33.2078C260.926 33.0759 251.43 32.1855 250.702 31.9546L248.65 31.2291C241.867 28.7558 232.371 23.9411 226.646 22.9517C219.168 21.6986 211.293 22.3252 211.293 22.3252C211.293 22.3252 192.201 11.8712 178.105 8.30963C171.322 6.59479 167.054 5.73737 150.179 5.73737C135.487 5.73737 131.12 8.70537 126.917 8.70537C118.546 8.70537 102.299 4.48422 93.2992 3.72573C74.8689 -5.04633 74.9019 10.1564 73.7769 14.1797C73.2144 16.1913 72.0563 19.7859 67.2916 21.039C66.1665 21.3358 60.0782 20.9401 57.9937 21.1709V34.0982L70.7659 35.7141C72.7512 37.0332 73.413 38.748 73.81 40.1331C74.935 44.1564 75.5637 49.9275 88.1043 48.8392C97.1044 48.0478 118.579 46.5638 126.95 46.5638C131.12 46.5638 135.52 49.0701 150.212 49.5317C154.844 49.6637 156.598 49.8615 162.62 49.6637C179.396 49.103 204.113 47.685 209.341 47.3882C211.723 47.619 220.856 48.5424 224.198 48.5424C231.941 48.6084 252.853 46.6627 258.709 46.1021C259.503 46.0361 260.331 46.0691 261.092 46.234C261.323 46.2999 261.654 46.3329 262.018 46.3989C262.349 46.4318 263.474 46.2999 263.871 46.3329C268.768 46.9265 276.875 48.0148 276.974 48.0148C287.199 49.0041 287.199 47.2233 288.456 44.4862C289.449 42.1777 295.14 34.4939 282.07 36.4726Z" fill="white"/>
<path d="M158.087 50.0923C156.201 50.0923 154.745 50.0264 152.991 49.9604C152.131 49.9275 151.204 49.8945 150.145 49.8615C140.814 49.5647 135.487 48.4435 131.98 47.685C129.895 47.2233 128.373 46.8935 126.884 46.8935C118.744 46.8935 97.6006 48.3775 88.0711 49.169C76.0599 50.1913 74.6371 44.8819 73.5783 41.0235C73.5121 40.7597 73.4459 40.4629 73.3467 40.199C72.9496 38.814 72.3209 37.264 70.5341 36.0109L57.8612 34.4279C57.6626 34.395 57.5303 34.2301 57.5303 34.0652V21.1379C57.5303 20.9401 57.6626 20.7752 57.8612 20.7752C58.8869 20.6762 60.773 20.7092 62.6259 20.7422C64.5782 20.7752 66.5635 20.8082 67.126 20.6762C71.8246 19.4561 72.8503 15.8285 73.3467 14.0807C73.479 13.586 73.6114 12.9595 73.7437 12.168C74.3724 8.80428 75.2989 3.69274 79.4681 1.58216C82.7107 -0.0667216 87.4093 0.526877 93.3653 3.36296C97.2697 3.69274 102.398 4.64909 107.858 5.6714C114.906 6.9905 122.186 8.34259 126.884 8.34259C128.307 8.34259 129.796 7.97984 131.649 7.51815C135.189 6.66073 140.517 5.3746 150.112 5.3746C167.12 5.3746 171.421 6.265 178.138 7.94686C191.605 11.3436 209.804 21.1379 211.326 21.9624C212.319 21.8964 219.698 21.4347 226.679 22.6219C230.485 23.2815 235.878 25.5569 241.106 27.7994C243.852 28.9536 246.433 30.0749 248.75 30.9323L250.801 31.6248C251.198 31.7568 255.268 32.1855 257.948 32.4493C260.099 32.6801 261.323 32.812 261.588 32.845C262.018 32.878 268.272 33.1418 271.515 33.2737C278.463 33.1088 281.838 33.9663 282.335 36.0768C286.702 35.4503 289.316 35.879 290.375 37.363C291.633 39.1767 290.144 41.9139 289.184 43.7277C288.985 44.0904 288.82 44.4202 288.688 44.651C288.588 44.8489 288.522 45.0138 288.456 45.2117C287.265 47.9158 286.206 49.3009 276.842 48.4105C276.809 48.4105 276.478 48.3775 275.915 48.2786C273.665 47.9818 267.676 47.1903 263.739 46.6956C263.573 46.6627 263.176 46.6956 262.845 46.7286C262.448 46.7616 262.117 46.7616 261.919 46.7616C261.555 46.7286 261.224 46.6627 260.959 46.5967C260.231 46.4318 259.47 46.3988 258.676 46.4648C252.522 47.0584 231.841 49.0041 224.132 48.9052C220.823 48.8722 211.955 48.0148 209.275 47.7509C204.345 48.0477 179.396 49.4658 162.587 50.0264C160.767 50.0594 159.311 50.0923 158.087 50.0923ZM126.917 46.135C128.472 46.135 130.028 46.4648 132.145 46.9265C135.851 47.718 140.881 48.8062 150.179 49.103C151.27 49.136 152.164 49.169 153.024 49.2019C155.87 49.3009 157.954 49.3998 162.554 49.2349C179.396 48.6743 204.411 47.2563 209.275 46.9595C209.308 46.9595 209.308 46.9595 209.341 46.9595C211.988 47.2233 220.856 48.0807 224.165 48.1137C231.841 48.1796 252.489 46.2669 258.643 45.6733C259.503 45.5744 260.364 45.6404 261.158 45.8052C261.423 45.8712 261.72 45.9042 262.051 45.9372C262.184 45.9372 262.548 45.9372 262.845 45.9042C263.276 45.8712 263.673 45.8382 263.904 45.8712C267.842 46.3659 273.831 47.1573 276.081 47.4541C276.61 47.5201 276.941 47.5531 276.974 47.586C286.206 48.4764 286.835 47.1244 287.827 44.8489C287.893 44.684 287.993 44.4861 288.092 44.2883C288.224 44.0245 288.39 43.6947 288.588 43.2989C289.416 41.749 290.838 39.1438 289.846 37.7257C288.952 36.4726 286.371 36.1758 282.169 36.8023C282.07 36.8023 281.971 36.8023 281.871 36.7364C281.805 36.6704 281.739 36.5715 281.739 36.4726C281.64 34.6258 278.331 33.8014 271.614 33.9663C271.217 33.9663 262.151 33.6035 261.588 33.5375C261.323 33.5046 259.702 33.3067 257.981 33.1418C254.11 32.7461 251.099 32.4163 250.669 32.2844L248.584 31.5589C246.235 30.7015 243.654 29.5802 240.908 28.426C235.713 26.2165 230.352 23.941 226.646 23.3145C219.301 22.0613 211.459 22.6879 211.359 22.6879C211.293 22.6879 211.227 22.6879 211.161 22.6549C210.962 22.556 191.969 12.168 178.072 8.67237C171.421 6.9905 167.153 6.10011 150.245 6.10011C140.715 6.10011 135.653 7.32028 131.947 8.24366C130.028 8.70534 128.505 9.0681 126.983 9.0681C122.186 9.0681 114.873 7.71601 107.825 6.39691C102.365 5.3746 97.2036 4.41824 93.3322 4.08847C93.2991 4.08847 93.2329 4.08847 93.1998 4.05549C87.4424 1.31834 82.9424 0.691765 79.8982 2.24172C76.093 4.1874 75.1665 9.0681 74.5709 12.2999C74.4386 13.0914 74.3062 13.7509 74.1739 14.2786C73.6444 16.1583 72.5525 20.0497 67.4238 21.4018C66.762 21.5666 64.909 21.5337 62.7252 21.5007C61.1038 21.4677 59.4163 21.4347 58.3906 21.5007V33.7354L70.8319 35.3183C70.8981 35.3183 70.9312 35.3513 70.9974 35.3843C73.0489 36.7694 73.7437 38.4842 74.1739 40.0341C74.24 40.298 74.3393 40.5618 74.4055 40.8586C75.4312 44.684 76.6886 49.4328 88.1042 48.4764C97.6006 47.619 118.777 46.135 126.917 46.135Z" fill="black"/>
<path d="M77.7471 25.0623C77.6148 25.0623 77.4824 24.9964 77.4162 24.8644C76.3243 22.7209 76.6552 14.4765 76.6883 14.1467C76.6883 13.9488 76.8868 13.7839 77.0853 13.7839C77.2839 13.7839 77.4493 13.9818 77.4493 14.1797C77.3501 16.5211 77.2839 22.8858 78.1111 24.5347C78.2104 24.7325 78.1442 24.9304 77.9457 25.0293C77.8795 25.0623 77.8133 25.0623 77.7471 25.0623Z" fill="black"/>
<path d="M75.8614 45.2775C75.6297 45.2445 75.4643 45.0797 75.4974 44.8818C75.5305 44.4861 76.3246 35.2853 77.4165 33.1417C77.5158 32.9439 77.7474 32.8779 77.9128 32.9768C78.1114 33.0758 78.1775 33.3066 78.0783 33.4715C77.0525 35.4502 76.2584 44.8158 76.2253 44.9148C76.2253 45.1456 76.0599 45.2775 75.8614 45.2775Z" fill="black"/>
<path d="M262.547 38.9789C262.382 38.9789 262.25 38.88 262.183 38.7151C262.117 38.5173 262.25 38.3194 262.448 38.2534C264.367 37.6928 268.173 36.8024 271.845 37.1652C273.268 37.2971 274.724 37.1981 276.081 36.8354C278.926 36.0769 281.838 36.1099 282.136 36.1429C282.334 36.1758 282.5 36.3407 282.467 36.5386C282.434 36.7365 282.268 36.9013 282.07 36.8684C281.805 36.8354 279.026 36.8024 276.279 37.5279C274.823 37.9237 273.301 38.0226 271.779 37.8907C268.239 37.5609 264.533 38.4183 262.68 38.9789C262.614 38.9789 262.581 38.9789 262.547 38.9789Z" fill="black"/>
<path d="M101.174 41.3534C96.2769 40.0673 94.2585 39.2428 87.0452 40.3971C79.8318 41.5513 65.5045 42.9034 63.6846 42.4746C61.8978 42.0459 59.6478 40.2981 57.5632 40.2981C55.4455 40.2981 52.7984 40.7598 51.5411 41.3864C51.1771 41.3864 48.0337 41.6832 47.2395 41.5842C48.0668 41.0236 48.0337 40.1003 47.4381 39.6715C47.0741 39.4077 46.0814 40.2651 45.188 40.6939C46.2138 39.9024 46.3792 38.5503 45.5189 38.3195C45.2542 38.2535 42.0446 40.2651 41.5814 40.8258C41.3167 41.1555 41.0851 44.8161 41.2836 45.6405C41.4821 46.4649 42.3093 46.333 42.3093 46.333C42.3093 46.333 42.3755 46.7288 43.0373 47.2894C43.4013 47.6521 47.2065 48.2457 47.2065 48.2457C47.2065 48.2457 50.8793 48.7734 52.3352 48.4436C53.7911 48.1468 59.1184 47.916 61.2029 47.916C63.2875 47.916 63.5853 48.7074 65.6037 49.0702C67.6221 49.4329 86.1849 50.7191 90.0562 50.7191C93.9276 50.7191 100.942 47.6192 102.332 46.2011C103.755 44.8161 102.299 41.6502 101.174 41.3534Z" fill="white"/>
<path d="M90.0562 51.0817C86.3172 51.0817 67.7876 49.8285 65.5375 49.4328C64.6441 49.2679 64.0485 49.0371 63.5191 48.8062C62.8574 48.5424 62.2948 48.2786 61.1698 48.2786C58.986 48.2786 53.758 48.5094 52.4013 48.8062C50.9123 49.136 47.3057 48.6084 47.1402 48.6084C45.6843 48.3775 43.2358 47.9488 42.7725 47.5531C42.3424 47.2233 42.1439 46.8935 42.0446 46.6957C41.6144 46.6627 41.085 46.4318 40.9196 45.7063C40.721 44.9149 40.8865 41.0565 41.2835 40.5618C41.5813 40.1661 45.0226 37.7587 45.6182 37.9236C46.0483 38.0225 46.313 38.3523 46.4123 38.781C46.4454 39.0119 46.4454 39.2427 46.3792 39.5065C46.8755 39.2097 47.3057 39.0449 47.6697 39.3087C48.0667 39.5725 48.2653 40.0012 48.2653 40.4629C48.2653 40.6937 48.1991 40.9246 48.0998 41.1224C48.8609 41.0895 49.9197 41.0235 50.6476 40.9576C51.0778 40.9246 51.3425 40.8916 51.5079 40.8916C52.8315 40.298 55.4786 39.8033 57.6293 39.8033C58.986 39.8033 60.3095 40.4629 61.6 41.0895C62.3941 41.4852 63.1552 41.848 63.8169 42.0128C65.5044 42.4086 79.8649 41.0565 87.0121 39.9352C93.696 38.88 95.946 39.5065 100.082 40.5948C100.479 40.6937 100.876 40.7927 101.306 40.9246C102.134 41.1554 102.862 42.3426 103.159 43.4309C103.49 44.6511 103.292 45.7393 102.63 46.4318C101.141 47.9158 93.9938 51.0817 90.0562 51.0817ZM61.2029 47.5531C62.4603 47.5531 63.1221 47.8169 63.8169 48.1137C64.3133 48.3116 64.8427 48.5424 65.6699 48.7073C67.5559 49.0371 86.1187 50.3562 90.0562 50.3562C93.7622 50.3562 100.711 47.2893 102.067 45.9372C102.762 45.2447 102.531 44.1234 102.398 43.6617C102.1 42.6064 101.472 41.815 101.075 41.6831C100.645 41.5841 100.248 41.4522 99.8505 41.3533C95.8137 40.298 93.5967 39.7044 87.1113 40.7267C80.3282 41.782 65.6037 43.266 63.6184 42.7713C62.8574 42.6064 62.0632 42.2107 61.236 41.815C60.0117 41.2214 58.7544 40.6278 57.5632 40.6278C55.4786 40.6278 52.8977 41.0895 51.7065 41.6831C51.6403 41.716 51.6072 41.716 51.541 41.716C51.4418 41.716 51.0778 41.749 50.6807 41.782C49.2248 41.8809 47.7689 41.9799 47.2064 41.9139C47.041 41.8809 46.9417 41.782 46.8755 41.6171C46.8424 41.4522 46.9086 41.3203 47.041 41.2214C47.3388 41.0235 47.5042 40.7597 47.5042 40.4959C47.5042 40.298 47.4049 40.1001 47.2395 39.9682C47.0741 40.0012 46.6108 40.265 46.313 40.4629C46.0152 40.6608 45.6513 40.8586 45.3204 41.0235C45.1549 41.0895 44.9564 41.0565 44.8571 40.8916C44.7579 40.7267 44.7909 40.5288 44.9564 40.3969C45.5189 39.9682 45.7505 39.3417 45.6843 38.9789C45.6513 38.814 45.5851 38.7481 45.4858 38.7151C44.9233 38.9129 42.2431 40.6278 41.8791 41.0565C41.7137 41.4522 41.4821 44.8159 41.6475 45.5744C41.7468 46.0031 42.1439 46.0031 42.2762 46.0031C42.4747 45.9702 42.6733 46.1021 42.7064 46.2999C42.7064 46.2999 42.8056 46.5967 43.302 47.0254C43.302 47.0254 43.335 47.0254 43.335 47.0584C43.5998 47.2563 45.6182 47.652 47.3057 47.9158C47.3388 47.9158 50.9123 48.4105 52.269 48.1137C53.7911 47.7509 59.2176 47.5531 61.2029 47.5531Z" fill="black"/>
<path d="M42.3426 46.6958C42.1771 46.6958 42.0448 46.5969 41.9786 46.4649C41.8131 46.0692 42.0117 42.5076 42.7727 41.5183C43.0705 41.1225 43.7985 40.8587 44.4271 40.5949C44.6257 40.5289 44.8573 40.43 44.9566 40.3641C45.1551 40.2651 45.3536 40.3311 45.4529 40.5289C45.5522 40.7268 45.486 40.9247 45.2874 41.0236C45.122 41.0896 44.9235 41.1885 44.6919 41.2874C44.2617 41.4523 43.5668 41.7161 43.3683 41.947C42.8058 42.7055 42.6404 45.7724 42.7065 46.2011C42.7727 46.399 42.6734 46.5969 42.4749 46.6628C42.4087 46.6958 42.3756 46.6958 42.3426 46.6958Z" fill="black"/>
<path d="M45.8827 48.2787C45.8165 48.2787 45.7834 48.2787 45.7172 48.2457L45.4856 48.1468C44.2282 47.5202 43.5996 47.2234 43.3018 46.4649C42.9709 45.5745 43.1032 43.7937 43.3679 42.9693C43.5665 42.3098 44.9231 40.2981 45.7834 40.43C46.1143 40.496 46.4452 40.7268 46.6437 41.0566C46.9084 41.4853 46.9415 42.0459 46.743 42.6395C46.4783 43.398 46.1143 43.9257 45.9158 44.1895L46.1805 45.3437L48.5629 45.9373L55.1144 42.8704C55.3129 42.7714 55.5115 42.8704 55.6107 43.0353C55.71 43.2331 55.6107 43.431 55.4453 43.5299L48.7614 46.6628C48.6952 46.6958 48.5959 46.6958 48.4967 46.6958L45.7503 46.0362C45.618 46.0033 45.5187 45.9043 45.4856 45.7394L45.1216 44.1895C45.0885 44.0576 45.1216 43.9586 45.2209 43.8597C45.2209 43.8597 45.7172 43.2991 46.015 42.4087C46.1805 41.914 46.0812 41.6172 45.9819 41.4523C45.8827 41.2874 45.7503 41.2215 45.6841 41.1885C45.3202 41.2874 44.2944 42.5736 44.0959 43.2001C43.8643 43.9916 43.7981 45.5745 44.0297 46.2011C44.1951 46.6298 44.5922 46.8607 45.8496 47.4543L46.0812 47.5532C46.2797 47.6521 46.3459 47.883 46.2466 48.0479C46.1805 48.2128 46.0481 48.2787 45.8827 48.2787Z" fill="black"/>
<path d="M46.4786 42.3755C46.3462 42.3755 46.2139 42.3096 46.1477 42.1777C46.0484 42.0128 46.1146 41.7819 46.2801 41.65C46.4124 41.5511 46.5117 41.5181 46.611 41.4522C46.7433 41.3532 46.8426 41.2873 47.0411 41.1883C47.2065 41.0894 47.4382 41.1554 47.5374 41.3202C47.6367 41.4851 47.5705 41.716 47.4051 41.8149C47.2065 41.9138 47.1073 41.9798 47.008 42.0458C46.9088 42.1117 46.8095 42.1447 46.6771 42.2436C46.611 42.3426 46.5448 42.3755 46.4786 42.3755Z" fill="black"/>
<path d="M48.7285 44.717C48.5962 44.717 46.2469 44.5851 45.4528 44.4532C45.2542 44.4202 45.1219 44.2224 45.155 44.0245C45.1881 43.8266 45.3866 43.6947 45.5851 43.7277C46.2138 43.8266 48.0337 43.9256 48.5962 43.9915C49.1587 43.3979 50.8793 41.6831 51.6403 41.4193C51.8389 41.3533 52.0374 41.4523 52.1036 41.6501C52.1698 41.848 52.0705 42.0458 51.872 42.1118C51.3756 42.2767 49.8205 43.7277 48.9933 44.6181C48.9271 44.6841 48.8609 44.717 48.7285 44.717Z" fill="black"/>
<path d="M101.968 38.7809C101.902 38.7809 101.869 38.7809 101.803 38.7479C100.248 38.0224 97.7331 35.3182 97.6007 35.1863L97.5676 35.1533L84.3983 17.3783C83.9682 17.0815 81.0895 14.872 79.0711 12.7615C78.9387 12.5966 78.9387 12.3657 79.1042 12.2338C79.2696 12.1019 79.5012 12.1019 79.6336 12.2668C81.6851 14.4763 84.8616 16.8177 84.8947 16.8177C84.9278 16.8507 84.9608 16.8507 84.9608 16.8837L98.1632 34.6916C98.3617 34.9225 100.744 37.3958 102.101 38.0554C102.299 38.1543 102.365 38.3522 102.266 38.55C102.266 38.7149 102.101 38.7809 101.968 38.7809Z" fill="black"/>
<path d="M108.685 38.1213C103.192 38.8468 103.192 38.1543 96.4424 39.5394C89.6923 40.8915 80.1958 44.2552 77.648 44.2552C75.1002 44.2552 66.4641 44.3211 64.6111 44.519C59.9787 45.0796 53.9565 48.7072 53.9565 49.2678C53.9565 50.1582 55.8757 50.0593 55.8757 50.0593C55.8757 50.0593 56.0742 50.6199 57.0338 50.6199C58.0264 50.6199 59.9787 49.7954 59.9787 49.7954C59.9787 49.7954 59.5154 50.9826 61.4346 50.8177C62.4934 50.7188 66.2655 49.4657 66.2655 49.4657L68.8133 49.3008C68.8133 49.3008 69.1111 49.2678 71.7582 49.7295C74.4053 50.1912 77.8135 50.389 78.9054 50.389C79.9973 50.389 81.4532 49.6635 81.4532 49.6635C81.4532 49.6635 103.953 48.6412 107.295 48.6412C110.637 48.6412 114.178 47.487 115.369 46.2338C116.494 45.0466 116.726 43.9254 115.369 40.9244L108.685 38.1213Z" fill="white"/>
<path d="M61.0707 51.2135C60.442 51.2135 59.9788 51.0486 59.7471 50.7188C59.6479 50.6199 59.6148 50.488 59.5817 50.3561C58.8868 50.6199 57.7287 50.9826 57.0339 50.9826C56.3059 50.9826 55.8758 50.6858 55.6442 50.422C55.214 50.422 54.3206 50.3561 53.8574 49.9274C53.6588 49.7295 53.5596 49.4986 53.5596 49.2678C53.5596 48.1795 60.3097 44.6509 64.545 44.1563C66.3649 43.9254 74.7694 43.8595 77.615 43.8595C78.9055 43.8595 82.1812 42.9361 85.9864 41.8478C89.3615 40.8915 93.1667 39.8032 96.3432 39.1766C100.446 38.3522 102.034 38.2862 103.92 38.1873C105.178 38.1213 106.435 38.0554 108.619 37.7586C108.818 37.7256 109.016 37.8905 109.049 38.0884C109.082 38.2862 108.917 38.4841 108.718 38.5171C106.501 38.8139 105.145 38.8798 103.954 38.9458C102.101 39.0447 100.512 39.1107 96.4755 39.9351C93.299 40.5617 89.5269 41.65 86.185 42.6063C82.3467 43.6946 79.0047 44.6509 77.615 44.6509C74.7694 44.6509 66.398 44.7169 64.6112 44.9147C60.3427 45.4094 54.8831 48.6082 54.2875 49.3667C54.2875 49.3997 54.3206 49.3997 54.3206 49.4327C54.5522 49.6635 55.3133 49.7295 55.7765 49.7295C55.942 49.7295 56.1074 49.8284 56.1405 49.9933C56.1405 49.9933 56.2728 50.2901 56.9346 50.2901C57.6626 50.2901 59.2177 49.7295 59.7471 49.4987C59.8795 49.4327 60.0449 49.4657 60.1442 49.5646C60.2435 49.6635 60.2766 49.8284 60.2435 49.9603C60.2435 49.9603 60.1773 50.1582 60.2766 50.2901C60.3097 50.3561 60.5413 50.5539 61.3023 50.455C62.1626 50.389 65.0082 49.4657 66.0671 49.1359C66.1002 49.1359 66.1333 49.1029 66.1663 49.1029L68.7142 48.938C68.7803 48.938 69.2436 48.938 71.7583 49.3667C74.4716 49.8284 77.8797 50.0263 78.8393 50.0263C79.832 50.0263 81.2217 49.3338 81.2217 49.3338C81.2548 49.3008 81.3209 49.3008 81.3871 49.3008C81.6187 49.3008 103.92 48.2785 107.229 48.2785C110.604 48.2785 113.979 47.0913 115.038 45.97C116.031 44.8818 116.263 43.9254 114.972 41.0564C113.615 38.0884 93.6961 8.34249 93.4645 8.0457C93.3652 7.88081 93.3983 7.64996 93.5637 7.51805C93.7292 7.41912 93.9608 7.4521 94.0932 7.61699C94.9204 8.83716 114.277 37.7256 115.634 40.7266C116.957 43.6286 116.924 45.0137 115.568 46.4647C114.244 47.8498 110.505 49.004 107.229 49.004C104.053 49.004 82.9423 49.9603 81.4864 50.0263C81.1555 50.1912 79.865 50.7518 78.8393 50.7518C77.6481 50.7518 74.2069 50.521 71.6591 50.0922C69.2105 49.6635 68.8134 49.6635 68.7803 49.6635L66.2987 49.8284C65.8355 49.9933 62.4604 51.0816 61.4016 51.1805C61.3023 51.2135 61.17 51.2135 61.0707 51.2135Z" fill="black"/>
<path d="M55.8426 50.422C55.7433 50.422 55.6441 50.389 55.5779 50.3231C55.4455 50.2242 55.4124 50.0593 55.4455 49.8614C55.6771 49.0699 59.714 46.3658 65.2729 45.1456C65.4714 45.1126 65.6699 45.2115 65.7361 45.4424C65.7692 45.6403 65.6699 45.8381 65.4383 45.9041C60.2103 47.0583 56.6698 49.4657 56.2066 50.0593C56.2066 50.1582 56.1735 50.2571 56.1073 50.3231C56.0411 50.389 55.9419 50.422 55.8426 50.422Z" fill="black"/>
<path d="M59.9456 50.1911C59.8464 50.1911 59.7471 50.1581 59.6809 50.0592C59.5486 49.8943 59.5486 49.6635 59.714 49.5316C60.1442 49.1358 63.2545 47.0912 68.0193 46.7944C68.2178 46.7944 68.4163 46.9263 68.4163 47.1572C68.4163 47.3551 68.284 47.5529 68.0524 47.5529C63.5854 47.8497 60.5743 49.7624 60.2103 50.0922C60.1442 50.1581 60.0449 50.1911 59.9456 50.1911Z" fill="black"/>
<path d="M261.489 39.0448C257.551 39.0448 245.805 37.8576 244.316 37.4619C235.845 35.2194 220.128 34.329 212.782 35.1204C212.319 35.1534 208.447 34.5928 200.374 33.3726C186.013 31.2291 164.307 27.9643 157.987 27.9643C157.789 27.9643 157.623 27.7994 157.623 27.6015C157.623 27.4037 157.789 27.2388 157.987 27.2388C164.373 27.2388 186.113 30.5036 200.473 32.6471C206.661 33.5705 212.021 34.3949 212.65 34.3949H212.683C220.227 33.5705 235.779 34.4279 244.481 36.7363C246.235 37.198 261.158 38.5831 262.382 38.2203C262.581 38.1544 262.779 38.2863 262.845 38.4842C262.911 38.682 262.779 38.8799 262.581 38.9459C262.448 39.0118 262.051 39.0448 261.489 39.0448Z" fill="black"/>
<path d="M44.8575 15.5316C44.0634 16.1252 44.5266 16.7518 44.8906 17.1805C43.1369 17.1145 42.2435 17.0815 41.0192 17.0815C35.2949 17.0815 30.6294 21.6984 30.6294 27.6014C30.6294 33.5044 35.2949 38.1213 41.0192 38.1213C42.2435 38.1213 43.1369 38.1213 44.8906 38.0224C44.5266 38.4841 44.0634 39.0777 44.8575 39.6713C45.8502 40.3968 51.5745 39.7372 52.4017 37.7585C52.4348 37.6926 52.4679 37.5937 52.501 37.4617C53.1297 37.2969 54.2216 36.9011 54.751 36.6703C57.4312 35.582 61.6665 32.5151 61.6665 27.6014C61.6665 22.7207 57.4312 19.6538 54.751 18.5325C54.2216 18.3017 53.0966 17.906 52.501 17.7411C52.4679 17.6092 52.4348 17.5102 52.4017 17.4443C51.5414 15.4656 45.8171 14.8061 44.8575 15.5316Z" fill="white"/>
<path d="M46.4456 40.3309C45.6515 40.3309 44.9566 40.2319 44.6257 39.9681C44.2948 39.7043 44.0963 39.4075 44.0632 39.0777C44.0301 38.8469 44.0963 38.616 44.1956 38.4182C42.9051 38.4841 42.1441 38.4841 41.0522 38.4841C35.03 38.4841 30.2983 33.7023 30.2983 27.6015C30.2983 21.5006 35.03 16.7188 41.0522 16.7188C42.1441 16.7188 42.9382 16.7188 44.1956 16.7848C44.0963 16.5869 44.0632 16.3561 44.0632 16.1252C44.0963 15.7955 44.2948 15.4987 44.6257 15.2348C45.3868 14.6742 47.8022 14.8391 49.6221 15.3008C50.8133 15.6306 52.3023 16.2242 52.7655 17.3124C52.7986 17.3784 52.7986 17.4114 52.8317 17.4773C53.4935 17.6752 54.42 18.0379 54.9163 18.2358C58.2252 19.5879 62.0634 22.8527 62.0634 27.6344C62.0634 32.4162 58.2252 35.681 54.9163 37.0331C54.42 37.231 53.4604 37.5937 52.8317 37.7916C52.8317 37.8575 52.7986 37.8905 52.7655 37.9565C52.3023 39.0447 50.8133 39.6383 49.6221 39.9681C48.5964 40.166 47.4383 40.3309 46.4456 40.3309ZM44.8904 37.6597C45.0228 37.6597 45.1551 37.7256 45.2213 37.8575C45.2875 37.9894 45.2544 38.1543 45.1882 38.2533C44.9897 38.4841 44.7912 38.7809 44.7912 38.9788C44.7912 39.1107 44.8904 39.2426 45.0559 39.3415C45.4529 39.6383 47.4383 39.6713 49.3905 39.1437C50.8133 38.7479 51.7729 38.1873 52.0376 37.5607C52.0376 37.5278 52.1038 37.4288 52.1038 37.3299C52.1369 37.198 52.2361 37.0661 52.3685 37.0331C52.9641 36.8682 54.056 36.4725 54.5854 36.2416C57.0671 35.2193 61.2693 32.2513 61.2693 27.5355C61.2693 22.8197 57.1001 19.9177 54.6185 18.8954C54.0891 18.6645 52.9972 18.2688 52.4016 18.1039C52.2692 18.0709 52.1699 17.939 52.1369 17.8071C52.1038 17.7082 52.0707 17.6092 52.0707 17.5763C51.806 16.9497 50.8464 16.3891 49.4236 15.9933C47.4714 15.4657 45.486 15.4987 45.089 15.7955C44.9235 15.9274 44.8243 16.0593 44.8243 16.1582C44.7912 16.3891 44.9897 16.6529 45.2213 16.8837C45.3206 16.9827 45.3206 17.1475 45.2544 17.2795C45.1882 17.4114 45.0559 17.4773 44.8904 17.4773C43.1698 17.4114 42.3095 17.3784 41.0191 17.3784C35.394 17.3784 30.9932 21.8304 30.9932 27.5355C30.9932 33.2407 35.394 37.6926 41.0191 37.6926C42.2764 37.7586 43.1367 37.7256 44.8904 37.6597Z" fill="black"/>
<path d="M52.5007 18.137H52.4676C50.0853 17.8732 47.8683 17.6093 44.8903 17.5764C44.6918 17.5764 44.5264 17.4115 44.5264 17.1806C44.5264 16.9828 44.6918 16.8179 44.8903 16.8179C47.9014 16.8838 50.1514 17.1147 52.5338 17.4115C52.7324 17.4444 52.8978 17.6093 52.8647 17.8402C52.8316 18.0051 52.6662 18.137 52.5007 18.137Z" fill="black"/>
<path d="M44.8903 38.4181C44.6918 38.4181 44.5264 38.2532 44.5264 38.0553C44.5264 37.8574 44.6918 37.6925 44.8903 37.6596C47.8683 37.5936 50.0853 37.3628 52.4676 37.0989C52.6662 37.066 52.8647 37.2309 52.8978 37.4287C52.9309 37.6266 52.7654 37.8245 52.5669 37.8574C50.1514 38.0883 47.9014 38.3521 44.8903 38.4181Z" fill="black"/>
<path d="M290.441 68.4797H8.22801C5.34929 68.4797 3 66.1383 3 63.2692V44.9007C3 42.0316 5.34929 39.6902 8.22801 39.6902H290.441C293.32 39.6902 295.669 42.0316 295.669 44.9007V63.2692C295.669 66.1383 293.32 68.4797 290.441 68.4797Z" fill="#4B80FB" stroke="black" stroke-miterlimit="10"/>
<path d="M26.1289 39.6902V68.4797" stroke="black" stroke-miterlimit="10"/>
<path d="M47.3721 39.6902V68.4797" stroke="black" stroke-miterlimit="10"/>
<path d="M74.1074 48.0664V68.4796" stroke="black" stroke-miterlimit="10"/>
<path d="M98.9902 48.0664V68.4796" stroke="black" stroke-miterlimit="10"/>
<path d="M125.196 46.7803V68.4796" stroke="black" stroke-miterlimit="10"/>
<path d="M149.318 50.5068V68.4797" stroke="black" stroke-miterlimit="10"/>
<path d="M178.767 45.791V68.4797" stroke="black" stroke-miterlimit="10"/>
<path d="M211.492 45.0654V68.4796" stroke="black" stroke-miterlimit="10"/>
<path d="M245.375 43.5486V68.4797" stroke="black" stroke-miterlimit="10"/>
<path d="M275.551 45.0654V68.4796" stroke="black" stroke-miterlimit="10"/>
<path d="M69.9714 38.569C69.9714 37.8106 69.6736 37.217 69.442 36.5574C68.7802 35.0404 67.3905 33.2596 63.1883 32.3692C61.3684 31.9735 56.8021 31.5448 54.2543 31.4459C50.4491 31.3139 42.8718 31.3139 39.0666 31.4459C36.5188 31.5448 31.9856 31.9735 30.1327 32.3692C25.9635 33.2596 24.5738 35.0074 23.8789 36.5574C23.6473 37.2499 23.3495 37.8435 23.3495 38.569C23.3495 38.569 22.7539 42.7572 27.5187 42.7572H27.7503H65.4714H65.703C70.567 42.7572 69.9714 38.569 69.9714 38.569Z" fill="#FFEA9D" stroke="black" stroke-miterlimit="10"/>
<path d="M281.904 36.4584C281.805 34.6776 279.456 33.3915 271.382 33.6223C271.382 33.6223 261.985 33.2596 261.389 33.1936C260.761 33.0617 251.264 32.1713 250.536 31.9405L248.485 31.215C241.702 28.7416 232.205 23.9269 226.481 22.9376C219.003 21.6844 211.128 22.311 211.128 22.311C211.128 22.311 192.036 11.8571 177.94 8.29547C171.157 6.58063 166.888 5.72321 150.013 5.72321C135.322 5.72321 130.954 8.6912 126.752 8.6912C118.38 8.6912 102.134 4.47006 93.1337 3.71157C74.7033 -5.06049 74.7364 10.1422 73.6114 14.1655C73.0489 16.1771 71.8908 19.7717 67.126 21.0249C66.001 21.3217 59.9127 20.9259 57.8281 21.1568V34.084L70.6003 35.6999C72.5857 37.019 73.2474 38.7339 73.6445 40.1189C74.7695 44.1422 75.3982 49.9133 87.9388 48.8251C96.9389 48.0336 118.413 46.5496 126.785 46.5496C130.954 46.5496 135.355 49.0559 150.046 49.5176C154.679 49.6495 156.432 49.8474 162.454 49.6495C179.23 49.0889 203.948 47.6708 209.176 47.374C211.558 47.6049 220.69 48.5283 224.032 48.5283C231.775 48.5942 252.687 46.6485 258.544 46.0879C259.338 46.0219 260.165 46.0549 260.926 46.2198C261.158 46.2858 261.489 46.3187 261.853 46.3847C262.184 46.4177 263.309 46.2858 263.706 46.3187C268.603 46.9123 276.71 48.0006 276.809 48.0006C287.033 48.9899 287.033 47.2091 288.291 44.472C289.283 42.1636 294.974 34.4798 281.904 36.4584Z" fill="#C2D5FF"/>
<path d="M157.921 50.0782C156.035 50.0782 154.579 50.0122 152.825 49.9463C151.965 49.9133 151.039 49.8803 149.98 49.8473C140.649 49.5505 135.322 48.4293 131.814 47.6708C129.73 47.2091 128.208 46.8793 126.719 46.8793C118.579 46.8793 97.4351 48.3633 87.9056 49.1548C75.8944 50.1771 74.4716 44.8677 73.4127 41.0093C73.3466 40.7455 73.2804 40.4487 73.1811 40.1849C72.7841 38.7998 72.1554 37.2499 70.3686 35.9967L57.6956 34.4138C57.4971 34.3808 57.3647 34.2159 57.3647 34.051V21.1238C57.3647 20.9259 57.4971 20.761 57.6956 20.761C58.7214 20.6621 60.6074 20.6951 62.4604 20.728C64.4126 20.761 66.3979 20.794 66.9605 20.6621C71.659 19.4419 72.6848 15.8144 73.1811 14.0665C73.3135 13.5719 73.4458 12.9453 73.5782 12.1538C74.2069 8.79012 75.1333 3.67858 79.3025 1.568C82.5452 -0.0808818 87.2438 0.512717 93.1997 3.3488C97.1042 3.67858 102.233 4.63493 107.693 5.65724C114.74 6.97634 122.02 8.32843 126.719 8.32843C128.141 8.32843 129.63 7.96567 131.483 7.50399C135.024 6.64657 140.351 5.36044 149.947 5.36044C166.954 5.36044 171.256 6.25084 177.973 7.9327C191.44 11.3294 209.639 21.1238 211.161 21.9482C212.153 21.8823 219.532 21.4206 226.514 22.6078C230.319 23.2673 235.713 25.5428 240.941 27.7853C243.687 28.9395 246.268 30.0607 248.584 30.9181L250.636 31.6107C251.033 31.7426 255.102 32.1713 257.783 32.4351C259.933 32.666 261.158 32.7979 261.422 32.8309C261.853 32.8638 268.106 33.1277 271.349 33.2596C278.298 33.0947 281.673 33.9521 282.169 36.0627C286.537 35.4361 289.151 35.8648 290.21 37.3488C291.467 39.1626 289.978 41.8997 289.018 43.7135C288.82 44.0762 288.654 44.406 288.522 44.6369C288.423 44.8347 288.357 44.9996 288.29 45.1975C287.099 47.9017 286.04 49.2867 276.676 48.3963C276.643 48.3963 276.312 48.3633 275.75 48.2644C273.5 47.9676 267.511 47.1762 263.573 46.6815C263.408 46.6485 263.011 46.6815 262.68 46.7145C262.283 46.7474 261.952 46.7474 261.753 46.7474C261.389 46.7145 261.058 46.6485 260.794 46.5826C260.066 46.4177 259.305 46.3847 258.511 46.4506C252.356 47.0442 231.676 48.9899 223.966 48.891C220.657 48.858 211.789 48.0006 209.109 47.7368C204.179 48.0336 179.23 49.4516 162.421 50.0122C160.601 50.0452 159.145 50.0782 157.921 50.0782ZM126.752 46.1209C128.307 46.1209 129.862 46.4506 131.98 46.9123C135.686 47.7038 140.715 48.7921 150.013 49.0889C151.105 49.1218 151.998 49.1548 152.859 49.1878C155.704 49.2867 157.789 49.3857 162.388 49.2208C179.23 48.6601 204.245 47.2421 209.109 46.9453C209.142 46.9453 209.142 46.9453 209.175 46.9453C211.823 47.2091 220.69 48.0665 223.999 48.0995C231.676 48.1655 252.323 46.2528 258.478 45.6592C259.338 45.5602 260.198 45.6262 260.992 45.7911C261.257 45.857 261.555 45.89 261.886 45.923C262.018 45.923 262.382 45.923 262.68 45.89C263.11 45.857 263.507 45.8241 263.739 45.857C267.676 46.3517 273.665 47.1432 275.915 47.44C276.445 47.5059 276.776 47.5389 276.809 47.5719C286.04 48.4623 286.669 47.1102 287.662 44.8347C287.728 44.6698 287.827 44.472 287.926 44.2741C288.059 44.0103 288.224 43.6805 288.423 43.2848C289.25 41.7348 290.673 39.1296 289.68 37.7116C288.787 36.4584 286.206 36.1616 282.004 36.7882C281.904 36.7882 281.805 36.7882 281.706 36.7222C281.64 36.6563 281.573 36.5573 281.573 36.4584C281.474 34.6116 278.165 33.7872 271.448 33.9521C271.051 33.9521 261.985 33.5893 261.422 33.5234C261.158 33.4904 259.536 33.2925 257.816 33.1277C253.944 32.7319 250.933 32.4021 250.503 32.2702L248.419 31.5447C246.069 30.6873 243.488 29.5661 240.742 28.4118C235.547 26.2023 230.187 23.9269 226.481 23.3003C219.135 22.0471 211.293 22.6737 211.194 22.6737C211.128 22.6737 211.061 22.6737 210.995 22.6407C210.797 22.5418 191.804 12.1538 177.907 8.65821C171.256 6.97634 166.987 6.08595 150.079 6.08595C140.55 6.08595 135.487 7.30612 131.781 8.2295C129.862 8.69118 128.34 9.05394 126.818 9.05394C122.02 9.05394 114.707 7.70185 107.659 6.38275C102.2 5.36044 97.038 4.40408 93.1667 4.07431C93.1336 4.07431 93.0674 4.07431 93.0343 4.04133C87.2769 1.30418 82.7768 0.677605 79.7327 2.22756C75.9275 4.17324 75.001 9.05394 74.4054 12.2858C74.273 13.0772 74.1407 13.7368 74.0083 14.2644C73.4789 16.1441 72.387 20.0355 67.2582 21.3876C66.5965 21.5525 64.7435 21.5195 62.5597 21.4865C60.9383 21.4536 59.2508 21.4206 58.225 21.4865V33.7213L70.6664 35.3042C70.7326 35.3042 70.7656 35.3372 70.8318 35.3701C72.8833 36.7552 73.5782 38.47 74.0083 40.02C74.0745 40.2838 74.1738 40.5476 74.24 40.8444C75.2657 44.6698 76.5231 49.4186 87.9387 48.4623C97.4351 47.6049 118.612 46.1209 126.752 46.1209Z" fill="black"/>
<path d="M77.5816 25.0481C77.4492 25.0481 77.3169 24.9822 77.2507 24.8503C76.1588 22.7067 76.4897 14.4623 76.5228 14.1325C76.5228 13.9347 76.7213 13.7698 76.9198 13.7698C77.1183 13.7698 77.2838 13.9676 77.2838 14.1655C77.1845 16.5069 77.1183 22.8716 77.9456 24.5205C78.0448 24.7184 77.9786 24.9162 77.7801 25.0152C77.7139 25.0481 77.6478 25.0481 77.5816 25.0481Z" fill="black"/>
<path d="M75.6958 45.2634C75.4642 45.2304 75.2988 45.0655 75.3319 44.8676C75.3649 44.4719 76.1591 35.2711 77.251 33.1276C77.3503 32.9297 77.5819 32.8638 77.7473 32.9627C77.9458 33.0616 78.012 33.2925 77.9128 33.4574C76.887 35.436 76.0929 44.8017 76.0598 44.9006C76.0598 45.1315 75.8944 45.2634 75.6958 45.2634Z" fill="black"/>
<path d="M262.382 38.9648C262.216 38.9648 262.084 38.8658 262.018 38.7009C261.952 38.5031 262.084 38.3052 262.283 38.2393C264.202 37.6786 268.007 36.7882 271.68 37.151C273.103 37.2829 274.559 37.184 275.915 36.8212C278.761 36.0627 281.673 36.0957 281.97 36.1287C282.169 36.1617 282.334 36.3266 282.301 36.5244C282.268 36.7223 282.103 36.8872 281.904 36.8542C281.639 36.8212 278.86 36.7883 276.114 37.5138C274.658 37.9095 273.136 38.0084 271.614 37.8765C268.073 37.5467 264.367 38.4041 262.514 38.9648C262.448 38.9648 262.415 38.9648 262.382 38.9648Z" fill="black"/>
<path d="M101.009 41.3392C96.1114 40.0531 94.093 39.2287 86.8797 40.3829C79.6663 41.5371 65.339 42.8892 63.5191 42.4605C61.7323 42.0318 59.4823 40.284 57.3977 40.284C55.28 40.284 52.6329 40.7456 51.3755 41.3722C51.0116 41.3722 47.8681 41.669 47.074 41.5701C47.9012 41.0095 47.8682 40.0861 47.2726 39.6574C46.9086 39.3936 45.9159 40.251 45.0225 40.6797C46.0483 39.8882 46.2137 38.5361 45.3534 38.3053C45.0887 38.2393 41.8791 40.251 41.4159 40.8116C41.1512 41.1414 40.9195 44.8019 41.1181 45.6263C41.3166 46.4508 42.1438 46.3189 42.1438 46.3189C42.1438 46.3189 42.21 46.7146 42.8718 47.2752C43.2357 47.638 47.0409 48.2316 47.0409 48.2316C47.0409 48.2316 50.7138 48.7592 52.1697 48.4294C53.6256 48.1326 58.9528 47.9018 61.0374 47.9018C63.122 47.9018 63.4198 48.6933 65.4382 49.056C67.4566 49.4188 86.0194 50.7049 89.8907 50.7049C93.7621 50.7049 100.777 47.605 102.167 46.187C103.589 44.8019 102.134 41.636 101.009 41.3392Z" fill="#C2D5FF"/>
<path d="M89.8907 51.0676C86.1517 51.0676 67.622 49.8144 65.372 49.4187C64.4786 49.2538 63.883 49.0229 63.3536 48.7921C62.6918 48.5283 62.1293 48.2644 61.0043 48.2644C58.8204 48.2644 53.5924 48.4953 52.2358 48.7921C50.7468 49.1219 47.1402 48.5942 46.9747 48.5942C45.5188 48.3634 43.0703 47.9347 42.607 47.5389C42.1769 47.2092 41.9783 46.8794 41.8791 46.6815C41.4489 46.6485 40.9195 46.4177 40.754 45.6922C40.5555 44.9007 40.721 41.0423 41.118 40.5477C41.4158 40.1519 44.857 37.7446 45.4526 37.9095C45.8828 38.0084 46.1475 38.3382 46.2468 38.7669C46.2798 38.9977 46.2799 39.2286 46.2137 39.4924C46.71 39.1956 47.1402 39.0307 47.5041 39.2945C47.9012 39.5583 48.0997 39.987 48.0997 40.4487C48.0997 40.6796 48.0335 40.9104 47.9343 41.1083C48.6953 41.0753 49.7542 41.0094 50.4821 40.9434C50.9123 40.9104 51.177 40.8774 51.3424 40.8774C52.666 40.2838 55.313 39.7892 57.4638 39.7892C58.8204 39.7892 60.144 40.4487 61.4344 41.0753C62.2286 41.471 62.9896 41.8338 63.6514 41.9987C65.3389 42.3944 79.6994 41.0423 86.8465 39.9211C93.5304 38.8658 95.7804 39.4924 99.9165 40.5806C100.314 40.6796 100.711 40.7785 101.141 40.9104C101.968 41.1413 102.696 42.3285 102.994 43.4167C103.325 44.6369 103.126 45.7252 102.464 46.4177C100.975 47.9017 93.8282 51.0676 89.8907 51.0676ZM61.0374 47.5389C62.2947 47.5389 62.9565 47.8028 63.6514 48.0996C64.1477 48.2974 64.6771 48.5283 65.5043 48.6932C67.3904 49.0229 85.9531 50.342 89.8907 50.342C93.5966 50.342 100.545 47.2751 101.902 45.923C102.597 45.2305 102.365 44.1093 102.233 43.6476C101.935 42.5923 101.306 41.8008 100.909 41.6689C100.479 41.57 100.082 41.4381 99.6849 41.3391C95.6481 40.2838 93.4311 39.6902 86.9458 40.7126C80.1626 41.7678 65.4382 43.2518 63.4528 42.7572C62.6918 42.5923 61.8977 42.1966 61.0705 41.8008C59.8462 41.2072 58.5888 40.6136 57.3976 40.6136C55.313 40.6136 52.7321 41.0753 51.5409 41.6689C51.4748 41.7019 51.4417 41.7019 51.3755 41.7019C51.2762 41.7019 50.9123 41.7349 50.5152 41.7678C49.0593 41.8668 47.6034 41.9657 47.0409 41.8998C46.8754 41.8668 46.7762 41.7678 46.71 41.603C46.6769 41.4381 46.7431 41.3062 46.8754 41.2072C47.1732 41.0094 47.3387 40.7455 47.3387 40.4817C47.3387 40.2838 47.2394 40.086 47.074 39.9541C46.9085 39.987 46.4453 40.2509 46.1475 40.4487C45.8497 40.6466 45.4857 40.8445 45.1548 41.0094C44.9894 41.0753 44.7909 41.0423 44.6916 40.8774C44.5923 40.7126 44.6254 40.5147 44.7909 40.3828C45.3534 39.9541 45.585 39.3275 45.5188 38.9647C45.4857 38.7998 45.4195 38.7339 45.3203 38.7009C44.7578 38.8988 42.0776 40.6136 41.7136 41.0423C41.5482 41.4381 41.3166 44.8018 41.482 45.5603C41.5813 45.989 41.9783 45.989 42.1107 45.989C42.3092 45.956 42.5077 46.0879 42.5408 46.2858C42.5408 46.2858 42.6401 46.5826 43.1364 47.0113C43.1364 47.0113 43.1695 47.0113 43.1695 47.0443C43.4342 47.2421 45.4526 47.6379 47.1402 47.9017C47.1732 47.9017 50.7468 48.3964 52.1034 48.0996C53.6255 47.7368 59.0521 47.5389 61.0374 47.5389Z" fill="black"/>
<path d="M42.177 46.6816C42.0116 46.6816 41.8792 46.5827 41.8131 46.4508C41.6476 46.055 41.8461 42.4934 42.6072 41.5041C42.905 41.1084 43.6329 40.8446 44.2616 40.5807C44.4601 40.5148 44.6918 40.4159 44.791 40.3499C44.9895 40.251 45.1881 40.3169 45.2873 40.5148C45.3866 40.7126 45.3204 40.9105 45.1219 41.0094C44.9565 41.0754 44.7579 41.1743 44.5263 41.2733C44.0962 41.4382 43.4013 41.702 43.2028 41.9328C42.6403 42.6913 42.4748 45.7582 42.541 46.1869C42.6072 46.3848 42.5079 46.5827 42.3094 46.6486C42.2432 46.6816 42.2101 46.6816 42.177 46.6816Z" fill="black"/>
<path d="M45.7171 48.2646C45.651 48.2646 45.6179 48.2646 45.5517 48.2316L45.3201 48.1327C44.0627 47.5061 43.434 47.2093 43.1362 46.4508C42.8053 45.5604 42.9377 43.7796 43.2024 42.9551C43.4009 42.2956 44.7576 40.284 45.6179 40.4159C45.9488 40.4818 46.2796 40.7127 46.4782 41.0424C46.7429 41.4711 46.776 42.0318 46.5774 42.6254C46.3127 43.3839 45.9488 43.9115 45.7502 44.1753L46.0149 45.3295L48.3973 45.9231L54.9489 42.8562C55.1474 42.7573 55.3459 42.8562 55.4452 43.0211C55.5445 43.219 55.4452 43.4168 55.2798 43.5158L48.5959 46.6487C48.5297 46.6816 48.4304 46.6816 48.3311 46.6816L45.5848 46.0221C45.4524 45.9891 45.3532 45.8902 45.3201 45.7253L44.9561 44.1753C44.923 44.0434 44.9561 43.9445 45.0554 43.8455C45.0554 43.8455 45.5517 43.2849 45.8495 42.3945C46.0149 41.8999 45.9157 41.6031 45.8164 41.4382C45.7171 41.2733 45.5848 41.2073 45.5186 41.1744C45.1546 41.2733 44.1289 42.5594 43.9304 43.186C43.6987 43.9775 43.6326 45.5604 43.8642 46.187C44.0296 46.6157 44.4267 46.8465 45.6841 47.4401L45.9157 47.5391C46.1142 47.638 46.1804 47.8688 46.0811 48.0337C46.0149 48.1986 45.8826 48.2646 45.7171 48.2646Z" fill="black"/>
<path d="M46.3131 42.3614C46.1807 42.3614 46.0484 42.2954 45.9822 42.1635C45.8829 41.9986 45.9491 41.7678 46.1145 41.6359C46.2469 41.5369 46.3462 41.5039 46.4454 41.438C46.5778 41.3391 46.6771 41.2731 46.8756 41.1742C47.041 41.0752 47.2727 41.1412 47.3719 41.3061C47.4712 41.471 47.405 41.7018 47.2396 41.8007C47.041 41.8997 46.9418 41.9656 46.8425 42.0316C46.7432 42.0975 46.644 42.1305 46.5116 42.2295C46.4454 42.3284 46.3793 42.3614 46.3131 42.3614Z" fill="black"/>
<path d="M48.563 44.7029C48.4307 44.7029 46.0814 44.571 45.2872 44.4391C45.0887 44.4061 44.9564 44.2082 44.9894 44.0103C45.0225 43.8125 45.2211 43.6806 45.4196 43.7136C46.0483 43.8125 47.8682 43.9114 48.4307 43.9774C48.9932 43.3838 50.7138 41.6689 51.4748 41.4051C51.6733 41.3392 51.8719 41.4381 51.9381 41.636C52.0042 41.8338 51.905 42.0317 51.7064 42.0976C51.2101 42.2625 49.6549 43.7136 48.8277 44.6039C48.7615 44.6699 48.6954 44.7029 48.563 44.7029Z" fill="black"/>
<path d="M101.803 38.7667C101.737 38.7667 101.704 38.7667 101.637 38.7337C100.082 38.0082 97.5675 35.304 97.4352 35.1721L97.4021 35.1392L84.2328 17.3642C83.8027 17.0674 80.9239 14.8579 78.9055 12.7473C78.7732 12.5824 78.7732 12.3516 78.9386 12.2197C79.1041 12.0878 79.3357 12.0878 79.468 12.2526C81.5195 14.4621 84.696 16.8036 84.7291 16.8036C84.7622 16.8365 84.7953 16.8365 84.7953 16.8695L97.9977 34.6775C98.1962 34.9083 100.579 37.3816 101.935 38.0412C102.134 38.1401 102.2 38.338 102.101 38.5359C102.101 38.7007 101.935 38.7667 101.803 38.7667Z" fill="black"/>
<path d="M108.52 38.1072C103.027 38.8327 103.027 38.1402 96.2768 39.5252C89.5268 40.8773 80.0303 44.241 77.4825 44.241C74.9347 44.241 66.2985 44.307 64.4456 44.5048C59.8131 45.0655 53.791 48.693 53.791 49.2536C53.791 50.144 55.7102 50.0451 55.7102 50.0451C55.7102 50.0451 55.9087 50.6057 56.8683 50.6057C57.8609 50.6057 59.8131 49.7813 59.8131 49.7813C59.8131 49.7813 59.3499 50.9685 61.2691 50.8036C62.3279 50.7047 66.1 49.4515 66.1 49.4515L68.6478 49.2866C68.6478 49.2866 68.9456 49.2536 71.5927 49.7153C74.2398 50.177 77.6479 50.3749 78.7399 50.3749C79.8318 50.3749 81.2877 49.6494 81.2877 49.6494C81.2877 49.6494 103.788 48.6271 107.13 48.6271C110.472 48.6271 114.012 47.4728 115.204 46.2197C116.329 45.0325 116.56 43.9112 115.204 40.9103L108.52 38.1072Z" fill="#C2D5FF"/>
<path d="M60.9052 51.1993C60.2765 51.1993 59.8132 51.0344 59.5816 50.7047C59.4824 50.6057 59.4493 50.4738 59.4162 50.3419C58.7213 50.6057 57.5632 50.9685 56.8684 50.9685C56.1404 50.9685 55.7102 50.6717 55.4786 50.4079C55.0485 50.4079 54.1551 50.3419 53.6918 49.9132C53.4933 49.7153 53.394 49.4845 53.394 49.2536C53.394 48.1654 60.1441 44.6368 64.3795 44.1421C66.1993 43.9113 74.6039 43.8453 77.4495 43.8453C78.7399 43.8453 82.0157 42.9219 85.8209 41.8337C89.1959 40.8773 93.0011 39.789 96.1777 39.1625C100.281 38.338 101.869 38.2721 103.755 38.1731C105.012 38.1072 106.27 38.0412 108.454 37.7444C108.652 37.7115 108.851 37.8763 108.884 38.0742C108.917 38.2721 108.751 38.4699 108.553 38.5029C106.336 38.7997 104.979 38.8657 103.788 38.9316C101.935 39.0306 100.347 39.0965 96.31 39.921C93.1335 40.5475 89.3614 41.6358 86.0194 42.5921C82.1812 43.6804 78.8392 44.6368 77.4495 44.6368C74.6039 44.6368 66.2324 44.7027 64.4456 44.9006C60.1772 45.3953 54.7176 48.5941 54.122 49.3526C54.122 49.3856 54.1551 49.3856 54.1551 49.4185C54.3867 49.6494 55.1477 49.7153 55.611 49.7153C55.7764 49.7153 55.9419 49.8143 55.975 49.9791C55.975 49.9791 56.1073 50.2759 56.7691 50.2759C57.497 50.2759 59.0522 49.7153 59.5816 49.4845C59.714 49.4185 59.8794 49.4515 59.9787 49.5504C60.0779 49.6494 60.111 49.8143 60.0779 49.9462C60.0779 49.9462 60.0118 50.144 60.111 50.2759C60.1441 50.3419 60.3757 50.5398 61.1368 50.4408C61.9971 50.3749 64.8427 49.4515 65.9015 49.1217C65.9346 49.1217 65.9677 49.0888 66.0008 49.0888L68.5486 48.9239C68.6148 48.9239 69.0781 48.9239 71.5928 49.3526C74.3061 49.8143 77.7142 50.0121 78.6738 50.0121C79.6664 50.0121 81.0561 49.3196 81.0561 49.3196C81.0892 49.2866 81.1554 49.2866 81.2216 49.2866C81.4532 49.2866 103.755 48.2643 107.064 48.2643C110.439 48.2643 113.814 47.0771 114.873 45.9559C115.865 44.8676 116.097 43.9113 114.807 41.0422C113.45 38.0742 93.5306 8.32833 93.2989 8.03154C93.1997 7.86665 93.2328 7.6358 93.3982 7.50389C93.5637 7.40496 93.7953 7.43794 93.9276 7.60283C94.7548 8.823 114.112 37.7115 115.468 40.7124C116.792 43.6145 116.759 44.9995 115.402 46.4505C114.079 47.8356 110.34 48.9898 107.064 48.9898C103.887 48.9898 82.7768 49.9462 81.3209 50.0121C80.99 50.177 79.6995 50.7376 78.6738 50.7376C77.4826 50.7376 74.0414 50.5068 71.4935 50.0781C69.045 49.6494 68.6479 49.6494 68.6148 49.6494L66.1332 49.8143C65.6699 49.9791 62.2949 51.0674 61.236 51.1663C61.1368 51.1993 61.0044 51.1993 60.9052 51.1993Z" fill="black"/>
<path d="M55.6771 50.4078C55.5778 50.4078 55.4785 50.3749 55.4124 50.3089C55.28 50.21 55.2469 50.0451 55.28 49.8472C55.5116 49.0558 59.5484 46.3516 65.1073 45.1314C65.3059 45.0984 65.5044 45.1974 65.5706 45.4282C65.6037 45.6261 65.5044 45.824 65.2728 45.8899C60.0448 47.0441 56.5043 49.4515 56.041 50.0451C56.041 50.144 56.008 50.243 55.9418 50.3089C55.8756 50.3749 55.7763 50.4078 55.6771 50.4078Z" fill="black"/>
<path d="M59.7801 50.177C59.6808 50.177 59.5816 50.144 59.5154 50.0451C59.383 49.8802 59.383 49.6493 59.5485 49.5174C59.9786 49.1217 63.089 47.0771 67.8537 46.7803C68.0523 46.7803 68.2508 46.9122 68.2508 47.143C68.2508 47.3409 68.1184 47.5388 67.8868 47.5388C63.4199 47.8356 60.4088 49.7483 60.0448 50.078C59.9786 50.144 59.8794 50.177 59.7801 50.177Z" fill="black"/>
<path d="M261.323 39.0306C257.385 39.0306 245.639 37.8434 244.15 37.4477C235.679 35.2052 219.962 34.3148 212.617 35.1063C212.153 35.1393 208.282 34.5786 200.208 33.3585C185.848 31.2149 164.142 27.9501 157.822 27.9501C157.623 27.9501 157.458 27.7852 157.458 27.5874C157.458 27.3895 157.623 27.2246 157.822 27.2246C164.208 27.2246 185.947 30.4894 200.308 32.633C206.495 33.5563 211.855 34.3808 212.484 34.3808H212.517C220.061 33.5563 235.613 34.4137 244.315 36.7222C246.069 37.1839 260.992 38.5689 262.216 38.2062C262.415 38.1402 262.613 38.2721 262.68 38.47C262.746 38.6679 262.613 38.8657 262.415 38.9317C262.283 38.9976 261.885 39.0306 261.323 39.0306Z" fill="black"/>
<path d="M44.692 15.5174C43.8979 16.111 44.3611 16.7376 44.7251 17.1663C42.9714 17.1003 42.078 17.0674 40.8537 17.0674C35.1294 17.0674 30.4639 21.6842 30.4639 27.5873C30.4639 33.4903 35.1294 38.1071 40.8537 38.1071C42.078 38.1071 42.9714 38.1071 44.7251 38.0082C44.3611 38.4699 43.8979 39.0635 44.692 39.6571C45.6846 40.3826 51.409 39.723 52.2362 37.7444C52.2693 37.6784 52.3024 37.5795 52.3355 37.4476C52.9642 37.2827 54.0561 36.887 54.5855 36.6561C57.2657 35.5679 61.501 32.5009 61.501 27.5873C61.501 22.7066 57.2657 19.6396 54.5855 18.5184C54.0561 18.2875 52.9311 17.8918 52.3355 17.7269C52.3024 17.595 52.2693 17.4961 52.2362 17.4301C51.3759 15.4515 45.6516 14.7919 44.692 15.5174Z" fill="#C2D5FF"/>
<path d="M46.2801 40.3167C45.4859 40.3167 44.7911 40.2178 44.4602 39.9539C44.1293 39.6901 43.9308 39.3933 43.8977 39.0635C43.8646 38.8327 43.9308 38.6019 44.03 38.404C42.7396 38.4699 41.9785 38.4699 40.8866 38.4699C34.8645 38.4699 30.1328 33.6882 30.1328 27.5873C30.1328 21.4864 34.8645 16.7047 40.8866 16.7047C41.9785 16.7047 42.7727 16.7047 44.03 16.7706C43.9308 16.5728 43.8977 16.3419 43.8977 16.1111C43.9308 15.7813 44.1293 15.4845 44.4602 15.2207C45.2212 14.6601 47.6367 14.8249 49.4566 15.2866C50.6478 15.6164 52.1368 16.21 52.6 17.2983C52.6331 17.3642 52.6331 17.3972 52.6662 17.4632C53.328 17.661 54.2544 18.0238 54.7508 18.2216C58.0596 19.5737 61.8979 22.8385 61.8979 27.6203C61.8979 32.4021 58.0596 35.6668 54.7508 37.0189C54.2544 37.2168 53.2949 37.5796 52.6662 37.7774C52.6662 37.8434 52.6331 37.8764 52.6 37.9423C52.1368 39.0306 50.6478 39.6242 49.4566 39.9539C48.4308 40.1518 47.2727 40.3167 46.2801 40.3167ZM44.7249 37.6455C44.8573 37.6455 44.9896 37.7115 45.0558 37.8434C45.122 37.9753 45.0889 38.1402 45.0227 38.2391C44.8242 38.4699 44.6256 38.7667 44.6256 38.9646C44.6256 39.0965 44.7249 39.2284 44.8904 39.3274C45.2874 39.6242 47.2727 39.6571 49.225 39.1295C50.6478 38.7338 51.6073 38.1732 51.8721 37.5466C51.8721 37.5136 51.9382 37.4147 51.9382 37.3157C51.9713 37.1838 52.0706 37.0519 52.2029 37.0189C52.7985 36.854 53.8905 36.4583 54.4199 36.2275C56.9015 35.2052 61.1038 32.2372 61.1038 27.5214C61.1038 22.8055 56.9346 19.9035 54.453 18.8812C53.9236 18.6504 52.8316 18.2546 52.236 18.0897C52.1037 18.0568 52.0044 17.9248 51.9713 17.7929C51.9382 17.694 51.9051 17.5951 51.9051 17.5621C51.6404 16.9355 50.6809 16.3749 49.2581 15.9792C47.3058 15.4515 45.3205 15.4845 44.9234 15.7813C44.758 15.9132 44.6587 16.0451 44.6587 16.1441C44.6256 16.3749 44.8242 16.6387 45.0558 16.8696C45.1551 16.9685 45.1551 17.1334 45.0889 17.2653C45.0227 17.3972 44.8904 17.4632 44.7249 17.4632C43.0043 17.3972 42.144 17.3642 40.8535 17.3642C35.2285 17.3642 30.8277 21.8162 30.8277 27.5214C30.8277 33.2265 35.2285 37.6785 40.8535 37.6785C42.1109 37.7444 42.9712 37.7115 44.7249 37.6455Z" fill="black"/>
<path d="M52.3352 18.1228H52.3021C49.9197 17.859 47.7028 17.5952 44.7248 17.5622C44.5263 17.5622 44.3608 17.3973 44.3608 17.1665C44.3608 16.9686 44.5263 16.8037 44.7248 16.8037C47.7359 16.8697 49.9859 17.1005 52.3683 17.3973C52.5668 17.4303 52.7323 17.5952 52.6992 17.826C52.6661 17.9909 52.5007 18.1228 52.3352 18.1228Z" fill="black"/>
<path d="M44.7248 38.4039C44.5263 38.4039 44.3608 38.239 44.3608 38.0411C44.3608 37.8433 44.5263 37.6784 44.7248 37.6454C47.7028 37.5795 49.9197 37.3486 52.3021 37.0848C52.5007 37.0518 52.6992 37.2167 52.7323 37.4146C52.7654 37.6124 52.5999 37.8103 52.4014 37.8433C49.9859 38.0741 47.7359 38.3379 44.7248 38.4039Z" fill="black"/>
</g>
<defs>
<clipPath id="clip0_139_793">
<rect width="296" height="68.6962" fill="white" transform="translate(0 0.105713)"/>
</clipPath>
</defs>
</svg>
