<svg width="296" height="110" viewBox="0 0 296 110" fill="none" xmlns="http://www.w3.org/2000/svg">
<path d="M92.3711 102.881V89.9958H94.1201L100.888 100.112V89.9958H102.522V102.881H100.773L94.0059 92.7556V102.881H92.3711ZM111.285 101.729C110.699 102.227 110.134 102.579 109.589 102.784C109.05 102.989 108.47 103.092 107.849 103.092C106.823 103.092 106.035 102.843 105.484 102.344C104.934 101.841 104.658 101.199 104.658 100.42C104.658 99.9626 104.761 99.5466 104.966 99.1716C105.177 98.7908 105.449 98.4861 105.783 98.2576C106.123 98.0291 106.504 97.8562 106.926 97.739C107.236 97.657 107.705 97.5779 108.332 97.5017C109.609 97.3494 110.55 97.1677 111.153 96.9568C111.159 96.74 111.162 96.6023 111.162 96.5437C111.162 95.8992 111.013 95.4451 110.714 95.1814C110.31 94.824 109.709 94.6453 108.912 94.6453C108.168 94.6453 107.617 94.7771 107.26 95.0408C106.908 95.2986 106.647 95.7585 106.478 96.4207L104.931 96.2097C105.071 95.5476 105.303 95.0144 105.625 94.6101C105.947 94.2 106.413 93.8865 107.022 93.6697C107.632 93.447 108.338 93.3357 109.141 93.3357C109.938 93.3357 110.585 93.4294 111.083 93.6169C111.581 93.8044 111.947 94.0417 112.182 94.3289C112.416 94.6101 112.58 94.9675 112.674 95.4011C112.727 95.6707 112.753 96.157 112.753 96.8601V98.9695C112.753 100.44 112.785 101.372 112.85 101.764C112.92 102.151 113.055 102.523 113.254 102.881H111.602C111.438 102.552 111.332 102.169 111.285 101.729ZM111.153 98.196C110.579 98.4304 109.718 98.6296 108.569 98.7937C107.919 98.8875 107.459 98.9929 107.189 99.1101C106.92 99.2273 106.712 99.4001 106.565 99.6287C106.419 99.8513 106.346 100.1 106.346 100.376C106.346 100.798 106.504 101.149 106.82 101.43C107.143 101.712 107.611 101.852 108.227 101.852C108.836 101.852 109.378 101.72 109.853 101.457C110.327 101.187 110.676 100.821 110.898 100.358C111.068 100.001 111.153 99.4734 111.153 98.7761V98.196ZM110.679 90.0134H111.76C111.672 90.7458 111.402 91.3083 110.951 91.7009C110.506 92.0935 109.911 92.2898 109.167 92.2898C108.417 92.2898 107.816 92.0964 107.365 91.7097C106.92 91.3171 106.653 90.7517 106.565 90.0134H107.646C107.729 90.4119 107.89 90.7107 108.13 90.9099C108.376 91.1033 108.704 91.2 109.114 91.2C109.589 91.2 109.946 91.1062 110.187 90.9187C110.433 90.7253 110.597 90.4236 110.679 90.0134ZM110.178 89.2839H108.903L106.873 86.823H108.991L110.178 89.2839ZM115.214 102.881V93.5466H116.629V94.8562C116.922 94.3992 117.312 94.033 117.798 93.7576C118.284 93.4763 118.838 93.3357 119.459 93.3357C120.15 93.3357 120.716 93.4792 121.155 93.7664C121.601 94.0535 121.914 94.4548 122.096 94.9705C122.834 93.8806 123.795 93.3357 124.979 93.3357C125.904 93.3357 126.616 93.5935 127.114 94.1091C127.612 94.6189 127.861 95.407 127.861 96.4734V102.881H126.288V97.0007C126.288 96.3679 126.235 95.9138 126.13 95.6384C126.03 95.3572 125.846 95.1316 125.576 94.9617C125.307 94.7917 124.99 94.7068 124.627 94.7068C123.971 94.7068 123.426 94.9265 122.992 95.366C122.559 95.7996 122.342 96.4968 122.342 97.4578V102.881H120.76V96.8162C120.76 96.113 120.631 95.5857 120.373 95.2341C120.115 94.8826 119.693 94.7068 119.107 94.7068C118.662 94.7068 118.249 94.824 117.868 95.0583C117.493 95.2927 117.221 95.6355 117.051 96.0867C116.881 96.5378 116.796 97.1882 116.796 98.0378V102.881H115.214ZM135.218 102.881V93.5466H136.642V94.8738C137.327 93.8484 138.317 93.3357 139.612 93.3357C140.175 93.3357 140.69 93.4382 141.159 93.6433C141.634 93.8425 141.988 94.1062 142.223 94.4343C142.457 94.7625 142.621 95.1521 142.715 95.6033C142.773 95.8962 142.803 96.4089 142.803 97.1414V102.881H141.221V97.2029C141.221 96.5583 141.159 96.0779 141.036 95.7615C140.913 95.4392 140.693 95.1843 140.377 94.9968C140.066 94.8035 139.7 94.7068 139.278 94.7068C138.604 94.7068 138.021 94.9207 137.529 95.3484C137.043 95.7761 136.8 96.5876 136.8 97.783V102.881H135.218ZM144.947 103.654L146.485 103.883C146.55 104.357 146.729 104.703 147.021 104.92C147.414 105.213 147.95 105.359 148.63 105.359C149.362 105.359 149.928 105.213 150.326 104.92C150.725 104.627 150.994 104.217 151.135 103.689C151.217 103.367 151.255 102.69 151.249 101.659C150.558 102.473 149.696 102.881 148.665 102.881C147.382 102.881 146.389 102.418 145.686 101.492C144.982 100.566 144.631 99.4558 144.631 98.1609C144.631 97.2703 144.792 96.45 145.114 95.7C145.437 94.9441 145.902 94.3611 146.512 93.9509C147.127 93.5408 147.848 93.3357 148.674 93.3357C149.775 93.3357 150.684 93.781 151.398 94.6716V93.5466H152.857V101.615C152.857 103.068 152.708 104.096 152.409 104.7C152.116 105.309 151.647 105.79 151.003 106.141C150.364 106.493 149.576 106.669 148.639 106.669C147.525 106.669 146.626 106.417 145.94 105.913C145.255 105.415 144.924 104.662 144.947 103.654ZM146.257 98.0466C146.257 99.2712 146.5 100.165 146.986 100.727C147.473 101.29 148.082 101.571 148.814 101.571C149.541 101.571 150.15 101.293 150.643 100.736C151.135 100.174 151.381 99.2947 151.381 98.0994C151.381 96.9568 151.126 96.0955 150.616 95.5154C150.112 94.9353 149.503 94.6453 148.788 94.6453C148.085 94.6453 147.487 94.9324 146.995 95.5066C146.503 96.075 146.257 96.9216 146.257 98.0466ZM155.257 102.881V89.9958H156.839V94.6189C157.577 93.7634 158.509 93.3357 159.634 93.3357C160.325 93.3357 160.926 93.4734 161.436 93.7488C161.945 94.0183 162.309 94.3933 162.525 94.8738C162.748 95.3542 162.859 96.0515 162.859 96.9656V102.881H161.277V96.9656C161.277 96.1746 161.104 95.6003 160.759 95.2429C160.419 94.8796 159.936 94.698 159.309 94.698C158.84 94.698 158.397 94.821 157.981 95.0671C157.571 95.3074 157.278 95.6355 157.103 96.0515C156.927 96.4675 156.839 97.0417 156.839 97.7742V102.881H155.257ZM165.285 91.8152V89.9958H166.867V91.8152H165.285ZM165.285 102.881V93.5466H166.867V102.881H165.285ZM175.674 99.8748L177.309 100.077C177.051 101.032 176.573 101.773 175.876 102.301C175.179 102.828 174.288 103.092 173.204 103.092C171.839 103.092 170.755 102.673 169.952 101.835C169.155 100.991 168.757 99.8103 168.757 98.2927C168.757 96.7224 169.161 95.5037 169.97 94.6365C170.778 93.7693 171.827 93.3357 173.116 93.3357C174.364 93.3357 175.384 93.7605 176.175 94.6101C176.966 95.4597 177.361 96.655 177.361 98.196C177.361 98.2898 177.358 98.4304 177.353 98.6179H170.392C170.45 99.6433 170.74 100.428 171.262 100.973C171.783 101.518 172.434 101.791 173.213 101.791C173.793 101.791 174.288 101.638 174.698 101.334C175.108 101.029 175.434 100.543 175.674 99.8748ZM170.479 97.3171H175.691C175.621 96.532 175.422 95.9431 175.094 95.5505C174.59 94.9412 173.937 94.6365 173.134 94.6365C172.407 94.6365 171.795 94.8796 171.297 95.366C170.805 95.8523 170.532 96.5027 170.479 97.3171ZM173.081 90.8923L172.088 92.3865H170.277L172.176 89.9255H173.863L175.841 92.3865H174.048L173.081 90.8923ZM179.304 102.881V93.5466H180.728V94.8738C181.413 93.8484 182.403 93.3357 183.698 93.3357C184.261 93.3357 184.776 93.4382 185.245 93.6433C185.72 93.8425 186.074 94.1062 186.309 94.4343C186.543 94.7625 186.707 95.1521 186.801 95.6033C186.859 95.8962 186.889 96.4089 186.889 97.1414V102.881H185.307V97.2029C185.307 96.5583 185.245 96.0779 185.122 95.7615C184.999 95.4392 184.779 95.1843 184.463 94.9968C184.152 94.8035 183.786 94.7068 183.364 94.7068C182.69 94.7068 182.107 94.9207 181.615 95.3484C181.129 95.7761 180.886 96.5876 180.886 97.783V102.881H179.304ZM189.033 103.654L190.571 103.883C190.636 104.357 190.814 104.703 191.107 104.92C191.5 105.213 192.036 105.359 192.716 105.359C193.448 105.359 194.014 105.213 194.412 104.92C194.811 104.627 195.08 104.217 195.221 103.689C195.303 103.367 195.341 102.69 195.335 101.659C194.644 102.473 193.782 102.881 192.751 102.881C191.468 102.881 190.475 102.418 189.771 101.492C189.068 100.566 188.717 99.4558 188.717 98.1609C188.717 97.2703 188.878 96.45 189.2 95.7C189.522 94.9441 189.988 94.3611 190.598 93.9509C191.213 93.5408 191.934 93.3357 192.76 93.3357C193.861 93.3357 194.77 93.781 195.484 94.6716V93.5466H196.943V101.615C196.943 103.068 196.794 104.096 196.495 104.7C196.202 105.309 195.733 105.79 195.089 106.141C194.45 106.493 193.662 106.669 192.725 106.669C191.611 106.669 190.712 106.417 190.026 105.913C189.341 105.415 189.01 104.662 189.033 103.654ZM190.343 98.0466C190.343 99.2712 190.586 100.165 191.072 100.727C191.559 101.29 192.168 101.571 192.9 101.571C193.627 101.571 194.236 101.293 194.729 100.736C195.221 100.174 195.467 99.2947 195.467 98.0994C195.467 96.9568 195.212 96.0955 194.702 95.5154C194.198 94.9353 193.589 94.6453 192.874 94.6453C192.171 94.6453 191.573 94.9324 191.081 95.5066C190.589 96.075 190.343 96.9216 190.343 98.0466Z" fill="#20315C"/>
<g clip-path="url(#clip0_139_792)">
<path d="M290.607 68.3884H8.39353C5.51482 68.3884 3.16553 66.047 3.16553 63.1779V44.8094C3.16553 41.9403 5.51482 39.5989 8.39353 39.5989H290.607C293.485 39.5989 295.835 41.9403 295.835 44.8094V63.1779C295.835 66.047 293.485 68.3884 290.607 68.3884Z" fill="#DBE5F5" stroke="black" stroke-miterlimit="10"/>
<path d="M26.2944 39.5989V68.3884" stroke="black" stroke-miterlimit="10"/>
<path d="M47.5376 39.5989V68.3884" stroke="black" stroke-miterlimit="10"/>
<path d="M74.2729 47.9753V68.3885" stroke="black" stroke-miterlimit="10"/>
<path d="M99.1558 47.9753V68.3885" stroke="black" stroke-miterlimit="10"/>
<path d="M125.362 46.6892V68.3885" stroke="black" stroke-miterlimit="10"/>
<path d="M149.484 50.4155V68.3884" stroke="black" stroke-miterlimit="10"/>
<path d="M178.932 45.6997V68.3884" stroke="black" stroke-miterlimit="10"/>
<path d="M211.657 44.9744V68.3885" stroke="black" stroke-miterlimit="10"/>
<path d="M245.54 43.4573V68.3884" stroke="black" stroke-miterlimit="10"/>
<path d="M275.717 44.9744V68.3885" stroke="black" stroke-miterlimit="10"/>
<path d="M70.137 38.4777C70.137 37.7192 69.8392 37.1256 69.6075 36.4661C68.9458 34.9491 67.556 33.1683 63.3538 32.2779C61.5339 31.8822 56.9677 31.4535 54.4198 31.3545C50.6146 31.2226 43.0373 31.2226 39.2321 31.3545C36.6843 31.4535 32.1512 31.8822 30.2982 32.2779C26.129 33.1683 24.7393 34.9161 24.0445 36.4661C23.8128 37.1586 23.515 37.7522 23.515 38.4777C23.515 38.4777 22.9194 42.6659 27.6842 42.6659H27.9158H65.6369H65.8685C70.7326 42.6659 70.137 38.4777 70.137 38.4777Z" fill="#EAEAEA" stroke="black" stroke-miterlimit="10"/>
<path d="M282.07 36.3674C281.971 34.5866 279.621 33.3004 271.548 33.5313C271.548 33.5313 262.151 33.1685 261.555 33.1026C260.926 32.9707 251.43 32.0803 250.702 31.8494L248.65 31.1239C241.867 28.6506 232.371 23.8358 226.646 22.8465C219.168 21.5934 211.293 22.2199 211.293 22.2199C211.293 22.2199 192.201 11.766 178.105 8.20441C171.322 6.48957 167.054 5.63215 150.179 5.63215C135.487 5.63215 131.12 8.60014 126.917 8.60014C118.546 8.60014 102.299 4.379 93.2992 3.62051C74.8689 -5.15156 74.9019 10.0512 73.7769 14.0744C73.2144 16.0861 72.0563 19.6806 67.2916 20.9338C66.1665 21.2306 60.0782 20.8349 57.9937 21.0657V33.993L70.7659 35.6089C72.7512 36.928 73.413 38.6428 73.81 40.0279C74.935 44.0512 75.5637 49.8223 88.1043 48.734C97.1044 47.9425 118.579 46.4585 126.95 46.4585C131.12 46.4585 135.52 48.9648 150.212 49.4265C154.844 49.5584 156.598 49.7563 162.62 49.5584C179.396 48.9978 204.113 47.5798 209.341 47.283C211.723 47.5138 220.856 48.4372 224.198 48.4372C231.941 48.5032 252.853 46.5575 258.709 45.9968C259.503 45.9309 260.331 45.9639 261.092 46.1288C261.323 46.1947 261.654 46.2277 262.018 46.2936C262.349 46.3266 263.474 46.1947 263.871 46.2277C268.768 46.8213 276.875 47.9096 276.974 47.9096C287.199 48.8989 287.199 47.1181 288.456 44.3809C289.449 42.0725 295.14 34.3887 282.07 36.3674Z" fill="white"/>
<path d="M158.087 49.9869C156.201 49.9869 154.745 49.9209 152.991 49.855C152.131 49.822 151.204 49.789 150.145 49.756C140.814 49.4592 135.487 48.338 131.98 47.5795C129.895 47.1178 128.373 46.788 126.884 46.788C118.744 46.788 97.6006 48.272 88.0711 49.0635C76.0599 50.0858 74.6371 44.7764 73.5783 40.918C73.5121 40.6542 73.4459 40.3574 73.3467 40.0936C72.9496 38.7085 72.3209 37.1586 70.5341 35.9054L57.8612 34.3225C57.6626 34.2895 57.5303 34.1246 57.5303 33.9597V21.0325C57.5303 20.8346 57.6626 20.6697 57.8612 20.6697C58.8869 20.5708 60.773 20.6038 62.6259 20.6367C64.5782 20.6697 66.5635 20.7027 67.126 20.5708C71.8246 19.3506 72.8503 15.7231 73.3467 13.9752C73.479 13.4806 73.6114 12.854 73.7437 12.0625C74.3724 8.69881 75.2989 3.58727 79.4681 1.47669C82.7107 -0.17219 87.4093 0.421408 93.3653 3.25749C97.2697 3.58727 102.398 4.54362 107.858 5.56593C114.906 6.88504 122.186 8.23712 126.884 8.23712C128.307 8.23712 129.796 7.87437 131.649 7.41268C135.189 6.55526 140.517 5.26913 150.112 5.26913C167.12 5.26913 171.421 6.15953 178.138 7.84139C191.605 11.2381 209.804 21.0325 211.326 21.8569C212.319 21.791 219.698 21.3293 226.679 22.5165C230.485 23.176 235.878 25.4515 241.106 27.694C243.852 28.8482 246.433 29.9694 248.75 30.8268L250.801 31.5194C251.198 31.6513 255.268 32.08 257.948 32.3438C260.099 32.5747 261.323 32.7066 261.588 32.7395C262.018 32.7725 268.272 33.0363 271.515 33.1683C278.463 33.0034 281.838 33.8608 282.335 35.9714C286.702 35.3448 289.316 35.7735 290.375 37.2575C291.633 39.0713 290.144 41.8084 289.184 43.6222C288.985 43.9849 288.82 44.3147 288.688 44.5456C288.588 44.7434 288.522 44.9083 288.456 45.1062C287.265 47.8104 286.206 49.1954 276.842 48.305C276.809 48.305 276.478 48.272 275.915 48.1731C273.665 47.8763 267.676 47.0848 263.739 46.5902C263.573 46.5572 263.176 46.5902 262.845 46.6232C262.448 46.6561 262.117 46.6561 261.919 46.6561C261.555 46.6232 261.224 46.5572 260.959 46.4912C260.231 46.3264 259.47 46.2934 258.676 46.3593C252.522 46.9529 231.841 48.8986 224.132 48.7997C220.823 48.7667 211.955 47.9093 209.275 47.6455C204.345 47.9423 179.396 49.3603 162.587 49.9209C160.767 49.9539 159.311 49.9869 158.087 49.9869ZM126.917 46.0296C128.472 46.0296 130.028 46.3593 132.145 46.821C135.851 47.6125 140.881 48.7007 150.179 48.9975C151.27 49.0305 152.164 49.0635 153.024 49.0965C155.87 49.1954 157.954 49.2943 162.554 49.1295C179.396 48.5688 204.411 47.1508 209.275 46.854C209.308 46.854 209.308 46.854 209.341 46.854C211.988 47.1178 220.856 47.9752 224.165 48.0082C231.841 48.0742 252.489 46.1615 258.643 45.5679C259.503 45.4689 260.364 45.5349 261.158 45.6998C261.423 45.7657 261.72 45.7987 262.051 45.8317C262.184 45.8317 262.548 45.8317 262.845 45.7987C263.276 45.7657 263.673 45.7328 263.904 45.7657C267.842 46.2604 273.831 47.0519 276.081 47.3487C276.61 47.4146 276.941 47.4476 276.974 47.4806C286.206 48.371 286.835 47.0189 287.827 44.7434C287.893 44.5785 287.993 44.3807 288.092 44.1828C288.224 43.919 288.39 43.5892 288.588 43.1935C289.416 41.6435 290.838 39.0383 289.846 37.6202C288.952 36.3671 286.371 36.0703 282.169 36.6969C282.07 36.6969 281.971 36.6969 281.871 36.6309C281.805 36.565 281.739 36.466 281.739 36.3671C281.64 34.5203 278.331 33.6959 271.614 33.8608C271.217 33.8608 262.151 33.498 261.588 33.4321C261.323 33.3991 259.702 33.2012 257.981 33.0363C254.11 32.6406 251.099 32.3108 250.669 32.1789L248.584 31.4534C246.235 30.596 243.654 29.4748 240.908 28.3205C235.713 26.111 230.352 23.8356 226.646 23.209C219.301 21.9558 211.459 22.5824 211.359 22.5824C211.293 22.5824 211.227 22.5824 211.161 22.5494C210.962 22.4505 191.969 12.0625 178.072 8.5669C171.421 6.88504 167.153 5.99464 150.245 5.99464C140.715 5.99464 135.653 7.21481 131.947 8.13819C130.028 8.59988 128.505 8.96263 126.983 8.96263C122.186 8.96263 114.873 7.61054 107.825 6.29144C102.365 5.26913 97.2036 4.31278 93.3322 3.983C93.2991 3.983 93.2329 3.983 93.1998 3.95002C87.4424 1.21287 82.9424 0.586297 79.8982 2.13625C76.093 4.08193 75.1665 8.96263 74.5709 12.1944C74.4386 12.9859 74.3062 13.6455 74.1739 14.1731C73.6444 16.0528 72.5525 19.9442 67.4238 21.2963C66.762 21.4612 64.909 21.4282 62.7252 21.3952C61.1038 21.3622 59.4163 21.3293 58.3906 21.3952V33.6299L70.8319 35.2129C70.8981 35.2129 70.9312 35.2458 70.9974 35.2788C73.0489 36.6639 73.7437 38.3787 74.1739 39.9287C74.24 40.1925 74.3393 40.4563 74.4055 40.7531C75.4312 44.5785 76.6886 49.3273 88.1042 48.371C97.6006 47.5135 118.777 46.0296 126.917 46.0296Z" fill="black"/>
<path d="M77.7471 24.9571C77.6148 24.9571 77.4824 24.8911 77.4162 24.7592C76.3243 22.6157 76.6552 14.3712 76.6883 14.0415C76.6883 13.8436 76.8868 13.6787 77.0853 13.6787C77.2839 13.6787 77.4493 13.8766 77.4493 14.0744C77.3501 16.4159 77.2839 22.7806 78.1111 24.4294C78.2104 24.6273 78.1442 24.8252 77.9457 24.9241C77.8795 24.9571 77.8133 24.9571 77.7471 24.9571Z" fill="black"/>
<path d="M75.8614 45.1721C75.6297 45.1391 75.4643 44.9742 75.4974 44.7763C75.5305 44.3806 76.3246 35.1798 77.4165 33.0363C77.5158 32.8384 77.7474 32.7724 77.9128 32.8714C78.1114 32.9703 78.1775 33.2012 78.0783 33.366C77.0525 35.3447 76.2584 44.7104 76.2253 44.8093C76.2253 45.0401 76.0599 45.1721 75.8614 45.1721Z" fill="black"/>
<path d="M262.547 38.8735C262.382 38.8735 262.25 38.7745 262.183 38.6097C262.117 38.4118 262.25 38.2139 262.448 38.148C264.367 37.5873 268.173 36.6969 271.845 37.0597C273.268 37.1916 274.724 37.0927 276.081 36.7299C278.926 35.9714 281.838 36.0044 282.136 36.0374C282.334 36.0704 282.5 36.2353 282.467 36.4331C282.434 36.631 282.268 36.7959 282.07 36.7629C281.805 36.7299 279.026 36.6969 276.279 37.4225C274.823 37.8182 273.301 37.9171 271.779 37.7852C268.239 37.4554 264.533 38.3129 262.68 38.8735C262.614 38.8735 262.581 38.8735 262.547 38.8735Z" fill="black"/>
<path d="M101.174 41.2479C96.2769 39.9618 94.2585 39.1374 87.0452 40.2916C79.8318 41.4458 65.5045 42.7979 63.6846 42.3692C61.8978 41.9405 59.6478 40.1926 57.5632 40.1926C55.4455 40.1926 52.7984 40.6543 51.5411 41.2809C51.1771 41.2809 48.0337 41.5777 47.2395 41.4788C48.0668 40.9182 48.0337 39.9948 47.4381 39.5661C47.0741 39.3023 46.0814 40.1597 45.188 40.5884C46.2138 39.7969 46.3792 38.4448 45.5189 38.214C45.2542 38.148 42.0446 40.1597 41.5814 40.7203C41.3167 41.0501 41.0851 44.7106 41.2836 45.535C41.4821 46.3595 42.3093 46.2276 42.3093 46.2276C42.3093 46.2276 42.3755 46.6233 43.0373 47.1839C43.4013 47.5467 47.2065 48.1403 47.2065 48.1403C47.2065 48.1403 50.8793 48.6679 52.3352 48.3381C53.7911 48.0413 59.1184 47.8105 61.2029 47.8105C63.2875 47.8105 63.5853 48.602 65.6037 48.9647C67.6221 49.3275 86.1849 50.6136 90.0562 50.6136C93.9276 50.6136 100.942 47.5137 102.332 46.0957C103.755 44.7106 102.299 41.5447 101.174 41.2479Z" fill="white"/>
<path d="M90.0562 50.9762C86.3172 50.9762 67.7876 49.7231 65.5375 49.3273C64.6441 49.1625 64.0485 48.9316 63.5191 48.7008C62.8574 48.4369 62.2948 48.1731 61.1698 48.1731C58.986 48.1731 53.758 48.404 52.4013 48.7008C50.9123 49.0305 47.3057 48.5029 47.1402 48.5029C45.6843 48.2721 43.2358 47.8433 42.7725 47.4476C42.3424 47.1178 42.1439 46.7881 42.0446 46.5902C41.6144 46.5572 41.085 46.3264 40.9196 45.6009C40.721 44.8094 40.8865 40.951 41.2835 40.4564C41.5813 40.0606 45.0226 37.6533 45.6182 37.8181C46.0483 37.9171 46.313 38.2469 46.4123 38.6756C46.4454 38.9064 46.4454 39.1373 46.3792 39.4011C46.8755 39.1043 47.3057 38.9394 47.6697 39.2032C48.0667 39.467 48.2653 39.8957 48.2653 40.3574C48.2653 40.5883 48.1991 40.8191 48.0998 41.017C48.8609 40.984 49.9197 40.918 50.6476 40.8521C51.0778 40.8191 51.3425 40.7861 51.5079 40.7861C52.8315 40.1925 55.4786 39.6979 57.6293 39.6979C58.986 39.6979 60.3095 40.3574 61.6 40.984C62.3941 41.3797 63.1552 41.7425 63.8169 41.9074C65.5044 42.3031 79.8649 40.951 87.0121 39.8298C93.696 38.7745 95.946 39.4011 100.082 40.4893C100.479 40.5883 100.876 40.6872 101.306 40.8191C102.134 41.05 102.862 42.2371 103.159 43.3254C103.49 44.5456 103.292 45.6338 102.63 46.3264C101.141 47.8104 93.9938 50.9762 90.0562 50.9762ZM61.2029 47.4476C62.4603 47.4476 63.1221 47.7114 63.8169 48.0082C64.3133 48.2061 64.8427 48.4369 65.6699 48.6018C67.5559 48.9316 86.1187 50.2507 90.0562 50.2507C93.7622 50.2507 100.711 47.1838 102.067 45.8317C102.762 45.1392 102.531 44.0179 102.398 43.5563C102.1 42.501 101.472 41.7095 101.075 41.5776C100.645 41.4787 100.248 41.3468 99.8505 41.2478C95.8137 40.1925 93.5967 39.5989 87.1113 40.6212C80.3282 41.6765 65.6037 43.1605 63.6184 42.6659C62.8574 42.501 62.0632 42.1052 61.236 41.7095C60.0117 41.1159 58.7544 40.5223 57.5632 40.5223C55.4786 40.5223 52.8977 40.984 51.7065 41.5776C51.6403 41.6106 51.6072 41.6106 51.541 41.6106C51.4418 41.6106 51.0778 41.6435 50.6807 41.6765C49.2248 41.7755 47.7689 41.8744 47.2064 41.8084C47.041 41.7755 46.9417 41.6765 46.8755 41.5116C46.8424 41.3468 46.9086 41.2148 47.041 41.1159C47.3388 40.918 47.5042 40.6542 47.5042 40.3904C47.5042 40.1925 47.4049 39.9947 47.2395 39.8628C47.0741 39.8957 46.6108 40.1596 46.313 40.3574C46.0152 40.5553 45.6513 40.7532 45.3204 40.918C45.1549 40.984 44.9564 40.951 44.8571 40.7861C44.7579 40.6212 44.7909 40.4234 44.9564 40.2915C45.5189 39.8628 45.7505 39.2362 45.6843 38.8734C45.6513 38.7085 45.5851 38.6426 45.4858 38.6096C44.9233 38.8075 42.2431 40.5223 41.8791 40.951C41.7137 41.3468 41.4821 44.7105 41.6475 45.469C41.7468 45.8977 42.1439 45.8977 42.2762 45.8977C42.4747 45.8647 42.6733 45.9966 42.7064 46.1945C42.7064 46.1945 42.8056 46.4913 43.302 46.92C43.302 46.92 43.335 46.92 43.335 46.953C43.5998 47.1508 45.6182 47.5466 47.3057 47.8104C47.3388 47.8104 50.9123 48.305 52.269 48.0082C53.7911 47.6455 59.2176 47.4476 61.2029 47.4476Z" fill="black"/>
<path d="M42.3426 46.5903C42.1771 46.5903 42.0448 46.4914 41.9786 46.3595C41.8131 45.9637 42.0117 42.4021 42.7727 41.4128C43.0705 41.0171 43.7985 40.7533 44.4271 40.4894C44.6257 40.4235 44.8573 40.3245 44.9566 40.2586C45.1551 40.1597 45.3536 40.2256 45.4529 40.4235C45.5522 40.6213 45.486 40.8192 45.2874 40.9181C45.122 40.9841 44.9235 41.083 44.6919 41.182C44.2617 41.3469 43.5668 41.6107 43.3683 41.8415C42.8058 42.6 42.6404 45.6669 42.7065 46.0957C42.7727 46.2935 42.6734 46.4914 42.4749 46.5573C42.4087 46.5903 42.3756 46.5903 42.3426 46.5903Z" fill="black"/>
<path d="M45.8827 48.1732C45.8165 48.1732 45.7834 48.1732 45.7172 48.1403L45.4856 48.0413C44.2282 47.4148 43.5996 47.118 43.3018 46.3595C42.9709 45.4691 43.1032 43.6883 43.3679 42.8638C43.5665 42.2043 44.9231 40.1926 45.7834 40.3246C46.1143 40.3905 46.4452 40.6214 46.6437 40.9511C46.9084 41.3798 46.9415 41.9405 46.743 42.5341C46.4783 43.2925 46.1143 43.8202 45.9158 44.084L46.1805 45.2382L48.5629 45.8318L55.1144 42.7649C55.3129 42.666 55.5115 42.7649 55.6107 42.9298C55.71 43.1277 55.6107 43.3255 55.4453 43.4245L48.7614 46.5573C48.6952 46.5903 48.5959 46.5903 48.4967 46.5903L45.7503 45.9308C45.618 45.8978 45.5187 45.7988 45.4856 45.634L45.1216 44.084C45.0885 43.9521 45.1216 43.8532 45.2209 43.7542C45.2209 43.7542 45.7172 43.1936 46.015 42.3032C46.1805 41.8085 46.0812 41.5117 45.9819 41.3469C45.8827 41.182 45.7503 41.116 45.6841 41.083C45.3202 41.182 44.2944 42.4681 44.0959 43.0947C43.8643 43.8861 43.7981 45.4691 44.0297 46.0956C44.1951 46.5244 44.5922 46.7552 45.8496 47.3488L46.0812 47.4477C46.2797 47.5467 46.3459 47.7775 46.2466 47.9424C46.1805 48.1073 46.0481 48.1732 45.8827 48.1732Z" fill="black"/>
<path d="M46.4786 42.2701C46.3462 42.2701 46.2139 42.2041 46.1477 42.0722C46.0484 41.9073 46.1146 41.6765 46.2801 41.5446C46.4124 41.4456 46.5117 41.4126 46.611 41.3467C46.7433 41.2477 46.8426 41.1818 47.0411 41.0829C47.2065 40.9839 47.4382 41.0499 47.5374 41.2148C47.6367 41.3797 47.5705 41.6105 47.4051 41.7094C47.2065 41.8084 47.1073 41.8743 47.008 41.9403C46.9088 42.0062 46.8095 42.0392 46.6771 42.1382C46.611 42.2371 46.5448 42.2701 46.4786 42.2701Z" fill="black"/>
<path d="M48.7285 44.6116C48.5962 44.6116 46.2469 44.4797 45.4528 44.3477C45.2542 44.3148 45.1219 44.1169 45.155 43.919C45.1881 43.7212 45.3866 43.5893 45.5851 43.6222C46.2138 43.7212 48.0337 43.8201 48.5962 43.8861C49.1587 43.2925 50.8793 41.5776 51.6403 41.3138C51.8389 41.2479 52.0374 41.3468 52.1036 41.5446C52.1698 41.7425 52.0705 41.9404 51.872 42.0063C51.3756 42.1712 49.8205 43.6222 48.9933 44.5126C48.9271 44.5786 48.8609 44.6116 48.7285 44.6116Z" fill="black"/>
<path d="M101.968 38.6754C101.902 38.6754 101.869 38.6754 101.803 38.6424C100.248 37.9169 97.7331 35.2127 97.6007 35.0808L97.5676 35.0479L84.3983 17.2729C83.9682 16.9761 81.0895 14.7666 79.0711 12.656C78.9387 12.4911 78.9387 12.2603 79.1042 12.1284C79.2696 11.9964 79.5012 11.9964 79.6336 12.1613C81.6851 14.3708 84.8616 16.7123 84.8947 16.7123C84.9278 16.7452 84.9608 16.7452 84.9608 16.7782L98.1632 34.5862C98.3617 34.817 100.744 37.2903 102.101 37.9499C102.299 38.0488 102.365 38.2467 102.266 38.4446C102.266 38.6095 102.101 38.6754 101.968 38.6754Z" fill="black"/>
<path d="M108.685 38.0159C103.192 38.7414 103.192 38.0488 96.4424 39.4339C89.6923 40.786 80.1958 44.1497 77.648 44.1497C75.1002 44.1497 66.4641 44.2157 64.6111 44.4135C59.9787 44.9742 53.9565 48.6017 53.9565 49.1623C53.9565 50.0527 55.8757 49.9538 55.8757 49.9538C55.8757 49.9538 56.0742 50.5144 57.0338 50.5144C58.0264 50.5144 59.9787 49.69 59.9787 49.69C59.9787 49.69 59.5154 50.8772 61.4346 50.7123C62.4934 50.6133 66.2655 49.3602 66.2655 49.3602L68.8133 49.1953C68.8133 49.1953 69.1111 49.1623 71.7582 49.624C74.4053 50.0857 77.8135 50.2836 78.9054 50.2836C79.9973 50.2836 81.4532 49.5581 81.4532 49.5581C81.4532 49.5581 103.953 48.5357 107.295 48.5357C110.637 48.5357 114.178 47.3815 115.369 46.1284C116.494 44.9412 116.726 43.8199 115.369 40.819L108.685 38.0159Z" fill="white"/>
<path d="M61.0707 51.108C60.442 51.108 59.9788 50.9431 59.7471 50.6134C59.6479 50.5144 59.6148 50.3825 59.5817 50.2506C58.8868 50.5144 57.7287 50.8772 57.0339 50.8772C56.3059 50.8772 55.8758 50.5804 55.6442 50.3166C55.214 50.3166 54.3206 50.2506 53.8574 49.8219C53.6588 49.624 53.5596 49.3932 53.5596 49.1623C53.5596 48.0741 60.3097 44.5455 64.545 44.0508C66.3649 43.82 74.7694 43.754 77.615 43.754C78.9055 43.754 82.1812 42.8306 85.9864 41.7424C89.3615 40.786 93.1667 39.6977 96.3432 39.0712C100.446 38.2467 102.034 38.1808 103.92 38.0818C105.178 38.0159 106.435 37.9499 108.619 37.6531C108.818 37.6201 109.016 37.785 109.049 37.9829C109.082 38.1808 108.917 38.3786 108.718 38.4116C106.501 38.7084 105.145 38.7744 103.954 38.8403C102.101 38.9393 100.512 39.0052 96.4755 39.8297C93.299 40.4562 89.5269 41.5445 86.185 42.5008C82.3467 43.5891 79.0047 44.5455 77.615 44.5455C74.7694 44.5455 66.398 44.6114 64.6112 44.8093C60.3427 45.3039 54.8831 48.5028 54.2875 49.2613C54.2875 49.2942 54.3206 49.2942 54.3206 49.3272C54.5522 49.5581 55.3133 49.624 55.7765 49.624C55.942 49.624 56.1074 49.723 56.1405 49.8878C56.1405 49.8878 56.2728 50.1846 56.9346 50.1846C57.6626 50.1846 59.2177 49.624 59.7471 49.3932C59.8795 49.3272 60.0449 49.3602 60.1442 49.4591C60.2435 49.5581 60.2766 49.723 60.2435 49.8549C60.2435 49.8549 60.1773 50.0527 60.2766 50.1846C60.3097 50.2506 60.5413 50.4485 61.3023 50.3495C62.1626 50.2836 65.0082 49.3602 66.0671 49.0304C66.1002 49.0304 66.1333 48.9974 66.1663 48.9974L68.7142 48.8326C68.7803 48.8326 69.2436 48.8326 71.7583 49.2613C74.4716 49.723 77.8797 49.9208 78.8393 49.9208C79.832 49.9208 81.2217 49.2283 81.2217 49.2283C81.2548 49.1953 81.3209 49.1953 81.3871 49.1953C81.6187 49.1953 103.92 48.173 107.229 48.173C110.604 48.173 113.979 46.9858 115.038 45.8646C116.031 44.7763 116.263 43.82 114.972 40.9509C113.615 37.9829 93.6961 8.23703 93.4645 7.94023C93.3652 7.77534 93.3983 7.54449 93.5637 7.41258C93.7292 7.31365 93.9608 7.34663 94.0932 7.51152C94.9204 8.73169 114.277 37.6201 115.634 40.6211C116.957 43.5232 116.924 44.9082 115.568 46.3592C114.244 47.7443 110.505 48.8985 107.229 48.8985C104.053 48.8985 82.9423 49.8549 81.4864 49.9208C81.1555 50.0857 79.865 50.6463 78.8393 50.6463C77.6481 50.6463 74.2069 50.4155 71.6591 49.9868C69.2105 49.5581 68.8134 49.5581 68.7803 49.5581L66.2987 49.723C65.8355 49.8878 62.4604 50.9761 61.4016 51.075C61.3023 51.108 61.17 51.108 61.0707 51.108Z" fill="black"/>
<path d="M55.8426 50.3165C55.7433 50.3165 55.6441 50.2836 55.5779 50.2176C55.4455 50.1187 55.4124 49.9538 55.4455 49.7559C55.6771 48.9645 59.714 46.2603 65.2729 45.0401C65.4714 45.0071 65.6699 45.1061 65.7361 45.3369C65.7692 45.5348 65.6699 45.7327 65.4383 45.7986C60.2103 46.9528 56.6698 49.3602 56.2066 49.9538C56.2066 50.0527 56.1735 50.1517 56.1073 50.2176C56.0411 50.2836 55.9419 50.3165 55.8426 50.3165Z" fill="black"/>
<path d="M59.9456 50.0857C59.8464 50.0857 59.7471 50.0527 59.6809 49.9537C59.5486 49.7889 59.5486 49.558 59.714 49.4261C60.1442 49.0304 63.2545 46.9858 68.0193 46.689C68.2178 46.689 68.4163 46.8209 68.4163 47.0517C68.4163 47.2496 68.284 47.4474 68.0524 47.4474C63.5854 47.7442 60.5743 49.6569 60.2103 49.9867C60.1442 50.0527 60.0449 50.0857 59.9456 50.0857Z" fill="black"/>
<path d="M261.489 38.9393C257.551 38.9393 245.805 37.7521 244.316 37.3564C235.845 35.1139 220.128 34.2235 212.782 35.015C212.319 35.0479 208.447 34.4873 200.374 33.2672C186.013 31.1236 164.307 27.8588 157.987 27.8588C157.789 27.8588 157.623 27.6939 157.623 27.4961C157.623 27.2982 157.789 27.1333 157.987 27.1333C164.373 27.1333 186.113 30.3981 200.473 32.5416C206.661 33.465 212.021 34.2895 212.65 34.2895H212.683C220.227 33.465 235.779 34.3224 244.481 36.6309C246.235 37.0926 261.158 38.4776 262.382 38.1149C262.581 38.0489 262.779 38.1808 262.845 38.3787C262.911 38.5766 262.779 38.7744 262.581 38.8404C262.448 38.9063 262.051 38.9393 261.489 38.9393Z" fill="black"/>
<path d="M44.8575 15.4261C44.0634 16.0197 44.5266 16.6463 44.8906 17.075C43.1369 17.009 42.2435 16.9761 41.0192 16.9761C35.2949 16.9761 30.6294 21.5929 30.6294 27.4959C30.6294 33.399 35.2949 38.0158 41.0192 38.0158C42.2435 38.0158 43.1369 38.0158 44.8906 37.9169C44.5266 38.3786 44.0634 38.9722 44.8575 39.5658C45.8502 40.2913 51.5745 39.6317 52.4017 37.6531C52.4348 37.5871 52.4679 37.4882 52.501 37.3563C53.1297 37.1914 54.2216 36.7957 54.751 36.5648C57.4312 35.4765 61.6665 32.4096 61.6665 27.4959C61.6665 22.6152 57.4312 19.5483 54.751 18.4271C54.2216 18.1962 53.0966 17.8005 52.501 17.6356C52.4679 17.5037 52.4348 17.4048 52.4017 17.3388C51.5414 15.3602 45.8171 14.7006 44.8575 15.4261Z" fill="white"/>
<path d="M46.4456 40.2254C45.6515 40.2254 44.9566 40.1265 44.6257 39.8626C44.2948 39.5988 44.0963 39.302 44.0632 38.9722C44.0301 38.7414 44.0963 38.5105 44.1956 38.3127C42.9051 38.3786 42.1441 38.3786 41.0522 38.3786C35.03 38.3786 30.2983 33.5969 30.2983 27.496C30.2983 21.3951 35.03 16.6134 41.0522 16.6134C42.1441 16.6134 42.9382 16.6134 44.1956 16.6793C44.0963 16.4815 44.0632 16.2506 44.0632 16.0198C44.0963 15.69 44.2948 15.3932 44.6257 15.1294C45.3868 14.5687 47.8022 14.7336 49.6221 15.1953C50.8133 15.5251 52.3023 16.1187 52.7655 17.207C52.7986 17.2729 52.7986 17.3059 52.8317 17.3719C53.4935 17.5697 54.42 17.9325 54.9163 18.1303C58.2252 19.4824 62.0634 22.7472 62.0634 27.529C62.0634 32.3107 58.2252 35.5755 54.9163 36.9276C54.42 37.1255 53.4604 37.4882 52.8317 37.6861C52.8317 37.7521 52.7986 37.785 52.7655 37.851C52.3023 38.9393 50.8133 39.5329 49.6221 39.8626C48.5964 40.0605 47.4383 40.2254 46.4456 40.2254ZM44.8904 37.5542C45.0228 37.5542 45.1551 37.6202 45.2213 37.7521C45.2875 37.884 45.2544 38.0489 45.1882 38.1478C44.9897 38.3786 44.7912 38.6754 44.7912 38.8733C44.7912 39.0052 44.8904 39.1371 45.0559 39.2361C45.4529 39.5329 47.4383 39.5658 49.3905 39.0382C50.8133 38.6425 51.7729 38.0818 52.0376 37.4553C52.0376 37.4223 52.1038 37.3234 52.1038 37.2244C52.1369 37.0925 52.2361 36.9606 52.3685 36.9276C52.9641 36.7627 54.056 36.367 54.5854 36.1362C57.0671 35.1138 61.2693 32.1459 61.2693 27.43C61.2693 22.7142 57.1001 19.8122 54.6185 18.7899C54.0891 18.559 52.9972 18.1633 52.4016 17.9984C52.2692 17.9655 52.1699 17.8335 52.1369 17.7016C52.1038 17.6027 52.0707 17.5038 52.0707 17.4708C51.806 16.8442 50.8464 16.2836 49.4236 15.8879C47.4714 15.3602 45.486 15.3932 45.089 15.69C44.9235 15.8219 44.8243 15.9538 44.8243 16.0527C44.7912 16.2836 44.9897 16.5474 45.2213 16.7783C45.3206 16.8772 45.3206 17.0421 45.2544 17.174C45.1882 17.3059 45.0559 17.3719 44.8904 17.3719C43.1698 17.3059 42.3095 17.2729 41.0191 17.2729C35.394 17.2729 30.9932 21.7249 30.9932 27.43C30.9932 33.1352 35.394 37.5872 41.0191 37.5872C42.2764 37.6531 43.1367 37.6202 44.8904 37.5542Z" fill="black"/>
<path d="M52.5007 18.0315H52.4676C50.0853 17.7677 47.8683 17.5039 44.8903 17.4709C44.6918 17.4709 44.5264 17.306 44.5264 17.0752C44.5264 16.8773 44.6918 16.7124 44.8903 16.7124C47.9014 16.7784 50.1514 17.0092 52.5338 17.306C52.7324 17.339 52.8978 17.5039 52.8647 17.7347C52.8316 17.8996 52.6662 18.0315 52.5007 18.0315Z" fill="black"/>
<path d="M44.8903 38.3126C44.6918 38.3126 44.5264 38.1477 44.5264 37.9498C44.5264 37.752 44.6918 37.5871 44.8903 37.5541C47.8683 37.4881 50.0853 37.2573 52.4676 36.9935C52.6662 36.9605 52.8647 37.1254 52.8978 37.3233C52.9309 37.5211 52.7654 37.719 52.5669 37.752C50.1514 37.9828 47.9014 38.2466 44.8903 38.3126Z" fill="black"/>
<path d="M290.441 68.3737H8.22801C5.34929 68.3737 3 66.0323 3 63.1633V44.7947C3 41.9256 5.34929 39.5842 8.22801 39.5842H290.441C293.32 39.5842 295.669 41.9256 295.669 44.7947V63.1633C295.669 66.0323 293.32 68.3737 290.441 68.3737Z" fill="#E4E4E4" stroke="black" stroke-miterlimit="10"/>
<path d="M26.1289 39.5842V68.3737" stroke="black" stroke-miterlimit="10"/>
<path d="M47.3721 39.5842V68.3737" stroke="black" stroke-miterlimit="10"/>
<path d="M74.1074 47.9604V68.3736" stroke="black" stroke-miterlimit="10"/>
<path d="M98.9902 47.9604V68.3736" stroke="black" stroke-miterlimit="10"/>
<path d="M125.196 46.6743V68.3736" stroke="black" stroke-miterlimit="10"/>
<path d="M149.318 50.4009V68.3737" stroke="black" stroke-miterlimit="10"/>
<path d="M178.767 45.6851V68.3737" stroke="black" stroke-miterlimit="10"/>
<path d="M211.492 44.9595V68.3736" stroke="black" stroke-miterlimit="10"/>
<path d="M245.375 43.4426V68.3738" stroke="black" stroke-miterlimit="10"/>
<path d="M275.551 44.9595V68.3736" stroke="black" stroke-miterlimit="10"/>
<path d="M69.9714 38.4631C69.9714 37.7046 69.6736 37.111 69.442 36.4514C68.7802 34.9345 67.3905 33.1537 63.1883 32.2633C61.3684 31.8675 56.8021 31.4388 54.2543 31.3399C50.4491 31.208 42.8718 31.208 39.0666 31.3399C36.5188 31.4388 31.9856 31.8675 30.1327 32.2633C25.9635 33.1537 24.5738 34.9015 23.8789 36.4514C23.6473 37.144 23.3495 37.7376 23.3495 38.4631C23.3495 38.4631 22.7539 42.6512 27.5187 42.6512H27.7503H65.4714H65.703C70.567 42.6512 69.9714 38.4631 69.9714 38.4631Z" fill="#EAEAEA" stroke="black" stroke-miterlimit="10"/>
<path d="M281.904 36.3527C281.805 34.5719 279.456 33.2858 271.382 33.5166C271.382 33.5166 261.985 33.1539 261.389 33.0879C260.761 32.956 251.264 32.0656 250.536 31.8348L248.485 31.1093C241.702 28.6359 232.205 23.8212 226.481 22.8319C219.003 21.5787 211.128 22.2053 211.128 22.2053C211.128 22.2053 192.036 11.7513 177.94 8.18976C171.157 6.47492 166.888 5.6175 150.013 5.6175C135.322 5.6175 130.954 8.58549 126.752 8.58549C118.38 8.58549 102.134 4.36435 93.1337 3.60586C74.7033 -5.1662 74.7364 10.0365 73.6114 14.0598C73.0489 16.0714 71.8908 19.666 67.126 20.9191C66.001 21.2159 59.9127 20.8202 57.8281 21.0511V33.9783L70.6003 35.5942C72.5857 36.9133 73.2474 38.6282 73.6445 40.0132C74.7695 44.0365 75.3982 49.8076 87.9388 48.7193C96.9389 47.9279 118.413 46.4439 126.785 46.4439C130.954 46.4439 135.355 48.9502 150.046 49.4119C154.679 49.5438 156.432 49.7416 162.454 49.5438C179.23 48.9832 203.948 47.5651 209.176 47.2683C211.558 47.4992 220.69 48.4225 224.032 48.4225C231.775 48.4885 252.687 46.5428 258.544 45.9822C259.338 45.9162 260.165 45.9492 260.926 46.1141C261.158 46.1801 261.489 46.213 261.853 46.279C262.184 46.312 263.309 46.1801 263.706 46.213C268.603 46.8066 276.71 47.8949 276.809 47.8949C287.033 48.8842 287.033 47.1034 288.291 44.3663C289.283 42.0578 294.974 34.374 281.904 36.3527Z" fill="#E4E4E4"/>
<path d="M157.921 49.9722C156.035 49.9722 154.579 49.9063 152.825 49.8403C151.965 49.8073 151.039 49.7744 149.98 49.7414C140.649 49.4446 135.322 48.3233 131.814 47.5649C129.73 47.1032 128.208 46.7734 126.719 46.7734C118.579 46.7734 97.4351 48.2574 87.9056 49.0489C75.8944 50.0712 74.4716 44.7618 73.4127 40.9034C73.3466 40.6395 73.2804 40.3427 73.1811 40.0789C72.7841 38.6939 72.1554 37.1439 70.3686 35.8908L57.6956 34.3078C57.4971 34.2748 57.3647 34.11 57.3647 33.9451V21.0178C57.3647 20.82 57.4971 20.6551 57.6956 20.6551C58.7214 20.5561 60.6074 20.5891 62.4604 20.6221C64.4126 20.6551 66.3979 20.688 66.9605 20.5561C71.659 19.336 72.6848 15.7084 73.1811 13.9606C73.3135 13.4659 73.4458 12.8393 73.5782 12.0479C74.2069 8.68416 75.1333 3.57262 79.3025 1.46205C82.5452 -0.186839 87.2438 0.40676 93.1997 3.24284C97.1042 3.57262 102.233 4.52897 107.693 5.55128C114.74 6.87039 122.02 8.22247 126.719 8.22247C128.141 8.22247 129.63 7.85972 131.483 7.39803C135.024 6.54061 140.351 5.25448 149.947 5.25448C166.954 5.25448 171.256 6.14488 177.973 7.82674C191.44 11.2234 209.639 21.0178 211.161 21.8423C212.153 21.7763 219.532 21.3146 226.514 22.5018C230.319 23.1614 235.713 25.4368 240.941 27.6793C243.687 28.8335 246.268 29.9548 248.584 30.8122L250.636 31.5047C251.033 31.6366 255.102 32.0653 257.783 32.3292C259.933 32.56 261.158 32.6919 261.422 32.7249C261.853 32.7579 268.106 33.0217 271.349 33.1536C278.298 32.9887 281.673 33.8461 282.169 35.9567C286.537 35.3301 289.151 35.7588 290.21 37.2428C291.467 39.0566 289.978 41.7938 289.018 43.6075C288.82 43.9703 288.654 44.3001 288.522 44.5309C288.423 44.7288 288.357 44.8937 288.29 45.0915C287.099 47.7957 286.04 49.1808 276.676 48.2904C276.643 48.2904 276.312 48.2574 275.75 48.1585C273.5 47.8617 267.511 47.0702 263.573 46.5755C263.408 46.5426 263.011 46.5755 262.68 46.6085C262.283 46.6415 261.952 46.6415 261.753 46.6415C261.389 46.6085 261.058 46.5425 260.794 46.4766C260.066 46.3117 259.305 46.2787 258.511 46.3447C252.356 46.9383 231.676 48.884 223.966 48.785C220.657 48.7521 211.789 47.8946 209.109 47.6308C204.179 47.9276 179.23 49.3457 162.421 49.9063C160.601 49.9393 159.145 49.9722 157.921 49.9722ZM126.752 46.0149C128.307 46.0149 129.862 46.3447 131.98 46.8064C135.686 47.5978 140.715 48.6861 150.013 48.9829C151.105 49.0159 151.998 49.0489 152.859 49.0818C155.704 49.1808 157.789 49.2797 162.388 49.1148C179.23 48.5542 204.245 47.1361 209.109 46.8393C209.142 46.8393 209.142 46.8393 209.175 46.8393C211.823 47.1032 220.69 47.9606 223.999 47.9936C231.676 48.0595 252.323 46.1468 258.478 45.5532C259.338 45.4543 260.198 45.5202 260.992 45.6851C261.257 45.7511 261.555 45.7841 261.886 45.817C262.018 45.817 262.382 45.817 262.68 45.7841C263.11 45.7511 263.507 45.7181 263.739 45.7511C267.676 46.2458 273.665 47.0372 275.915 47.334C276.445 47.4 276.776 47.4329 276.809 47.4659C286.04 48.3563 286.669 47.0042 287.662 44.7288C287.728 44.5639 287.827 44.366 287.926 44.1682C288.059 43.9043 288.224 43.5746 288.423 43.1788C289.25 41.6289 290.673 39.0236 289.68 37.6056C288.787 36.3524 286.206 36.0556 282.004 36.6822C281.904 36.6822 281.805 36.6822 281.706 36.6163C281.64 36.5503 281.573 36.4514 281.573 36.3524C281.474 34.5057 278.165 33.6813 271.448 33.8461C271.051 33.8461 261.985 33.4834 261.422 33.4174C261.158 33.3844 259.536 33.1866 257.816 33.0217C253.944 32.626 250.933 32.2962 250.503 32.1643L248.419 31.4388C246.069 30.5813 243.488 29.4601 240.742 28.3059C235.547 26.0964 230.187 23.8209 226.481 23.1943C219.135 21.9412 211.293 22.5678 211.194 22.5678C211.128 22.5678 211.061 22.5678 210.995 22.5348C210.797 22.4359 191.804 12.0479 177.907 8.55225C171.256 6.87039 166.987 5.97999 150.079 5.97999C140.55 5.97999 135.487 7.20016 131.781 8.12354C129.862 8.58523 128.34 8.94798 126.818 8.94798C122.02 8.94798 114.707 7.5959 107.659 6.27679C102.2 5.25448 97.038 4.29813 93.1667 3.96835C93.1336 3.96835 93.0674 3.96835 93.0343 3.93537C87.2769 1.19822 82.7768 0.571648 79.7327 2.1216C75.9275 4.06728 75.001 8.94798 74.4054 12.1798C74.273 12.9713 74.1407 13.6308 74.0083 14.1585C73.4789 16.0382 72.387 19.9296 67.2582 21.2816C66.5965 21.4465 64.7435 21.4135 62.5597 21.3806C60.9383 21.3476 59.2508 21.3146 58.225 21.3806V33.6153L70.6664 35.1982C70.7326 35.1982 70.7656 35.2312 70.8318 35.2642C72.8833 36.6492 73.5782 38.3641 74.0083 39.914C74.0745 40.1779 74.1738 40.4417 74.24 40.7385C75.2657 44.5639 76.5231 49.3127 87.9387 48.3563C97.4351 47.4989 118.612 46.0149 126.752 46.0149Z" fill="black"/>
<path d="M77.5816 24.9424C77.4492 24.9424 77.3169 24.8765 77.2507 24.7446C76.1588 22.601 76.4897 14.3566 76.5228 14.0268C76.5228 13.829 76.7213 13.6641 76.9198 13.6641C77.1183 13.6641 77.2838 13.8619 77.2838 14.0598C77.1845 16.4012 77.1183 22.7659 77.9456 24.4148C78.0448 24.6127 77.9786 24.8105 77.7801 24.9095C77.7139 24.9424 77.6478 24.9424 77.5816 24.9424Z" fill="black"/>
<path d="M75.6958 45.1574C75.4642 45.1244 75.2988 44.9595 75.3319 44.7617C75.3649 44.3659 76.1591 35.1652 77.251 33.0216C77.3503 32.8238 77.5819 32.7578 77.7473 32.8567C77.9458 32.9557 78.012 33.1865 77.9128 33.3514C76.887 35.3301 76.0929 44.6957 76.0598 44.7947C76.0598 45.0255 75.8944 45.1574 75.6958 45.1574Z" fill="black"/>
<path d="M262.382 38.8588C262.216 38.8588 262.084 38.7599 262.018 38.595C261.952 38.3971 262.084 38.1993 262.283 38.1333C264.202 37.5727 268.007 36.6823 271.68 37.045C273.103 37.177 274.559 37.078 275.915 36.7153C278.761 35.9568 281.673 35.9898 281.97 36.0227C282.169 36.0557 282.334 36.2206 282.301 36.4185C282.268 36.6163 282.103 36.7812 281.904 36.7482C281.639 36.7153 278.86 36.6823 276.114 37.4078C274.658 37.8035 273.136 37.9025 271.614 37.7706C268.073 37.4408 264.367 38.2982 262.514 38.8588C262.448 38.8588 262.415 38.8588 262.382 38.8588Z" fill="black"/>
<path d="M101.009 41.2333C96.1114 39.9472 94.093 39.1227 86.8797 40.2769C79.6663 41.4312 65.339 42.7832 63.5191 42.3545C61.7323 41.9258 59.4823 40.178 57.3977 40.178C55.28 40.178 52.6329 40.6397 51.3755 41.2663C51.0116 41.2663 47.8681 41.5631 47.074 41.4641C47.9012 40.9035 47.8682 39.9801 47.2726 39.5514C46.9086 39.2876 45.9159 40.145 45.0225 40.5737C46.0483 39.7823 46.2137 38.4302 45.3534 38.1993C45.0887 38.1334 41.8791 40.145 41.4159 40.7056C41.1512 41.0354 40.9195 44.6959 41.1181 45.5204C41.3166 46.3448 42.1438 46.2129 42.1438 46.2129C42.1438 46.2129 42.21 46.6086 42.8718 47.1693C43.2357 47.532 47.0409 48.1256 47.0409 48.1256C47.0409 48.1256 50.7138 48.6533 52.1697 48.3235C53.6256 48.0267 58.9528 47.7958 61.0374 47.7958C63.122 47.7958 63.4198 48.5873 65.4382 48.9501C67.4566 49.3128 86.0194 50.599 89.8907 50.599C93.7621 50.599 100.777 47.4991 102.167 46.081C103.589 44.6959 102.134 41.5301 101.009 41.2333Z" fill="#E4E4E4"/>
<path d="M89.8907 50.9616C86.1517 50.9616 67.622 49.7084 65.372 49.3127C64.4786 49.1478 63.883 48.917 63.3536 48.6861C62.6918 48.4223 62.1293 48.1585 61.0043 48.1585C58.8204 48.1585 53.5924 48.3893 52.2358 48.6861C50.7468 49.0159 47.1402 48.4883 46.9747 48.4883C45.5188 48.2574 43.0703 47.8287 42.607 47.433C42.1769 47.1032 41.9783 46.7734 41.8791 46.5756C41.4489 46.5426 40.9195 46.3117 40.754 45.5862C40.5555 44.7948 40.721 40.9364 41.118 40.4417C41.4158 40.046 44.857 37.6386 45.4526 37.8035C45.8828 37.9024 46.1475 38.2322 46.2468 38.6609C46.2798 38.8918 46.2799 39.1226 46.2137 39.3864C46.71 39.0896 47.1402 38.9247 47.5041 39.1886C47.9012 39.4524 48.0997 39.8811 48.0997 40.3428C48.0997 40.5736 48.0335 40.8045 47.9343 41.0023C48.6953 40.9694 49.7542 40.9034 50.4821 40.8374C50.9123 40.8045 51.177 40.7715 51.3424 40.7715C52.666 40.1779 55.313 39.6832 57.4638 39.6832C58.8204 39.6832 60.144 40.3428 61.4344 40.9694C62.2286 41.3651 62.9896 41.7278 63.6514 41.8927C65.3389 42.2885 79.6994 40.9364 86.8465 39.8151C93.5304 38.7598 95.7804 39.3864 99.9165 40.4747C100.314 40.5736 100.711 40.6726 101.141 40.8045C101.968 41.0353 102.696 42.2225 102.994 43.3108C103.325 44.5309 103.126 45.6192 102.464 46.3117C100.975 47.7957 93.8282 50.9616 89.8907 50.9616ZM61.0374 47.433C62.2947 47.433 62.9565 47.6968 63.6514 47.9936C64.1477 48.1915 64.6771 48.4223 65.5043 48.5872C67.3904 48.917 85.9531 50.2361 89.8907 50.2361C93.5966 50.2361 100.545 47.1692 101.902 45.8171C102.597 45.1245 102.365 44.0033 102.233 43.5416C101.935 42.4863 101.306 41.6949 100.909 41.563C100.479 41.464 100.082 41.3321 99.6849 41.2332C95.6481 40.1779 93.4311 39.5843 86.9458 40.6066C80.1626 41.6619 65.4382 43.1459 63.4528 42.6512C62.6918 42.4863 61.8977 42.0906 61.0705 41.6949C59.8462 41.1013 58.5888 40.5077 57.3976 40.5077C55.313 40.5077 52.7321 40.9694 51.5409 41.563C51.4748 41.5959 51.4417 41.5959 51.3755 41.5959C51.2762 41.5959 50.9123 41.6289 50.5152 41.6619C49.0593 41.7608 47.6034 41.8598 47.0409 41.7938C46.8754 41.7608 46.7762 41.6619 46.71 41.497C46.6769 41.3321 46.7431 41.2002 46.8754 41.1013C47.1732 40.9034 47.3387 40.6396 47.3387 40.3758C47.3387 40.1779 47.2394 39.98 47.074 39.8481C46.9085 39.8811 46.4453 40.1449 46.1475 40.3428C45.8497 40.5406 45.4857 40.7385 45.1548 40.9034C44.9894 40.9694 44.7909 40.9364 44.6916 40.7715C44.5923 40.6066 44.6254 40.4087 44.7909 40.2768C45.3534 39.8481 45.585 39.2215 45.5188 38.8588C45.4857 38.6939 45.4195 38.6279 45.3203 38.595C44.7578 38.7928 42.0776 40.5077 41.7136 40.9364C41.5482 41.3321 41.3166 44.6958 41.482 45.4543C41.5813 45.883 41.9783 45.883 42.1107 45.883C42.3092 45.8501 42.5077 45.982 42.5408 46.1798C42.5408 46.1798 42.6401 46.4766 43.1364 46.9053C43.1364 46.9053 43.1695 46.9053 43.1695 46.9383C43.4342 47.1362 45.4526 47.5319 47.1402 47.7957C47.1732 47.7957 50.7468 48.2904 52.1034 47.9936C53.6255 47.6308 59.0521 47.433 61.0374 47.433Z" fill="black"/>
<path d="M42.177 46.5756C42.0116 46.5756 41.8792 46.4767 41.8131 46.3448C41.6476 45.9491 41.8461 42.3875 42.6072 41.3982C42.905 41.0024 43.6329 40.7386 44.2616 40.4748C44.4601 40.4088 44.6918 40.3099 44.791 40.2439C44.9895 40.145 45.1881 40.211 45.2873 40.4088C45.3866 40.6067 45.3204 40.8046 45.1219 40.9035C44.9565 40.9694 44.7579 41.0684 44.5263 41.1673C44.0962 41.3322 43.4013 41.596 43.2028 41.8269C42.6403 42.5853 42.4748 45.6523 42.541 46.081C42.6072 46.2788 42.5079 46.4767 42.3094 46.5427C42.2432 46.5756 42.2101 46.5756 42.177 46.5756Z" fill="black"/>
<path d="M45.7171 48.1586C45.651 48.1586 45.6179 48.1586 45.5517 48.1256L45.3201 48.0267C44.0627 47.4001 43.434 47.1033 43.1362 46.3448C42.8053 45.4544 42.9377 43.6736 43.2024 42.8492C43.4009 42.1896 44.7576 40.178 45.6179 40.3099C45.9488 40.3759 46.2796 40.6067 46.4782 40.9365C46.7429 41.3652 46.776 41.9258 46.5774 42.5194C46.3127 43.2779 45.9488 43.8055 45.7502 44.0694L46.0149 45.2236L48.3973 45.8172L54.9489 42.7503C55.1474 42.6513 55.3459 42.7503 55.4452 42.9151C55.5445 43.113 55.4452 43.3109 55.2798 43.4098L48.5959 46.5427C48.5297 46.5757 48.4304 46.5757 48.3311 46.5757L45.5848 45.9161C45.4524 45.8831 45.3532 45.7842 45.3201 45.6193L44.9561 44.0694C44.923 43.9375 44.9561 43.8385 45.0554 43.7396C45.0554 43.7396 45.5517 43.179 45.8495 42.2886C46.0149 41.7939 45.9157 41.4971 45.8164 41.3322C45.7171 41.1673 45.5848 41.1014 45.5186 41.0684C45.1546 41.1673 44.1289 42.4535 43.9304 43.08C43.6987 43.8715 43.6326 45.4544 43.8642 46.081C44.0296 46.5097 44.4267 46.7406 45.6841 47.3342L45.9157 47.4331C46.1142 47.532 46.1804 47.7629 46.0811 47.9278C46.0149 48.0926 45.8826 48.1586 45.7171 48.1586Z" fill="black"/>
<path d="M46.3131 42.2554C46.1807 42.2554 46.0484 42.1895 45.9822 42.0575C45.8829 41.8927 45.9491 41.6618 46.1145 41.5299C46.2469 41.431 46.3462 41.398 46.4454 41.332C46.5778 41.2331 46.6771 41.1671 46.8756 41.0682C47.041 40.9693 47.2727 41.0352 47.3719 41.2001C47.4712 41.365 47.405 41.5959 47.2396 41.6948C47.041 41.7937 46.9418 41.8597 46.8425 41.9256C46.7432 41.9916 46.644 42.0246 46.5116 42.1235C46.4454 42.2224 46.3793 42.2554 46.3131 42.2554Z" fill="black"/>
<path d="M48.563 44.5969C48.4307 44.5969 46.0814 44.465 45.2872 44.3331C45.0887 44.3001 44.9564 44.1023 44.9894 43.9044C45.0225 43.7065 45.2211 43.5746 45.4196 43.6076C46.0483 43.7065 47.8682 43.8055 48.4307 43.8714C48.9932 43.2778 50.7138 41.563 51.4748 41.2992C51.6733 41.2332 51.8719 41.3321 51.9381 41.53C52.0042 41.7279 51.905 41.9257 51.7064 41.9917C51.2101 42.1566 49.6549 43.6076 48.8277 44.498C48.7615 44.5639 48.6954 44.5969 48.563 44.5969Z" fill="black"/>
<path d="M101.803 38.6607C101.737 38.6607 101.704 38.6607 101.637 38.6278C100.082 37.9023 97.5675 35.1981 97.4352 35.0662L97.4021 35.0332L84.2328 17.2582C83.8027 16.9614 80.9239 14.7519 78.9055 12.6414C78.7732 12.4765 78.7732 12.2456 78.9386 12.1137C79.1041 11.9818 79.3357 11.9818 79.468 12.1467C81.5195 14.3562 84.696 16.6976 84.7291 16.6976C84.7622 16.7306 84.7953 16.7306 84.7953 16.7636L97.9977 34.5715C98.1962 34.8024 100.579 37.2757 101.935 37.9352C102.134 38.0342 102.2 38.232 102.101 38.4299C102.101 38.5948 101.935 38.6607 101.803 38.6607Z" fill="black"/>
<path d="M108.52 38.0012C103.027 38.7267 103.027 38.0342 96.2768 39.4193C89.5268 40.7713 80.0303 44.1351 77.4825 44.1351C74.9347 44.1351 66.2985 44.201 64.4456 44.3989C59.8131 44.9595 53.791 48.5871 53.791 49.1477C53.791 50.0381 55.7102 49.9391 55.7102 49.9391C55.7102 49.9391 55.9087 50.4998 56.8683 50.4998C57.8609 50.4998 59.8131 49.6753 59.8131 49.6753C59.8131 49.6753 59.3499 50.8625 61.2691 50.6976C62.3279 50.5987 66.1 49.3455 66.1 49.3455L68.6478 49.1807C68.6478 49.1807 68.9456 49.1477 71.5927 49.6094C74.2398 50.0711 77.6479 50.2689 78.7399 50.2689C79.8318 50.2689 81.2877 49.5434 81.2877 49.5434C81.2877 49.5434 103.788 48.5211 107.13 48.5211C110.472 48.5211 114.012 47.3669 115.204 46.1137C116.329 44.9265 116.56 43.8053 115.204 40.8043L108.52 38.0012Z" fill="#E4E4E4"/>
<path d="M60.9052 51.0934C60.2765 51.0934 59.8132 50.9285 59.5816 50.5987C59.4824 50.4998 59.4493 50.3679 59.4162 50.2359C58.7213 50.4998 57.5632 50.8625 56.8684 50.8625C56.1404 50.8625 55.7102 50.5657 55.4786 50.3019C55.0485 50.3019 54.1551 50.2359 53.6918 49.8072C53.4933 49.6094 53.394 49.3785 53.394 49.1477C53.394 48.0594 60.1441 44.5308 64.3795 44.0361C66.1993 43.8053 74.6039 43.7393 77.4495 43.7393C78.7399 43.7393 82.0157 42.816 85.8209 41.7277C89.1959 40.7714 93.0011 39.6831 96.1777 39.0565C100.281 38.2321 101.869 38.1661 103.755 38.0672C105.012 38.0012 106.27 37.9353 108.454 37.6385C108.652 37.6055 108.851 37.7704 108.884 37.9683C108.917 38.1661 108.751 38.364 108.553 38.397C106.336 38.6938 104.979 38.7597 103.788 38.8257C101.935 38.9246 100.347 38.9906 96.31 39.815C93.1335 40.4416 89.3614 41.5298 86.0194 42.4862C82.1812 43.5745 78.8392 44.5308 77.4495 44.5308C74.6039 44.5308 66.2324 44.5968 64.4456 44.7946C60.1772 45.2893 54.7176 48.4881 54.122 49.2466C54.122 49.2796 54.1551 49.2796 54.1551 49.3126C54.3867 49.5434 55.1477 49.6094 55.611 49.6094C55.7764 49.6094 55.9419 49.7083 55.975 49.8732C55.975 49.8732 56.1073 50.17 56.7691 50.17C57.497 50.17 59.0522 49.6094 59.5816 49.3785C59.714 49.3126 59.8794 49.3456 59.9787 49.4445C60.0779 49.5434 60.111 49.7083 60.0779 49.8402C60.0779 49.8402 60.0118 50.0381 60.111 50.17C60.1441 50.2359 60.3757 50.4338 61.1368 50.3349C61.9971 50.2689 64.8427 49.3456 65.9015 49.0158C65.9346 49.0158 65.9677 48.9828 66.0008 48.9828L68.5486 48.8179C68.6148 48.8179 69.0781 48.8179 71.5928 49.2466C74.3061 49.7083 77.7142 49.9062 78.6738 49.9062C79.6664 49.9062 81.0561 49.2136 81.0561 49.2136C81.0892 49.1807 81.1554 49.1807 81.2216 49.1807C81.4532 49.1807 103.755 48.1584 107.064 48.1584C110.439 48.1584 113.814 46.9712 114.873 45.8499C115.865 44.7617 116.097 43.8053 114.807 40.9362C113.45 37.9683 93.5306 8.22238 93.2989 7.92558C93.1997 7.76069 93.2328 7.52985 93.3982 7.39793C93.5637 7.299 93.7953 7.33198 93.9276 7.49687C94.7548 8.71704 114.112 37.6055 115.468 40.6065C116.792 43.5085 116.759 44.8936 115.402 46.3446C114.079 47.7296 110.34 48.8839 107.064 48.8839C103.887 48.8839 82.7768 49.8402 81.3209 49.9062C80.99 50.0711 79.6995 50.6317 78.6738 50.6317C77.4826 50.6317 74.0414 50.4008 71.4935 49.9721C69.045 49.5434 68.6479 49.5434 68.6148 49.5434L66.1332 49.7083C65.6699 49.8732 62.2949 50.9615 61.236 51.0604C61.1368 51.0934 61.0044 51.0934 60.9052 51.0934Z" fill="black"/>
<path d="M55.6771 50.3019C55.5778 50.3019 55.4785 50.2689 55.4124 50.203C55.28 50.104 55.2469 49.9391 55.28 49.7413C55.5116 48.9498 59.5484 46.2456 65.1073 45.0255C65.3059 44.9925 65.5044 45.0914 65.5706 45.3223C65.6037 45.5201 65.5044 45.718 65.2728 45.784C60.0448 46.9382 56.5043 49.3455 56.041 49.9391C56.041 50.0381 56.008 50.137 55.9418 50.203C55.8756 50.2689 55.7763 50.3019 55.6771 50.3019Z" fill="black"/>
<path d="M59.7801 50.071C59.6808 50.071 59.5816 50.038 59.5154 49.9391C59.383 49.7742 59.383 49.5434 59.5485 49.4115C59.9786 49.0157 63.089 46.9711 67.8537 46.6743C68.0523 46.6743 68.2508 46.8062 68.2508 47.0371C68.2508 47.2349 68.1184 47.4328 67.8868 47.4328C63.4199 47.7296 60.4088 49.6423 60.0448 49.9721C59.9786 50.038 59.8794 50.071 59.7801 50.071Z" fill="black"/>
<path d="M261.323 38.9247C257.385 38.9247 245.639 37.7375 244.15 37.3417C235.679 35.0993 219.962 34.2089 212.617 35.0003C212.153 35.0333 208.282 34.4727 200.208 33.2525C185.848 31.109 164.142 27.8442 157.822 27.8442C157.623 27.8442 157.458 27.6793 157.458 27.4814C157.458 27.2835 157.623 27.1187 157.822 27.1187C164.208 27.1187 185.947 30.3834 200.308 32.527C206.495 33.4504 211.855 34.2748 212.484 34.2748H212.517C220.061 33.4504 235.613 34.3078 244.315 36.6162C246.069 37.0779 260.992 38.463 262.216 38.1002C262.415 38.0343 262.613 38.1662 262.68 38.364C262.746 38.5619 262.613 38.7598 262.415 38.8257C262.283 38.8917 261.885 38.9247 261.323 38.9247Z" fill="black"/>
<path d="M44.692 15.4115C43.8979 16.0051 44.3611 16.6316 44.7251 17.0603C42.9714 16.9944 42.078 16.9614 40.8537 16.9614C35.1294 16.9614 30.4639 21.5783 30.4639 27.4813C30.4639 33.3843 35.1294 38.0012 40.8537 38.0012C42.078 38.0012 42.9714 38.0012 44.7251 37.9022C44.3611 38.3639 43.8979 38.9575 44.692 39.5511C45.6846 40.2766 51.409 39.6171 52.2362 37.6384C52.2693 37.5725 52.3024 37.4735 52.3355 37.3416C52.9642 37.1767 54.0561 36.781 54.5855 36.5502C57.2657 35.4619 61.501 32.395 61.501 27.4813C61.501 22.6006 57.2657 19.5337 54.5855 18.4124C54.0561 18.1816 52.9311 17.7859 52.3355 17.621C52.3024 17.4891 52.2693 17.3901 52.2362 17.3242C51.3759 15.3455 45.6516 14.686 44.692 15.4115Z" fill="#E4E4E4"/>
<path d="M46.2801 40.2107C45.4859 40.2107 44.7911 40.1118 44.4602 39.848C44.1293 39.5842 43.9308 39.2874 43.8977 38.9576C43.8646 38.7267 43.9308 38.4959 44.03 38.298C42.7396 38.364 41.9785 38.364 40.8866 38.364C34.8645 38.364 30.1328 33.5822 30.1328 27.4814C30.1328 21.3805 34.8645 16.5987 40.8866 16.5987C41.9785 16.5987 42.7727 16.5987 44.03 16.6647C43.9308 16.4668 43.8977 16.236 43.8977 16.0051C43.9308 15.6753 44.1293 15.3785 44.4602 15.1147C45.2212 14.5541 47.6367 14.719 49.4566 15.1807C50.6478 15.5105 52.1368 16.1041 52.6 17.1923C52.6331 17.2583 52.6331 17.2912 52.6662 17.3572C53.328 17.5551 54.2544 17.9178 54.7508 18.1157C58.0596 19.4678 61.8979 22.7326 61.8979 27.5143C61.8979 32.2961 58.0596 35.5609 54.7508 36.913C54.2544 37.1108 53.2949 37.4736 52.6662 37.6715C52.6662 37.7374 52.6331 37.7704 52.6 37.8363C52.1368 38.9246 50.6478 39.5182 49.4566 39.848C48.4308 40.0459 47.2727 40.2107 46.2801 40.2107ZM44.7249 37.5396C44.8573 37.5396 44.9896 37.6055 45.0558 37.7374C45.122 37.8693 45.0889 38.0342 45.0227 38.1332C44.8242 38.364 44.6256 38.6608 44.6256 38.8587C44.6256 38.9906 44.7249 39.1225 44.8904 39.2214C45.2874 39.5182 47.2727 39.5512 49.225 39.0235C50.6478 38.6278 51.6073 38.0672 51.8721 37.4406C51.8721 37.4076 51.9382 37.3087 51.9382 37.2098C51.9713 37.0779 52.0706 36.946 52.2029 36.913C52.7985 36.7481 53.8905 36.3524 54.4199 36.1215C56.9015 35.0992 61.1038 32.1312 61.1038 27.4154C61.1038 22.6996 56.9346 19.7976 54.453 18.7752C53.9236 18.5444 52.8316 18.1487 52.236 17.9838C52.1037 17.9508 52.0044 17.8189 51.9713 17.687C51.9382 17.588 51.9051 17.4891 51.9051 17.4561C51.6404 16.8296 50.6809 16.2689 49.2581 15.8732C47.3058 15.3456 45.3205 15.3785 44.9234 15.6753C44.758 15.8073 44.6587 15.9392 44.6587 16.0381C44.6256 16.2689 44.8242 16.5328 45.0558 16.7636C45.1551 16.8625 45.1551 17.0274 45.0889 17.1593C45.0227 17.2912 44.8904 17.3572 44.7249 17.3572C43.0043 17.2912 42.144 17.2583 40.8535 17.2583C35.2285 17.2583 30.8277 21.7103 30.8277 27.4154C30.8277 33.1205 35.2285 37.5725 40.8535 37.5725C42.1109 37.6385 42.9712 37.6055 44.7249 37.5396Z" fill="black"/>
<path d="M52.3352 18.0169H52.3021C49.9197 17.753 47.7028 17.4892 44.7248 17.4562C44.5263 17.4562 44.3608 17.2914 44.3608 17.0605C44.3608 16.8626 44.5263 16.6978 44.7248 16.6978C47.7359 16.7637 49.9859 16.9946 52.3683 17.2914C52.5668 17.3243 52.7323 17.4892 52.6992 17.7201C52.6661 17.8849 52.5007 18.0169 52.3352 18.0169Z" fill="black"/>
<path d="M44.7248 38.2979C44.5263 38.2979 44.3608 38.1331 44.3608 37.9352C44.3608 37.7373 44.5263 37.5724 44.7248 37.5395C47.7028 37.4735 49.9197 37.2427 52.3021 36.9788C52.5007 36.9459 52.6992 37.1107 52.7323 37.3086C52.7654 37.5065 52.5999 37.7043 52.4014 37.7373C49.9859 37.9682 47.7359 38.232 44.7248 38.2979Z" fill="black"/>
</g>
<defs>
<clipPath id="clip0_139_792">
<rect width="296" height="68.6962" fill="white"/>
</clipPath>
</defs>
</svg>
