<svg width="202" height="72" viewBox="0 0 202 72" fill="none" xmlns="http://www.w3.org/2000/svg">
    <path
        d="M197.427 39.9999H4.57264C2.60543 39.9999 1 38.619 1 36.9269V26.0933C1 24.4012 2.60543 23.0203 4.57264 23.0203H197.427C199.395 23.0203 201 24.4012 201 26.0933V36.9269C201 38.619 199.395 39.9999 197.427 39.9999Z"
        fill="#DBE5F5" stroke="black" stroke-miterlimit="10" />
    <path d="M16.8055 23.0203V39.9999" stroke="black" stroke-miterlimit="10" />
    <path d="M31.3224 23.0203V39.9999" stroke="black" stroke-miterlimit="10" />
    <path d="M49.5924 27.9606V40" stroke="black" stroke-miterlimit="10" />
    <path d="M66.5963 27.9606V40" stroke="black" stroke-miterlimit="10" />
    <path d="M84.5048 27.202V40" stroke="black" stroke-miterlimit="10" />
    <path d="M100.989 29.3998V39.9999" stroke="black" stroke-miterlimit="10" />
    <path d="M121.113 26.6185V39.9999" stroke="black" stroke-miterlimit="10" />
    <path d="M143.476 26.1907V40" stroke="black" stroke-miterlimit="10" />
    <path d="M166.63 25.2959V39.9999" stroke="black" stroke-miterlimit="10" />
    <path d="M187.252 26.1907V40" stroke="black" stroke-miterlimit="10" />
    <path
        d="M46.766 22.359C46.766 21.9116 46.5625 21.5615 46.4042 21.1725C45.952 20.2778 45.0023 19.2275 42.1306 18.7024C40.887 18.469 37.7665 18.2162 36.0255 18.1578C33.4251 18.08 28.247 18.08 25.6467 18.1578C23.9056 18.2162 20.8078 18.469 19.5416 18.7024C16.6925 19.2275 15.7428 20.2584 15.268 21.1725C15.1097 21.581 14.9062 21.9311 14.9062 22.359C14.9062 22.359 14.4992 24.8291 17.7552 24.8291H17.9135H43.6908H43.8491C47.173 24.8291 46.766 22.359 46.766 22.359Z"
        fill="#EAEAEA" stroke="black" stroke-miterlimit="10" />
    <path
        d="M191.594 21.1142C191.526 20.0639 189.92 19.3054 184.403 19.4415C184.403 19.4415 177.981 19.2276 177.574 19.1887C177.145 19.1109 170.655 18.5857 170.158 18.4496L168.756 18.0217C164.12 16.5629 157.631 13.7233 153.719 13.1398C148.609 12.4007 143.227 12.7702 143.227 12.7702C143.227 12.7702 130.18 6.60464 120.548 4.50406C115.912 3.49267 112.995 2.98698 101.464 2.98698C91.424 2.98698 88.4393 4.73746 85.5676 4.73746C79.8468 4.73746 68.7445 2.24789 62.5941 1.80054C49.9995 -3.3731 50.0221 5.59325 49.2533 7.96613C48.8689 9.15256 48.0775 11.2726 44.8214 12.0117C44.0526 12.1867 39.8921 11.9533 38.4675 12.0895V19.7138L47.1956 20.6668C48.5523 21.4448 49.0046 22.4562 49.2759 23.2731C50.0447 25.646 50.4743 29.0497 59.0441 28.4079C65.1945 27.9411 79.8694 27.0658 85.5902 27.0658C88.4393 27.0658 91.4466 28.544 101.486 28.8163C104.652 28.8941 105.85 29.0108 109.966 28.8941C121.43 28.5635 138.321 27.7271 141.893 27.5521C143.521 27.6882 149.762 28.2328 152.046 28.2328C157.337 28.2717 171.627 27.1242 175.63 26.7935C176.172 26.7546 176.738 26.7741 177.258 26.8713C177.416 26.9102 177.642 26.9297 177.891 26.9686C178.117 26.988 178.886 26.9102 179.157 26.9297C182.504 27.2798 188.044 27.9216 188.111 27.9216C195.098 28.5051 195.098 27.4548 195.958 25.8405C196.636 24.479 200.525 19.9472 191.594 21.1142Z"
        fill="white" />
    <path
        d="M106.868 29.1469C105.579 29.1469 104.584 29.108 103.385 29.0691C102.798 29.0497 102.164 29.0302 101.441 29.0108C95.0644 28.8357 91.4239 28.1745 89.0271 27.7271C87.6025 27.4548 86.5624 27.2603 85.5449 27.2603C79.9824 27.2603 65.5336 28.1356 59.0214 28.6024C50.8134 29.2053 49.8411 26.0739 49.1175 23.7983C49.0723 23.6427 49.0271 23.4676 48.9592 23.312C48.6879 22.4951 48.2583 21.581 47.0373 20.8419L38.377 19.9083C38.2413 19.8888 38.1509 19.7916 38.1509 19.6943V12.07C38.1509 11.9533 38.2413 11.8561 38.377 11.8561C39.078 11.7977 40.3668 11.8172 41.6331 11.8366C42.9672 11.8561 44.3239 11.8755 44.7083 11.7977C47.9191 11.0781 48.6201 8.93861 48.9592 7.90777C49.0497 7.61602 49.1401 7.24648 49.2306 6.77968C49.6602 4.7958 50.2933 1.78109 53.1424 0.536299C55.3583 -0.43619 58.5692 -0.0860939 62.6393 1.58659C65.3075 1.78109 68.8123 2.34513 72.5432 2.94807C77.3595 3.72607 82.334 4.52351 85.5449 4.52351C86.5172 4.52351 87.5347 4.30956 88.801 4.03726C91.2204 3.53157 94.8609 2.77303 101.418 2.77303C113.041 2.77303 115.98 3.29817 120.57 4.29011C129.773 6.29344 142.21 12.07 143.25 12.5563C143.928 12.5174 148.971 12.2451 153.742 12.9453C156.342 13.3343 160.028 14.6763 163.6 15.9989C165.477 16.6796 167.241 17.3409 168.824 17.8466L170.226 18.2551C170.497 18.3329 173.278 18.5857 175.11 18.7413C176.579 18.8775 177.416 18.9553 177.597 18.9747C177.891 18.9942 182.164 19.1498 184.38 19.2276C189.129 19.1303 191.435 19.636 191.774 20.8808C194.759 20.5112 196.545 20.7641 197.269 21.6393C198.128 22.7091 197.111 24.3234 196.455 25.3931C196.319 25.6071 196.206 25.8016 196.116 25.9377C196.048 26.0544 196.003 26.1517 195.958 26.2684C195.144 27.8633 194.42 28.6802 188.021 28.155C187.998 28.155 187.772 28.1356 187.388 28.0772C185.85 27.9022 181.757 27.4354 179.067 27.1436C178.954 27.1242 178.682 27.1436 178.456 27.1631C178.185 27.1825 177.959 27.1825 177.823 27.1825C177.574 27.1631 177.348 27.1242 177.167 27.0853C176.67 26.988 176.15 26.9686 175.607 27.0075C171.401 27.3576 157.269 28.5051 152.001 28.4468C149.739 28.4273 143.679 27.9216 141.848 27.766C138.479 27.9411 121.43 28.7774 109.943 29.108C108.699 29.1275 107.704 29.1469 106.868 29.1469ZM85.5675 26.813C86.6302 26.813 87.693 27.0075 89.1401 27.2798C91.6726 27.7466 95.1096 28.3884 101.463 28.5635C102.21 28.5829 102.82 28.6024 103.408 28.6218C105.353 28.6802 106.777 28.7385 109.92 28.6413C121.43 28.3106 138.524 27.4743 141.848 27.2992C141.871 27.2992 141.87 27.2992 141.893 27.2992C143.702 27.4548 149.762 27.9605 152.023 27.98C157.269 28.0189 171.379 26.8908 175.584 26.5407C176.172 26.4823 176.76 26.5212 177.303 26.6185C177.484 26.6574 177.687 26.6768 177.913 26.6963C178.004 26.6963 178.253 26.6963 178.456 26.6768C178.75 26.6574 179.021 26.6379 179.18 26.6574C181.871 26.9491 185.963 27.4159 187.501 27.591C187.863 27.6299 188.089 27.6493 188.111 27.6688C194.42 28.1939 194.85 27.3965 195.528 26.0544C195.573 25.9572 195.641 25.8405 195.709 25.7238C195.799 25.5682 195.912 25.3737 196.048 25.1403C196.613 24.2261 197.586 22.6896 196.907 21.8533C196.297 21.1142 194.533 20.9391 191.661 21.3087C191.594 21.3087 191.526 21.3087 191.458 21.2698C191.413 21.2309 191.367 21.1725 191.367 21.1142C191.3 20.025 189.038 19.5387 184.448 19.636C184.177 19.636 177.981 19.422 177.597 19.3831C177.416 19.3637 176.308 19.247 175.132 19.1498C172.487 18.9164 170.429 18.7219 170.135 18.6441L168.711 18.2162C167.105 17.7105 165.341 17.0492 163.465 16.3684C159.915 15.0653 156.252 13.7233 153.719 13.3537C148.699 12.6146 143.34 12.9842 143.272 12.9842C143.227 12.9842 143.182 12.9842 143.137 12.9647C143.001 12.9064 130.022 6.77968 120.525 4.71801C115.98 3.72607 113.063 3.20092 101.509 3.20092C94.9966 3.20092 91.537 3.92056 89.0045 4.46516C87.693 4.73746 86.6529 4.9514 85.6127 4.9514C82.334 4.9514 77.3369 4.15396 72.5206 3.37597C68.7897 2.77303 65.2622 2.20898 62.6167 2.01448C62.5941 2.01448 62.5488 2.01448 62.5262 1.99503C58.5918 0.380701 55.5166 0.0111551 53.4363 0.925295C50.836 2.07283 50.2029 4.9514 49.7959 6.85748C49.7054 7.32428 49.615 7.71327 49.5245 8.02447C49.1628 9.13311 48.4166 11.4282 44.9118 12.2256C44.4595 12.3229 43.1933 12.3034 41.7009 12.284C40.5929 12.2645 39.4397 12.2451 38.7388 12.284V19.4998L47.2408 20.4334C47.286 20.4334 47.3086 20.4529 47.3538 20.4723C48.7557 21.2892 49.2306 22.3006 49.5245 23.2148C49.5698 23.3704 49.6376 23.526 49.6828 23.701C50.3838 25.9572 51.243 28.758 59.044 28.1939C65.5336 27.6882 80.005 26.813 85.5675 26.813Z"
        fill="black" />
    <path
        d="M51.9665 14.3846C51.8761 14.3846 51.7856 14.3457 51.7404 14.2679C50.9942 13.0037 51.2203 8.1412 51.2429 7.94671C51.2429 7.83001 51.3786 7.73276 51.5143 7.73276C51.65 7.73276 51.763 7.84946 51.763 7.96616C51.6952 9.34709 51.65 13.1009 52.2152 14.0734C52.2831 14.1901 52.2379 14.3068 52.1022 14.3651C52.057 14.3846 52.0117 14.3846 51.9665 14.3846Z"
        fill="black" />
    <path
        d="M50.6778 26.3073C50.5195 26.2878 50.4064 26.1906 50.429 26.0739C50.4516 25.8405 50.9943 20.414 51.7405 19.1498C51.8083 19.0331 51.9666 18.9942 52.0797 19.0525C52.2153 19.1109 52.2606 19.247 52.1927 19.3443C51.4918 20.5112 50.9491 26.035 50.9265 26.0933C50.9265 26.2295 50.8134 26.3073 50.6778 26.3073Z"
        fill="black" />
    <path
        d="M178.253 22.5924C178.14 22.5924 178.049 22.534 178.004 22.4368C177.959 22.3201 178.049 22.2034 178.185 22.1645C179.496 21.8338 182.097 21.3087 184.607 21.5226C185.579 21.6004 186.574 21.5421 187.501 21.3281C189.445 20.8808 191.435 20.9002 191.639 20.9197C191.774 20.9391 191.887 21.0364 191.865 21.1531C191.842 21.2698 191.729 21.367 191.594 21.3476C191.413 21.3281 189.513 21.3087 187.637 21.7366C186.642 21.97 185.601 22.0283 184.561 21.9505C182.142 21.756 179.609 22.2617 178.343 22.5924C178.298 22.5924 178.275 22.5924 178.253 22.5924Z"
        fill="black" />
    <path
        d="M67.9757 23.9928C64.6292 23.2343 63.2499 22.748 58.3206 23.4288C53.3912 24.1095 43.6004 24.907 42.3567 24.6541C41.1357 24.4013 39.5981 23.3704 38.1736 23.3704C36.7264 23.3704 34.9175 23.6427 34.0583 24.0123C33.8095 24.0123 31.6614 24.1873 31.1188 24.129C31.684 23.7983 31.6614 23.2537 31.2544 23.0009C31.0057 22.8453 30.3274 23.351 29.7168 23.6038C30.4178 23.137 30.5309 22.3396 29.943 22.2034C29.7621 22.1645 27.5687 23.351 27.2522 23.6816C27.0713 23.8761 26.913 26.035 27.0487 26.5213C27.1843 27.0075 27.7496 26.9297 27.7496 26.9297C27.7496 26.9297 27.7948 27.1631 28.2471 27.4938C28.4958 27.7077 31.0961 28.0578 31.0961 28.0578C31.0961 28.0578 33.606 28.369 34.601 28.1745C35.5959 27.9995 39.2363 27.8633 40.6609 27.8633C42.0854 27.8633 42.2889 28.3301 43.6682 28.5441C45.0475 28.758 57.7327 29.5166 60.3782 29.5166C63.0238 29.5166 67.8174 27.6883 68.7671 26.8519C69.7394 26.035 68.7445 24.1679 67.9757 23.9928Z"
        fill="white" />
    <path
        d="M60.3782 29.7304C57.8231 29.7304 45.1606 28.9913 43.623 28.7579C43.0125 28.6607 42.6055 28.5246 42.2437 28.3884C41.7914 28.2328 41.407 28.0772 40.6382 28.0772C39.1459 28.0772 35.5732 28.2134 34.6462 28.3884C33.6286 28.5829 31.164 28.2717 31.0509 28.2717C30.056 28.1356 28.3827 27.8827 28.0662 27.6493C27.7722 27.4548 27.6366 27.2603 27.5687 27.1436C27.2748 27.1242 26.913 26.988 26.7999 26.5601C26.6642 26.0933 26.7773 23.8177 27.0486 23.526C27.2522 23.2926 29.6038 21.8727 30.0108 21.97C30.3047 22.0283 30.4856 22.2228 30.5535 22.4757C30.5761 22.6118 30.5761 22.748 30.5308 22.9036C30.87 22.7285 31.164 22.6313 31.4127 22.7869C31.684 22.9425 31.8197 23.1953 31.8197 23.4676C31.8197 23.6038 31.7745 23.7399 31.7066 23.8566C32.2267 23.8372 32.9503 23.7983 33.4477 23.7594C33.7417 23.7399 33.9226 23.7205 34.0356 23.7205C34.9401 23.3704 36.749 23.0786 38.2188 23.0786C39.1459 23.0786 40.0503 23.4676 40.9322 23.8372C41.4749 24.0706 41.9949 24.2845 42.4472 24.3817C43.6004 24.6151 53.4138 23.8177 58.2979 23.1564C62.8655 22.534 64.4031 22.9036 67.2295 23.5454C67.5009 23.6038 67.7722 23.6621 68.0662 23.7399C68.6315 23.8761 69.1289 24.5762 69.3324 25.2181C69.5585 25.9377 69.4229 26.5796 68.9706 26.988C67.9531 27.8633 63.069 29.7304 60.3782 29.7304ZM40.6609 27.6493C41.5201 27.6493 41.9723 27.8049 42.4472 27.98C42.7864 28.0967 43.1481 28.2328 43.7134 28.3301C45.0023 28.5245 57.6874 29.3025 60.3782 29.3025C62.9107 29.3025 67.6592 27.4937 68.5862 26.6963C69.0611 26.2878 68.9028 25.6265 68.8124 25.3542C68.6088 24.7318 68.1792 24.2651 67.9079 24.1873C67.6139 24.1289 67.3426 24.0511 67.0713 23.9928C64.3126 23.3704 62.7977 23.0203 58.3658 23.6232C53.7304 24.2456 43.6682 25.1208 42.3115 24.8291C41.7914 24.7318 41.2488 24.4984 40.6835 24.2651C39.8468 23.915 38.9876 23.5649 38.1736 23.5649C36.749 23.5649 34.9853 23.8372 34.1713 24.1873C34.1261 24.2067 34.1035 24.2067 34.0583 24.2067C33.9904 24.2067 33.7417 24.2262 33.4704 24.2456C32.4754 24.3039 31.4805 24.3623 31.0961 24.3234C30.9831 24.304 30.9152 24.2456 30.87 24.1484C30.8474 24.0511 30.8926 23.9733 30.9831 23.915C31.1866 23.7983 31.2996 23.6427 31.2996 23.4871C31.2996 23.3704 31.2318 23.2537 31.1187 23.1759C31.0057 23.1953 30.6891 23.3509 30.4856 23.4676C30.2821 23.5843 30.0334 23.701 29.8073 23.7983C29.6942 23.8372 29.5585 23.8177 29.4907 23.7205C29.4229 23.6232 29.4455 23.5065 29.5585 23.4287C29.9429 23.1759 30.1012 22.8063 30.056 22.5924C30.0334 22.4951 29.9882 22.4562 29.9203 22.4368C29.5359 22.5535 27.7044 23.5649 27.4557 23.8177C27.3426 24.0511 27.1843 26.035 27.2974 26.4823C27.3652 26.7352 27.6366 26.7352 27.727 26.7352C27.8627 26.7157 27.9983 26.7935 28.0209 26.9102C28.0209 26.9102 28.0888 27.0853 28.428 27.3381C28.428 27.3381 28.4506 27.3381 28.4506 27.3576C28.6315 27.4743 30.0108 27.7077 31.164 27.8633C31.1866 27.8633 33.6286 28.155 34.5557 27.98C35.5958 27.766 39.3042 27.6493 40.6609 27.6493Z"
        fill="black" />
    <path
        d="M27.7723 27.1437C27.6592 27.1437 27.5688 27.0853 27.5235 27.0075C27.4105 26.7741 27.5461 24.6736 28.0662 24.0901C28.2697 23.8567 28.7672 23.7011 29.1968 23.5455C29.3325 23.5066 29.4907 23.4482 29.5586 23.4093C29.6943 23.351 29.8299 23.3899 29.8978 23.5066C29.9656 23.6233 29.9204 23.74 29.7847 23.7983C29.6716 23.8372 29.536 23.8956 29.3777 23.9539C29.0837 24.0512 28.6089 24.2068 28.4732 24.3429C28.0888 24.7903 27.9758 26.5991 28.021 26.8519C28.0662 26.9686 27.9984 27.0853 27.8627 27.1242C27.8175 27.1437 27.7949 27.1437 27.7723 27.1437Z"
        fill="black" />
    <path
        d="M30.1914 28.0773C30.1462 28.0773 30.1236 28.0773 30.0784 28.0578L29.9201 27.9995C29.0608 27.6299 28.6312 27.4549 28.4277 27.0075C28.2016 26.4824 28.292 25.4321 28.4729 24.9459C28.6086 24.5569 29.5357 23.3704 30.1236 23.4482C30.3497 23.4871 30.5758 23.6233 30.7115 23.8178C30.8924 24.0706 30.915 24.4013 30.7793 24.7514C30.5984 25.1987 30.3497 25.5099 30.214 25.6655L30.3949 26.3463L32.023 26.6963L36.5001 24.8875C36.6357 24.8292 36.7714 24.8875 36.8393 24.9848C36.9071 25.1015 36.8393 25.2182 36.7262 25.2765L32.1586 27.1242C32.1134 27.1437 32.0456 27.1437 31.9777 27.1437L30.101 26.7547C30.0105 26.7352 29.9427 26.6769 29.9201 26.5796L29.6714 25.6655C29.6487 25.5877 29.6714 25.5294 29.7392 25.471C29.7392 25.471 30.0784 25.1404 30.2819 24.6152C30.3949 24.3235 30.3271 24.1484 30.2593 24.0512C30.1914 23.9539 30.101 23.915 30.0558 23.8956C29.807 23.9539 29.1061 24.7125 28.9704 25.082C28.8121 25.5488 28.7669 26.4824 28.9252 26.8519C29.0382 27.1048 29.3096 27.2409 30.1688 27.591L30.3271 27.6494C30.4628 27.7077 30.508 27.8439 30.4402 27.9411C30.3949 28.0384 30.3045 28.0773 30.1914 28.0773Z"
        fill="black" />
    <path
        d="M30.5987 24.5957C30.5082 24.5957 30.4178 24.5568 30.3726 24.479C30.3047 24.3817 30.35 24.2456 30.463 24.1678C30.5535 24.1094 30.6213 24.09 30.6891 24.0511C30.7796 23.9927 30.8474 23.9538 30.9831 23.8955C31.0961 23.8371 31.2544 23.876 31.3223 23.9733C31.3901 24.0705 31.3449 24.2067 31.2318 24.265C31.0961 24.3234 31.0283 24.3623 30.9605 24.4012C30.8926 24.4401 30.8248 24.4595 30.7344 24.5179C30.6891 24.5762 30.6439 24.5957 30.5987 24.5957Z"
        fill="black" />
    <path
        d="M32.1362 25.9766C32.0457 25.9766 30.4403 25.8988 29.8976 25.821C29.762 25.8016 29.6715 25.6849 29.6941 25.5682C29.7167 25.4515 29.8524 25.3737 29.9881 25.3931C30.4177 25.4515 31.6613 25.5098 32.0457 25.5487C32.4301 25.1986 33.606 24.1873 34.126 24.0317C34.2617 23.9928 34.3974 24.0511 34.4426 24.1678C34.4878 24.2845 34.42 24.4012 34.2843 24.4401C33.9451 24.5373 32.8824 25.3931 32.3171 25.9183C32.2719 25.9572 32.2266 25.9766 32.1362 25.9766Z"
        fill="black" />
    <path
        d="M68.5185 22.4757C68.4733 22.4757 68.4507 22.4757 68.4055 22.4562C67.3427 22.0283 65.6242 20.4334 65.5338 20.3556L65.5112 20.3362L56.5118 9.85274C56.2178 9.67769 54.2506 8.37456 52.8713 7.12977C52.7808 7.03252 52.7808 6.89637 52.8939 6.81857C53.0069 6.74077 53.1652 6.74077 53.2557 6.83802C54.6576 8.14116 56.8283 9.52209 56.8509 9.52209C56.8735 9.54154 56.8961 9.54154 56.8961 9.56099L65.9182 20.0639C66.0539 20.2 67.6819 21.6588 68.609 22.0478C68.7447 22.1061 68.7899 22.2228 68.722 22.3395C68.722 22.4368 68.609 22.4757 68.5185 22.4757Z"
        fill="black" />
    <path
        d="M73.1085 22.0867C69.355 22.5146 69.355 22.1061 64.7422 22.923C60.1294 23.7205 53.6399 25.7043 51.8988 25.7043C50.1577 25.7043 44.2561 25.7432 42.9898 25.8599C39.8242 26.1906 35.7089 28.3301 35.7089 28.6607C35.7089 29.1859 37.0203 29.1275 37.0203 29.1275C37.0203 29.1275 37.156 29.4582 37.8117 29.4582C38.4901 29.4582 39.8242 28.9719 39.8242 28.9719C39.8242 28.9719 39.5076 29.6721 40.8191 29.5749C41.5427 29.5165 44.1204 28.7774 44.1204 28.7774L45.8615 28.6802C45.8615 28.6802 46.065 28.6607 47.8739 28.933C49.6829 29.2053 52.0119 29.322 52.758 29.322C53.5042 29.322 54.4991 28.8941 54.4991 28.8941C54.4991 28.8941 69.8751 28.2912 72.1588 28.2912C74.4426 28.2912 76.8621 27.6104 77.6761 26.8713C78.4449 26.1711 78.6032 25.5098 77.6761 23.7399L73.1085 22.0867Z"
        fill="white" />
    <path
        d="M40.5703 29.8083C40.1407 29.8083 39.8242 29.711 39.6659 29.5165C39.598 29.4582 39.5754 29.3804 39.5528 29.3026C39.078 29.4582 38.2866 29.6721 37.8117 29.6721C37.3143 29.6721 37.0203 29.4971 36.862 29.3415C36.5681 29.3415 35.9576 29.3026 35.641 29.0497C35.5053 28.933 35.4375 28.7969 35.4375 28.6607C35.4375 28.0189 40.0503 25.9377 42.9446 25.646C44.1882 25.5098 49.9316 25.4709 51.8762 25.4709C52.758 25.4709 54.9966 24.9264 57.5969 24.2845C59.9033 23.7205 62.5036 23.0786 64.6743 22.7091C67.4782 22.2228 68.5635 22.1839 69.8524 22.1256C70.7117 22.0867 71.5709 22.0478 73.0633 21.8727C73.1989 21.8533 73.3346 21.9505 73.3572 22.0672C73.3798 22.1839 73.2668 22.3006 73.1311 22.3201C71.6161 22.4951 70.689 22.534 69.875 22.5729C68.6088 22.6313 67.5234 22.6702 64.7648 23.1564C62.5941 23.526 60.0163 24.1678 57.7326 24.7319C55.1096 25.3737 52.8258 25.9377 51.8762 25.9377C49.9316 25.9377 44.2108 25.9766 42.9898 26.0933C40.0729 26.3851 36.342 28.2717 35.935 28.7191C35.935 28.7385 35.9576 28.7385 35.9576 28.758C36.1158 28.8941 36.6359 28.933 36.9525 28.933C37.0655 28.933 37.1786 28.9914 37.2012 29.0886C37.2012 29.0886 37.2917 29.2637 37.7439 29.2637C38.2413 29.2637 39.3041 28.933 39.6659 28.7969C39.7563 28.758 39.8694 28.7774 39.9372 28.8358C40.005 28.8941 40.0277 28.9914 40.0051 29.0692C40.0051 29.0692 39.9598 29.1859 40.0277 29.2637C40.0503 29.3026 40.2086 29.4193 40.7286 29.3609C41.3165 29.322 43.2611 28.7774 43.9847 28.5829C44.0073 28.5829 44.0299 28.5635 44.0525 28.5635L45.7936 28.4662C45.8389 28.4662 46.1554 28.4662 47.8739 28.7191C49.7281 28.9914 52.0571 29.1081 52.7128 29.1081C53.3911 29.1081 54.3408 28.6996 54.3408 28.6996C54.3634 28.6802 54.4087 28.6802 54.4539 28.6802C54.6122 28.6802 69.8524 28.0772 72.1136 28.0772C74.42 28.0772 76.7264 27.377 77.4499 26.7157C78.1283 26.0739 78.2866 25.5098 77.4047 23.8177C76.4776 22.0672 62.8654 4.52352 62.7071 4.34847C62.6393 4.25122 62.6619 4.11508 62.775 4.03728C62.888 3.97893 63.0463 3.99838 63.1368 4.09563C63.702 4.81527 76.9299 21.8533 77.8569 23.6232C78.7614 25.3348 78.7388 26.1517 77.8117 27.0075C76.9072 27.8244 74.3521 28.5051 72.1136 28.5051C69.9429 28.5051 55.5166 29.0692 54.5217 29.1081C54.2956 29.2053 53.4138 29.536 52.7128 29.536C51.8988 29.536 49.5472 29.3998 47.8061 29.147C46.1328 28.8941 45.8615 28.8941 45.8389 28.8941L44.143 28.9914C43.8264 29.0886 41.52 29.7305 40.7965 29.7888C40.7286 29.8083 40.6382 29.8083 40.5703 29.8083Z"
        fill="black" />
    <path
        d="M36.9976 29.3415C36.9298 29.3415 36.862 29.322 36.8167 29.2831C36.7263 29.2248 36.7037 29.1275 36.7263 29.0108C36.8846 28.544 39.6432 26.9491 43.442 26.2295C43.5776 26.21 43.7133 26.2684 43.7585 26.4045C43.7811 26.5212 43.7133 26.6379 43.555 26.6768C39.9824 27.3576 37.5629 28.7774 37.2464 29.1275C37.2464 29.1859 37.2238 29.2442 37.1785 29.2831C37.1333 29.322 37.0655 29.3415 36.9976 29.3415Z"
        fill="black" />
    <path
        d="M39.8014 29.2053C39.7336 29.2053 39.6658 29.1859 39.6205 29.1275C39.5301 29.0303 39.5301 28.8941 39.6432 28.8163C39.9371 28.5829 42.0626 27.377 45.3187 27.202C45.4543 27.202 45.59 27.2798 45.59 27.4159C45.59 27.5326 45.4996 27.6493 45.3413 27.6493C42.2887 27.8244 40.2311 28.9525 39.9823 29.147C39.9371 29.1859 39.8693 29.2053 39.8014 29.2053Z"
        fill="black" />
    <path
        d="M177.529 22.6313C174.838 22.6313 166.811 21.9311 165.794 21.6977C160.005 20.3751 149.265 19.8499 144.245 20.3167C143.928 20.3362 141.283 20.0055 135.765 19.2859C125.952 18.0217 111.119 16.0961 106.8 16.0961C106.664 16.0961 106.551 15.9989 106.551 15.8822C106.551 15.7655 106.664 15.6682 106.8 15.6682C111.164 15.6682 126.02 17.5938 135.833 18.858C140.062 19.4026 143.725 19.8888 144.154 19.8888H144.177C149.332 19.4026 159.96 19.9083 165.907 21.2698C167.105 21.5421 177.303 22.359 178.14 22.145C178.275 22.1061 178.411 22.1839 178.456 22.3006C178.501 22.4173 178.411 22.534 178.275 22.5729C178.185 22.6118 177.914 22.6313 177.529 22.6313Z"
        fill="black" />
    <path
        d="M29.4908 8.76347C28.9481 9.11357 29.2647 9.48312 29.5134 9.73596C28.315 9.69706 27.7045 9.67761 26.8679 9.67761C22.9561 9.67761 19.7678 12.4006 19.7678 15.8821C19.7678 19.3636 22.9561 22.0866 26.8679 22.0866C27.7045 22.0866 28.315 22.0866 29.5134 22.0282C29.2647 22.3005 28.9481 22.6506 29.4908 23.0007C30.1692 23.4286 34.081 23.0396 34.6463 21.8726C34.6689 21.8337 34.6915 21.7754 34.7141 21.6976C35.1437 21.6003 35.8899 21.3669 36.2517 21.2308C38.0833 20.5889 40.9775 18.7801 40.9775 15.8821C40.9775 13.0035 38.0833 11.1947 36.2517 10.5334C35.8899 10.3973 35.1211 10.1639 34.7141 10.0666C34.6915 9.98881 34.6689 9.93046 34.6463 9.89156C34.0584 8.72457 30.1466 8.33558 29.4908 8.76347Z"
        fill="white" />
    <path
        d="M30.5761 23.3898C30.0334 23.3898 29.5586 23.3314 29.3325 23.1758C29.1064 23.0202 28.9707 22.8452 28.9481 22.6507C28.9255 22.5145 28.9707 22.3784 29.0385 22.2617C28.1567 22.3006 27.6366 22.3006 26.8904 22.3006C22.7751 22.3006 19.5416 19.4803 19.5416 15.8821C19.5416 12.2839 22.7751 9.4637 26.8904 9.4637C27.6366 9.4637 28.1793 9.4637 29.0385 9.5026C28.9707 9.3859 28.9481 9.24975 28.9481 9.1136C28.9707 8.91911 29.1064 8.74406 29.3325 8.58846C29.8525 8.25781 31.5032 8.35506 32.7468 8.62736C33.5608 8.82186 34.5784 9.17195 34.8949 9.8138C34.9175 9.8527 34.9175 9.87215 34.9402 9.91105C35.3924 10.0277 36.0255 10.2417 36.3647 10.3584C38.6259 11.1558 41.2488 13.0814 41.2488 15.9016C41.2488 18.7218 38.6259 20.6473 36.3647 21.4448C36.0255 21.5615 35.3698 21.7754 34.9402 21.8921C34.9402 21.931 34.9175 21.9505 34.8949 21.9894C34.5784 22.6312 33.5608 22.9813 32.7468 23.1758C32.0459 23.2925 31.2545 23.3898 30.5761 23.3898ZM29.5134 21.8143C29.6038 21.8143 29.6943 21.8532 29.7395 21.931C29.7847 22.0088 29.7621 22.1061 29.7169 22.1644C29.5812 22.3006 29.4455 22.4756 29.4455 22.5923C29.4455 22.6701 29.5134 22.7479 29.6264 22.8063C29.8978 22.9813 31.2545 23.0008 32.5885 22.6896C33.5608 22.4562 34.2166 22.1255 34.3975 21.756C34.3975 21.7365 34.4427 21.6782 34.4427 21.6198C34.4653 21.542 34.5331 21.4642 34.6236 21.4448C35.0306 21.3475 35.7768 21.1141 36.1386 20.978C37.8344 20.375 40.7061 18.6246 40.7061 15.8432C40.7061 13.0619 37.8571 11.3503 36.1612 10.7474C35.7994 10.6112 35.0532 10.3778 34.6462 10.2806C34.5558 10.2611 34.4879 10.1833 34.4653 10.1055C34.4427 10.0472 34.4201 9.98884 34.4201 9.96939C34.2392 9.59985 33.5835 9.2692 32.6112 9.0358C31.2771 8.72461 29.9204 8.74406 29.649 8.91911C29.536 8.99691 29.4681 9.0747 29.4681 9.13305C29.4455 9.2692 29.5812 9.4248 29.7395 9.56095C29.8073 9.6193 29.8073 9.71655 29.7621 9.79435C29.7169 9.87215 29.6264 9.91105 29.5134 9.91105C28.3376 9.87215 27.7497 9.8527 26.8678 9.8527C23.0238 9.8527 20.0165 12.4784 20.0165 15.8432C20.0165 19.208 23.0238 21.8338 26.8678 21.8338C27.727 21.8727 28.3149 21.8532 29.5134 21.8143Z"
        fill="black" />
    <path
        d="M34.7139 10.3001H34.6913C33.0633 10.1445 31.5483 9.98892 29.5133 9.96947C29.3776 9.96947 29.2645 9.87222 29.2645 9.73607C29.2645 9.61937 29.3776 9.52213 29.5133 9.52213C31.5709 9.56102 33.1085 9.69717 34.7365 9.87222C34.8722 9.89167 34.9853 9.98892 34.9627 10.1251C34.9401 10.2223 34.827 10.3001 34.7139 10.3001Z"
        fill="black" />
    <path
        d="M29.5134 22.2617C29.3777 22.2617 29.2646 22.1644 29.2646 22.0477C29.2646 21.931 29.3777 21.8338 29.5134 21.8143C31.5484 21.7754 33.0634 21.6393 34.6914 21.4837C34.8271 21.4642 34.9628 21.5615 34.9854 21.6782C35.008 21.7949 34.895 21.9116 34.7593 21.931C33.1086 22.0672 31.571 22.2228 29.5134 22.2617Z"
        fill="black" />
    <path
        d="M197.427 40H4.57264C2.60543 40 1 38.6191 1 36.9269V26.0934C1 24.4012 2.60543 23.0203 4.57264 23.0203H197.427C199.395 23.0203 201 24.4012 201 26.0934V36.9269C201 38.6191 199.395 40 197.427 40Z"
        fill="#E4E4E4" stroke="black" stroke-miterlimit="10" />
    <path d="M16.8055 23.0203V40" stroke="black" stroke-miterlimit="10" />
    <path d="M31.3224 23.0203V40" stroke="black" stroke-miterlimit="10" />
    <path d="M49.5924 27.9605V39.9999" stroke="black" stroke-miterlimit="10" />
    <path d="M66.5963 27.9605V39.9999" stroke="black" stroke-miterlimit="10" />
    <path d="M84.5048 27.202V40" stroke="black" stroke-miterlimit="10" />
    <path d="M100.989 29.3998V40" stroke="black" stroke-miterlimit="10" />
    <path d="M121.113 26.6185V40" stroke="black" stroke-miterlimit="10" />
    <path d="M143.476 26.1906V39.9999" stroke="black" stroke-miterlimit="10" />
    <path d="M166.63 25.2959V40" stroke="black" stroke-miterlimit="10" />
    <path d="M187.252 26.1906V39.9999" stroke="black" stroke-miterlimit="10" />
    <path
        d="M46.766 22.359C46.766 21.9117 46.5625 21.5616 46.4042 21.1726C45.952 20.2779 45.0023 19.2276 42.1306 18.7024C40.887 18.469 37.7666 18.2162 36.0255 18.1578C33.4251 18.08 28.247 18.08 25.6467 18.1578C23.9056 18.2162 20.8078 18.469 19.5416 18.7024C16.6925 19.2276 15.7428 20.2584 15.268 21.1726C15.1097 21.581 14.9062 21.9311 14.9062 22.359C14.9062 22.359 14.4992 24.8291 17.7552 24.8291H17.9135H43.6908H43.8491C47.173 24.8291 46.766 22.359 46.766 22.359Z"
        fill="#EAEAEA" stroke="black" stroke-miterlimit="10" />
    <path
        d="M191.594 21.1142C191.526 20.0639 189.92 19.3054 184.403 19.4415C184.403 19.4415 177.981 19.2276 177.574 19.1887C177.145 19.1109 170.655 18.5857 170.158 18.4496L168.756 18.0217C164.12 16.563 157.631 13.7233 153.719 13.1398C148.609 12.4007 143.227 12.7702 143.227 12.7702C143.227 12.7702 130.18 6.60465 120.548 4.50407C115.912 3.49268 112.996 2.98698 101.464 2.98698C91.424 2.98698 88.4393 4.73747 85.5676 4.73747C79.8468 4.73747 68.7445 2.24789 62.5942 1.80054C49.9995 -3.37311 50.0221 5.59326 49.2533 7.96614C48.8689 9.15258 48.0775 11.2726 44.8214 12.0117C44.0526 12.1868 39.8921 11.9534 38.4675 12.0895V19.7138L47.1956 20.6669C48.5523 21.4449 49.0046 22.4563 49.2759 23.2732C50.0447 25.646 50.4743 29.0498 59.0441 28.4079C65.1945 27.9411 79.8695 27.0659 85.5902 27.0659C88.4393 27.0659 91.4466 28.5441 101.486 28.8164C104.652 28.8942 105.85 29.0109 109.966 28.8942C121.43 28.5635 138.321 27.7272 141.893 27.5521C143.521 27.6883 149.762 28.2329 152.046 28.2329C157.337 28.2718 171.627 27.1242 175.63 26.7936C176.172 26.7547 176.738 26.7741 177.258 26.8714C177.416 26.9103 177.642 26.9297 177.891 26.9686C178.117 26.9881 178.886 26.9103 179.157 26.9297C182.504 27.2798 188.044 27.9217 188.111 27.9217C195.098 28.5052 195.098 27.4549 195.958 25.8405C196.636 24.479 200.525 19.9472 191.594 21.1142Z"
        fill="#E4E4E4" />
    <path
        d="M106.868 29.147C105.579 29.147 104.584 29.1081 103.385 29.0692C102.798 29.0497 102.164 29.0303 101.441 29.0108C95.0644 28.8358 91.4239 28.1745 89.0271 27.7272C87.6025 27.4549 86.5624 27.2604 85.5449 27.2604C79.9824 27.2604 65.5336 28.1356 59.0214 28.6024C50.8134 29.2053 49.8411 26.0739 49.1175 23.7983C49.0723 23.6427 49.0271 23.4676 48.9592 23.312C48.6879 22.4952 48.2583 21.581 47.0373 20.8419L38.377 19.9083C38.2413 19.8889 38.1509 19.7916 38.1509 19.6944V12.07C38.1509 11.9533 38.2413 11.8561 38.377 11.8561C39.078 11.7978 40.3668 11.8172 41.6331 11.8367C42.9672 11.8561 44.3239 11.8756 44.7083 11.7978C47.9191 11.0781 48.6201 8.93863 48.9592 7.90779C49.0497 7.61604 49.1401 7.24649 49.2306 6.7797C49.6602 4.79581 50.2933 1.78109 53.1424 0.5363C55.3583 -0.436191 58.5692 -0.0860941 62.6393 1.58659C65.3075 1.78109 68.8123 2.34513 72.5432 2.94808C77.3595 3.72607 82.334 4.52352 85.5449 4.52352C86.5172 4.52352 87.5347 4.30957 88.8009 4.03727C91.2204 3.53157 94.8609 2.77303 101.418 2.77303C113.041 2.77303 115.98 3.29818 120.57 4.29012C129.773 6.29345 142.21 12.07 143.25 12.5563C143.928 12.5174 148.971 12.2451 153.742 12.9453C156.342 13.3343 160.028 14.6763 163.6 15.9989C165.477 16.6797 167.241 17.341 168.824 17.8466L170.225 18.2551C170.497 18.3329 173.278 18.5857 175.11 18.7413C176.579 18.8775 177.416 18.9553 177.597 18.9747C177.891 18.9942 182.164 19.1498 184.38 19.2276C189.129 19.1303 191.435 19.636 191.774 20.8808C194.759 20.5113 196.545 20.7641 197.269 21.6394C198.128 22.7091 197.111 24.3234 196.455 25.3932C196.319 25.6071 196.206 25.8016 196.116 25.9378C196.048 26.0545 196.003 26.1517 195.958 26.2684C195.144 27.8633 194.42 28.6802 188.021 28.1551C187.998 28.1551 187.772 28.1356 187.388 28.0773C185.85 27.9022 181.757 27.4354 179.067 27.1437C178.954 27.1242 178.682 27.1437 178.456 27.1631C178.185 27.1826 177.959 27.1826 177.823 27.1826C177.574 27.1631 177.348 27.1242 177.167 27.0853C176.67 26.9881 176.15 26.9686 175.607 27.0075C171.401 27.3576 157.269 28.5052 152 28.4468C149.739 28.4274 143.679 27.9217 141.848 27.7661C138.479 27.9411 121.43 28.7775 109.943 29.1081C108.699 29.1275 107.704 29.147 106.868 29.147ZM85.5675 26.813C86.6302 26.813 87.693 27.0075 89.1401 27.2798C91.6726 27.7466 95.1096 28.3885 101.463 28.5635C102.21 28.583 102.82 28.6024 103.408 28.6219C105.353 28.6802 106.777 28.7386 109.92 28.6413C121.43 28.3107 138.524 27.4743 141.848 27.2993C141.87 27.2993 141.87 27.2993 141.893 27.2993C143.702 27.4549 149.762 27.9606 152.023 27.98C157.269 28.0189 171.379 26.8908 175.584 26.5407C176.172 26.4824 176.76 26.5213 177.303 26.6185C177.484 26.6574 177.687 26.6769 177.913 26.6963C178.004 26.6963 178.253 26.6963 178.456 26.6769C178.75 26.6574 179.021 26.638 179.18 26.6574C181.87 26.9492 185.963 27.416 187.501 27.591C187.863 27.6299 188.089 27.6494 188.111 27.6688C194.42 28.194 194.85 27.3965 195.528 26.0545C195.573 25.9572 195.641 25.8405 195.709 25.7238C195.799 25.5682 195.912 25.3737 196.048 25.1403C196.613 24.2262 197.586 22.6897 196.907 21.8533C196.297 21.1142 194.533 20.9392 191.661 21.3087C191.593 21.3087 191.526 21.3087 191.458 21.2698C191.413 21.2309 191.367 21.1726 191.367 21.1142C191.3 20.025 189.038 19.5388 184.448 19.636C184.177 19.636 177.981 19.4221 177.597 19.3832C177.416 19.3637 176.308 19.247 175.132 19.1498C172.487 18.9164 170.429 18.7219 170.135 18.6441L168.71 18.2162C167.105 17.7105 165.341 17.0492 163.465 16.3685C159.915 15.0653 156.251 13.7233 153.719 13.3537C148.699 12.6146 143.34 12.9842 143.272 12.9842C143.227 12.9842 143.182 12.9842 143.137 12.9647C143.001 12.9064 130.022 6.7797 120.525 4.71801C115.98 3.72607 113.063 3.20093 101.509 3.20093C94.9965 3.20093 91.537 3.92057 89.0045 4.46517C87.693 4.73746 86.6528 4.95141 85.6127 4.95141C82.334 4.95141 77.3368 4.15397 72.5206 3.37598C68.7896 2.77303 65.2622 2.20899 62.6167 2.01449C62.5941 2.01449 62.5488 2.01449 62.5262 1.99504C58.5918 0.380702 55.5166 0.0111552 53.4363 0.925297C50.836 2.07284 50.2029 4.95141 49.7959 6.85749C49.7054 7.32429 49.615 7.71329 49.5245 8.02448C49.1627 9.13312 48.4166 11.4282 44.9118 12.2256C44.4595 12.3229 43.1933 12.3034 41.7009 12.284C40.5929 12.2645 39.4397 12.2451 38.7388 12.284V19.4999L47.2408 20.4335C47.286 20.4335 47.3086 20.4529 47.3538 20.4724C48.7557 21.2893 49.2306 22.3007 49.5245 23.2148C49.5698 23.3704 49.6376 23.526 49.6828 23.701C50.3838 25.9572 51.243 28.758 59.044 28.194C65.5336 27.6883 80.005 26.813 85.5675 26.813Z"
        fill="black" />
    <path
        d="M51.9665 14.3846C51.8761 14.3846 51.7856 14.3457 51.7404 14.2679C50.9942 13.0037 51.2203 8.1412 51.2429 7.94671C51.2429 7.83001 51.3786 7.73276 51.5143 7.73276C51.6499 7.73276 51.763 7.84946 51.763 7.96616C51.6952 9.34709 51.65 13.1009 52.2152 14.0734C52.2831 14.1901 52.2378 14.3068 52.1022 14.3651C52.057 14.3846 52.0117 14.3846 51.9665 14.3846Z"
        fill="black" />
    <path
        d="M50.6778 26.3073C50.5195 26.2879 50.4064 26.1906 50.429 26.0739C50.4516 25.8405 50.9943 20.414 51.7405 19.1498C51.8083 19.0331 51.9666 18.9942 52.0797 19.0525C52.2153 19.1109 52.2606 19.247 52.1927 19.3443C51.4918 20.5113 50.9491 26.035 50.9265 26.0934C50.9265 26.2295 50.8134 26.3073 50.6778 26.3073Z"
        fill="black" />
    <path
        d="M178.253 22.5924C178.14 22.5924 178.049 22.5341 178.004 22.4368C177.959 22.3201 178.049 22.2034 178.185 22.1645C179.496 21.8339 182.097 21.3087 184.607 21.5227C185.579 21.6005 186.574 21.5421 187.501 21.3282C189.445 20.8808 191.435 20.9003 191.639 20.9197C191.774 20.9392 191.887 21.0364 191.865 21.1531C191.842 21.2698 191.729 21.3671 191.594 21.3476C191.413 21.3282 189.513 21.3087 187.636 21.7366C186.642 21.97 185.601 22.0284 184.561 21.9506C182.142 21.7561 179.609 22.2618 178.343 22.5924C178.298 22.5924 178.275 22.5924 178.253 22.5924Z"
        fill="black" />
    <path
        d="M67.9758 23.9928C64.6292 23.2343 63.2499 22.7481 58.3206 23.4288C53.3912 24.1095 43.6004 24.907 42.3568 24.6541C41.1357 24.4013 39.5981 23.3705 38.1736 23.3705C36.7264 23.3705 34.9175 23.6428 34.0583 24.0123C33.8095 24.0123 31.6614 24.1873 31.1188 24.129C31.6841 23.7984 31.6614 23.2538 31.2544 23.0009C31.0057 22.8453 30.3274 23.351 29.7168 23.6039C30.4178 23.1371 30.5309 22.3396 29.943 22.2035C29.7621 22.1646 27.5687 23.351 27.2522 23.6817C27.0713 23.8762 26.913 26.0351 27.0487 26.5213C27.1843 27.0076 27.7496 26.9298 27.7496 26.9298C27.7496 26.9298 27.7948 27.1632 28.2471 27.4938C28.4958 27.7078 31.0962 28.0579 31.0962 28.0579C31.0962 28.0579 33.606 28.3691 34.601 28.1746C35.5959 27.9995 39.2363 27.8634 40.6609 27.8634C42.0854 27.8634 42.2889 28.3302 43.6682 28.5441C45.0475 28.7581 57.7327 29.5166 60.3782 29.5166C63.0238 29.5166 67.8175 27.6883 68.7672 26.852C69.7395 26.0351 68.7445 24.1679 67.9758 23.9928Z"
        fill="#E4E4E4" />
    <path
        d="M60.3782 29.7305C57.8231 29.7305 45.1606 28.9914 43.623 28.758C43.0125 28.6608 42.6055 28.5246 42.2437 28.3885C41.7914 28.2329 41.407 28.0773 40.6382 28.0773C39.1459 28.0773 35.5732 28.2134 34.6462 28.3885C33.6286 28.583 31.164 28.2718 31.0509 28.2718C30.056 28.1356 28.3827 27.8828 28.0662 27.6494C27.7722 27.4549 27.6366 27.2604 27.5687 27.1437C27.2748 27.1242 26.913 26.9881 26.7999 26.5602C26.6642 26.0934 26.7773 23.8177 27.0486 23.526C27.2522 23.2926 29.6038 21.8728 30.0108 21.97C30.3047 22.0284 30.4856 22.2229 30.5535 22.4757C30.5761 22.6119 30.5761 22.748 30.5308 22.9036C30.87 22.7286 31.164 22.6313 31.4127 22.7869C31.684 22.9425 31.8197 23.1953 31.8197 23.4676C31.8197 23.6038 31.7745 23.7399 31.7066 23.8566C32.2267 23.8372 32.9503 23.7983 33.4477 23.7594C33.7417 23.7399 33.9226 23.7205 34.0356 23.7205C34.9401 23.3704 36.749 23.0786 38.2188 23.0786C39.1459 23.0786 40.0503 23.4676 40.9322 23.8372C41.4749 24.0706 41.9949 24.2845 42.4472 24.3818C43.6004 24.6152 53.4138 23.8177 58.2979 23.1564C62.8655 22.5341 64.4031 22.9036 67.2295 23.5454C67.5009 23.6038 67.7722 23.6621 68.0662 23.7399C68.6314 23.8761 69.1289 24.5763 69.3324 25.2181C69.5585 25.9378 69.4229 26.5796 68.9706 26.9881C67.9531 27.8633 63.069 29.7305 60.3782 29.7305ZM40.6609 27.6494C41.5201 27.6494 41.9723 27.805 42.4472 27.98C42.7863 28.0967 43.1481 28.2329 43.7134 28.3301C45.0023 28.5246 57.6874 29.3026 60.3782 29.3026C62.9107 29.3026 67.6591 27.4938 68.5862 26.6963C69.0611 26.2879 68.9028 25.6266 68.8123 25.3543C68.6088 24.7319 68.1792 24.2651 67.9079 24.1873C67.6139 24.1289 67.3426 24.0511 67.0712 23.9928C64.3126 23.3704 62.7976 23.0203 58.3658 23.6232C53.7304 24.2456 43.6682 25.1209 42.3115 24.8291C41.7914 24.7319 41.2488 24.4985 40.6835 24.2651C39.8468 23.915 38.9876 23.5649 38.1736 23.5649C36.749 23.5649 34.9853 23.8372 34.1713 24.1873C34.1261 24.2067 34.1035 24.2067 34.0583 24.2067C33.9904 24.2067 33.7417 24.2262 33.4704 24.2456C32.4754 24.304 31.4805 24.3623 31.0961 24.3234C30.9831 24.304 30.9152 24.2456 30.87 24.1484C30.8474 24.0511 30.8926 23.9733 30.9831 23.915C31.1866 23.7983 31.2996 23.6427 31.2996 23.4871C31.2996 23.3704 31.2318 23.2537 31.1187 23.1759C31.0057 23.1953 30.6891 23.3509 30.4856 23.4676C30.2821 23.5843 30.0334 23.701 29.8073 23.7983C29.6942 23.8372 29.5585 23.8177 29.4907 23.7205C29.4229 23.6232 29.4455 23.5065 29.5585 23.4287C29.9429 23.1759 30.1012 22.8064 30.056 22.5924C30.0334 22.4952 29.9882 22.4563 29.9203 22.4368C29.5359 22.5535 27.7044 23.5649 27.4557 23.8177C27.3426 24.0511 27.1843 26.035 27.2974 26.4824C27.3652 26.7352 27.6365 26.7352 27.727 26.7352C27.8627 26.7158 27.9983 26.7936 28.0209 26.9103C28.0209 26.9103 28.0888 27.0853 28.428 27.3382C28.428 27.3382 28.4506 27.3382 28.4506 27.3576C28.6315 27.4743 30.0108 27.7077 31.164 27.8633C31.1866 27.8633 33.6286 28.1551 34.5557 27.98C35.5958 27.7661 39.3042 27.6494 40.6609 27.6494Z"
        fill="black" />
    <path
        d="M27.7723 27.1437C27.6592 27.1437 27.5688 27.0854 27.5235 27.0076C27.4105 26.7742 27.5461 24.6736 28.0662 24.0901C28.2697 23.8567 28.7672 23.7011 29.1968 23.5455C29.3325 23.5066 29.4907 23.4483 29.5586 23.4094C29.6942 23.351 29.8299 23.3899 29.8977 23.5066C29.9656 23.6233 29.9204 23.74 29.7847 23.7984C29.6716 23.8373 29.536 23.8956 29.3777 23.954C29.0837 24.0512 28.6089 24.2068 28.4732 24.3429C28.0888 24.7903 27.9758 26.5991 28.021 26.852C28.0662 26.9687 27.9984 27.0854 27.8627 27.1243C27.8175 27.1437 27.7949 27.1437 27.7723 27.1437Z"
        fill="black" />
    <path
        d="M30.1914 28.0773C30.1462 28.0773 30.1236 28.0773 30.0784 28.0579L29.9201 27.9995C29.0608 27.63 28.6312 27.4549 28.4277 27.0076C28.2016 26.4824 28.292 25.4321 28.4729 24.9459C28.6086 24.5569 29.5357 23.3705 30.1236 23.4483C30.3497 23.4872 30.5758 23.6233 30.7115 23.8178C30.8924 24.0707 30.915 24.4013 30.7793 24.7514C30.5984 25.1988 30.3497 25.5099 30.214 25.6655L30.3949 26.3463L32.023 26.6964L36.5001 24.8876C36.6357 24.8292 36.7714 24.8876 36.8392 24.9848C36.9071 25.1015 36.8392 25.2182 36.7262 25.2766L32.1586 27.1243C32.1134 27.1437 32.0456 27.1437 31.9777 27.1437L30.101 26.7547C30.0105 26.7353 29.9427 26.6769 29.9201 26.5797L29.6714 25.6655C29.6487 25.5877 29.6714 25.5294 29.7392 25.471C29.7392 25.471 30.0784 25.1404 30.2819 24.6153C30.3949 24.3235 30.3271 24.1485 30.2593 24.0512C30.1914 23.954 30.101 23.9151 30.0558 23.8956C29.807 23.954 29.1061 24.7125 28.9704 25.0821C28.8121 25.5488 28.7669 26.4824 28.9252 26.852C29.0382 27.1048 29.3096 27.241 30.1688 27.5911L30.3271 27.6494C30.4628 27.7078 30.508 27.8439 30.4401 27.9412C30.3949 28.0384 30.3045 28.0773 30.1914 28.0773Z"
        fill="black" />
    <path
        d="M30.5987 24.5957C30.5082 24.5957 30.4178 24.5568 30.3726 24.479C30.3047 24.3817 30.35 24.2456 30.463 24.1678C30.5535 24.1095 30.6213 24.09 30.6891 24.0511C30.7796 23.9928 30.8474 23.9539 30.9831 23.8955C31.0962 23.8372 31.2544 23.8761 31.3223 23.9733C31.3901 24.0706 31.3449 24.2067 31.2318 24.2651C31.0961 24.3234 31.0283 24.3623 30.9605 24.4012C30.8926 24.4401 30.8248 24.4595 30.7344 24.5179C30.6891 24.5762 30.6439 24.5957 30.5987 24.5957Z"
        fill="black" />
    <path
        d="M32.1362 25.9767C32.0457 25.9767 30.4403 25.8989 29.8976 25.8211C29.762 25.8016 29.6715 25.6849 29.6941 25.5682C29.7167 25.4515 29.8524 25.3737 29.9881 25.3932C30.4177 25.4515 31.6613 25.5099 32.0457 25.5488C32.4301 25.1987 33.606 24.1873 34.126 24.0317C34.2617 23.9928 34.3974 24.0512 34.4426 24.1678C34.4878 24.2845 34.42 24.4012 34.2843 24.4401C33.9451 24.5374 32.8824 25.3932 32.3171 25.9183C32.2719 25.9572 32.2266 25.9767 32.1362 25.9767Z"
        fill="black" />
    <path
        d="M68.5185 22.4757C68.4733 22.4757 68.4507 22.4757 68.4055 22.4562C67.3427 22.0283 65.6242 20.4334 65.5338 20.3556L65.5112 20.3362L56.5118 9.85275C56.2178 9.6777 54.2506 8.37456 52.8713 7.12977C52.7808 7.03252 52.7808 6.89637 52.8939 6.81857C53.0069 6.74077 53.1652 6.74077 53.2557 6.83802C54.6576 8.14116 56.8283 9.5221 56.8509 9.5221C56.8735 9.54155 56.8961 9.54155 56.8961 9.561L65.9182 20.0639C66.0539 20.2001 67.6819 21.6588 68.609 22.0478C68.7447 22.1061 68.7899 22.2228 68.722 22.3395C68.722 22.4368 68.609 22.4757 68.5185 22.4757Z"
        fill="black" />
    <path
        d="M73.1085 22.0867C69.355 22.5146 69.355 22.1062 64.7422 22.9231C60.1294 23.7205 53.6399 25.7044 51.8988 25.7044C50.1577 25.7044 44.2561 25.7433 42.9898 25.86C39.8242 26.1906 35.7089 28.3301 35.7089 28.6608C35.7089 29.1859 37.0203 29.1276 37.0203 29.1276C37.0203 29.1276 37.156 29.4582 37.8117 29.4582C38.4901 29.4582 39.8242 28.972 39.8242 28.972C39.8242 28.972 39.5076 29.6721 40.8191 29.5749C41.5427 29.5165 44.1204 28.7775 44.1204 28.7775L45.8615 28.6802C45.8615 28.6802 46.065 28.6608 47.8739 28.9331C49.6829 29.2054 52.0119 29.322 52.758 29.322C53.5042 29.322 54.4991 28.8942 54.4991 28.8942C54.4991 28.8942 69.8751 28.2912 72.1588 28.2912C74.4426 28.2912 76.8621 27.6105 77.6761 26.8714C78.4449 26.1712 78.6032 25.5099 77.6761 23.74L73.1085 22.0867Z"
        fill="#E4E4E4" />
    <path
        d="M40.5703 29.8083C40.1407 29.8083 39.8242 29.711 39.6659 29.5165C39.598 29.4582 39.5754 29.3804 39.5528 29.3026C39.078 29.4582 38.2866 29.6721 37.8117 29.6721C37.3143 29.6721 37.0203 29.4971 36.862 29.3415C36.5681 29.3415 35.9576 29.3026 35.641 29.0497C35.5053 28.933 35.4375 28.7969 35.4375 28.6608C35.4375 28.0189 40.0503 25.9378 42.9446 25.646C44.1882 25.5099 49.9316 25.471 51.8762 25.471C52.758 25.471 54.9966 24.9264 57.5969 24.2845C59.9033 23.7205 62.5036 23.0787 64.6743 22.7091C67.4782 22.2229 68.5635 22.184 69.8524 22.1256C70.7117 22.0867 71.5709 22.0478 73.0633 21.8728C73.1989 21.8533 73.3346 21.9506 73.3572 22.0673C73.3798 22.184 73.2668 22.3007 73.1311 22.3201C71.6161 22.4952 70.689 22.5341 69.875 22.573C68.6088 22.6313 67.5234 22.6702 64.7648 23.1565C62.5941 23.526 60.0163 24.1678 57.7326 24.7319C55.1096 25.3737 52.8258 25.9378 51.8762 25.9378C49.9316 25.9378 44.2108 25.9767 42.9898 26.0934C40.0729 26.3851 36.342 28.2718 35.935 28.7191C35.935 28.7386 35.9576 28.7386 35.9576 28.758C36.1158 28.8942 36.6359 28.9331 36.9525 28.9331C37.0655 28.9331 37.1786 28.9914 37.2012 29.0887C37.2012 29.0887 37.2917 29.2637 37.7439 29.2637C38.2413 29.2637 39.3041 28.9331 39.6659 28.7969C39.7563 28.758 39.8694 28.7775 39.9372 28.8358C40.005 28.8942 40.0277 28.9914 40.0051 29.0692C40.0051 29.0692 39.9598 29.1859 40.0277 29.2637C40.0503 29.3026 40.2086 29.4193 40.7286 29.3609C41.3165 29.322 43.2611 28.7775 43.9847 28.583C44.0073 28.583 44.0299 28.5635 44.0525 28.5635L45.7936 28.4663C45.8389 28.4663 46.1554 28.4663 47.8739 28.7191C49.7281 28.9914 52.0571 29.1081 52.7128 29.1081C53.3911 29.1081 54.3408 28.6997 54.3408 28.6997C54.3634 28.6802 54.4087 28.6802 54.4539 28.6802C54.6122 28.6802 69.8524 28.0773 72.1136 28.0773C74.42 28.0773 76.7264 27.3771 77.4499 26.7158C78.1283 26.0739 78.2866 25.5099 77.4047 23.8177C76.4776 22.0673 62.8654 4.52352 62.7071 4.34847C62.6393 4.25123 62.6619 4.11508 62.775 4.03728C62.888 3.97893 63.0463 3.99838 63.1368 4.09563C63.702 4.81527 76.9299 21.8533 77.8569 23.6233C78.7614 25.3348 78.7388 26.1517 77.8117 27.0075C76.9072 27.8244 74.3521 28.5052 72.1136 28.5052C69.9429 28.5052 55.5166 29.0692 54.5217 29.1081C54.2956 29.2053 53.4138 29.536 52.7128 29.536C51.8988 29.536 49.5472 29.3998 47.8061 29.147C46.1328 28.8941 45.8615 28.8942 45.8389 28.8942L44.143 28.9914C43.8264 29.0887 41.52 29.7305 40.7965 29.7888C40.7286 29.8083 40.6382 29.8083 40.5703 29.8083Z"
        fill="black" />
    <path
        d="M36.9976 29.3415C36.9298 29.3415 36.862 29.322 36.8167 29.2831C36.7263 29.2248 36.7037 29.1275 36.7263 29.0108C36.8846 28.544 39.6432 26.9492 43.4419 26.2295C43.5776 26.2101 43.7133 26.2684 43.7585 26.4046C43.7811 26.5213 43.7133 26.638 43.555 26.6769C39.9824 27.3576 37.5629 28.7774 37.2464 29.1275C37.2464 29.1859 37.2238 29.2442 37.1785 29.2831C37.1333 29.322 37.0655 29.3415 36.9976 29.3415Z"
        fill="black" />
    <path
        d="M39.8014 29.2054C39.7336 29.2054 39.6658 29.1859 39.6205 29.1276C39.5301 29.0303 39.5301 28.8942 39.6432 28.8164C39.9371 28.583 42.0626 27.3771 45.3187 27.202C45.4543 27.202 45.59 27.2798 45.59 27.416C45.59 27.5327 45.4996 27.6494 45.3413 27.6494C42.2887 27.8244 40.2311 28.9525 39.9823 29.147C39.9371 29.1859 39.8693 29.2054 39.8014 29.2054Z"
        fill="black" />
    <path
        d="M177.529 22.6313C174.838 22.6313 166.811 21.9311 165.794 21.6977C160.005 20.3751 149.265 19.85 144.245 20.3168C143.928 20.3362 141.283 20.0056 135.765 19.2859C125.952 18.0217 111.119 16.0962 106.8 16.0962C106.664 16.0962 106.551 15.9989 106.551 15.8822C106.551 15.7655 106.664 15.6683 106.8 15.6683C111.164 15.6683 126.02 17.5938 135.833 18.858C140.062 19.4026 143.725 19.8889 144.154 19.8889H144.177C149.332 19.4026 159.96 19.9083 165.907 21.2698C167.105 21.5421 177.303 22.359 178.14 22.1451C178.275 22.1062 178.411 22.184 178.456 22.3007C178.501 22.4174 178.411 22.5341 178.275 22.573C178.185 22.6119 177.913 22.6313 177.529 22.6313Z"
        fill="black" />
    <path
        d="M29.4908 8.7635C28.9482 9.1136 29.2647 9.48315 29.5134 9.73599C28.315 9.6971 27.7045 9.67765 26.8679 9.67765C22.9561 9.67765 19.7678 12.4006 19.7678 15.8821C19.7678 19.3637 22.9561 22.0866 26.8679 22.0866C27.7045 22.0866 28.315 22.0866 29.5134 22.0283C29.2647 22.3006 28.9482 22.6507 29.4908 23.0008C30.1692 23.4287 34.081 23.0397 34.6463 21.8727C34.6689 21.8338 34.6915 21.7754 34.7141 21.6976C35.1437 21.6004 35.8899 21.367 36.2517 21.2308C38.0833 20.589 40.9775 18.7802 40.9775 15.8821C40.9775 13.0036 38.0833 11.1947 36.2517 10.5334C35.8899 10.3973 35.1211 10.1639 34.7141 10.0666C34.6915 9.98884 34.6689 9.93049 34.6463 9.89159C34.0584 8.7246 30.1466 8.33561 29.4908 8.7635Z"
        fill="#E4E4E4" />
    <path
        d="M30.5761 23.3898C30.0334 23.3898 29.5586 23.3315 29.3325 23.1759C29.1064 23.0203 28.9707 22.8452 28.9481 22.6507C28.9255 22.5146 28.9707 22.3784 29.0385 22.2617C28.1567 22.3006 27.6366 22.3006 26.8904 22.3006C22.7751 22.3006 19.5416 19.4804 19.5416 15.8822C19.5416 12.284 22.7751 9.46373 26.8904 9.46373C27.6366 9.46373 28.1793 9.46373 29.0385 9.50263C28.9707 9.38593 28.9481 9.24978 28.9481 9.11364C28.9707 8.91914 29.1064 8.74409 29.3325 8.58849C29.8525 8.25784 31.5032 8.35509 32.7468 8.62739C33.5608 8.82189 34.5784 9.17199 34.8949 9.81383C34.9175 9.85273 34.9175 9.87218 34.9402 9.91108C35.3924 10.0278 36.0255 10.2417 36.3647 10.3584C38.6259 11.1559 41.2488 13.0814 41.2488 15.9016C41.2488 18.7219 38.6259 20.6474 36.3647 21.4448C36.0255 21.5615 35.3698 21.7755 34.9402 21.8922C34.9402 21.9311 34.9175 21.9505 34.8949 21.9894C34.5784 22.6313 33.5608 22.9814 32.7468 23.1759C32.0459 23.2926 31.2545 23.3898 30.5761 23.3898ZM29.5134 21.8144C29.6038 21.8144 29.6943 21.8533 29.7395 21.9311C29.7847 22.0089 29.7621 22.1061 29.7169 22.1645C29.5812 22.3006 29.4455 22.4757 29.4455 22.5924C29.4455 22.6702 29.5134 22.748 29.6264 22.8063C29.8978 22.9814 31.2545 23.0008 32.5885 22.6896C33.5608 22.4562 34.2166 22.1256 34.3975 21.756C34.3975 21.7366 34.4427 21.6782 34.4427 21.6199C34.4653 21.5421 34.5331 21.4643 34.6236 21.4448C35.0306 21.3476 35.7768 21.1142 36.1386 20.978C37.8344 20.3751 40.7061 18.6246 40.7061 15.8433C40.7061 13.062 37.8571 11.3504 36.1612 10.7474C35.7994 10.6113 35.0532 10.3779 34.6462 10.2806C34.5558 10.2612 34.4879 10.1834 34.4653 10.1056C34.4427 10.0472 34.4201 9.98888 34.4201 9.96943C34.2392 9.59988 33.5835 9.26923 32.6112 9.03584C31.2771 8.72464 29.9204 8.74409 29.649 8.91914C29.536 8.99694 29.4681 9.07474 29.4681 9.13309C29.4455 9.26923 29.5812 9.42483 29.7395 9.56098C29.8073 9.61933 29.8073 9.71658 29.7621 9.79438C29.7169 9.87218 29.6264 9.91108 29.5134 9.91108C28.3376 9.87218 27.7497 9.85273 26.8678 9.85273C23.0238 9.85273 20.0165 12.4785 20.0165 15.8433C20.0165 19.2081 23.0238 21.8338 26.8678 21.8338C27.727 21.8727 28.3149 21.8533 29.5134 21.8144Z"
        fill="black" />
    <path
        d="M34.7139 10.3001H34.6913C33.0633 10.1445 31.5483 9.98895 29.5133 9.9695C29.3776 9.9695 29.2645 9.87225 29.2645 9.7361C29.2645 9.6194 29.3776 9.52216 29.5133 9.52216C31.5709 9.56106 33.1085 9.6972 34.7365 9.87225C34.8722 9.8917 34.9853 9.98895 34.9627 10.1251C34.9401 10.2223 34.827 10.3001 34.7139 10.3001Z"
        fill="black" />
    <path
        d="M29.5134 22.2617C29.3777 22.2617 29.2646 22.1645 29.2646 22.0478C29.2646 21.9311 29.3777 21.8338 29.5134 21.8144C31.5484 21.7755 33.0634 21.6393 34.6914 21.4837C34.8271 21.4643 34.9628 21.5615 34.9854 21.6782C35.008 21.7949 34.895 21.9116 34.7593 21.9311C33.1086 22.0672 31.571 22.2228 29.5134 22.2617Z"
        fill="black" />
    <path
        d="M60.0554 54.8C60.2367 54.8 60.3807 54.8587 60.4874 54.976C60.594 55.0827 60.6474 55.2213 60.6474 55.392V65.328C60.6474 65.5307 60.5834 65.696 60.4554 65.824C60.3274 65.9413 60.1727 66 59.9914 66C59.8954 66 59.7994 65.984 59.7034 65.952C59.6074 65.9093 59.5327 65.856 59.4794 65.792L52.6314 56.736L52.9514 56.544V65.408C52.9514 65.5787 52.8927 65.7227 52.7754 65.84C52.6687 65.9467 52.5247 66 52.3434 66C52.1727 66 52.034 65.9467 51.9274 65.84C51.8207 65.7227 51.7674 65.5787 51.7674 65.408V55.44C51.7674 55.248 51.826 55.0933 51.9434 54.976C52.0714 54.8587 52.2207 54.8 52.3914 54.8C52.4874 54.8 52.5834 54.8213 52.6794 54.864C52.786 54.896 52.866 54.9493 52.9194 55.024L59.6714 63.952L59.4634 64.208V55.392C59.4634 55.2213 59.5167 55.0827 59.6234 54.976C59.7407 54.8587 59.8847 54.8 60.0554 54.8ZM70.0469 57.648C70.2282 57.648 70.3775 57.712 70.4949 57.84C70.6229 57.9573 70.6869 58.1067 70.6869 58.288V65.344C70.6869 65.5253 70.6229 65.68 70.4949 65.808C70.3775 65.936 70.2282 66 70.0469 66C69.8549 66 69.7002 65.936 69.5829 65.808C69.4655 65.68 69.4069 65.5253 69.4069 65.344V63.824L69.7109 63.792C69.7109 64.0267 69.6309 64.2827 69.4709 64.56C69.3109 64.8373 69.0922 65.0987 68.8149 65.344C68.5375 65.5787 68.2069 65.776 67.8229 65.936C67.4495 66.0853 67.0442 66.16 66.6069 66.16C65.8815 66.16 65.2309 65.9733 64.6549 65.6C64.0789 65.216 63.6202 64.6987 63.2789 64.048C62.9482 63.3973 62.7829 62.656 62.7829 61.824C62.7829 60.9813 62.9482 60.24 63.2789 59.6C63.6202 58.9493 64.0789 58.4427 64.6549 58.08C65.2309 57.7067 65.8709 57.52 66.5749 57.52C67.0335 57.52 67.4602 57.5947 67.8549 57.744C68.2495 57.8933 68.5909 58.096 68.8789 58.352C69.1775 58.608 69.4069 58.8907 69.5669 59.2C69.7375 59.5093 69.8229 59.8187 69.8229 60.128L69.4069 60.032V58.288C69.4069 58.1067 69.4655 57.9573 69.5829 57.84C69.7002 57.712 69.8549 57.648 70.0469 57.648ZM66.7509 64.976C67.2842 64.976 67.7535 64.8373 68.1589 64.56C68.5749 64.2827 68.8949 63.9093 69.1189 63.44C69.3535 62.96 69.4709 62.4213 69.4709 61.824C69.4709 61.2373 69.3535 60.7093 69.1189 60.24C68.8949 59.76 68.5749 59.3867 68.1589 59.12C67.7535 58.8427 67.2842 58.704 66.7509 58.704C66.2282 58.704 65.7589 58.8373 65.3429 59.104C64.9375 59.3707 64.6175 59.7387 64.3829 60.208C64.1482 60.6773 64.0309 61.216 64.0309 61.824C64.0309 62.4213 64.1429 62.96 64.3669 63.44C64.6015 63.9093 64.9215 64.2827 65.3269 64.56C65.7429 64.8373 66.2175 64.976 66.7509 64.976ZM66.9909 56.672C66.6175 56.672 66.2709 56.5973 65.9509 56.448C65.6415 56.288 65.3802 56.0747 65.1669 55.808C64.9642 55.5307 64.8309 55.2213 64.7669 54.88C64.7135 54.7093 64.7242 54.5707 64.7989 54.464C64.8842 54.3573 65.0015 54.304 65.1509 54.304C65.3109 54.304 65.4389 54.3467 65.5349 54.432C65.6309 54.5067 65.7162 54.6133 65.7909 54.752C65.8762 55.0507 66.0255 55.28 66.2389 55.44C66.4522 55.6 66.7029 55.68 66.9909 55.68C67.2895 55.68 67.5402 55.6 67.7429 55.44C67.9562 55.2693 68.1055 55.04 68.1909 54.752C68.2762 54.6133 68.3615 54.5067 68.4469 54.432C68.5429 54.3467 68.6762 54.304 68.8469 54.304C68.9962 54.304 69.1082 54.3573 69.1829 54.464C69.2682 54.5707 69.2842 54.704 69.2309 54.864C69.1669 55.2053 69.0282 55.5147 68.8149 55.792C68.6122 56.0587 68.3509 56.272 68.0309 56.432C67.7215 56.592 67.3749 56.672 66.9909 56.672ZM67.1029 54.496C67.0389 54.496 66.9695 54.48 66.8949 54.448C66.8309 54.4053 66.7669 54.3627 66.7029 54.32L65.3429 53.264C65.2255 53.1893 65.1349 53.1093 65.0709 53.024C65.0175 52.928 64.9909 52.8213 64.9909 52.704C64.9909 52.5227 65.0549 52.384 65.1829 52.288C65.3109 52.1813 65.4442 52.128 65.5829 52.128C65.7215 52.128 65.8389 52.16 65.9349 52.224C66.0309 52.288 66.1162 52.3573 66.1909 52.432L67.3749 53.792C67.4709 53.8987 67.5189 54.0053 67.5189 54.112C67.5189 54.2187 67.4815 54.3093 67.4069 54.384C67.3322 54.4587 67.2309 54.496 67.1029 54.496ZM77.011 57.6C77.7363 57.6 78.323 57.7867 78.771 58.16C79.2297 58.5227 79.5337 59.04 79.683 59.712H79.443L79.555 59.424C79.683 59.1253 79.9017 58.8373 80.211 58.56C80.5203 58.2827 80.8777 58.0533 81.283 57.872C81.6883 57.6907 82.1097 57.6 82.547 57.6C83.251 57.6 83.8057 57.7547 84.211 58.064C84.6163 58.3627 84.9043 58.768 85.075 59.28C85.2563 59.7813 85.347 60.3467 85.347 60.976V65.344C85.347 65.5253 85.283 65.68 85.155 65.808C85.0377 65.936 84.8883 66 84.707 66C84.515 66 84.3603 65.936 84.243 65.808C84.1257 65.68 84.067 65.5253 84.067 65.344V61.008C84.067 60.592 84.003 60.2187 83.875 59.888C83.7577 59.5467 83.5603 59.28 83.283 59.088C83.0163 58.8853 82.6483 58.784 82.179 58.784C81.7417 58.784 81.3417 58.8853 80.979 59.088C80.6163 59.28 80.3283 59.5467 80.115 59.888C79.9017 60.2187 79.795 60.592 79.795 61.008V65.344C79.795 65.5253 79.7363 65.68 79.619 65.808C79.5017 65.936 79.347 66 79.155 66C78.9737 66 78.819 65.936 78.691 65.808C78.5737 65.68 78.515 65.5253 78.515 65.344V60.96C78.515 60.5547 78.4563 60.192 78.339 59.872C78.2323 59.5413 78.0457 59.28 77.779 59.088C77.5123 58.8853 77.1443 58.784 76.675 58.784C76.2483 58.784 75.859 58.8853 75.507 59.088C75.155 59.28 74.8723 59.5413 74.659 59.872C74.4457 60.192 74.339 60.5547 74.339 60.96V65.344C74.339 65.5253 74.275 65.68 74.147 65.808C74.0297 65.936 73.8803 66 73.699 66C73.5177 66 73.363 65.936 73.235 65.808C73.1177 65.68 73.059 65.5253 73.059 65.344V58.368C73.059 58.1867 73.1177 58.0373 73.235 57.92C73.363 57.792 73.5177 57.728 73.699 57.728C73.891 57.728 74.0457 57.792 74.163 57.92C74.2803 58.0373 74.339 58.1867 74.339 58.368V59.584L73.987 59.968C74.0297 59.6907 74.1363 59.4133 74.307 59.136C74.4883 58.8587 74.7177 58.6027 74.995 58.368C75.2723 58.1333 75.5817 57.9467 75.923 57.808C76.2643 57.6693 76.627 57.6 77.011 57.6ZM96.2335 57.52C96.9588 57.52 97.5295 57.6693 97.9455 57.968C98.3615 58.2667 98.6548 58.6667 98.8255 59.168C99.0068 59.6693 99.0975 60.2293 99.0975 60.848V65.344C99.0975 65.5253 99.0335 65.68 98.9055 65.808C98.7882 65.936 98.6388 66 98.4575 66C98.2762 66 98.1215 65.936 97.9935 65.808C97.8762 65.68 97.8175 65.5253 97.8175 65.344V60.88C97.8175 60.4747 97.7535 60.112 97.6255 59.792C97.5082 59.4613 97.3055 59.2 97.0175 59.008C96.7402 58.8053 96.3562 58.704 95.8655 58.704C95.4175 58.704 95.0068 58.8053 94.6335 59.008C94.2602 59.2 93.9615 59.4613 93.7375 59.792C93.5135 60.112 93.4015 60.4747 93.4015 60.88V65.344C93.4015 65.5253 93.3375 65.68 93.2095 65.808C93.0922 65.936 92.9428 66 92.7615 66C92.5802 66 92.4255 65.936 92.2975 65.808C92.1802 65.68 92.1215 65.5253 92.1215 65.344V58.368C92.1215 58.1867 92.1802 58.0373 92.2975 57.92C92.4255 57.792 92.5802 57.728 92.7615 57.728C92.9535 57.728 93.1082 57.792 93.2255 57.92C93.3428 58.0373 93.4015 58.1867 93.4015 58.368V59.504L93.0815 59.856C93.1348 59.5787 93.2575 59.3013 93.4495 59.024C93.6415 58.736 93.8815 58.48 94.1695 58.256C94.4575 58.032 94.7775 57.856 95.1295 57.728C95.4815 57.5893 95.8495 57.52 96.2335 57.52ZM104.937 57.52C105.396 57.52 105.823 57.6 106.217 57.76C106.612 57.9093 106.953 58.1067 107.241 58.352C107.54 58.5973 107.769 58.8533 107.929 59.12C108.1 59.3867 108.185 59.6373 108.185 59.872L107.881 59.68V58.288C107.881 58.1067 107.94 57.9573 108.057 57.84C108.175 57.712 108.329 57.648 108.521 57.648C108.703 57.648 108.852 57.712 108.969 57.84C109.097 57.9573 109.161 58.1067 109.161 58.288V65.296C109.161 66.1707 108.975 66.896 108.601 67.472C108.239 68.048 107.748 68.48 107.129 68.768C106.511 69.056 105.817 69.2 105.049 69.2C104.729 69.2 104.377 69.1573 103.993 69.072C103.609 68.9867 103.268 68.88 102.969 68.752C102.671 68.6347 102.479 68.512 102.393 68.384C102.233 68.2773 102.132 68.1547 102.089 68.016C102.057 67.888 102.084 67.7653 102.169 67.648C102.265 67.4987 102.388 67.424 102.537 67.424C102.697 67.424 102.895 67.472 103.129 67.568C103.225 67.6 103.375 67.6533 103.577 67.728C103.791 67.8027 104.025 67.8667 104.281 67.92C104.548 67.984 104.809 68.016 105.065 68.016C105.972 68.016 106.665 67.776 107.145 67.296C107.636 66.8267 107.881 66.2027 107.881 65.424V63.936L108.057 64.016C107.993 64.3147 107.86 64.592 107.657 64.848C107.465 65.104 107.225 65.3333 106.937 65.536C106.66 65.728 106.351 65.8827 106.009 66C105.668 66.1067 105.321 66.16 104.969 66.16C104.223 66.16 103.551 65.9733 102.953 65.6C102.356 65.2267 101.881 64.7147 101.529 64.064C101.188 63.4133 101.017 62.672 101.017 61.84C101.017 60.9973 101.188 60.2507 101.529 59.6C101.881 58.9493 102.351 58.4427 102.937 58.08C103.535 57.7067 104.201 57.52 104.937 57.52ZM105.097 58.704C104.553 58.704 104.063 58.8427 103.625 59.12C103.199 59.3867 102.863 59.7547 102.617 60.224C102.383 60.6933 102.265 61.232 102.265 61.84C102.265 62.4267 102.383 62.96 102.617 63.44C102.863 63.9093 103.199 64.2827 103.625 64.56C104.063 64.8373 104.553 64.976 105.097 64.976C105.652 64.976 106.143 64.8427 106.569 64.576C106.996 64.2987 107.332 63.9253 107.577 63.456C107.823 62.9867 107.945 62.448 107.945 61.84C107.945 61.2213 107.823 60.6773 107.577 60.208C107.332 59.7387 106.996 59.3707 106.569 59.104C106.143 58.8373 105.652 58.704 105.097 58.704ZM115.528 57.6C116.232 57.6 116.786 57.7547 117.192 58.064C117.608 58.3627 117.901 58.768 118.072 59.28C118.253 59.7813 118.344 60.3413 118.344 60.96V65.344C118.344 65.5253 118.28 65.68 118.152 65.808C118.034 65.936 117.885 66 117.704 66C117.522 66 117.368 65.936 117.24 65.808C117.122 65.68 117.064 65.5253 117.064 65.344V60.96C117.064 60.5547 117.005 60.192 116.888 59.872C116.77 59.5413 116.573 59.28 116.296 59.088C116.029 58.8853 115.661 58.784 115.192 58.784C114.754 58.784 114.354 58.8853 113.992 59.088C113.629 59.28 113.341 59.5413 113.128 59.872C112.914 60.192 112.808 60.5547 112.808 60.96V65.344C112.808 65.5253 112.744 65.68 112.616 65.808C112.498 65.936 112.349 66 112.168 66C111.986 66 111.832 65.936 111.704 65.808C111.586 65.68 111.528 65.5253 111.528 65.344V54.8C111.528 54.6187 111.586 54.4693 111.704 54.352C111.832 54.224 111.986 54.16 112.168 54.16C112.36 54.16 112.514 54.224 112.632 54.352C112.749 54.4693 112.808 54.6187 112.808 54.8V59.584L112.488 59.936C112.541 59.6587 112.658 59.3813 112.84 59.104C113.021 58.816 113.25 58.56 113.528 58.336C113.805 58.112 114.114 57.936 114.456 57.808C114.797 57.6693 115.154 57.6 115.528 57.6ZM121.947 65.344C121.947 65.5253 121.883 65.68 121.755 65.808C121.638 65.936 121.489 66 121.307 66C121.115 66 120.961 65.936 120.843 65.808C120.726 65.68 120.667 65.5253 120.667 65.344V58.24C120.667 58.0587 120.726 57.9093 120.843 57.792C120.971 57.664 121.126 57.6 121.307 57.6C121.489 57.6 121.638 57.664 121.755 57.792C121.883 57.9093 121.947 58.0587 121.947 58.24V65.344ZM121.307 56.528C121.041 56.528 120.843 56.4747 120.715 56.368C120.587 56.2613 120.523 56.096 120.523 55.872V55.648C120.523 55.424 120.593 55.2587 120.731 55.152C120.87 55.0453 121.067 54.992 121.323 54.992C121.579 54.992 121.771 55.0453 121.899 55.152C122.027 55.2587 122.091 55.424 122.091 55.648V55.872C122.091 56.096 122.022 56.2613 121.883 56.368C121.755 56.4747 121.563 56.528 121.307 56.528ZM128.071 66.16C127.217 66.16 126.471 65.9787 125.831 65.616C125.191 65.2533 124.689 64.7573 124.327 64.128C123.975 63.488 123.799 62.752 123.799 61.92C123.799 60.992 123.98 60.2027 124.343 59.552C124.716 58.8907 125.196 58.3893 125.783 58.048C126.38 57.696 127.009 57.52 127.671 57.52C128.161 57.52 128.636 57.6107 129.095 57.792C129.553 57.9733 129.959 58.24 130.311 58.592C130.663 58.9333 130.945 59.3493 131.159 59.84C131.372 60.32 131.484 60.8587 131.495 61.456C131.495 61.6267 131.431 61.7707 131.303 61.888C131.175 62.0053 131.025 62.064 130.855 62.064H124.535L124.247 60.96H130.407L130.151 61.184V60.832C130.108 60.3947 129.959 60.0213 129.703 59.712C129.457 59.392 129.153 59.1467 128.791 58.976C128.439 58.8053 128.065 58.72 127.671 58.72C127.351 58.72 127.031 58.7787 126.711 58.896C126.401 59.0027 126.119 59.184 125.863 59.44C125.617 59.6853 125.415 60.0053 125.255 60.4C125.105 60.7947 125.031 61.2693 125.031 61.824C125.031 62.4427 125.153 62.9867 125.399 63.456C125.655 63.9253 126.007 64.2987 126.455 64.576C126.903 64.8427 127.425 64.976 128.023 64.976C128.396 64.976 128.721 64.928 128.999 64.832C129.276 64.736 129.516 64.6187 129.719 64.48C129.921 64.3307 130.092 64.1813 130.231 64.032C130.369 63.936 130.503 63.888 130.631 63.888C130.791 63.888 130.919 63.9413 131.015 64.048C131.121 64.1547 131.175 64.2827 131.175 64.432C131.175 64.6133 131.089 64.7733 130.919 64.912C130.62 65.2427 130.215 65.536 129.703 65.792C129.191 66.0373 128.647 66.16 128.071 66.16ZM127.927 55.264L126.583 56.384C126.487 56.4693 126.401 56.5387 126.327 56.592C126.263 56.6347 126.167 56.656 126.039 56.656C125.943 56.656 125.863 56.6293 125.799 56.576C125.735 56.512 125.703 56.4427 125.703 56.368C125.703 56.304 125.713 56.2507 125.735 56.208C125.756 56.1547 125.793 56.0907 125.847 56.016L126.887 54.832C127.057 54.6187 127.287 54.512 127.575 54.512H127.943C128.092 54.512 128.209 54.5333 128.295 54.576C128.391 54.6187 128.481 54.704 128.567 54.832L129.559 56.016C129.623 56.08 129.66 56.1387 129.671 56.192C129.692 56.2453 129.703 56.2987 129.703 56.352C129.703 56.4267 129.671 56.496 129.607 56.56C129.553 56.624 129.473 56.656 129.367 56.656C129.249 56.656 129.153 56.6293 129.079 56.576C129.015 56.5227 128.929 56.4587 128.823 56.384L127.431 55.216L127.927 55.264ZM137.53 57.52C138.256 57.52 138.826 57.6693 139.242 57.968C139.658 58.2667 139.952 58.6667 140.122 59.168C140.304 59.6693 140.394 60.2293 140.394 60.848V65.344C140.394 65.5253 140.33 65.68 140.202 65.808C140.085 65.936 139.936 66 139.754 66C139.573 66 139.418 65.936 139.29 65.808C139.173 65.68 139.114 65.5253 139.114 65.344V60.88C139.114 60.4747 139.05 60.112 138.922 59.792C138.805 59.4613 138.602 59.2 138.314 59.008C138.037 58.8053 137.653 58.704 137.162 58.704C136.714 58.704 136.304 58.8053 135.93 59.008C135.557 59.2 135.258 59.4613 135.034 59.792C134.81 60.112 134.698 60.4747 134.698 60.88V65.344C134.698 65.5253 134.634 65.68 134.506 65.808C134.389 65.936 134.24 66 134.058 66C133.877 66 133.722 65.936 133.594 65.808C133.477 65.68 133.418 65.5253 133.418 65.344V58.368C133.418 58.1867 133.477 58.0373 133.594 57.92C133.722 57.792 133.877 57.728 134.058 57.728C134.25 57.728 134.405 57.792 134.522 57.92C134.64 58.0373 134.698 58.1867 134.698 58.368V59.504L134.378 59.856C134.432 59.5787 134.554 59.3013 134.746 59.024C134.938 58.736 135.178 58.48 135.466 58.256C135.754 58.032 136.074 57.856 136.426 57.728C136.778 57.5893 137.146 57.52 137.53 57.52ZM146.234 57.52C146.693 57.52 147.119 57.6 147.514 57.76C147.909 57.9093 148.25 58.1067 148.538 58.352C148.837 58.5973 149.066 58.8533 149.226 59.12C149.397 59.3867 149.482 59.6373 149.482 59.872L149.178 59.68V58.288C149.178 58.1067 149.237 57.9573 149.354 57.84C149.471 57.712 149.626 57.648 149.818 57.648C149.999 57.648 150.149 57.712 150.266 57.84C150.394 57.9573 150.458 58.1067 150.458 58.288V65.296C150.458 66.1707 150.271 66.896 149.898 67.472C149.535 68.048 149.045 68.48 148.426 68.768C147.807 69.056 147.114 69.2 146.346 69.2C146.026 69.2 145.674 69.1573 145.29 69.072C144.906 68.9867 144.565 68.88 144.266 68.752C143.967 68.6347 143.775 68.512 143.69 68.384C143.53 68.2773 143.429 68.1547 143.386 68.016C143.354 67.888 143.381 67.7653 143.466 67.648C143.562 67.4987 143.685 67.424 143.834 67.424C143.994 67.424 144.191 67.472 144.426 67.568C144.522 67.6 144.671 67.6533 144.874 67.728C145.087 67.8027 145.322 67.8667 145.578 67.92C145.845 67.984 146.106 68.016 146.362 68.016C147.269 68.016 147.962 67.776 148.442 67.296C148.933 66.8267 149.178 66.2027 149.178 65.424V63.936L149.354 64.016C149.29 64.3147 149.157 64.592 148.954 64.848C148.762 65.104 148.522 65.3333 148.234 65.536C147.957 65.728 147.647 65.8827 147.306 66C146.965 66.1067 146.618 66.16 146.266 66.16C145.519 66.16 144.847 65.9733 144.25 65.6C143.653 65.2267 143.178 64.7147 142.826 64.064C142.485 63.4133 142.314 62.672 142.314 61.84C142.314 60.9973 142.485 60.2507 142.826 59.6C143.178 58.9493 143.647 58.4427 144.234 58.08C144.831 57.7067 145.498 57.52 146.234 57.52ZM146.394 58.704C145.85 58.704 145.359 58.8427 144.922 59.12C144.495 59.3867 144.159 59.7547 143.914 60.224C143.679 60.6933 143.562 61.232 143.562 61.84C143.562 62.4267 143.679 62.96 143.914 63.44C144.159 63.9093 144.495 64.2827 144.922 64.56C145.359 64.8373 145.85 64.976 146.394 64.976C146.949 64.976 147.439 64.8427 147.866 64.576C148.293 64.2987 148.629 63.9253 148.874 63.456C149.119 62.9867 149.242 62.448 149.242 61.84C149.242 61.2213 149.119 60.6773 148.874 60.208C148.629 59.7387 148.293 59.3707 147.866 59.104C147.439 58.8373 146.949 58.704 146.394 58.704Z"
        fill="#4F46E5" />
</svg>
