<svg width="202" height="72" viewBox="0 0 202 72" fill="none" xmlns="http://www.w3.org/2000/svg">
<path d="M197.429 39.9999H4.68366C2.71756 39.9999 1.11304 38.6193 1.11304 36.9275V26.0962C1.11304 24.4044 2.71756 23.0238 4.68366 23.0238H197.429C199.396 23.0238 201 24.4044 201 26.0962V36.9275C201 38.6193 199.396 39.9999 197.429 39.9999Z" fill="#DBE5F5" stroke="black" stroke-miterlimit="10"/>
<path d="M16.9097 23.0238V39.9999" stroke="black" stroke-miterlimit="10"/>
<path d="M31.4182 23.0238V39.9999" stroke="black" stroke-miterlimit="10"/>
<path d="M49.678 27.9631V40" stroke="black" stroke-miterlimit="10"/>
<path d="M66.6724 27.9631V40" stroke="black" stroke-miterlimit="10"/>
<path d="M84.5706 27.2047V40" stroke="black" stroke-miterlimit="10"/>
<path d="M101.045 29.402V39.9999" stroke="black" stroke-miterlimit="10"/>
<path d="M121.158 26.6213V39.9999" stroke="black" stroke-miterlimit="10"/>
<path d="M143.509 26.1935V40" stroke="black" stroke-miterlimit="10"/>
<path d="M166.65 25.299V39.9999" stroke="black" stroke-miterlimit="10"/>
<path d="M187.26 26.1935V40" stroke="black" stroke-miterlimit="10"/>
<path d="M46.8531 22.3627C46.8531 21.9154 46.6497 21.5654 46.4915 21.1765C46.0395 20.282 45.0904 19.2319 42.2203 18.7069C40.9774 18.4735 37.8587 18.2207 36.1186 18.1624C33.5197 18.0846 28.3446 18.0846 25.7457 18.1624C24.0056 18.2207 20.9096 18.4735 19.644 18.7069C16.7966 19.2319 15.8474 20.2625 15.3728 21.1765C15.2147 21.5848 15.0113 21.9348 15.0113 22.3627C15.0113 22.3627 14.6045 24.8323 17.8587 24.8323H18.0169H43.7796H43.9378C47.2599 24.8323 46.8531 22.3627 46.8531 22.3627Z" fill="#EAEAEA" stroke="black" stroke-miterlimit="10"/>
<path d="M191.599 21.1181C191.531 20.0681 189.927 19.3097 184.413 19.4458C184.413 19.4458 177.994 19.2319 177.588 19.193C177.158 19.1152 170.672 18.5902 170.175 18.4541L168.774 18.0263C164.141 16.5678 157.655 13.7288 153.746 13.1454C148.639 12.4064 143.26 12.7759 143.26 12.7759C143.26 12.7759 130.22 6.61161 120.593 4.51147C115.961 3.50029 113.045 2.9947 101.52 2.9947C91.486 2.9947 88.5029 4.74482 85.6329 4.74482C79.9154 4.74482 68.8193 2.25577 62.6724 1.80851C50.0849 -3.36405 50.1075 5.60043 49.3391 7.97281C48.9549 9.159 48.164 11.2786 44.9097 12.0175C44.1414 12.1925 39.9832 11.9592 38.5594 12.0953V19.718L47.2826 20.6709C48.6385 21.4487 49.0905 22.4599 49.3617 23.2766C50.1301 25.649 50.5595 29.052 59.1244 28.4103C65.2713 27.9436 79.938 27.0685 85.6555 27.0685C88.503 27.0685 91.5086 28.5464 101.542 28.8186C104.706 28.8964 105.904 29.0131 110.017 28.8964C121.475 28.5659 138.356 27.7297 141.927 27.5547C143.554 27.6908 149.791 28.2353 152.074 28.2353C157.362 28.2742 171.644 27.1269 175.644 26.7963C176.187 26.7574 176.752 26.7768 177.271 26.8741C177.429 26.913 177.655 26.9324 177.904 26.9713C178.13 26.9907 178.898 26.913 179.17 26.9324C182.514 27.2824 188.051 27.9241 188.119 27.9241C195.102 28.5075 195.102 27.4574 195.961 25.8434C196.639 24.4822 200.526 19.9514 191.599 21.1181Z" fill="white"/>
<path d="M106.921 29.1492C105.633 29.1492 104.638 29.1103 103.441 29.0714C102.853 29.052 102.22 29.0325 101.497 29.0131C95.1243 28.8381 91.4859 28.1769 89.0904 27.7297C87.6667 27.4574 86.6271 27.263 85.6102 27.263C80.0508 27.263 65.6102 28.138 59.1017 28.6047C50.8983 29.2076 49.9265 26.0768 49.2034 23.8016C49.1582 23.6461 49.113 23.4711 49.0452 23.3155C48.774 22.4988 48.3446 21.5848 47.1243 20.8459L38.4689 19.9125C38.3333 19.893 38.2429 19.7958 38.2429 19.6986V12.0759C38.2429 11.9592 38.3333 11.862 38.4689 11.862C39.1695 11.8036 40.4576 11.8231 41.7231 11.8425C43.0565 11.862 44.4124 11.8814 44.7966 11.8036C48.0056 11.0841 48.7062 8.9451 49.0452 7.91447C49.1356 7.62278 49.226 7.25332 49.3164 6.78662C49.7457 4.80315 50.3785 1.78906 53.226 0.544534C55.4407 -0.427753 58.6497 -0.0777294 62.7175 1.5946C65.3842 1.78906 68.887 2.35299 72.6158 2.95581C77.4294 3.73364 82.4011 4.53091 85.6102 4.53091C86.5819 4.53091 87.5989 4.31701 88.8644 4.04477C91.2825 3.53918 94.9209 2.78079 101.475 2.78079C113.09 2.78079 116.028 3.30583 120.616 4.29756C129.814 6.30047 142.243 12.0759 143.282 12.562C143.96 12.5231 149 12.2509 153.768 12.9509C156.367 13.3398 160.051 14.6816 163.621 16.0039C165.497 16.6845 167.26 17.3457 168.842 17.8512L170.243 18.2596C170.514 18.3374 173.294 18.5902 175.124 18.7457C176.593 18.8819 177.429 18.9597 177.61 18.9791C177.904 18.9985 182.175 19.1541 184.39 19.2319C189.136 19.1347 191.441 19.6403 191.78 20.8848C194.763 20.5153 196.548 20.7681 197.271 21.6432C198.13 22.7127 197.113 24.3267 196.458 25.3962C196.322 25.6101 196.209 25.8046 196.119 25.9407C196.051 26.0573 196.006 26.1546 195.96 26.2713C195.147 27.8658 194.424 28.6825 188.028 28.1575C188.006 28.1575 187.78 28.138 187.395 28.0797C185.859 27.9047 181.768 27.438 179.079 27.1463C178.966 27.1269 178.695 27.1463 178.469 27.1658C178.198 27.1852 177.972 27.1852 177.836 27.1852C177.588 27.1658 177.362 27.1269 177.181 27.088C176.684 26.9907 176.164 26.9713 175.621 27.0102C171.418 27.3602 157.294 28.5075 152.028 28.4492C149.768 28.4297 143.712 27.9241 141.881 27.7686C138.514 27.9436 121.475 28.7798 109.994 29.1103C108.751 29.1298 107.757 29.1492 106.921 29.1492ZM85.6328 26.8157C86.6949 26.8157 87.757 27.0102 89.2034 27.2824C91.7344 27.7491 95.1695 28.3908 101.52 28.5658C102.266 28.5853 102.876 28.6047 103.463 28.6242C105.407 28.6825 106.831 28.7409 109.972 28.6436C121.475 28.3131 138.559 27.4769 141.881 27.3019C141.904 27.3019 141.904 27.3019 141.927 27.3019C143.734 27.4574 149.791 27.963 152.051 27.9825C157.294 28.0214 171.395 26.8935 175.599 26.5435C176.186 26.4852 176.774 26.524 177.316 26.6213C177.497 26.6602 177.701 26.6796 177.927 26.6991C178.017 26.6991 178.266 26.6991 178.469 26.6796C178.763 26.6602 179.034 26.6407 179.192 26.6602C181.881 26.9519 185.972 27.4185 187.508 27.5936C187.87 27.6325 188.096 27.6519 188.119 27.6713C194.424 28.1964 194.853 27.3991 195.531 26.0573C195.576 25.9601 195.644 25.8434 195.712 25.7268C195.802 25.5712 195.915 25.3767 196.051 25.1434C196.616 24.2294 197.588 22.6932 196.91 21.8571C196.299 21.1181 194.537 20.9431 191.667 21.3126C191.599 21.3126 191.531 21.3126 191.463 21.2737C191.418 21.2348 191.373 21.1765 191.373 21.1181C191.305 20.0292 189.045 19.543 184.458 19.6403C184.186 19.6403 177.994 19.4263 177.61 19.3875C177.429 19.368 176.322 19.2513 175.147 19.1541C172.503 18.9208 170.446 18.7263 170.153 18.6485L168.729 18.2207C167.124 17.7151 165.362 17.054 163.486 16.3734C159.938 15.0705 156.277 13.7287 153.746 13.3593C148.729 12.6203 143.373 12.9898 143.305 12.9898C143.26 12.9898 143.215 12.9898 143.169 12.9704C143.034 12.912 130.062 6.78662 120.571 4.72537C116.028 3.73364 113.113 3.2086 101.565 3.2086C95.0565 3.2086 91.5989 3.92809 89.0678 4.47257C87.7571 4.74481 86.7175 4.95872 85.678 4.95872C82.4011 4.95872 77.4068 4.16144 72.5932 3.38361C68.8644 2.78079 65.339 2.21687 62.6949 2.02241C62.6723 2.02241 62.6271 2.02241 62.6045 2.00297C58.6723 0.388969 55.5989 0.0194994 53.5198 0.933449C50.9209 2.08075 50.2881 4.95872 49.8813 6.8644C49.7909 7.3311 49.7005 7.72001 49.6102 8.03114C49.2486 9.13955 48.5028 11.4342 45 12.2314C44.548 12.3287 43.2825 12.3092 41.7909 12.2898C40.6836 12.2703 39.5311 12.2509 38.8305 12.2898V19.5041L47.3277 20.4375C47.3729 20.4375 47.3955 20.457 47.4407 20.4764C48.8418 21.2931 49.3164 22.3043 49.6102 23.2183C49.6554 23.3738 49.7231 23.5294 49.7683 23.7044C50.4689 25.9601 51.3277 28.7603 59.1243 28.1964C65.6102 27.6908 80.0734 26.8157 85.6328 26.8157Z" fill="black"/>
<path d="M52.0507 14.3899C51.9603 14.3899 51.8699 14.351 51.8247 14.2732C51.0789 13.0093 51.3049 8.14783 51.3275 7.95338C51.3275 7.8367 51.4631 7.73947 51.5987 7.73947C51.7343 7.73947 51.8473 7.85615 51.8473 7.97282C51.7795 9.35347 51.7343 13.1065 52.2993 14.0788C52.3671 14.1955 52.3219 14.3121 52.1863 14.3705C52.1411 14.3899 52.0959 14.3899 52.0507 14.3899Z" fill="black"/>
<path d="M50.7627 26.3101C50.6045 26.2907 50.4915 26.1935 50.5141 26.0768C50.5367 25.8434 51.0791 20.4181 51.8248 19.1541C51.8926 19.0374 52.0508 18.9985 52.1638 19.0569C52.2994 19.1152 52.3446 19.2513 52.2768 19.3486C51.5762 20.5153 51.0339 26.0379 51.0113 26.0962C51.0113 26.2324 50.8983 26.3101 50.7627 26.3101Z" fill="black"/>
<path d="M178.265 22.596C178.152 22.596 178.062 22.5377 178.017 22.4404C177.972 22.3238 178.062 22.2071 178.198 22.1682C179.508 21.8376 182.107 21.3126 184.616 21.5265C185.587 21.6043 186.582 21.5459 187.508 21.332C189.452 20.8848 191.441 20.9042 191.644 20.9237C191.78 20.9431 191.893 21.0403 191.87 21.157C191.847 21.2737 191.734 21.3709 191.599 21.3515C191.418 21.332 189.52 21.3126 187.644 21.7404C186.65 21.9737 185.61 22.0321 184.571 21.9543C182.152 21.7598 179.621 22.2654 178.356 22.596C178.311 22.596 178.288 22.596 178.265 22.596Z" fill="black"/>
<path d="M68.0508 23.9962C64.7062 23.2378 63.3277 22.7516 58.4011 23.4322C53.4746 24.1128 43.6893 24.9101 42.4463 24.6573C41.226 24.4045 39.6893 23.3739 38.2655 23.3739C36.8192 23.3739 35.0113 23.6461 34.1525 24.0156C33.904 24.0156 31.7571 24.1906 31.2147 24.1323C31.7797 23.8017 31.7571 23.2572 31.3503 23.0044C31.1017 22.8489 30.4237 23.3545 29.8136 23.6073C30.5141 23.1406 30.6271 22.3433 30.0396 22.2072C29.8588 22.1683 27.6667 23.3545 27.3503 23.685C27.1695 23.8795 27.0113 26.038 27.1469 26.5241C27.2825 27.0103 27.8475 26.9325 27.8475 26.9325C27.8475 26.9325 27.8927 27.1658 28.3446 27.4964C28.5932 27.7103 31.1921 28.0603 31.1921 28.0603C31.1921 28.0603 33.7006 28.3715 34.6949 28.177C35.6893 28.002 39.3277 27.8659 40.7514 27.8659C42.1751 27.8659 42.3785 28.3326 43.7571 28.5465C45.1356 28.7604 57.8136 29.5188 60.4576 29.5188C63.1017 29.5188 67.8926 27.6909 68.8418 26.8547C69.8135 26.038 68.8192 24.1712 68.0508 23.9962Z" fill="white"/>
<path d="M60.4576 29.7326C57.9039 29.7326 45.2486 28.9936 43.7118 28.7603C43.1017 28.6631 42.6949 28.527 42.3333 28.3908C41.8813 28.2353 41.4971 28.0797 40.7288 28.0797C39.2373 28.0797 35.6666 28.2158 34.7401 28.3908C33.7231 28.5853 31.2599 28.2742 31.1469 28.2742C30.1525 28.138 28.4802 27.8852 28.1638 27.6519C27.87 27.4574 27.7344 27.263 27.6666 27.1463C27.3729 27.1269 27.0113 26.9907 26.8983 26.5629C26.7627 26.0962 26.8757 23.8211 27.1469 23.5294C27.3503 23.2961 29.7005 21.8765 30.1073 21.9737C30.4011 22.0321 30.5819 22.2265 30.6497 22.4793C30.6723 22.6155 30.6723 22.7516 30.6271 22.9071C30.9661 22.7321 31.2599 22.6349 31.5084 22.7905C31.7796 22.946 31.9152 23.1988 31.9152 23.4711C31.9152 23.6072 31.87 23.7433 31.8022 23.86C32.322 23.8405 33.0452 23.8016 33.5423 23.7628C33.8361 23.7433 34.0169 23.7239 34.1299 23.7239C35.0339 23.3738 36.8418 23.0822 38.3107 23.0822C39.2373 23.0822 40.1412 23.4711 41.0226 23.8405C41.5649 24.0739 42.0847 24.2878 42.5367 24.385C43.6892 24.6184 53.4971 23.8211 58.3785 23.1599C62.9435 22.5377 64.4802 22.9071 67.3051 23.5488C67.5762 23.6072 67.8474 23.6655 68.1412 23.7433C68.7062 23.8794 69.2034 24.5795 69.4068 25.2212C69.6327 25.9407 69.4972 26.5824 69.0452 26.9907C68.0282 27.8658 63.1469 29.7326 60.4576 29.7326ZM40.7514 27.6519C41.6101 27.6519 42.0621 27.8075 42.5367 27.9825C42.8757 28.0991 43.2373 28.2353 43.8022 28.3325C45.0904 28.527 57.7683 29.3048 60.4576 29.3048C62.9887 29.3048 67.7344 27.4963 68.661 26.6991C69.1356 26.2907 68.9774 25.6295 68.887 25.3573C68.6836 24.735 68.2542 24.2683 67.983 24.1906C67.6892 24.1322 67.4181 24.0544 67.1469 23.9961C64.3898 23.3738 62.8757 23.0238 58.4463 23.6266C53.8135 24.2489 43.757 25.124 42.4011 24.8323C41.8813 24.735 41.339 24.5017 40.774 24.2683C39.9378 23.9183 39.0791 23.5683 38.2655 23.5683C36.8418 23.5683 35.0791 23.8405 34.2655 24.1906C34.2203 24.21 34.1977 24.21 34.1525 24.21C34.0847 24.21 33.8361 24.2294 33.5649 24.2489C32.5706 24.3072 31.5762 24.3656 31.1921 24.3267C31.0791 24.3072 31.0113 24.2489 30.9661 24.1517C30.9435 24.0544 30.9887 23.9767 31.0791 23.9183C31.2825 23.8016 31.3955 23.6461 31.3955 23.4905C31.3955 23.3738 31.3277 23.2572 31.2147 23.1794C31.1017 23.1988 30.7853 23.3544 30.5819 23.4711C30.3785 23.5877 30.1299 23.7044 29.9039 23.8016C29.7909 23.8405 29.6553 23.8211 29.5875 23.7239C29.5197 23.6266 29.5423 23.51 29.6553 23.4322C30.0395 23.1794 30.1977 22.8099 30.1525 22.596C30.1299 22.4988 30.0847 22.4599 30.0169 22.4404C29.6327 22.5571 27.8022 23.5683 27.5536 23.8211C27.4406 24.0544 27.2825 26.0379 27.3955 26.4852C27.4632 26.7379 27.7344 26.7379 27.8248 26.7379C27.9604 26.7185 28.096 26.7963 28.1186 26.913C28.1186 26.913 28.1864 27.088 28.5254 27.3408C28.5254 27.3408 28.548 27.3408 28.548 27.3602C28.7288 27.4769 30.1073 27.7102 31.2599 27.8658C31.2825 27.8658 33.7231 28.1575 34.6497 27.9825C35.6892 27.7686 39.3955 27.6519 40.7514 27.6519Z" fill="black"/>
<path d="M27.8701 27.1464C27.7571 27.1464 27.6667 27.088 27.6215 27.0103C27.5085 26.7769 27.6441 24.6768 28.1639 24.0934C28.3673 23.86 28.8645 23.7045 29.2939 23.5489C29.4294 23.51 29.5876 23.4517 29.6554 23.4128C29.791 23.3545 29.9266 23.3933 29.9944 23.51C30.0622 23.6267 30.017 23.7434 29.8814 23.8017C29.7684 23.8406 29.6328 23.8989 29.4746 23.9573C29.1809 24.0545 28.7063 24.2101 28.5707 24.3462C28.1865 24.7934 28.0735 26.6019 28.1187 26.8547C28.1639 26.9714 28.0961 27.088 27.9605 27.1269C27.9153 27.1464 27.8927 27.1464 27.8701 27.1464Z" fill="black"/>
<path d="M30.288 28.0798C30.2428 28.0798 30.2202 28.0798 30.175 28.0603L30.0168 28.002C29.1581 27.6325 28.7287 27.4575 28.5253 27.0102C28.2993 26.4852 28.3897 25.4351 28.5705 24.949C28.7061 24.5601 29.6326 23.3739 30.2202 23.4517C30.4462 23.4906 30.6722 23.6267 30.8078 23.8212C30.9886 24.0739 31.0112 24.4045 30.8756 24.7545C30.6948 25.2018 30.4462 25.5129 30.3106 25.6685L30.4914 26.3491L32.1185 26.6991L36.5931 24.8907C36.7287 24.8323 36.8643 24.8907 36.9321 24.9879C36.9999 25.1046 36.9321 25.2212 36.8191 25.2796L32.2541 27.1269C32.2089 27.1464 32.1411 27.1464 32.0733 27.1464L30.1976 26.7575C30.1072 26.738 30.0394 26.6797 30.0168 26.5824L29.7682 25.6685C29.7456 25.5907 29.7682 25.5324 29.836 25.474C29.836 25.474 30.175 25.1435 30.3784 24.6184C30.4914 24.3267 30.4236 24.1517 30.3558 24.0545C30.288 23.9573 30.1976 23.9184 30.1524 23.8989C29.9038 23.9573 29.2033 24.7157 29.0677 25.0851C28.9095 25.5518 28.8643 26.4852 29.0225 26.8547C29.1355 27.1075 29.4066 27.2436 30.2654 27.5936L30.4236 27.652C30.5592 27.7103 30.6044 27.8464 30.5366 27.9436C30.4914 28.0409 30.401 28.0798 30.288 28.0798Z" fill="black"/>
<path d="M30.695 24.5989C30.6046 24.5989 30.5142 24.56 30.469 24.4822C30.4012 24.385 30.4464 24.2489 30.5594 24.1711C30.6498 24.1127 30.7176 24.0933 30.7854 24.0544C30.8758 23.9961 30.9436 23.9572 31.0792 23.8988C31.1922 23.8405 31.3503 23.8794 31.4181 23.9766C31.4859 24.0738 31.4407 24.21 31.3277 24.2683C31.1921 24.3266 31.1244 24.3655 31.0566 24.4044C30.9888 24.4433 30.921 24.4628 30.8306 24.5211C30.7854 24.5794 30.7402 24.5989 30.695 24.5989Z" fill="black"/>
<path d="M32.2316 25.9796C32.1412 25.9796 30.5367 25.9018 29.9943 25.824C29.8587 25.8046 29.7683 25.6879 29.7909 25.5712C29.8135 25.4545 29.9491 25.3767 30.0847 25.3962C30.5141 25.4545 31.757 25.5129 32.1412 25.5518C32.5254 25.2017 33.7005 24.1906 34.2203 24.035C34.3559 23.9961 34.4915 24.0544 34.5367 24.1711C34.5819 24.2878 34.5141 24.4045 34.3785 24.4434C34.0395 24.5406 32.9774 25.3962 32.4124 25.9212C32.3672 25.9601 32.322 25.9796 32.2316 25.9796Z" fill="black"/>
<path d="M68.5933 22.4793C68.5481 22.4793 68.5255 22.4793 68.4803 22.4599C67.4181 22.0321 65.7006 20.4375 65.6102 20.3597L65.5876 20.3403L56.5933 9.85902C56.2995 9.68401 54.3334 8.38115 52.9549 7.13662C52.8645 7.03939 52.8645 6.90327 52.9775 6.82549C53.0905 6.7477 53.2486 6.74771 53.339 6.84493C54.7402 8.1478 56.9097 9.52845 56.9323 9.52845C56.9549 9.54789 56.9775 9.54789 56.9775 9.56734L65.9944 20.068C66.13 20.2042 67.7571 21.6626 68.6837 22.0515C68.8193 22.1098 68.8645 22.2265 68.7967 22.3432C68.7967 22.4404 68.6837 22.4793 68.5933 22.4793Z" fill="black"/>
<path d="M73.1808 22.0904C69.4294 22.5182 69.4294 22.1099 64.8192 22.9266C60.209 23.7239 53.7232 25.7073 51.983 25.7073C50.2429 25.7073 44.3446 25.7462 43.0791 25.8629C39.9152 26.1935 35.8022 28.3325 35.8022 28.6631C35.8022 29.1881 37.113 29.1298 37.113 29.1298C37.113 29.1298 37.2486 29.4603 37.9039 29.4603C38.5819 29.4603 39.9152 28.9742 39.9152 28.9742C39.9152 28.9742 39.5989 29.6742 40.9096 29.577C41.6328 29.5187 44.209 28.7797 44.209 28.7797L45.9491 28.6825C45.9491 28.6825 46.1525 28.6631 47.9604 28.9353C49.7683 29.2075 52.096 29.3242 52.8418 29.3242C53.5876 29.3242 54.5819 28.8964 54.5819 28.8964C54.5819 28.8964 69.9491 28.2936 72.2316 28.2936C74.5141 28.2936 76.9322 27.613 77.7457 26.8741C78.5141 26.174 78.6723 25.5129 77.7457 23.7433L73.1808 22.0904Z" fill="white"/>
<path d="M40.6609 29.8104C40.2316 29.8104 39.9152 29.7131 39.757 29.5187C39.6892 29.4603 39.6666 29.3826 39.644 29.3048C39.1694 29.4603 38.3785 29.6742 37.9039 29.6742C37.4067 29.6742 37.1129 29.4992 36.9547 29.3437C36.6609 29.3437 36.0508 29.3048 35.7344 29.052C35.5988 28.9353 35.531 28.7992 35.531 28.6631C35.531 28.0214 40.1412 25.9407 43.0338 25.649C44.2768 25.5129 50.0169 25.474 51.9604 25.474C52.8417 25.474 55.079 24.9295 57.6779 24.2878C59.983 23.7239 62.5818 23.0821 64.7513 22.7127C67.5536 22.2265 68.6383 22.1876 69.9265 22.1293C70.7852 22.0904 71.644 22.0515 73.1355 21.8765C73.2711 21.8571 73.4067 21.9543 73.4293 22.071C73.4519 22.1876 73.3389 22.3043 73.2033 22.3238C71.6892 22.4988 70.7626 22.5377 69.9491 22.5766C68.6835 22.6349 67.5988 22.6738 64.8417 23.1599C62.6722 23.5294 60.096 24.1711 57.8135 24.735C55.192 25.3767 52.9095 25.9407 51.9604 25.9407C50.0169 25.9407 44.2994 25.9796 43.079 26.0962C40.1638 26.3879 36.435 28.2742 36.0282 28.7214C36.0282 28.7409 36.0508 28.7409 36.0508 28.7603C36.209 28.8964 36.7287 28.9353 37.0451 28.9353C37.1581 28.9353 37.2711 28.9936 37.2937 29.0909C37.2937 29.0909 37.3841 29.2659 37.8361 29.2659C38.3333 29.2659 39.3954 28.9353 39.757 28.7992C39.8474 28.7603 39.9604 28.7797 40.0282 28.8381C40.096 28.8964 40.1186 28.9936 40.096 29.0714C40.096 29.0714 40.0508 29.1881 40.1186 29.2659C40.1412 29.3048 40.2994 29.4215 40.8191 29.3631C41.4067 29.3242 43.3502 28.7797 44.0734 28.5853C44.096 28.5853 44.1186 28.5658 44.1412 28.5658L45.8813 28.4686C45.9265 28.4686 46.2429 28.4686 47.9604 28.7214C49.8135 28.9936 52.1412 29.1103 52.7965 29.1103C53.4745 29.1103 54.4237 28.702 54.4237 28.702C54.4463 28.6825 54.4915 28.6825 54.5366 28.6825C54.6948 28.6825 69.9265 28.0797 72.1864 28.0797C74.4914 28.0797 76.7965 27.3796 77.5197 26.7185C78.1977 26.0768 78.3559 25.5129 77.4745 23.8211C76.5479 22.071 62.9434 4.53091 62.7852 4.35589C62.7174 4.25867 62.74 4.12255 62.853 4.04476C62.966 3.98643 63.1242 4.00587 63.2146 4.1031C63.7796 4.82259 76.9999 21.8571 77.9265 23.6266C78.8304 25.3378 78.8078 26.1546 77.8813 27.0102C76.9773 27.8269 74.4237 28.5075 72.1864 28.5075C70.0169 28.5075 55.5988 29.0714 54.6044 29.1103C54.3785 29.2075 53.4971 29.5381 52.7965 29.5381C51.983 29.5381 49.6327 29.402 47.8926 29.1492C46.2203 28.8964 45.9491 28.8964 45.9265 28.8964L44.2316 28.9936C43.9152 29.0909 41.6101 29.7326 40.8869 29.7909C40.8191 29.8104 40.7287 29.8104 40.6609 29.8104Z" fill="black"/>
<path d="M37.0904 29.3437C37.0226 29.3437 36.9548 29.3242 36.9096 29.2853C36.8192 29.227 36.7966 29.1298 36.8192 29.0131C36.9774 28.5464 39.7344 26.9518 43.5311 26.2323C43.6666 26.2129 43.8022 26.2712 43.8474 26.4074C43.87 26.524 43.8022 26.6407 43.644 26.6796C40.0734 27.3602 37.6553 28.7797 37.339 29.1298C37.339 29.1881 37.3164 29.2464 37.2712 29.2853C37.226 29.3242 37.1582 29.3437 37.0904 29.3437Z" fill="black"/>
<path d="M39.8926 29.2075C39.8248 29.2075 39.757 29.1881 39.7118 29.1298C39.6214 29.0325 39.6214 28.8964 39.7344 28.8186C40.0282 28.5853 42.1525 27.3796 45.4067 27.2046C45.5423 27.2046 45.6779 27.2824 45.6779 27.4185C45.6779 27.5352 45.5875 27.6519 45.4293 27.6519C42.3785 27.8269 40.322 28.9547 40.0734 29.1492C40.0282 29.1881 39.9604 29.2075 39.8926 29.2075Z" fill="black"/>
<path d="M177.542 22.6349C174.853 22.6349 166.83 21.9349 165.814 21.7015C160.028 20.3792 149.294 19.8542 144.277 20.3209C143.96 20.3403 141.316 20.0097 135.802 19.2902C125.994 18.0263 111.169 16.1011 106.853 16.1011C106.717 16.1011 106.604 16.0039 106.604 15.8872C106.604 15.7706 106.717 15.6733 106.853 15.6733C111.215 15.6733 126.062 17.5985 135.87 18.8624C140.096 19.4069 143.757 19.8931 144.186 19.8931H144.209C149.362 19.4069 159.983 19.9125 165.927 21.2737C167.124 21.5459 177.316 22.3627 178.153 22.1488C178.288 22.1099 178.424 22.1876 178.469 22.3043C178.514 22.421 178.424 22.5377 178.288 22.5766C178.198 22.6155 177.927 22.6349 177.542 22.6349Z" fill="black"/>
<path d="M29.5878 8.77C29.0454 9.12002 29.3618 9.48949 29.6104 9.74229C28.4126 9.70339 27.8024 9.68395 26.9663 9.68395C23.0567 9.68395 19.8702 12.4064 19.8702 15.8871C19.8702 19.3679 23.0567 22.0903 26.9663 22.0903C27.8024 22.0903 28.4126 22.0903 29.6104 22.032C29.3618 22.3042 29.0454 22.6543 29.5878 23.0043C30.2657 23.4321 34.1753 23.0432 34.7403 21.8764C34.7629 21.8375 34.7855 21.7792 34.8081 21.7014C35.2375 21.6042 35.9832 21.3708 36.3448 21.2347C38.1753 20.593 41.068 18.7846 41.068 15.8871C41.068 13.0092 38.1753 11.2007 36.3448 10.5396C35.9832 10.4034 35.2149 10.1701 34.8081 10.0729C34.7855 9.99508 34.7629 9.93674 34.7403 9.89785C34.1527 8.73111 30.2431 8.34219 29.5878 8.77Z" fill="white"/>
<path d="M30.6724 23.3932C30.13 23.3932 29.6555 23.3349 29.4295 23.1793C29.2035 23.0238 29.0679 22.8487 29.0453 22.6543C29.0227 22.5182 29.0679 22.3821 29.1357 22.2654C28.2543 22.3043 27.7346 22.3043 26.9888 22.3043C22.8758 22.3043 19.6442 19.4846 19.6442 15.8872C19.6442 12.2897 22.8758 9.47008 26.9888 9.47008C27.7346 9.47008 28.2769 9.47008 29.1357 9.50897C29.0679 9.3923 29.0453 9.25618 29.0453 9.12006C29.0679 8.9256 29.2035 8.75059 29.4295 8.59502C29.9493 8.26445 31.599 8.36167 32.8419 8.63391C33.6555 8.82837 34.6724 9.17839 34.9888 9.8201C35.0114 9.859 35.0114 9.87844 35.034 9.91733C35.486 10.034 36.1187 10.2479 36.4577 10.3646C38.7176 11.1619 41.3391 13.087 41.3391 15.9066C41.3391 18.7263 38.7176 20.6514 36.4577 21.4487C36.1187 21.5653 35.4634 21.7792 35.034 21.8959C35.034 21.9348 35.0114 21.9542 34.9888 21.9931C34.6724 22.6348 33.6555 22.9849 32.8419 23.1793C32.1413 23.296 31.3504 23.3932 30.6724 23.3932ZM29.6103 21.8181C29.7007 21.8181 29.7911 21.857 29.8363 21.9348C29.8815 22.0126 29.8589 22.1098 29.8137 22.1681C29.6781 22.3043 29.5425 22.4793 29.5425 22.596C29.5425 22.6737 29.6103 22.7515 29.7233 22.8099C29.9944 22.9849 31.3504 23.0043 32.6837 22.6932C33.6555 22.4598 34.3108 22.1293 34.4916 21.7598C34.4916 21.7403 34.5368 21.682 34.5368 21.6237C34.5594 21.5459 34.6272 21.4681 34.7176 21.4487C35.1244 21.3514 35.8702 21.1181 36.2317 20.982C37.9267 20.3791 40.7967 18.629 40.7967 15.8483C40.7967 13.0675 37.9493 11.3563 36.2543 10.7535C35.8928 10.6174 35.147 10.384 34.7402 10.2868C34.6498 10.2674 34.582 10.1896 34.5594 10.1118C34.5368 10.0535 34.5142 9.99512 34.5142 9.97567C34.3334 9.6062 33.6781 9.27562 32.7063 9.04227C31.373 8.73114 30.017 8.75059 29.7459 8.9256C29.6329 9.00338 29.5651 9.08117 29.5651 9.1395C29.5425 9.27562 29.6781 9.43119 29.8363 9.56731C29.9041 9.62565 29.9041 9.72288 29.8589 9.80066C29.8137 9.87844 29.7233 9.91733 29.6103 9.91733C28.4351 9.87844 27.8476 9.859 26.9662 9.859C23.1244 9.859 20.1187 12.4842 20.1187 15.8483C20.1187 19.2124 23.1244 21.8376 26.9662 21.8376C27.825 21.8765 28.4125 21.857 29.6103 21.8181Z" fill="black"/>
<path d="M34.8079 10.3063H34.7853C33.1582 10.1507 31.6441 9.99517 29.6102 9.97572C29.4746 9.97572 29.3616 9.8785 29.3616 9.74238C29.3616 9.6257 29.4746 9.52847 29.6102 9.52847C31.6667 9.56736 33.2034 9.70348 34.8305 9.8785C34.9661 9.89794 35.0791 9.99517 35.0565 10.1313C35.0339 10.2285 34.9209 10.3063 34.8079 10.3063Z" fill="black"/>
<path d="M29.6103 22.2654C29.4747 22.2654 29.3617 22.1682 29.3617 22.0515C29.3617 21.9348 29.4747 21.8376 29.6103 21.8181C31.6442 21.7792 33.1583 21.6431 34.7854 21.4876C34.921 21.4681 35.0566 21.5653 35.0792 21.682C35.1018 21.7987 34.9888 21.9154 34.8532 21.9348C33.2035 22.0709 31.6668 22.2265 29.6103 22.2654Z" fill="black"/>
<path d="M197.316 39.9916H4.57062C2.60452 39.9916 1 38.6109 1 36.9192V26.0879C1 24.3961 2.60452 23.0155 4.57062 23.0155H197.316C199.282 23.0155 200.887 24.3961 200.887 26.0879V36.9192C200.887 38.6109 199.282 39.9916 197.316 39.9916Z" fill="#4B80FB" stroke="black" stroke-miterlimit="10"/>
<path d="M16.7966 23.0155V39.9916" stroke="black" stroke-miterlimit="10"/>
<path d="M31.3052 23.0155V39.9916" stroke="black" stroke-miterlimit="10"/>
<path d="M49.5649 27.9546V39.9915" stroke="black" stroke-miterlimit="10"/>
<path d="M66.5593 27.9546V39.9915" stroke="black" stroke-miterlimit="10"/>
<path d="M84.4575 27.1962V39.9915" stroke="black" stroke-miterlimit="10"/>
<path d="M100.932 29.3937V39.9916" stroke="black" stroke-miterlimit="10"/>
<path d="M121.045 26.6129V39.9916" stroke="black" stroke-miterlimit="10"/>
<path d="M143.396 26.1851V39.9915" stroke="black" stroke-miterlimit="10"/>
<path d="M166.537 25.2906V39.9916" stroke="black" stroke-miterlimit="10"/>
<path d="M187.147 26.1851V39.9915" stroke="black" stroke-miterlimit="10"/>
<path d="M46.74 22.3543C46.74 21.9071 46.5367 21.557 46.3785 21.1681C45.9265 20.2736 44.9773 19.2235 42.1073 18.6985C40.8643 18.4652 37.7457 18.2124 36.0056 18.154C33.4067 18.0762 28.2316 18.0762 25.6327 18.154C23.8926 18.2124 20.7965 18.4652 19.531 18.6985C16.6835 19.2235 15.7344 20.2542 15.2598 21.1681C15.1016 21.5765 14.8982 21.9265 14.8982 22.3543C14.8982 22.3543 14.4914 24.8239 17.7457 24.8239H17.9039H43.6666H43.8248C47.1468 24.8239 46.74 22.3543 46.74 22.3543Z" fill="#FFEA9D" stroke="black" stroke-miterlimit="10"/>
<path d="M191.486 21.1098C191.418 20.0597 189.814 19.3013 184.3 19.4375C184.3 19.4375 177.881 19.2235 177.475 19.1847C177.045 19.1069 170.559 18.5818 170.062 18.4457L168.661 18.0179C164.028 16.5595 157.542 13.7204 153.633 13.137C148.526 12.3981 143.147 12.7676 143.147 12.7676C143.147 12.7676 130.107 6.60326 120.48 4.50312C115.848 3.49195 112.932 2.98636 101.407 2.98636C91.373 2.98636 88.3899 4.73647 85.5199 4.73647C79.8023 4.73647 68.7063 2.24742 62.5594 1.80017C49.9718 -3.3724 49.9944 5.59209 49.2261 7.96447C48.8419 9.15066 48.0509 11.2702 44.7967 12.0092C44.0283 12.1842 39.8701 11.9508 38.4464 12.087V19.7097L47.1696 20.6625C48.5255 21.4404 48.9775 22.4515 49.2487 23.2683C50.017 25.6406 50.4464 29.0436 59.0114 28.4019C65.1583 27.9352 79.8249 27.0602 85.5425 27.0602C88.3899 27.0602 91.3956 28.5381 101.429 28.8103C104.593 28.8881 105.791 29.0048 109.904 28.8881C121.362 28.5575 138.243 27.7213 141.814 27.5463C143.441 27.6824 149.678 28.2269 151.961 28.2269C157.249 28.2658 171.531 27.1185 175.531 26.7879C176.074 26.749 176.638 26.7685 177.158 26.8657C177.316 26.9046 177.542 26.9241 177.791 26.963C178.017 26.9824 178.785 26.9046 179.057 26.9241C182.401 27.2741 187.938 27.9158 188.006 27.9158C194.989 28.4992 194.989 27.4491 195.848 25.8351C196.525 24.4739 200.413 19.943 191.486 21.1098Z" fill="#C2D5FF"/>
<path d="M106.808 29.1409C105.52 29.1409 104.525 29.102 103.328 29.0631C102.74 29.0436 102.107 29.0242 101.384 29.0048C95.0112 28.8297 91.3728 28.1686 88.9773 27.7213C87.5536 27.4491 86.514 27.2546 85.4971 27.2546C79.9378 27.2546 65.4971 28.1297 58.9886 28.5964C50.7852 29.1992 49.8135 26.0684 49.0903 23.7933C49.0451 23.6377 48.9999 23.4627 48.9321 23.3072C48.661 22.4904 48.2316 21.5765 47.0112 20.8375L38.3559 19.9041C38.2203 19.8847 38.1299 19.7875 38.1299 19.6902V12.0675C38.1299 11.9508 38.2203 11.8536 38.3559 11.8536C39.0564 11.7953 40.3446 11.8147 41.6101 11.8342C42.9434 11.8536 44.2994 11.8731 44.6836 11.7953C47.8926 11.0758 48.5932 8.93675 48.9321 7.90612C49.0225 7.61444 49.1129 7.24497 49.2033 6.77827C49.6327 4.79481 50.2655 1.78072 53.1129 0.536188C55.3276 -0.436099 58.5367 -0.086076 62.6045 1.58626C65.2711 1.78072 68.7739 2.34464 72.5028 2.94746C77.3163 3.72529 82.2881 4.52256 85.4971 4.52256C86.4689 4.52256 87.4858 4.30866 88.7513 4.03642C91.1694 3.53083 94.8078 2.77245 101.362 2.77245C112.977 2.77245 115.915 3.29748 120.503 4.28922C129.7 6.29213 142.13 12.0675 143.169 12.5537C143.847 12.5148 148.887 12.2425 153.655 12.9426C156.254 13.3315 159.938 14.6732 163.508 15.9956C165.384 16.6762 167.147 17.3373 168.729 17.8429L170.13 18.2513C170.401 18.329 173.181 18.5818 175.011 18.7374C176.48 18.8735 177.316 18.9513 177.497 18.9708C177.791 18.9902 182.062 19.1458 184.277 19.2235C189.023 19.1263 191.328 19.6319 191.667 20.8764C194.65 20.507 196.435 20.7598 197.158 21.6348C198.017 22.7043 197 24.3183 196.345 25.3878C196.209 25.6018 196.096 25.7962 196.006 25.9323C195.938 26.049 195.893 26.1462 195.847 26.2629C195.034 27.8575 194.311 28.6742 187.915 28.1491C187.893 28.1491 187.667 28.1297 187.282 28.0714C185.746 27.8963 181.655 27.4297 178.966 27.138C178.853 27.1185 178.582 27.138 178.356 27.1574C178.085 27.1769 177.859 27.1769 177.723 27.1769C177.474 27.1574 177.248 27.1185 177.068 27.0796C176.571 26.9824 176.051 26.963 175.508 27.0018C171.305 27.3519 157.181 28.4992 151.915 28.4408C149.655 28.4214 143.599 27.9158 141.768 27.7602C138.401 27.9352 121.361 28.7714 109.881 29.102C108.638 29.1214 107.644 29.1409 106.808 29.1409ZM85.5197 26.8074C86.5818 26.8074 87.644 27.0018 89.0903 27.2741C91.6214 27.7408 95.0564 28.3825 101.407 28.5575C102.152 28.5769 102.763 28.5964 103.35 28.6158C105.294 28.6742 106.717 28.7325 109.859 28.6353C121.362 28.3047 138.446 27.4685 141.768 27.2935C141.791 27.2935 141.791 27.2935 141.813 27.2935C143.621 27.4491 149.678 27.9547 151.938 27.9741C157.181 28.013 171.282 26.8852 175.486 26.5351C176.073 26.4768 176.661 26.5157 177.203 26.6129C177.384 26.6518 177.587 26.6713 177.813 26.6907C177.904 26.6907 178.152 26.6907 178.356 26.6713C178.65 26.6518 178.921 26.6324 179.079 26.6518C181.768 26.9435 185.859 27.4102 187.395 27.5852C187.757 27.6241 187.983 27.6436 188.006 27.663C194.311 28.188 194.74 27.3908 195.418 26.049C195.463 25.9518 195.531 25.8351 195.599 25.7184C195.689 25.5629 195.802 25.3684 195.938 25.1351C196.503 24.2211 197.474 22.6849 196.797 21.8487C196.186 21.1098 194.424 20.9348 191.554 21.3042C191.486 21.3042 191.418 21.3042 191.35 21.2653C191.305 21.2265 191.26 21.1681 191.26 21.1098C191.192 20.0208 188.932 19.5347 184.345 19.6319C184.073 19.6319 177.881 19.418 177.497 19.3791C177.316 19.3597 176.209 19.243 175.034 19.1458C172.39 18.9124 170.333 18.718 170.039 18.6402L168.616 18.2124C167.011 17.7068 165.248 17.0456 163.373 16.365C159.825 15.0622 156.164 13.7204 153.633 13.3509C148.616 12.612 143.26 12.9815 143.192 12.9815C143.147 12.9815 143.102 12.9815 143.056 12.962C142.921 12.9037 129.949 6.77827 120.458 4.71702C115.915 3.72529 113 3.20025 101.452 3.20025C94.9434 3.20025 91.4858 3.91975 88.9547 4.46423C87.644 4.73647 86.6044 4.95037 85.5649 4.95037C82.2881 4.95037 77.2937 4.1531 72.4802 3.37527C68.7513 2.77245 65.2259 2.20852 62.5819 2.01406C62.5593 2.01406 62.5141 2.01406 62.4915 1.99462C58.5593 0.380622 55.4858 0.0111528 53.4067 0.925103C50.8078 2.0724 50.1751 4.95037 49.7683 6.85605C49.6779 7.32275 49.5875 7.71167 49.4971 8.0228C49.1355 9.13121 48.3898 11.4258 44.8869 12.2231C44.435 12.3203 43.1694 12.3009 41.6779 12.2814C40.5706 12.262 39.418 12.2425 38.7175 12.2814V19.4958L47.2146 20.4292C47.2598 20.4292 47.2824 20.4486 47.3276 20.4681C48.7287 21.2848 49.2033 22.296 49.4971 23.2099C49.5423 23.3655 49.6101 23.5211 49.6553 23.6961C50.3559 25.9518 51.2146 28.752 59.0112 28.188C65.4971 27.6824 79.9604 26.8074 85.5197 26.8074Z" fill="black"/>
<path d="M51.9376 14.3816C51.8472 14.3816 51.7568 14.3427 51.7116 14.2649C50.9659 13.0009 51.1919 8.13949 51.2145 7.94503C51.2145 7.82835 51.3501 7.73112 51.4857 7.73112C51.6212 7.73112 51.7342 7.8478 51.7342 7.96447C51.6664 9.34512 51.6212 13.0981 52.1862 14.0704C52.254 14.1871 52.2088 14.3038 52.0732 14.3621C52.028 14.3816 51.9828 14.3816 51.9376 14.3816Z" fill="black"/>
<path d="M50.6497 26.3018C50.4915 26.2823 50.3785 26.1851 50.4011 26.0684C50.4237 25.8351 50.966 20.4097 51.7118 19.1458C51.7796 19.0291 51.9378 18.9902 52.0508 19.0485C52.1864 19.1069 52.2316 19.243 52.1638 19.3402C51.4632 20.507 50.9208 26.0295 50.8982 26.0879C50.8982 26.224 50.7853 26.3018 50.6497 26.3018Z" fill="black"/>
<path d="M178.152 22.5876C178.039 22.5876 177.949 22.5293 177.904 22.4321C177.859 22.3154 177.949 22.1987 178.085 22.1598C179.395 21.8293 181.994 21.3042 184.503 21.5181C185.474 21.5959 186.469 21.5376 187.395 21.3237C189.339 20.8764 191.328 20.8959 191.531 20.9153C191.667 20.9348 191.78 21.032 191.757 21.1487C191.734 21.2653 191.621 21.3626 191.486 21.3431C191.305 21.3237 189.407 21.3042 187.531 21.732C186.537 21.9654 185.497 22.0237 184.457 21.9459C182.039 21.7515 179.508 22.2571 178.243 22.5876C178.198 22.5876 178.175 22.5876 178.152 22.5876Z" fill="black"/>
<path d="M67.9378 23.9878C64.5932 23.2294 63.2147 22.7433 58.2881 23.4239C53.3616 24.1045 43.5762 24.9018 42.3333 24.649C41.113 24.3962 39.5762 23.3656 38.1525 23.3656C36.7062 23.3656 34.8983 23.6378 34.0395 24.0073C33.7909 24.0073 31.644 24.1823 31.1017 24.1239C31.6666 23.7934 31.644 23.2489 31.2373 22.9961C30.9887 22.8405 30.3107 23.3461 29.7005 23.5989C30.4011 23.1322 30.5141 22.3349 29.9265 22.1988C29.7457 22.1599 27.5536 23.3461 27.2373 23.6767C27.0565 23.8711 26.8983 26.0296 27.0339 26.5158C27.1695 27.0019 27.7344 26.9241 27.7344 26.9241C27.7344 26.9241 27.7796 27.1575 28.2316 27.4881C28.4802 27.702 31.0791 28.052 31.0791 28.052C31.0791 28.052 33.5875 28.3631 34.5819 28.1687C35.5762 27.9936 39.2147 27.8575 40.6384 27.8575C42.0621 27.8575 42.2655 28.3242 43.644 28.5381C45.0226 28.752 57.7005 29.5104 60.3446 29.5104C62.9887 29.5104 67.7796 27.6825 68.7288 26.8463C69.7005 26.0296 68.7062 24.1628 67.9378 23.9878Z" fill="#C2D5FF"/>
<path d="M60.3445 29.7243C57.7909 29.7243 45.1355 28.9853 43.5988 28.752C42.9886 28.6547 42.5818 28.5186 42.2203 28.3825C41.7683 28.2269 41.3841 28.0714 40.6157 28.0714C39.1242 28.0714 35.5536 28.2075 34.627 28.3825C33.6101 28.577 31.1468 28.2658 31.0338 28.2658C30.0395 28.1297 28.3672 27.8769 28.0508 27.6436C27.757 27.4491 27.6214 27.2546 27.5536 27.138C27.2598 27.1185 26.8982 26.9824 26.7852 26.5546C26.6496 26.0879 26.7626 23.8127 27.0338 23.5211C27.2372 23.2877 29.5875 21.8682 29.9943 21.9654C30.2881 22.0237 30.4689 22.2182 30.5366 22.471C30.5592 22.6071 30.5593 22.7432 30.5141 22.8988C30.853 22.7238 31.1468 22.6266 31.3954 22.7821C31.6666 22.9377 31.8022 23.1905 31.8022 23.4627C31.8022 23.5988 31.757 23.735 31.6892 23.8516C32.209 23.8322 32.9321 23.7933 33.4293 23.7544C33.7231 23.735 33.9039 23.7155 34.0169 23.7155C34.9208 23.3655 36.7287 23.0738 38.1977 23.0738C39.1242 23.0738 40.0282 23.4627 40.9095 23.8322C41.4519 24.0655 41.9717 24.2794 42.4237 24.3767C43.5762 24.61 53.3841 23.8127 58.2654 23.1516C62.8304 22.5293 64.3671 22.8988 67.192 23.5405C67.4632 23.5988 67.7344 23.6572 68.0282 23.735C68.5931 23.8711 69.0903 24.5711 69.2937 25.2128C69.5197 25.9323 69.3841 26.574 68.9321 26.9824C67.9152 27.8575 63.0338 29.7243 60.3445 29.7243ZM40.6383 27.6436C41.4971 27.6436 41.9491 27.7991 42.4237 27.9741C42.7626 28.0908 43.1242 28.2269 43.6892 28.3242C44.9773 28.5186 57.6553 29.2964 60.3445 29.2964C62.8756 29.2964 67.6214 27.488 68.5479 26.6907C69.0225 26.2824 68.8643 25.6212 68.7739 25.349C68.5705 24.7267 68.1412 24.26 67.87 24.1822C67.5762 24.1239 67.305 24.0461 67.0338 23.9878C64.2768 23.3655 62.7626 23.0155 58.3332 23.6183C53.7005 24.2406 43.644 25.1156 42.2881 24.8239C41.7683 24.7267 41.2259 24.4933 40.6609 24.26C39.8248 23.91 38.966 23.56 38.1525 23.56C36.7287 23.56 34.966 23.8322 34.1525 24.1822C34.1073 24.2017 34.0847 24.2017 34.0395 24.2017C33.9717 24.2017 33.7231 24.2211 33.4519 24.2406C32.4576 24.2989 31.4632 24.3572 31.079 24.3183C30.966 24.2989 30.8982 24.2406 30.853 24.1433C30.8304 24.0461 30.8756 23.9683 30.966 23.91C31.1694 23.7933 31.2824 23.6377 31.2824 23.4822C31.2824 23.3655 31.2146 23.2488 31.1016 23.171C30.9886 23.1905 30.6722 23.346 30.4689 23.4627C30.2655 23.5794 30.0169 23.6961 29.7909 23.7933C29.6779 23.8322 29.5423 23.8127 29.4745 23.7155C29.4067 23.6183 29.4293 23.5016 29.5423 23.4238C29.9265 23.171 30.0847 22.8016 30.0395 22.5877C30.0169 22.4904 29.9717 22.4515 29.9039 22.4321C29.5197 22.5488 27.6892 23.56 27.4406 23.8127C27.3276 24.0461 27.1694 26.0296 27.2824 26.4768C27.3502 26.7296 27.6214 26.7296 27.7118 26.7296C27.8474 26.7102 27.983 26.7879 28.0056 26.9046C28.0056 26.9046 28.0734 27.0796 28.4124 27.3324C28.4124 27.3324 28.435 27.3324 28.435 27.3519C28.6157 27.4685 29.9943 27.7019 31.1468 27.8575C31.1694 27.8575 33.6101 28.1491 34.5366 27.9741C35.5762 27.7602 39.2824 27.6436 40.6383 27.6436Z" fill="black"/>
<path d="M27.7571 27.138C27.6441 27.138 27.5537 27.0797 27.5085 27.0019C27.3955 26.7685 27.5311 24.6684 28.0509 24.085C28.2543 23.8517 28.7514 23.6961 29.1808 23.5406C29.3164 23.5017 29.4746 23.4433 29.5424 23.4044C29.678 23.3461 29.8136 23.385 29.8814 23.5017C29.9492 23.6183 29.904 23.735 29.7684 23.7934C29.6554 23.8322 29.5198 23.8906 29.3616 23.9489C29.0678 24.0461 28.5932 24.2017 28.4576 24.3378C28.0735 24.7851 27.9605 26.5935 28.0057 26.8463C28.0509 26.963 27.9831 27.0797 27.8475 27.1186C27.8023 27.138 27.7797 27.138 27.7571 27.138Z" fill="black"/>
<path d="M30.175 28.0714C30.1298 28.0714 30.1072 28.0714 30.062 28.052L29.9038 27.9936C29.045 27.6242 28.6156 27.4492 28.4123 27.0019C28.1863 26.4769 28.2767 25.4268 28.4575 24.9407C28.593 24.5517 29.5196 23.3656 30.1072 23.4433C30.3332 23.4822 30.5591 23.6183 30.6947 23.8128C30.8755 24.0656 30.8981 24.3962 30.7625 24.7462C30.5817 25.1935 30.3332 25.5046 30.1976 25.6602L30.3784 26.3408L32.0055 26.6908L36.4801 24.8823C36.6156 24.824 36.7512 24.8823 36.819 24.9796C36.8868 25.0962 36.819 25.2129 36.706 25.2712L32.1411 27.1186C32.0959 27.138 32.0281 27.138 31.9603 27.138L30.0846 26.7491C29.9942 26.7297 29.9264 26.6713 29.9038 26.5741L29.6552 25.6602C29.6326 25.5824 29.6552 25.524 29.723 25.4657C29.723 25.4657 30.062 25.1351 30.2654 24.6101C30.3784 24.3184 30.3106 24.1434 30.2428 24.0462C30.175 23.9489 30.0846 23.91 30.0394 23.8906C29.7908 23.9489 29.0902 24.7073 28.9546 25.0768C28.7964 25.5435 28.7512 26.4769 28.9094 26.8463C29.0224 27.0991 29.2936 27.2353 30.1524 27.5853L30.3106 27.6436C30.4462 27.702 30.4914 27.8381 30.4236 27.9353C30.3784 28.0325 30.288 28.0714 30.175 28.0714Z" fill="black"/>
<path d="M30.5819 24.5905C30.4915 24.5905 30.4011 24.5516 30.356 24.4738C30.2882 24.3766 30.3334 24.2405 30.4463 24.1627C30.5367 24.1044 30.6045 24.0849 30.6723 24.046C30.7627 23.9877 30.8305 23.9488 30.9661 23.8905C31.0791 23.8321 31.2373 23.871 31.3051 23.9683C31.3729 24.0655 31.3277 24.2016 31.2147 24.2599C31.0791 24.3183 31.0113 24.3572 30.9435 24.3961C30.8757 24.435 30.8079 24.4544 30.7175 24.5127C30.6723 24.5711 30.6271 24.5905 30.5819 24.5905Z" fill="black"/>
<path d="M32.1186 25.9712C32.0282 25.9712 30.4237 25.8934 29.8813 25.8157C29.7457 25.7962 29.6553 25.6795 29.6779 25.5629C29.7005 25.4462 29.8361 25.3684 29.9717 25.3878C30.4011 25.4462 31.644 25.5045 32.0282 25.5434C32.4124 25.1934 33.5875 24.1822 34.1073 24.0266C34.2429 23.9878 34.3785 24.0461 34.4237 24.1628C34.4689 24.2794 34.4011 24.3961 34.2655 24.435C33.9265 24.5322 32.8643 25.3878 32.2994 25.9129C32.2542 25.9518 32.209 25.9712 32.1186 25.9712Z" fill="black"/>
<path d="M68.4802 22.471C68.435 22.471 68.4124 22.471 68.3672 22.4515C67.3051 22.0237 65.5876 20.4292 65.4972 20.3514L65.4746 20.3319L56.4802 9.85068C56.1865 9.67567 54.2203 8.3728 52.8418 7.12827C52.7514 7.03104 52.7514 6.89492 52.8644 6.81714C52.9774 6.73936 53.1356 6.73936 53.226 6.83659C54.6271 8.13945 56.7966 9.5201 56.8192 9.5201C56.8418 9.53954 56.8644 9.53954 56.8644 9.55899L65.8814 20.0597C66.017 20.1958 67.6441 21.6542 68.5706 22.0432C68.7062 22.1015 68.7514 22.2182 68.6836 22.3348C68.6836 22.4321 68.5706 22.471 68.4802 22.471Z" fill="black"/>
<path d="M73.0677 22.0821C69.3163 22.5099 69.3163 22.1015 64.7062 22.9182C60.096 23.7155 53.6101 25.699 51.87 25.699C50.1299 25.699 44.2316 25.7379 42.966 25.8545C39.8022 26.1851 35.6892 28.3241 35.6892 28.6547C35.6892 29.1798 36.9999 29.1214 36.9999 29.1214C36.9999 29.1214 37.1355 29.452 37.7909 29.452C38.4689 29.452 39.8022 28.9659 39.8022 28.9659C39.8022 28.9659 39.4858 29.6659 40.7966 29.5687C41.5197 29.5103 44.096 28.7714 44.096 28.7714L45.8361 28.6742C45.8361 28.6742 46.0395 28.6547 47.8474 28.927C49.6553 29.1992 51.983 29.3159 52.7288 29.3159C53.4745 29.3159 54.4689 28.8881 54.4689 28.8881C54.4689 28.8881 69.8361 28.2852 72.1186 28.2852C74.4011 28.2852 76.8192 27.6046 77.6327 26.8657C78.4011 26.1657 78.5593 25.5045 77.6327 23.7349L73.0677 22.0821Z" fill="#C2D5FF"/>
<path d="M40.5479 29.802C40.1185 29.802 39.8021 29.7048 39.644 29.5103C39.5762 29.452 39.5536 29.3742 39.531 29.2964C39.0564 29.452 38.2654 29.6659 37.7908 29.6659C37.2937 29.6659 36.9999 29.4909 36.8417 29.3353C36.5479 29.3353 35.9377 29.2964 35.6214 29.0436C35.4858 28.927 35.418 28.7908 35.418 28.6547C35.418 28.013 40.0281 25.9323 42.9208 25.6406C44.1637 25.5045 49.9038 25.4656 51.8473 25.4656C52.7287 25.4656 54.966 24.9211 57.5649 24.2794C59.8699 23.7155 62.4688 23.0738 64.6383 22.7043C67.4406 22.2182 68.5253 22.1793 69.8134 22.121C70.6722 22.0821 71.531 22.0432 73.0225 21.8682C73.1581 21.8487 73.2937 21.9459 73.3163 22.0626C73.3389 22.1793 73.2259 22.296 73.0903 22.3154C71.5762 22.4904 70.6496 22.5293 69.836 22.5682C68.5705 22.6265 67.4858 22.6654 64.7287 23.1516C62.5592 23.521 59.9829 24.1628 57.7004 24.7267C55.079 25.3684 52.7965 25.9323 51.8473 25.9323C49.9038 25.9323 44.1863 25.9712 42.966 26.0879C40.0507 26.3796 36.3219 28.2658 35.9151 28.7131C35.9151 28.7325 35.9377 28.7325 35.9377 28.7519C36.0959 28.8881 36.6157 28.927 36.9321 28.927C37.0451 28.927 37.1581 28.9853 37.1807 29.0825C37.1807 29.0825 37.2711 29.2575 37.7231 29.2575C38.2202 29.2575 39.2824 28.927 39.644 28.7908C39.7344 28.7519 39.8473 28.7714 39.9151 28.8297C39.9829 28.8881 40.0055 28.9853 39.9829 29.0631C39.9829 29.0631 39.9377 29.1798 40.0055 29.2575C40.0281 29.2964 40.1863 29.4131 40.7061 29.3548C41.2937 29.3159 43.2372 28.7714 43.9603 28.5769C43.9829 28.5769 44.0055 28.5575 44.0281 28.5575L45.7682 28.4603C45.8134 28.4603 46.1298 28.4603 47.8473 28.7131C49.7005 28.9853 52.0281 29.102 52.6835 29.102C53.3615 29.102 54.3106 28.6936 54.3106 28.6936C54.3332 28.6742 54.3784 28.6742 54.4236 28.6742C54.5818 28.6742 69.8134 28.0713 72.0733 28.0713C74.3784 28.0713 76.6835 27.3713 77.4067 26.7101C78.0846 26.0684 78.2428 25.5045 77.3615 23.8127C76.4349 22.0626 62.8304 4.52256 62.6722 4.34755C62.6044 4.25032 62.627 4.1142 62.74 4.03642C62.853 3.97808 63.0112 3.99752 63.1016 4.09475C63.6665 4.81425 76.8869 21.8487 77.8134 23.6183C78.7174 25.3295 78.6948 26.1462 77.7682 27.0018C76.8643 27.8186 74.3106 28.4992 72.0733 28.4992C69.9038 28.4992 55.4858 29.0631 54.4914 29.102C54.2654 29.1992 53.3841 29.5298 52.6835 29.5298C51.8699 29.5298 49.5197 29.3937 47.7795 29.1409C46.1072 28.8881 45.836 28.8881 45.8134 28.8881L44.1185 28.9853C43.8021 29.0825 41.4971 29.7242 40.7739 29.7826C40.7061 29.802 40.6157 29.802 40.5479 29.802Z" fill="black"/>
<path d="M36.9773 29.3353C36.9095 29.3353 36.8417 29.3159 36.7965 29.277C36.7061 29.2187 36.6836 29.1214 36.7061 29.0047C36.8643 28.5381 39.6214 26.9435 43.418 26.224C43.5536 26.2046 43.6892 26.2629 43.7344 26.399C43.757 26.5157 43.6892 26.6324 43.531 26.6713C39.9604 27.3519 37.5423 28.7714 37.2259 29.1214C37.2259 29.1798 37.2033 29.2381 37.1581 29.277C37.1129 29.3159 37.0451 29.3353 36.9773 29.3353Z" fill="black"/>
<path d="M39.7796 29.1992C39.7118 29.1992 39.644 29.1798 39.5988 29.1214C39.5084 29.0242 39.5084 28.8881 39.6214 28.8103C39.9152 28.5769 42.0395 27.3713 45.2937 27.1963C45.4293 27.1963 45.5649 27.2741 45.5649 27.4102C45.5649 27.5269 45.4745 27.6435 45.3163 27.6435C42.2654 27.8186 40.2089 28.9464 39.9604 29.1409C39.9152 29.1798 39.8474 29.1992 39.7796 29.1992Z" fill="black"/>
<path d="M177.429 22.6266C174.74 22.6266 166.717 21.9265 165.7 21.6932C159.915 20.3708 149.181 19.8458 144.164 20.3125C143.847 20.332 141.203 20.0014 135.689 19.2819C125.881 18.0179 111.056 16.0928 106.74 16.0928C106.604 16.0928 106.491 15.9956 106.491 15.8789C106.491 15.7622 106.604 15.665 106.74 15.665C111.102 15.665 125.949 17.5901 135.757 18.8541C139.983 19.3986 143.644 19.8847 144.073 19.8847H144.096C149.248 19.3986 159.87 19.9042 165.813 21.2654C167.011 21.5376 177.203 22.3543 178.039 22.1404C178.175 22.1015 178.311 22.1793 178.356 22.296C178.401 22.4126 178.311 22.5293 178.175 22.5682C178.085 22.6071 177.813 22.6266 177.429 22.6266Z" fill="black"/>
<path d="M29.4747 8.76165C28.9323 9.11168 29.2487 9.48114 29.4973 9.73394C28.2996 9.69505 27.6894 9.6756 26.8532 9.6756C22.9436 9.6756 19.7572 12.398 19.7572 15.8788C19.7572 19.3596 22.9436 22.082 26.8532 22.082C27.6894 22.082 28.2996 22.082 29.4973 22.0236C29.2487 22.2959 28.9323 22.6459 29.4747 22.9959C30.1527 23.4237 34.0623 23.0348 34.6273 21.8681C34.6499 21.8292 34.6725 21.7709 34.6951 21.6931C35.1244 21.5958 35.8702 21.3625 36.2318 21.2264C38.0623 20.5847 40.9549 18.7762 40.9549 15.8788C40.9549 13.0008 38.0623 11.1924 36.2318 10.5312C35.8702 10.3951 35.1018 10.1617 34.6951 10.0645C34.6725 9.98673 34.6499 9.9284 34.6273 9.88951C34.0397 8.72276 30.1301 8.33385 29.4747 8.76165Z" fill="#C2D5FF"/>
<path d="M30.5594 23.3849C30.017 23.3849 29.5424 23.3265 29.3164 23.171C29.0905 23.0154 28.9549 22.8404 28.9323 22.6459C28.9097 22.5098 28.9549 22.3737 29.0227 22.257C28.1413 22.2959 27.6215 22.2959 26.8758 22.2959C22.7628 22.2959 19.5311 19.4763 19.5311 15.8788C19.5311 12.2814 22.7628 9.46173 26.8758 9.46173C27.6215 9.46173 28.1639 9.46173 29.0227 9.50063C28.9549 9.38395 28.9323 9.24783 28.9323 9.11171C28.9549 8.91725 29.0905 8.74224 29.3164 8.58668C29.8362 8.2561 31.4859 8.35333 32.7289 8.62557C33.5424 8.82003 34.5594 9.17005 34.8758 9.81176C34.8984 9.85065 34.8984 9.87009 34.921 9.90899C35.3729 10.0257 36.0057 10.2396 36.3447 10.3562C38.6046 11.1535 41.226 13.0786 41.226 15.8983C41.226 18.7179 38.6046 20.643 36.3447 21.4403C36.0057 21.557 35.3503 21.7709 34.921 21.8876C34.921 21.9265 34.8984 21.9459 34.8758 21.9848C34.5594 22.6265 33.5424 22.9765 32.7289 23.171C32.0283 23.2877 31.2373 23.3849 30.5594 23.3849ZM29.4972 21.8098C29.5876 21.8098 29.678 21.8487 29.7232 21.9265C29.7684 22.0042 29.7458 22.1015 29.7006 22.1598C29.565 22.2959 29.4294 22.4709 29.4294 22.5876C29.4294 22.6654 29.4972 22.7432 29.6102 22.8015C29.8814 22.9765 31.2373 22.996 32.5707 22.6848C33.5424 22.4515 34.1978 22.1209 34.3786 21.7514C34.3786 21.732 34.4238 21.6737 34.4238 21.6153C34.4464 21.5375 34.5142 21.4598 34.6046 21.4403C35.0114 21.3431 35.7571 21.1097 36.1187 20.9736C37.8136 20.3708 40.6837 18.6207 40.6837 15.8399C40.6837 13.0592 37.8362 11.348 36.1413 10.7452C35.7797 10.609 35.034 10.3757 34.6272 10.2785C34.5368 10.259 34.469 10.1812 34.4464 10.1034C34.4238 10.0451 34.4012 9.98677 34.4012 9.96732C34.2204 9.59785 33.565 9.26728 32.5933 9.03393C31.2599 8.7228 29.904 8.74224 29.6328 8.91725C29.5198 8.99504 29.452 9.07282 29.452 9.13116C29.4294 9.26728 29.565 9.42284 29.7232 9.55896C29.791 9.6173 29.791 9.71453 29.7458 9.79231C29.7006 9.8701 29.6102 9.90899 29.4972 9.90899C28.3221 9.87009 27.7345 9.85065 26.8532 9.85065C23.0114 9.85065 20.0057 12.4758 20.0057 15.8399C20.0057 19.204 23.0114 21.8292 26.8532 21.8292C27.7119 21.8681 28.2995 21.8487 29.4972 21.8098Z" fill="black"/>
<path d="M34.6949 10.298H34.6723C33.0451 10.1424 31.531 9.98682 29.4971 9.96738C29.3615 9.96738 29.2485 9.87015 29.2485 9.73403C29.2485 9.61735 29.3615 9.52013 29.4971 9.52013C31.5536 9.55902 33.0903 9.69514 34.7175 9.87015C34.8531 9.88959 34.9661 9.98682 34.9435 10.1229C34.9209 10.2202 34.8079 10.298 34.6949 10.298Z" fill="black"/>
<path d="M29.4972 22.257C29.3617 22.257 29.2487 22.1598 29.2487 22.0431C29.2487 21.9265 29.3617 21.8292 29.4972 21.8098C31.5311 21.7709 33.0453 21.6348 34.6724 21.4792C34.808 21.4598 34.9436 21.557 34.9662 21.6737C34.9888 21.7903 34.8758 21.907 34.7402 21.9265C33.0905 22.0626 31.5537 22.2181 29.4972 22.257Z" fill="black"/>
<path d="M60.0554 54.8C60.2367 54.8 60.3807 54.8587 60.4874 54.976C60.594 55.0827 60.6474 55.2213 60.6474 55.392V65.328C60.6474 65.5307 60.5834 65.696 60.4554 65.824C60.3274 65.9413 60.1727 66 59.9914 66C59.8954 66 59.7994 65.984 59.7034 65.952C59.6074 65.9093 59.5327 65.856 59.4794 65.792L52.6314 56.736L52.9514 56.544V65.408C52.9514 65.5787 52.8927 65.7227 52.7754 65.84C52.6687 65.9467 52.5247 66 52.3434 66C52.1727 66 52.034 65.9467 51.9274 65.84C51.8207 65.7227 51.7674 65.5787 51.7674 65.408V55.44C51.7674 55.248 51.826 55.0933 51.9434 54.976C52.0714 54.8587 52.2207 54.8 52.3914 54.8C52.4874 54.8 52.5834 54.8213 52.6794 54.864C52.786 54.896 52.866 54.9493 52.9194 55.024L59.6714 63.952L59.4634 64.208V55.392C59.4634 55.2213 59.5167 55.0827 59.6234 54.976C59.7407 54.8587 59.8847 54.8 60.0554 54.8ZM70.0469 57.648C70.2282 57.648 70.3775 57.712 70.4949 57.84C70.6229 57.9573 70.6869 58.1067 70.6869 58.288V65.344C70.6869 65.5253 70.6229 65.68 70.4949 65.808C70.3775 65.936 70.2282 66 70.0469 66C69.8549 66 69.7002 65.936 69.5829 65.808C69.4655 65.68 69.4069 65.5253 69.4069 65.344V63.824L69.7109 63.792C69.7109 64.0267 69.6309 64.2827 69.4709 64.56C69.3109 64.8373 69.0922 65.0987 68.8149 65.344C68.5375 65.5787 68.2069 65.776 67.8229 65.936C67.4495 66.0853 67.0442 66.16 66.6069 66.16C65.8815 66.16 65.2309 65.9733 64.6549 65.6C64.0789 65.216 63.6202 64.6987 63.2789 64.048C62.9482 63.3973 62.7829 62.656 62.7829 61.824C62.7829 60.9813 62.9482 60.24 63.2789 59.6C63.6202 58.9493 64.0789 58.4427 64.6549 58.08C65.2309 57.7067 65.8709 57.52 66.5749 57.52C67.0335 57.52 67.4602 57.5947 67.8549 57.744C68.2495 57.8933 68.5909 58.096 68.8789 58.352C69.1775 58.608 69.4069 58.8907 69.5669 59.2C69.7375 59.5093 69.8229 59.8187 69.8229 60.128L69.4069 60.032V58.288C69.4069 58.1067 69.4655 57.9573 69.5829 57.84C69.7002 57.712 69.8549 57.648 70.0469 57.648ZM66.7509 64.976C67.2842 64.976 67.7535 64.8373 68.1589 64.56C68.5749 64.2827 68.8949 63.9093 69.1189 63.44C69.3535 62.96 69.4709 62.4213 69.4709 61.824C69.4709 61.2373 69.3535 60.7093 69.1189 60.24C68.8949 59.76 68.5749 59.3867 68.1589 59.12C67.7535 58.8427 67.2842 58.704 66.7509 58.704C66.2282 58.704 65.7589 58.8373 65.3429 59.104C64.9375 59.3707 64.6175 59.7387 64.3829 60.208C64.1482 60.6773 64.0309 61.216 64.0309 61.824C64.0309 62.4213 64.1429 62.96 64.3669 63.44C64.6015 63.9093 64.9215 64.2827 65.3269 64.56C65.7429 64.8373 66.2175 64.976 66.7509 64.976ZM66.9909 56.672C66.6175 56.672 66.2709 56.5973 65.9509 56.448C65.6415 56.288 65.3802 56.0747 65.1669 55.808C64.9642 55.5307 64.8309 55.2213 64.7669 54.88C64.7135 54.7093 64.7242 54.5707 64.7989 54.464C64.8842 54.3573 65.0015 54.304 65.1509 54.304C65.3109 54.304 65.4389 54.3467 65.5349 54.432C65.6309 54.5067 65.7162 54.6133 65.7909 54.752C65.8762 55.0507 66.0255 55.28 66.2389 55.44C66.4522 55.6 66.7029 55.68 66.9909 55.68C67.2895 55.68 67.5402 55.6 67.7429 55.44C67.9562 55.2693 68.1055 55.04 68.1909 54.752C68.2762 54.6133 68.3615 54.5067 68.4469 54.432C68.5429 54.3467 68.6762 54.304 68.8469 54.304C68.9962 54.304 69.1082 54.3573 69.1829 54.464C69.2682 54.5707 69.2842 54.704 69.2309 54.864C69.1669 55.2053 69.0282 55.5147 68.8149 55.792C68.6122 56.0587 68.3509 56.272 68.0309 56.432C67.7215 56.592 67.3749 56.672 66.9909 56.672ZM67.1029 54.496C67.0389 54.496 66.9695 54.48 66.8949 54.448C66.8309 54.4053 66.7669 54.3627 66.7029 54.32L65.3429 53.264C65.2255 53.1893 65.1349 53.1093 65.0709 53.024C65.0175 52.928 64.9909 52.8213 64.9909 52.704C64.9909 52.5227 65.0549 52.384 65.1829 52.288C65.3109 52.1813 65.4442 52.128 65.5829 52.128C65.7215 52.128 65.8389 52.16 65.9349 52.224C66.0309 52.288 66.1162 52.3573 66.1909 52.432L67.3749 53.792C67.4709 53.8987 67.5189 54.0053 67.5189 54.112C67.5189 54.2187 67.4815 54.3093 67.4069 54.384C67.3322 54.4587 67.2309 54.496 67.1029 54.496ZM77.011 57.6C77.7363 57.6 78.323 57.7867 78.771 58.16C79.2297 58.5227 79.5337 59.04 79.683 59.712H79.443L79.555 59.424C79.683 59.1253 79.9017 58.8373 80.211 58.56C80.5203 58.2827 80.8777 58.0533 81.283 57.872C81.6883 57.6907 82.1097 57.6 82.547 57.6C83.251 57.6 83.8057 57.7547 84.211 58.064C84.6163 58.3627 84.9043 58.768 85.075 59.28C85.2563 59.7813 85.347 60.3467 85.347 60.976V65.344C85.347 65.5253 85.283 65.68 85.155 65.808C85.0377 65.936 84.8883 66 84.707 66C84.515 66 84.3603 65.936 84.243 65.808C84.1257 65.68 84.067 65.5253 84.067 65.344V61.008C84.067 60.592 84.003 60.2187 83.875 59.888C83.7577 59.5467 83.5603 59.28 83.283 59.088C83.0163 58.8853 82.6483 58.784 82.179 58.784C81.7417 58.784 81.3417 58.8853 80.979 59.088C80.6163 59.28 80.3283 59.5467 80.115 59.888C79.9017 60.2187 79.795 60.592 79.795 61.008V65.344C79.795 65.5253 79.7363 65.68 79.619 65.808C79.5017 65.936 79.347 66 79.155 66C78.9737 66 78.819 65.936 78.691 65.808C78.5737 65.68 78.515 65.5253 78.515 65.344V60.96C78.515 60.5547 78.4563 60.192 78.339 59.872C78.2323 59.5413 78.0457 59.28 77.779 59.088C77.5123 58.8853 77.1443 58.784 76.675 58.784C76.2483 58.784 75.859 58.8853 75.507 59.088C75.155 59.28 74.8723 59.5413 74.659 59.872C74.4457 60.192 74.339 60.5547 74.339 60.96V65.344C74.339 65.5253 74.275 65.68 74.147 65.808C74.0297 65.936 73.8803 66 73.699 66C73.5177 66 73.363 65.936 73.235 65.808C73.1177 65.68 73.059 65.5253 73.059 65.344V58.368C73.059 58.1867 73.1177 58.0373 73.235 57.92C73.363 57.792 73.5177 57.728 73.699 57.728C73.891 57.728 74.0457 57.792 74.163 57.92C74.2803 58.0373 74.339 58.1867 74.339 58.368V59.584L73.987 59.968C74.0297 59.6907 74.1363 59.4133 74.307 59.136C74.4883 58.8587 74.7177 58.6027 74.995 58.368C75.2723 58.1333 75.5817 57.9467 75.923 57.808C76.2643 57.6693 76.627 57.6 77.011 57.6ZM96.2335 57.52C96.9588 57.52 97.5295 57.6693 97.9455 57.968C98.3615 58.2667 98.6548 58.6667 98.8255 59.168C99.0068 59.6693 99.0975 60.2293 99.0975 60.848V65.344C99.0975 65.5253 99.0335 65.68 98.9055 65.808C98.7882 65.936 98.6388 66 98.4575 66C98.2762 66 98.1215 65.936 97.9935 65.808C97.8762 65.68 97.8175 65.5253 97.8175 65.344V60.88C97.8175 60.4747 97.7535 60.112 97.6255 59.792C97.5082 59.4613 97.3055 59.2 97.0175 59.008C96.7402 58.8053 96.3562 58.704 95.8655 58.704C95.4175 58.704 95.0068 58.8053 94.6335 59.008C94.2602 59.2 93.9615 59.4613 93.7375 59.792C93.5135 60.112 93.4015 60.4747 93.4015 60.88V65.344C93.4015 65.5253 93.3375 65.68 93.2095 65.808C93.0922 65.936 92.9428 66 92.7615 66C92.5802 66 92.4255 65.936 92.2975 65.808C92.1802 65.68 92.1215 65.5253 92.1215 65.344V58.368C92.1215 58.1867 92.1802 58.0373 92.2975 57.92C92.4255 57.792 92.5802 57.728 92.7615 57.728C92.9535 57.728 93.1082 57.792 93.2255 57.92C93.3428 58.0373 93.4015 58.1867 93.4015 58.368V59.504L93.0815 59.856C93.1348 59.5787 93.2575 59.3013 93.4495 59.024C93.6415 58.736 93.8815 58.48 94.1695 58.256C94.4575 58.032 94.7775 57.856 95.1295 57.728C95.4815 57.5893 95.8495 57.52 96.2335 57.52ZM104.937 57.52C105.396 57.52 105.823 57.6 106.217 57.76C106.612 57.9093 106.953 58.1067 107.241 58.352C107.54 58.5973 107.769 58.8533 107.929 59.12C108.1 59.3867 108.185 59.6373 108.185 59.872L107.881 59.68V58.288C107.881 58.1067 107.94 57.9573 108.057 57.84C108.175 57.712 108.329 57.648 108.521 57.648C108.703 57.648 108.852 57.712 108.969 57.84C109.097 57.9573 109.161 58.1067 109.161 58.288V65.296C109.161 66.1707 108.975 66.896 108.601 67.472C108.239 68.048 107.748 68.48 107.129 68.768C106.511 69.056 105.817 69.2 105.049 69.2C104.729 69.2 104.377 69.1573 103.993 69.072C103.609 68.9867 103.268 68.88 102.969 68.752C102.671 68.6347 102.479 68.512 102.393 68.384C102.233 68.2773 102.132 68.1547 102.089 68.016C102.057 67.888 102.084 67.7653 102.169 67.648C102.265 67.4987 102.388 67.424 102.537 67.424C102.697 67.424 102.895 67.472 103.129 67.568C103.225 67.6 103.375 67.6533 103.577 67.728C103.791 67.8027 104.025 67.8667 104.281 67.92C104.548 67.984 104.809 68.016 105.065 68.016C105.972 68.016 106.665 67.776 107.145 67.296C107.636 66.8267 107.881 66.2027 107.881 65.424V63.936L108.057 64.016C107.993 64.3147 107.86 64.592 107.657 64.848C107.465 65.104 107.225 65.3333 106.937 65.536C106.66 65.728 106.351 65.8827 106.009 66C105.668 66.1067 105.321 66.16 104.969 66.16C104.223 66.16 103.551 65.9733 102.953 65.6C102.356 65.2267 101.881 64.7147 101.529 64.064C101.188 63.4133 101.017 62.672 101.017 61.84C101.017 60.9973 101.188 60.2507 101.529 59.6C101.881 58.9493 102.351 58.4427 102.937 58.08C103.535 57.7067 104.201 57.52 104.937 57.52ZM105.097 58.704C104.553 58.704 104.063 58.8427 103.625 59.12C103.199 59.3867 102.863 59.7547 102.617 60.224C102.383 60.6933 102.265 61.232 102.265 61.84C102.265 62.4267 102.383 62.96 102.617 63.44C102.863 63.9093 103.199 64.2827 103.625 64.56C104.063 64.8373 104.553 64.976 105.097 64.976C105.652 64.976 106.143 64.8427 106.569 64.576C106.996 64.2987 107.332 63.9253 107.577 63.456C107.823 62.9867 107.945 62.448 107.945 61.84C107.945 61.2213 107.823 60.6773 107.577 60.208C107.332 59.7387 106.996 59.3707 106.569 59.104C106.143 58.8373 105.652 58.704 105.097 58.704ZM115.528 57.6C116.232 57.6 116.786 57.7547 117.192 58.064C117.608 58.3627 117.901 58.768 118.072 59.28C118.253 59.7813 118.344 60.3413 118.344 60.96V65.344C118.344 65.5253 118.28 65.68 118.152 65.808C118.034 65.936 117.885 66 117.704 66C117.522 66 117.368 65.936 117.24 65.808C117.122 65.68 117.064 65.5253 117.064 65.344V60.96C117.064 60.5547 117.005 60.192 116.888 59.872C116.77 59.5413 116.573 59.28 116.296 59.088C116.029 58.8853 115.661 58.784 115.192 58.784C114.754 58.784 114.354 58.8853 113.992 59.088C113.629 59.28 113.341 59.5413 113.128 59.872C112.914 60.192 112.808 60.5547 112.808 60.96V65.344C112.808 65.5253 112.744 65.68 112.616 65.808C112.498 65.936 112.349 66 112.168 66C111.986 66 111.832 65.936 111.704 65.808C111.586 65.68 111.528 65.5253 111.528 65.344V54.8C111.528 54.6187 111.586 54.4693 111.704 54.352C111.832 54.224 111.986 54.16 112.168 54.16C112.36 54.16 112.514 54.224 112.632 54.352C112.749 54.4693 112.808 54.6187 112.808 54.8V59.584L112.488 59.936C112.541 59.6587 112.658 59.3813 112.84 59.104C113.021 58.816 113.25 58.56 113.528 58.336C113.805 58.112 114.114 57.936 114.456 57.808C114.797 57.6693 115.154 57.6 115.528 57.6ZM121.947 65.344C121.947 65.5253 121.883 65.68 121.755 65.808C121.638 65.936 121.489 66 121.307 66C121.115 66 120.961 65.936 120.843 65.808C120.726 65.68 120.667 65.5253 120.667 65.344V58.24C120.667 58.0587 120.726 57.9093 120.843 57.792C120.971 57.664 121.126 57.6 121.307 57.6C121.489 57.6 121.638 57.664 121.755 57.792C121.883 57.9093 121.947 58.0587 121.947 58.24V65.344ZM121.307 56.528C121.041 56.528 120.843 56.4747 120.715 56.368C120.587 56.2613 120.523 56.096 120.523 55.872V55.648C120.523 55.424 120.593 55.2587 120.731 55.152C120.87 55.0453 121.067 54.992 121.323 54.992C121.579 54.992 121.771 55.0453 121.899 55.152C122.027 55.2587 122.091 55.424 122.091 55.648V55.872C122.091 56.096 122.022 56.2613 121.883 56.368C121.755 56.4747 121.563 56.528 121.307 56.528ZM128.071 66.16C127.217 66.16 126.471 65.9787 125.831 65.616C125.191 65.2533 124.689 64.7573 124.327 64.128C123.975 63.488 123.799 62.752 123.799 61.92C123.799 60.992 123.98 60.2027 124.343 59.552C124.716 58.8907 125.196 58.3893 125.783 58.048C126.38 57.696 127.009 57.52 127.671 57.52C128.161 57.52 128.636 57.6107 129.095 57.792C129.553 57.9733 129.959 58.24 130.311 58.592C130.663 58.9333 130.945 59.3493 131.159 59.84C131.372 60.32 131.484 60.8587 131.495 61.456C131.495 61.6267 131.431 61.7707 131.303 61.888C131.175 62.0053 131.025 62.064 130.855 62.064H124.535L124.247 60.96H130.407L130.151 61.184V60.832C130.108 60.3947 129.959 60.0213 129.703 59.712C129.457 59.392 129.153 59.1467 128.791 58.976C128.439 58.8053 128.065 58.72 127.671 58.72C127.351 58.72 127.031 58.7787 126.711 58.896C126.401 59.0027 126.119 59.184 125.863 59.44C125.617 59.6853 125.415 60.0053 125.255 60.4C125.105 60.7947 125.031 61.2693 125.031 61.824C125.031 62.4427 125.153 62.9867 125.399 63.456C125.655 63.9253 126.007 64.2987 126.455 64.576C126.903 64.8427 127.425 64.976 128.023 64.976C128.396 64.976 128.721 64.928 128.999 64.832C129.276 64.736 129.516 64.6187 129.719 64.48C129.921 64.3307 130.092 64.1813 130.231 64.032C130.369 63.936 130.503 63.888 130.631 63.888C130.791 63.888 130.919 63.9413 131.015 64.048C131.121 64.1547 131.175 64.2827 131.175 64.432C131.175 64.6133 131.089 64.7733 130.919 64.912C130.62 65.2427 130.215 65.536 129.703 65.792C129.191 66.0373 128.647 66.16 128.071 66.16ZM127.927 55.264L126.583 56.384C126.487 56.4693 126.401 56.5387 126.327 56.592C126.263 56.6347 126.167 56.656 126.039 56.656C125.943 56.656 125.863 56.6293 125.799 56.576C125.735 56.512 125.703 56.4427 125.703 56.368C125.703 56.304 125.713 56.2507 125.735 56.208C125.756 56.1547 125.793 56.0907 125.847 56.016L126.887 54.832C127.057 54.6187 127.287 54.512 127.575 54.512H127.943C128.092 54.512 128.209 54.5333 128.295 54.576C128.391 54.6187 128.481 54.704 128.567 54.832L129.559 56.016C129.623 56.08 129.66 56.1387 129.671 56.192C129.692 56.2453 129.703 56.2987 129.703 56.352C129.703 56.4267 129.671 56.496 129.607 56.56C129.553 56.624 129.473 56.656 129.367 56.656C129.249 56.656 129.153 56.6293 129.079 56.576C129.015 56.5227 128.929 56.4587 128.823 56.384L127.431 55.216L127.927 55.264ZM137.53 57.52C138.256 57.52 138.826 57.6693 139.242 57.968C139.658 58.2667 139.952 58.6667 140.122 59.168C140.304 59.6693 140.394 60.2293 140.394 60.848V65.344C140.394 65.5253 140.33 65.68 140.202 65.808C140.085 65.936 139.936 66 139.754 66C139.573 66 139.418 65.936 139.29 65.808C139.173 65.68 139.114 65.5253 139.114 65.344V60.88C139.114 60.4747 139.05 60.112 138.922 59.792C138.805 59.4613 138.602 59.2 138.314 59.008C138.037 58.8053 137.653 58.704 137.162 58.704C136.714 58.704 136.304 58.8053 135.93 59.008C135.557 59.2 135.258 59.4613 135.034 59.792C134.81 60.112 134.698 60.4747 134.698 60.88V65.344C134.698 65.5253 134.634 65.68 134.506 65.808C134.389 65.936 134.24 66 134.058 66C133.877 66 133.722 65.936 133.594 65.808C133.477 65.68 133.418 65.5253 133.418 65.344V58.368C133.418 58.1867 133.477 58.0373 133.594 57.92C133.722 57.792 133.877 57.728 134.058 57.728C134.25 57.728 134.405 57.792 134.522 57.92C134.64 58.0373 134.698 58.1867 134.698 58.368V59.504L134.378 59.856C134.432 59.5787 134.554 59.3013 134.746 59.024C134.938 58.736 135.178 58.48 135.466 58.256C135.754 58.032 136.074 57.856 136.426 57.728C136.778 57.5893 137.146 57.52 137.53 57.52ZM146.234 57.52C146.693 57.52 147.119 57.6 147.514 57.76C147.909 57.9093 148.25 58.1067 148.538 58.352C148.837 58.5973 149.066 58.8533 149.226 59.12C149.397 59.3867 149.482 59.6373 149.482 59.872L149.178 59.68V58.288C149.178 58.1067 149.237 57.9573 149.354 57.84C149.471 57.712 149.626 57.648 149.818 57.648C149.999 57.648 150.149 57.712 150.266 57.84C150.394 57.9573 150.458 58.1067 150.458 58.288V65.296C150.458 66.1707 150.271 66.896 149.898 67.472C149.535 68.048 149.045 68.48 148.426 68.768C147.807 69.056 147.114 69.2 146.346 69.2C146.026 69.2 145.674 69.1573 145.29 69.072C144.906 68.9867 144.565 68.88 144.266 68.752C143.967 68.6347 143.775 68.512 143.69 68.384C143.53 68.2773 143.429 68.1547 143.386 68.016C143.354 67.888 143.381 67.7653 143.466 67.648C143.562 67.4987 143.685 67.424 143.834 67.424C143.994 67.424 144.191 67.472 144.426 67.568C144.522 67.6 144.671 67.6533 144.874 67.728C145.087 67.8027 145.322 67.8667 145.578 67.92C145.845 67.984 146.106 68.016 146.362 68.016C147.269 68.016 147.962 67.776 148.442 67.296C148.933 66.8267 149.178 66.2027 149.178 65.424V63.936L149.354 64.016C149.29 64.3147 149.157 64.592 148.954 64.848C148.762 65.104 148.522 65.3333 148.234 65.536C147.957 65.728 147.647 65.8827 147.306 66C146.965 66.1067 146.618 66.16 146.266 66.16C145.519 66.16 144.847 65.9733 144.25 65.6C143.653 65.2267 143.178 64.7147 142.826 64.064C142.485 63.4133 142.314 62.672 142.314 61.84C142.314 60.9973 142.485 60.2507 142.826 59.6C143.178 58.9493 143.647 58.4427 144.234 58.08C144.831 57.7067 145.498 57.52 146.234 57.52ZM146.394 58.704C145.85 58.704 145.359 58.8427 144.922 59.12C144.495 59.3867 144.159 59.7547 143.914 60.224C143.679 60.6933 143.562 61.232 143.562 61.84C143.562 62.4267 143.679 62.96 143.914 63.44C144.159 63.9093 144.495 64.2827 144.922 64.56C145.359 64.8373 145.85 64.976 146.394 64.976C146.949 64.976 147.439 64.8427 147.866 64.576C148.293 64.2987 148.629 63.9253 148.874 63.456C149.119 62.9867 149.242 62.448 149.242 61.84C149.242 61.2213 149.119 60.6773 148.874 60.208C148.629 59.7387 148.293 59.3707 147.866 59.104C147.439 58.8373 146.949 58.704 146.394 58.704Z" fill="#4F46E5"/>
</svg>
