<svg width="220" height="238" viewBox="0 0 220 238" fill="none" xmlns="http://www.w3.org/2000/svg">
<path d="M52.4609 232V216.848H46.8008V214.82H60.418V216.848H54.7344V232H52.4609ZM61.707 225.777C61.707 223.473 62.3477 221.766 63.6289 220.656C64.6992 219.734 66.0039 219.273 67.543 219.273C69.2539 219.273 70.6523 219.836 71.7383 220.961C72.8242 222.078 73.3672 223.625 73.3672 225.602C73.3672 227.203 73.125 228.465 72.6406 229.387C72.1641 230.301 71.4648 231.012 70.543 231.52C69.6289 232.027 68.6289 232.281 67.543 232.281C65.8008 232.281 64.3906 231.723 63.3125 230.605C62.2422 229.488 61.707 227.879 61.707 225.777ZM63.875 225.777C63.875 227.371 64.2227 228.566 64.918 229.363C65.6133 230.152 66.4883 230.547 67.543 230.547C68.5898 230.547 69.4609 230.148 70.1562 229.352C70.8516 228.555 71.1992 227.34 71.1992 225.707C71.1992 224.168 70.8477 223.004 70.1445 222.215C69.4492 221.418 68.582 221.02 67.543 221.02C66.4883 221.02 65.6133 221.414 64.918 222.203C64.2227 222.992 63.875 224.184 63.875 225.777ZM67.5664 216.016L66.2422 218.008H63.8281L66.3594 214.727H68.6094L71.2461 218.008H68.8555L67.5664 216.016ZM75.8633 217.246V214.82H77.9727V217.246H75.8633ZM75.8633 232V219.555H77.9727V232H75.8633ZM87.8867 232V214.82H89.9961V224.617L94.9883 219.555H97.7188L92.9609 224.172L98.1992 232H95.5977L91.4844 225.637L89.9961 227.066V232H87.8867ZM99.875 232V214.82H101.984V220.984C102.969 219.844 104.211 219.273 105.711 219.273C106.633 219.273 107.434 219.457 108.113 219.824C108.793 220.184 109.277 220.684 109.566 221.324C109.863 221.965 110.012 222.895 110.012 224.113V232H107.902V224.113C107.902 223.059 107.672 222.293 107.211 221.816C106.758 221.332 106.113 221.09 105.277 221.09C104.652 221.09 104.062 221.254 103.508 221.582C102.961 221.902 102.57 222.34 102.336 222.895C102.102 223.449 101.984 224.215 101.984 225.191V232H99.875ZM112.449 225.777C112.449 223.473 113.09 221.766 114.371 220.656C115.441 219.734 116.746 219.273 118.285 219.273C119.996 219.273 121.395 219.836 122.48 220.961C123.566 222.078 124.109 223.625 124.109 225.602C124.109 227.203 123.867 228.465 123.383 229.387C122.906 230.301 122.207 231.012 121.285 231.52C120.371 232.027 119.371 232.281 118.285 232.281C116.543 232.281 115.133 231.723 114.055 230.605C112.984 229.488 112.449 227.879 112.449 225.777ZM114.617 225.777C114.617 227.371 114.965 228.566 115.66 229.363C116.355 230.152 117.23 230.547 118.285 230.547C119.332 230.547 120.203 230.148 120.898 229.352C121.594 228.555 121.941 227.34 121.941 225.707C121.941 224.168 121.59 223.004 120.887 222.215C120.191 221.418 119.324 221.02 118.285 221.02C117.23 221.02 116.355 221.414 115.66 222.203C114.965 222.992 114.617 224.184 114.617 225.777ZM118.309 216.016L116.984 218.008H114.57L117.102 214.727H119.352L121.988 218.008H119.598L118.309 216.016ZM126.594 232V219.555H128.492V221.324C129.406 219.957 130.727 219.273 132.453 219.273C133.203 219.273 133.891 219.41 134.516 219.684C135.148 219.949 135.621 220.301 135.934 220.738C136.246 221.176 136.465 221.695 136.59 222.297C136.668 222.688 136.707 223.371 136.707 224.348V232H134.598V224.43C134.598 223.57 134.516 222.93 134.352 222.508C134.188 222.078 133.895 221.738 133.473 221.488C133.059 221.23 132.57 221.102 132.008 221.102C131.109 221.102 130.332 221.387 129.676 221.957C129.027 222.527 128.703 223.609 128.703 225.203V232H126.594ZM139.566 233.031L141.617 233.336C141.703 233.969 141.941 234.43 142.332 234.719C142.855 235.109 143.57 235.305 144.477 235.305C145.453 235.305 146.207 235.109 146.738 234.719C147.27 234.328 147.629 233.781 147.816 233.078C147.926 232.648 147.977 231.746 147.969 230.371C147.047 231.457 145.898 232 144.523 232C142.812 232 141.488 231.383 140.551 230.148C139.613 228.914 139.145 227.434 139.145 225.707C139.145 224.52 139.359 223.426 139.789 222.426C140.219 221.418 140.84 220.641 141.652 220.094C142.473 219.547 143.434 219.273 144.535 219.273C146.004 219.273 147.215 219.867 148.168 221.055V219.555H150.113V230.312C150.113 232.25 149.914 233.621 149.516 234.426C149.125 235.238 148.5 235.879 147.641 236.348C146.789 236.816 145.738 237.051 144.488 237.051C143.004 237.051 141.805 236.715 140.891 236.043C139.977 235.379 139.535 234.375 139.566 233.031ZM141.312 225.555C141.312 227.188 141.637 228.379 142.285 229.129C142.934 229.879 143.746 230.254 144.723 230.254C145.691 230.254 146.504 229.883 147.16 229.141C147.816 228.391 148.145 227.219 148.145 225.625C148.145 224.102 147.805 222.953 147.125 222.18C146.453 221.406 145.641 221.02 144.688 221.02C143.75 221.02 142.953 221.402 142.297 222.168C141.641 222.926 141.312 224.055 141.312 225.555ZM159.969 232V219.555H161.867V221.441C162.352 220.559 162.797 219.977 163.203 219.695C163.617 219.414 164.07 219.273 164.562 219.273C165.273 219.273 165.996 219.5 166.73 219.953L166.004 221.91C165.488 221.605 164.973 221.453 164.457 221.453C163.996 221.453 163.582 221.594 163.215 221.875C162.848 222.148 162.586 222.531 162.43 223.023C162.195 223.773 162.078 224.594 162.078 225.484V232H159.969ZM167.199 225.777C167.199 223.473 167.84 221.766 169.121 220.656C170.191 219.734 171.496 219.273 173.035 219.273C174.746 219.273 176.145 219.836 177.23 220.961C178.316 222.078 178.859 223.625 178.859 225.602C178.859 227.203 178.617 228.465 178.133 229.387C177.656 230.301 176.957 231.012 176.035 231.52C175.121 232.027 174.121 232.281 173.035 232.281C171.293 232.281 169.883 231.723 168.805 230.605C167.734 229.488 167.199 227.879 167.199 225.777ZM169.367 225.777C169.367 227.371 169.715 228.566 170.41 229.363C171.105 230.152 171.98 230.547 173.035 230.547C174.082 230.547 174.953 230.148 175.648 229.352C176.344 228.555 176.691 227.34 176.691 225.707C176.691 224.168 176.34 223.004 175.637 222.215C174.941 221.418 174.074 221.02 173.035 221.02C171.98 221.02 171.105 221.414 170.41 222.203C169.715 222.992 169.367 224.184 169.367 225.777ZM169.109 217.715C169.102 216.902 169.324 216.254 169.777 215.77C170.223 215.285 170.793 215.043 171.488 215.043C171.973 215.043 172.633 215.254 173.469 215.676C173.93 215.91 174.297 216.027 174.57 216.027C174.82 216.027 175.012 215.961 175.145 215.828C175.277 215.688 175.371 215.414 175.426 215.008H176.949C176.926 215.898 176.699 216.566 176.27 217.012C175.848 217.457 175.309 217.68 174.652 217.68C174.16 217.68 173.512 217.461 172.707 217.023C172.184 216.742 171.801 216.602 171.559 216.602C171.293 216.602 171.078 216.695 170.914 216.883C170.742 217.07 170.66 217.348 170.668 217.715H169.109Z" fill="#313131"/>
<path d="M108.219 59.448H117.051L117.307 56.952C117.499 54.904 119.931 53.112 122.363 50.872C125.243 48.184 128.059 44.92 128.059 39.992C128.059 31.16 121.339 27.256 113.979 27.256C108.539 27.256 103.355 29.624 100.411 33.144L107.451 39.608C108.923 37.816 110.971 36.6 113.211 36.6C115.771 36.6 117.307 38.072 117.307 40.568C117.307 43.064 115.323 45.176 113.467 47.16C110.907 49.784 108.091 52.344 108.155 56.376L108.219 59.448ZM112.699 75.64C115.899 75.64 118.587 73.016 118.587 69.752C118.587 66.616 115.899 63.928 112.699 63.928C109.371 63.928 106.747 66.616 106.747 69.752C106.747 73.016 109.371 75.64 112.699 75.64Z" fill="#C9C9C9"/>
<path d="M177.5 97.5H50V126H164.5C175.7 126 177.833 117.667 177.5 113.5V97.5Z" fill="#C9C9C9"/>
<path d="M177.5 90.5H50V97.5H177.5V90.5Z" fill="#003161"/>
<path d="M177.5 84H50V91H177.5V84Z" fill="#EDF0F7"/>
<rect x="7.5" y="0.5" width="212" height="191" rx="9.5" stroke="#292BB7"/>
<circle cx="28.5" cy="21.5" r="11" fill="#292BB7" stroke="#292BB7"/>
<path d="M27.2212 26C27.3725 26 27.5237 25.9518 27.6391 25.8558L33.8269 18.8399C34.0577 18.6479 34.0577 18.3364 33.8269 18.144C33.5962 17.952 33.2219 17.952 32.9911 18.144L27.2212 24.8121L24.0092 22.1394C23.7785 21.9474 23.4042 21.9474 23.1734 22.1394C22.9422 22.3314 22.9422 22.6429 23.1734 22.8353L26.8033 25.8558C26.9187 25.9518 27.0699 26 27.2212 26Z" fill="white"/>
</svg>
