<svg width="215" height="192" viewBox="0 0 215 192" fill="none" xmlns="http://www.w3.org/2000/svg">
<path d="M101.219 59.448H110.051L110.307 56.952C110.499 54.904 112.931 53.112 115.363 50.872C118.243 48.184 121.059 44.92 121.059 39.992C121.059 31.16 114.339 27.256 106.979 27.256C101.539 27.256 96.3548 29.624 93.4108 33.144L100.451 39.608C101.923 37.816 103.971 36.6 106.211 36.6C108.771 36.6 110.307 38.072 110.307 40.568C110.307 43.064 108.323 45.176 106.467 47.16C103.907 49.784 101.091 52.344 101.155 56.376L101.219 59.448ZM105.699 75.64C108.899 75.64 111.587 73.016 111.587 69.752C111.587 66.616 108.899 63.928 105.699 63.928C102.371 63.928 99.7468 66.616 99.7468 69.752C99.7468 73.016 102.371 75.64 105.699 75.64Z" fill="#C9C9C9"/>
<path d="M170.5 97.5H43V126H157.5C168.7 126 170.833 117.667 170.5 113.5V97.5Z" fill="#C9C9C9"/>
<path d="M170.5 90.5H43V97.5H170.5V90.5Z" fill="#003161"/>
<path d="M170.5 84H43V91H170.5V84Z" fill="#EDF0F7"/>
<rect x="0.5" y="0.5" width="214" height="191" rx="9.5" stroke="#292BB7"/>
<circle cx="21.5" cy="21.5" r="11" fill="#292BB7" stroke="#292BB7"/>
<path d="M20.2212 26C20.3725 26 20.5237 25.9518 20.6391 25.8558L26.8269 18.8399C27.0577 18.6479 27.0577 18.3364 26.8269 18.144C26.5962 17.952 26.2219 17.952 25.9911 18.144L20.2212 24.8121L17.0092 22.1394C16.7785 21.9474 16.4042 21.9474 16.1734 22.1394C15.9422 22.3314 15.9422 22.6429 16.1734 22.8353L19.8033 25.8558C19.9187 25.9518 20.0699 26 20.2212 26Z" fill="white"/>
</svg>
