<svg width="200" height="232" viewBox="0 0 200 232" fill="none" xmlns="http://www.w3.org/2000/svg">
<path d="M96.0545 79.888C96.0545 79.3333 96.2358 78.8747 96.5985 78.512C96.9612 78.128 97.4198 77.936 97.9745 77.936C98.8492 77.936 99.6385 77.808 100.343 77.552C101.047 77.2747 101.601 76.8373 102.007 76.24C102.433 75.6427 102.647 74.8533 102.647 73.872C102.647 73.1467 102.465 72.5067 102.103 71.952C101.761 71.3973 101.281 70.96 100.663 70.64C100.065 70.32 99.3825 70.16 98.6145 70.16C98.0172 70.16 97.4518 70.2667 96.9185 70.48C96.4065 70.6933 95.9372 70.9813 95.5105 71.344C95.1692 71.6427 94.7532 71.8667 94.2625 72.016C93.7932 72.144 93.3132 72.0267 92.8225 71.664C92.3105 71.28 92.0332 70.8213 91.9905 70.288C91.9478 69.7547 92.1505 69.264 92.5985 68.816C93.3665 68.0267 94.2625 67.4187 95.2865 66.992C96.3318 66.544 97.4412 66.32 98.6145 66.32C100.087 66.32 101.409 66.6613 102.583 67.344C103.777 68.0053 104.727 68.9013 105.431 70.032C106.135 71.1627 106.487 72.4427 106.487 73.872C106.487 74.9387 106.327 75.888 106.007 76.72C105.687 77.5307 105.228 78.2347 104.631 78.832C104.055 79.408 103.372 79.8773 102.583 80.24C101.815 80.5813 100.972 80.8267 100.055 80.976C100.012 80.9973 99.9692 81.0187 99.9265 81.04C99.9052 81.0613 99.8945 81.0933 99.8945 81.136V82.32C99.8945 82.8747 99.7132 83.344 99.3505 83.728C98.9878 84.0907 98.5292 84.272 97.9745 84.272C97.4198 84.272 96.9612 84.0907 96.5985 83.728C96.2358 83.344 96.0545 82.8747 96.0545 82.32V79.888ZM97.8145 90C97.1958 90 96.7158 89.84 96.3745 89.52C96.0545 89.1787 95.8945 88.6987 95.8945 88.08V87.536C95.8945 86.9173 96.0545 86.448 96.3745 86.128C96.7158 85.7867 97.1958 85.616 97.8145 85.616H98.2305C98.8492 85.616 99.3185 85.7867 99.6385 86.128C99.9798 86.448 100.151 86.9173 100.151 87.536V88.08C100.151 88.6987 99.9798 89.1787 99.6385 89.52C99.3185 89.84 98.8492 90 98.2305 90H97.8145Z" fill="#C9C9C9"/>
<path d="M151.718 112.062H48C43.5817 112.062 40 115.644 40 120.062V133.75C40 138.168 43.5619 141.75 47.9801 141.75H147.512C158.028 141.75 160.031 133.069 159.718 128.729V120.062C159.718 115.644 156.137 112.062 151.718 112.062Z" fill="#C9C9C9"/>
<path d="M156.072 104.771H43.6458C41.6323 104.771 40 106.403 40 108.417C40 110.43 41.6323 112.063 43.6458 112.063H156.072C158.086 112.063 159.718 110.43 159.718 108.417C159.718 106.403 158.086 104.771 156.072 104.771Z" fill="#003161"/>
<path d="M156.072 98H43.6458C41.6323 98 40 99.6323 40 101.646C40 103.659 41.6323 105.292 43.6458 105.292H156.072C158.086 105.292 159.718 103.659 159.718 101.646C159.718 99.6323 158.086 98 156.072 98Z" fill="#EDF0F7"/>
<rect x="0.5" y="0.5" width="199" height="199" rx="7.5" stroke="#C7D2FE"/>
<path d="M57.3019 226C57.1099 226 56.9499 225.936 56.8219 225.808C56.6939 225.68 56.6299 225.525 56.6299 225.344V215.456H57.9899V225.344C57.9899 225.525 57.9259 225.68 57.7979 225.808C57.6699 225.936 57.5045 226 57.3019 226ZM53.5899 216.016C53.4085 216.016 53.2539 215.963 53.1259 215.856C53.0085 215.739 52.9499 215.589 52.9499 215.408C52.9499 215.227 53.0085 215.083 53.1259 214.976C53.2539 214.859 53.4085 214.8 53.5899 214.8H61.0299C61.2112 214.8 61.3659 214.859 61.4939 214.976C61.6219 215.083 61.6859 215.227 61.6859 215.408C61.6859 215.6 61.6219 215.749 61.4939 215.856C61.3659 215.963 61.2112 216.016 61.0299 216.016H53.5899ZM71.2431 221.84C71.2431 222.672 71.0565 223.413 70.6831 224.064C70.3205 224.715 69.8245 225.227 69.1951 225.6C68.5765 225.973 67.8778 226.16 67.0991 226.16C66.3205 226.16 65.6165 225.973 64.9871 225.6C64.3578 225.227 63.8565 224.715 63.4831 224.064C63.1205 223.413 62.9391 222.672 62.9391 221.84C62.9391 221.008 63.1205 220.267 63.4831 219.616C63.8565 218.965 64.3578 218.453 64.9871 218.08C65.6165 217.707 66.3205 217.52 67.0991 217.52C67.8778 217.52 68.5765 217.707 69.1951 218.08C69.8245 218.453 70.3205 218.965 70.6831 219.616C71.0565 220.267 71.2431 221.008 71.2431 221.84ZM69.9631 221.84C69.9631 221.221 69.8351 220.677 69.5791 220.208C69.3338 219.739 68.9925 219.371 68.5551 219.104C68.1285 218.837 67.6431 218.704 67.0991 218.704C66.5551 218.704 66.0645 218.837 65.6271 219.104C65.2005 219.371 64.8591 219.739 64.6031 220.208C64.3471 220.677 64.2191 221.221 64.2191 221.84C64.2191 222.448 64.3471 222.987 64.6031 223.456C64.8591 223.925 65.2005 224.299 65.6271 224.576C66.0645 224.843 66.5551 224.976 67.0991 224.976C67.6431 224.976 68.1285 224.843 68.5551 224.576C68.9925 224.299 69.3338 223.925 69.5791 223.456C69.8351 222.987 69.9631 222.448 69.9631 221.84ZM67.3391 215.184L65.9951 216.304C65.8991 216.389 65.8138 216.459 65.7391 216.512C65.6751 216.555 65.5791 216.576 65.4511 216.576C65.3551 216.576 65.2751 216.549 65.2111 216.496C65.1471 216.432 65.1151 216.363 65.1151 216.288C65.1151 216.224 65.1258 216.171 65.1471 216.128C65.1685 216.075 65.2058 216.011 65.2591 215.936L66.2991 214.752C66.4698 214.539 66.6991 214.432 66.9871 214.432H67.3551C67.5045 214.432 67.6218 214.453 67.7071 214.496C67.8031 214.539 67.8938 214.624 67.9791 214.752L68.9711 215.936C69.0351 216 69.0725 216.059 69.0831 216.112C69.1045 216.165 69.1151 216.219 69.1151 216.272C69.1151 216.347 69.0831 216.416 69.0191 216.48C68.9658 216.544 68.8858 216.576 68.7791 216.576C68.6618 216.576 68.5658 216.549 68.4911 216.496C68.4271 216.443 68.3418 216.379 68.2351 216.304L66.8431 215.136L67.3391 215.184ZM74.4004 225.344C74.4004 225.525 74.3364 225.68 74.2084 225.808C74.091 225.936 73.9417 226 73.7604 226C73.5684 226 73.4137 225.936 73.2964 225.808C73.179 225.68 73.1204 225.525 73.1204 225.344V218.24C73.1204 218.059 73.179 217.909 73.2964 217.792C73.4244 217.664 73.579 217.6 73.7604 217.6C73.9417 217.6 74.091 217.664 74.2084 217.792C74.3364 217.909 74.4004 218.059 74.4004 218.24V225.344ZM73.7604 216.528C73.4937 216.528 73.2964 216.475 73.1684 216.368C73.0404 216.261 72.9764 216.096 72.9764 215.872V215.648C72.9764 215.424 73.0457 215.259 73.1844 215.152C73.323 215.045 73.5204 214.992 73.7764 214.992C74.0324 214.992 74.2244 215.045 74.3524 215.152C74.4804 215.259 74.5444 215.424 74.5444 215.648V215.872C74.5444 216.096 74.475 216.261 74.3364 216.368C74.2084 216.475 74.0164 216.528 73.7604 216.528ZM81.8739 226C81.6819 226 81.5272 225.936 81.4099 225.808C81.2925 225.68 81.2339 225.525 81.2339 225.344V214.8C81.2339 214.619 81.2925 214.469 81.4099 214.352C81.5272 214.224 81.6819 214.16 81.8739 214.16C82.0552 214.16 82.2045 214.224 82.3219 214.352C82.4499 214.469 82.5139 214.619 82.5139 214.8V225.344C82.5139 225.525 82.4499 225.68 82.3219 225.808C82.2045 225.936 82.0552 226 81.8739 226ZM87.1859 217.68C87.3565 217.68 87.5005 217.749 87.6179 217.888C87.7459 218.016 87.8099 218.149 87.8099 218.288C87.8099 218.469 87.7245 218.629 87.5539 218.768L82.3699 223.296L82.3219 221.808L86.7379 217.872C86.8659 217.744 87.0152 217.68 87.1859 217.68ZM87.3619 225.984C87.1805 225.984 87.0205 225.915 86.8819 225.776L83.4739 222.144L84.4339 221.264L87.8099 224.88C87.9379 225.019 88.0019 225.179 88.0019 225.36C88.0019 225.552 87.9272 225.707 87.7779 225.824C87.6285 225.931 87.4899 225.984 87.3619 225.984ZM93.7778 217.6C94.4818 217.6 95.0364 217.755 95.4418 218.064C95.8578 218.363 96.1511 218.768 96.3218 219.28C96.5031 219.781 96.5938 220.341 96.5938 220.96V225.344C96.5938 225.525 96.5298 225.68 96.4018 225.808C96.2844 225.936 96.1351 226 95.9538 226C95.7724 226 95.6178 225.936 95.4898 225.808C95.3724 225.68 95.3138 225.525 95.3138 225.344V220.96C95.3138 220.555 95.2551 220.192 95.1378 219.872C95.0204 219.541 94.8231 219.28 94.5458 219.088C94.2791 218.885 93.9111 218.784 93.4418 218.784C93.0044 218.784 92.6044 218.885 92.2418 219.088C91.8791 219.28 91.5911 219.541 91.3778 219.872C91.1644 220.192 91.0578 220.555 91.0578 220.96V225.344C91.0578 225.525 90.9938 225.68 90.8658 225.808C90.7484 225.936 90.5991 226 90.4178 226C90.2364 226 90.0818 225.936 89.9538 225.808C89.8364 225.68 89.7778 225.525 89.7778 225.344V214.8C89.7778 214.619 89.8364 214.469 89.9538 214.352C90.0818 214.224 90.2364 214.16 90.4178 214.16C90.6098 214.16 90.7644 214.224 90.8818 214.352C90.9991 214.469 91.0578 214.619 91.0578 214.8V219.584L90.7378 219.936C90.7911 219.659 90.9084 219.381 91.0898 219.104C91.2711 218.816 91.5004 218.56 91.7778 218.336C92.0551 218.112 92.3644 217.936 92.7057 217.808C93.0471 217.669 93.4044 217.6 93.7778 217.6ZM106.821 221.84C106.821 222.672 106.635 223.413 106.261 224.064C105.899 224.715 105.403 225.227 104.773 225.6C104.155 225.973 103.456 226.16 102.677 226.16C101.899 226.16 101.195 225.973 100.565 225.6C99.9359 225.227 99.4346 224.715 99.0613 224.064C98.6986 223.413 98.5173 222.672 98.5173 221.84C98.5173 221.008 98.6986 220.267 99.0613 219.616C99.4346 218.965 99.9359 218.453 100.565 218.08C101.195 217.707 101.899 217.52 102.677 217.52C103.456 217.52 104.155 217.707 104.773 218.08C105.403 218.453 105.899 218.965 106.261 219.616C106.635 220.267 106.821 221.008 106.821 221.84ZM105.541 221.84C105.541 221.221 105.413 220.677 105.157 220.208C104.912 219.739 104.571 219.371 104.133 219.104C103.707 218.837 103.221 218.704 102.677 218.704C102.133 218.704 101.643 218.837 101.205 219.104C100.779 219.371 100.437 219.739 100.181 220.208C99.9253 220.677 99.7973 221.221 99.7973 221.84C99.7973 222.448 99.9253 222.987 100.181 223.456C100.437 223.925 100.779 224.299 101.205 224.576C101.643 224.843 102.133 224.976 102.677 224.976C103.221 224.976 103.707 224.843 104.133 224.576C104.571 224.299 104.912 223.925 105.157 223.456C105.413 222.987 105.541 222.448 105.541 221.84ZM102.917 215.184L101.573 216.304C101.477 216.389 101.392 216.459 101.317 216.512C101.253 216.555 101.157 216.576 101.029 216.576C100.933 216.576 100.853 216.549 100.789 216.496C100.725 216.432 100.693 216.363 100.693 216.288C100.693 216.224 100.704 216.171 100.725 216.128C100.747 216.075 100.784 216.011 100.837 215.936L101.877 214.752C102.048 214.539 102.277 214.432 102.565 214.432H102.933C103.083 214.432 103.2 214.453 103.285 214.496C103.381 214.539 103.472 214.624 103.557 214.752L104.549 215.936C104.613 216 104.651 216.059 104.661 216.112C104.683 216.165 104.693 216.219 104.693 216.272C104.693 216.347 104.661 216.416 104.597 216.48C104.544 216.544 104.464 216.576 104.357 216.576C104.24 216.576 104.144 216.549 104.069 216.496C104.005 216.443 103.92 216.379 103.813 216.304L102.421 215.136L102.917 215.184ZM112.859 217.52C113.584 217.52 114.155 217.669 114.571 217.968C114.987 218.267 115.28 218.667 115.451 219.168C115.632 219.669 115.723 220.229 115.723 220.848V225.344C115.723 225.525 115.659 225.68 115.531 225.808C115.413 225.936 115.264 226 115.083 226C114.901 226 114.747 225.936 114.619 225.808C114.501 225.68 114.443 225.525 114.443 225.344V220.88C114.443 220.475 114.379 220.112 114.251 219.792C114.133 219.461 113.931 219.2 113.643 219.008C113.365 218.805 112.981 218.704 112.491 218.704C112.043 218.704 111.632 218.805 111.259 219.008C110.885 219.2 110.587 219.461 110.363 219.792C110.139 220.112 110.027 220.475 110.027 220.88V225.344C110.027 225.525 109.963 225.68 109.835 225.808C109.717 225.936 109.568 226 109.387 226C109.205 226 109.051 225.936 108.923 225.808C108.805 225.68 108.747 225.525 108.747 225.344V218.368C108.747 218.187 108.805 218.037 108.923 217.92C109.051 217.792 109.205 217.728 109.387 217.728C109.579 217.728 109.733 217.792 109.851 217.92C109.968 218.037 110.027 218.187 110.027 218.368V219.504L109.707 219.856C109.76 219.579 109.883 219.301 110.075 219.024C110.267 218.736 110.507 218.48 110.795 218.256C111.083 218.032 111.403 217.856 111.755 217.728C112.107 217.589 112.475 217.52 112.859 217.52ZM121.562 217.52C122.021 217.52 122.448 217.6 122.842 217.76C123.237 217.909 123.578 218.107 123.866 218.352C124.165 218.597 124.394 218.853 124.554 219.12C124.725 219.387 124.81 219.637 124.81 219.872L124.506 219.68V218.288C124.506 218.107 124.565 217.957 124.682 217.84C124.8 217.712 124.954 217.648 125.146 217.648C125.328 217.648 125.477 217.712 125.594 217.84C125.722 217.957 125.786 218.107 125.786 218.288V225.296C125.786 226.171 125.6 226.896 125.226 227.472C124.864 228.048 124.373 228.48 123.754 228.768C123.136 229.056 122.442 229.2 121.674 229.2C121.354 229.2 121.002 229.157 120.618 229.072C120.234 228.987 119.893 228.88 119.594 228.752C119.296 228.635 119.104 228.512 119.018 228.384C118.858 228.277 118.757 228.155 118.714 228.016C118.682 227.888 118.709 227.765 118.794 227.648C118.89 227.499 119.013 227.424 119.162 227.424C119.322 227.424 119.52 227.472 119.754 227.568C119.85 227.6 120 227.653 120.202 227.728C120.416 227.803 120.65 227.867 120.906 227.92C121.173 227.984 121.434 228.016 121.69 228.016C122.597 228.016 123.29 227.776 123.77 227.296C124.261 226.827 124.506 226.203 124.506 225.424V223.936L124.682 224.016C124.618 224.315 124.485 224.592 124.282 224.848C124.09 225.104 123.85 225.333 123.562 225.536C123.285 225.728 122.976 225.883 122.634 226C122.293 226.107 121.946 226.16 121.594 226.16C120.848 226.16 120.176 225.973 119.578 225.6C118.981 225.227 118.506 224.715 118.154 224.064C117.813 223.413 117.642 222.672 117.642 221.84C117.642 220.997 117.813 220.251 118.154 219.6C118.506 218.949 118.976 218.443 119.562 218.08C120.16 217.707 120.826 217.52 121.562 217.52ZM121.722 218.704C121.178 218.704 120.688 218.843 120.25 219.12C119.824 219.387 119.488 219.755 119.242 220.224C119.008 220.693 118.89 221.232 118.89 221.84C118.89 222.427 119.008 222.96 119.242 223.44C119.488 223.909 119.824 224.283 120.25 224.56C120.688 224.837 121.178 224.976 121.722 224.976C122.277 224.976 122.768 224.843 123.194 224.576C123.621 224.299 123.957 223.925 124.202 223.456C124.448 222.987 124.57 222.448 124.57 221.84C124.57 221.221 124.448 220.677 124.202 220.208C123.957 219.739 123.621 219.371 123.194 219.104C122.768 218.837 122.277 218.704 121.722 218.704ZM133.199 226C133.018 226 132.863 225.936 132.735 225.808C132.618 225.68 132.559 225.525 132.559 225.344V218.368C132.559 218.187 132.618 218.037 132.735 217.92C132.863 217.792 133.018 217.728 133.199 217.728C133.391 217.728 133.546 217.792 133.663 217.92C133.78 218.037 133.839 218.187 133.839 218.368V220.48L133.647 220.144C133.711 219.813 133.823 219.493 133.983 219.184C134.154 218.864 134.367 218.581 134.623 218.336C134.879 218.08 135.172 217.883 135.503 217.744C135.834 217.595 136.196 217.52 136.591 217.52C136.826 217.52 137.039 217.579 137.231 217.696C137.434 217.803 137.535 217.957 137.535 218.16C137.535 218.384 137.476 218.549 137.359 218.656C137.242 218.763 137.108 218.816 136.959 218.816C136.82 218.816 136.687 218.789 136.559 218.736C136.431 218.672 136.271 218.64 136.079 218.64C135.812 218.64 135.546 218.715 135.279 218.864C135.023 219.003 134.783 219.205 134.559 219.472C134.346 219.739 134.17 220.043 134.031 220.384C133.903 220.715 133.839 221.072 133.839 221.456V225.344C133.839 225.525 133.775 225.68 133.647 225.808C133.53 225.936 133.38 226 133.199 226ZM146.837 221.84C146.837 222.672 146.65 223.413 146.277 224.064C145.914 224.715 145.418 225.227 144.789 225.6C144.17 225.973 143.472 226.16 142.693 226.16C141.914 226.16 141.21 225.973 140.581 225.6C139.952 225.227 139.45 224.715 139.077 224.064C138.714 223.413 138.533 222.672 138.533 221.84C138.533 221.008 138.714 220.267 139.077 219.616C139.45 218.965 139.952 218.453 140.581 218.08C141.21 217.707 141.914 217.52 142.693 217.52C143.472 217.52 144.17 217.707 144.789 218.08C145.418 218.453 145.914 218.965 146.277 219.616C146.65 220.267 146.837 221.008 146.837 221.84ZM145.557 221.84C145.557 221.221 145.429 220.677 145.173 220.208C144.928 219.739 144.586 219.371 144.149 219.104C143.722 218.837 143.237 218.704 142.693 218.704C142.149 218.704 141.658 218.837 141.221 219.104C140.794 219.371 140.453 219.739 140.197 220.208C139.941 220.677 139.813 221.221 139.813 221.84C139.813 222.448 139.941 222.987 140.197 223.456C140.453 223.925 140.794 224.299 141.221 224.576C141.658 224.843 142.149 224.976 142.693 224.976C143.237 224.976 143.722 224.843 144.149 224.576C144.586 224.299 144.928 223.925 145.173 223.456C145.429 222.987 145.557 222.448 145.557 221.84ZM140.613 216.576C140.421 216.576 140.277 216.507 140.181 216.368C140.085 216.219 140.048 216.011 140.069 215.744C140.122 215.403 140.288 215.12 140.565 214.896C140.853 214.672 141.226 214.56 141.685 214.56C141.909 214.56 142.122 214.608 142.325 214.704C142.538 214.8 142.736 214.912 142.917 215.04C143.109 215.157 143.29 215.269 143.461 215.376C143.632 215.472 143.786 215.52 143.925 215.52C144.064 215.52 144.17 215.477 144.245 215.392C144.33 215.296 144.373 215.168 144.373 215.008C144.341 214.837 144.368 214.704 144.453 214.608C144.549 214.512 144.666 214.464 144.805 214.464C145.008 214.464 145.152 214.539 145.237 214.688C145.333 214.827 145.37 215.019 145.349 215.264C145.328 215.488 145.253 215.696 145.125 215.888C145.008 216.069 144.842 216.219 144.629 216.336C144.416 216.453 144.149 216.512 143.829 216.512C143.637 216.512 143.44 216.464 143.237 216.368C143.034 216.272 142.826 216.165 142.613 216.048C142.41 215.92 142.218 215.808 142.037 215.712C141.856 215.616 141.696 215.568 141.557 215.568C141.418 215.568 141.301 215.611 141.205 215.696C141.12 215.771 141.066 215.893 141.045 216.064C141.066 216.224 141.029 216.352 140.933 216.448C140.848 216.533 140.741 216.576 140.613 216.576Z" fill="#4F46E5"/>
</svg>
