<svg width="215" height="192" viewBox="0 0 215 192" fill="none" xmlns="http://www.w3.org/2000/svg">
<path d="M101.829 59.448H110.661L110.917 56.952C111.109 54.904 113.541 53.112 115.973 50.872C118.853 48.184 121.669 44.92 121.669 39.992C121.669 31.16 114.949 27.256 107.589 27.256C102.149 27.256 96.9653 29.624 94.0213 33.144L101.061 39.608C102.533 37.816 104.581 36.6 106.821 36.6C109.381 36.6 110.917 38.072 110.917 40.568C110.917 43.064 108.933 45.176 107.077 47.16C104.517 49.784 101.701 52.344 101.765 56.376L101.829 59.448ZM106.309 75.64C109.509 75.64 112.197 73.016 112.197 69.752C112.197 66.616 109.509 63.928 106.309 63.928C102.981 63.928 100.357 66.616 100.357 69.752C100.357 73.016 102.981 75.64 106.309 75.64Z" fill="#C9C9C9"/>
<path d="M171.697 97.5H43V126H158.575C169.88 126 172.034 117.667 171.697 113.5V97.5Z" fill="#C9C9C9"/>
<path d="M171.697 90.5H43V97.5H171.697V90.5Z" fill="#003161"/>
<path d="M171.697 84H43V91H171.697V84Z" fill="#EDF0F7"/>
<rect x="0.5" y="0.5" width="214" height="191" rx="9.5" stroke="#DFDFDF"/>
</svg>
